<svg xmlns="http://www.w3.org/2000/svg" viewBox="0 0 23.82 26"><defs></defs><title>arrow-r</title><g id="Layer_1" data-name="Layer 1"><path fill="#F69679" class="cls-1" d="M1.16,13.4a26.56,26.56,0,0,1,5.37-.34L11.91,13l5.37.05a24.51,24.51,0,0,1,5.37.34.6.6,0,0,1,0,1.17,24.51,24.51,0,0,1-5.37.34L11.91,15l-5.37-.05a26.56,26.56,0,0,1-5.37-.34.6.6,0,0,1,0-1.17Z"/><path fill="#F69679" class="cls-1" d="M18.37,7.59a12.7,12.7,0,0,1,2.7,2.75c.83,1,1.63,2,2.44,3a1.08,1.08,0,0,1,0,1.36c-.81,1-1.6,2-2.43,3L19.84,19.1a5.16,5.16,0,0,1-1.47,1.28.71.71,0,0,1-1-.81,5.16,5.16,0,0,1,.92-1.72l1.17-1.52c.77-1,1.57-2,2.36-3v1.36c-.79-1-1.59-2-2.36-3a12.7,12.7,0,0,1-2.09-3.23.69.69,0,0,1,1-.81Z"/></g></svg>
