<svg xmlns="http://www.w3.org/2000/svg" viewBox="0 0 15.12 26"><defs><style>.cls-1{fill:#f47a5c;}</style></defs><title>arrow-dsvg</title><g id="Layer_1" data-name="Layer 1"><path class="cls-1" d="M8.21,6.22a18.36,18.36,0,0,1,.39,4.62l.05,4.62c0,1.54,0,3.08,0,4.62l0,2.31a7.37,7.37,0,0,1-.35,2.31.69.69,0,0,1-1.3,0,7.37,7.37,0,0,1-.35-2.31l0-2.31c0-1.54,0-3.08,0-4.62l.05-4.62a18.36,18.36,0,0,1,.39-4.62.68.68,0,0,1,.84-.46A.68.68,0,0,1,8.21,6.22Z"/><path class="cls-1" d="M14,20.43a12.7,12.7,0,0,1-2.75,2.7c-1,.83-2,1.63-3,2.44a1.08,1.08,0,0,1-1.36,0c-1-.81-2-1.6-3-2.43L2.45,21.9a5.16,5.16,0,0,1-1.28-1.47.71.71,0,0,1,.81-1,5.16,5.16,0,0,1,1.72.92L5.22,21.5c1,.77,2,1.57,3,2.36H6.88c1-.79,2-1.59,3-2.36a12.7,12.7,0,0,1,3.23-2.09.69.69,0,0,1,.81,1Z"/></g></svg>