<svg xmlns="http://www.w3.org/2000/svg" viewBox="0 0 25 26"><defs></defs><title>icons3</title><g id="Layer_1" data-name="Layer 1"><path fill="#f69679" class="cls-1" d="M6.83 22.13H2.24a.9.9 0 0 1-.9-.9V5.49a.9.9 0 0 1 .9-.9h4.6A4.29 4.29 0 0 1 11.41 9a4.52 4.52 0 0 1-1.48 3.71A4.76 4.76 0 0 1 13 17.12c0 5.01-4.63 5.01-6.17 5.01zm-3.7-1.8h3.7c3.16 0 4.39-.9 4.39-3.21 0-2.79-3.5-3.4-4.85-3.4H3.14zm0-8.4h3.24c2.69 0 3.24-1.18 3.24-2.94a2.52 2.52 0 0 0-2.78-2.6H3.14zM15.31 15.44h8l-.9.9a3.72 3.72 0 0 0-.74-2.23 2.59 2.59 0 0 0-1.91-1 3.62 3.62 0 0 0-2.25.5 2.94 2.94 0 0 0-1.12 1.91 7.46 7.46 0 0 0-.14 1.31 3.86 3.86 0 0 0 .13 1.2 3 3 0 0 0 1.38 1.75 4.61 4.61 0 0 0 2.4.53 6.45 6.45 0 0 0 2.41-.6.7.7 0 0 1 .8 1.11 4.55 4.55 0 0 1-3.17 1.31 6.42 6.42 0 0 1-3.38-.73 4.83 4.83 0 0 1-2.27-2.81 5.74 5.74 0 0 1-.23-1.76 8.8 8.8 0 0 1 .17-1.67 4.83 4.83 0 0 1 1.91-3.08 5.47 5.47 0 0 1 3.48-.83A4.45 4.45 0 0 1 23.13 13a5.53 5.53 0 0 1 1.08 3.37.9.9 0 0 1-.9.9h-8a.9.9 0 0 1 0-1.8zM15.94 7.86a6.81 6.81 0 0 1 1.68-.31c.56 0 1.12-.06 1.68-.07s1.12 0 1.68.06a6.35 6.35 0 0 1 1.68.32.62.62 0 0 1 0 1.17 6.35 6.35 0 0 1-1.66.31c-.56 0-1.12.06-1.68.06s-1.12 0-1.68-.07a6.81 6.81 0 0 1-1.7-.33.62.62 0 0 1 0-1.17z"/></g></svg>