<svg xmlns="http://www.w3.org/2000/svg" viewBox="0 0 19 26"><defs></defs><title>icons3</title><g id="Layer_1" data-name="Layer 1"><path fill="#f47a5c" class="cls-1" d="M16.74,19.89,10.82,14l5.91-5.91a13.7,13.7,0,0,0,2-2.38.71.71,0,0,0-1-1,13.71,13.71,0,0,0-2.37,2L9.5,12.65,3.59,6.74a13.36,13.36,0,0,0-2.38-2h0a.71.71,0,0,0-1,1,13.29,13.29,0,0,0,2,2.37L8.19,14,2.27,19.88a13.29,13.29,0,0,0-2,2.38.71.71,0,0,0,0,.81.7.7,0,0,0,.46.29H.81a.71.71,0,0,0,.4-.13,13.38,13.38,0,0,0,2.37-2L9.5,15.28l5.91,5.91a13.69,13.69,0,0,0,2.38,2,.71.71,0,0,0,1-1A13.71,13.71,0,0,0,16.74,19.89Z"/></g></svg>