<svg xmlns="http://www.w3.org/2000/svg" viewBox="0 0 19 26"><defs><style>.cls-1{fill:#f47a5c;}</style></defs><title>icons3</title><g id="Layer_1" data-name="Layer 1"><path class="cls-1" d="M1.14,4.79a13.28,13.28,0,0,1,2.35,2L5.69,9l4.38,4.38,4.38,4.38L16.65,20a13.73,13.73,0,0,1,2,2.35.58.58,0,0,1-.81.81,13.73,13.73,0,0,1-2.35-2l-2.19-2.19L8.93,14.54,4.55,10.15,2.36,8a13.28,13.28,0,0,1-2-2.35.58.58,0,0,1,.81-.81Z"/><path class="cls-1" d="M.33,22.33a13.28,13.28,0,0,1,2-2.35l2.19-2.19L8.93,13.4,13.32,9l2.19-2.19a13.73,13.73,0,0,1,2.35-2,.58.58,0,0,1,.81.81,13.73,13.73,0,0,1-2,2.35l-2.19,2.19-4.38,4.38L5.69,18.92,3.5,21.11a13.28,13.28,0,0,1-2.35,2,.58.58,0,0,1-.81-.81Z"/></g></svg>