<svg xmlns="http://www.w3.org/2000/svg" viewBox="0 0 25.01 26"><defs><style>.cls-1{fill:none;stroke:#f69679;stroke-linecap:round;stroke-linejoin:round;stroke-width:1.8px;}.cls-2{fill:#f69679;}</style></defs><title>icons3</title><g id="Layer_1" data-name="Layer 1"><rect class="cls-1" x="2.3" y="8.48" width="20.26" height="12.1" transform="translate(-1.6 1.54) rotate(-6.66)"/><path class="cls-2" d="M4.89,11.59A19.57,19.57,0,0,1,9,12.82c1.32.5,2.63,1,3.93,1.55l-1,.11c1.15-.82,2.3-1.64,3.48-2.43a17.21,17.21,0,0,1,3.69-2.13.52.52,0,0,1,.58.81,17.21,17.21,0,0,1-3.19,2.82c-1.12.86-2.26,1.69-3.41,2.52a1,1,0,0,1-1,.11c-1.3-.55-2.59-1.1-3.88-1.68a19.57,19.57,0,0,1-3.74-2,.51.51,0,0,1,.38-.92Z"/></g></svg>