<svg xmlns="http://www.w3.org/2000/svg" viewBox="0 0 25.01 26"><defs><style>.cls-1{fill:#f47a5c;}</style></defs><title>icons3</title><g id="Layer_1" data-name="Layer 1"><path class="cls-1" d="M3.07,22.61a.9.9,0,0,1-.89-.8L.77,9.8a.9.9,0,0,1,.79-1L21.69,6.45a.9.9,0,0,1,1,.79l1.4,12a.9.9,0,0,1-.79,1L3.18,22.61ZM2.67,10.49l1.2,10.23L22.2,18.57,21,8.34Z"/><path class="cls-1" d="M4.89,11.59A19.57,19.57,0,0,1,9,12.82c1.32.5,2.63,1,3.93,1.55l-1,.11c1.15-.82,2.3-1.64,3.48-2.43a17.21,17.21,0,0,1,3.69-2.13.52.52,0,0,1,.58.81,17.21,17.21,0,0,1-3.19,2.82c-1.12.86-2.26,1.69-3.41,2.52a1,1,0,0,1-1,.11c-1.3-.55-2.59-1.1-3.88-1.68a19.57,19.57,0,0,1-3.74-2,.51.51,0,0,1,.38-.92Z"/></g></svg>