<svg xmlns="http://www.w3.org/2000/svg" viewBox="0 0 17.23 26"><defs><style>.cls-1{fill:#f69679;}</style></defs><title>icons3</title><g id="Layer_1" data-name="Layer 1"><path class="cls-1" d="M2.11,22.13a.9.9,0,0,1-.9-.9V9.84a.9.9,0,0,1,1.8,0V21.23A.9.9,0,0,1,2.11,22.13Z"/><path class="cls-1" d="M6.66,22.13a.9.9,0,0,1-.9-.9V9.84a.9.9,0,0,1,1.8,0V21.23A.9.9,0,0,1,6.66,22.13Z"/><path class="cls-1" d="M15.54,22.13a.9.9,0,0,1-.9-.9V15.53c0-3.45-1.06-4.79-3.77-4.79-3.07,0-3.3,4.1-3.3,5.35a.9.9,0,0,1-1.8,0c0-4.41,2-7.15,5.11-7.15,5.57,0,5.57,5,5.57,6.59v5.69A.9.9,0,0,1,15.54,22.13Z"/><path class="cls-1" d="M2.11,7.46a1,1,0,1,1,1-1A1,1,0,0,1,2.11,7.46Z"/></g></svg>