<svg xmlns="http://www.w3.org/2000/svg" viewBox="0 0 17.23 26"><defs></defs><title>icons3</title><g id="Layer_1" data-name="Layer 1"><path fill="#f47a5c" class="cls-1" d="M2.11,22.13c-.74,0-.9-.22-.9-.9V9.84a.9.9,0,0,1,1.8,0V21.23C3,21.9,2.86,22.13,2.11,22.13Z"/><path fill="#f47a5c" class="cls-1" d="M6.66,22.13c-.73,0-.9-.26-.9-.9V9.84a.9.9,0,0,1,1.8,0V21.23C7.56,21.88,7.44,22.13,6.66,22.13Z"/><path fill="#f47a5c" class="cls-1" d="M15.54,22.13c-.75,0-.9-.28-.9-.9V15.53c0-3.45-1.06-4.79-3.77-4.79-3.07,0-3.3,4.1-3.3,5.35a.9.9,0,0,1-1.8,0c0-4.41,2-7.15,5.11-7.15,5.57,0,5.57,5,5.57,6.59v5.69C16.44,21.89,16.27,22.13,15.54,22.13Z"/><path class="cls-1" d="M2.11,7.46a1,1,0,1,1,1-1A1,1,0,0,1,2.11,7.46Z"/></g></svg>
