<svg xmlns="http://www.w3.org/2000/svg" viewBox="0 0 23 26"><defs><style>.cls-1{fill:#f69679;}</style></defs><title>icons3</title><g id="Layer_1" data-name="Layer 1"><path class="cls-1" d="M9,18.06a7.52,7.52,0,0,1-1.61,1.37,10.14,10.14,0,0,1-1.87,1A9.47,9.47,0,0,1,1.37,21L2,19.47a4.7,4.7,0,0,0,.83.54,7.5,7.5,0,0,0,1,.43,10.25,10.25,0,0,0,2.26.47,14.09,14.09,0,0,0,4.69-.34,10.65,10.65,0,0,0,6.85-5.86,22.35,22.35,0,0,0,.87-2.19,8.86,8.86,0,0,0,.33-2.27A3.85,3.85,0,0,0,17.2,6.72a3.58,3.58,0,0,0-3.75,0c-1,.72-1.34,2.4-1.29,3.81v0a.9.9,0,0,1-.86.93h-.14a17.51,17.51,0,0,1-2.57-.56A17.06,17.06,0,0,1,6.15,10,10.22,10.22,0,0,1,2,6.63H2L3.6,6.3a15.1,15.1,0,0,0-.06,1.53,6,6,0,0,0,2,4.26l0,0a.54.54,0,0,1-.68.82,7.19,7.19,0,0,1-1.46-1.3,6.64,6.64,0,0,1-1-1.7A7.69,7.69,0,0,1,1.8,8a5.5,5.5,0,0,1,0-2.06v0a.88.88,0,0,1,1.62-.28h0A8.45,8.45,0,0,0,6.92,8.38,15.27,15.27,0,0,0,9.1,9.2a15.94,15.94,0,0,0,2.27.5h0l-1,1a8.56,8.56,0,0,1,.34-2.82A5,5,0,0,1,12.34,5.3a4.59,4.59,0,0,1,2.93-.91,5.69,5.69,0,0,1,2.86.78,4.88,4.88,0,0,1,2,2.27,6.8,6.8,0,0,1,.51,2.83,10.73,10.73,0,0,1-.42,2.7,12,12,0,0,1-.9,2.52,12.46,12.46,0,0,1-8,6.81A15.81,15.81,0,0,1,6,22.7a12,12,0,0,1-2.66-.55A7.31,7.31,0,0,1,.76,20.76a.87.87,0,0,1,.49-1.53h.16c.6-.05,1.2-.07,1.79-.17A15.29,15.29,0,0,0,5,18.71a12.42,12.42,0,0,0,1.73-.57,14.11,14.11,0,0,0,1.64-.79l0,0a.49.49,0,0,1,.61.75Z"/><path class="cls-1" d="M2.81,12.91c.18.29.37.7.56,1A7.8,7.8,0,0,0,4,15a6.24,6.24,0,0,0,1.81,1.65l0,0a.48.48,0,0,1-.4.87A5.81,5.81,0,0,1,4.08,17,7.42,7.42,0,0,1,2.88,16a9.43,9.43,0,0,1-1-1.11,4.64,4.64,0,0,1-.74-1.35.9.9,0,0,1,1.62-.75Z"/><path class="cls-1" d="M19.43,6.56c.84.71,2.5-.11,2.66.24s-.86,1.58-1.51,1.71c-.25.05.06.16.06.16.63.21,1.27-.13,1.36.07.32.68-1.48,1.94-2.06,1.94S19.43,6.56,19.43,6.56Z"/></g></svg>