<svg xmlns="http://www.w3.org/2000/svg" viewBox="0 0 19 26"><defs><style>.cls-1{fill:#3c3c3c;}</style></defs><title>icons3</title><g id="Layer_1" data-name="Layer 1"><path class="cls-1" d="M16.74,19.89,10.82,14l5.91-5.91a13.76,13.76,0,0,0,2-2.38.71.71,0,0,0-1-1,13.72,13.72,0,0,0-2.37,2L9.5,12.65,3.59,6.74a13.3,13.3,0,0,0-2.38-2h0a.72.72,0,0,0-.81,0,.71.71,0,0,0-.18,1,13.24,13.24,0,0,0,2,2.37L8.19,14,2.27,19.88a13.3,13.3,0,0,0-2,2.38.71.71,0,0,0,.58,1.11.71.71,0,0,0,.4-.13,13.33,13.33,0,0,0,2.37-2L9.5,15.28l5.91,5.91a13.69,13.69,0,0,0,2.38,2,.71.71,0,0,0,1-1A13.7,13.7,0,0,0,16.74,19.89Z"/></g></svg>