<svg xmlns="http://www.w3.org/2000/svg" viewBox="0 0 24 26"><defs><style>.cls-1{fill:#3c3c3c;}</style></defs><title>icons3</title><g id="Layer_1" data-name="Layer 1"><path class="cls-1" d="M14.91,20.18q-2,1.17-4,2.26l-4,2.22a.66.66,0,0,1-1-.48h0l-.37-2.48c-.12-.83-.25-1.65-.32-2.48A.81.81,0,0,1,6.85,19c.11.83.15,1.66.22,2.5L7.24,24l-1-.49,3.9-2.39q1.94-1.21,3.93-2.35a.81.81,0,0,1,.81,1.39Z"/><path class="cls-1" d="M17.39,9.31H6.88a.8.8,0,1,1,0-1.61H17.39a.8.8,0,0,1,0,1.61Z"/><path class="cls-1" d="M17.39,15.81H6.88a.8.8,0,1,1,0-1.61H17.39a.8.8,0,0,1,0,1.61Z"/><path class="cls-1" d="M17.39,12.59H6.88a.8.8,0,1,1,0-1.61H17.39a.8.8,0,0,1,0,1.61Z"/><path class="cls-1" d="M5.93,19.91a6.53,6.53,0,0,1-5.36-5A11.23,11.23,0,0,1,.38,13a12,12,0,0,1,0-1.78l.1-1.78A6.68,6.68,0,0,1,.95,7.6,6.57,6.57,0,0,1,3.44,4.66a6.41,6.41,0,0,1,1.79-.78A14.06,14.06,0,0,1,7,3.58a44,44,0,0,1,7-.25c1.16,0,2.33.14,3.48.29l.87.12a7,7,0,0,1,1,.23,6.48,6.48,0,0,1,1.74.87,6.58,6.58,0,0,1,2.35,3,6.36,6.36,0,0,1,.4,1.87l.1,1.78c0,.59,0,1.19-.07,1.78l-.06.89a7.33,7.33,0,0,1-.19,1,6.6,6.6,0,0,1-2.06,3.25A6.36,6.36,0,0,1,18,19.93l-3.48.35a.8.8,0,1,1-.16-1.6h.07l3.34-.34a4.74,4.74,0,0,0,2.69-1.14A5,5,0,0,0,22,14.75a5.75,5.75,0,0,0,.14-.72l0-.82c0-.55.09-1.09.07-1.64l-.1-1.64a4.78,4.78,0,0,0-.3-1.47,5,5,0,0,0-1.77-2.3,4.87,4.87,0,0,0-1.31-.65,5.36,5.36,0,0,0-.71-.17l-.82-.12c-1.11-.14-2.23-.23-3.35-.28a42.46,42.46,0,0,0-6.71.24A6.24,6.24,0,0,0,4.3,6,5,5,0,0,0,2.43,8.23a5.06,5.06,0,0,0-.38,1.42L2,11.3a10.64,10.64,0,0,0,0,1.64,10.16,10.16,0,0,0,.15,1.58,4.92,4.92,0,0,0,4,3.8.8.8,0,1,1-.23,1.59Z"/></g></svg>