<svg xmlns="http://www.w3.org/2000/svg" viewBox="0 0 23.82 26"><defs><style>.cls-1{fill:#3c3c3c;}</style></defs><title>icons3</title><g id="Layer_1" data-name="Layer 1"><path class="cls-1" d="M1.16,7.89a26.56,26.56,0,0,1,5.37-.34l5.37-.05,5.37.05a24.51,24.51,0,0,1,5.37.34.6.6,0,0,1,0,1.17,24.51,24.51,0,0,1-5.37.34l-5.37.05L6.54,9.4a26.56,26.56,0,0,1-5.37-.34.6.6,0,0,1,0-1.17Z"/><path class="cls-1" d="M1.16,13.4a26.56,26.56,0,0,1,5.37-.34L11.91,13l5.37.05a24.51,24.51,0,0,1,5.37.34.6.6,0,0,1,0,1.17,24.51,24.51,0,0,1-5.37.34L11.91,15l-5.37-.05a26.56,26.56,0,0,1-5.37-.34.6.6,0,0,1,0-1.17Z"/><path class="cls-1" d="M1.16,18.78a26.56,26.56,0,0,1,5.37-.34l5.37-.05,5.37.05a24.51,24.51,0,0,1,5.37.34.6.6,0,0,1,0,1.17,24.51,24.51,0,0,1-5.37.34l-5.37.05-5.37-.05A26.56,26.56,0,0,1,1.16,20a.6.6,0,0,1,0-1.17Z"/></g></svg>