<svg xmlns="http://www.w3.org/2000/svg" viewBox="0 0 23 26"><defs><style>.cls-1{fill:#3c3c3c;}</style></defs><title>icons3</title><g id="Layer_1" data-name="Layer 1"><path class="cls-1" d="M21.52,22.44A3,3,0,0,0,20,20.59a4,4,0,0,0-1.12-.33l-.3,0H17.46a2.82,2.82,0,0,1-1.93-.68,2.77,2.77,0,0,1-.95-1.86c0-.2,0-1.24,0-1.24V14.94h0a.81.81,0,0,1,.34-.66,5.35,5.35,0,1,0-8.41-4A5.29,5.29,0,0,0,8,13.55a6.23,6.23,0,0,0,3.21,1.9h0a.56.56,0,0,1-.14,1.1,6.26,6.26,0,0,1-4.27-1.87A7,7,0,0,1,4.9,10.33,7,7,0,0,1,18.18,7a7,7,0,0,1-2.34,8.6l.34-.66h0v2.62a1.17,1.17,0,0,0,1.27,1.06H18.6l.46,0a3.71,3.71,0,0,1,1.75.61,4.07,4.07,0,0,1,1.83,3,.57.57,0,0,1-1.11.21Z"/><path class="cls-1" d="M9.13,15.24V17.4a3,3,0,0,1-.07.68,2.77,2.77,0,0,1-1.82,2A3.6,3.6,0,0,1,6,20.24H5a2.87,2.87,0,0,0-.77.11,2.77,2.77,0,0,0-2,2.26l-.21,1-.1.49,0,.19a.15.15,0,0,0,0-.06.15.15,0,0,0-.07-.1l-.06,0s0,0,0,0H10c1.34,0,2.68,0,4,.06a27.35,27.35,0,0,1,4,.31.44.44,0,0,1,0,.86,27.35,27.35,0,0,1-4,.31c-1.34,0-2.68,0-4,.06H1.79a1.65,1.65,0,0,1-.25,0A1.42,1.42,0,0,1,1,25.49,1.45,1.45,0,0,1,.33,24c0-.19,0-.19.06-.3l.1-.49.21-1a4.51,4.51,0,0,1,1-2.16,4.38,4.38,0,0,1,2-1.31A4.48,4.48,0,0,1,5,18.63H6a2.08,2.08,0,0,0,.74-.06,1.16,1.16,0,0,0,.76-.84,1.34,1.34,0,0,0,0-.32V15.24a.81.81,0,1,1,1.61,0Z"/><path class="cls-1" d="M13.73,10.45a.86.86,0,0,0,0-1.73.86.86,0,0,0,0,1.73Z"/><path class="cls-1" d="M9.36,10.45a.86.86,0,0,0,0-1.73.86.86,0,0,0,0,1.73Z"/><path class="cls-1" d="M6.38,7.84A.81.81,0,0,1,5.7,6.62,7.21,7.21,0,0,1,9.42,3.35,7.12,7.12,0,0,1,14,3.25a.8.8,0,0,1-.53,1.52A5.54,5.54,0,0,0,10,4.85a5.67,5.67,0,0,0-2.94,2.6A.8.8,0,0,1,6.38,7.84Z"/><path class="cls-1" d="M6,8.16a3.35,3.35,0,0,1-1.72-1,4.68,4.68,0,0,1-1-1.58A4.58,4.58,0,0,1,3,3.81a3.64,3.64,0,0,1,.52-1.75.49.49,0,0,1,.88.42v0A3.09,3.09,0,0,0,4.63,5,3.37,3.37,0,0,0,6.41,6.6h0A.81.81,0,0,1,6,8.16Z"/><path class="cls-1" d="M6.81,6a4.81,4.81,0,0,1-.6-1.16,7.21,7.21,0,0,1-.36-1.26,3.94,3.94,0,0,1,0-1.39A2.46,2.46,0,0,1,6.47.84a.5.5,0,0,1,.77.63l0,0a1.9,1.9,0,0,0,0,1.73,5.8,5.8,0,0,0,.44.95l.53.9v0A.81.81,0,0,1,6.81,6Z"/><path class="cls-1" d="M10.63,3.69a3,3,0,0,1,.3-1.13,3.66,3.66,0,0,1,.64-1,2.77,2.77,0,0,1,1-.69A3.12,3.12,0,0,1,13.65.66a.52.52,0,0,1,.15,1h0a1.7,1.7,0,0,0-1.13.75,2.25,2.25,0,0,0-.27.65c-.06.22-.08.52-.11.68l0,.1a.8.8,0,0,1-1.59-.19Z"/><path class="cls-1" d="M13,3.57a2.68,2.68,0,0,1,1.84-1.21A2.56,2.56,0,0,1,16,2.4a2.07,2.07,0,0,1,.94.55.4.4,0,0,1-.44.66l0,0a1.36,1.36,0,0,0-1.2.05,3.2,3.2,0,0,0-.87.8l-.05.06A.8.8,0,0,1,13,3.57Z"/><path class="cls-1" d="M8.76,4.56a3,3,0,0,1-.33-1.15,4,4,0,0,1,.05-1.2A3,3,0,0,1,9,1.09,3.13,3.13,0,0,1,9.81.27a.51.51,0,0,1,.67.77l0,0A1.93,1.93,0,0,0,9.86,2.4a2.54,2.54,0,0,0,.1.74c.07.24.18.52.24.7l0,.1a.8.8,0,0,1-1.47.63Z"/></g></svg>