<svg xmlns="http://www.w3.org/2000/svg" viewBox="0 0 22 26"><defs><style>.cls-1{fill:#3c3c3c;}</style></defs><title>icons3</title><g id="Layer_1" data-name="Layer 1"><path class="cls-1" d="M21,24.74H7.77a.8.8,0,0,1-.8-.8V10.66a.8.8,0,0,1,.8-.81H21a.8.8,0,0,1,.8.81V23.93A.8.8,0,0,1,21,24.74ZM8.57,23.13H20.23V11.47H8.57Z"/><path class="cls-1" d="M3.69,20.48a18.85,18.85,0,0,1-.19-3.32v-10a.81.81,0,0,1,.81-.81h10a20.15,20.15,0,0,1,3.32.18.63.63,0,0,1,0,1.25A20.15,20.15,0,0,1,14.27,8h-10l.8-.8v10a18.85,18.85,0,0,1-.19,3.32.64.64,0,0,1-1.26,0Z"/><path class="cls-1" d="M.24,17a18.85,18.85,0,0,1-.19-3.32v-10A.81.81,0,0,1,.87,3h10a20.15,20.15,0,0,1,3.32.18.63.63,0,0,1,0,1.25,20.15,20.15,0,0,1-3.32.18H.87l.8-.8v10A18.85,18.85,0,0,1,1.5,17,.64.64,0,0,1,.24,17Z"/><path class="cls-1" d="M14.4,17.37s1.19-2.58,2.35-2,.06,2.93-2.35,4.26"/><path class="cls-1" d="M14.4,20.47A.8.8,0,0,1,14,19c1.58-.87,2.41-2.13,2.41-2.71,0-.1,0-.11-.05-.13-.23,0-.85.76-1.24,1.59A.81.81,0,0,1,13.67,17c.16-.34,1-2,2.18-2.44a1.59,1.59,0,0,1,1.29.1,1.7,1.7,0,0,1,.9,1.54c0,1.38-1.33,3.08-3.25,4.13A.79.79,0,0,1,14.4,20.47Z"/><path class="cls-1" d="M14.4,17.37s-1.19-2.58-2.35-2S12,18.34,14.4,19.67"/><path class="cls-1" d="M14.4,20.47a.79.79,0,0,1-.39-.1c-1.92-1.05-3.25-2.75-3.25-4.13a1.7,1.7,0,0,1,.9-1.54,1.59,1.59,0,0,1,1.28-.1c1.19.4,2,2.1,2.18,2.44a.8.8,0,0,1-1.46.67c-.39-.83-1-1.57-1.25-1.59,0,0,0,0,0,.13,0,.58.83,1.85,2.41,2.71a.8.8,0,0,1-.39,1.51Z"/></g></svg>