<svg xmlns="http://www.w3.org/2000/svg" viewBox="0 0 14.56 26"><defs></defs><title>icons3</title><g id="Layer_1" data-name="Layer 1"><path fill="#3c3c3c" class="cls-1" d="M11.2,11.61H2.83c-.6,0-.9-.14-.9-.9,0-.56.17-.71.64-.86h0A5.38,5.38,0,0,0,3.9,9.25,4.59,4.59,0,0,0,5,8.34a3.51,3.51,0,0,0,.69-1.18,4.6,4.6,0,0,0,.26-1.38l1.8,0h0l-.23,9.5-.06,2.38A2.49,2.49,0,0,0,8,19.36a2,2,0,0,0,1.42.71,4.46,4.46,0,0,0,1.9-.4h0c.7-.29.89-.15,1.18.49s.17.88-.49,1.18h0a6.2,6.2,0,0,1-2.72.54,3.77,3.77,0,0,1-2.71-1.37,4.29,4.29,0,0,1-.92-2.78l.06-2.39.23-9.54h0v0c0-.69.24-.88.92-.88s.88.26.88.92v0a6.4,6.4,0,0,1-.37,1.94,5.31,5.31,0,0,1-1,1.73,6.39,6.39,0,0,1-1.49,1.28,7,7,0,0,1-1.8.8H3L2.83,9.81H11.2c.74,0,.9.22.9.9S11.93,11.61,11.2,11.61Z"/></g></svg>
