<svg xmlns="http://www.w3.org/2000/svg" viewBox="0 0 100 100"><defs><style>.cls-1{fill:#fff;}.cls-2{fill:none;stroke:#f69679;stroke-linecap:round;stroke-linejoin:round;stroke-width:2.5px;}.cls-3{fill:#f69679;}.cls-4{fill:#ffd54c;opacity:0.3;}</style></defs><title>icons3-illus</title><g id="Layer_1" data-name="Layer 1"><path class="cls-1" d="M48.18,21.87s8.4,46.28-22.82,55.43c0,0-2.19,2.6-1.43,5.29s4.39,3.59,4.39,3.59,18.62,2.88,34.61-14.44"/><path class="cls-1" d="M39,68.67c-6.5,2.68-26.07,0-26.07,0s-4-1.61-4-5.38a6.45,6.45,0,0,1,3-5.38,116.38,116.38,0,0,0,13.19-2.15C41.73,52.07,44.7,22.13,44.7,22.13s-4.6-5.35-5.41-7.75c-.58-1.69.39-4.93,3.09-6.4,2.87-1.55,5.9-1,7.33.44,1.72,1.71,5,8.73,5,8.73,15,4.31,33.91,27.08,29,46.15-5.74,22.08-21.17,25-21.17,25s-3.89,1-6.31-1.28a4.87,4.87,0,0,1-1.47-4.91s16.38-15,13.83-33.73A49.18,49.18,0,0,0,53.42,19.17"/><path class="cls-1" d="M44.7,22.13s3.48.28,5.75-1.12a14.18,14.18,0,0,0,4.27-3.85"/><path class="cls-1" d="M58.47,45.2c-1.52-12.05-8-24.2-8-24.2"/><path class="cls-1" d="M60.64,19.68s17,15.11,17,36.06a31.43,31.43,0,0,1-1.29,9.13"/><path class="cls-1" d="M51.57,22.15s-8.74-2.5-10.39,3.58c-2.57,9.47-6.44,24.72-22.91,27.84a25.18,25.18,0,0,0-6.36,1.92c-5.22,2.57-6,11.07,7.84,11.29C25.36,66.88,36,64,41.8,60.86,34.26,77.74,19.3,80,27.52,83c8.9,3.26,28.39-6.83,32.19-21.12S56.66,26.11,51.57,22.15Z"/><path class="cls-1" d="M55.28,18.11c9.34,1.54,28.57,28,23.95,43.21s-16.53,26.59-20.61,25S67,72.77,67.18,57.92C67.48,31.64,48.46,17,55.28,18.11Z"/><path class="cls-1" d="M39.28,14.38c.63.81,6.2.56,8-2"/><path class="cls-2" d="M48.18,21.87s8.4,46.28-22.82,55.43c0,0-2.19,2.6-1.43,5.29s4.39,3.59,4.39,3.59,18.62,2.88,34.61-14.44"/><path class="cls-2" d="M39,68.67c-6.5,2.68-26.07,0-26.07,0s-4-1.61-4-5.38a6.45,6.45,0,0,1,3-5.38,116.38,116.38,0,0,0,13.19-2.15C41.73,52.07,44.7,22.13,44.7,22.13s-4.6-5.35-5.41-7.75c-.58-1.69.39-4.93,3.09-6.4,2.87-1.55,5.9-1,7.33.44,1.72,1.71,5,8.73,5,8.73,15,4.31,33.91,27.08,29,46.15-5.74,22.08-21.17,25-21.17,25s-3.89,1-6.31-1.28a4.87,4.87,0,0,1-1.47-4.91s16.38-15,13.83-33.73A49.18,49.18,0,0,0,53.42,19.17"/><path class="cls-2" d="M11.9,57.92S17.85,62.24,13,68.67"/><path class="cls-2" d="M25.36,77.3s6.16,2.91,3,8.88"/><path class="cls-2" d="M54.71,82.14s6.63.2,7.79,6.19"/><path class="cls-2" d="M44.7,22.13s3.48.28,5.75-1.12a14.18,14.18,0,0,0,4.27-3.85"/><path class="cls-3" d="M57.57,45.31c-.4-2.06-.85-4.1-1.42-6.12s-1.19-4-1.9-6S52.76,29.25,52,27.31s-1.69-3.88-2.61-5.72v0a1.25,1.25,0,0,1,2.22-1.15c1,1.95,2,3.88,2.8,5.88s1.59,4,2.28,6.08,1.24,4.15,1.74,6.27a49.56,49.56,0,0,1,1,6.45.9.9,0,0,1-1.78.26Z"/><path class="cls-3" d="M29.43,79.46a43.82,43.82,0,0,0,5.43-1.83c1.79-.73,3.56-1.54,5.28-2.45a51.76,51.76,0,0,0,5-3c1.62-1.09,3.17-2.28,4.7-3.51l0,0A.9.9,0,0,1,51,70a50.89,50.89,0,0,1-4.66,3.9,54,54,0,0,1-5.09,3.35A45.28,45.28,0,0,1,35.83,80a33.62,33.62,0,0,1-5.9,1.91,1.25,1.25,0,0,1-.57-2.43Z"/><path class="cls-3" d="M23.89,64.42a39.82,39.82,0,0,1-4.32.59,27,27,0,0,1-4.36.09,1.25,1.25,0,0,1,.07-2.5c1.4,0,2.8,0,4.2.05s2.81,0,4.22,0a.9.9,0,0,1,.19,1.79Z"/><path class="cls-3" d="M61.47,18.75a57,57,0,0,1,8.33,9.77,56,56,0,0,1,6,11.32A44.08,44.08,0,0,1,78.7,52.36a31.51,31.51,0,0,1-1.46,12.78.9.9,0,0,1-1.72-.52,34.22,34.22,0,0,0,.79-12.06,45.68,45.68,0,0,0-2.88-11.8A53.42,53.42,0,0,0,67.65,30a61.12,61.12,0,0,0-7.84-9.36l-.05,0a1.25,1.25,0,0,1,1.71-1.82Z"/><path class="cls-4" d="M51.57,22.15s-8.74-2.5-10.39,3.58c-2.57,9.47-6.44,24.72-22.91,27.84a25.18,25.18,0,0,0-6.36,1.92c-5.22,2.57-6,11.07,7.84,11.29C25.36,66.88,36,64,41.8,60.86,34.26,77.74,19.3,80,27.52,83c8.9,3.26,28.39-6.83,32.19-21.12S56.66,26.11,51.57,22.15Z"/><path class="cls-4" d="M55.28,18.11c9.34,1.54,28.57,28,23.95,43.21s-16.53,26.59-20.61,25S67,72.77,67.18,57.92C67.48,31.64,48.46,17,55.28,18.11Z"/><path class="cls-3" d="M40.27,13.61a.4.4,0,0,0-.11-.14s-.12-.07-.08-.06h0a3.11,3.11,0,0,0,.34,0,7.7,7.7,0,0,0,.89,0,14.24,14.24,0,0,0,1.92-.22,10.8,10.8,0,0,0,1.8-.54,6.14,6.14,0,0,0,1.52-.83l.1-.07A.88.88,0,0,1,48,12.89a4.84,4.84,0,0,1-1.85,1.92,8.28,8.28,0,0,1-2.32.94,10.31,10.31,0,0,1-2.43.34,6.66,6.66,0,0,1-1.3-.07,5.18,5.18,0,0,1-.73-.16,3.67,3.67,0,0,1-.47-.2,1.51,1.51,0,0,1-.31-.21,2.61,2.61,0,0,1-.32-.31,1.25,1.25,0,1,1,2-1.54Z"/></g></svg>