<svg xmlns="http://www.w3.org/2000/svg" viewBox="0 0 100 100"><defs><style>.cls-1{fill:#fff;}.cls-2{fill:#f69679;}.cls-3{fill:#f47a5c;opacity:0.2;}</style></defs><title>icons3-illus</title><g id="Layer_1" data-name="Layer 1"><path class="cls-1" d="M31.12,70.5C12.57,64.69,7.45,48.62,16.85,37.8c1.28-1.47,1.18,2.9,2.89,7.41,2.45,6.44,7.29,13.86,14,11,3.92-1.65-3.52-7.4-7.76-12.9-4.51-5.86-5.92-11.55-3.65-15.72a25.76,25.76,0,0,1,7.38-8.53C31.23,18,31.19,39.23,39.88,39.23c10.44,0-11.13-22.16.52-25.15a46.47,46.47,0,0,1,11.73-1.65c9.81,0-8.15,17.24,2.67,18.64,7.5,1,2-18.64,9.81-18.25,15.14.76,10.36,2.32,11.34,10.4,1.12,9.24,6.71,15.87,8,20.45,3.92,14.1-24.65,1-21.71,8.1C67.1,63.62,85,50.63,84.85,53.89a31.9,31.9,0,0,1-3.69,13.29c-4,7.6-32.19-7.24-31.3,2.14s33.16.61,25,9.08C68.25,85.16,48,88.28,38,75c-1-1.28,15.76-31.25,14.56-31.44-1.46-.23-9.09,8.57-14.56,16.62C34.68,65.06,33.58,71.27,31.12,70.5Z"/><path class="cls-2" d="M50.47,70.81a6.55,6.55,0,0,1-.5-1.72,3.13,3.13,0,0,1,.45-2.18,3.39,3.39,0,0,1,1.76-1.25,7.31,7.31,0,0,1,1.71-.34,33.32,33.32,0,0,1,6.13.34c4,.53,7.83,1.47,11.62,1.7a10,10,0,0,0,5.16-.74,2.91,2.91,0,0,0,.84-.68,2.75,2.75,0,0,0,.3-.43c.1-.17.21-.41.32-.61a23.29,23.29,0,0,0,1.09-2.6c1.29-3.58,1.61-7.47,2.46-11.32l1.37.43a8.78,8.78,0,0,1-3.88,4.23,15,15,0,0,1-5.42,1.73,18,18,0,0,1-5.63-.15,14.67,14.67,0,0,1-2.76-.8A16.54,16.54,0,0,1,63,55.06a13.59,13.59,0,0,1-2.27-1.79,5.44,5.44,0,0,1-1.65-2.86,3.2,3.2,0,0,1,.31-2,4.2,4.2,0,0,1,1.18-1.37,6.43,6.43,0,0,1,.67-.45,5.71,5.71,0,0,1,.76-.38,5.44,5.44,0,0,1,1.66-.29,31.29,31.29,0,0,1,5.5.58c1.75.29,3.48.59,5.2.79a18.16,18.16,0,0,0,5,.06,4,4,0,0,0,1.87-.76,2.05,2.05,0,0,0,.51-.67l0-.1,0-.05,0,.08c0,.12,0,.12,0,0v-.74A23.48,23.48,0,0,0,79,35.45c-1.48-3.14-3.31-6.16-4.92-9.39A31.89,31.89,0,0,1,72,21a10.32,10.32,0,0,1-.26-5.68h0l.9.93c-2.13.64-4.45.14-6.35-.08a4.43,4.43,0,0,0-2.46.28A4.51,4.51,0,0,0,62,18a11.61,11.61,0,0,0-1.64,5.29,24.47,24.47,0,0,0-.11,3,6.43,6.43,0,0,1-1,3.59A5.11,5.11,0,0,1,56,32.14a4.61,4.61,0,0,1-3.87-1A7.81,7.81,0,0,1,50,28.2a9.56,9.56,0,0,1-.81-3.4,10.56,10.56,0,0,1,2-6.53,8.46,8.46,0,0,1,5.56-3.71h0L57,16c-2.86.48-5.65.23-8.38.43a22.61,22.61,0,0,0-7.81,1.7A16.21,16.21,0,0,0,39,19a4.65,4.65,0,0,0-1.27,1.09,4.36,4.36,0,0,0-.86,3.11,16,16,0,0,0,2.91,7.13c.38.56.76,1.11,1.17,1.65l.62.79.7.85A6.4,6.4,0,0,1,43.46,36a3.5,3.5,0,0,1-3.34,4.46,6.43,6.43,0,0,1-2.59-.43,10.21,10.21,0,0,1-3.94-2.7,13.87,13.87,0,0,1-3.35-8.47,13.24,13.24,0,0,1,2.12-8.61h0l1.12,1c-2.14,2-4.41,3.69-6,5.92a12,12,0,0,0-2.51,7.51A17.44,17.44,0,0,0,27,42.59,18.07,18.07,0,0,0,29.39,46c.91,1.07,2,2.08,3,3.14A29.86,29.86,0,0,1,35.5,52.6a5.53,5.53,0,0,1,.68,1.3,3.08,3.08,0,0,1,.18,1A2.44,2.44,0,0,1,36.08,56a3,3,0,0,1-1.45,1.27,6.05,6.05,0,0,1-1.36.42,11.21,11.21,0,0,1-5-.38,18.76,18.76,0,0,1-4.37-1.89,16.27,16.27,0,0,1-6.53-6.89,11,11,0,0,1-1-4.79,10.4,10.4,0,0,1,1.19-4.64h0l1.4.64c-1.4,3.6-3.17,7-3.59,10.59a12.82,12.82,0,0,0,3.21,9.83,26,26,0,0,0,8.82,6.6,37,37,0,0,0,10.74,3.28h0a1.21,1.21,0,0,1,1,.78A16.69,16.69,0,0,0,46,79a19.23,19.23,0,0,0,10.39,3,20,20,0,0,0,10.46-3,25.34,25.34,0,0,0,4.43-3.38c1.35-1.29,2.6-2.68,3.91-4.08h0l1.08.84a10.22,10.22,0,0,1-6,3.91,19.85,19.85,0,0,1-7,.54,25.27,25.27,0,0,1-6.82-1.57,18.44,18.44,0,0,1-3.21-1.58A7.19,7.19,0,0,1,50.47,70.81Zm2-.88a5.32,5.32,0,0,0,1.93,1.83,16.25,16.25,0,0,0,2.82,1.35,24.12,24.12,0,0,0,6.22,1.41,19.14,19.14,0,0,0,6.28-.38,14.42,14.42,0,0,0,5.49-2.72l0,0a.69.69,0,0,1,1,.87h0A22.39,22.39,0,0,1,68,80.86a22.38,22.38,0,0,1-11.61,3.53,21.67,21.67,0,0,1-11.72-3.34,18.92,18.92,0,0,1-7.82-9.42l1,.78h0a38.06,38.06,0,0,1-11.55-3.3,28.11,28.11,0,0,1-9.72-7.27,17.23,17.23,0,0,1-3.06-5.47,14.41,14.41,0,0,1-.6-6.3A24.8,24.8,0,0,1,17.59,39l0-.06a.77.77,0,0,1,1.36.7h0a12.07,12.07,0,0,0,.67,7.83,13.76,13.76,0,0,0,5.56,5.74A16.19,16.19,0,0,0,29,54.83a8.73,8.73,0,0,0,3.79.31,3.48,3.48,0,0,0,.75-.23c.2-.09.29-.2.22-.12s0,.17-.06,0a3.05,3.05,0,0,0-.36-.65A28.39,28.39,0,0,0,30.48,51c-1.05-1-2.1-2.12-3.11-3.3a20.72,20.72,0,0,1-2.64-3.91,20,20,0,0,1-2.33-9.11,14.17,14.17,0,0,1,.79-4.77,15.52,15.52,0,0,1,2.29-4.21A17.87,17.87,0,0,1,32.65,20l.18-.08a.75.75,0,0,1,.94,1.06h0a26.1,26.1,0,0,0-1.07,7.79,11.41,11.41,0,0,0,2.75,6.94,7.71,7.71,0,0,0,3,2,4,4,0,0,0,1.55.27,1.21,1.21,0,0,0,.91-.39,1.18,1.18,0,0,0,.11-1,3.9,3.9,0,0,0-.71-1.38l-.65-.78-.68-.86c-.44-.58-.87-1.18-1.27-1.8a25.71,25.71,0,0,1-2.1-3.91,13.54,13.54,0,0,1-1.13-4.49,6.84,6.84,0,0,1,1.45-4.79A7.08,7.08,0,0,1,37.8,17a18.51,18.51,0,0,1,2-1,24.93,24.93,0,0,1,8.62-1.81,39.27,39.27,0,0,1,8.51.38l.2,0a.73.73,0,0,1,0,1.43h0a12.2,12.2,0,0,0-4.12,3.6,8.24,8.24,0,0,0-1.51,5.09,7.21,7.21,0,0,0,.63,2.57,5.51,5.51,0,0,0,1.46,2,2.22,2.22,0,0,0,1.89.52,2.73,2.73,0,0,0,1.67-1.25,4.24,4.24,0,0,0,.64-2.28A26.84,26.84,0,0,1,58,23.07a13.77,13.77,0,0,1,2.12-6.34,6.76,6.76,0,0,1,2.81-2.33,5.76,5.76,0,0,1,1.84-.47,8.67,8.67,0,0,1,1.75.05c1.09.13,2.07.32,3,.4s1.91.16,2.9.23l.22,0a.75.75,0,0,1,.69.8.81.81,0,0,1,0,.12h0a17.17,17.17,0,0,0,.74,4.81,29.81,29.81,0,0,0,2,4.72c1.56,3.11,3.41,6.15,5,9.41A25.65,25.65,0,0,1,84,45.11v.58a2.14,2.14,0,0,1,0,.68,1.7,1.7,0,0,1-.07.23l0,.1-.09.2a4.36,4.36,0,0,1-1.09,1.43,6.19,6.19,0,0,1-3,1.29,20,20,0,0,1-5.63,0c-1.8-.22-3.56-.54-5.3-.83a29.9,29.9,0,0,0-5-.57,3.37,3.37,0,0,0-.95.14,4.28,4.28,0,0,0-.42.22,4.2,4.2,0,0,0-.43.28,2,2,0,0,0-.56.61.93.93,0,0,0-.09.6,3.37,3.37,0,0,0,1,1.64,11.43,11.43,0,0,0,1.89,1.5,14.5,14.5,0,0,0,2.15,1.18,12.5,12.5,0,0,0,2.33.68,15.83,15.83,0,0,0,4.94.16,12.12,12.12,0,0,0,8.29-4.53h0a.76.76,0,0,1,1.36.44A35.45,35.45,0,0,1,81.4,63a25.47,25.47,0,0,1-1.18,2.86c-.12.24-.22.45-.36.71a4.94,4.94,0,0,1-.54.78,5.12,5.12,0,0,1-1.43,1.19,11.91,11.91,0,0,1-6.38,1.07c-4.1-.21-8-1.23-11.78-1.72a31.74,31.74,0,0,0-5.66-.34,2.73,2.73,0,0,0-1.83.61C52.05,68.34,52.14,69.15,52.49,69.93Z"/><path class="cls-1" d="M36,64.09c-4.68,10.77-5,18-4.8,20.79s3.38,3.71,5.32,1.48c2.2-2.52,1.07-11,5.12-20.37A128.25,128.25,0,0,1,56.85,40S41.17,52.09,36,64.09Z"/><path class="cls-2" d="M37.13,64.61a67.33,67.33,0,0,0-3.28,9.25,39.71,39.71,0,0,0-1.47,9.56c0,.4,0,.79,0,1.18a2.78,2.78,0,0,0,.14.84,1.43,1.43,0,0,0,.94.88,1.83,1.83,0,0,0,1.42-.25,2.78,2.78,0,0,0,.64-.55,2.61,2.61,0,0,0,.41-.74,22.68,22.68,0,0,0,.92-4.59c.22-1.65.44-3.33.74-5a43.24,43.24,0,0,1,2.88-9.88c1.33-3.1,2.82-6.13,4.41-9.11a89.63,89.63,0,0,1,11.35-16.7l1.05,1.07c-2,1.78-3.89,3.63-5.77,5.49S47.81,49.84,46,51.8C42.55,55.73,39.23,59.92,37.13,64.61Zm-2.37-1a40.35,40.35,0,0,1,4.16-7.19,62.5,62.5,0,0,1,5.2-6.33A79.91,79.91,0,0,1,50,44.38a68.43,68.43,0,0,1,6.41-5,.73.73,0,0,1,1.23.79l-.18.27c-3.58,5.55-7.13,11.17-10.23,17-1.57,2.91-3,5.88-4.35,8.9a40.61,40.61,0,0,0-2.74,9.3c-.29,1.61-.51,3.24-.74,4.9a24.14,24.14,0,0,1-1.09,5.2,5,5,0,0,1-.83,1.42,5.28,5.28,0,0,1-1.26,1.07,4.33,4.33,0,0,1-3.39.5,4.17,4.17,0,0,1-1.6-.89,4.22,4.22,0,0,1-1-1.5,5.3,5.3,0,0,1-.31-1.61c0-.45,0-.89,0-1.33A42.16,42.16,0,0,1,31.39,73.2,69.89,69.89,0,0,1,34.77,63.58Z"/><path class="cls-3" d="M31.12,70.5C12.57,64.69,7.45,48.62,16.85,37.8c1.28-1.47,1.18,2.9,2.89,7.41,2.45,6.44,7.29,13.86,14,11,3.92-1.65-3.52-7.4-7.76-12.9-4.51-5.86-5.92-11.55-3.65-15.72a25.76,25.76,0,0,1,7.38-8.53C31.23,18,31.19,39.23,39.88,39.23c10.44,0-11.13-22.16.52-25.15a46.47,46.47,0,0,1,11.73-1.65c9.81,0-8.15,17.24,2.67,18.64,7.5,1,2-18.64,9.81-18.25,15.14.76,10.36,2.32,11.34,10.4,1.12,9.24,6.71,15.87,8,20.45,3.92,14.1-24.65,1-21.71,8.1C67.1,63.62,85,50.63,84.85,53.89a31.9,31.9,0,0,1-3.69,13.29c-4,7.6-32.19-7.24-31.3,2.14s33.16.61,25,9.08C68.25,85.16,48,88.28,38,75c-1-1.28,15.76-31.25,14.56-31.44-1.46-.23-9.09,8.57-14.56,16.62C34.68,65.06,33.58,71.27,31.12,70.5Z"/><path class="cls-1" d="M31.15,84.88c0-1.45,2.71-1.5,3.6-1.33"/><path class="cls-2" d="M29.91,84.91a3.61,3.61,0,0,1,.08-.58,2.64,2.64,0,0,1,.25-.56A2.35,2.35,0,0,1,31,83a3.74,3.74,0,0,1,1.43-.49,7.35,7.35,0,0,1,2.52.09.94.94,0,0,1-.26,1.85h-.09a5.39,5.39,0,0,0-.86,0,4.66,4.66,0,0,0-.86.17,1.37,1.37,0,0,0-.54.28c-.07.11.08,0,.09-.1a1.25,1.25,0,1,1-2.5.06Z"/></g></svg>