<svg xmlns="http://www.w3.org/2000/svg" viewBox="0 0 100 100"><defs><style>.cls-1{fill:#fff;}.cls-2{fill:none;stroke:#f69679;stroke-linecap:round;stroke-linejoin:round;stroke-width:2.5px;}.cls-3{fill:#f69679;}.cls-4{fill:#f47a5c;opacity:0.2;}</style></defs><title>icons3-illus</title><g id="Layer_1" data-name="Layer 1"><path class="cls-1" d="M26.11,24.84c11.59,2.3,48.17,20.59,51.35,29.51s3.22,21.48-.09,22.28-21.7-4-16.11-11.06,9.46-7.31,3-10.8S26.11,24.84,26.11,24.84Z"/><polygon class="cls-1" points="82.58 28.16 14.17 17.37 37.08 84.47 69.7 58.98 77.56 73.67 77.64 51.52 86.28 31.32 87.32 28.89 82.58 28.16"/><line class="cls-2" x1="57.79" y1="68.28" x2="77.56" y2="73.67"/><path class="cls-3" d="M77,52.62q-15.91-8.46-31.75-17L29.44,27l-7.93-4.28c-2.64-1.43-5.27-2.88-7.81-4.49l1.07-1.68c2.44,1.56,4.77,3.27,7.09,5l6.95,5.19L42.71,37.15Q56.61,47.52,70.45,58a1.25,1.25,0,0,1-1.5,2Q55,49.65,41.17,39.2L27.3,28.78l-6.93-5.21c-2.31-1.74-4.61-3.49-6.79-5.4a1,1,0,0,1,1.07-1.68c2.75,1.23,5.4,2.64,8.05,4l7.94,4.26,15.88,8.52q15.88,8.5,31.72,17.1A1.25,1.25,0,0,1,77,52.62Z"/><path class="cls-4" d="M26.11,24.84c11.59,2.3,48.17,20.59,51.35,29.51s3.22,21.48-.09,22.28-21.7-4-16.11-11.06,9.46-7.31,3-10.8S26.11,24.84,26.11,24.84Z"/><path class="cls-3" d="M82.39,29.4,48.18,24l-17.1-2.72L22.53,20c-2.85-.45-5.7-.92-8.51-1.6L15.12,17c1.17,2.72,2.15,5.51,3.1,8.31l2.87,8.38L26.84,50.5l5.75,16.77,5.68,16.79-2-.58L68.93,58a1.25,1.25,0,0,1,1.75.22,1.35,1.35,0,0,1,.12.18l7.87,14.69-2.35.59.08-22.15a1.28,1.28,0,0,1,.1-.49L86.17,28.4l1,1.73Zm.38-2.47,4.74.73a1.25,1.25,0,0,1,1,1.43,1.3,1.3,0,0,1-.09.3L78.79,52l.1-.49-.08,22.15a1.25,1.25,0,0,1-2.35.59L68.6,59.57l1.87.39L37.85,85.45a1.25,1.25,0,0,1-1.75-.22,1.3,1.3,0,0,1-.2-.37L30.12,68.11,24.41,51.33,18.71,34.55l-2.85-8.39c-1-2.8-1.89-5.6-2.62-8.47A1.05,1.05,0,0,1,14,16.41a1.09,1.09,0,0,1,.35,0c2.89.22,5.74.65,8.59,1.1l8.55,1.34,17.1,2.68Z"/></g></svg>