<svg xmlns="http://www.w3.org/2000/svg" viewBox="0 0 100 100"><defs><style>.cls-1{fill:#fff;}.cls-2{fill:#f69679;}.cls-3{fill:#ffd54c;opacity:0.3;}</style></defs><title>icons3-illus</title><g id="Layer_1" data-name="Layer 1"><path class="cls-1" d="M51.94,64.79c-1.16.56-2.2,1.23-3.31,1.84a22.42,22.42,0,0,0-5.4,4.2h0a2.58,2.58,0,0,1-3.65.1l-10-9.44a2.58,2.58,0,0,1-.1-3.65l.07-.07a22.07,22.07,0,0,0,4.17-6.43C42.14,32,61,18.78,80.49,15.46c-1.12,16.56-6.4,30.23-19.15,43A11.63,11.63,0,0,1,60,59.55"/><path class="cls-1" d="M58.87,39.92a5.44,5.44,0,1,0-1.22-6.18"/><path class="cls-1" d="M41.88,37s-7.5-5.62-15.86-.84C19.86,39.64,15.77,47.4,14.65,56.38c0,0,8.42-11.74,19.85-7.56"/><path class="cls-1" d="M63.19,57.14s6,7.18,1.7,15.79c-3.18,6.34-10.7,10.84-19.61,12.45,0,0,11.44-10.54,6.67-20.6"/><path class="cls-1" d="M39.58,70.93C33.66,78,28.53,78,23,78.72c-.3-5.72.1-10.61,6.61-17.23"/><line class="cls-1" x1="45.55" y1="68.7" x2="36.63" y2="60.25"/><path class="cls-1" d="M55,40c2.52,8.6,15.72,4.82,15.66-2.62s-8.34-12.54-13.55-6.62C54.07,34.23,54.19,37.08,55,40Z"/><path class="cls-1" d="M27.41,61.79c2.17.46,10.87,8.28,11.5,12S23.82,84.8,17.7,86.67,22.32,60.72,27.41,61.79Z"/><path class="cls-2" d="M52.48,65.91l-2.72,1.52A23.37,23.37,0,0,0,47.21,69a21.45,21.45,0,0,0-2.3,1.92l-.53.53-.28.29a3.71,3.71,0,0,1-.45.39,3.85,3.85,0,0,1-4.46.11,3.93,3.93,0,0,1-.47-.37l-.3-.28-.58-.54-2.31-2.18-4.62-4.36L28.57,62.3a3.9,3.9,0,0,1-.66-4.44,4.13,4.13,0,0,1,.68-1l.5-.55c.33-.37.64-.75.94-1.15a20.76,20.76,0,0,0,1.61-2.51c.9-1.71,1.78-3.78,2.76-5.7L36,44.17c.54-.94,1.18-1.82,1.76-2.73a63.6,63.6,0,0,1,8.35-9.89,68.72,68.72,0,0,1,10.18-8,63.71,63.71,0,0,1,11.52-5.85l1.51-.59,1.54-.51c1-.33,2-.7,3.09-1a25.16,25.16,0,0,1,6.36-1.19h0a1.18,1.18,0,0,1,1.15,1v0a25.93,25.93,0,0,1-.36,6.32c-.17,1-.31,2.09-.5,3.14s-.39,2.08-.64,3.12a62.2,62.2,0,0,1-4.05,12.07A61.83,61.83,0,0,1,69.4,51.1q-1.89,2.56-4,4.92c-.69.8-1.42,1.57-2.18,2.31-.39.38-.74.71-1.19,1.1a6.65,6.65,0,0,1-1.42.88l-.09,0A1,1,0,0,1,59.4,58.8c.46-.45.78-.72,1-1s.64-.78,1-1.15c.69-.76,1.41-1.49,2.06-2.27q2-2.3,3.84-4.77a59.19,59.19,0,0,0,6.17-10.52,60.69,60.69,0,0,0,3.95-11.54c.24-1,.42-2,.63-3s.33-2,.5-3l.38-3a13.54,13.54,0,0,1,.54-3l1.15,1h0a14.68,14.68,0,0,1-3,.87c-1,.21-2,.52-3,.77s-2,.6-3,.92l-1.48.49-1.45.57a61.19,61.19,0,0,0-11.08,5.65,66.19,66.19,0,0,0-9.78,7.67,61,61,0,0,0-8,9.5c-.56.87-1.17,1.71-1.68,2.61L36.7,48.2c-.47.92-.89,1.86-1.35,2.79s-.88,2-1.42,2.94a23.36,23.36,0,0,1-1.81,2.83c-.33.45-.69.89-1.06,1.31l-.57.62a1.47,1.47,0,0,0-.24.34,1.27,1.27,0,0,0,.22,1.45l2.26,2.14L37.32,67l2.3,2.19.57.55.28.26a1.36,1.36,0,0,0,.16.12,1.29,1.29,0,0,0,1.49,0l.15-.13.27-.28.6-.59A24,24,0,0,1,45.73,67a26,26,0,0,1,2.84-1.75l2.83-1.56a1.25,1.25,0,0,1,1.21,2.18Z"/><path class="cls-2" d="M59.49,39.27a7.3,7.3,0,0,0,2.59.85,4.19,4.19,0,0,0,2.54-.51,4.18,4.18,0,0,0-1.54-7.77,4.19,4.19,0,0,0-2.54.49,7.34,7.34,0,0,0-2.06,1.78l0,0a.93.93,0,0,1-1.62-.79,5.2,5.2,0,0,1,2.48-3.21,6.7,6.7,0,0,1,9.43,8.66,6.8,6.8,0,0,1-2.87,3,6.73,6.73,0,0,1-4.09.75,5.16,5.16,0,0,1-3.51-2,.92.92,0,0,1,1.16-1.35Z"/><path class="cls-2" d="M41.13,38a15.07,15.07,0,0,0-4.21-1.91,13.48,13.48,0,0,0-4.6-.5A13.9,13.9,0,0,0,24,39.26a22.68,22.68,0,0,0-5.51,7.82,33.06,33.06,0,0,0-1.64,4.62c-.43,1.58-.8,3.18-1.26,4.8h0l-1.66-.65a17.54,17.54,0,0,1,3.91-4.5,23,23,0,0,1,5.07-3.24,16.15,16.15,0,0,1,6-1.44h1.56l1.54.22c.26,0,.51.07.77.12l.74.22,1.48.45a1.25,1.25,0,0,1-.7,2.39l-.16,0a14.19,14.19,0,0,0-5.1-.72,14.47,14.47,0,0,0-5,1.21,20.47,20.47,0,0,0-4.54,2.79,53.3,53.3,0,0,0-4,3.64l-.21.2a.87.87,0,0,1-1.46-.86h0a26.35,26.35,0,0,1,2.39-10.21,25.26,25.26,0,0,1,6.07-8.78,16.55,16.55,0,0,1,10-4.36,15.57,15.57,0,0,1,5.48.66,17.34,17.34,0,0,1,5,2.39A1.25,1.25,0,0,1,41.21,38Z"/><path class="cls-2" d="M64.15,56.34a17.33,17.33,0,0,1,2.65,4.86,15.41,15.41,0,0,1,.94,5.43,16.51,16.51,0,0,1-3.83,10.15,25.23,25.23,0,0,1-8.41,6.56,29.25,29.25,0,0,1-10,3h0a1,1,0,0,1-1-1.54l.14-.17A47.53,47.53,0,0,0,48,80.29a24.62,24.62,0,0,0,2.63-4.79,16.76,16.76,0,0,0,1.18-5.15,12.55,12.55,0,0,0-1-5l0-.08a1.25,1.25,0,0,1,2.29-1,14.39,14.39,0,0,1,1.32,6.18,18.14,18.14,0,0,1-1.39,6,25.94,25.94,0,0,1-3,5.25,24.16,24.16,0,0,1-4.08,4.4l-.85-1.7h0a48.17,48.17,0,0,0,9.27-3.32,22.72,22.72,0,0,0,7.54-5.91,13.93,13.93,0,0,0,3.23-8.57A13.65,13.65,0,0,0,64.38,62a15.07,15.07,0,0,0-2.15-4.1l-.06-.08a1.25,1.25,0,0,1,2-1.53Z"/><path class="cls-2" d="M40.54,71.74a28.08,28.08,0,0,1-3.48,3.54,18.62,18.62,0,0,1-4.31,2.67,20.89,20.89,0,0,1-4.83,1.37,22,22,0,0,1-4.77.41h-.06A1.22,1.22,0,0,1,22,78.77a16.11,16.11,0,0,1-.2-5,17.87,17.87,0,0,1,1.17-5,20.76,20.76,0,0,1,2.49-4.44,34.48,34.48,0,0,1,3.27-3.75,1.25,1.25,0,0,1,1.8,1.73l0,0a24.41,24.41,0,0,0-5.13,7.41,15.29,15.29,0,0,0-1.07,4.28c-.17,1.49-.1,3-.3,4.6l-1.15-1h0a35.59,35.59,0,0,1,4.6-.89,18.32,18.32,0,0,0,4.23-1.27,20.22,20.22,0,0,0,6.93-5.42l0,0a1.25,1.25,0,0,1,1.89,1.63Z"/><path class="cls-2" d="M44.69,69.6c-1.55-1.34-3-2.79-4.45-4.24s-2.85-2.94-4.2-4.5a.85.85,0,0,1,1.17-1.23c1.63,1.26,3.18,2.6,4.72,3.95s3.05,2.73,4.47,4.21a1.25,1.25,0,0,1-1.72,1.82Z"/><path class="cls-3" d="M55,40c2.52,8.6,15.72,4.82,15.66-2.62s-8.34-12.54-13.55-6.62C54.07,34.23,54.19,37.08,55,40Z"/><path class="cls-3" d="M27.41,61.79c2.17.46,10.87,8.28,11.5,12S23.82,84.8,17.7,86.67,22.32,60.72,27.41,61.79Z"/></g></svg>