<svg xmlns="http://www.w3.org/2000/svg" viewBox="0 0 100 100"><defs><style>.cls-1{fill:#fff;}.cls-2{fill:#f69679;}.cls-3{fill:#ffd54c;opacity:0.3;}</style></defs><title>icons3-illus</title><g id="Layer_1" data-name="Layer 1"><path class="cls-1" d="M43.19,64.79c1.16.56,2.2,1.23,3.31,1.84a22.42,22.42,0,0,1,5.4,4.2h0a2.58,2.58,0,0,0,3.65.1l10-9.44a2.58,2.58,0,0,0,.1-3.65l-.07-.07a22.07,22.07,0,0,1-4.17-6.43C53,32,34.11,18.78,14.65,15.46,15.77,32,21,45.69,33.8,58.49a11.63,11.63,0,0,0,1.35,1.06"/><path class="cls-1" d="M36.26,39.92a5.44,5.44,0,1,1,1.22-6.18"/><path class="cls-1" d="M53.26,37s7.5-5.62,15.86-.84c6.16,3.52,10.25,11.28,11.37,20.26,0,0-8.42-11.74-19.85-7.56"/><path class="cls-1" d="M31.95,57.14s-6,7.18-1.7,15.79C33.43,79.28,41,83.78,49.86,85.39c0,0-11.44-10.54-6.67-20.6"/><path class="cls-1" d="M55.56,70.93c5.92,7,11.05,7,16.58,7.79.3-5.72-.1-10.61-6.61-17.23"/><line class="cls-1" x1="49.58" y1="68.7" x2="58.51" y2="60.25"/><path class="cls-1" d="M40.1,40c-2.52,8.6-15.72,4.82-15.66-2.62S32.78,24.81,38,30.73C41.06,34.23,40.95,37.08,40.1,40Z"/><path class="cls-1" d="M67.73,61.79c-2.17.46-10.87,8.28-11.5,12s15.09,11,21.21,12.83S72.81,60.72,67.73,61.79Z"/><path class="cls-2" d="M43.74,63.66l2.83,1.56A26,26,0,0,1,49.41,67,24,24,0,0,1,52,69.11l.6.59.27.28.15.13a1.29,1.29,0,0,0,1.49,0,1.36,1.36,0,0,0,.16-.12l.28-.26.57-.55L57.81,67l4.6-4.38,2.26-2.14A1.27,1.27,0,0,0,64.89,59a1.47,1.47,0,0,0-.24-.34l-.57-.62c-.37-.42-.73-.86-1.06-1.31a23.36,23.36,0,0,1-1.81-2.83c-.54-1-1-2-1.42-2.94s-.88-1.87-1.35-2.79l-1.53-2.7c-.51-.9-1.12-1.74-1.68-2.61a61,61,0,0,0-8-9.5,66.19,66.19,0,0,0-9.78-7.67A61.19,61.19,0,0,0,26.4,20.08L25,19.5,23.48,19c-1-.32-2-.68-3-.92s-2-.57-3-.77a14.68,14.68,0,0,1-3-.87h0l1.15-1a13.54,13.54,0,0,1,.54,3l.38,3c.17,1,.32,2,.5,3s.39,2,.63,3a60.69,60.69,0,0,0,3.95,11.54,59.2,59.2,0,0,0,6.17,10.52q1.8,2.47,3.84,4.77c.65.79,1.38,1.51,2.06,2.27.33.37.69.8,1,1.15s.59.58,1,1a1,1,0,0,1-1.09,1.55l-.1,0a6.65,6.65,0,0,1-1.42-.88c-.45-.39-.8-.72-1.19-1.1-.75-.74-1.49-1.5-2.18-2.31q-2.13-2.36-4-4.92a61.83,61.83,0,0,1-6.53-10.93A62.19,62.19,0,0,1,15.16,28.1c-.24-1-.42-2.08-.64-3.12s-.33-2.09-.5-3.14a25.93,25.93,0,0,1-.36-6.32v0a1.18,1.18,0,0,1,1.15-1h0a25.15,25.15,0,0,1,6.36,1.19c1.05.25,2.07.62,3.09,1l1.54.51,1.51.59a63.71,63.71,0,0,1,11.52,5.85,68.73,68.73,0,0,1,10.18,8,63.6,63.6,0,0,1,8.35,9.89c.58.91,1.22,1.79,1.76,2.73L60.73,47c1,1.92,1.86,4,2.76,5.7a20.76,20.76,0,0,0,1.61,2.51c.3.4.61.78.94,1.15l.5.55a4.13,4.13,0,0,1,.68,1,3.9,3.9,0,0,1-.66,4.44l-2.34,2.24L59.6,68.89l-2.31,2.18-.58.54-.3.28a3.93,3.93,0,0,1-.47.37,3.85,3.85,0,0,1-4.46-.11,3.71,3.71,0,0,1-.45-.39l-.28-.29-.53-.53A21.45,21.45,0,0,0,47.93,69a23.36,23.36,0,0,0-2.56-1.59l-2.72-1.52-.13-.07a1.25,1.25,0,0,1,1.21-2.18Z"/><path class="cls-2" d="M36.88,40.58a5.16,5.16,0,0,1-3.51,2,6.73,6.73,0,0,1-4.09-.75A6.69,6.69,0,0,1,31.76,29.3a6.73,6.73,0,0,1,4.07.86,5.2,5.2,0,0,1,2.48,3.21.93.93,0,0,1-1.62.79l0,0a7.34,7.34,0,0,0-2.06-1.78A4.19,4.19,0,0,0,32,31.84a4.18,4.18,0,0,0-1.54,7.77,4.19,4.19,0,0,0,2.54.51,7.3,7.3,0,0,0,2.59-.85l.08,0a.92.92,0,0,1,1.16,1.35Z"/><path class="cls-2" d="M52.51,36a17.34,17.34,0,0,1,5-2.39A15.57,15.57,0,0,1,63,32.91a16.55,16.55,0,0,1,10,4.36A25.26,25.26,0,0,1,79,46.05,26.35,26.35,0,0,1,81.4,56.27h0a.87.87,0,0,1-1.46.86l-.21-.21a53.3,53.3,0,0,0-4-3.64,20.47,20.47,0,0,0-4.54-2.79,14.47,14.47,0,0,0-5-1.21,14.19,14.19,0,0,0-5.1.72l-.16,0a1.25,1.25,0,0,1-.7-2.39l1.48-.45.74-.22c.25-.06.51-.08.77-.12l1.54-.22h1.56a16.15,16.15,0,0,1,6,1.44,23,23,0,0,1,5.07,3.24,17.54,17.54,0,0,1,3.91,4.5l-1.66.65h0c-.46-1.62-.83-3.21-1.26-4.8a33,33,0,0,0-1.64-4.62,22.68,22.68,0,0,0-5.51-7.82,13.9,13.9,0,0,0-8.35-3.7,13.48,13.48,0,0,0-4.6.5A15.07,15.07,0,0,0,54,38l-.08.06A1.25,1.25,0,0,1,52.51,36Z"/><path class="cls-2" d="M32.91,57.95A15.07,15.07,0,0,0,30.76,62,13.65,13.65,0,0,0,30,66.61a13.93,13.93,0,0,0,3.23,8.57,22.72,22.72,0,0,0,7.54,5.91A48.17,48.17,0,0,0,50,84.42h0l-.85,1.7a24.16,24.16,0,0,1-4.08-4.4,25.94,25.94,0,0,1-3-5.25,18.14,18.14,0,0,1-1.39-6,14.39,14.39,0,0,1,1.32-6.18,1.25,1.25,0,0,1,2.29,1l0,.08a12.55,12.55,0,0,0-1,5,16.76,16.76,0,0,0,1.18,5.15,24.62,24.62,0,0,0,2.63,4.79,47.54,47.54,0,0,0,3.39,4.37l.14.16a1,1,0,0,1-.1,1.34,1,1,0,0,1-.89.2h0a29.25,29.25,0,0,1-10-3,25.23,25.23,0,0,1-8.41-6.56A16.51,16.51,0,0,1,27.4,66.63a15.41,15.41,0,0,1,.94-5.43A17.33,17.33,0,0,1,31,56.34a1.25,1.25,0,0,1,2,1.53Z"/><path class="cls-2" d="M56.51,70.12a20.22,20.22,0,0,0,6.93,5.42,18.32,18.32,0,0,0,4.23,1.27,35.59,35.59,0,0,1,4.6.89h0l-1.15,1c-.19-1.59-.13-3.11-.3-4.6a15.29,15.29,0,0,0-1.07-4.28,24.41,24.41,0,0,0-5.13-7.41l0,0a1.25,1.25,0,0,1,1.8-1.73,34.48,34.48,0,0,1,3.27,3.75,20.76,20.76,0,0,1,2.49,4.44,17.87,17.87,0,0,1,1.17,5,16.11,16.11,0,0,1-.2,5,1.22,1.22,0,0,1-1.09.95H72a22,22,0,0,1-4.77-.41,20.89,20.89,0,0,1-4.83-1.37,18.62,18.62,0,0,1-4.31-2.67,28.08,28.08,0,0,1-3.48-3.54,1.25,1.25,0,0,1,1.89-1.63Z"/><path class="cls-2" d="M48.73,67.79c1.42-1.48,2.94-2.85,4.47-4.21s3.09-2.69,4.72-3.95a.85.85,0,0,1,1.17,1.23c-1.35,1.56-2.77,3-4.2,4.5S52,68.26,50.44,69.6a1.25,1.25,0,0,1-1.72-1.82Z"/><path class="cls-3" d="M40.1,40c-2.52,8.6-15.72,4.82-15.66-2.62S32.78,24.81,38,30.73C41.06,34.23,40.95,37.08,40.1,40Z"/><path class="cls-3" d="M67.73,61.79c-2.17.46-10.87,8.28-11.5,12s15.09,11,21.21,12.83S72.81,60.72,67.73,61.79Z"/></g></svg>