<svg xmlns="http://www.w3.org/2000/svg" viewBox="0 0 100 100"><defs><style>.cls-1,.cls-4,.cls-6,.cls-7{fill:#fff;}.cls-1,.cls-4{stroke:#fff;}.cls-1,.cls-2,.cls-3,.cls-4{stroke-miterlimit:10;}.cls-1{stroke-width:11.5px;}.cls-2,.cls-3{fill:none;}.cls-2{stroke:#dbe6f5;stroke-width:10.87px;}.cls-3,.cls-6,.cls-9{stroke:#81a1ca;stroke-width:1.7px;}.cls-4{stroke-width:4.35px;}.cls-5{fill:#dbe6f5;}.cls-6,.cls-9{stroke-linecap:round;stroke-linejoin:round;}.cls-8{fill:#81a1ca;}.cls-9{fill:#e8e0d3;}</style></defs><title>project-thumbs</title><g id="Layer_3" data-name="Layer 3"><path class="cls-1" d="M85.44,50.11A35.42,35.42,0,0,0,50.32,15h-1.1a35.37,35.37,0,0,0-35,35V51.2a35.37,35.37,0,0,0,35,35h1.18a35.37,35.37,0,0,0,35-35V50.11Z"/></g><g id="Layer_1" data-name="Layer 1"><path class="cls-2" d="M80,51.17A29.82,29.82,0,0,1,50.36,80.82H49.24A29.82,29.82,0,0,1,19.6,51.17q0-.28,0-.56t0-.56A29.82,29.82,0,0,1,49.24,20.41h1A29.89,29.89,0,0,1,80,50.14q0,.24,0,.48T80,51.17Z"/><path class="cls-3" d="M82.09,51.27A31.83,31.83,0,0,1,50.46,82.9H49.14A31.83,31.83,0,0,1,17.51,51.27q0-.33,0-.66t0-.66A31.83,31.83,0,0,1,49.14,18.33h1.5A31.69,31.69,0,0,1,82.08,49.77q0,.42,0,.84T82.09,51.27Z"/><path class="cls-4" d="M67.34,32.94c-.12-.24-.28-.71-.55-1.2-.28-.66-.55-1.35-.88-2a.73.73,0,0,0-.81-.35c-.72.19-1.39.43-2.07.66h-.11a37.46,37.46,0,0,0-3.83,1.49,26.51,26.51,0,0,0-3.61,2,16.51,16.51,0,0,0-5.61,6.12,13.85,13.85,0,0,0-1.32,4,14.85,14.85,0,0,0-.09,4l-.26-.27c-.12-.16-.23-.33-.35-.49a14,14,0,0,0-7.94-5.16,17.21,17.21,0,0,0-9.43.73,32.13,32.13,0,0,0-8.23,4.49h0l0,0c-.46.33-.92.68-1.39,1.06a.65.65,0,0,0-.18.79,32,32,0,0,0,7,9.92A19,19,0,0,0,38,65.33a15.77,15.77,0,0,0,4.88.27,19.22,19.22,0,0,0,7.9-2.7c.61,1.67,1.22,3.2,1.77,4.56l0,0s0,0,0,.05a3.4,3.4,0,0,0,1.74,1.38l.27.66,0,0,0,0a3.3,3.3,0,0,0,1.86,1.4,2.44,2.44,0,0,0,.81.06,3,3,0,0,0,1.31-.47,2.8,2.8,0,0,0,1-3.91C58.73,64.58,58,62.51,57.17,60a16,16,0,0,0,11.49-7.57C71.87,46.9,71.11,40.43,67.34,32.94Z"/><path class="cls-5" d="M67.78,31.94a.58.58,0,0,0-.66-.3c-.72.19-1.41.4-2.09.63h-.11a37.36,37.36,0,0,0-3.82,1.48,26.42,26.42,0,0,0-3.6,2,16.43,16.43,0,0,0-5.59,6.09,13.78,13.78,0,0,0-1.31,4A14.89,14.89,0,0,0,50.54,50c0,.07,0,.14,0,.22-.26-.4-.52-.79-.81-1.16A14,14,0,0,0,41.87,44a17.13,17.13,0,0,0-9.38.73,32.05,32.05,0,0,0-8.21,4.48h0l0,0c-.46.33-.92.68-1.39,1.06a.57.57,0,0,0-.16.69C26.55,59,31.83,64,38,65.33a15.77,15.77,0,0,0,4.88.27,19.74,19.74,0,0,0,9-3.36c.94,2.79,1.91,5.26,2.76,7.35l0,0,0,0a3.3,3.3,0,0,0,1.86,1.4,2.44,2.44,0,0,0,.81.06,3,3,0,0,0,1.31-.47,2.8,2.8,0,0,0,1-3.91C58.73,64.58,58,62.51,57.17,60a16,16,0,0,0,11.49-7.57C71.87,46.9,71.55,39.43,67.78,31.94Z"/><path class="cls-6" d="M51.9,57.84c-9.9,8.37-22.77,7.27-30.65-9.29C37.43,35.61,50.09,46.05,51.9,57.84Z"/><path class="cls-6" d="M52.87,57.5C65.64,56.87,72.75,44.85,65.3,30,48.44,34.48,47.2,47.76,52.87,57.5Z"/><path class="cls-7" d="M22.65,47.47c15.45-11.38,26.43-3.2,28.19,8.25-3.89,3.13-9.92,4.47-15.71,3.35"/><path class="cls-8" d="M22.14,46.79a32.33,32.33,0,0,1,8.29-4.52A17.41,17.41,0,0,1,40,41.54a14.23,14.23,0,0,1,8,5.24,19.24,19.24,0,0,1,3.66,8.82.85.85,0,0,1-.29.78h0a17.05,17.05,0,0,1-7.85,3.55,17.58,17.58,0,0,1-8.5-.34.53.53,0,0,1,.19-1h0a29.82,29.82,0,0,0,8-.37,18,18,0,0,0,7.13-3.12l-.31.79a17.54,17.54,0,0,0-3.32-8,12.52,12.52,0,0,0-7.09-4.62,15.72,15.72,0,0,0-8.6.68,30.66,30.66,0,0,0-7.83,4.28h0a.85.85,0,0,1-1-1.37Z"/><path class="cls-7" d="M63.13,30.67c-14.88,4.8-16.75,15.4-11.33,24.71a18.28,18.28,0,0,0,12-7.19"/><path class="cls-8" d="M63.39,31.48a28,28,0,0,0-7.06,3.33,15,15,0,0,0-5.12,5.56A12.59,12.59,0,0,0,50,47.72,19.06,19.06,0,0,0,52.53,55l-.85-.41A19.12,19.12,0,0,0,58,52.21a30.07,30.07,0,0,0,5.36-4.3.48.48,0,0,1,.68,0,.49.49,0,0,1,.08.56A14.27,14.27,0,0,1,59,53.74a16.52,16.52,0,0,1-7,2.48h0a.85.85,0,0,1-.82-.42,20.75,20.75,0,0,1-2.77-7.89,14.3,14.3,0,0,1,1.4-8.33,16.71,16.71,0,0,1,5.68-6.2,29.69,29.69,0,0,1,7.49-3.54.85.85,0,0,1,.53,1.62h0Z"/><path class="cls-7" d="M51.8,55.38s.93-11.62,9.63-17.83"/><path class="cls-8" d="M51,55.31A26.18,26.18,0,0,1,52,50a27.81,27.81,0,0,1,2-5,23.48,23.48,0,0,1,3-4.47l.91-1c.33-.31.67-.6,1-.89a14.91,14.91,0,0,1,2.21-1.54.49.49,0,0,1,.61.75l0,0a34.85,34.85,0,0,0-3.42,3.7,22.83,22.83,0,0,0-2.69,4.23,31.7,31.7,0,0,0-1.87,4.68,32.24,32.24,0,0,0-1.09,4.9v0A.85.85,0,0,1,51,55.31Z"/><path class="cls-7" d="M50.83,55.72s-11.75-7-19.92-5.6"/><path class="cls-8" d="M50.4,56.45c-1.49-.8-3.07-1.55-4.64-2.26s-3.17-1.35-4.79-1.9A37.16,37.16,0,0,0,36,51,23.65,23.65,0,0,0,31,50.5h0a.38.38,0,0,1-.11-.75,15,15,0,0,1,5.42-.33,28.09,28.09,0,0,1,5.26,1.17,39.11,39.11,0,0,1,5,1.91A41.27,41.27,0,0,1,51.27,55a.85.85,0,0,1-.85,1.47Z"/><path class="cls-6" d="M57.11,64.83c-1-2.45-1.79-4.71-2.71-7.58A2.32,2.32,0,1,0,50,58.67c1,3.15,2.08,5.9,3.15,8.55Z"/><path class="cls-9" d="M53.14,67.22a3.13,3.13,0,0,1,4-2.4A2.29,2.29,0,0,1,56.32,68,2.25,2.25,0,0,1,53.14,67.22Z"/></g></svg>