<svg id="Layer_1" data-name="Layer 1" xmlns="http://www.w3.org/2000/svg" viewBox="0 0 100 100"><defs><style>.cls-1,.cls-4,.cls-5,.cls-6{fill:#fff;}.cls-1,.cls-4{stroke:#fff;}.cls-1,.cls-2,.cls-3,.cls-4{stroke-miterlimit:10;}.cls-1{stroke-width:11.5px;}.cls-2,.cls-3{fill:none;}.cls-2,.cls-5,.cls-8{stroke:#00a99d;}.cls-2{stroke-width:1.3px;}.cls-3{stroke:#fbb03b;stroke-width:10.87px;}.cls-3,.cls-9{opacity:0.25;}.cls-4{stroke-width:4.35px;}.cls-5,.cls-8{stroke-linecap:round;stroke-linejoin:round;stroke-width:1.3px;}.cls-7{fill:#00a99d;}.cls-8{fill:#e8e0d3;}.cls-9{fill:#fbb03b;}</style></defs><title>icon</title><path class="cls-1" d="M85.44,50.11A35.42,35.42,0,0,0,50.32,15h-1.1a35.37,35.37,0,0,0-35,35V51.2a35.37,35.37,0,0,0,35,35h1.18a35.37,35.37,0,0,0,35-35V50.11Z"/><path class="cls-2" d="M82.09,51.27A31.83,31.83,0,0,1,50.46,82.9H49.14A31.83,31.83,0,0,1,17.51,51.27q0-.33,0-.66t0-.66A31.83,31.83,0,0,1,49.14,18.33h1.5A31.69,31.69,0,0,1,82.08,49.77q0,.42,0,.84T82.09,51.27Z"/><path class="cls-3" d="M80,51.17A29.82,29.82,0,0,1,50.36,80.82H49.24A29.82,29.82,0,0,1,19.6,51.17q0-.28,0-.56t0-.56A29.82,29.82,0,0,1,49.24,20.41h1A29.89,29.89,0,0,1,80,50.14q0,.24,0,.48T80,51.17Z"/><path class="cls-4" d="M67.34,32.94c-.12-.24-.28-.71-.55-1.2-.28-.66-.55-1.35-.88-2a.73.73,0,0,0-.81-.35c-.72.19-1.39.43-2.07.66h-.11a37.46,37.46,0,0,0-3.83,1.49,26.51,26.51,0,0,0-3.61,2,16.51,16.51,0,0,0-5.61,6.12,13.85,13.85,0,0,0-1.32,4,14.85,14.85,0,0,0-.09,4l-.26-.27c-.12-.16-.23-.33-.35-.49a14,14,0,0,0-7.94-5.16,17.21,17.21,0,0,0-9.43.73,32.13,32.13,0,0,0-8.23,4.49h0l0,0c-.46.33-.92.68-1.39,1.06a.65.65,0,0,0-.18.79,32,32,0,0,0,7,9.92A19,19,0,0,0,38,65.33a15.77,15.77,0,0,0,4.88.27,19.22,19.22,0,0,0,7.9-2.7c.61,1.67,1.22,3.2,1.77,4.56l0,0s0,0,0,.05a3.4,3.4,0,0,0,1.74,1.38l.27.66,0,0,0,0a3.3,3.3,0,0,0,1.86,1.4,2.44,2.44,0,0,0,.81.06,3,3,0,0,0,1.31-.47,2.8,2.8,0,0,0,1-3.91C58.73,64.58,58,62.51,57.17,60a16,16,0,0,0,11.49-7.57C71.87,46.9,71.11,40.43,67.34,32.94Z"/><path class="cls-5" d="M51.9,57.84c-9.9,8.37-22.77,7.27-30.65-9.29C37.43,35.61,50.09,46.05,51.9,57.84Z"/><path class="cls-5" d="M52.87,57.5C65.64,56.87,72.75,44.85,65.3,30,48.44,34.48,47.2,47.76,52.87,57.5Z"/><path class="cls-6" d="M22.65,47.47c15.45-11.38,26.43-3.2,28.19,8.25-3.89,3.13-9.92,4.47-15.71,3.35"/><path class="cls-7" d="M22.26,46.95a32.13,32.13,0,0,1,8.23-4.49,17.21,17.21,0,0,1,9.43-.73,14,14,0,0,1,7.94,5.16,19,19,0,0,1,3.62,8.72.65.65,0,0,1-.23.6h0a17.14,17.14,0,0,1-7.76,3.5A18.34,18.34,0,0,1,35,59.47a.41.41,0,0,1-.28-.5.41.41,0,0,1,.43-.29,27.31,27.31,0,0,0,8-.29,17.78,17.78,0,0,0,7.21-3.17l-.24.61a17.74,17.74,0,0,0-3.36-8.12A12.72,12.72,0,0,0,39.63,43a15.92,15.92,0,0,0-8.71.69A30.85,30.85,0,0,0,23,48h0a.65.65,0,1,1-.77-1.05Z"/><path class="cls-6" d="M63.13,30.67c-14.88,4.8-16.75,15.4-11.33,24.71a18.28,18.28,0,0,0,12-7.19"/><path class="cls-7" d="M63.33,31.29a28.21,28.21,0,0,0-7.11,3.35A15.22,15.22,0,0,0,51,40.28a12.79,12.79,0,0,0-1.25,7.47,19.26,19.26,0,0,0,2.58,7.31l-.65-.32a18.64,18.64,0,0,0,6.42-2.35A25.87,25.87,0,0,0,63.47,48a.37.37,0,0,1,.58.44,15.15,15.15,0,0,1-5.2,5.15,16.76,16.76,0,0,1-7,2.46h0a.65.65,0,0,1-.64-.32,20.55,20.55,0,0,1-2.74-7.81,14.1,14.1,0,0,1,1.38-8.21,16.51,16.51,0,0,1,5.61-6.12A29.5,29.5,0,0,1,62.93,30a.65.65,0,0,1,.41,1.24h0Z"/><path class="cls-6" d="M51.8,55.38s.93-11.62,9.63-17.83"/><path class="cls-7" d="M51.15,55.33a27.29,27.29,0,0,1,1-5.24,28.15,28.15,0,0,1,2-4.94,23.18,23.18,0,0,1,3-4.44,16.68,16.68,0,0,1,4.06-3.46.38.38,0,0,1,.46.59l0,0a30,30,0,0,0-3.5,3.67,23.14,23.14,0,0,0-2.72,4.26,31.12,31.12,0,0,0-1.88,4.71,30.31,30.31,0,0,0-1.09,4.94v0a.65.65,0,0,1-1.3-.14Z"/><path class="cls-6" d="M50.83,55.72s-11.75-7-19.92-5.6"/><path class="cls-7" d="M50.5,56.28C49,55.45,47.42,54.71,45.85,54s-3.18-1.35-4.82-1.9a36.91,36.91,0,0,0-5-1.31,22.61,22.61,0,0,0-5.1-.37h0a.29.29,0,0,1-.09-.57,15.23,15.23,0,0,1,5.37-.23,28.1,28.1,0,0,1,5.23,1.18,40.77,40.77,0,0,1,5,1.91,45.21,45.21,0,0,1,4.73,2.46.65.65,0,0,1-.65,1.13Z"/><path class="cls-5" d="M57.11,64.83c-1-2.45-1.79-4.71-2.71-7.58A2.32,2.32,0,1,0,50,58.67c1,3.15,2.08,5.9,3.15,8.55Z"/><path class="cls-8" d="M53.14,67.22a3.13,3.13,0,0,1,4-2.4A2.29,2.29,0,0,1,56.32,68,2.25,2.25,0,0,1,53.14,67.22Z"/><path class="cls-9" d="M67.78,31.94a.58.58,0,0,0-.66-.3c-.72.19-1.41.4-2.09.63h-.11a37.36,37.36,0,0,0-3.82,1.48,26.42,26.42,0,0,0-3.6,2,16.43,16.43,0,0,0-5.59,6.09,13.78,13.78,0,0,0-1.31,4A14.89,14.89,0,0,0,50.54,50c0,.07,0,.14,0,.22-.26-.4-.52-.79-.81-1.16A14,14,0,0,0,41.87,44a17.13,17.13,0,0,0-9.38.73,32.05,32.05,0,0,0-8.21,4.48h0l0,0c-.46.33-.92.68-1.39,1.06a.57.57,0,0,0-.16.69C26.55,59,31.83,64,38,65.33a15.77,15.77,0,0,0,4.88.27,19.74,19.74,0,0,0,9-3.36c.94,2.79,1.91,5.26,2.76,7.35l0,0,0,0a3.3,3.3,0,0,0,1.86,1.4,2.44,2.44,0,0,0,.81.06,3,3,0,0,0,1.31-.47,2.8,2.8,0,0,0,1-3.91C58.73,64.58,58,62.51,57.17,60a16,16,0,0,0,11.49-7.57C71.87,46.9,71.55,39.43,67.78,31.94Z"/></svg>