<svg xmlns="http://www.w3.org/2000/svg" viewBox="0 0 100 100"><defs><style>.cls-1,.cls-8,.cls-9{fill:#fff;}.cls-1{stroke:#fff;stroke-width:11.5px;}.cls-1,.cls-9{stroke-miterlimit:10;}.cls-10,.cls-2,.cls-3,.cls-7{fill:none;}.cls-10,.cls-2,.cls-3,.cls-4,.cls-5,.cls-6,.cls-8,.cls-9{stroke:#595f6c;}.cls-10,.cls-2,.cls-3,.cls-4,.cls-5,.cls-6,.cls-7,.cls-8{stroke-linecap:round;stroke-linejoin:round;}.cls-2{stroke-width:2.02px;}.cls-3,.cls-4,.cls-5,.cls-6,.cls-7,.cls-8,.cls-9{stroke-width:1.61px;}.cls-4{fill:#81a1ca;}.cls-5{fill:#dbe6f5;}.cls-6{fill:#5c6e86;}.cls-7{stroke:#81a1ca;}.cls-10{stroke-width:2.02px;}</style></defs><title>project-thumbs</title><g id="Layer_3" data-name="Layer 3"><path class="cls-1" d="M89,24.93H12.11a1,1,0,0,0-1,1v3.44a1,1,0,0,0,1,1h1.12V72.49a1,1,0,0,0,1,1H49.49v2.87a3.63,3.63,0,1,0,2,0V73.5H86.84a1,1,0,0,0,1-1V30.39H89a1,1,0,0,0,1-1V25.94A1,1,0,0,0,89,24.93ZM52.11,79.84a1.61,1.61,0,1,1-1.61-1.61A1.61,1.61,0,0,1,52.11,79.84ZM88,28.37H13.13V27H88Z"/></g><g id="Layer_1" data-name="Layer 1"><rect class="cls-2" x="14.25" y="29.38" width="72.59" height="43.11"/><polyline class="cls-3" points="45.34 34.87 43.34 36.87 41.34 34.87 39.34 36.87 37.34 34.87 35.34 36.87 33.34 34.87 31.34 36.87 29.34 34.87 27.34 36.87 25.34 34.87 23.34 36.87"/><polyline class="cls-3" points="78.69 58.23 76.69 60.23 74.69 58.23 72.69 60.23 70.69 58.23 68.69 60.23 66.69 58.23 64.69 60.23 62.69 58.23 60.69 60.23 58.69 58.23 56.69 60.23"/><polyline class="cls-3" points="78.69 62.81 76.69 64.81 74.69 62.81 72.69 64.81 70.69 62.81 68.69 64.81 66.69 62.81 64.69 64.81 62.69 62.81 60.69 64.81 58.69 62.81 56.69 64.81"/><circle class="cls-4" cx="33.38" cy="53.22" r="11.96"/><path class="cls-5" d="M33.38,53.22l-8.62,8.29a12,12,0,1,1,20.58-8.29Z"/><path class="cls-4" d="M33.38,53.22l-7.8-9.07a12,12,0,0,1,19.76,9.07Z"/><path class="cls-6" d="M33.38,53.22,38.6,42.46a12,12,0,0,1,6.74,10.76Z"/><path class="cls-5" d="M33.38,53.22l11.24-4.08a12,12,0,0,1,.72,4.08Z"/><rect class="cls-5" x="56.69" y="35.85" width="22" height="16.96"/><polyline class="cls-7" points="60.34 47.82 64.01 41.63 67.66 45.01 71.39 43.32 75.04 38.78"/><line class="cls-8" x1="60.34" y1="51.39" x2="60.34" y2="52.8"/><line class="cls-8" x1="64.01" y1="51.39" x2="64.01" y2="52.8"/><line class="cls-8" x1="71.39" y1="51.39" x2="71.39" y2="52.8"/><line class="cls-8" x1="67.66" y1="51.39" x2="67.66" y2="52.8"/><line class="cls-8" x1="75.04" y1="51.39" x2="75.04" y2="52.8"/><circle class="cls-9" cx="60.34" cy="47.82" r="0.18"/><circle class="cls-9" cx="67.66" cy="45.01" r="0.18"/><circle class="cls-9" cx="64.01" cy="41.63" r="0.18"/><circle class="cls-9" cx="75.04" cy="38.79" r="0.18"/><circle class="cls-9" cx="71.39" cy="43.32" r="0.18"/><rect class="cls-2" x="12.11" y="25.94" width="76.85" height="3.44"/><line class="cls-10" x1="50.5" y1="72.49" x2="50.5" y2="76.63"/><circle class="cls-2" cx="50.5" cy="79.84" r="2.62"/></g></svg>