<svg xmlns="http://www.w3.org/2000/svg" viewBox="0 0 100 100"><defs><style>.cls-1,.cls-6{fill:#fff;}.cls-1{stroke:#fff;stroke-miterlimit:10;stroke-width:11.5px;}.cls-2{fill:#98b7d3;}.cls-3{fill:#dbe6f5;}.cls-4{fill:none;stroke-width:2.02px;}.cls-4,.cls-6,.cls-7{stroke:#595f6c;stroke-linecap:round;stroke-linejoin:round;}.cls-5{fill:#595f6c;}.cls-6{stroke-width:1.8px;}.cls-7{fill:#81a1ca;stroke-width:2px;}</style></defs><title>print</title><g id="Layer_1" data-name="Layer 1"><path class="cls-1" d="M71.49,19.86h-34a1,1,0,0,0-.15,0l-.1,0a1,1,0,0,0-.21.08L37,20a1,1,0,0,0-.18.12l-9,9a1,1,0,0,0-.3.71V79.13a1,1,0,0,0,1,1h43a1,1,0,0,0,1-1V20.87A1,1,0,0,0,71.49,19.86Z"/><rect class="cls-2" x="28.49" y="68.13" width="43" height="11"/><polygon class="cls-3" points="71.78 68.13 28.51 68.13 28.51 29.54 37.39 20.87 71.78 20.87 71.78 68.13"/><polygon class="cls-4" points="71.49 79.13 28.51 79.13 28.51 29.89 37.53 20.87 71.49 20.87 71.49 79.13"/><path class="cls-5" d="M36,36.49a22.69,22.69,0,0,1,5-.32l5,0,5,.07a20.94,20.94,0,0,1,5,.37.61.61,0,0,1,0,1.17,20.94,20.94,0,0,1-5,.32l-5,0L41,38a22.69,22.69,0,0,1-5-.36.6.6,0,0,1,0-1.17Z"/><path class="cls-5" d="M36,41.44a47.43,47.43,0,0,1,7.15-.31l7.15,0,7.15.08a43.25,43.25,0,0,1,7.15.37.6.6,0,0,1,0,1.17,43.25,43.25,0,0,1-7.15.32l-7.15,0L43.15,43A47.43,47.43,0,0,1,36,42.61a.59.59,0,0,1,0-1.17Z"/><path class="cls-5" d="M36,46.63a11.87,11.87,0,0,1,3.52-.33l3.52,0c1.17,0,2.34,0,3.52.06a11,11,0,0,1,3.52.37.63.63,0,0,1,0,1.17,11,11,0,0,1-3.52.34c-1.17,0-2.34,0-3.52,0l-3.52-.06A11.87,11.87,0,0,1,36,47.8a.62.62,0,0,1,0-1.17Z"/><path class="cls-5" d="M52.46,26.76A12,12,0,0,1,56,26.41c1.17,0,2.34,0,3.52,0s2.34,0,3.52.05a16.41,16.41,0,0,1,3.52.33.6.6,0,0,1,0,1.17,16.41,16.41,0,0,1-3.52.33q-1.76,0-3.52.05c-1.17,0-2.34,0-3.52,0a12,12,0,0,1-3.52-.35.62.62,0,0,1,0-1.17Z"/><path class="cls-5" d="M36,51.76a28.58,28.58,0,0,1,5.58-.32l5.58,0,5.58.07a26.37,26.37,0,0,1,5.57.37.6.6,0,0,1,0,1.17,26.37,26.37,0,0,1-5.58.32l-5.58,0-5.58-.08a28.58,28.58,0,0,1-5.57-.36.6.6,0,0,1,0-1.17Z"/><path class="cls-5" d="M40.35,63.19a5.09,5.09,0,0,1-.84,2.14c-.35.67-.73,1.33-1.1,2s-.77,1.3-1.18,1.94-.67,1.36-1.45,1.78a.68.68,0,0,1-.93-.27.69.69,0,0,1-.08-.31,4.71,4.71,0,0,1,.84-2.14c.35-.67.74-1.32,1.11-2s.77-1.3,1.18-1.94a5.09,5.09,0,0,1,1.45-1.79.66.66,0,0,1,1,.59Z"/><path class="cls-5" d="M40.6,70.66a5.21,5.21,0,0,1,.9-2.14c.37-.67.77-1.33,1.16-2s.81-1.3,1.23-1.94.71-1.36,1.5-1.78a.68.68,0,0,1,.92.29.69.69,0,0,1,.08.32,4.82,4.82,0,0,1-.9,2.15c-.37.67-.77,1.32-1.16,2s-.81,1.3-1.24,1.94a5.21,5.21,0,0,1-1.5,1.78.66.66,0,0,1-1-.61Z"/><circle class="cls-6" cx="58.31" cy="66.98" r="6.61" transform="matrix(0, -1, 1, 0, -8.92, 124.99)"/><polygon class="cls-7" points="37.53 20.87 37.53 30.04 28.51 30.04 37.53 20.87"/></g></svg>