<svg xmlns="http://www.w3.org/2000/svg" viewBox="0 0 100 100"><defs><style>.cls-1{fill:#fff;}.cls-2{fill:#457371;}.cls-2,.cls-3,.cls-4,.cls-8{stroke:#2e434b;stroke-linecap:round;}.cls-2,.cls-3,.cls-8{stroke-linejoin:round;}.cls-2,.cls-3,.cls-4{stroke-width:2.3px;}.cls-3{fill:#5c6e86;}.cls-4{fill:#2e434b;stroke-miterlimit:10;}.cls-5{fill:#7389a6;}.cls-6{fill:#c1ab74;}.cls-7{fill:#dbe6f5;}.cls-8{fill:none;stroke-width:2.88px;}</style></defs><title>project-thumbs</title><g id="Layer_3" data-name="Layer 3"><path class="cls-1" d="M87.85,33.65C86.48,32,82.5,26.91,77.12,24L59.91,15.25c-4.36-2.12-9.5-3.23-14.15-4.17-12.95-2.6-27.2,4-35.37,16.49C1.68,40.87,1.91,57.78,11,68.69c1.37,1.65,5.49,6.74,11.2,10l17.21,8.78c3.57,1.77,13.79,4.31,19.28,4.31,11.47,0,22.88-6.52,29.76-17C97.13,61.48,96.9,44.57,87.85,33.65Z"/></g><g id="Layer_1" data-name="Layer 1"><path class="cls-2" d="M42.52,81.33,25.3,72.55A3.26,3.26,0,0,1,24,67.83L51.76,23.46A4,4,0,0,1,56.9,22l17.21,8.78a3.26,3.26,0,0,1,1.3,4.72L47.66,79.9A4,4,0,0,1,42.52,81.33Z"/><path class="cls-3" d="M42.39,80.71,25.17,71.93a3.26,3.26,0,0,1-1.3-4.72L51.63,22.83a4,4,0,0,1,5.15-1.43L74,30.18a3.26,3.26,0,0,1,1.3,4.72L47.53,79.27A4,4,0,0,1,42.39,80.71Z"/><polygon class="cls-4" points="49.55 76.05 26.1 64.09 49.82 26.16 73.27 38.12 49.55 76.05"/><path class="cls-5" d="M37.19,73.91a1.86,1.86,0,0,1-2.39.64,1.51,1.51,0,0,1-.63-2.18,1.86,1.86,0,0,1,2.39-.64A1.51,1.51,0,0,1,37.19,73.91Z"/><line class="cls-6" x1="61.88" y1="28.14" x2="65.04" y2="29.75"/><path class="cls-5" d="M64.58,30.49l-3.16-1.61a.79.79,0,0,1-.33-1.14,1,1,0,0,1,1.25-.33L65.5,29a.79.79,0,0,1,.33,1.14A1,1,0,0,1,64.58,30.49Z"/><path class="cls-7" d="M58.67,36.84h0a5.19,5.19,0,0,1,1.23,8.56l-9.82,9.33c-1.71,1.63-4.6.16-3.94-2l3.78-12.41A6.26,6.26,0,0,1,58.67,36.84Z"/><path class="cls-7" d="M46.89,64a4.86,4.86,0,0,1-6.24,1.66A3.94,3.94,0,0,1,39,60a4.86,4.86,0,0,1,6.24-1.66A3.94,3.94,0,0,1,46.89,64Z"/><path class="cls-8" d="M16.5,64.11c-6.9-8.32-7.25-21.68-.1-32.59S36,15.6,46.33,18.61"/><path class="cls-8" d="M21,57.26c-3.86-6-3.69-14.78,1.07-22s12.7-10.89,19.78-9.76"/><path class="cls-8" d="M25.75,50A13.94,13.94,0,0,1,37.08,32.72"/><path class="cls-8" d="M52.48,83.73c10.38,3,22.77-2,29.93-12.91s6.8-24.27-.1-32.59"/><path class="cls-8" d="M57,76.88c7.08,1.13,15-2.51,19.78-9.76s4.93-16,1.07-22"/><path class="cls-8" d="M61.73,69.63A13.94,13.94,0,0,0,73.06,52.34"/></g></svg>