<svg id="Layer_1" data-name="Layer 1" xmlns="http://www.w3.org/2000/svg" viewBox="0 0 100 100"><defs><style>.cls-1{fill:#fff;}.cls-2{fill:#008da9;}.cls-3{fill:#00aeef;}.cls-4{fill:#0099b8;}.cls-5{fill:#00667f;}.cls-6{fill:#231f20;}</style></defs><title>icon</title><path class="cls-1" d="M92.06,46.3,76.83,19.93a5.75,5.75,0,0,0-5-2.87h-30c-13.76,0-24.14,8.8-24.14,20.47C17.68,47,24,54.11,35.58,57.62,39.17,58.71,41,59.8,41,60.85c0,1.25,0,2.67-4.56,2.82H26.36l-.52,0H12.78A5.75,5.75,0,0,0,7,69.44v6.13a5.75,5.75,0,0,0,5.75,5.75h23l.72,0H71.85a5.75,5.75,0,0,0,5-2.87L92.06,52.05A5.75,5.75,0,0,0,92.06,46.3Z"/><path class="cls-2" d="M69,27.69H44L32.37,47.92a32.63,32.63,0,0,0,4.24,1.61c7.26,2.22,12.46,5.6,12.46,12.51a11.65,11.65,0,0,1-3.83,9.07H69L81.48,49.4Z"/><polygon class="cls-3" points="64.8 34.01 64.8 63.13 39.58 48.57 64.8 34.01"/><polygon class="cls-4" points="64.8 63.13 68.44 69.31 45.07 69.31 64.8 63.13"/><polygon class="cls-4" points="64.8 34.01 45.07 28.83 68.44 28.83 64.8 34.01"/><polygon class="cls-5" points="68.44 69.31 80.13 49.07 64.8 63.13 68.44 69.31"/><polygon class="cls-5" points="64.8 34.01 80.13 49.07 68.44 28.83 64.8 34.01"/><path class="cls-6" d="M87.08,49.18,71.85,22.81h-30c-10.66,0-18.39,6.19-18.39,14.72S30.95,50.2,37.26,52.12c8.34,2.54,9.49,5.7,9.49,8.73,0,3.81-1.81,8.32-10.22,8.57H26.36v0H22.68v6.13H35.8l.62,0H71.85ZM50.25,69.42a14.69,14.69,0,0,0,2.62-8.57c0-9.3-7.89-12.78-13.83-14.59-9.49-2.89-9.49-7.29-9.49-8.73,0-5,5.16-8.6,12.27-8.6h26.5L80,49.18,68.32,69.42Z"/><path class="cls-5" d="M44.45,28.93H41.82c-7.11,0-12.27,3.61-12.27,8.6,0,1.44,0,5.84,9.49,8.73l1.09.34L45,28.93Z"/><rect class="cls-6" x="12.78" y="69.45" width="6.13" height="6.13"/></svg>