<svg xmlns="http://www.w3.org/2000/svg" viewBox="0 0 100 100"><defs><style>.cls-1{fill:#fff;stroke:#fff;stroke-linejoin:round;stroke-width:11.5px;}.cls-2{fill:#2e434b;}.cls-3{fill:#81a1ca;}</style></defs><title>stl-website-07</title><g id="Layer_1" data-name="Layer 1"><path class="cls-1" d="M73.65,15.35c0,.55-.07,1.11-.07,1.66V70.35l-.21.06c-1-1.87-2-3.73-2.92-5.61l-13-25.44c-1.43-2.81-4-3-5.78-.48Q39.44,55.94,27.16,73c-.22.31-.49.58-.74.87V15.35Z"/><path class="cls-1" d="M54.92,87.73,26.42,73.87c.07,0,29.24-29.36,29.31-29.38.82,1.66,1.65,3.31,2.45,5,3.88,8.07,11.52,12.81,15.4,20.88.07,2.5-2.63,5-4.37,6.33C64.53,80.24,59.91,83.87,54.92,87.73Z"/><path class="cls-2" d="M73.65,15.35c0,.55-.07,1.11-.07,1.66V70.35l-.21.06c-1-1.87-2-3.73-2.92-5.61l-13-25.44c-1.43-2.81-4-3-5.78-.48Q39.44,55.94,27.16,73c-.22.31-.49.58-.74.87V15.35Z"/><path class="cls-3" d="M54.92,87.73c.2-14.63.4-28.9.6-43.17l.21-.07c.82,1.66,1.65,3.31,2.45,5Q64,61.58,69.81,73.7c.85,1.76,1.14,1.65-.6,3C64.53,80.24,59.91,83.87,54.92,87.73Z"/></g></svg>