<svg id="Layer_1" data-name="Layer 1" xmlns="http://www.w3.org/2000/svg" viewBox="0 0 600 271.54"><defs><style>.cls-1{fill:#00a99d;}.cls-2{fill:#fbb03b;opacity:0.25;}.cls-3,.cls-4{fill:#fff;}.cls-3{stroke:#00a99d;stroke-linecap:round;stroke-linejoin:round;stroke-width:1.96px;}</style></defs><title>casestudy</title><path class="cls-1" d="M36.22,43c1.26.33,2.56.63,3.79,1.08.62.21,1.25.43,1.87.66l1.82.78a54.28,54.28,0,0,1,7,3.65c1.14.67,2.21,1.45,3.31,2.17s2.11,1.6,3.16,2.39,2,1.71,3,2.57S62.1,58.16,63,59.08A61.53,61.53,0,0,1,72.5,71.81,50.8,50.8,0,0,1,78,86.68a1.06,1.06,0,0,1-2.06.48v0a57,57,0,0,0-5.75-14A61.17,61.17,0,0,0,61,61.06c-1.77-1.82-3.64-3.54-5.57-5.2s-4-3.18-6.06-4.64A74.17,74.17,0,0,0,36,43.77h0a.4.4,0,0,1,.26-.75Z"/><path class="cls-1" d="M42.45,46.12a6.48,6.48,0,0,1-1.24-1.35,5.61,5.61,0,0,1-.69-1.49c-.4-1.06-.89-2.13-1.41-3.25h0a.19.19,0,0,1,.26-.24,10.58,10.58,0,0,1,2.9,2.46,3.92,3.92,0,0,1,.94,1.69A3.32,3.32,0,0,1,43.07,46a.39.39,0,0,1-.51.2l-.09-.05Z"/><path class="cls-1" d="M47,48.51A24.54,24.54,0,0,1,46,46a17.54,17.54,0,0,1-.68-2.5,48.25,48.25,0,0,0-1.71-5.18h0a.19.19,0,0,1,.32-.21,18.3,18.3,0,0,1,3.4,4.63,7.29,7.29,0,0,1,.92,2.8,5.42,5.42,0,0,1-.54,3,.37.37,0,0,1-.65,0Z"/><path class="cls-1" d="M51.87,51.68a24.15,24.15,0,0,1-1.18-3.63,23.18,23.18,0,0,1-.58-3.69c-.12-1.26-.33-2.5-.48-3.77l-.51-3.81a.22.22,0,0,1,.19-.25.22.22,0,0,1,.22.11,36.69,36.69,0,0,1,1.64,3.54c.5,1.2.91,2.43,1.32,3.67a13.05,13.05,0,0,1,.77,3.85,9.47,9.47,0,0,1-.63,4,.41.41,0,0,1-.76,0Z"/><path class="cls-1" d="M55.32,54.21a35,35,0,0,1-.5-4.29,34.07,34.07,0,0,1,0-4.23c0-1.43,0-2.86,0-4.3s-.09-2.9-.15-4.35a.22.22,0,0,1,.2-.23.23.23,0,0,1,.22.14,36.82,36.82,0,0,1,1.31,4.23c.38,1.43.63,2.89.88,4.35A15.81,15.81,0,0,1,57.41,50a11.46,11.46,0,0,1-1.34,4.36.4.4,0,0,1-.75-.12Z"/><path class="cls-1" d="M58.85,57.21a48.33,48.33,0,0,1,.07-5.08,49.72,49.72,0,0,1,.51-5c.22-1.67.34-3.35.49-5s.24-3.39.34-5.1a.22.22,0,0,1,.23-.21.22.22,0,0,1,.21.17,47.38,47.38,0,0,1,.82,5.11c.21,1.72.28,3.45.35,5.18a21.23,21.23,0,0,1-.38,5.21,15.36,15.36,0,0,1-1.91,4.94.4.4,0,0,1-.73-.19Z"/><path class="cls-1" d="M61.62,59.79l1-5.34c.28-1.76.7-3.5,1.06-5.28s.59-3.59.83-5.42.4-3.67.53-5.52h0a.22.22,0,0,1,.43,0,43.83,43.83,0,0,1,.63,5.6,51.37,51.37,0,0,1,0,5.67,20.44,20.44,0,0,1-1,5.64,13.93,13.93,0,0,1-2.87,5,.39.39,0,0,1-.67-.34Z"/><path class="cls-1" d="M64.39,62.75c.66-1.87,1.23-3.64,1.78-5.44s1.16-3.6,1.75-5.43,1.06-3.71,1.54-5.59.89-3.8,1.29-5.72a.22.22,0,0,1,.25-.18.22.22,0,0,1,.18.21A51.74,51.74,0,0,1,71,46.53a57.5,57.5,0,0,1-.75,5.92,21.87,21.87,0,0,1-1.69,5.79,14.1,14.1,0,0,1-3.59,5,.39.39,0,0,1-.62-.43Z"/><path class="cls-1" d="M67.41,66.52l2.24-5.47c.68-1.82,1.5-3.59,2.25-5.41s1.38-3.7,2-5.59,1.19-3.81,1.72-5.75h0a.22.22,0,0,1,.43.06,49.13,49.13,0,0,1-.6,6.06,58.81,58.81,0,0,1-1.26,6A23.81,23.81,0,0,1,72,62.18,16.28,16.28,0,0,1,68,67a.39.39,0,0,1-.6-.46Z"/><path class="cls-1" d="M69.83,70.06l2.73-5.42c.82-1.82,1.79-3.55,2.66-5.38s1.61-3.71,2.34-5.62,1.35-3.86,1.93-5.84h0a.22.22,0,0,1,.43.07,43.71,43.71,0,0,1-.82,6.2,53.43,53.43,0,0,1-1.61,6.09,23.65,23.65,0,0,1-2.67,5.76,17.11,17.11,0,0,1-4.41,4.64.39.39,0,0,1-.57-.5Z"/><path class="cls-1" d="M72.17,74.15c.9-1.76,1.78-3.39,2.66-5s1.83-3.28,2.78-4.93,1.8-3.37,2.67-5.08,1.68-3.47,2.48-5.23a.22.22,0,0,1,.29-.11.22.22,0,0,1,.13.24,53.26,53.26,0,0,1-1.42,5.69c-.55,1.88-1.23,3.72-2,5.55A23.37,23.37,0,0,1,77,70.47a15.79,15.79,0,0,1-4.31,4.2.39.39,0,0,1-.56-.51Z"/><path class="cls-1" d="M74.24,78.56c.87-1.46,1.71-2.81,2.6-4.17s1.86-2.64,2.84-4,1.91-2.68,2.87-4l2.8-4.14a.22.22,0,0,1,.3-.06.22.22,0,0,1,.09.25,50.21,50.21,0,0,1-1.8,4.73c-.65,1.56-1.42,3.06-2.21,4.57A18.93,18.93,0,0,1,78.89,76a12.45,12.45,0,0,1-4.16,3.16.4.4,0,0,1-.5-.57Z"/><path class="cls-1" d="M41.64,45.94a2.73,2.73,0,0,1-1.37,1,2.92,2.92,0,0,1-1.53.07,11.41,11.41,0,0,1-3-.81.19.19,0,0,1-.1-.26.19.19,0,0,1,.11-.1h0c1-.35,1.92-.6,2.84-.86A3.15,3.15,0,0,1,40,44.83a3.87,3.87,0,0,1,1.48.5h0a.42.42,0,0,1,.16.58Z"/><path class="cls-1" d="M45.72,47.8a5.55,5.55,0,0,1-2.48,1.55,8.14,8.14,0,0,1-2.75.37A28.58,28.58,0,0,1,35,49.28a.18.18,0,0,1-.15-.21.19.19,0,0,1,.14-.15c1.77-.44,3.53-.8,5.25-1.21a14.21,14.21,0,0,1,2.56-.48,19.32,19.32,0,0,1,2.66,0h0a.35.35,0,0,1,.24.57Z"/><path class="cls-1" d="M50.69,50.88a11.09,11.09,0,0,1-3.81,1.46,16,16,0,0,1-4,.28c-1.33,0-2.65-.07-4-.19S36.31,52.19,35,52a.19.19,0,0,1-.16-.22.19.19,0,0,1,.16-.16c1.3-.2,2.6-.38,3.9-.55s2.59-.33,3.87-.54a27.45,27.45,0,0,1,3.84-.41,28,28,0,0,1,3.92.15h0a.35.35,0,0,1,.15.65Z"/><path class="cls-1" d="M54.92,54a13,13,0,0,1-4.77,1.81,20.22,20.22,0,0,1-5,.31c-1.66-.06-3.3-.12-4.95-.29s-3.28-.34-4.91-.62a.22.22,0,0,1,0-.43l4.88-.54c1.62-.19,3.24-.33,4.84-.55a42.05,42.05,0,0,1,4.79-.45c1.6,0,3.18,0,4.85,0h0a.4.4,0,0,1,.21.73Z"/><path class="cls-1" d="M58.52,57a19.34,19.34,0,0,1-5.36,1.82,25.28,25.28,0,0,1-5.58.41c-1.86,0-3.72-.08-5.57-.25s-3.7-.36-5.53-.69A.22.22,0,0,1,36.3,58a.22.22,0,0,1,.2-.18c1.84-.15,3.67-.3,5.49-.47s3.64-.35,5.44-.59,3.59-.52,5.4-.56a43.32,43.32,0,0,1,5.51,0h0a.4.4,0,0,1,.15.74Z"/><path class="cls-1" d="M61.23,59.42a13.34,13.34,0,0,1-5.72,2.35,25.42,25.42,0,0,1-6,.42c-2-.06-4-.13-6-.33s-4-.42-5.93-.76a.22.22,0,0,1-.18-.25.22.22,0,0,1,.2-.18l5.91-.4c2-.16,3.92-.29,5.86-.51s3.86-.48,5.78-.55S59,59,60.91,58.73h0a.39.39,0,0,1,.3.69Z"/><path class="cls-1" d="M64.28,62.71a19,19,0,0,1-6,2.29,27.74,27.74,0,0,1-6.32.54c-2.11,0-4.21-.1-6.3-.31a61.19,61.19,0,0,1-6.22-.86.22.22,0,0,1-.17-.26.22.22,0,0,1,.21-.18q3.11-.11,6.21-.3c2.06-.16,4.11-.28,6.15-.53s4-.54,6.06-.67,4-.35,6.14-.45h0a.39.39,0,0,1,.23.72Z"/><path class="cls-1" d="M67,66.09a24.38,24.38,0,0,1-5.88,2,29.11,29.11,0,0,1-6.13.59c-2.06,0-4.11,0-6.16-.18a44.4,44.4,0,0,1-6.1-.84.22.22,0,0,1,0-.43h0c2,0,4-.16,6-.32s4-.36,6-.65,3.95-.6,5.95-.73a47.29,47.29,0,0,1,6.09-.14h0a.39.39,0,0,1,.15.74Z"/><path class="cls-1" d="M69.49,69.56a21.75,21.75,0,0,1-6.28,2,31.24,31.24,0,0,1-6.53.35c-2.18-.09-4.34-.21-6.5-.47s-4.29-.55-6.42-1a.22.22,0,0,1-.17-.26.22.22,0,0,1,.22-.17q3.22,0,6.43-.15c2.13-.1,4.26-.19,6.37-.38s4.2-.44,6.31-.5,4.19-.22,6.38-.2h0a.39.39,0,0,1,.18.74Z"/><path class="cls-1" d="M71.77,73.38a22.87,22.87,0,0,1-6.14,1.7,27.68,27.68,0,0,1-6.33.16c-2.11-.15-4.2-.33-6.28-.68a48.09,48.09,0,0,1-6.15-1.35.22.22,0,0,1,.08-.43h0c2.07.12,4.14.18,6.2.18s4.11,0,6.16-.17,4.07-.31,6.11-.31,4.08-.06,6.21.14h0a.39.39,0,0,1,.12.75Z"/><path class="cls-1" d="M73.79,77.41A19.81,19.81,0,0,1,67.32,79a29.46,29.46,0,0,1-6.57-.26c-2.17-.3-4.32-.64-6.44-1.12A64.57,64.57,0,0,1,48,75.94a.22.22,0,0,1-.14-.27.22.22,0,0,1,.23-.15q3.22.31,6.43.51c2.14.11,4.27.26,6.4.26s4.23,0,6.33.09,4.19.14,6.37.27h0a.39.39,0,0,1,.14.75Z"/><path class="cls-1" d="M75.22,81.11a22.71,22.71,0,0,1-5.77,1.1A27.67,27.67,0,0,1,63.62,82c-1.93-.24-3.86-.51-5.76-.9a49.73,49.73,0,0,1-5.65-1.42.22.22,0,0,1,.08-.43h0c1.91.13,3.83.21,5.74.26s3.81.1,5.71.05,3.79-.09,5.68.07a40,40,0,0,1,5.73.74h0a.39.39,0,0,1,0,.76Z"/><path class="cls-2" d="M85.88,63.87h0a.75.75,0,0,0-1,.21l-2.8,4.13-.81,1.16c-.66,1-1.34,1.93-2.05,2.86l-.56.75c-.79,1-1.6,2.12-2.3,3.24-.41.64-.82,1.28-1.22,1.93-.27-.6-.55-1.21-.86-1.85a18.12,18.12,0,0,0,3.16-3.38,24,24,0,0,0,2.84-5.37c.85-2.12,1.48-3.9,2-5.6a53.35,53.35,0,0,0,1.43-5.76.75.75,0,0,0-1-.82.74.74,0,0,0-.41.39c-.81,1.78-1.64,3.53-2.47,5.21L79.22,62c-.67,1.33-1.37,2.7-2.12,4l-.75,1.29c-.69,1.19-1.41,2.42-2,3.65l-1.42,2.68c-.27-.48-.56-1-.85-1.42L72,72.07a18.89,18.89,0,0,0,3.24-3.74,24.65,24.65,0,0,0,2.73-5.9,52.8,52.8,0,0,0,1.62-6.15A43.59,43.59,0,0,0,80.38,50a.75.75,0,0,0-1.46-.24c-.55,1.88-1.19,3.83-1.92,5.8-.65,1.72-1.42,3.7-2.32,5.58-.38.8-.78,1.59-1.18,2.37-.5,1-1,2-1.47,3l-1.58,3.14c-.28-.42-.58-.84-.9-1.29a18.49,18.49,0,0,0,2.84-3.8,24.39,24.39,0,0,0,2.28-5.9,58.68,58.68,0,0,0,1.27-6,49.13,49.13,0,0,0,.6-6.13.75.75,0,0,0-1.47-.21c-.51,1.88-1.09,3.8-1.71,5.72l-.15.44c-.57,1.7-1.17,3.46-1.86,5.12-.27.65-.54,1.29-.82,1.92-.49,1.14-1,2.32-1.43,3.49L67.85,66c-.41-.52-.83-1.05-1.27-1.59A16.64,16.64,0,0,0,69,60.59a22.48,22.48,0,0,0,1.74-5.93,57.91,57.91,0,0,0,.76-6,51.91,51.91,0,0,0,.14-6,.75.75,0,0,0-1.48-.1c-.38,1.87-.81,3.78-1.28,5.69l-.22.85c-.4,1.56-.81,3.17-1.32,4.71-.2.62-.4,1.24-.61,1.85-.4,1.2-.79,2.4-1.14,3.59-.31,1-.62,2-1,3-.3-.34-.61-.69-.93-1A16.18,16.18,0,0,0,65.6,57.4a21,21,0,0,0,1-5.79,51.19,51.19,0,0,0,0-5.72A43.87,43.87,0,0,0,66,40.23a.74.74,0,0,0-.68-.61.76.76,0,0,0-.8.7c-.13,1.81-.31,3.65-.53,5.48l-.09.71c-.2,1.54-.41,3.14-.73,4.67-.12.6-.25,1.19-.37,1.78-.25,1.15-.5,2.34-.69,3.5L61.58,59l-.79-.75A18.06,18.06,0,0,0,62,54.7a21.88,21.88,0,0,0,.39-5.34c-.07-1.86-.15-3.54-.35-5.22A47.44,47.44,0,0,0,61.16,39a.75.75,0,0,0-.7-.58.72.72,0,0,0-.77.71c-.1,1.7-.21,3.4-.34,5.08l-.11,1.23c-.11,1.25-.22,2.54-.38,3.79l-.14,1.11a35.81,35.81,0,0,0-.37,3.91q-.05.94-.08,1.88l-.82-.67-.28-.21a13.89,13.89,0,0,0,.71-3,16.46,16.46,0,0,0-.19-4.63c-.27-1.57-.52-3-.89-4.39a36.94,36.94,0,0,0-1.33-4.3.75.75,0,0,0-.74-.47.75.75,0,0,0-.7.78c.06,1.45.12,2.9.15,4.33l0,1.23c0,1,0,2,0,3.06l0,.8a26.42,26.42,0,0,0,.05,3.48q0,.49.07,1l0,0-.73-.49a12.12,12.12,0,0,0,.22-2.72,13.85,13.85,0,0,0-.8-4,44.21,44.21,0,0,0-3-7.31.76.76,0,0,0-.77-.38.75.75,0,0,0-.63.84c.13,1,.27,2.09.41,3.13.2,1.49.4,3,.57,4.45l0,.3a22.09,22.09,0,0,0,.56,3.46l0,.07-1.52-.86a7,7,0,0,0,.11-1.88,7.92,7.92,0,0,0-1-3,18.94,18.94,0,0,0-3.5-4.76.72.72,0,0,0-1.17.79,46.78,46.78,0,0,1,1.69,5.12l.15.63c.11.47.22.95.37,1.41-.52-.24-1-.45-1.45-.65l0,0A4,4,0,0,0,42.66,44a10.86,10.86,0,0,0-3.09-2.56.73.73,0,0,0-.64,0,.73.73,0,0,0-.35,1c.5,1.12,1,2.18,1.35,3.23v0c-.94-.33-1.91-.58-2.85-.82l-.79-.2a.93.93,0,0,0-.58,1.75c.45.19.9.39,1.35.6-.5.15-1,.32-1.54.52a.73.73,0,0,0,0,1.35,11.2,11.2,0,0,0,2.77.84l-.46.11c-1,.23-2,.46-3,.72a.73.73,0,0,0-.53.56.72.72,0,0,0,.57.85,28.2,28.2,0,0,0,5.41.5l-1,.14c-1.45.2-2.91.4-4.37.62a.72.72,0,0,0,0,1.42,57.65,57.65,0,0,0,8,.66c.65,0,1.27,0,1.88,0-.92.12-1.84.22-2.77.32l-1.85.2-4.88.54a.75.75,0,0,0-.53,1.17.74.74,0,0,0,.48.31c1.45.25,3,.45,4.95.63,1.46.15,2.95.21,4.39.27l-1.11.11-7,.62a.75.75,0,0,0-.07,1.48c1.64.3,3.42.52,5.58.7.84.08,1.69.13,2.53.16l-6.92.48a.75.75,0,0,0-.56,1.18.74.74,0,0,0,.48.31c1.77.31,3.67.56,6,.77,1.93.19,3.79.26,6,.33l1,0c-1.21.12-2.43.21-3.62.29l-1.16.09c-2,.13-4.12.23-6.19.3a.76.76,0,0,0-.71.6.75.75,0,0,0,.59.88,61.33,61.33,0,0,0,6.27.87c2.08.2,4.11.27,5.88.3l-2,.19-.69.06c-2.26.19-4.22.29-6,.32a.75.75,0,0,0-.15,1.48,44.26,44.26,0,0,0,6.17.85c1.88.16,3.77.18,5.44.19l-3.05.16-1,0c-2.11.08-4.26.13-6.41.15a.75.75,0,0,0-.15,1.48,65.1,65.1,0,0,0,6.46,1c1.78.21,3.59.33,5.25.41l-2.21,0c-2.13,0-4.21-.06-6.18-.18a.77.77,0,0,0-.76.53.75.75,0,0,0,.5.93,47.88,47.88,0,0,0,6.22,1.36c1.8.3,3.61.48,5.25.61l-2.46-.13-1.17-.06c-2.09-.13-4.25-.31-6.41-.51a.77.77,0,0,0-.79.51.75.75,0,0,0,.48.94,64.3,64.3,0,0,0,6.35,1.68c1.4.31,2.87.59,4.63.85H58c-2.07-.06-3.94-.14-5.73-.26a.78.78,0,0,0-.76.52.75.75,0,0,0,.48.94,49.88,49.88,0,0,0,5.71,1.43c2,.41,4,.68,5.81.91a28.36,28.36,0,0,0,5.92.23,24.64,24.64,0,0,0,4.32-.67c.61,1.69,1.16,3.44,1.64,5.23a1.59,1.59,0,0,0,1.53,1.17l.3,0a1.59,1.59,0,0,0,1.26-1.86,47.61,47.61,0,0,0-2.2-7.7,14.77,14.77,0,0,0,2.94-2.53,19.31,19.31,0,0,0,2.94-4.36c.76-1.44,1.55-3,2.22-4.6a50.48,50.48,0,0,0,1.82-4.78A.76.76,0,0,0,85.88,63.87ZM53.7,57.32l.23.18.33.26-1.48.05h-.35A13,13,0,0,0,53.7,57.32Zm3.45,3,.38.35-1.63.1C56.34,60.6,56.75,60.45,57.16,60.28Zm2.79,2.66L60,63l.52.51.23.24-3,.24-.94.07A14.46,14.46,0,0,0,59.95,62.95Zm3,3.18.66.78c-.95,0-1.9.09-2.92.16h-.2A19.35,19.35,0,0,0,62.92,66.13Zm-1.75,4.55a26.29,26.29,0,0,0,4.42-1.31c.27.36.54.72.8,1.09-1.1,0-2.27.08-3.54.14-.57,0-1.15,0-1.72.08Zm6.9,2.2c.24.37.49.76.75,1.2-.78,0-1.56,0-2.32,0H65.36a13.14,13.14,0,0,0-1.46,0A23.9,23.9,0,0,0,68.07,72.87Zm-2.42,4.84a24.24,24.24,0,0,0,4.66-1.12c.29.52.56,1,.82,1.53L67.23,78c-1-.06-2-.08-2.93-.08C64.75,77.85,65.2,77.79,65.64,77.72Zm7.06,3.79c-.88-.11-1.76-.19-2.73-.27a19.56,19.56,0,0,0,2.35-.62ZM45.82,51.7c-.76,0-1.52.15-2.26.25A7.24,7.24,0,0,0,45,51.21Zm3.73,2.47.82.59h-.58a26.32,26.32,0,0,0-2.85.2A14.71,14.71,0,0,0,49.55,54.17Z"/><path class="cls-3" d="M220.09,216.79c3.94,1.57,6.22.56,8.77,1.88s2.23.55,1.62-.71-.38-4,3.78-4.39c2.22-.2,4.87-4.6,8.92-4.67,1.73,0-4.61-1.33-6.73-2.07s-3.62-1.42-1.94-3.5,3-7,6.71-7c1.37,0-4.72-1.25-4.74-3.49s-1.17-4.37-.34-9.19c.29-1.65-3.16,3.65-6,4.47s-2.3-1.35-2.77-1-1.28,7.33-5.38,8.71c-1.51.51-2.47-8-1.26-11.11s-1.26,1.18-3.43,1.38-2.44-2-2.94-2.47-2.88.16-5.6-3.73c-.86-1.23,1.29,11.72-4.61,7.52-.93-.66,2.75,5.54,2.41,8.07s1.61,4.65-.57,4.72-5.2-2.39-6-3.31-2.76,3.84-8.52.21c-1.12-.71,3.76,5.7,2.44,6.94s4.49,2.92-2.11,6.3c-1.92,1,6.71-1.54,10.07,3.14s-6.27,4.23-7.74,6.68c-.87,1.45,6.1-.74,9.52,1.19S203.67,224,205,224s7.6-5,7.07.29C211.86,226.26,217.75,220.93,220.09,216.79Z"/><path class="cls-4" d="M220.09,216.79s-4.64-12.41-5.38-19.47"/><path class="cls-1" d="M219.18,217.13c-.64-1.59-1.22-3.17-1.75-4.79s-1-3.23-1.48-4.87-.87-3.29-1.18-5a28.76,28.76,0,0,1-.55-5.12.51.51,0,0,1,1-.11h0c.36,1.62.81,3.22,1.25,4.83s.94,3.2,1.42,4.8c1,3.19,2.07,6.38,3.12,9.55h0a1,1,0,0,1-1.84.68Z"/><path class="cls-4" d="M228,201.49c-1.56,4.34-6.19,12.42-7.88,15.31"/><path class="cls-1" d="M228.43,201.65a30.84,30.84,0,0,1-1.44,4.14c-.57,1.34-1.18,2.65-1.82,3.95s-1.31,2.58-2,3.83-1.43,2.51-2.21,3.72a1,1,0,0,1-1.69-1c.67-1.26,1.37-2.51,2.07-3.76l2.11-3.73c.71-1.24,1.41-2.48,2.1-3.73s1.37-2.5,2-3.76h0a.49.49,0,0,1,.91.33Z"/><path class="cls-4" d="M221.57,229.1c.15-4.61-1.06-7.81-1.47-12.31"/><path class="cls-1" d="M220.63,229.07a28.6,28.6,0,0,0-.55-6c-.35-2-.77-4.09-1-6.21a1,1,0,0,1,1.95-.18h0c.18,2,.58,4,.94,6.05a30.07,30.07,0,0,1,.49,6.37.94.94,0,0,1-1.87-.06Z"/><path class="cls-4" d="M205.54,208.13c4.38,4.17,11,7.08,14.55,8.66"/><path class="cls-1" d="M205.91,207.75c1.12.83,2.26,1.62,3.44,2.34s2.39,1.41,3.6,2.09c2.45,1.32,5,2.48,7.54,3.71a1,1,0,0,1-.79,1.79,55.75,55.75,0,0,1-7.73-3.76,35.32,35.32,0,0,1-3.6-2.42,21.93,21.93,0,0,1-3.18-3,.53.53,0,0,1,.72-.77Z"/><path class="cls-2" d="M242.44,208.92c-1.35-.34-2.87-.73-3.67-1-.47-.16-1.9-.66-2-1,0-.07,0-.37.5-1a16.83,16.83,0,0,0,1.46-2.33c1.18-2.13,2.4-4.33,4.5-4.33h0a1,1,0,0,0,1.16-.83c.16-.86-.56-1.13-1.39-1.45-2.92-1.12-3.54-1.81-3.54-2.2a14.35,14.35,0,0,0-.28-2.37,17.14,17.14,0,0,1-.07-6.64,1.15,1.15,0,0,0-.56-1.35c-.81-.41-1.35.16-2.54,1.4s-2.8,2.93-4.15,3.31c-1.12.32-1.22.08-1.32-.18a1.25,1.25,0,0,0-.8-.85,1.09,1.09,0,0,0-1,.2c-.37.28-.48.68-.79,1.74-.52,1.84-1.58,5.57-4,6.68-.7-1.38-1.36-7.22-.4-9.68.34-.87.69-1.77-.07-2.28s-1.34.08-2,.69-1.64,1.57-2.38,1.64-1.14-.36-1.59-1.29a2.93,2.93,0,0,0-.61-.94,2.26,2.26,0,0,0-1.15-.46c-.93-.18-2.47-.49-4.3-3.11a1.06,1.06,0,0,0-1.2-.46c-.81.25-.82.93-.83,2.58,0,1.43-.05,5.23-1.1,5.77-.32.16-.94-.06-1.71-.61a1.07,1.07,0,0,0-1.32,0c-.68.56-.41,1.18.4,3,.68,1.56,2,4.47,1.79,5.71a8.18,8.18,0,0,0,.29,3.06c.06.26.14.6.17.81H208c-1.73.1-4.51-2.15-5.28-3s-1.88-.19-2.44.21c-1.13.8-2.84,2-6.28-.17a1.06,1.06,0,0,0-1.35.08c-.64.61-.3,1.2.6,2.78.56,1,2,3.51,1.93,4.28-1,1-.12,2.11.29,2.65s.65.89.57,1.24-.45,1-2.67,2.17c-.82.42-.87,1-.77,1.33.23.84,1,.8,2,.74,1.94-.1,6.5-.34,8.54,2.5.3.41.62,1,.49,1.38-.27.78-2.3,1.4-3.78,1.85-1.93.59-3.76,1.14-4.5,2.38a1.24,1.24,0,0,0,0,1.33c.49.8,1.47.73,3.44.6s4.83-.32,6.47.61a3.65,3.65,0,0,1,1,.77l-.07.07a1.17,1.17,0,0,0-.36,1.26,1.23,1.23,0,0,0,1.18.7,5.6,5.6,0,0,0,2.46-.9c.83-.42,3-1.53,3.53-1.19.07,0,.24.38.15,1.3a1.28,1.28,0,0,0,.84,1.43,1.07,1.07,0,0,0,.33,0c1.74,0,5.08-3.44,7.2-6.23.19,1.23.42,2.44.63,3.63a28.59,28.59,0,0,1,.55,6,.94.94,0,0,0,1.87.06,30.07,30.07,0,0,0-.49-6.37c-.27-1.55-.57-3.06-.77-4.56a18.75,18.75,0,0,0,3.81.61,8.18,8.18,0,0,1,3.37.73c1.28.67,2.4,1.16,3.12.46s.24-1.63-.17-2.46a1.82,1.82,0,0,1,.08-1.62c.43-.76,1.43-1.23,2.91-1.37,1.22-.11,2.31-1,3.58-2,1.52-1.23,3.24-2.61,5.28-2.65,1,0,1.22-.65,1.25-.92C246.56,210,246.09,209.84,242.44,208.92Z"/><path class="cls-4" d="M47.12,214.29c1.72,5.56,8.66,10.76,12.07,10.71,1.41,0,.22-3.52.82-3.82s2.82,0,4.86-2,8.44-4.56,8.64-5.49-4.45-5-6-5.62-5.87-.83-5.94-2,1.88-1.22,2-3.78-1.53-9-2.42-11.33-2.41-5.38-2.59-7-.43-4.53-1.33-3.85-4.65,6-6.07,6.59-5,3.78-6.84,5.66-3.78,6.51-4.43,7.52-2.23-1.19-4.44-1-5.64.58-7.38.64-4.93-1.71-4.74-.59,3.75,8.7,5.61,10.61,2.87,2.24,2.77,3.19-2,2.17-.73,2.87,5.24,3.29,9,2A27.73,27.73,0,0,0,47.12,214.29Z"/><path class="cls-1" d="M47.45,213.37a6.28,6.28,0,0,1,.6.84,5.07,5.07,0,0,1,.25.48l.1.24.07.13c.18.34.32.7.53,1A14.94,14.94,0,0,0,50.32,218a20.83,20.83,0,0,0,3.4,3.35,14.06,14.06,0,0,0,4,2.31,4.9,4.9,0,0,0,1,.25l.24,0h.11a.58.58,0,0,0-.19.1.31.31,0,0,0-.08.1,2.64,2.64,0,0,0,.06-.77l-.07-1.24a4,4,0,0,1,0-.84l0-.14c0-.07,0-.14.07-.21l.09-.21a1.39,1.39,0,0,1,.26-.31,1.27,1.27,0,0,1,.3-.21l.16-.06a1.92,1.92,0,0,1,.26-.07c.56-.12.9-.14,1.28-.22a5.72,5.72,0,0,0,2-.75,5.51,5.51,0,0,0,.84-.65l.54-.46.55-.41c.74-.51,1.48-.94,2.22-1.36,1.49-.82,3-1.64,4.44-2.3a4,4,0,0,0,.88-.54l0,0,0,0a.22.22,0,0,0,0,.11c-.05.09,0,.21,0,.12a1.82,1.82,0,0,0-.25-.34c-.5-.54-1.16-1-1.73-1.59s-1.22-1.07-1.85-1.56A9.78,9.78,0,0,0,67,209a16.55,16.55,0,0,0-2.27-.52,16.89,16.89,0,0,1-2.61-.64,3.91,3.91,0,0,1-.77-.37,1.76,1.76,0,0,1-.81-1.12,1.94,1.94,0,0,1,0-.22v-.16a1.91,1.91,0,0,1,0-.32,2,2,0,0,1,.22-.6,3.07,3.07,0,0,1,.59-.72,2.64,2.64,0,0,0,1.07-1.53,6.87,6.87,0,0,0,0-2.15c-.1-.79-.23-1.6-.39-2.4-.32-1.61-.71-3.22-1.16-4.8-.23-.79-.47-1.57-.75-2.31s-.62-1.52-.94-2.3-.65-1.56-1-2.37a10.59,10.59,0,0,1-.69-2.66c-.1-.83-.08-1.66-.17-2.42a3.08,3.08,0,0,0-.09-.53c0-.15-.13-.31-.08-.24s.05,0,.12.07a.54.54,0,0,0,.21,0c.09,0,.07,0,.1,0s0,0,0,0a3.71,3.71,0,0,0-.32.4,38.78,38.78,0,0,1-3.05,4A17.8,17.8,0,0,1,52.38,187a3.84,3.84,0,0,1-.73.49l-.28.14-.21.12a10,10,0,0,0-.95.64,44.18,44.18,0,0,0-3.72,3.19c-.58.55-1.22,1.17-1.69,1.71a14.16,14.16,0,0,0-1.31,1.93c-.83,1.39-1.55,2.87-2.33,4.39-.1.19-.2.38-.33.6l-.1.17a2.38,2.38,0,0,1-.24.29,1.48,1.48,0,0,1-.8.42,2,2,0,0,1-1.18-.17c-.27-.11-.45-.22-.65-.31a4.94,4.94,0,0,0-1.95-.72,2.87,2.87,0,0,0-.45,0l-.63.05-1.26.1-2.53.21-2.53.21a4.41,4.41,0,0,1-1.45-.08,8.71,8.71,0,0,1-1.3-.41l-1.17-.46a5.19,5.19,0,0,0-.55-.18l-.23-.05-.1,0h0a.43.43,0,0,0,.29-.29c.06-.12,0-.2,0-.08a4,4,0,0,0,.19.5c.16.37.37.72.56,1.08.87,1.41,1.5,2.94,2.31,4.38.39.73.79,1.44,1.22,2.13a12.11,12.11,0,0,0,1.34,1.86c.56.58,1.14,1.09,1.79,1.65a4.17,4.17,0,0,1,1.08,1.25,2,2,0,0,1,.17,1.2,2.58,2.58,0,0,1-.38.94c-.28.44-.54.77-.68,1s-.07.2-.06.09a.39.39,0,0,0-.06-.23c0-.05-.08-.08,0-.07l0,0,.14.08.28.16.53.3c.35.19.71.38,1.06.55a10.24,10.24,0,0,0,4.37,1.13,6.57,6.57,0,0,0,1.06-.11,9.24,9.24,0,0,0,1.07-.3c.78-.26,1.56-.53,2.31-.83s1.49-.62,2.21-1c.36-.18.71-.37,1.05-.58l.52-.31a4,4,0,0,1,.45-.25A2.07,2.07,0,0,1,47.45,213.37Zm-.67,1.84a.44.44,0,0,0,.41.17c.2-.08,0,0-.09.08l-.55.34c-.37.22-.75.44-1.14.65-.78.41-1.57.77-2.37,1.1s-1.6.62-2.4.9a9.84,9.84,0,0,1-1.34.38,8.57,8.57,0,0,1-1.44.14,12.24,12.24,0,0,1-5.28-1.36c-.4-.19-.79-.4-1.17-.61l-.56-.32-.27-.15-.13-.07-.24-.16a1.8,1.8,0,0,1-.48-.51,1.64,1.64,0,0,1-.23-.83,2.26,2.26,0,0,1,.33-1.09c.28-.48.56-.8.72-1.07a1.09,1.09,0,0,0,.11-.21s0,0,0,0a3,3,0,0,0-.59-.6c-.62-.54-1.29-1.14-1.89-1.77A13.6,13.6,0,0,1,26.6,208c-.45-.74-.87-1.49-1.27-2.24a26.34,26.34,0,0,1-2.09-4.65l-.39-1.24c-.06-.23-.14-.4-.2-.69a1.29,1.29,0,0,1,0-.7,1,1,0,0,1,.78-.63l.29,0h.22a3.45,3.45,0,0,1,.38,0L25,198l1.24.27c.4.08.79.15,1.14.19a3.61,3.61,0,0,0,1,0l2.48-.22,2.48-.22,1.24-.11.62-.06a5.06,5.06,0,0,1,.8,0,6.78,6.78,0,0,1,2.76.93c.18.09.36.19.48.23s.23,0,0,.05l-.15.05c-.06,0-.1.08-.12.08s-.05.07,0,.05l.06-.1.27-.5c.74-1.46,1.48-3,2.36-4.51a16.06,16.06,0,0,1,1.54-2.21c.64-.72,1.22-1.25,1.86-1.85A45.92,45.92,0,0,1,49,186.74a12,12,0,0,1,1.15-.75,3.66,3.66,0,0,1,.34-.18,2.34,2.34,0,0,0,.29-.14,2.2,2.2,0,0,0,.31-.21,16.34,16.34,0,0,0,1.63-1.68A38.79,38.79,0,0,1,56.1,180c.18-.16.31-.3.56-.5a1.17,1.17,0,0,1,.24-.16,1,1,0,0,1,.39-.14,1,1,0,0,1,.52,0,1.07,1.07,0,0,1,.38.23,2.19,2.19,0,0,1,.53.84c.09.24.17.46.24.68a12.91,12.91,0,0,1,.53,2.56A18.63,18.63,0,0,0,61,188c.33.77.66,1.54,1,2.35s.58,1.65.82,2.47c.48,1.64.89,3.29,1.24,5,.17.84.32,1.69.43,2.56a8.64,8.64,0,0,1,0,2.85,4.11,4.11,0,0,1-.68,1.51,6.91,6.91,0,0,1-1,1c-.3.27-.2.3-.22.14s-.12-.21-.06-.17a2,2,0,0,0,.36.17,15.55,15.55,0,0,0,2.27.56,17.3,17.3,0,0,1,2.61.64,11.06,11.06,0,0,1,2.35,1.5c.69.54,1.34,1.1,2,1.69a10.61,10.61,0,0,1,1.7,2.07,4.27,4.27,0,0,1,.39.73,1,1,0,0,1,.09.28,1.85,1.85,0,0,1,0,.44,1.45,1.45,0,0,1-.16.39l-.11.17-.08.08a9,9,0,0,1-1.14.94A40.79,40.79,0,0,1,68.43,218c-.71.41-1.42.82-2.06,1.27l-.46.34-.41.36a7.46,7.46,0,0,1-1.15.88,7.72,7.72,0,0,1-2.67,1c-.44.09-.93.14-1.19.2h0a.8.8,0,0,0,.18-.11.68.68,0,0,0,.15-.19l0-.06a.21.21,0,0,0,0-.06v0a2.66,2.66,0,0,0,0,.42l.08,1.27a3.79,3.79,0,0,1-.25,1.7,1.74,1.74,0,0,1-.46.59,2.43,2.43,0,0,1-.38.23,1.94,1.94,0,0,1-.38.1,1.67,1.67,0,0,1-.51,0l-.39,0a6.86,6.86,0,0,1-1.42-.33A16,16,0,0,1,52.46,223a21.21,21.21,0,0,1-3.72-3.72,17,17,0,0,1-1.48-2.22c-.23-.38-.4-.81-.6-1.21l-.07-.15a.2.2,0,0,1,0-.05.26.26,0,0,1,0-.11A2.66,2.66,0,0,0,46.78,215.21Z"/><path class="cls-4" d="M47.12,214.29s3.19-12.81,5.43-18.17"/><path class="cls-1" d="M46.17,214.06c.79-3.08,1.67-6.12,2.64-9.15A63.61,63.61,0,0,1,52.24,196a.33.33,0,0,1,.62.25h0c-.48,1.49-.88,3-1.3,4.53l-1.2,4.57-2.29,9.17h0a1,1,0,1,1-1.9-.47Z"/><path class="cls-4" d="M59.8,213.13a108.34,108.34,0,0,1-12.68,1.16"/><path class="cls-1" d="M59.88,213.58c-2.1.47-4.22.78-6.35,1s-4.24.48-6.39.65a1,1,0,0,1-.15-2h.09c2.1,0,4.22,0,6.33-.12s4.22-.22,6.3-.51h0a.45.45,0,0,1,.16.89Z"/><path class="cls-4" d="M33.76,206.55c3.47,2.48,10.62,6,13.36,7.74"/><path class="cls-1" d="M34,206.24a76.28,76.28,0,0,0,6.73,3.69l3.46,1.72c1.16.58,2.31,1.15,3.47,1.81a1,1,0,1,1-1,1.71l-.06,0h0c-1-.69-2.14-1.35-3.23-2l-3.32-2a77.19,77.19,0,0,1-6.51-4.26.38.38,0,0,1,.43-.62Z"/><path class="cls-1" d="M47.75,216c-.09.67-.14,1.43-.16,2.15a20.68,20.68,0,0,0,.07,2.17,13.07,13.07,0,0,0,.33,2.11c.16.69.37,1.34.48,2.06l0,.09a1,1,0,0,1-1.79.72,6.41,6.41,0,0,1-1-2.34,15.41,15.41,0,0,1-.34-2.48A16.38,16.38,0,0,1,45.4,218a14.51,14.51,0,0,1,.44-2.46,1,1,0,0,1,1.91.38Z"/><path class="cls-2" d="M72.26,215.39a1,1,0,0,0-.09-.28,4.26,4.26,0,0,0-.39-.73,10.61,10.61,0,0,0-1.7-2.07c-.64-.59-1.29-1.15-2-1.69a11.07,11.07,0,0,0-2.35-1.5,17.29,17.29,0,0,0-2.61-.64,15.57,15.57,0,0,1-2.27-.56l-.16-.07.07-.07a6.92,6.92,0,0,0,1-1,4.11,4.11,0,0,0,.68-1.51,8.65,8.65,0,0,0,0-2.85c-.11-.87-.26-1.72-.43-2.56-.34-1.68-.76-3.32-1.24-5-.24-.82-.5-1.64-.82-2.47s-.65-1.58-1-2.35a18.64,18.64,0,0,1-1.53-4.47A12.91,12.91,0,0,0,57,183c-.07-.22-.15-.44-.24-.68a2.19,2.19,0,0,0-.53-.84,1.07,1.07,0,0,0-.38-.23,1,1,0,0,0-.52,0,1,1,0,0,0-.39.14,1.17,1.17,0,0,0-.24.16c-.25.19-.38.34-.56.5a38.75,38.75,0,0,0-3.36,3.76,16.32,16.32,0,0,1-1.63,1.68,2.25,2.25,0,0,1-.31.22,2.4,2.4,0,0,1-.29.14,3.65,3.65,0,0,0-.34.18,11.93,11.93,0,0,0-1.15.75,45.91,45.91,0,0,0-3.93,3.32c-.63.6-1.22,1.14-1.86,1.85a16.06,16.06,0,0,0-1.54,2.21c-.88,1.49-1.62,3-2.36,4.51l-.17.32-.37-.18a6.79,6.79,0,0,0-2.76-.93,5,5,0,0,0-.8,0l-.62.06-1.24.11-2.48.22-2.48.22a3.62,3.62,0,0,1-1,0c-.35,0-.75-.12-1.14-.19L23,200l-.67-.13a3.44,3.44,0,0,0-.38,0h-.21l-.29,0a1,1,0,0,0-.78.63,1.29,1.29,0,0,0,0,.7c.06.3.14.46.2.69l.39,1.24a26.33,26.33,0,0,0,2.09,4.65c.4.75.82,1.5,1.27,2.24a13.6,13.6,0,0,0,1.59,2.21c.6.63,1.28,1.23,1.89,1.77a3,3,0,0,1,.59.6s0,0,0,0a1.09,1.09,0,0,1-.11.21c-.16.27-.44.59-.72,1.07a2.26,2.26,0,0,0-.33,1.09,1.64,1.64,0,0,0,.23.83,1.81,1.81,0,0,0,.48.51l.24.16.13.07.27.15.56.32c.38.21.77.42,1.17.61A12.24,12.24,0,0,0,35.86,221a8.59,8.59,0,0,0,1.44-.14,9.82,9.82,0,0,0,1.34-.38c.8-.28,1.6-.58,2.4-.9s1.59-.69,2.37-1.1l.27-.15A15.16,15.16,0,0,0,43.4,220a16.38,16.38,0,0,0-.05,2.47,15.42,15.42,0,0,0,.34,2.48,6.41,6.41,0,0,0,1,2.34,1,1,0,0,0,1.79-.72l0-.09c-.12-.72-.33-1.37-.48-2.06a13.07,13.07,0,0,1-.33-2.11,20.67,20.67,0,0,1-.07-2.17c0-.18,0-.36,0-.54a16.58,16.58,0,0,0,1.13,1.65A21.19,21.19,0,0,0,50.46,225a16,16,0,0,0,4.66,2.63,6.91,6.91,0,0,0,1.42.33l.39,0a1.66,1.66,0,0,0,.51,0,1.9,1.9,0,0,0,.38-.1,2.41,2.41,0,0,0,.38-.23,1.74,1.74,0,0,0,.46-.59,3.79,3.79,0,0,0,.25-1.7l-.08-1.27V224c.26,0,.56-.08.85-.14a7.72,7.72,0,0,0,2.67-1A7.51,7.51,0,0,0,63.5,222l.41-.36.46-.34c.64-.45,1.34-.86,2.06-1.27a40.82,40.82,0,0,0,4.35-2.57,9.06,9.06,0,0,0,1.14-.94l.08-.08.11-.17a1.44,1.44,0,0,0,.16-.39A1.85,1.85,0,0,0,72.26,215.39ZM37,201.21v0Z"/><path class="cls-4" d="M566.38,84.46C572.6,82,574,72.34,570.71,68.38s-1.6-5.11-3.86-7.28-4.53-.24-5-1.84c-.32-1-.89-3.26-2.21-3.78-.57-.23-1.5.7-2.28.74-1,0-4.71-6.79-6.22-4.43s-6.79-1.7-12.07-4.43-13.2-6.22-16.13-5.19-3.3,3.58-1.79,2.45,2.36-1.23,6.41.94,2.07,3.87,3.58,4.43a10.44,10.44,0,0,1,5.38,6.7c1,3.77,1.32,3.39,2.83,5.19s0,2.64,2,4,4.22,3.39,3.48,4.43-4,1.89-2.72,4.53,4.71,3.49,4.71,5.19-2.83,2.17-1.32,4.34,5.94,4.24,11.6,4S566,87.67,566.38,84.46Z"/><path class="cls-1" d="M565.6,83.86c.45-.29,1-.57,1.42-.82.3-.22.62-.42.91-.66s.57-.5.81-.79a10.64,10.64,0,0,0,.71-.91,11.38,11.38,0,0,0,1.73-4.33,11.54,11.54,0,0,0-.07-4.66,8.14,8.14,0,0,0-.33-1.08,8.84,8.84,0,0,0-.49-1c-.33-.52-1-1.27-1.5-2A10.06,10.06,0,0,1,567.56,65a13.36,13.36,0,0,0-.7-2.24,4.2,4.2,0,0,0-1.37-1.41,3.51,3.51,0,0,0-1.94-.37,3.89,3.89,0,0,1-1.74-.24,1.94,1.94,0,0,1-.91-1,3,3,0,0,1-.14-.41l-.09-.3A8.09,8.09,0,0,0,559.8,57a1.48,1.48,0,0,0-.52-.52l0,0a.5.5,0,0,0,.15,0h0a2.92,2.92,0,0,0-.41.19,4.18,4.18,0,0,1-1.59.57,1.52,1.52,0,0,1-.58-.08,1.75,1.75,0,0,1-.34-.17,3,3,0,0,1-.39-.3c-.21-.19-.36-.36-.52-.54-.61-.69-1.12-1.36-1.66-2a10.28,10.28,0,0,0-1.62-1.63c-.26-.21-.52-.23-.38-.22s.1-.06.06,0l-.2.25c-.12.14-.24.27-.36.39a2.84,2.84,0,0,1-1.88.56,3.65,3.65,0,0,1-.81-.1,4.88,4.88,0,0,1-.72-.19,27.49,27.49,0,0,1-4.79-2.34c-1.49-.86-2.95-1.72-4.43-2.5a75.84,75.84,0,0,0-9.21-4.15A22,22,0,0,0,524.85,43a6.11,6.11,0,0,0-1.08,0,3.6,3.6,0,0,0-.95.22,4,4,0,0,0-1.76,1.1,1.11,1.11,0,0,0-.18.29s0,0,0,0,0-.11-.12-.18a.35.35,0,0,0-.23-.09,0,0,0,0,0,0,0,8.07,8.07,0,0,0,.94-.61,3.56,3.56,0,0,1,1.49-.57,5,5,0,0,1,1.54.09,9.94,9.94,0,0,1,2.54,1,16.35,16.35,0,0,1,2.36,1.37,4.79,4.79,0,0,1,1.87,2.54c.13.52.2,1,.22,1s-.06-.06,0,0l.33.14.34.17a11.26,11.26,0,0,1,4,3.93,12.23,12.23,0,0,1,1.18,2.52c.15.46.27.87.38,1.26s.24.79.37,1.17a6.62,6.62,0,0,0,.44,1,4.19,4.19,0,0,0,.63.83c.27.3.59.63.88,1a4.82,4.82,0,0,1,.87,1.35,5.24,5.24,0,0,1,.31,1.52.88.88,0,0,0,.23.61c.27.32,1.23.87,1.89,1.44a11,11,0,0,1,2,2,3.21,3.21,0,0,1,.69,1.74,1.81,1.81,0,0,1-.46,1.26,3.66,3.66,0,0,1-.65.59A9.37,9.37,0,0,0,543,73a1,1,0,0,0-.25.58,1.69,1.69,0,0,0,.19.72A5.56,5.56,0,0,0,544.32,76c.58.51,1.27,1,2,1.55a4.8,4.8,0,0,1,1.11,1.2,2,2,0,0,1,.23.47,1.86,1.86,0,0,1,.13.56,2.39,2.39,0,0,1-.13,1.08,4.06,4.06,0,0,1-.95,1.42,3.68,3.68,0,0,0-.61.75c-.06.15-.06.15,0,.38a2.64,2.64,0,0,0,.51.74,7.32,7.32,0,0,0,1.76,1.34A14.26,14.26,0,0,0,552.87,87a20,20,0,0,0,4.87.23,31.38,31.38,0,0,0,4.92-.51,4.91,4.91,0,0,0,1.94-.8,2,2,0,0,0,.54-.66,2.28,2.28,0,0,0,.17-.42A7.64,7.64,0,0,1,565.6,83.86Zm1.55,1.19c0,.12.1.11,0,.29a4.23,4.23,0,0,1-.3.77,4,4,0,0,1-1.05,1.32,6.77,6.77,0,0,1-2.73,1.21,33,33,0,0,1-5.26.6,18.76,18.76,0,0,1-10.51-2,9.37,9.37,0,0,1-2.28-1.77,4.64,4.64,0,0,1-.91-1.37,2.52,2.52,0,0,1-.21-1,2.35,2.35,0,0,1,.26-1.07,5.27,5.27,0,0,1,1-1.26,2.18,2.18,0,0,0,.5-.67.34.34,0,0,0,0-.34,2.91,2.91,0,0,0-.64-.66c-1.2-1-3-2-3.89-3.9a3.7,3.7,0,0,1-.4-1.74,3.11,3.11,0,0,1,.69-1.76A10.18,10.18,0,0,1,543.59,70a1.84,1.84,0,0,0,.31-.26s0,0,0,0,0,.07,0,.06a1.67,1.67,0,0,0-.3-.58A9.13,9.13,0,0,0,542,67.6c-.31-.25-.63-.49-1-.73a5.82,5.82,0,0,1-1.19-1,2.86,2.86,0,0,1-.51-.85,3.71,3.71,0,0,1-.19-.87,3.4,3.4,0,0,0-.17-1,7.24,7.24,0,0,0-1.36-1.71,6.2,6.2,0,0,1-.9-1.21,8.53,8.53,0,0,1-.57-1.33c-.15-.43-.28-.85-.4-1.28s-.24-.84-.35-1.19a10.23,10.23,0,0,0-1-2.11,9.36,9.36,0,0,0-3.21-3.23c-.18-.1-.26-.13-.49-.23a2,2,0,0,1-1-.81,6,6,0,0,1-.42-1.47,2.83,2.83,0,0,0-1.15-1.49,14.77,14.77,0,0,0-2.07-1.2l-2.16-1.05a2,2,0,0,0-1.91-.13,4.94,4.94,0,0,0-.49.31,2.77,2.77,0,0,1-.75.42,1.94,1.94,0,0,1-.36,0,.94.94,0,0,1-.52-.22.85.85,0,0,1-.26-.46.94.94,0,0,1,0-.35,2.53,2.53,0,0,1,.28-.89,5.2,5.2,0,0,1,2.17-2.08,4.31,4.31,0,0,1,1.51-.46A8,8,0,0,1,525,41a23.77,23.77,0,0,1,5.19,1.31,77.74,77.74,0,0,1,9.48,4.23c1.54.81,3,1.68,4.5,2.52a26.1,26.1,0,0,0,4.4,2.15,2.07,2.07,0,0,0,1.51.09.26.26,0,0,1,.06-.09l0,0,.16-.21a1.91,1.91,0,0,1,1.1-.71,2.15,2.15,0,0,1,1.22.12,3.75,3.75,0,0,1,.78.43,12,12,0,0,1,2,2c.57.67,1.1,1.35,1.63,1.94.13.14.26.28.37.38l.11.09-.06,0a.82.82,0,0,0-.27,0,3.15,3.15,0,0,0,.78-.35,4.6,4.6,0,0,1,.76-.33,1.94,1.94,0,0,1,.68-.09,1.6,1.6,0,0,1,.46.09l.25.11a3.51,3.51,0,0,1,1.32,1.21,9.93,9.93,0,0,1,1.14,2.62l.09.31a.84.84,0,0,0,.07.2c0,.07,0-.07-.09-.06a5,5,0,0,0,.78,0,5.6,5.6,0,0,1,3,.64,6.19,6.19,0,0,1,2.17,2.22,13.54,13.54,0,0,1,.88,2.62,7.91,7.91,0,0,0,1,2c.44.67.93,1.19,1.53,2.1a9.22,9.22,0,0,1,1.05,2.68,13.58,13.58,0,0,1,0,5.52,13.39,13.39,0,0,1-2.09,5.09,12.58,12.58,0,0,1-.88,1.1c-.31.36-.68.66-1,1s-.78.55-1.17.83A4.58,4.58,0,0,1,567.15,85.06Z"/><path class="cls-1" d="M541.33,53a74.44,74.44,0,0,1,7.86,6.5c2.45,2.35,4.86,4.76,7.09,7.34a79.2,79.2,0,0,1,6.32,8.06,35.2,35.2,0,0,1,4.71,9.27,1,1,0,0,1-1.86.61v0a40,40,0,0,0-4.63-8.64c-1.88-2.74-3.91-5.4-6.07-8s-4.36-5.09-6.69-7.52-4.65-4.86-7.11-7.14h0a.31.31,0,0,1,.39-.48Z"/><path class="cls-1" d="M562.29,77.1a7.1,7.1,0,0,0,1.08-2.51,26.06,26.06,0,0,0,.28-2.85,17.23,17.23,0,0,0-.11-3,24,24,0,0,0-.57-3,.17.17,0,0,1,.12-.21.17.17,0,0,1,.18.07,13.51,13.51,0,0,1,1.46,2.87,14.54,14.54,0,0,1,.79,3.2,8.61,8.61,0,0,1-.24,3.36,9.43,9.43,0,0,1-1.35,3.21,1,1,0,0,1-1.65-1.12Z"/><path class="cls-1" d="M561.42,75.75a32.27,32.27,0,0,1-3.35.43,13.61,13.61,0,0,1-3.37,0,17.88,17.88,0,0,1-3.33-.72,10.34,10.34,0,0,1-3-1.56.17.17,0,0,1,.16-.29h0a14.3,14.3,0,0,0,3.1.65,22.71,22.71,0,0,0,3.14,0c1-.09,2.09-.05,3.14-.12a26.42,26.42,0,0,0,3.1-.43h0a1,1,0,1,1,.4,2Z"/><path class="cls-1" d="M555.11,67.9a13.39,13.39,0,0,0,.31-2.26c0-.78-.07-1.54,0-2.31a13.25,13.25,0,0,0-.73-4.66h0a.17.17,0,0,1,.29-.17,8.35,8.35,0,0,1,1.47,2.14,11.17,11.17,0,0,1,.85,2.5,8.12,8.12,0,0,1,.11,2.62,17,17,0,0,1-.33,2.63,1,1,0,0,1-2-.42h0Z"/><path class="cls-2" d="M570,73.33a9.28,9.28,0,0,0-1.06-2.7c-.61-.93-1.09-1.43-1.53-2.1a7.84,7.84,0,0,1-1-2,13.54,13.54,0,0,0-.88-2.63,6.25,6.25,0,0,0-2.2-2.24,5.67,5.67,0,0,0-3-.65,5.22,5.22,0,0,1-.67,0l0-.1-.09-.31a10,10,0,0,0-1.15-2.64A3.57,3.57,0,0,0,557,56.68l-.25-.12a1.66,1.66,0,0,0-.48-.1,2,2,0,0,0-.7.09,4.64,4.64,0,0,0-.77.34,5.67,5.67,0,0,1-.55.27l-.31-.32c-.52-.59-1.06-1.27-1.63-1.94a12,12,0,0,0-2-2,3.81,3.81,0,0,0-.79-.44,2.21,2.21,0,0,0-1.25-.12,2,2,0,0,0-1.13.73l-.16.22,0,0a.19.19,0,0,0-.05.08.84.84,0,0,1-.49.09,1.74,1.74,0,0,1-.45-.06,3.05,3.05,0,0,1-.51-.13,26.08,26.08,0,0,1-4.38-2.15c-1.47-.84-3-1.72-4.51-2.52a77.81,77.81,0,0,0-9.49-4.23,23.79,23.79,0,0,0-5.21-1.31,8,8,0,0,0-1.49,0,4.33,4.33,0,0,0-1.52.47,5.25,5.25,0,0,0-2.18,2.12,2.6,2.6,0,0,0-.28.91,1,1,0,0,0,0,.37.9.9,0,0,0,.27.48,1,1,0,0,0,.54.23,1.94,1.94,0,0,0,.38,0,2.82,2.82,0,0,0,.76-.43,4.89,4.89,0,0,1,.48-.3,2,2,0,0,1,1.87.15l2.15,1.05a14.69,14.69,0,0,1,2.06,1.19,2.77,2.77,0,0,1,1.12,1.45,6,6,0,0,0,.42,1.49,2.05,2.05,0,0,0,1,.84,5.2,5.2,0,0,1,.48.23,9.3,9.3,0,0,1,3.18,3.21,10.18,10.18,0,0,1,1,2.1c.11.35.23.76.35,1.19s.25.85.4,1.28a8.6,8.6,0,0,0,.58,1.34,6.27,6.27,0,0,0,.91,1.23,7.21,7.21,0,0,1,1.35,1.69,3.36,3.36,0,0,1,.16,1,3.78,3.78,0,0,0,.19.89,2.93,2.93,0,0,0,.52.87,5.9,5.9,0,0,0,1.2,1c.33.23.65.47,1,.72a9.06,9.06,0,0,1,1.6,1.6,1.93,1.93,0,0,1,.26.46l-.23.19a10.22,10.22,0,0,0-2.2,1.79,3.18,3.18,0,0,0-.71,1.79,3.76,3.76,0,0,0,.4,1.78c1,1.92,2.72,3,3.91,3.93a2.85,2.85,0,0,1,.62.64c.08.15.07.13,0,.29a2.13,2.13,0,0,1-.48.65,5.32,5.32,0,0,0-1,1.27,2.58,2.58,0,0,0-.05,2.15,4.7,4.7,0,0,0,.92,1.39,9.44,9.44,0,0,0,2.3,1.78,18.81,18.81,0,0,0,10.55,2,33,33,0,0,0,5.27-.61,6.83,6.83,0,0,0,2.75-1.23,4,4,0,0,0,1.07-1.34,4.3,4.3,0,0,0,.3-.79c.06-.18,0-.16-.06-.27a4.15,4.15,0,0,0,.86-.3c.39-.27.81-.53,1.18-.83A11.08,11.08,0,0,0,568,84a13.45,13.45,0,0,0,2.1-5.12A13.64,13.64,0,0,0,570,73.33Z"/><path class="cls-3" d="M368,231.14a11.36,11.36,0,0,0,4.69-4.84"/><path class="cls-3" d="M372.74,226.3c.82,4.43,9.55,5,14.09,3.78s10.67-2.51,15.87-13.63c1.81-3.86.9-3.53.9-4.52s1.4-3.35,1.23-4.51-1.31-2.22-1.4-3.78.49-3,.08-4.19-1.31-2.63-1.31-4.1.57-2.46.57-4.1a36.53,36.53,0,0,1,1.15-8.46c-2.22,2.79-2.94,4.42-4.09,5.15a7.79,7.79,0,0,1-3.87,1.25c-2.13.32-2.71,1.15-4.1,1.64s-1.81-.66-3.69,0-2.22,1.4-3.86,2.22-3,0-4.1,1.23-1.64,2.63-3,3.45-3.78,1-4.43,2.79-2.13,2.29-2.79,6.19S364.69,228.1,372.74,226.3Z"/><path class="cls-4" d="M372.74,226.3c6.49-3.62,19.18-21.23,23.89-30.44"/><path class="cls-1" d="M372.17,225.28a18.74,18.74,0,0,0,3.67-2.75c1.16-1.07,2.29-2.21,3.37-3.4,2.14-2.39,4.12-4.95,6-7.54s3.82-5.2,5.66-7.85,3.7-5.3,5.46-8a.29.29,0,0,1,.41-.09.3.3,0,0,1,.12.36,63.33,63.33,0,0,1-4.48,8.73l-1.3,2.08-1.36,2c-.92,1.35-1.86,2.69-2.86,4q-3,3.91-6.22,7.61a38.77,38.77,0,0,1-7.36,6.88,1.17,1.17,0,0,1-1.3-1.94l.09-.06Z"/><path class="cls-4" d="M377.08,222.8c6.19-.23,12.61-3.34,15.51-6"/><path class="cls-1" d="M377,221.8a21.66,21.66,0,0,0,4-.53c1.32-.31,2.61-.76,3.91-1.16a31.15,31.15,0,0,0,3.83-1.5,22.66,22.66,0,0,0,3.59-2.06h0a.29.29,0,0,1,.39.44,21.48,21.48,0,0,1-7.13,4.91,19.89,19.89,0,0,1-4.18,1.29,25.64,25.64,0,0,1-4.36.61,1,1,0,1,1-.09-2h0Z"/><path class="cls-4" d="M381.62,217.48c.1-5.59.1-11.48,1.35-14.59"/><path class="cls-1" d="M380.62,217.46l.09-3.68a28.78,28.78,0,0,1,.16-3.7c.16-1.23.31-2.47.6-3.7a14.29,14.29,0,0,1,1.23-3.59.29.29,0,0,1,.55.21h0a19.42,19.42,0,0,0-.44,3.55c0,1.2-.07,2.41,0,3.62s-.06,2.43-.09,3.65l0,3.67a1,1,0,0,1-2,0Z"/><path class="cls-2" d="M401.81,207.28a5.64,5.64,0,0,0-.71-1.84,4.53,4.53,0,0,1-.67-1.86,9.84,9.84,0,0,1,.11-1.71,5.94,5.94,0,0,0-.09-2.76c-.12-.34-.28-.71-.45-1.09a7.25,7.25,0,0,1-.8-2.68,7.53,7.53,0,0,1,.25-1.73,10.19,10.19,0,0,0,.32-2.38,35.59,35.59,0,0,1,1.11-8.18,1,1,0,0,0-1.7-.88c-.89,1.12-1.54,2.06-2.07,2.81a8.26,8.26,0,0,1-1.79,2.13,6.82,6.82,0,0,1-3.49,1.1,8.15,8.15,0,0,0-3.12,1.12,7.26,7.26,0,0,1-1.17.57,1.33,1.33,0,0,1-1,0,4,4,0,0,0-2.73,0,8.81,8.81,0,0,0-2.53,1.36,9.71,9.71,0,0,1-1.45.9,4,4,0,0,1-1.64.34,3.56,3.56,0,0,0-2.77,1.12,16,16,0,0,0-1,1.33,6.07,6.07,0,0,1-1.79,1.91,8.47,8.47,0,0,1-1.33.56c-1.3.47-2.91,1.06-3.52,2.74a5.8,5.8,0,0,1-.81,1.39,10.58,10.58,0,0,0-2,5c-.08.46-.21,1.1-.37,1.88-1,5.14-3,14.7.26,17.89a3.76,3.76,0,0,0,2,1,8.81,8.81,0,0,1-3.27,2.91,1,1,0,0,0,.41,1.87,1,1,0,0,0,.4-.09,10.82,10.82,0,0,0,4.15-3.69,5.85,5.85,0,0,0,1.62,1.49,15.42,15.42,0,0,0,7.84,1.81,19.73,19.73,0,0,0,5-.61l.49-.13c4.56-1.22,10.8-2.9,16-14,1.42-3,1.34-3.82,1.05-4.67a.72.72,0,0,1-.06-.26,7.89,7.89,0,0,1,.5-1.54A7,7,0,0,0,401.81,207.28Z"/><path class="cls-4" d="M563.38,220.95c3,.28,9.72-4.11,10.61-7.13a12.81,12.81,0,0,1,1.93-4s-2.16.5-4.75.88-7.63,3.81-8.18,6.19A6.18,6.18,0,0,0,563.38,220.95Z"/><path class="cls-1" d="M563.92,220.13a.29.29,0,0,0-.24-.16l.19,0,.44-.07a6.76,6.76,0,0,0,.93-.27,16.23,16.23,0,0,0,1.88-.84,21.57,21.57,0,0,0,3.51-2.32,7.88,7.88,0,0,0,2.46-3,10.17,10.17,0,0,1,2.42-4.05h0l.54.86a18.18,18.18,0,0,1-4.78,1.35,11.85,11.85,0,0,0-4,2,10.71,10.71,0,0,0-3.1,3.05,4.47,4.47,0,0,0-.34,1.87,5.27,5.27,0,0,0,.11,1c0,.17.07.33.12.49l.08.23,0,.11,0,0v0h0l0-.06A.9.9,0,0,0,563.92,220.13Zm-1.07,1.64a1.07,1.07,0,0,1-.31-.33l0-.08,0,0,0-.09-.08-.17-.14-.34A6.27,6.27,0,0,1,562,220a7.32,7.32,0,0,1-.2-1.41,7.84,7.84,0,0,1,.06-1.42,5.87,5.87,0,0,1,.15-.73,4.11,4.11,0,0,1,.31-.77,8.62,8.62,0,0,1,1.74-2.19,14.88,14.88,0,0,1,2-1.63,18.37,18.37,0,0,1,2.26-1.29,9.82,9.82,0,0,1,2.6-.88,34.23,34.23,0,0,1,4.86-.44.6.6,0,0,1,.56.8l0,.06h0a23.88,23.88,0,0,0-1.42,3.94,6.34,6.34,0,0,1-1.27,2.28A14.48,14.48,0,0,1,572,218a19.12,19.12,0,0,1-3.88,2.62,12.9,12.9,0,0,1-2.21.92,8.62,8.62,0,0,1-1.22.3,5.2,5.2,0,0,1-.66.07h-.37A2.21,2.21,0,0,1,562.85,221.76Z"/><path class="cls-4" d="M561.89,220.72c-1.55-2-2.54-2.49-4.53-2.32a10.51,10.51,0,0,0-7.63,3.59,37.23,37.23,0,0,1-4,4.09,75.29,75.29,0,0,0,8.52,1.11,9.17,9.17,0,0,0,6.9-3.1A4.27,4.27,0,0,0,561.89,220.72Z"/><path class="cls-1" d="M561,221.15a1.88,1.88,0,0,1-.26-.28c-.12-.15-.25-.28-.37-.42a4.45,4.45,0,0,0-.76-.65,2.83,2.83,0,0,0-1.77-.39,11.91,11.91,0,0,0-4.4,1,8.4,8.4,0,0,0-1.87,1.17,13.76,13.76,0,0,0-1.62,1.67,20,20,0,0,1-3.79,3.39h0l-.33-1.26c1.65.11,3.29.34,4.93.51a18.6,18.6,0,0,0,4.69.19,8.88,8.88,0,0,0,4-1.77,4.16,4.16,0,0,0,1.25-1.52,3.22,3.22,0,0,0,.24-.92,3.41,3.41,0,0,0,0-.48V221h0A.81.81,0,0,0,561,221.15Zm1.76-.84a1.18,1.18,0,0,1,.07.22v.1l0,.1,0,.2c0,.13,0,.26,0,.38a5.39,5.39,0,0,1,0,.76,5.23,5.23,0,0,1-.36,1.49,5.83,5.83,0,0,1-1.82,2.35,10.46,10.46,0,0,1-5,2.2,11.24,11.24,0,0,1-2.72,0c-.86-.07-1.7-.18-2.53-.3a38.56,38.56,0,0,1-4.93-1,.76.76,0,0,1-.37-1.22l0,0h0l3.24-3.59a15.68,15.68,0,0,1,1.8-1.91,10.43,10.43,0,0,1,2.29-1.5,13.45,13.45,0,0,1,5.21-1.19,4.73,4.73,0,0,1,3,.77,6.41,6.41,0,0,1,1.1,1c.15.17.3.34.44.52A8.14,8.14,0,0,1,562.77,220.3Z"/><path class="cls-4" d="M558.41,213.21c3.43-.39,5.43-2.32,7.19-3.76a12.53,12.53,0,0,0,4.26-6.52A26.19,26.19,0,0,1,572,197.4a15.51,15.51,0,0,1-5.53,1.82c-3.77.59-8.4,5.69-9,7.63S556.86,211.88,558.41,213.21Z"/><path class="cls-1" d="M558.7,212.27c.09-.09.08-.12.22-.14s.41-.08.6-.14a8.42,8.42,0,0,0,1.17-.41,11.93,11.93,0,0,0,2.17-1.27c.7-.51,1.38-1.1,2.1-1.7a14.1,14.1,0,0,0,1.8-1.8,11.75,11.75,0,0,0,1.39-2.12,9.69,9.69,0,0,0,.5-1.15c.14-.41.22-.74.36-1.26a17.93,17.93,0,0,1,2.46-5.16h0l.86.8a11.49,11.49,0,0,1-2.91,1.51,12.93,12.93,0,0,1-1.55.48c-.26.06-.52.13-.79.18s-.54.11-.72.16a11.66,11.66,0,0,0-4.75,2.94,20.84,20.84,0,0,0-2,2.15,10.73,10.73,0,0,0-.8,1.15,3.38,3.38,0,0,0-.43,1.13,9.37,9.37,0,0,0-.2,2.73,4.84,4.84,0,0,0,.26,1.24,3.35,3.35,0,0,0,.25.51l.15.21A.14.14,0,0,0,558.7,212.27Zm-.57,1.87a2.82,2.82,0,0,1-.73-.56l-.32-.41a5.27,5.27,0,0,1-.46-.86,6.81,6.81,0,0,1-.43-1.76,10.1,10.1,0,0,1,.19-3.4,5.63,5.63,0,0,1,.66-1.73,12.71,12.71,0,0,1,1-1.39,18.94,18.94,0,0,1,2.23-2.37,17.75,17.75,0,0,1,2.6-2,9.78,9.78,0,0,1,3.14-1.33c.32-.07.56-.1.79-.13s.48-.08.73-.12l1.44-.31a19.34,19.34,0,0,0,2.76-.9h0a.64.64,0,0,1,.85.8h0a52.36,52.36,0,0,0-1.64,5.08c-.09.38-.22.94-.37,1.41a11.7,11.7,0,0,1-.57,1.4,14.09,14.09,0,0,1-3.66,4.66c-.7.57-1.41,1.19-2.21,1.77a11.67,11.67,0,0,1-2.62,1.46,10.38,10.38,0,0,1-1.45.46c-.25.07-.5.1-.75.15A5.33,5.33,0,0,1,558.12,214.14Z"/><path class="cls-4" d="M557.15,213.21a6.39,6.39,0,0,0-3.32-2.82c-2.06-.55-7.25.66-9.52,2.32s-2.87,4.15-4.75,4.53c2.32.28,4,1.66,6.14,1.38S552,218,554.21,217A6.14,6.14,0,0,0,557.15,213.21Z"/><path class="cls-1" d="M556.18,213.34a.84.84,0,0,0,.06.24l0,.09h0l0,0,0-.06-.08-.11-.17-.23c-.12-.15-.24-.3-.37-.44a5.86,5.86,0,0,0-.82-.76,3.2,3.2,0,0,0-1.84-.71,15.86,15.86,0,0,0-4.8.76,15,15,0,0,0-2.3.88,6.46,6.46,0,0,0-1.86,1.34c-.56.56-1.06,1.22-1.68,1.91a6.8,6.8,0,0,1-1.09,1,3,3,0,0,1-1.53.57h0l0-1.09c1.85-.08,3.53.77,4.88.93a3.46,3.46,0,0,0,1,0l1.23-.16c.82-.11,1.64-.22,2.44-.34a20.5,20.5,0,0,0,4.55-1.11,4.07,4.07,0,0,0,1.52-1.22,5.72,5.72,0,0,0,.57-.89c.08-.16.16-.32.23-.49l.1-.25,0-.12,0-.06v0a1.07,1.07,0,0,0,0,.13A.83.83,0,0,0,556.18,213.34Zm1.94-.26a1.14,1.14,0,0,1,0,.26,1.28,1.28,0,0,1,0,.17v0l0,.09-.05.18-.11.34c-.08.22-.17.44-.27.65a7.79,7.79,0,0,1-.73,1.23,5.73,5.73,0,0,1-2.3,1.91,19.17,19.17,0,0,1-5.12,1.25c-.84.11-1.68.2-2.51.28l-1.25.13a5.44,5.44,0,0,1-1.5-.06,11,11,0,0,1-2.52-.88,20.88,20.88,0,0,0-2.19-.89l-.08,0a.55.55,0,0,1,0-1.07h0c1.16-.56,1.75-2.35,3.12-3.75a8.51,8.51,0,0,1,2.35-1.78,17,17,0,0,1,2.6-1.08,17.79,17.79,0,0,1,2.7-.67,12.67,12.67,0,0,1,2.87-.2,4.86,4.86,0,0,1,1.61.37,5.63,5.63,0,0,1,1.37.83,7.9,7.9,0,0,1,1.08,1.07c.16.19.31.39.45.59l.2.31.1.16,0,.09,0,0h0l.06.11A1.13,1.13,0,0,1,558.12,213.08Z"/><path class="cls-4" d="M553,205.3c2.27-.17,3.81-1.71,5-3.1s4.57-5.86,4.8-7.63a14.07,14.07,0,0,1,1.76-4.86c-1.75.94-4.35.5-6.23,1.77S549.9,198.79,553,205.3Z"/><path class="cls-1" d="M553.49,204.46a.25.25,0,0,0-.17-.17c-.13,0,.06,0,.12,0a4.23,4.23,0,0,0,.5-.14,4.89,4.89,0,0,0,.95-.45,9,9,0,0,0,1.73-1.45,36.53,36.53,0,0,0,3.06-3.85c.48-.67.94-1.36,1.34-2.06a6.58,6.58,0,0,0,.87-2,12.17,12.17,0,0,1,.79-2.61,9.74,9.74,0,0,1,1.37-2.38h0l.84,1a8.06,8.06,0,0,1-2.9,1,10.92,10.92,0,0,0-2.48.67,7.91,7.91,0,0,0-2,1.49,18.35,18.35,0,0,0-1.78,2,12.23,12.23,0,0,0-2.32,4.59,6.3,6.3,0,0,0-.18,1.23,6.05,6.05,0,0,0,0,1.23,8.78,8.78,0,0,0,.21,1.22A1.19,1.19,0,0,1,553.49,204.46Zm-1,1.69a7,7,0,0,1-1-1.89,10.7,10.7,0,0,1-.31-1.55,8.06,8.06,0,0,1,0-1.58,7.92,7.92,0,0,1,.22-1.56,13.52,13.52,0,0,1,2.73-5.4,20.46,20.46,0,0,1,2-2.17,9.61,9.61,0,0,1,2.57-1.82c2.09-.8,4.05-.51,5.53-1l.24-.09a.62.62,0,0,1,.6,1.05h0a18.94,18.94,0,0,0-1.31,4.5,8,8,0,0,1-1.06,2.7c-.44.78-.91,1.51-1.39,2.23a31.74,31.74,0,0,1-3.25,4.12,9.56,9.56,0,0,1-2.2,1.76,6.91,6.91,0,0,1-1.36.59,6.27,6.27,0,0,1-.73.18,3.13,3.13,0,0,1-.51.07A2.6,2.6,0,0,1,552.5,206.15Z"/><path class="cls-4" d="M551.72,205.63a8.78,8.78,0,0,0-7.9-3.54c-3.87.17-8.54,1.31-9.73,2.54a11.34,11.34,0,0,1-4,2.58c1.55.9,4.37,2.84,7.24,3S550.84,210.39,551.72,205.63Z"/><path class="cls-1" d="M550.77,205.86c-.14,0-.06.09-.28-.15s-.32-.32-.47-.48a8.26,8.26,0,0,0-1-.82,7.58,7.58,0,0,0-2.4-1,9.91,9.91,0,0,0-2.69-.23c-1,0-1.91.15-2.87.27a20.66,20.66,0,0,0-5.48,1.41,4.92,4.92,0,0,0-.52.3,1.32,1.32,0,0,0-.19.14s-.18.16-.27.24a8.94,8.94,0,0,1-4.27,2.19h0l.08-1a51.57,51.57,0,0,0,5.36,2.2,9.09,9.09,0,0,0,2.71.33c1,0,1.95,0,2.92-.09a26.35,26.35,0,0,0,5.66-.91,9.11,9.11,0,0,0,2.42-1.09,3.44,3.44,0,0,0,.85-.79,2.32,2.32,0,0,0,.28-.45l.05-.12s0-.1,0-.06S550.7,205.84,550.77,205.86Zm1.9-.46a3.24,3.24,0,0,1-.08.82,1.81,1.81,0,0,1-.09.29l-.09.23a3.86,3.86,0,0,1-.47.84,5.46,5.46,0,0,1-1.29,1.29,9.94,9.94,0,0,1-3,1.43,24.94,24.94,0,0,1-6.17,1c-1,0-2.05.05-3.08,0a11.17,11.17,0,0,1-3.22-.48,15.56,15.56,0,0,1-5.34-3.15.59.59,0,0,1,.07-1h0a22.33,22.33,0,0,0,2.29-1.65,13.18,13.18,0,0,0,1-.92,3.47,3.47,0,0,1,.27-.28,3.16,3.16,0,0,1,.4-.33,6.66,6.66,0,0,1,.77-.47,22.38,22.38,0,0,1,6.06-1.74,25.1,25.1,0,0,1,3.1-.31,12,12,0,0,1,3.27.3,8.89,8.89,0,0,1,3.06,1.38,10.27,10.27,0,0,1,1.28,1.08c.19.2.38.4.56.61A4.66,4.66,0,0,1,552.67,205.41Z"/><path class="cls-4" d="M549,198.67c2.49-.33,6.8-6.25,7.57-10.34a7.52,7.52,0,0,0-1.67-6.52s-4.14,2.95-5.29,5.53C548,190.93,546.64,196.46,549,198.67Z"/><path class="cls-1" d="M549.31,197.74a.35.35,0,0,0-.2-.08H549l.19-.07a2.8,2.8,0,0,0,.42-.23,6.69,6.69,0,0,0,.86-.67,15.87,15.87,0,0,0,1.59-1.73,22,22,0,0,0,2.54-4.08,9.58,9.58,0,0,0,1.1-4.41,7.58,7.58,0,0,0-1.35-4.15l.92.08h0a44.37,44.37,0,0,0-3.38,3.32,9.2,9.2,0,0,0-1.29,1.78,18.6,18.6,0,0,0-.85,2.14,19.51,19.51,0,0,0-1,4.52,8.42,8.42,0,0,0,.08,2.16,3.79,3.79,0,0,0,.3.92,3.32,3.32,0,0,0,.23.39l.13.17A.22.22,0,0,0,549.31,197.74Zm-.59,1.86a2.43,2.43,0,0,1-.65-.5l-.25-.31a5.29,5.29,0,0,1-.41-.66,5.77,5.77,0,0,1-.49-1.4,9.2,9.2,0,0,1-.16-2.73,19.49,19.49,0,0,1,1.14-5,20.18,20.18,0,0,1,1-2.4,10.55,10.55,0,0,1,1.61-2.17,18.86,18.86,0,0,1,4-3.17h0a.64.64,0,0,1,.85,0l.07.06a7.49,7.49,0,0,1,2.28,5.09,11.43,11.43,0,0,1-1.19,5.35,21.42,21.42,0,0,1-2.78,4.51,14.39,14.39,0,0,1-1.86,2,8.63,8.63,0,0,1-1.16.85,4.76,4.76,0,0,1-.7.35,3.28,3.28,0,0,1-.4.14l-.11,0-.25,0A2.06,2.06,0,0,1,548.72,199.6Z"/><path class="cls-4" d="M548,198.12c-2.27-1.49-2.2-2.81-6.14-3.87-4.12-1.11-8.12-1.92-10.5-.77a28.22,28.22,0,0,1-4.31,1.38s2.1,1.82,4.75,3.81,9.78,2.65,12.27,2A8,8,0,0,0,548,198.12Z"/><path class="cls-1" d="M547.05,198.28a.32.32,0,0,0-.06.29l0,0h0l0,0-.16-.12c-.21-.15-.41-.32-.6-.49-.39-.34-.73-.68-1.05-1a6.57,6.57,0,0,0-2.08-1.29,20.44,20.44,0,0,0-2.57-.77q-1.35-.34-2.69-.62a13.62,13.62,0,0,0-5.19-.27,5.09,5.09,0,0,0-.56.16l-.61.25c-.48.19-1,.34-1.42.48a18.1,18.1,0,0,1-2.85.55h0l.29-1.17c1.65,1,3.19,2.24,4.73,3.4a12.2,12.2,0,0,0,5.05,1.75,23.9,23.9,0,0,0,5.58.31,6.33,6.33,0,0,0,1.22-.23,6.59,6.59,0,0,0,1.17-.49,7.38,7.38,0,0,0,1.07-.71c.17-.14.33-.28.49-.43l.23-.22.1-.11,0-.05,0,0h0l-.06.09A.93.93,0,0,0,547.05,198.28ZM549,198a1,1,0,0,1-.15.7l-.08.12,0,0-.07.08-.14.16-.29.3c-.19.2-.4.38-.61.56a9.43,9.43,0,0,1-1.35.94,8.64,8.64,0,0,1-1.53.68,7.49,7.49,0,0,1-1.65.33,24.7,24.7,0,0,1-6.13-.33,22.52,22.52,0,0,1-3-.75,9.52,9.52,0,0,1-2.9-1.47,29.44,29.44,0,0,1-4.43-4l0,0a.72.72,0,0,1,.31-1.15h0l2.59-1c.42-.16.84-.32,1.23-.5l.3-.14.39-.17a7,7,0,0,1,.8-.24,15.35,15.35,0,0,1,6,.17c1,.17,1.89.4,2.82.64a22.28,22.28,0,0,1,2.84.87,8.1,8.1,0,0,1,2.67,1.72c.37.35.68.68,1,1,.16.14.32.29.48.41l.12.1.12.09.17.15A2.64,2.64,0,0,1,549,198Z"/><path class="cls-4" d="M548,196.51c-.22-2.45.5-8.18-3.37-10.72s-8.18-4-9.07-4c2.54,1.66,1.82,4.37,4,7.9S544.44,196,548,196.51Z"/><path class="cls-1" d="M547.35,195.8a.6.6,0,0,0-.31.37.7.7,0,0,0,0,.16v-.09l0-.36,0-.69-.05-1.34a23.27,23.27,0,0,0-.26-2.56,7.1,7.1,0,0,0-2-4.17,15.42,15.42,0,0,0-2.07-1.4c-.75-.45-1.53-.86-2.32-1.25s-1.58-.77-2.38-1.13l-1.19-.53c-.37-.17-.84-.33-1.07-.42h0l.28-1.06a4.44,4.44,0,0,1,2.13,2,13.34,13.34,0,0,1,.94,2.5,13.75,13.75,0,0,0,2.06,4.25,16.48,16.48,0,0,0,3.12,3.54,10.46,10.46,0,0,0,1.9,1.24,8.74,8.74,0,0,0,1,.43l.49.15C547.51,195.39,547.31,195.57,547.35,195.8Zm1.34,1.43a2.79,2.79,0,0,1-1.47.14c-.32-.07-.48-.12-.73-.18a10.68,10.68,0,0,1-1.32-.49,10.83,10.83,0,0,1-2.35-1.46,17.17,17.17,0,0,1-3.54-4,17.35,17.35,0,0,1-1.32-2.34,18.26,18.26,0,0,1-.89-2.52c-.24-.83-.44-1.61-.68-2.28a5.15,5.15,0,0,0-1.13-1.79l-.17-.18a.52.52,0,0,1,.45-.88h0a5.66,5.66,0,0,1,1.58.11,14.16,14.16,0,0,1,1.37.34,20.42,20.42,0,0,1,2.61,1c.84.39,1.67.81,2.49,1.27a16.63,16.63,0,0,1,2.45,1.59,8.83,8.83,0,0,1,2.69,5.38,19,19,0,0,1,.23,2.84v2.43a1.78,1.78,0,0,1,0,.33A1.57,1.57,0,0,1,548.69,197.23Z"/><path class="cls-4" d="M547.26,196.89s18.37,29,23.49,36.56"/><path class="cls-1" d="M548.09,196.36c1.93,3.06,3.83,6.14,5.8,9.18s3.89,6.1,5.88,9.13l5.93,9.09c2,3,4,6,6.24,8.88l0,.05a1.44,1.44,0,1,1-2.28,1.76,1.54,1.54,0,0,1-.13-.21c-1.7-3.22-3.61-6.31-5.5-9.4l-5.81-9.19c-1.93-3.07-3.91-6.1-5.86-9.15s-4-6.06-5.95-9.1a1,1,0,1,1,1.64-1.07h0Z"/><path class="cls-4" d="M563.38,220.95a74.49,74.49,0,0,1,5.34-6.49"/><path class="cls-1" d="M562.57,220.41a40.1,40.1,0,0,1,2.81-3.27c1-1,2-2,3-3a.53.53,0,0,1,.75,0,.54.54,0,0,1,0,.71c-.88,1.08-1.75,2.18-2.58,3.29a38.66,38.66,0,0,0-2.33,3.38h0a1,1,0,0,1-1.69-1Z"/><path class="cls-4" d="M558.41,213.21s2.44-5.48,5-7.66"/><path class="cls-1" d="M557.52,212.81a39.89,39.89,0,0,1,2.4-4,16.77,16.77,0,0,1,3.12-3.61.53.53,0,0,1,.71.78l0,0a15.69,15.69,0,0,0-2.52,3.59,38.36,38.36,0,0,0-1.9,4.06v0a1,1,0,0,1-1.82-.73Z"/><path class="cls-4" d="M561.89,220.72a59.53,59.53,0,0,0-8.55,2.39"/><path class="cls-1" d="M562.09,221.68c-1.44.23-2.9.49-4.33.79a33.35,33.35,0,0,0-4.21,1.12h0a.53.53,0,0,1-.4-1,34.5,34.5,0,0,1,4.24-1.61c1.43-.46,2.86-.87,4.32-1.25a1,1,0,1,1,.5,1.89l-.1,0Z"/><path class="cls-4" d="M557.15,213.21s-5.88,0-9.41,1.25"/><path class="cls-1" d="M557.15,214.18a46.34,46.34,0,0,0-4.67.06,22.27,22.27,0,0,0-4.57.71h0a.53.53,0,0,1-.34-1,23.44,23.44,0,0,1,4.75-1.21,48.13,48.13,0,0,1,4.84-.52,1,1,0,0,1,.11,2h-.11Z"/><path class="cls-4" d="M551.72,206.2s-7.58-.63-11.35,0"/><path class="cls-1" d="M551.64,207.17c-1.85-.22-3.74-.39-5.61-.49a34.92,34.92,0,0,0-5.57,0h0a.53.53,0,0,1-.16-1,35.85,35.85,0,0,1,5.77-.5c1.92,0,3.82,0,5.75,0a1,1,0,1,1-.07,2h-.09Z"/><path class="cls-4" d="M553,205.91s2.38-6.11,5-9.4"/><path class="cls-1" d="M552.09,205.56c.75-1.67,1.56-3.27,2.45-4.85a29.5,29.5,0,0,1,3.05-4.53.53.53,0,0,1,.83.64h0a28.36,28.36,0,0,0-2.54,4.56c-.73,1.59-1.39,3.24-2,4.87v0a1,1,0,1,1-1.85-.65Z"/><path class="cls-4" d="M549,198.67s2.28-7.76,3.43-9.51"/><path class="cls-1" d="M548.08,198.39c.56-1.61,1.14-3.2,1.75-4.79.31-.79.63-1.58,1-2.37a16,16,0,0,1,1.21-2.36.53.53,0,0,1,.9.53l0,0a15.51,15.51,0,0,0-.89,2.24c-.26.79-.5,1.59-.74,2.4-.46,1.61-.9,3.24-1.3,4.86h0a1,1,0,1,1-1.9-.47Z"/><path class="cls-4" d="M548,198.12s-8.8-1-12.44-1.23"/><path class="cls-1" d="M547.91,199.09l-12.35-1.68h0a.53.53,0,0,1,.1-1l12.52.79a1,1,0,0,1-.12,2h-.1Z"/><path class="cls-4" d="M547.26,195.78s-2.8-5.54-4.65-7.66"/><path class="cls-1" d="M546.39,196.22c-.6-1.34-1.25-2.69-1.93-4a27.36,27.36,0,0,0-2.25-3.76v0a.53.53,0,0,1,.81-.67,28.31,28.31,0,0,1,2.75,3.69c.83,1.27,1.61,2.56,2.37,3.88a1,1,0,0,1-1.7,1l0-.09Z"/><path class="cls-2" d="M573.81,210.26a34.21,34.21,0,0,0-4.86.44,9.82,9.82,0,0,0-2.6.88,18.34,18.34,0,0,0-2.26,1.29,14.84,14.84,0,0,0-2,1.63,8.61,8.61,0,0,0-1.74,2.19,4.11,4.11,0,0,0-.31.77,5.9,5.9,0,0,0-.15.73c0,.2,0,.4-.05.6l-2-3.12-.4-.61c.22,0,.43-.08.65-.13a10.41,10.41,0,0,0,1.45-.46,11.67,11.67,0,0,0,2.62-1.46c.79-.58,1.51-1.19,2.21-1.77a14.09,14.09,0,0,0,3.66-4.66,11.72,11.72,0,0,0,.57-1.4c.16-.47.28-1,.37-1.41a52.35,52.35,0,0,1,1.64-5.08h0a.64.64,0,0,0-.85-.8h0a19.34,19.34,0,0,1-2.76.9l-1.44.31c-.24,0-.48.09-.73.12s-.48.06-.79.13a9.78,9.78,0,0,0-3.14,1.33,17.77,17.77,0,0,0-2.6,2A19,19,0,0,0,556,205a12.76,12.76,0,0,0-1,1.39,5.65,5.65,0,0,0-.66,1.73,10.72,10.72,0,0,0-.24,1.9l-1.9-3,.31-.08a6.88,6.88,0,0,0,1.36-.59,9.56,9.56,0,0,0,2.2-1.76,31.7,31.7,0,0,0,3.25-4.12c.49-.72,1-1.45,1.39-2.23a8,8,0,0,0,1.06-2.7,18.93,18.93,0,0,1,1.31-4.5h0a.62.62,0,0,0-.6-1.05l-.24.09c-1.48.52-3.44.23-5.53,1a8.31,8.31,0,0,0-2.2,1.49,11.36,11.36,0,0,0,1.16-5.28,7.49,7.49,0,0,0-2.28-5.09l-.07-.06a.64.64,0,0,0-.85,0h0a18.86,18.86,0,0,0-4,3.17,10.55,10.55,0,0,0-1.61,2.17,17.51,17.51,0,0,0-.84,1.93,7.43,7.43,0,0,0-2-2.94,16.64,16.64,0,0,0-2.45-1.59c-.81-.46-1.64-.87-2.49-1.27a20.41,20.41,0,0,0-2.61-1,14.12,14.12,0,0,0-1.37-.34,5.66,5.66,0,0,0-1.58-.11h0a.52.52,0,0,0-.45.88l.17.18a5.15,5.15,0,0,1,1.13,1.79c.24.68.45,1.46.68,2.28a18.27,18.27,0,0,0,.89,2.52,17.35,17.35,0,0,0,1.32,2.34,18.94,18.94,0,0,0,1.15,1.57c-.72-.18-1.45-.35-2.19-.48a15.36,15.36,0,0,0-6-.17,7,7,0,0,0-.8.24l-.39.17-.3.14c-.38.18-.8.35-1.23.5l-2.59,1h0a.73.73,0,0,0-.24.14.72.72,0,0,0-.07,1l0,0a29.43,29.43,0,0,0,4.43,4,9.52,9.52,0,0,0,2.9,1.47,22.48,22.48,0,0,0,3,.75q.8.13,1.59.22a18.43,18.43,0,0,0-3.88,1.3,6.66,6.66,0,0,0-.77.47,3.16,3.16,0,0,0-.4.33,3.47,3.47,0,0,0-.27.28,13.2,13.2,0,0,1-1,.92,22.24,22.24,0,0,1-2.29,1.65h0a.6.6,0,0,0-.07,1,15.56,15.56,0,0,0,5.34,3.15,11.17,11.17,0,0,0,3.22.48c1,0,2.06,0,3.08,0a26.89,26.89,0,0,0,4.24-.51c-.27.12-.54.23-.8.37a8.51,8.51,0,0,0-2.35,1.78c-1.36,1.4-2,3.19-3.12,3.75h0a.55.55,0,0,0,0,1.07l.08,0a20.82,20.82,0,0,1,2.19.89,11,11,0,0,0,2.52.88,5.43,5.43,0,0,0,1.5.06l1.25-.13c.83-.09,1.66-.17,2.51-.28a27.56,27.56,0,0,0,2.81-.51,10.41,10.41,0,0,0-2,1.33,15.66,15.66,0,0,0-1.8,1.91l-3.24,3.59h0l0,0a.76.76,0,0,0,.37,1.22,38.53,38.53,0,0,0,4.93,1c.84.12,1.67.22,2.53.3a11.24,11.24,0,0,0,2.72,0,10.46,10.46,0,0,0,5-2.2,5.83,5.83,0,0,0,1.82-2.35,5.06,5.06,0,0,0,.22-.7l1.26,2c1.9,3.09,3.8,6.17,5.5,9.4a1.56,1.56,0,0,0,.13.21A1.44,1.44,0,1,0,570,233.7l0-.05c-2.21-2.87-4.22-5.88-6.24-8.88l-1.22-1.87.2,0a8.68,8.68,0,0,0,1.22-.3,12.92,12.92,0,0,0,2.21-.92A19.14,19.14,0,0,0,570,219a14.49,14.49,0,0,0,1.68-1.71,6.34,6.34,0,0,0,1.27-2.28,23.85,23.85,0,0,1,1.42-3.94h0l0-.06a.6.6,0,0,0-.56-.8Zm-24.4-9.69a7.93,7.93,0,0,0-.22,1.56c0,.05,0,.11,0,.16L548,200.4h0a4.73,4.73,0,0,0,.7-.35,8.44,8.44,0,0,0,1.1-.8A10.68,10.68,0,0,0,549.41,200.56Zm-4.32,1.76a11,11,0,0,0-1.31-.22l.48-.24a9.4,9.4,0,0,0,1.35-.94l.3-.27,1.84,2.8A8.73,8.73,0,0,0,545.09,202.33Zm4.86,6.26a3.87,3.87,0,0,0,.47-.84l0-.12,1.81,2.81a5,5,0,0,0-1.18-.23,12.68,12.68,0,0,0-2.87.2l-.69.14a8.5,8.5,0,0,0,1.13-.68A5.46,5.46,0,0,0,549.94,208.59Zm4.93,8.46a7.8,7.8,0,0,0,.73-1.23l0-.09.6.94,1.18,1.87a5.14,5.14,0,0,0-1.66-.18,16.82,16.82,0,0,0-2.69.34A5.84,5.84,0,0,0,554.88,217Z"/><path class="cls-3" d="M368.56,76.92c-7-.89-5.3-10.74-5.3-10.74s1.07,3.17,1.2-.57,3.47-7.68,3.47-7.68.71,2.3,1.67,0a13.08,13.08,0,0,1,4.27-5.14s.33,2,1.67,0a13.25,13.25,0,0,1,4.24-3.5s.68,2.1,2.07.38a8.92,8.92,0,0,1,5.31-3s.76,1.75,1.87.47c1.91-2.22,5.61-2.27,5.61-2.27s-.83,1.24,1.28,1.15c2.32-.11,6.07-.5,7.88-.2a12.64,12.64,0,0,1-1.48,6.2c-1.6,2.54,1,.73,1,.73s-.57,4.41-3,6.75,1.19.83,1.19.83a10.47,10.47,0,0,1-3.79,5.52c-2,1.54,1.27.8,1.27.8a10.39,10.39,0,0,1-4.74,5.21c-2.2,1.27.73,1.34.73,1.34a15.72,15.72,0,0,1-6.88,4.54c-1.8.6,1.07,1.34,1.07,1.34A17.11,17.11,0,0,1,380,81.78c-2,0-1.54,1.2-1.54,1.2S369,83.31,368.56,76.92Z"/><path class="cls-4" d="M397.45,51.72c-4.54,3.61-28.45,22.71-31.79,28.92"/><path class="cls-1" d="M398,52.36c-5.53,4.56-11,9.22-16.34,14-2.67,2.39-5.29,4.82-7.83,7.31-1.27,1.24-2.51,2.51-3.69,3.81-.57.65-1.18,1.3-1.68,2-.25.33-.55.67-.75,1l-.61,1-.14.23a1.58,1.58,0,0,1-2.67-1.69l0,0,.86-1.28c.29-.42.61-.74.91-1.12.6-.75,1.25-1.39,1.89-2.06,1.29-1.32,2.6-2.57,3.94-3.79,2.68-2.44,5.41-4.8,8.18-7.1,5.54-4.61,11.18-9.07,16.89-13.45a.81.81,0,0,1,1,1.27Z"/><path class="cls-2" d="M369.35,79.31c-7-.89-5.3-10.74-5.3-10.74s1.07,3.17,1.2-.57,3.47-7.68,3.47-7.68.71,2.3,1.67,0a13.08,13.08,0,0,1,4.27-5.14s.33,2,1.67,0a13.25,13.25,0,0,1,4.24-3.5s.68,2.1,2.07.38A8.92,8.92,0,0,1,388,49s.76,1.75,1.87.47c1.91-2.22,5.61-2.27,5.61-2.27s-.83,1.24,1.28,1.15c2.32-.11,6.07-.5,7.88-.2a12.64,12.64,0,0,1-1.48,6.2c-1.6,2.54,1,.73,1,.73s-.57,4.41-3,6.75,1.19.83,1.19.83a10.47,10.47,0,0,1-3.79,5.52c-2,1.54,1.27.8,1.27.8a10.39,10.39,0,0,1-4.74,5.21c-2.2,1.27.73,1.34.73,1.34A15.72,15.72,0,0,1,389,80.09c-1.8.6,1.07,1.34,1.07,1.34a17.11,17.11,0,0,1-9.22,2.74c-2,0-1.54,1.2-1.54,1.2S369.75,85.7,369.35,79.31Z"/><path class="cls-3" d="M244,83.85a72.48,72.48,0,0,1-1.6-11.08c-.15-3.05.41-5.62-1.22-7-2.06-1.8-3.57.52-4.41-.37s1-5.06.62-7.13c-.24-1.33-1.3-3.05-2.68-2.65s-2.66,3.1-3.24,2,1.05-7.64.24-9.9-2.46-2.6-3.89-2-3,5.24-4,4.58-.67-7.45-2.94-7.79-3,2.94-4.17,3.6-1.28-3.15-2.7-4.12c-1.94-1.33-4.22-1.33-4.81.41a3.18,3.18,0,0,1-1.38,2.06c-1.43.8-2.07,1.85-1.16,3.6s4.89,2.36,4.76,3.46-3.28.67-4.19,2.44c-.54,1,.13,3.51,2.49,4.48s3.74,1.06,3.85,1.84S210,63,209.07,64.51s-.6,4,2.65,4.09,8.75-1.14,9.83-.14c.78.73-1.78,2.19-3,3.58-1.05,1.21-1.05,3.72,2.26,3.48,2.15-.16,4.83-1.63,5.27-.73.7,1.41-2.17,2.38-.2,4,1.36,1.09,4.26-.63,4.9.36s.36,2.16,1.67,3.34,8.65,1.06,10.06,2.43a5.87,5.87,0,0,1,1.54,2.41,5.53,5.53,0,0,1,0,2,2.67,2.67,0,0,0,1.5,0,1,1,0,0,0,.73-.85l-1-1.45A9.21,9.21,0,0,1,244,83.85Z"/><path class="cls-1" d="M221.2,54.62a23.57,23.57,0,0,1,3.13,3.69c.94,1.27,1.8,2.59,2.7,3.87,1.76,2.59,3.55,5.15,5.44,7.64s3.81,5,5.83,7.34,4.05,4.77,6.15,7.09h0A1,1,0,0,1,243,85.57c-2.15-2.31-4.32-4.62-6.34-7.06s-4-4.89-5.88-7.45-3.67-5.16-5.37-7.82c-.83-1.34-1.68-2.67-2.47-4a45.33,45.33,0,0,0-2.5-3.87l0,0a.52.52,0,0,1,.77-.7Z"/><path class="cls-2" d="M246.09,89.86l-1-1.45A8.43,8.43,0,0,1,244,85.64a71.94,71.94,0,0,1-1.58-10.92c0-.73,0-1.44,0-2.11,0-2.19,0-4.26-1.53-5.62a3.61,3.61,0,0,0-4-.56l-.26.09a15.23,15.23,0,0,1,.39-2.32,11.72,11.72,0,0,0,.44-4.14,4.81,4.81,0,0,0-1.93-3.13,2.42,2.42,0,0,0-2-.29,5.14,5.14,0,0,0-2.1,1.56c0-.69.15-1.59.24-2.33.29-2.47.58-5,.05-6.49a4.27,4.27,0,0,0-2.18-2.61,3.81,3.81,0,0,0-3,0c-1,.39-1.75,1.65-2.54,3-.18.31-.41.69-.63,1-.09-.43-.17-1-.24-1.39-.42-2.6-.89-5.55-3-5.86s-3.25,1.48-4,2.66c-.13.2-.28.44-.43.64-.09-.23-.19-.49-.26-.7a5.84,5.84,0,0,0-1.76-3,5.22,5.22,0,0,0-4.45-.94A2.86,2.86,0,0,0,207.29,44c-.27.8-.43,1.23-.94,1.52-2.62,1.47-2.29,3.48-1.55,4.9.63,1.22,2.08,1.89,3.36,2.48l.81.39-.36.1c-1.08.29-2.55.69-3.25,2a3.56,3.56,0,0,0,0,2.78,5.32,5.32,0,0,0,3,3.06c.81.33,1.5.56,2.06.75.31.1.65.22.9.32-.35.31-.89.73-1.28,1a12.33,12.33,0,0,0-2.79,2.6,3.67,3.67,0,0,0-.23,3.65,4,4,0,0,0,3.67,1.94,36.62,36.62,0,0,0,4.57-.27,29.6,29.6,0,0,1,4.12-.24c-.28.27-.65.59-.94.83a15.12,15.12,0,0,0-1.62,1.51,3.29,3.29,0,0,0-.57,3.52c.33.66,1.25,1.75,3.64,1.58a14.36,14.36,0,0,0,2.87-.62c.41-.12,1-.28,1.36-.35-.07.12-.16.26-.24.38a2.4,2.4,0,0,0,.4,3.63c1.05.84,2.48.6,3.63.39a6.64,6.64,0,0,1,1.13-.14,4.11,4.11,0,0,1,.27.8,4.85,4.85,0,0,0,1.49,2.62c.81.73,2.53,1,5.26,1.36,1.7.23,4.27.57,4.77,1.05a5,5,0,0,1,1.28,2,4.52,4.52,0,0,1,0,1.52,1,1,0,0,0,.68,1.1,4,4,0,0,0,1.1.16,2.81,2.81,0,0,0,1-.19,2,2,0,0,0,1.34-1.77A1,1,0,0,0,246.09,89.86Z"/></svg>