<svg id="Layer_1" data-name="Layer 1" xmlns="http://www.w3.org/2000/svg" viewBox="0 0 600 268.48"><defs><style>.cls-1,.cls-4,.cls-5{fill:none;}.cls-1{stroke:#fbb03b;stroke-width:25.37px;}.cls-1,.cls-2,.cls-4{stroke-miterlimit:10;}.cls-1,.cls-3{opacity:0.25;}.cls-2{fill:#fff;stroke:#fff;stroke-width:10.15px;}.cls-3{fill:#fbb03b;}.cls-4,.cls-5{stroke:#40aa85;}.cls-4{stroke-width:3.04px;}.cls-5{stroke-linecap:round;stroke-linejoin:round;stroke-width:3.04px;}.cls-6{fill:#40aa85;}</style></defs><title>casestudy2a</title><path class="cls-1" d="M370.52,135.55a69.64,69.64,0,0,1-69.22,69.22H298.7a69.64,69.64,0,0,1-69.22-69.22q0-.65,0-1.3t0-1.3A69.64,69.64,0,0,1,298.7,63.72h2.42a69.79,69.79,0,0,1,69.41,69.41q0,.55,0,1.11T370.52,135.55Z"/><path class="cls-2" d="M341,93c-.28-.57-.65-1.65-1.27-2.8-.65-1.55-1.27-3.15-2.05-4.7a1.71,1.71,0,0,0-1.88-.81c-1.69.44-3.25,1-4.83,1.54a1.44,1.44,0,0,0-.25,0,87.47,87.47,0,0,0-9,3.47,61.9,61.9,0,0,0-8.42,4.73,38.56,38.56,0,0,0-13.11,14.3,32.35,32.35,0,0,0-3.08,9.36,34.68,34.68,0,0,0-.21,9.24c-.21-.2-.4-.42-.61-.62-.27-.38-.53-.78-.82-1.15a32.76,32.76,0,0,0-18.53-12.06c-7.38-1.7-15.06-.7-22,1.7a75,75,0,0,0-19.22,10.48h0l-.06.07c-1.07.78-2.15,1.6-3.24,2.47a1.52,1.52,0,0,0-.42,1.84c4.61,9.69,10.11,17.46,16.32,23.17,7,8.21,15.19,13.44,24.13,15.37a36.83,36.83,0,0,0,11.39.64,44.88,44.88,0,0,0,18.44-6.3c1.43,3.89,2.85,7.46,4.14,10.65,0,0,0,.06.06.09s0,.09,0,.13a7.94,7.94,0,0,0,4.06,3.22l.62,1.54s0,0,.05.08,0,.08,0,.11a7.69,7.69,0,0,0,4.34,3.26,5.69,5.69,0,0,0,1.89.13,7.06,7.06,0,0,0,3.06-1.11,6.55,6.55,0,0,0,2.35-9.14c-2-5.06-3.77-9.88-5.69-15.78,11.7-1.93,21.31-8.19,26.84-17.67C351.54,125.57,349.76,110.48,341,93Z"/><path class="cls-3" d="M342,90.64a1.35,1.35,0,0,0-1.53-.69c-1.68.44-3.3.94-4.88,1.47a1.27,1.27,0,0,0-.25,0,87.24,87.24,0,0,0-8.93,3.47,61.7,61.7,0,0,0-8.4,4.71,38.37,38.37,0,0,0-13,14.23,32.17,32.17,0,0,0-3.06,9.31,34.77,34.77,0,0,0-.16,9.76c0,.17.05.34.08.51-.6-.93-1.22-1.84-1.9-2.71a32.57,32.57,0,0,0-18.42-12c-7.33-1.69-15-.69-21.91,1.69a74.84,74.84,0,0,0-19.18,10.45h0l-.07.07c-1.07.78-2.14,1.59-3.24,2.46a1.33,1.33,0,0,0-.37,1.62c9,18.87,21.31,30.48,35.68,33.58a36.82,36.82,0,0,0,11.39.64,46.1,46.1,0,0,0,20.92-7.85c2.19,6.51,4.46,12.28,6.44,17.17,0,0,0,0,.05.08s0,.08,0,.11a7.69,7.69,0,0,0,4.34,3.26,5.69,5.69,0,0,0,1.89.13,7.06,7.06,0,0,0,3.06-1.11,6.55,6.55,0,0,0,2.35-9.14c-2-5.06-3.77-9.88-5.69-15.78,11.7-1.93,21.31-8.19,26.84-17.67C351.54,125.57,350.79,108.14,342,90.64Z"/><path class="cls-4" d="M375.39,135.78a74.32,74.32,0,0,1-73.84,73.84h-3.09a74.32,74.32,0,0,1-73.84-73.84q0-.77,0-1.54t0-1.54a74.32,74.32,0,0,1,73.84-73.84H302a74,74,0,0,1,73.41,73.41q0,1,0,2Q375.39,135,375.39,135.78Z"/><path class="cls-5" d="M300.75,154.34c-22.47,15.89-50.11,11.47-67.41-24.92q1.67-1.33,3.32-2.53"/><path class="cls-5" d="M311,150c27.41-3.59,41.87-30.71,25.23-63.79q-2.7.71-5.18,1.55"/><path class="cls-6" d="M235.69,125.68a73.92,73.92,0,0,1,19.22-10.48,46.28,46.28,0,0,1,10.84-2.41,35.33,35.33,0,0,1,11.17.7,31.64,31.64,0,0,1,10.33,4.42,34.36,34.36,0,0,1,8.2,7.64,44.15,44.15,0,0,1,8.45,20.37h0a1.44,1.44,0,0,1-.49,1.37l-.06,0a35.59,35.59,0,0,1-8.58,5.24,43.44,43.44,0,0,1-9.55,2.93,42.55,42.55,0,0,1-19.7-.6,1,1,0,0,1,.35-1.86h0a64.52,64.52,0,0,0,18.72-.68,46.77,46.77,0,0,0,8.87-2.77,38.14,38.14,0,0,0,8-4.63l-.55,1.42h0a41.13,41.13,0,0,0-7.85-19,31.32,31.32,0,0,0-7.47-7,28.59,28.59,0,0,0-9.34-4c-6.67-1.56-13.78-.67-20.33,1.61a70.92,70.92,0,0,0-18.41,10.06h0a1.52,1.52,0,1,1-1.8-2.46Z"/><path class="cls-6" d="M331.6,89.13A84.41,84.41,0,0,0,323,92.47,58.88,58.88,0,0,0,315,97a35.53,35.53,0,0,0-12.11,13.16,29.3,29.3,0,0,0-2.78,8.47,31.92,31.92,0,0,0-.14,9,45,45,0,0,0,6,17.07l-1.52-.74a44.34,44.34,0,0,0,7.75-2A44.23,44.23,0,0,0,326,133.67c2.06-1.74,4-3.62,5.93-5.59a.86.86,0,0,1,1.36,1,30.29,30.29,0,0,1-5.31,6.75,42,42,0,0,1-6.84,5.28,39.54,39.54,0,0,1-7.8,3.78,36.77,36.77,0,0,1-8.45,2h0a1.52,1.52,0,0,1-1.49-.75,48,48,0,0,1-6.41-18.24,35,35,0,0,1,.16-9.82,32.35,32.35,0,0,1,3.08-9.36,38.56,38.56,0,0,1,13.11-14.3,61.88,61.88,0,0,1,8.42-4.73,87.41,87.41,0,0,1,9-3.47,1.52,1.52,0,0,1,1,2.89Z"/><path class="cls-6" d="M303.15,145.26a51.44,51.44,0,0,1,.92-6.21c.18-1,.45-2,.68-3s.56-2,.83-3a65.74,65.74,0,0,1,4.66-11.53,54.64,54.64,0,0,1,6.92-10.38l2.1-2.32c.76-.72,1.54-1.41,2.33-2.09l1.18-1c.43-.3.84-.61,1.28-.9.87-.58,1.71-1.18,2.59-1.73a.88.88,0,0,1,1.07,1.38l-.05,0a70.31,70.31,0,0,0-8.18,8.57,53.46,53.46,0,0,0-6.36,9.94,72.51,72.51,0,0,0-6.93,22.55v.07a1.52,1.52,0,0,1-3-.32Z"/><path class="cls-6" d="M301.63,147.47c-3.5-1.91-7.18-3.67-10.85-5.33-1.84-.84-3.71-1.6-5.58-2.34l-2.82-1.1-2.85-1c-.95-.35-1.91-.62-2.87-.91s-1.92-.6-2.9-.82l-2.91-.73-2.94-.58a51.24,51.24,0,0,0-11.9-.88h0a.68.68,0,0,1-.18-1.34c1-.22,2.06-.39,3.1-.58a23.33,23.33,0,0,1,3.15-.24c.53,0,1.06-.06,1.58-.06l1.57.07c1,.07,2.11.08,3.14.25a67.27,67.27,0,0,1,12.2,2.77,95.18,95.18,0,0,1,11.62,4.46,101.46,101.46,0,0,1,11,5.75,1.52,1.52,0,0,1-1.52,2.64Z"/><path class="cls-5" d="M317.07,167.43c-2.3-5.73-4.18-11-6.32-17.69a5.42,5.42,0,1,0-10.32,3.31c2.36,7.35,4.85,13.78,7.36,20"/><path class="cls-5" d="M307.79,173c.92-3.93,5-7.12,9.28-5.59,0,0,2.75,4.56-1.84,7.44S307.79,173,307.79,173Z"/></svg>