<svg id="Layer_1" data-name="Layer 1" xmlns="http://www.w3.org/2000/svg" viewBox="0 0 1000 427.34"><defs><style>.cls-1{opacity:0.25;}.cls-2{fill:#fbb03b;}.cls-3{fill:#40aa85;}.cls-4{fill:#fff;}.cls-5{fill:#fcecce;}</style></defs><title>casestudy</title><g class="cls-1"><rect class="cls-2" x="83.21" y="128.93" width="834.02" height="284.6" rx="17.91" ry="17.91"/></g><path class="cls-3" d="M890.32,405.91H92.12a18.78,18.78,0,0,1-18.76-18.76V138.38a18.78,18.78,0,0,1,18.76-18.76h798.2a18.78,18.78,0,0,1,18.76,18.76V387.16A18.78,18.78,0,0,1,890.32,405.91ZM92.12,121.31a17.08,17.08,0,0,0-17.06,17.06V387.16a17.08,17.08,0,0,0,17.06,17.06h798.2a17.08,17.08,0,0,0,17.06-17.06V138.38a17.08,17.08,0,0,0-17.06-17.06Z"/><rect class="cls-4" x="110.5" y="152.44" width="113.36" height="229.3"/><path class="cls-3" d="M144.44,204.06l9.16-23.84a2.48,2.48,0,0,1,2.52-1.68h3.12a2.43,2.43,0,0,1,2.48,1.68l9.36,23.84c.56,1.48-.08,2.48-1.68,2.48h-3.24a2.46,2.46,0,0,1-2.48-1.68l-1.24-3.28h-9.6l-1.2,3.24a2.34,2.34,0,0,1-2.44,1.72h-3.08C144.52,206.54,143.84,205.54,144.44,204.06Zm16.64-8.24-3.4-9.6-3.56,9.6Z"/><path class="cls-3" d="M197.76,198.42c0,4.92-4,8.12-10.2,8.12H176.92a1.94,1.94,0,0,1-2.16-2.16V180.7a1.94,1.94,0,0,1,2.16-2.16h9.48c5.84,0,10.12,3,10.12,7.88a5.7,5.7,0,0,1-4.12,5.48A6.63,6.63,0,0,1,197.76,198.42ZM182.12,184.3v5.88H185c3.08,0,4.4-1.4,4.4-3,0-1.8-1.48-2.92-3.72-2.92Zm8.48,13.48c0-1.52-1.36-3.08-4.44-3.08h-4v5.92h5.08C189.48,200.62,190.6,199.3,190.6,197.78Z"/><path class="cls-3" d="M200.16,192.54c0-7.8,6-14.44,15.48-14.44a14.12,14.12,0,0,1,8.72,2.8,1.86,1.86,0,0,1,.36,3l-1.28,1.52c-.88,1.08-1.84,1.08-3,.28a9.41,9.41,0,0,0-4.76-1.24,8.08,8.08,0,1,0,0,16.16,9.51,9.51,0,0,0,4.76-1.24c1.2-.8,2.16-.8,3,.28l1.28,1.52c.88,1.08.88,2.12-.16,2.88a14.53,14.53,0,0,1-8.92,2.92C206.2,207,200.16,200.34,200.16,192.54Z"/><path class="cls-3" d="M229.44,204.38V180.7a1.94,1.94,0,0,1,2.16-2.16h10a14,14,0,1,1,0,28h-10A1.94,1.94,0,0,1,229.44,204.38Zm11.24-4.12c4.84,0,7.8-3.16,7.8-7.72s-3-7.76-7.8-7.72H236.8v15.44Z"/><path class="cls-3" d="M267.28,184.82v5h8.32a2,2,0,0,1,2.2,2.16v1.32a2,2,0,0,1-2.2,2.16h-8.32v4.8h9.92a1.94,1.94,0,0,1,2.16,2.16v2a1.94,1.94,0,0,1-2.16,2.16H262.08a1.94,1.94,0,0,1-2.16-2.16V180.7a1.94,1.94,0,0,1,2.16-2.16H277.2a1.94,1.94,0,0,1,2.16,2.16v2a1.94,1.94,0,0,1-2.16,2.16Z"/><path class="cls-3" d="M303.8,180.7v2a2,2,0,0,1-2.2,2.16H291.52v5H300A1.94,1.94,0,0,1,302.2,192v1.32a1.94,1.94,0,0,1-2.16,2.16h-8.52v8.92a2,2,0,0,1-2.16,2.16h-3a1.94,1.94,0,0,1-2.16-2.16V180.7a1.94,1.94,0,0,1,2.16-2.16H301.6A2,2,0,0,1,303.8,180.7Z"/><path class="cls-3" d="M305.92,192.54c0-7.84,6.24-14.44,15.36-14.44a15.44,15.44,0,0,1,8.2,2.12,1.83,1.83,0,0,1,.44,3l-1.28,1.56a2.27,2.27,0,0,1-3,.56,9.23,9.23,0,0,0-4.36-.88,8.08,8.08,0,0,0,.12,16.16,11.08,11.08,0,0,0,4.12-.76v-3.72H321.4a1.94,1.94,0,0,1-2.16-2.16v-1a1.94,1.94,0,0,1,2.16-2.16h8.92a1.94,1.94,0,0,1,2.16,2.16v8a3,3,0,0,1-1.24,2.64,16.28,16.28,0,0,1-9.88,3.36C312.08,207,305.92,200.38,305.92,192.54Z"/><path class="cls-3" d="M336.84,204.38V180.7a1.94,1.94,0,0,1,2.16-2.16h3a2,2,0,0,1,2.16,2.16v9.44h9.36V180.7a1.94,1.94,0,0,1,2.16-2.16h3a1.94,1.94,0,0,1,2.16,2.16v23.68a1.94,1.94,0,0,1-2.16,2.16h-3a1.94,1.94,0,0,1-2.16-2.16v-8.24H344.2v8.24a2,2,0,0,1-2.16,2.16h-3A1.94,1.94,0,0,1,336.84,204.38Z"/><path class="cls-3" d="M366.48,204.38V180.7a1.94,1.94,0,0,1,2.16-2.16h3a2,2,0,0,1,2.16,2.16v23.68a2,2,0,0,1-2.16,2.16h-3A1.94,1.94,0,0,1,366.48,204.38Z"/><path class="cls-3" d="M377.28,197.22a9.5,9.5,0,0,1,.88-3.84,2.47,2.47,0,0,1,2.52-1.44H383c1.6,0,2.12.72,1.68,2.08a7.29,7.29,0,0,0-.4,2.2c0,2.12,1,4.4,4,4.4s4.36-2,4.36-6.28V180.7a1.94,1.94,0,0,1,2.16-2.16h3A1.94,1.94,0,0,1,400,180.7v13.64c0,8.6-4.28,12.64-11.56,12.64C379.84,207,377.28,201.42,377.28,197.22Z"/><path class="cls-3" d="M416.16,201.14l-3.64-7.64v10.88a2,2,0,0,1-2.16,2.16h-3a1.94,1.94,0,0,1-2.16-2.16V180.7a1.94,1.94,0,0,1,2.16-2.16h3a2,2,0,0,1,2.16,2.16v10.24L419.08,180a2.71,2.71,0,0,1,2.6-1.48h3.6c1.76,0,2.2.84,1.2,2.44L419.4,192.1l3.16,6c1.28,2.56,2.28,3.2,3.52,3a6.3,6.3,0,0,0,1-.24c1.08-.32,1.52.28,2,1.4l.44,1.08a2,2,0,0,1-1.24,3,9.38,9.38,0,0,1-3.56.6A9.07,9.07,0,0,1,416.16,201.14Z"/><path class="cls-3" d="M432.64,204.38V180.7a1.94,1.94,0,0,1,2.16-2.16h3A2,2,0,0,1,440,180.7v19.56h10.44a1.94,1.94,0,0,1,2.16,2.16v2a1.94,1.94,0,0,1-2.16,2.16H434.8A1.94,1.94,0,0,1,432.64,204.38Z"/><path class="cls-3" d="M455.12,204.26l2.2-23.68a2,2,0,0,1,2.24-2h3.32a2.45,2.45,0,0,1,2.48,1.68L471.72,196l6.4-15.76a2.42,2.42,0,0,1,2.48-1.68h3.32a2,2,0,0,1,2.2,2l2.2,23.68a1.84,1.84,0,0,1-2,2.28h-3a2,2,0,0,1-2.24-2l-1.08-13-5.12,13a2.38,2.38,0,0,1-2.48,1.72h-1.24a2.38,2.38,0,0,1-2.48-1.72l-5.12-13-1.08,13a2.06,2.06,0,0,1-2.28,2h-3A1.88,1.88,0,0,1,455.12,204.26Z"/><path class="cls-3" d="M146.28,245.38V221.7a1.94,1.94,0,0,1,2.16-2.16h1.88A3,3,0,0,1,153,220.9l9.76,13.56V221.7a1.94,1.94,0,0,1,2.16-2.16h3a1.94,1.94,0,0,1,2.16,2.16v23.68a1.94,1.94,0,0,1-2.16,2.16h-1.84a2.91,2.91,0,0,1-2.6-1.36l-9.84-13.76v13a2,2,0,0,1-2.16,2.16h-3A1.94,1.94,0,0,1,146.28,245.38Z"/><path class="cls-3" d="M174.12,233.54c0-7.84,5.88-14.44,15-14.44s15,6.6,15,14.44S198.2,248,189.08,248,174.12,241.38,174.12,233.54Zm22.56,0c0-4.44-3-8.08-7.6-8.08s-7.6,3.64-7.6,8.08,3,8.08,7.6,8.08S196.68,238,196.68,233.54Z"/><path class="cls-3" d="M230.72,229.22c0,5.2-3.4,9.28-9.6,9.28h-5.68v6.88a2,2,0,0,1-2.16,2.16h-3a1.94,1.94,0,0,1-2.16-2.16V221.7a1.94,1.94,0,0,1,2.16-2.16h10.88C227.36,219.54,230.72,224,230.72,229.22Zm-7.4,0a3.2,3.2,0,0,0-3.08-3.44h-4.8v6.84h4.8A3.21,3.21,0,0,0,223.32,229.26Z"/><path class="cls-3" d="M244.64,248.18l-.08-.52a14,14,0,0,1-11.72-14.12c0-7.84,5.88-14.44,15-14.44s15,6.6,15,14.44a14,14,0,0,1-11.24,14,3.86,3.86,0,0,0,4.12,2.92,7.08,7.08,0,0,0,2.16-.4c1.36-.4,2.24-.16,2.84,1.08l.48,1c.56,1.24,0,2.6-1.84,3.28a12.17,12.17,0,0,1-3.92.64C249.16,256.14,245.8,252.82,244.64,248.18Zm10.76-14.64c0-4.44-3-8.08-7.6-8.08s-7.6,3.64-7.6,8.08,3,8.08,7.6,8.08S255.4,238,255.4,233.54Z"/><path class="cls-3" d="M277,237.82h-2.88v7.56a2,2,0,0,1-2.16,2.16h-3a1.94,1.94,0,0,1-2.16-2.16V221.7a1.94,1.94,0,0,1,2.16-2.16h11c6.24,0,9.64,4.32,9.64,9.52,0,4.16-2.2,7.24-6,8.32.36,2.76,1.8,4.84,3.76,4.84a4.88,4.88,0,0,0,1.76-.28c1.28-.4,1.68-.12,2.28,1.12l.48,1c.56,1.2.4,2.24-.76,2.84a11.74,11.74,0,0,1-5.12,1.12C278.84,248,277.32,240.82,277,237.82Zm2-5.16a3.44,3.44,0,0,0,0-6.84h-4.92v6.84Z"/><path class="cls-3" d="M293.6,241.78c-.52-1.36.2-2.32,1.56-2.64l2-.48c1.24-.28,1.92.24,2.64,1.4a5.17,5.17,0,0,0,4.6,2.2c2.32,0,3.88-.92,3.88-2.56,0-1-.68-2-2.76-2.72l-3.4-1.24c-2.36-.76-7.76-2.92-7.84-8s4.48-8.6,10.28-8.6c4.36,0,7.4,1.84,9.08,5,.72,1.32.08,2.36-1.28,2.76l-1.88.52c-1.24.36-2-.12-2.8-1.16a3.41,3.41,0,0,0-3-1.4c-1.68,0-3.2.8-3.2,2.32,0,.88.52,1.8,2.64,2.56l3.36,1.2c5.84,2,7.88,4.8,8,8.52,0,5.72-5,8.56-11,8.56C299,248,295.16,245.66,293.6,241.78Z"/><path class="cls-3" d="M340.36,221.7v2a1.94,1.94,0,0,1-2.16,2.16h-5.88v19.56a1.94,1.94,0,0,1-2.16,2.16h-2.88a1.94,1.94,0,0,1-2.16-2.16V225.82H319.4a1.94,1.94,0,0,1-2.16-2.16v-2a1.94,1.94,0,0,1,2.16-2.16h18.8A1.94,1.94,0,0,1,340.36,221.7Z"/><path class="cls-3" d="M343.56,236.82V221.7a1.94,1.94,0,0,1,2.16-2.16h3a1.94,1.94,0,0,1,2.16,2.16v15.12c0,3.16,2,4.8,4.48,4.8a4.42,4.42,0,0,0,4.52-4.8V221.7a1.94,1.94,0,0,1,2.16-2.16h3a1.94,1.94,0,0,1,2.16,2.16v15.12c0,7.24-5.44,11.16-11.84,11.16S343.56,244.06,343.56,236.82Z"/><path class="cls-3" d="M379.48,245.82,371,222c-.52-1.48.16-2.48,1.72-2.48h3.32a2.3,2.3,0,0,1,2.44,1.84l4.88,16.36,4.88-16.36a2.31,2.31,0,0,1,2.44-1.84H394a1.66,1.66,0,0,1,1.72,2.48l-8.48,23.8a2.4,2.4,0,0,1-2.44,1.72h-2.92A2.37,2.37,0,0,1,379.48,245.82Z"/><path class="cls-3" d="M405.92,245.74,398.44,222c-.48-1.48.2-2.44,1.76-2.44h3.08a2.26,2.26,0,0,1,2.4,1.84l4,13.84,4-13a2.29,2.29,0,0,1,2.4-1.8h1.56a2.29,2.29,0,0,1,2.4,1.8l4,13,4-13.84a2.3,2.3,0,0,1,2.44-1.84h3c1.56,0,2.24,1,1.8,2.44l-7.48,23.76a2.37,2.37,0,0,1-2.44,1.8h-2a2.34,2.34,0,0,1-2.44-1.8l-4.08-13.6-4.12,13.6a2.29,2.29,0,0,1-2.4,1.8h-2A2.34,2.34,0,0,1,405.92,245.74Z"/><path class="cls-3" d="M437.64,245l8.84-12.24-8-10.64c-1-1.4-.48-2.56,1.28-2.56h3.72a2.87,2.87,0,0,1,2.56,1.28l4.88,6.52,4.88-6.52a2.87,2.87,0,0,1,2.56-1.28H462c1.76,0,2.36,1.16,1.32,2.56l-8,10.64L464.2,245c1,1.44.4,2.56-1.32,2.56h-3.76a2.86,2.86,0,0,1-2.56-1.32l-5.64-7.8-5.64,7.8a2.9,2.9,0,0,1-2.56,1.32H439C437.2,247.54,436.6,246.42,437.64,245Z"/><path class="cls-3" d="M476.56,245.38v-9.16l-9.72-14c-1-1.48-.36-2.64,1.4-2.64h3.88a2.82,2.82,0,0,1,2.6,1.44l5.52,9,5.56-9a2.78,2.78,0,0,1,2.6-1.44h3.84c1.76,0,2.36,1.16,1.32,2.64l-9.64,13.92v9.28a1.94,1.94,0,0,1-2.16,2.16h-3A1.94,1.94,0,0,1,476.56,245.38Z"/><path class="cls-3" d="M496.08,245.38v-.84a3.58,3.58,0,0,1,1-2.64l13.2-16.08h-10.8a1.94,1.94,0,0,1-2.16-2.16v-2a1.94,1.94,0,0,1,2.16-2.16H518a2,2,0,0,1,2.16,2.16v.88a3.74,3.74,0,0,1-1,2.68l-13.28,16h13.16a1.94,1.94,0,0,1,2.16,2.16v2a1.94,1.94,0,0,1-2.16,2.16H498.24A1.94,1.94,0,0,1,496.08,245.38Z"/><path class="cls-3" d="M144.56,290.47c0-6.2,4.2-10.84,9.88-10.84a7.13,7.13,0,0,1,6.32,3.24v-.64a1.94,1.94,0,0,1,2.16-2.16h2.88a1.94,1.94,0,0,1,2.16,2.16v16.48a1.94,1.94,0,0,1-2.16,2.16h-2.88a1.94,1.94,0,0,1-2.16-2.16v-.6a7.18,7.18,0,0,1-6.32,3.2C148.76,301.3,144.56,296.67,144.56,290.47Zm16.28,0c0-3-1.76-5.24-4.56-5.24s-4.52,2.32-4.52,5.24,1.68,5.24,4.52,5.24S160.84,293.43,160.84,290.47Z"/><path class="cls-3" d="M179.56,298.1v.6a1.94,1.94,0,0,1-2.16,2.16h-2.88a1.94,1.94,0,0,1-2.16-2.16v-24.6a1.94,1.94,0,0,1,2.16-2.16h2.88a1.94,1.94,0,0,1,2.16,2.16v8.76a7.1,7.1,0,0,1,6.28-3.24c5.72,0,9.92,4.64,9.92,10.84s-4.2,10.84-9.92,10.84A7.16,7.16,0,0,1,179.56,298.1Zm9-7.64c0-2.92-1.72-5.24-4.52-5.24s-4.6,2.28-4.6,5.24,1.8,5.24,4.6,5.24S188.56,293.39,188.56,290.47Z"/><path class="cls-3" d="M197.88,290.55c0-6,4.84-10.92,12.08-10.92a13.76,13.76,0,0,1,6.76,1.76c1.2.76,1.24,1.92.36,3l-.84,1c-.8,1.08-1.72,1.08-3,.48a6.9,6.9,0,0,0-2.84-.6,5.16,5.16,0,1,0,0,10.32,6.91,6.91,0,0,0,2.84-.6c1.28-.6,2.24-.6,3,.48l.8,1a1.91,1.91,0,0,1-.6,3.12A13.1,13.1,0,0,1,210,301.3C202.8,301.3,197.88,296.51,197.88,290.55Z"/><path class="cls-3" d="M219.72,290.47c0-6.2,4.2-10.84,9.92-10.84a7.1,7.1,0,0,1,6.28,3.24v-8.76a1.94,1.94,0,0,1,2.16-2.16H241a1.94,1.94,0,0,1,2.16,2.16v24.6a1.94,1.94,0,0,1-2.16,2.16h-2.88a1.94,1.94,0,0,1-2.16-2.16v-.6a7.16,7.16,0,0,1-6.28,3.2C223.92,301.3,219.72,296.67,219.72,290.47Zm16.32,0c0-3-1.8-5.24-4.6-5.24s-4.52,2.32-4.52,5.24,1.72,5.24,4.52,5.24S236,293.43,236,290.47Z"/><path class="cls-3" d="M246.4,290.55c0-5.76,4.24-10.92,11.52-10.92,6.24,0,11.12,3.76,11.24,10.4,0,1.24-.84,1.76-2.2,1.76h-13.8c0,1.84,2.12,4,5.92,4a8.59,8.59,0,0,0,4.12-1,2.15,2.15,0,0,1,3,.52l.56.72a2,2,0,0,1-.44,3.12,13.85,13.85,0,0,1-7.8,2.2C250.92,301.3,246.4,296.51,246.4,290.55Zm16.16-2.36c-.32-2.4-2.52-3.36-4.6-3.36s-4.28,1-4.68,3.36Z"/><path class="cls-3" d="M273.48,298.71V285.35h-1.56a1,1,0,0,1-1.12-1.12v-2.64a1,1,0,0,1,1.12-1.12h1.56v-1.2c0-6.24,4.48-7.76,8.08-7.76,3.44,0,7.2,1.44,7.2,5.64a3,3,0,0,1,0,.6,1,1,0,0,1-1.08,1h-3.32a.76.76,0,0,1-.84-.76v-.2a1.34,1.34,0,0,0-1.48-1.16c-1,0-1.56.68-1.56,1.76v2.12h3.24a1,1,0,0,1,1.12,1.12v2.64a1,1,0,0,1-1.12,1.12h-3.12v13.36a1.94,1.94,0,0,1-2.16,2.16h-2.72A2,2,0,0,1,273.48,298.71Z"/><path class="cls-3" d="M289.76,308.54a1.88,1.88,0,0,1-.84-2.92l.6-1.08a1.94,1.94,0,0,1,2.88-.84,10.85,10.85,0,0,0,4.76,1.16c3.28,0,5.68-1.72,5.68-5.72v-1a7.28,7.28,0,0,1-6.4,3.2c-5.68,0-9.8-4.88-9.8-10.84s4.12-10.84,9.8-10.84a7,7,0,0,1,6.28,3.24v-.92c0-1.28.76-1.88,2.16-1.88h2.72a1.94,1.94,0,0,1,2.16,2.16v16.52c0,8.4-5.32,11.52-11.84,11.52A18.83,18.83,0,0,1,289.76,308.54Zm13.08-18.08c0-3-1.8-5.32-4.56-5.32s-4.6,2.4-4.6,5.32,1.76,5.32,4.6,5.32S302.84,293.43,302.84,290.47Z"/><path class="cls-3" d="M314.2,298.71v-24.6a1.94,1.94,0,0,1,2.16-2.16h2.88a1.94,1.94,0,0,1,2.16,2.16V283a6.28,6.28,0,0,1,6-3.4c6,0,7.4,5,7.4,9.16v9.92a1.94,1.94,0,0,1-2.16,2.16H329.8a1.94,1.94,0,0,1-2.16-2.16v-9.32c0-2.24-.72-4-2.84-4s-3.4,1.76-3.4,4.52v8.84a1.94,1.94,0,0,1-2.16,2.16h-2.88A1.94,1.94,0,0,1,314.2,298.71Z"/><path class="cls-3" d="M338.52,274.75c0-1.92,1.4-3.44,4.12-3.44s4.16,1.52,4.16,3.44-1.52,3.44-4.16,3.44S338.52,276.71,338.52,274.75Zm.52,24V282.23a1.94,1.94,0,0,1,2.16-2.16h2.88a1.94,1.94,0,0,1,2.16,2.16v16.48a1.94,1.94,0,0,1-2.16,2.16H341.2A1.94,1.94,0,0,1,339,298.71Z"/><path class="cls-3" d="M344,304.66a3,3,0,0,1,0-.6,1,1,0,0,1,1.08-1h3.32a.76.76,0,0,1,.84.76v.2a1.22,1.22,0,0,0,1.36,1.16c1,0,1.52-.68,1.52-1.76l0-21.24a1.94,1.94,0,0,1,2.16-2.16h2.76a2,2,0,0,1,2.16,2.16v20.32c0,6.24-4.48,7.76-8.08,7.76C347.8,310.3,344,308.86,344,304.66Zm7.68-29.92c0-1.92,1.4-3.44,4.12-3.44s4.16,1.52,4.16,3.44-1.52,3.44-4.16,3.44S351.72,276.71,351.72,274.75Z"/><path class="cls-3" d="M373.4,296.11,371,291.39v7.32a1.94,1.94,0,0,1-2.16,2.16H366a1.94,1.94,0,0,1-2.16-2.16v-24.6a1.94,1.94,0,0,1,2.16-2.16h2.88a1.94,1.94,0,0,1,2.16,2.16v14.36l4.6-7a2.8,2.8,0,0,1,2.56-1.4h3.24c1.8,0,2.4,1.16,1.32,2.64l-5.24,7,2.36,3.92c.88,1.48,1.72,1.84,2.72,1.84a3.38,3.38,0,0,0,1-.16c.88-.2,1.48-.08,1.88.72l1,2a1.52,1.52,0,0,1-.84,2.12A9.4,9.4,0,0,1,381,301.3C377.48,301.3,375.12,299.67,373.4,296.11Z"/><path class="cls-3" d="M388.84,298.71v-24.6a1.94,1.94,0,0,1,2.16-2.16h2.88a1.94,1.94,0,0,1,2.16,2.16v24.6a1.94,1.94,0,0,1-2.16,2.16H391A1.94,1.94,0,0,1,388.84,298.71Z"/><path class="cls-3" d="M400.56,298.71V282.23a1.94,1.94,0,0,1,2.16-2.16h2.88a1.94,1.94,0,0,1,2.16,2.16v.8a5.28,5.28,0,0,1,5.2-3.4,6.26,6.26,0,0,1,5.76,3.28,7.14,7.14,0,0,1,6.52-3.28c5.56,0,7.48,5,7.48,9.2v9.88a1.94,1.94,0,0,1-2.16,2.16h-2.88a1.94,1.94,0,0,1-2.16-2.16v-9.48c0-2.28-.72-3.88-2.44-3.88s-2.8,1.52-2.84,4.24v9.12a1.94,1.94,0,0,1-2.16,2.16H415.2a1.94,1.94,0,0,1-2.16-2.16v-9.48c0-2.28-.72-3.88-2.44-3.88s-2.84,1.6-2.84,4.36v9a1.94,1.94,0,0,1-2.16,2.16h-2.88A1.94,1.94,0,0,1,400.56,298.71Z"/><path class="cls-3" d="M145.72,339.71V323.23a1.94,1.94,0,0,1,2.16-2.16h2.88a1.94,1.94,0,0,1,2.16,2.16v.8a6.28,6.28,0,0,1,6-3.4c6,0,7.4,5,7.4,9.16v9.92a1.94,1.94,0,0,1-2.16,2.16h-2.88a1.94,1.94,0,0,1-2.16-2.16v-9.32c0-2.24-.72-4-2.84-4s-3.4,1.76-3.4,4.52v8.84a1.94,1.94,0,0,1-2.16,2.16h-2.88A1.94,1.94,0,0,1,145.72,339.71Z"/><path class="cls-3" d="M169.36,331.47c0-6,4.92-10.84,11.76-10.84s11.76,4.84,11.76,10.84S188,342.3,181.12,342.3,169.36,337.47,169.36,331.47Zm16.8,0a5,5,0,1,0-5,5.16A4.94,4.94,0,0,0,186.16,331.47Z"/><path class="cls-3" d="M196.16,348.66V323.23a1.94,1.94,0,0,1,2.16-2.16h2.88a1.94,1.94,0,0,1,2.16,2.16v.6a7.07,7.07,0,0,1,6.28-3.2c5.68,0,9.88,4.64,9.88,10.84s-4.2,10.84-9.88,10.84a7.07,7.07,0,0,1-6.28-3.2v9.56a1.94,1.94,0,0,1-2.16,2.16h-2.88A1.94,1.94,0,0,1,196.16,348.66Zm16.16-17.2c0-2.92-1.68-5.24-4.48-5.24s-4.6,2.28-4.6,5.24,1.8,5.24,4.6,5.24S212.32,334.39,212.32,331.47Z"/><path class="cls-3" d="M237.88,348.66V339.1a7.18,7.18,0,0,1-6.32,3.2c-5.68,0-9.88-4.64-9.88-10.84s4.2-10.84,9.88-10.84a7.18,7.18,0,0,1,6.32,3.2v-.6a1.94,1.94,0,0,1,2.16-2.16h2.88a1.94,1.94,0,0,1,2.16,2.16v25.44a1.94,1.94,0,0,1-2.16,2.16H240A1.94,1.94,0,0,1,237.88,348.66Zm.08-17.2c0-3-1.76-5.24-4.56-5.24s-4.52,2.32-4.52,5.24,1.68,5.24,4.52,5.24S238,334.43,238,331.47Z"/><path class="cls-3" d="M249.52,339.71V323.23a1.94,1.94,0,0,1,2.16-2.16h2.64a2,2,0,0,1,2.16,2.16v2.32a5.45,5.45,0,0,1,5.28-4.92,3.23,3.23,0,0,1,.6,0c1,0,1.24.88,1.24,1.64v3.6c0,1.2-.64,1.72-1.56,1.6a8,8,0,0,0-1,0c-2.88,0-4.36,1.92-4.36,5.64v6.6a1.94,1.94,0,0,1-2.16,2.16h-2.88A1.94,1.94,0,0,1,249.52,339.71Z"/><path class="cls-3" d="M265.28,338c-.6-1.32.12-2.28,1.52-2.64l1.4-.32c1.24-.28,1.72.32,2.68,1.24a3.93,3.93,0,0,0,2.76,1c1.4,0,2.32-.52,2.32-1.44,0-.6-.4-1-1.68-1.44l-2.44-.88c-1.64-.56-6.16-2-6.16-6.2,0-4,3.44-6.68,8.08-6.68,2.76,0,5.16.84,6.76,3,.92,1.28.24,2.44-1.2,2.84l-1.28.36a2.53,2.53,0,0,1-2.6-.76,2.52,2.52,0,0,0-1.72-.6c-1.08,0-1.72.64-1.72,1.36s.64,1.08,1.64,1.4l2.48,1c4.36,1.52,6.16,3.76,6.2,6.48,0,4.48-4,6.6-8.68,6.6C269.68,342.3,266.68,340.9,265.28,338Z"/><path class="cls-3" d="M286.88,334.83v-8.48H285a1,1,0,0,1-1.12-1.12v-3a1,1,0,0,1,1.12-1.12h2.52l.72-3.92a1.47,1.47,0,0,1,1.64-1.36h2.52a1.34,1.34,0,0,1,1.52,1.48v3.8h4.2a1,1,0,0,1,1.12,1.12v3a1,1,0,0,1-1.12,1.12h-4.2v8.6c0,1.24.6,1.72,1.32,1.72,1,0,1.44-.84,1.44-1.76a4.11,4.11,0,0,0,0-.68c-.08-.76.16-1.16.92-1.16h2.68a1.14,1.14,0,0,1,1.24.84,6.38,6.38,0,0,1,.28,1.6c0,5.12-3.64,6.8-7.32,6.8S286.88,340.75,286.88,334.83Z"/><path class="cls-3" d="M304,333.15v-9.92a1.94,1.94,0,0,1,2.16-2.16h2.88a1.94,1.94,0,0,1,2.16,2.16v9.32c0,2.24.76,4.08,2.88,4.08s3.4-1.8,3.4-4.56v-8.84a1.94,1.94,0,0,1,2.16-2.16h2.88a1.94,1.94,0,0,1,2.16,2.16v16.48a1.94,1.94,0,0,1-2.16,2.16h-2.88a1.94,1.94,0,0,1-2.16-2.16v-.76a6.38,6.38,0,0,1-6.08,3.36C305.44,342.3,304,337.31,304,333.15Z"/><path class="cls-3" d="M335.36,340.23l-7.2-16.64c-.68-1.48,0-2.52,1.6-2.52H333a2.38,2.38,0,0,1,2.48,1.76l3.92,11.24,4-11.24a2.35,2.35,0,0,1,2.44-1.76H349c1.6,0,2.32,1,1.64,2.52l-7.16,16.64a2.55,2.55,0,0,1-2.52,1.64h-3.12A2.51,2.51,0,0,1,335.36,340.23Z"/><path class="cls-3" d="M359,340.15l-5.88-16.6c-.56-1.48.16-2.48,1.76-2.48h3.32a2.14,2.14,0,0,1,2.36,1.84l2.56,9.24,2.64-8.72a2.23,2.23,0,0,1,2.4-1.8h.52a2.26,2.26,0,0,1,2.4,1.8l2.6,8.72,2.56-9.24a2.2,2.2,0,0,1,2.4-1.84H382a1.69,1.69,0,0,1,1.76,2.48l-5.88,16.6a2.3,2.3,0,0,1-2.44,1.72h-1.92a2.32,2.32,0,0,1-2.48-1.8l-2.6-8.64-2.6,8.64a2.3,2.3,0,0,1-2.44,1.8h-1.92A2.34,2.34,0,0,1,359,340.15Z"/><path class="cls-3" d="M386.56,339.19l6.8-8-6-7.44c-1.12-1.44-.56-2.64,1.28-2.64h3.16a3.1,3.1,0,0,1,2.64,1.28l3.24,4,3.28-4a3.1,3.1,0,0,1,2.64-1.28h3.2c1.84,0,2.4,1.2,1.24,2.64l-6,7.44,6.76,8c1.16,1.44.6,2.68-1.24,2.68H404.8a3.22,3.22,0,0,1-2.64-1.24l-4.44-5.16-4.4,5.16a3.22,3.22,0,0,1-2.64,1.24H387.8C386,341.86,385.4,340.63,386.56,339.19Z"/><path class="cls-3" d="M415.72,348.3l3.52-8.16-7.52-16.56c-.68-1.48,0-2.52,1.64-2.52h3.24a2.35,2.35,0,0,1,2.48,1.76l3.64,10,3.8-10a2.42,2.42,0,0,1,2.48-1.72h3c1.6,0,2.28,1,1.64,2.52l-11.28,25.6a2.43,2.43,0,0,1-2.52,1.64H417.4C415.76,350.82,415.12,349.78,415.72,348.3Z"/><path class="cls-3" d="M436.08,339.71v-.32a3.46,3.46,0,0,1,1-2.64l9.44-10.16h-7.92a1.94,1.94,0,0,1-2.16-2.16v-1.2a1.94,1.94,0,0,1,2.16-2.16h16a1.94,1.94,0,0,1,2.16,2.16v.4a3.47,3.47,0,0,1-1,2.64l-9.36,10.08h8.88a1.94,1.94,0,0,1,2.16,2.16v1.2a2,2,0,0,1-2.2,2.16h-17A1.94,1.94,0,0,1,436.08,339.71Z"/><rect class="cls-5" x="283.5" y="157.37" width="448.73" height="233.56"/><rect class="cls-4" x="290.26" y="152.44" width="113.36" height="229.3"/><path class="cls-3" d="M134.78,29.88v.66A1.3,1.3,0,0,1,133.35,32h-18.2V46.22h15.67a1.36,1.36,0,0,1,1.48,1.48v.66a1.36,1.36,0,0,1-1.48,1.48H115.15V65.41a1.36,1.36,0,0,1-1.48,1.48h-1.37a1.36,1.36,0,0,1-1.48-1.48V29.88a1.36,1.36,0,0,1,1.48-1.48h21.06A1.32,1.32,0,0,1,134.78,29.88Z"/><path class="cls-3" d="M140.51,30.32a3,3,0,0,1,3-3.13,3.11,3.11,0,0,1,0,6.21A3,3,0,0,1,140.51,30.32Zm.93,35.09V40.94a1.39,1.39,0,0,1,1.48-1.48h1.27a1.34,1.34,0,0,1,1.43,1.48V65.41a1.34,1.34,0,0,1-1.43,1.48h-1.27A1.36,1.36,0,0,1,141.44,65.41Z"/><path class="cls-3" d="M154.86,65.41V28.62a1.36,1.36,0,0,1,1.48-1.48h1.27A1.34,1.34,0,0,1,159,28.62V65.41a1.34,1.34,0,0,1-1.43,1.48h-1.27A1.36,1.36,0,0,1,154.86,65.41Z"/><path class="cls-3" d="M166.08,62.38c-.55-.94-.06-1.59.88-1.87l1-.27c.82-.22,1.32.11,1.87.83a6.85,6.85,0,0,0,5.83,2.8c3.08,0,5.44-1.81,5.44-4.4,0-2.09-1.54-3.35-3.85-4.12l-3.9-1.27c-4-1.21-6.54-3.41-6.54-7.26,0-4.34,3.41-8,8.8-8a8.58,8.58,0,0,1,8,4.51c.5.93,0,1.65-1,1.87l-.88.22c-.82.22-1.32-.11-1.87-.88a5,5,0,0,0-4.12-2.09c-3,0-4.84,2-4.84,4.23s1.92,3.35,3.79,4L178.73,52c4.89,1.48,6.38,4.51,6.38,7.53,0,5-4.4,8-9.51,8C171.47,67.5,167.78,65.68,166.08,62.38Z"/><path class="cls-3" d="M189.56,53.2a14.41,14.41,0,1,1,14.35,14.3A14.43,14.43,0,0,1,189.56,53.2Zm24.58.06a10.49,10.49,0,0,0-10.23-10.67c-5.55,0-10.12,4.84-10.12,10.67a10.18,10.18,0,1,0,20.35,0Z"/><path class="cls-3" d="M225.09,65.41V40.94a1.37,1.37,0,0,1,1.43-1.48h1.26a1.36,1.36,0,0,1,1.48,1.48v4.34c1.48-4.34,5.5-6.43,9.57-6.43,5.83,0,10.89,3.41,10.89,12.48V65.41a1.36,1.36,0,0,1-1.48,1.48H247a1.36,1.36,0,0,1-1.48-1.48V51.33c0-6.65-3.46-8.74-6.93-8.74-3,0-9.24,2.14-9.29,11V65.41a1.36,1.36,0,0,1-1.48,1.48h-1.26A1.34,1.34,0,0,1,225.09,65.41Z"/><path class="cls-3" d="M271.13,59.91c-.44-.88,0-1.54.93-1.81l1.32-.33c.88-.22,1.38.11,1.81.94,1.43,2.64,4.67,4.95,9.24,4.95,5.66,0,9-3,9-6.76,0-3.46-3-5.61-6.27-6.76L281,48c-7.31-2.36-8.63-6.6-8.63-9.84,0-6.49,5.72-10.39,12.21-10.39,5.94,0,10.23,2.91,11.82,7.26a1.31,1.31,0,0,1-1,1.81l-1.15.33c-.88.27-1.43-.06-1.81-.94-1.21-2.91-4.12-4.56-7.92-4.56-4.18,0-7.75,2.36-7.75,6.38,0,1.92.66,4.34,5.55,6.1l6.21,2.2c5.66,1.81,9.18,5.83,9.18,10.23,0,6.38-5.22,10.89-13.2,10.89C277.78,67.5,273.05,64.14,271.13,59.91Z"/><path class="cls-3" d="M302.53,53.2a14.41,14.41,0,1,1,14.35,14.3A14.43,14.43,0,0,1,302.53,53.2Zm24.58.06a10.49,10.49,0,0,0-10.23-10.67c-5.55,0-10.12,4.84-10.12,10.67a10.18,10.18,0,1,0,20.35,0Z"/><path class="cls-3" d="M339.11,65.41V42.81h-3.63c-.61,0-.88-.27-.88-.88V40.33a.78.78,0,0,1,.88-.88h3.63V37.2c0-8.63,4.56-10.61,8.74-10.61,5.22,0,7.92,2.91,7.92,6.71a3.2,3.2,0,0,1-.11,1,.86.86,0,0,1-.77.5h-2A.79.79,0,0,1,352,34a2.54,2.54,0,0,0,.05-.55c0-1.87-1.65-3.13-4-3.13-2.75,0-4.62,2-4.62,6.32v2.86h6.71a.81.81,0,0,1,.88.88v1.59a.78.78,0,0,1-.88.88h-6.71v22.6A1.36,1.36,0,0,1,342,66.89h-1.37A1.36,1.36,0,0,1,339.11,65.41Z"/><path class="cls-3" d="M358.3,58.31V42.81h-3.74c-.61,0-.88-.27-.88-.88V40.33a.78.78,0,0,1,.88-.88h3.74l.83-7a1.26,1.26,0,0,1,1.37-1.21h.71a1.17,1.17,0,0,1,1.32,1.27v7h8a.81.81,0,0,1,.88.88v1.59a.78.78,0,0,1-.88.88h-8V58.59c0,4,1.87,5.22,4,5.22a3.6,3.6,0,0,0,3.91-3.63,4,4,0,0,0-.11-1c-.05-.66.17-1,.77-1H373a.91.91,0,0,1,1,.71,8.59,8.59,0,0,1,.22,1.81c0,3.79-2.69,6.76-7.7,6.76C362.37,67.5,358.3,65.52,358.3,58.31Z"/><path class="cls-3" d="M326,204.58l9.48-24.68a1.93,1.93,0,0,1,2-1.36h2.6a1.93,1.93,0,0,1,2,1.36l9.6,24.68c.44,1.16-.08,2-1.32,2h-1.92a2,2,0,0,1-2-1.36l-1.56-4.12H332.74l-1.56,4.12a1.86,1.86,0,0,1-1.92,1.36h-1.92C326.1,206.54,325.58,205.74,326,204.58Zm17.56-7.72-4.8-13-4.8,13Z"/><path class="cls-3" d="M377.66,198.86c0,4.64-3.88,7.68-9.68,7.68H357.82a1.52,1.52,0,0,1-1.68-1.68V180.22a1.52,1.52,0,0,1,1.68-1.68h8.92c5.56,0,9.6,2.8,9.6,7.44a6.2,6.2,0,0,1-4.88,6.12A6.7,6.7,0,0,1,377.66,198.86Zm-16.24-16.08v7.84h3.84c4.16,0,5.8-2,5.8-4.12,0-2.4-2-3.72-4.56-3.72Zm11,15.76c0-2.16-1.84-4.28-6.2-4.28h-4.76v8h6.44C370.58,202.22,372.38,200.7,372.38,198.54Z"/><path class="cls-3" d="M380.82,192.54c0-7.8,5.76-14.44,15.24-14.44a14.51,14.51,0,0,1,8.4,2.44,1.55,1.55,0,0,1,.4,2.36l-.64.92c-.6.92-1.36,1-2.36.44a12.05,12.05,0,0,0-5.8-1.52,9.8,9.8,0,1,0,0,19.6,12.05,12.05,0,0,0,5.8-1.52c1-.56,1.76-.48,2.36.44l.64.92c.6.92.56,1.64-.2,2.2a14.45,14.45,0,0,1-8.6,2.6C386.58,207,380.82,200.34,380.82,192.54Z"/><path class="cls-3" d="M410.18,204.86V180.22a1.52,1.52,0,0,1,1.68-1.68h8.48c8.72,0,14.36,6.28,14.36,14s-5.64,14-14.36,14h-8.48A1.52,1.52,0,0,1,410.18,204.86ZM420,202.1c5.76,0,9.32-4.16,9.32-9.56s-3.56-9.6-9.32-9.56h-4.56V202.1Z"/><path class="cls-3" d="M445.1,183v7.68h9.76a1.55,1.55,0,0,1,1.72,1.68v.8a1.58,1.58,0,0,1-1.72,1.72H445.1v7.24h11.48a1.55,1.55,0,0,1,1.68,1.72v1a1.52,1.52,0,0,1-1.68,1.68H441.5a1.52,1.52,0,0,1-1.68-1.68V180.22a1.52,1.52,0,0,1,1.68-1.68h15.08a1.52,1.52,0,0,1,1.68,1.68v1a1.55,1.55,0,0,1-1.68,1.72Z"/><path class="cls-3" d="M482.22,180.22v1A1.58,1.58,0,0,1,480.5,183H469v7.68h9.84a1.55,1.55,0,0,1,1.72,1.68v.8a1.58,1.58,0,0,1-1.72,1.72H469v10a1.52,1.52,0,0,1-1.68,1.68h-1.92a1.52,1.52,0,0,1-1.68-1.68V180.22a1.52,1.52,0,0,1,1.68-1.68H480.5A1.55,1.55,0,0,1,482.22,180.22Z"/><path class="cls-3" d="M484.86,192.58A14.51,14.51,0,0,1,499.7,178.1a16.33,16.33,0,0,1,8.76,2.24,1.56,1.56,0,0,1,.48,2.36l-.72,1a1.57,1.57,0,0,1-2.32.56,11.55,11.55,0,0,0-6.2-1.48,9.56,9.56,0,0,0-9.48,9.84,9.43,9.43,0,0,0,9.88,9.76,11.19,11.19,0,0,0,5.64-1.48v-4.92h-5.6a1.55,1.55,0,0,1-1.68-1.72v-.68a1.52,1.52,0,0,1,1.68-1.68H509a1.52,1.52,0,0,1,1.68,1.68v8.08a2.64,2.64,0,0,1-1.24,2.28,15.69,15.69,0,0,1-9.48,3.08C491.06,207,484.86,200.46,484.86,192.58Z"/><path class="cls-3" d="M516.1,204.86V180.22a1.52,1.52,0,0,1,1.68-1.68h1.92a1.52,1.52,0,0,1,1.68,1.68V191h11.68v-10.8a1.52,1.52,0,0,1,1.68-1.68h1.92a1.52,1.52,0,0,1,1.68,1.68v24.64a1.52,1.52,0,0,1-1.68,1.68h-1.92a1.52,1.52,0,0,1-1.68-1.68v-9.52H521.38v9.52a1.52,1.52,0,0,1-1.68,1.68h-1.92A1.52,1.52,0,0,1,516.1,204.86Z"/><path class="cls-3" d="M545.3,204.86V180.22a1.52,1.52,0,0,1,1.68-1.68h1.92a1.52,1.52,0,0,1,1.68,1.68v24.64a1.52,1.52,0,0,1-1.68,1.68H547A1.52,1.52,0,0,1,545.3,204.86Z"/><path class="cls-3" d="M555.1,197a8.67,8.67,0,0,1,.56-2.92,1.84,1.84,0,0,1,1.92-1.24h1.56c1.2,0,1.64.64,1.36,1.76a7,7,0,0,0-.32,1.88c0,3,1.6,5.84,5.6,5.84s6.28-3,6.28-8.28V180.22a1.55,1.55,0,0,1,1.72-1.68h1.88a1.52,1.52,0,0,1,1.68,1.68v13.84c0,8.52-4.2,12.92-11.48,12.92C557.94,207,555.1,201.74,555.1,197Z"/><path class="cls-3" d="M593.9,201.42l-4.76-7.56v11a1.52,1.52,0,0,1-1.68,1.68h-1.92a1.52,1.52,0,0,1-1.68-1.68V180.22a1.52,1.52,0,0,1,1.68-1.68h1.92a1.52,1.52,0,0,1,1.68,1.68v11.52l8.24-12.08a2.19,2.19,0,0,1,2-1.12h2.68c1.2,0,1.4.8.72,1.84l-8.64,12.32,4.48,6.68c1.24,2,2.52,3.28,4,3.24a4.72,4.72,0,0,0,1.48-.28,1.33,1.33,0,0,1,1.92.84l.32.68a1.57,1.57,0,0,1-.84,2.36,8.71,8.71,0,0,1-3.6.76C598.1,207,595.46,204.26,593.9,201.42Z"/><path class="cls-3" d="M610.1,204.86V180.22a1.52,1.52,0,0,1,1.68-1.68h1.92a1.52,1.52,0,0,1,1.68,1.68V202.1h11a1.58,1.58,0,0,1,1.72,1.72v1a1.55,1.55,0,0,1-1.72,1.68H611.78A1.52,1.52,0,0,1,610.1,204.86Z"/><path class="cls-3" d="M631.22,204.74l2.32-24.6a1.57,1.57,0,0,1,1.72-1.6h2.52a1.93,1.93,0,0,1,2,1.32L647.66,199l7.88-19.12a1.93,1.93,0,0,1,2-1.32H660a1.56,1.56,0,0,1,1.72,1.6l2.32,24.6a1.48,1.48,0,0,1-1.64,1.8h-1.88a1.6,1.6,0,0,1-1.76-1.6l-1.52-17.76L650,204.9a1.91,1.91,0,0,1-2,1.32h-.84a1.91,1.91,0,0,1-2-1.32L638,187.18l-1.52,17.76a1.6,1.6,0,0,1-1.76,1.6h-1.88A1.48,1.48,0,0,1,631.22,204.74Z"/><path class="cls-3" d="M328.42,245.86V221.22a1.52,1.52,0,0,1,1.68-1.68h1a2.39,2.39,0,0,1,2.08,1L346,238V221.22a1.52,1.52,0,0,1,1.68-1.68h1.92a1.55,1.55,0,0,1,1.72,1.68v24.64a1.55,1.55,0,0,1-1.72,1.68h-1a2.44,2.44,0,0,1-2.08-1L333.7,229v16.88a1.52,1.52,0,0,1-1.68,1.68H330.1A1.52,1.52,0,0,1,328.42,245.86Z"/><path class="cls-3" d="M356.42,233.54A14.7,14.7,0,1,1,371.14,248,14.42,14.42,0,0,1,356.42,233.54Zm24,0c0-5.52-4-9.8-9.32-9.8s-9.36,4.28-9.36,9.8,4,9.8,9.36,9.8S380.46,239.06,380.46,233.54Z"/><path class="cls-3" d="M411.7,228.7c0,4.88-3.24,8.84-8.88,8.84h-6.64v8.32a1.52,1.52,0,0,1-1.68,1.68h-1.92a1.52,1.52,0,0,1-1.68-1.68V221.22a1.52,1.52,0,0,1,1.68-1.68h10.24C408.5,219.54,411.7,223.78,411.7,228.7Zm-5.4,0c0-2.72-1.68-4.68-4.36-4.68h-5.76v9.32h5.76C404.66,233.3,406.3,231.34,406.3,228.66Z"/><path class="cls-3" d="M427.22,248.38l-.12-.56a14.58,14.58,0,1,1,5-.12,4.34,4.34,0,0,0,4.68,3.56,7,7,0,0,0,2.4-.52c1-.36,1.8-.2,2.24.8l.32.64c.48.92.08,2-1.32,2.56a10.32,10.32,0,0,1-3.88.76C430.82,255.5,428.22,252.14,427.22,248.38Zm11.32-14.84a9.45,9.45,0,0,0-9.36-9.8c-5.32,0-9.36,4.28-9.36,9.8s4,9.8,9.36,9.8A9.45,9.45,0,0,0,438.54,233.54Z"/><path class="cls-3" d="M458.82,237.3h-4.64v8.56a1.52,1.52,0,0,1-1.68,1.68h-1.92a1.52,1.52,0,0,1-1.68-1.68V221.22a1.52,1.52,0,0,1,1.68-1.68h10.56c5.72,0,8.92,4.16,8.92,9.08,0,4.16-2.32,7.48-6.36,8.4.28,3,2,6.64,4.72,6.64a3.91,3.91,0,0,0,1.92-.4c1-.4,1.56-.24,2,.72l.28.56c.44,1,.36,1.76-.52,2.28a8.33,8.33,0,0,1-4.4,1.16C460.94,248,459.1,240.54,458.82,237.3Zm1.48-4c2.68,0,4.36-2,4.36-4.64S462.94,224,460.3,224h-6.12v9.32Z"/><path class="cls-3" d="M474.78,242.1c-.44-1,.12-1.8,1.2-2l1.4-.36c1-.24,1.56.16,2.12,1.12a6.08,6.08,0,0,0,5.44,2.76c3.2,0,5.16-1.48,5.16-3.6,0-1.76-1.4-3-3.6-3.76l-3.88-1.36c-4.32-1.4-7-4.24-7-7.68,0-5,4.32-8.08,9.48-8.08,4.36,0,7.48,2,8.88,5.2a1.42,1.42,0,0,1-1.08,2.12l-1.28.36a1.67,1.67,0,0,1-2.16-1c-.8-1.52-2.28-2.24-4.32-2.24-2.28,0-4.28,1.2-4.28,3.36,0,1.08.44,2.4,3.24,3.44l3.92,1.44c5.08,1.64,7.2,4.68,7.24,7.92,0,5.24-4.32,8.28-10.24,8.28C479.9,248,476.26,245.62,474.78,242.1Z"/><path class="cls-3" d="M520.33,221.22v1a1.55,1.55,0,0,1-1.68,1.72h-7.12v21.88a1.52,1.52,0,0,1-1.68,1.68H508a1.52,1.52,0,0,1-1.68-1.68V224h-7.08a1.55,1.55,0,0,1-1.68-1.72v-1a1.52,1.52,0,0,1,1.68-1.68h19.44A1.52,1.52,0,0,1,520.33,221.22Z"/><path class="cls-3" d="M524.22,237v-15.8a1.52,1.52,0,0,1,1.68-1.68h1.92a1.52,1.52,0,0,1,1.68,1.68V237c0,4.2,2.8,6.32,6.08,6.32s6.08-2.12,6.08-6.32v-15.8a1.52,1.52,0,0,1,1.68-1.68h1.92a1.52,1.52,0,0,1,1.68,1.68V237c0,7.16-5.2,11-11.36,11S524.22,244.18,524.22,237Z"/><path class="cls-3" d="M560.18,246.18l-8.64-24.68c-.4-1.16.12-2,1.36-2h2a1.86,1.86,0,0,1,1.92,1.4l6.4,19.88,6.36-19.88a1.86,1.86,0,0,1,1.92-1.4h2c1.2,0,1.72.8,1.32,2l-8.68,24.68a1.82,1.82,0,0,1-1.92,1.36H562.1A1.84,1.84,0,0,1,560.18,246.18Z"/><path class="cls-3" d="M585.66,246.14l-7.72-24.68a1.33,1.33,0,0,1,1.4-1.92h1.88a1.79,1.79,0,0,1,1.88,1.4l5.44,17.72,5.2-16.8a1.81,1.81,0,0,1,1.88-1.4h1.16a1.82,1.82,0,0,1,1.88,1.4l5.16,16.8,5.44-17.72a1.82,1.82,0,0,1,1.88-1.4H613a1.33,1.33,0,0,1,1.4,1.92l-7.72,24.68a1.81,1.81,0,0,1-1.88,1.4h-1.4a1.82,1.82,0,0,1-1.88-1.4l-5.36-17.48-5.36,17.48a1.79,1.79,0,0,1-1.88,1.4h-1.4A1.82,1.82,0,0,1,585.66,246.14Z"/><path class="cls-3" d="M616.94,245.62,627,232.7l-9-11.24c-.8-1-.36-1.92.92-1.92h2.64a2.13,2.13,0,0,1,1.88.92l6.68,8.36,6.64-8.36a2.13,2.13,0,0,1,1.88-.92h2.64c1.28,0,1.72.88,1,1.92l-9,11.24,10.08,12.92c.76,1.08.36,1.92-.92,1.92h-2.8a2,2,0,0,1-1.84-.92l-7.64-9.76-7.64,9.76a2.12,2.12,0,0,1-1.88.92h-2.8C616.58,247.54,616.14,246.7,616.94,245.62Z"/><path class="cls-3" d="M655.78,245.86V236.1L646,221.58c-.76-1.16-.28-2,1.12-2h2.44a2.15,2.15,0,0,1,2,1.12l6.76,10.92,6.84-10.92a2.15,2.15,0,0,1,2-1.12h2.44c1.36,0,1.88.88,1.08,2l-9.72,14.48v9.8a1.52,1.52,0,0,1-1.68,1.68h-1.92A1.52,1.52,0,0,1,655.78,245.86Z"/><path class="cls-3" d="M673.58,245.86v-.76a2.86,2.86,0,0,1,.76-2.08l15.16-19H676.38a1.55,1.55,0,0,1-1.68-1.72v-1a1.52,1.52,0,0,1,1.68-1.68h18.52a1.52,1.52,0,0,1,1.68,1.68V222a2.94,2.94,0,0,1-.72,2.08l-15.36,19h15.36a1.55,1.55,0,0,1,1.68,1.72v1a1.52,1.52,0,0,1-1.68,1.68h-20.6A1.52,1.52,0,0,1,673.58,245.86Z"/><path class="cls-3" d="M326.34,290.71c0-5.92,4-10.6,9.92-10.6a8,8,0,0,1,6.88,3.48v-1.32a1.55,1.55,0,0,1,1.68-1.72h1.76a1.58,1.58,0,0,1,1.72,1.72v16.92a1.55,1.55,0,0,1-1.72,1.68h-1.76a1.52,1.52,0,0,1-1.68-1.68v-1.36a8,8,0,0,1-6.88,3.48C330.38,301.3,326.34,296.63,326.34,290.71Zm16.88,0c0-3.64-2.4-6.32-6-6.32s-5.76,2.88-5.76,6.32,2.12,6.32,5.76,6.32S343.18,294.35,343.22,290.71Z"/><path class="cls-3" d="M358.9,297.83v1.36a1.52,1.52,0,0,1-1.68,1.68h-1.76a1.55,1.55,0,0,1-1.72-1.68V273.63a1.55,1.55,0,0,1,1.72-1.68h1.76a1.52,1.52,0,0,1,1.68,1.68v10a8,8,0,0,1,6.88-3.48c5.88,0,9.92,4.68,9.92,10.6s-4,10.6-9.92,10.6A8,8,0,0,1,358.9,297.83Zm11.64-7.12c0-3.44-2.08-6.32-5.76-6.32-3.52,0-5.92,2.68-6,6.32s2.44,6.32,6,6.32C368.46,297,370.54,294.19,370.54,290.71Z"/><path class="cls-3" d="M378.5,290.87c0-5.92,4.32-10.76,11.6-10.76a12.3,12.3,0,0,1,6.24,1.72,1.46,1.46,0,0,1,.4,2.36l-.48.6c-.64.88-1.36.92-2.36.44a8.09,8.09,0,0,0-3.52-.8c-3.88,0-6.72,2.6-6.72,6.28s2.84,6.32,6.72,6.32a8.76,8.76,0,0,0,3.52-.8c1-.48,1.76-.44,2.36.4l.48.64c.64.88.44,1.92-.88,2.6a12,12,0,0,1-5.76,1.44C383,301.3,378.5,296.67,378.5,290.87Z"/><path class="cls-3" d="M399.7,290.71c0-5.92,4-10.6,9.88-10.6a7.89,7.89,0,0,1,6.88,3.48v-10a1.55,1.55,0,0,1,1.72-1.68h1.76a1.52,1.52,0,0,1,1.68,1.68v25.56a1.52,1.52,0,0,1-1.68,1.68h-1.76a1.55,1.55,0,0,1-1.72-1.68v-1.36a7.89,7.89,0,0,1-6.88,3.48C403.7,301.3,399.7,296.63,399.7,290.71Zm16.88,0c0-3.64-2.44-6.32-6-6.32s-5.72,2.88-5.72,6.32,2.08,6.32,5.72,6.32S416.54,294.35,416.58,290.71Z"/><path class="cls-3" d="M425.74,290.79a10.61,10.61,0,0,1,11-10.68c5.44,0,10.16,3.28,10.56,9.76.08,1-.6,1.6-1.68,1.6H430.74c-.08,3.08,2.64,5.6,6.84,5.6a9.16,9.16,0,0,0,5-1.48,1.7,1.7,0,0,1,2.36.32l.36.44a1.61,1.61,0,0,1-.32,2.56,12.27,12.27,0,0,1-7.64,2.4C430.14,301.3,425.74,296.59,425.74,290.79Zm16.64-2.56c-.8-3.2-3.36-4-5.52-4a5.75,5.75,0,0,0-5.88,4Z"/><path class="cls-3" d="M452.38,299.19V284.47h-2a.82.82,0,0,1-.92-.92v-1.92a.82.82,0,0,1,.92-.92h2v-1.4c0-6.36,3.88-7.76,7.16-7.76,3.76,0,6.48,1.88,6.48,5.28a3.5,3.5,0,0,1-.08.64.76.76,0,0,1-.84.6h-2.4a.75.75,0,0,1-.84-.72v-.28c0-.88-.88-1.48-2-1.48-1.56,0-2.36,1.16-2.36,3v2.16h4a.82.82,0,0,1,.92.92v1.92a.82.82,0,0,1-.92.92h-3.92v14.72a1.52,1.52,0,0,1-1.68,1.68h-1.8A1.55,1.55,0,0,1,452.38,299.19Z"/><path class="cls-3" d="M467.46,308.3a1.58,1.58,0,0,1-.6-2.32l.4-.72a1.45,1.45,0,0,1,2.28-.6,10.6,10.6,0,0,0,5.4,1.44c3.68,0,6.24-2,6.24-6.2v-2.08a8,8,0,0,1-6.92,3.48c-5.88,0-9.88-4.76-9.88-10.6s4-10.6,9.88-10.6a7.93,7.93,0,0,1,6.88,3.48v-1.44a1.48,1.48,0,0,1,1.68-1.6h1.72a1.55,1.55,0,0,1,1.68,1.72v17.68c0,7.32-5.12,10.32-11,10.32A14.89,14.89,0,0,1,467.46,308.3Zm13.76-17.6c0-3.64-2.4-6.36-6-6.36s-5.76,2.92-5.76,6.36,2.12,6.36,5.76,6.36S481.18,294.35,481.22,290.71Z"/><path class="cls-3" d="M491.7,299.19V273.63a1.52,1.52,0,0,1,1.68-1.68h1.76a1.55,1.55,0,0,1,1.72,1.68v10.52c.92-2.56,3.32-4,6.44-4,5,0,7.6,3.6,7.6,9.16v9.92a1.55,1.55,0,0,1-1.72,1.68h-1.76a1.52,1.52,0,0,1-1.68-1.68v-9.68c0-3.48-1.52-5.08-3.64-5.08s-5.24,1.56-5.24,6.52v8.24a1.55,1.55,0,0,1-1.72,1.68h-1.76A1.52,1.52,0,0,1,491.7,299.19Z"/><path class="cls-3" d="M515.5,274.55a3,3,0,0,1,3.24-3,3,3,0,1,1-3.24,3Zm.68,24.64V282.27a1.55,1.55,0,0,1,1.68-1.72h1.8a1.55,1.55,0,0,1,1.68,1.72v16.92a1.52,1.52,0,0,1-1.68,1.68h-1.8A1.52,1.52,0,0,1,516.18,299.19Z"/><path class="cls-3" d="M520,305a3.43,3.43,0,0,1,0-.64.76.76,0,0,1,.84-.6h2.44a.75.75,0,0,1,.84.72v.28c0,.88.84,1.48,2,1.48,1.52,0,2.28-1.16,2.28-3l0-21a1.55,1.55,0,0,1,1.68-1.72h1.8a1.55,1.55,0,0,1,1.68,1.72V302.5c0,6.36-3.84,7.76-7.16,7.76C522.66,310.26,520,308.38,520,305Zm7.84-30.43a3,3,0,0,1,3.24-3,3,3,0,1,1-3.24,3Z"/><path class="cls-3" d="M547.74,296.71l-3.4-5.8v8.28a1.55,1.55,0,0,1-1.72,1.68h-1.76a1.52,1.52,0,0,1-1.68-1.68V273.63a1.52,1.52,0,0,1,1.68-1.68h1.76a1.55,1.55,0,0,1,1.72,1.68v15.32l5.6-7.36a2.24,2.24,0,0,1,2-1h2.08c1.44,0,1.88,1,1,2.08l-5.84,7.28,3,4.72c1,1.56,1.72,2.36,3.2,2.36a4.38,4.38,0,0,0,1.52-.28c.68-.24,1.08-.12,1.4.44l.76,1.56c.28.56.08,1.28-1,1.8a8.15,8.15,0,0,1-3.6.8C550.82,301.3,549.14,299.06,547.74,296.71Z"/><path class="cls-3" d="M562.18,299.19V273.63a1.52,1.52,0,0,1,1.68-1.68h1.8a1.52,1.52,0,0,1,1.68,1.68v25.56a1.52,1.52,0,0,1-1.68,1.68h-1.8A1.52,1.52,0,0,1,562.18,299.19Z"/><path class="cls-3" d="M572.94,299.19V282.27a1.55,1.55,0,0,1,1.68-1.72h1.76a1.58,1.58,0,0,1,1.72,1.72v1.88a5.9,5.9,0,0,1,5.92-4,6.39,6.39,0,0,1,6.12,3.88,7,7,0,0,1,6.72-3.88c5,0,7.6,3.64,7.6,9.2v9.88a1.52,1.52,0,0,1-1.68,1.68H601a1.55,1.55,0,0,1-1.72-1.68v-9.76c0-3.44-1.44-5-3.44-5-1.8,0-4.44,1.32-4.56,6.12v8.64a1.55,1.55,0,0,1-1.72,1.68h-1.76a1.52,1.52,0,0,1-1.68-1.68v-9.76c0-3.44-1.48-5-3.48-5s-4.56,1.48-4.56,6.44v8.32a1.55,1.55,0,0,1-1.72,1.68h-1.76A1.52,1.52,0,0,1,572.94,299.19Z"/><path class="cls-3" d="M327.7,340.19V323.27a1.55,1.55,0,0,1,1.68-1.72h1.76a1.58,1.58,0,0,1,1.72,1.72v1.88c.92-2.56,3.32-4,6.44-4,5,0,7.6,3.6,7.6,9.16v9.92a1.55,1.55,0,0,1-1.72,1.68h-1.76a1.52,1.52,0,0,1-1.68-1.68v-9.68c0-3.48-1.52-5.08-3.64-5.08s-5.24,1.56-5.24,6.52v8.24a1.55,1.55,0,0,1-1.72,1.68h-1.76A1.52,1.52,0,0,1,327.7,340.19Z"/><path class="cls-3" d="M350.74,331.71a11,11,0,1,1,11,10.6A10.7,10.7,0,0,1,350.74,331.71Zm17,0a6,6,0,1,0-6,6.24A6.12,6.12,0,0,0,367.7,331.75Z"/><path class="cls-3" d="M376.82,349.14V323.27a1.55,1.55,0,0,1,1.68-1.72h1.76a1.58,1.58,0,0,1,1.72,1.72v1.32a7.89,7.89,0,0,1,6.88-3.48c5.88,0,9.88,4.68,9.88,10.6s-4,10.6-9.88,10.6a7.89,7.89,0,0,1-6.88-3.48v10.32a1.55,1.55,0,0,1-1.72,1.68H378.5A1.52,1.52,0,0,1,376.82,349.14Zm16.76-17.44c0-3.44-2.08-6.32-5.72-6.32s-6,2.68-6,6.32,2.44,6.32,6,6.32S393.58,335.19,393.58,331.71Z"/><path class="cls-3" d="M418.34,349.14V338.83a8,8,0,0,1-6.88,3.48c-5.88,0-9.92-4.68-9.92-10.6s4-10.6,9.92-10.6a8,8,0,0,1,6.88,3.48v-1.32a1.55,1.55,0,0,1,1.68-1.72h1.76a1.58,1.58,0,0,1,1.72,1.72v25.88a1.55,1.55,0,0,1-1.72,1.68H420A1.52,1.52,0,0,1,418.34,349.14Zm.08-17.44c0-3.64-2.4-6.32-6-6.32s-5.76,2.88-5.76,6.32,2.12,6.32,5.76,6.32S418.38,335.35,418.42,331.71Z"/><path class="cls-3" d="M429,340.19V323.27a1.55,1.55,0,0,1,1.68-1.72h1.68a1.55,1.55,0,0,1,1.68,1.72v2.8c.68-3.48,3.28-5,5.36-5a6.1,6.1,0,0,1,.8.08c.88.08,1,.8,1,1.6v2c0,1-.48,1.48-1.24,1.36a4.88,4.88,0,0,0-1-.12c-1.92,0-4.8,1.16-4.8,7.8v6.36a1.55,1.55,0,0,1-1.72,1.68h-1.76A1.52,1.52,0,0,1,429,340.19Z"/><path class="cls-3" d="M443.26,338.31c-.52-1.08,0-1.84,1.12-2.12l1-.24c1-.24,1.44.2,2.12,1a4.33,4.33,0,0,0,3.36,1.44c1.76,0,3-1,3-2.24,0-1.08-.84-1.64-2.16-2.12l-2.6-.92c-2.6-.8-5.4-2.4-5.4-5.72,0-3.6,3-6.24,7.16-6.24,2.56,0,4.92.84,6.32,3.24.68,1,.12,1.88-1,2.16l-.92.24a1.94,1.94,0,0,1-2.12-.8A2.7,2.7,0,0,0,451,325a2.21,2.21,0,0,0-2.48,2.12c0,1.08,1,1.64,2.08,2l2.72,1c4,1.28,5.32,3.64,5.36,6,0,4.08-3.6,6.24-7.76,6.24C447.5,342.3,444.62,340.94,443.26,338.31Z"/><path class="cls-3" d="M463.86,335.27v-9.8h-2.24a.82.82,0,0,1-.92-.92v-2.08a.84.84,0,0,1,.92-.92h2.48l.72-4.36a1.3,1.3,0,0,1,1.4-1.2h1.4a1.2,1.2,0,0,1,1.32,1.32v4.24h5a.84.84,0,0,1,.92.92v2.08a.82.82,0,0,1-.92.92h-5v10c0,1.84.92,2.56,2,2.56a1.94,1.94,0,0,0,2-2,4.85,4.85,0,0,0,0-.72c-.08-.64.12-1,.76-1h2.12a.94.94,0,0,1,1,.72,8,8,0,0,1,.2,1.52c0,3.76-2.64,5.76-6.44,5.76C467.26,342.3,463.86,340.71,463.86,335.27Z"/><path class="cls-3" d="M480,333.15v-9.88a1.58,1.58,0,0,1,1.72-1.72h1.76a1.55,1.55,0,0,1,1.68,1.72v9.64c0,3.48,1.52,5.08,3.64,5.08s5.24-1.56,5.24-6.48v-8.24a1.58,1.58,0,0,1,1.72-1.72h1.76a1.55,1.55,0,0,1,1.68,1.72v16.92a1.52,1.52,0,0,1-1.68,1.68h-1.76a1.55,1.55,0,0,1-1.72-1.68v-1.92c-.92,2.56-3.32,4-6.44,4C482.62,342.3,480,338.71,480,333.15Z"/><path class="cls-3" d="M510.22,340.54l-6.84-17c-.48-1.16,0-2,1.28-2h1.92a1.86,1.86,0,0,1,2,1.4l4.88,13.28,4.88-13.28a1.85,1.85,0,0,1,1.92-1.4h2c1.24,0,1.76.8,1.28,2l-6.84,17a2,2,0,0,1-2,1.32h-2.4A2,2,0,0,1,510.22,340.54Z"/><path class="cls-3" d="M532.46,340.5l-6.12-17c-.4-1.2.12-2,1.4-2h2a1.78,1.78,0,0,1,1.88,1.4l4,12,3.56-11.4a1.86,1.86,0,0,1,1.92-1.4h.72a1.79,1.79,0,0,1,1.88,1.4l3.6,11.4,3.92-12a1.82,1.82,0,0,1,1.92-1.4h2c1.24,0,1.8.76,1.36,2l-6.08,17a1.82,1.82,0,0,1-1.92,1.36h-1.56a1.78,1.78,0,0,1-1.88-1.4l-3.56-11.2-3.56,11.2a1.79,1.79,0,0,1-1.92,1.4h-1.52A1.86,1.86,0,0,1,532.46,340.5Z"/><path class="cls-3" d="M559.54,339.79l7-8.44-6.36-7.72c-.92-1.12-.48-2.08,1-2.08h1.88a2.48,2.48,0,0,1,2,1l4.72,5.6,4.68-5.6a2.5,2.5,0,0,1,2.08-1h1.88c1.48,0,1.92,1,1,2.08l-6.36,7.72,7,8.44c.92,1.12.48,2.08-1,2.08h-1.92a2.52,2.52,0,0,1-2.08-1l-5.32-6.4-5.36,6.4a2.47,2.47,0,0,1-2.08,1H560.5C559.06,341.86,558.62,340.9,559.54,339.79Z"/><path class="cls-3" d="M587.58,348.86l3.24-8.08-7.64-17.24c-.52-1.16,0-2,1.32-2h2.16a1.86,1.86,0,0,1,1.92,1.36l4.88,12.36,4.68-12.36a2,2,0,0,1,2-1.36h2.12c1.24,0,1.8.8,1.28,2l-11.2,26a1.9,1.9,0,0,1-2,1.28H588.9C587.62,350.82,587.1,350,587.58,348.86Z"/><path class="cls-3" d="M606,340.19V340a2.77,2.77,0,0,1,.84-2.08l11.52-12.32h-10a1.55,1.55,0,0,1-1.68-1.72v-.64a1.55,1.55,0,0,1,1.68-1.72H624a1.55,1.55,0,0,1,1.68,1.72v.16a2.78,2.78,0,0,1-.84,2.08l-11.48,12.32h11.4a1.52,1.52,0,0,1,1.68,1.68v.68a1.55,1.55,0,0,1-1.72,1.68h-17A1.55,1.55,0,0,1,606,340.19Z"/><rect class="cls-5" x="463.5" y="157.37" width="438.14" height="233.56"/><rect class="cls-4" x="470.26" y="152.44" width="113.36" height="229.3"/><path class="cls-3" d="M506,205.3l10.16-25.88a1.2,1.2,0,0,1,1.24-.88h1.92a1.2,1.2,0,0,1,1.24.88l10.2,25.88c.28.76,0,1.24-.84,1.24h-1a1.25,1.25,0,0,1-1.28-.88l-2-5.12H511.1l-2,5.12a1.17,1.17,0,0,1-1.24.88h-1C506.06,206.54,505.74,206.06,506,205.3Zm18.72-7.36-6.36-16.4-6.32,16.4Z"/><path class="cls-3" d="M556.14,199.3c0,4.44-3.72,7.24-9.08,7.24H537a1,1,0,0,1-1.08-1.08V179.62a1,1,0,0,1,1.08-1.08h8.72c5.08,0,9,2.52,9,7.08,0,3-1.76,5.68-5.6,6.64C553.78,192.82,556.14,195.78,556.14,199.3Zm-17-18.16v10.08h5c5.28,0,7.36-2.64,7.36-5.4,0-3.12-2.72-4.68-5.76-4.68Zm13.8,18.08c0-2.92-2.48-5.52-7.88-5.52H539.1v10.24h8C550.42,203.94,552.9,202.14,552.9,199.22Z"/><path class="cls-3" d="M560.06,192.54c0-7.8,5.6-14.44,15.12-14.44a14.44,14.44,0,0,1,8.32,2.4,1,1,0,0,1,.4,1.44l-.28.52a1,1,0,0,1-1.48.4,13.77,13.77,0,0,0-7-1.92c-7.56,0-11.92,5.32-11.92,11.6s4.36,11.6,11.92,11.6a13.77,13.77,0,0,0,7-1.92,1,1,0,0,1,1.48.4l.28.52c.28.6.24,1-.2,1.32a14.36,14.36,0,0,1-8.52,2.52C565.66,207,560.06,200.34,560.06,192.54Z"/><path class="cls-3" d="M589.7,205.46V179.62a1,1,0,0,1,1.08-1.08h7.68c8.6,0,14.2,6.28,14.2,14s-5.6,14-14.2,14h-7.68A1,1,0,0,1,589.7,205.46Zm8.76-1.52c6.6,0,11-5.12,11-11.4s-4.36-11.4-11-11.4h-5.6v22.8Z"/><path class="cls-3" d="M621.86,181.14V191.5h11.4a1,1,0,0,1,1.08,1.08v.48a1,1,0,0,1-1.08,1.08h-11.4v9.8H635.1a1,1,0,0,1,1,1v.48a1,1,0,0,1-1,1.08H619.78a1,1,0,0,1-1.08-1.08V179.62a1,1,0,0,1,1.08-1.08H635.1a1,1,0,0,1,1,1.08v.48a1,1,0,0,1-1,1Z"/><path class="cls-3" d="M659.74,179.62v.48a1,1,0,0,1-1,1H645.46V191.5h11.4a1,1,0,0,1,1.08,1.08v.48a1,1,0,0,1-1.08,1.08h-11.4v11.32a1,1,0,0,1-1.08,1.08h-1a1,1,0,0,1-1.08-1.08V179.62a1,1,0,0,1,1.08-1.08H658.7A1,1,0,0,1,659.74,179.62Z"/><path class="cls-3" d="M662.86,192.58A14.49,14.49,0,0,1,677.3,178.1a16.86,16.86,0,0,1,9.28,2.28,1,1,0,0,1,.36,1.48l-.28.56a.92.92,0,0,1-1.48.4,14.16,14.16,0,0,0-7.88-1.88,11.42,11.42,0,0,0-11.2,11.6,11.3,11.3,0,0,0,11.8,11.6,12.33,12.33,0,0,0,7.28-2.16V195.5h-7a1,1,0,0,1-1.08-1.08v-.48a1,1,0,0,1,1.08-1.08H687a1,1,0,0,1,1.08,1.08v8.48a2,2,0,0,1-1,1.6,15.2,15.2,0,0,1-9.32,3C669.1,207,662.86,200.46,662.86,192.58Z"/><path class="cls-3" d="M694.5,205.46V179.62a1,1,0,0,1,1.08-1.08h1a1,1,0,0,1,1.08,1.08V191.9H712V179.62a1,1,0,0,1,1.08-1.08h1a1,1,0,0,1,1.08,1.08v25.84a1,1,0,0,1-1.08,1.08h-1a1,1,0,0,1-1.08-1.08v-11H697.66v11a1,1,0,0,1-1.08,1.08h-1A1,1,0,0,1,694.5,205.46Z"/><path class="cls-3" d="M723.3,205.46V179.62a1,1,0,0,1,1.08-1.08h1a1,1,0,0,1,1.08,1.08v25.84a1,1,0,0,1-1.08,1.08h-1A1,1,0,0,1,723.3,205.46Z"/><path class="cls-3" d="M731.82,196.94a9,9,0,0,1,.4-2.36,1.1,1.1,0,0,1,1.2-.84h.92c.76,0,1,.44.88,1.2a8.31,8.31,0,0,0-.32,1.88c0,3.84,2.2,7.32,7.36,7.32,5.36,0,8.24-3.8,8.24-10.32v-14.2a1,1,0,0,1,1-1.08h1a1,1,0,0,1,1.08,1.08v14.2c0,8.52-4.2,13.16-11.36,13.16C734.86,207,731.82,202.06,731.82,196.94Z"/><path class="cls-3" d="M769.86,201.26l-5.44-7.08v11.28a1,1,0,0,1-1,1.08h-1a1,1,0,0,1-1-1.08V179.62a1,1,0,0,1,1-1.08h1a1,1,0,0,1,1,1.08v12.92l10.2-13.32a1.43,1.43,0,0,1,1.32-.68h1.76c.64,0,.68.56.28,1.16l-10.52,13.6,5.28,6.72c1.68,2.2,3.56,4.16,5.56,4.16a4.9,4.9,0,0,0,2.12-.48c.64-.24,1.12-.2,1.44.44l.24.4a1,1,0,0,1-.48,1.52A8.12,8.12,0,0,1,778,207C774.1,207,771.7,203.7,769.86,201.26Z"/><path class="cls-3" d="M786.22,205.46V179.62a1,1,0,0,1,1.08-1.08h1a1,1,0,0,1,1.08,1.08v24.32h12a1,1,0,0,1,1,1v.48a1,1,0,0,1-1,1.08H787.3A1,1,0,0,1,786.22,205.46Z"/><path class="cls-3" d="M806,205.42l2.44-25.88a1,1,0,0,1,1.08-1h1.76a1.2,1.2,0,0,1,1.24.84l9.8,22.68,9.8-22.68a1.2,1.2,0,0,1,1.24-.84h1.76a1,1,0,0,1,1.08,1l2.44,25.88a.94.94,0,0,1-1,1.12h-1a1.06,1.06,0,0,1-1.16-1l-2-22.4-9.6,22.2a1.2,1.2,0,0,1-1.2.84H822a1.25,1.25,0,0,1-1.24-.84l-9.56-22.2-2,22.4a1.06,1.06,0,0,1-1.16,1h-1A.94.94,0,0,1,806,205.42Z"/><path class="cls-3" d="M509,246.46V220.62a1,1,0,0,1,1.08-1.08h.52a1.63,1.63,0,0,1,1.32.64l16,21.6V220.62a1,1,0,0,1,1.08-1.08h1a1,1,0,0,1,1,1.08v25.84a1,1,0,0,1-1,1.08h-.52a1.53,1.53,0,0,1-1.32-.64l-16-21.68v21.24a1,1,0,0,1-1.08,1.08h-1A1,1,0,0,1,509,246.46Z"/><path class="cls-3" d="M537.1,233.54A14.52,14.52,0,1,1,551.62,248,14.53,14.53,0,0,1,537.1,233.54Zm25.84,0a11.3,11.3,0,1,0-11.32,11.6A11.42,11.42,0,0,0,562.94,233.54Z"/><path class="cls-3" d="M591.42,228.18c0,4.64-3.08,8.44-8.28,8.44h-7.8v9.84a1,1,0,0,1-1.08,1.08h-1a1,1,0,0,1-1.08-1.08V220.62a1,1,0,0,1,1.08-1.08h9.88C588.38,219.54,591.42,223.54,591.42,228.18Zm-3.32,0c0-3.4-2.08-6-5.56-6h-7.2v11.92h7.2C586,234.06,588.1,231.54,588.1,228.14Z"/><path class="cls-3" d="M608.54,248.58l-.2-.64a14.78,14.78,0,1,1,3-.16c.72,2.64,2.16,4.68,5.76,4.68a6.72,6.72,0,0,0,2.56-.6c.64-.28,1.16-.2,1.44.44l.2.4c.32.6.12,1.28-.76,1.68a9.67,9.67,0,0,1-3.6.72C611.46,255.1,609.54,251.7,608.54,248.58Zm12.08-15a11.3,11.3,0,1,0-11.28,11.6A11.39,11.39,0,0,0,620.62,233.54Z"/><path class="cls-3" d="M639.74,236.62H633v9.84a1,1,0,0,1-1,1.08h-1a1,1,0,0,1-1-1.08V220.62a1,1,0,0,1,1-1.08h10.44c5.24,0,8.24,4,8.24,8.64,0,4.2-2.52,7.72-6.84,8.32.24,3.24,2.16,8.76,6,8.76a4.69,4.69,0,0,0,2.2-.52c.64-.32,1.08-.28,1.44.36l.2.36a1,1,0,0,1-.32,1.44A6.69,6.69,0,0,1,648.5,248C642,248,640,240.14,639.74,236.62Zm1-2.56c3.48,0,5.56-2.52,5.56-5.92s-2.08-6-5.56-6H633v11.92Z"/><path class="cls-3" d="M654.82,242.46c-.32-.64,0-1.12.68-1.32l1-.24c.64-.16,1,.08,1.32.68a7.44,7.44,0,0,0,6.72,3.6c4.12,0,6.56-2.2,6.56-4.92,0-2.52-2.16-4.08-4.56-4.92L662,233.82c-5.32-1.72-6.28-4.8-6.28-7.16,0-4.72,4.16-7.56,8.88-7.56,4.32,0,7.44,2.12,8.6,5.28a1,1,0,0,1-.72,1.32l-.84.24c-.64.2-1,0-1.32-.68-.88-2.12-3-3.32-5.76-3.32-3,0-5.64,1.72-5.64,4.64,0,1.4.48,3.16,4,4.44l4.52,1.6c4.12,1.32,6.68,4.24,6.68,7.44,0,4.64-3.8,7.92-9.6,7.92C659.66,248,656.22,245.54,654.82,242.46Z"/><path class="cls-3" d="M699.26,220.62v.48a1,1,0,0,1-1.08,1H689.5v24.32a1,1,0,0,1-1.08,1.08h-1a1,1,0,0,1-1.08-1.08V222.14H677.7a1,1,0,0,1-1.08-1v-.48a1,1,0,0,1,1.08-1.08h20.48A1,1,0,0,1,699.26,220.62Z"/><path class="cls-3" d="M703.62,237.3V220.62a1,1,0,0,1,1.08-1.08h1a1,1,0,0,1,1.08,1.08V237.3c0,5.24,3.6,7.84,7.8,7.84s7.76-2.6,7.76-7.84V220.62a1,1,0,0,1,1.08-1.08h1a1,1,0,0,1,1.08,1.08V237.3c0,7-5,10.68-10.92,10.68S703.62,244.34,703.62,237.3Z"/><path class="cls-3" d="M739.9,246.66l-9.2-25.88c-.24-.76.08-1.24.84-1.24h1a1.2,1.2,0,0,1,1.24.88l8,23.24,8-23.24a1.13,1.13,0,0,1,1.2-.88h1c.76,0,1.12.48.88,1.24l-9.24,25.88a1.14,1.14,0,0,1-1.24.88h-1.4A1.12,1.12,0,0,1,739.9,246.66Z"/><path class="cls-3" d="M764.3,246.66l-8.16-25.88c-.2-.76.16-1.24.92-1.24h1a1.16,1.16,0,0,1,1.2.88l7,22,6.56-21a1.13,1.13,0,0,1,1.2-.88h.8a1.11,1.11,0,0,1,1.2.88l6.56,21,7-22a1.1,1.1,0,0,1,1.2-.88h1c.76,0,1.12.48.92,1.24l-8.2,25.88a1.16,1.16,0,0,1-1.2.88h-1a1.16,1.16,0,0,1-1.2-.88l-6.64-21.4-6.64,21.4a1.1,1.1,0,0,1-1.2.88h-1A1.16,1.16,0,0,1,764.3,246.66Z"/><path class="cls-3" d="M795.06,246.38l11-13.56-10-12.12c-.48-.64-.2-1.16.56-1.16h1.64a1.26,1.26,0,0,1,1.12.52l8.48,10.4,8.48-10.4a1.26,1.26,0,0,1,1.12-.52h1.64c.76,0,1,.52.52,1.16l-9.92,12.12,11,13.56c.48.64.24,1.16-.52,1.16H818.5a1.22,1.22,0,0,1-1.12-.52l-9.44-11.64L798.5,247a1.22,1.22,0,0,1-1.12.52h-1.8C794.82,247.54,794.58,247,795.06,246.38Z"/><path class="cls-3" d="M833.22,246.46V236l-9.92-15.16c-.48-.72-.12-1.28.72-1.28h1.32a1.33,1.33,0,0,1,1.28.72l8.12,13,8.2-13a1.44,1.44,0,0,1,1.28-.72h1.32c.84,0,1.2.56.72,1.28L836.34,236v10.48a1,1,0,0,1-1,1.08h-1A1,1,0,0,1,833.22,246.46Z"/><path class="cls-3" d="M849.1,246.46v-.64a2,2,0,0,1,.44-1.32l17.4-22.36H851.18a1,1,0,0,1-1-1v-.48a1,1,0,0,1,1-1.08H870a1,1,0,0,1,1.08,1.08v.64a2,2,0,0,1-.44,1.32l-17.52,22.36H871a1,1,0,0,1,1.08,1v.48a1,1,0,0,1-1.08,1.08H850.14A1,1,0,0,1,849.1,246.46Z"/><path class="cls-3" d="M506.66,290.91c0-5.72,3.84-10.44,10-10.44a8.73,8.73,0,0,1,7.84,4.4V282a1,1,0,0,1,1-1.08h.92A1,1,0,0,1,527.5,282v17.8a1,1,0,0,1-1.08,1.08h-.92a1,1,0,0,1-1-1.08v-2.84a8.66,8.66,0,0,1-7.84,4.36C510.58,301.3,506.66,296.63,506.66,290.91Zm17.84,0a7.35,7.35,0,0,0-7.56-7.72c-4.6,0-7.24,3.52-7.24,7.72s2.68,7.68,7.28,7.68A7.31,7.31,0,0,0,524.5,290.91Z"/><path class="cls-3" d="M537,296.95v2.84a1,1,0,0,1-1.08,1.08H535a1,1,0,0,1-1-1.08V273a1,1,0,0,1,1-1.08h.92A1,1,0,0,1,537,273v11.8a8.72,8.72,0,0,1,7.8-4.36c6.08,0,10,4.68,10,10.44s-3.92,10.4-10,10.4A8.64,8.64,0,0,1,537,296.95Zm14.72-6c0-4.24-2.68-7.72-7.24-7.72-4.4,0-7.52,3.2-7.56,7.72a7.36,7.36,0,0,0,7.56,7.68C549.06,298.58,551.74,295.11,551.74,290.91Z"/><path class="cls-3" d="M558.22,291.07c0-5.84,4-10.6,11.24-10.6a12.12,12.12,0,0,1,6.12,1.76,1,1,0,0,1,.32,1.52l-.28.36c-.4.56-.84.6-1.48.28a9.55,9.55,0,0,0-4.56-1.2c-4.92,0-8.24,3.28-8.28,7.72s3.36,7.68,8.28,7.68a9.55,9.55,0,0,0,4.56-1.2,1,1,0,0,1,1.48.32l.24.36c.4.56.2,1.28-.8,1.8a11.89,11.89,0,0,1-5.6,1.44C562.38,301.3,558.26,296.75,558.22,291.07Z"/><path class="cls-3" d="M579.1,290.91c0-5.76,3.92-10.44,10-10.44a8.68,8.68,0,0,1,7.8,4.36V273a1,1,0,0,1,1.08-1.08h.92A1,1,0,0,1,600,273v26.76a1,1,0,0,1-1.08,1.08H598a1,1,0,0,1-1.08-1.08v-2.84a8.6,8.6,0,0,1-7.8,4.36C583,301.3,579.1,296.63,579.1,290.91Zm17.88,0c0-4.52-3.12-7.72-7.52-7.72-4.6,0-7.28,3.48-7.28,7.72s2.68,7.68,7.28,7.68C593.86,298.58,596.94,295.39,597,290.91Z"/><path class="cls-3" d="M604.86,291a10.44,10.44,0,0,1,10.68-10.52c4.88,0,9.44,2.92,10,9.32.12.68-.32,1.08-1,1.08H607.94c-.28,4.44,3.2,7.72,8.12,7.72a9.67,9.67,0,0,0,6-2,1.06,1.06,0,0,1,1.48.12l.32.32a1.07,1.07,0,0,1-.24,1.68,11.44,11.44,0,0,1-7.56,2.6C609.18,301.3,604.86,296.63,604.86,291Zm17.56-2.48c-.92-4.12-4-5.32-6.8-5.32a7.46,7.46,0,0,0-7.4,5.32Z"/><path class="cls-3" d="M631.14,299.79V283.35H628.5c-.44,0-.64-.2-.64-.64v-1.16a.57.57,0,0,1,.64-.64h2.64v-1.64c0-6.28,3.32-7.72,6.36-7.72,3.8,0,5.76,2.12,5.76,4.88a2.34,2.34,0,0,1-.08.72.63.63,0,0,1-.56.36h-1.48a.58.58,0,0,1-.64-.6,1.83,1.83,0,0,0,0-.4c0-1.36-1.2-2.28-2.88-2.28-2,0-3.36,1.48-3.36,4.6v2.08h4.88a.59.59,0,0,1,.64.64v1.16a.57.57,0,0,1-.64.64H634.3v16.44a1,1,0,0,1-1.08,1.08h-1A1,1,0,0,1,631.14,299.79Z"/><path class="cls-3" d="M644.54,308.1a1,1,0,0,1-.32-1.48l.28-.48c.32-.68.8-.76,1.44-.32a11.12,11.12,0,0,0,6.32,1.76c4.32,0,7.28-2.64,7.28-7.2v-3.44a8.66,8.66,0,0,1-7.84,4.36c-6,0-10-4.68-10-10.4s3.84-10.44,10-10.44a8.73,8.73,0,0,1,7.84,4.4V282a1,1,0,0,1,1-1.08h.92a1,1,0,0,1,1.08,1.08v18.64c0,6.4-4.68,9.64-10.32,9.64A13,13,0,0,1,644.54,308.1Zm15-17.2a7.35,7.35,0,0,0-7.56-7.72c-4.6,0-7.24,3.52-7.24,7.72s2.68,7.68,7.28,7.68A7.31,7.31,0,0,0,659.58,290.91Z"/><path class="cls-3" d="M669,299.79V273a1,1,0,0,1,1-1.08H671a1,1,0,0,1,1.08,1.08v12.12a7.07,7.07,0,0,1,7-4.68c4.24,0,7.92,2.48,7.92,9.08v10.24a1,1,0,0,1-1.08,1.08h-.92a1,1,0,0,1-1.08-1.08V289.55c0-4.84-2.52-6.36-5-6.36-2.2,0-6.72,1.56-6.76,8v8.6a1,1,0,0,1-1.08,1.08h-.92A1,1,0,0,1,669,299.79Z"/><path class="cls-3" d="M692.5,274.27a2.16,2.16,0,0,1,2.2-2.28,2.26,2.26,0,0,1,0,4.52A2.15,2.15,0,0,1,692.5,274.27Zm.68,25.52V282a1,1,0,0,1,1.08-1.08h.92a1,1,0,0,1,1,1.08v17.8a1,1,0,0,1-1,1.08h-.92A1,1,0,0,1,693.18,299.79Z"/><path class="cls-3" d="M695.66,305.34a2.25,2.25,0,0,1,.08-.68.53.53,0,0,1,.56-.36h1.44a.61.61,0,0,1,.68.6,1.65,1.65,0,0,0,0,.4c0,1.32,1.16,2.28,2.76,2.28,1.88,0,3.2-1.28,3.2-4.28V282a1,1,0,0,1,1-1.08h1a1,1,0,0,1,1.08,1.08v20.88c0,6.16-3.24,7.4-6.2,7.4C697.58,310.26,695.66,308.1,695.66,305.34Zm8.08-31.08a2.16,2.16,0,0,1,2.2-2.28,2.26,2.26,0,0,1,0,4.52A2.15,2.15,0,0,1,703.74,274.27Z"/><path class="cls-3" d="M721.74,297.15l-4.68-6.56v9.2a1,1,0,0,1-1.08,1.08h-.92a1,1,0,0,1-1-1.08V273a1,1,0,0,1,1-1.08H716a1,1,0,0,1,1.08,1.08v16.48l7.24-8a1.53,1.53,0,0,1,1.32-.64h1.2c.92,0,1.2.64.64,1.32l-7.28,7.92,4.08,5.52c1.2,1.56,2.2,2.92,4,2.92a4.89,4.89,0,0,0,2-.44c.4-.16.68-.12.88.24l.48,1c.2.36,0,.88-.76,1.28a6.58,6.58,0,0,1-2.92.64C724.5,301.3,722.94,298.67,721.74,297.15Z"/><path class="cls-3" d="M735.26,299.79V273a1,1,0,0,1,1.08-1.08h.92a1,1,0,0,1,1,1.08v26.76a1,1,0,0,1-1,1.08h-.92A1,1,0,0,1,735.26,299.79Z"/><path class="cls-3" d="M744.9,299.79V282a1,1,0,0,1,1-1.08h.92a1,1,0,0,1,1.08,1.08v3.12a7.17,7.17,0,0,1,13.44,0,7.23,7.23,0,0,1,7-4.68c4.56,0,7.88,2.48,7.88,9.08v10.24a1,1,0,0,1-1.08,1.08h-.92a1,1,0,0,1-1-1.08V289.55c0-4.84-2.48-6.36-5-6.36-2,0-5.92,1.4-6.12,7.68v8.92a1,1,0,0,1-1.08,1.08h-.92a1,1,0,0,1-1-1.08V289.55c0-4.84-2.44-6.36-5-6.36-2.2,0-6.08,1.56-6.12,8v8.6a1,1,0,0,1-1.08,1.08h-.92A1,1,0,0,1,744.9,299.79Z"/><path class="cls-3" d="M508.18,340.79V323a1,1,0,0,1,1-1.08h.92a1,1,0,0,1,1.08,1.08v3.16a7.07,7.07,0,0,1,7-4.68c4.24,0,7.92,2.48,7.92,9.08v10.24a1,1,0,0,1-1.08,1.08h-.92a1,1,0,0,1-1.08-1.08V330.55c0-4.84-2.52-6.36-5-6.36-2.2,0-6.72,1.56-6.76,8v8.6a1,1,0,0,1-1.08,1.08h-.92A1,1,0,0,1,508.18,340.79Z"/><path class="cls-3" d="M530.66,331.91a10.48,10.48,0,1,1,10.44,10.4A10.5,10.5,0,0,1,530.66,331.91Zm17.88,0a7.41,7.41,0,1,0-14.8,0,7.4,7.4,0,1,0,14.8,0Z"/><path class="cls-3" d="M556.5,349.74V323a1,1,0,0,1,1-1.08h.92a1,1,0,0,1,1.08,1.08v2.84a8.72,8.72,0,0,1,7.8-4.36c6.08,0,10,4.68,10,10.44s-3.84,10.4-10,10.4a8.73,8.73,0,0,1-7.84-4.36v11.8a1,1,0,0,1-1.08,1.08h-.92A1,1,0,0,1,556.5,349.74Zm17.76-17.84c0-4.24-2.68-7.72-7.24-7.72a7.7,7.7,0,0,0,0,15.4C571.66,339.58,574.26,336.07,574.26,331.91Z"/><path class="cls-3" d="M598.58,349.74v-11.8a8.77,8.77,0,0,1-7.84,4.36c-6.12,0-10-4.72-10-10.4s3.92-10.44,10-10.44a8.74,8.74,0,0,1,7.84,4.36V323a1,1,0,0,1,1-1.08h.92a1,1,0,0,1,1.08,1.08v26.76a1,1,0,0,1-1.08,1.08h-.92A1,1,0,0,1,598.58,349.74Zm0-17.84a7.34,7.34,0,0,0-7.52-7.72c-4.6,0-7.28,3.48-7.28,7.72s2.64,7.68,7.24,7.68A7.32,7.32,0,0,0,598.62,331.91Z"/><path class="cls-3" d="M608.06,340.79V323a1,1,0,0,1,1-1.08H610A1,1,0,0,1,611.1,323v3.76c.76-3.24,2.92-5.28,5.84-5.28a8.45,8.45,0,0,1,1,.08c.6.12.72.6.72,1.2v.84c0,.76-.28,1.08-.8.92a10.57,10.57,0,0,0-1.08-.08c-2.56,0-5.6,2.24-5.64,9.84v6.52a1,1,0,0,1-1.08,1.08h-.92A1,1,0,0,1,608.06,340.79Z"/><path class="cls-3" d="M620.66,338.59c-.4-.68,0-1.16.64-1.36l.72-.2c.6-.16,1,.08,1.36.6a5,5,0,0,0,4.24,2c2.24,0,4-1.32,4-3.2,0-1.52-1.12-2.44-2.8-3l-2.84-.92c-2.88-.88-4.76-2.48-4.76-5.28,0-3.16,2.48-5.8,6.4-5.8a6.24,6.24,0,0,1,5.8,3.28c.36.68,0,1.2-.72,1.36l-.64.16c-.6.16-1-.08-1.36-.64a3.61,3.61,0,0,0-3-1.52,3.23,3.23,0,0,0-3.52,3.08c0,1.64,1.4,2.44,2.76,2.88l3,1c3.56,1.08,4.64,3.28,4.64,5.48,0,3.64-3.2,5.8-6.92,5.8A7.52,7.52,0,0,1,620.66,338.59Z"/><path class="cls-3" d="M640.18,335.63V324.35h-2.72a.56.56,0,0,1-.64-.64v-1.16a.57.57,0,0,1,.64-.64h2.72l.6-5.12a.91.91,0,0,1,1-.88h.52a.85.85,0,0,1,1,.92v5.08h5.8a.59.59,0,0,1,.64.64v1.16a.57.57,0,0,1-.64.64h-5.8v11.48c0,2.92,1.36,3.8,2.88,3.8A2.62,2.62,0,0,0,649,337a2.91,2.91,0,0,0-.08-.72c0-.48.12-.72.56-.72h1.4a.66.66,0,0,1,.72.52,6.23,6.23,0,0,1,.16,1.32c0,2.76-2,4.92-5.6,4.92C643.14,342.3,640.18,340.86,640.18,335.63Z"/><path class="cls-3" d="M655.14,333.27V323a1,1,0,0,1,1.08-1.08h.92a1,1,0,0,1,1.08,1.08v10.28c0,4.8,2.52,6.32,5,6.32,2.2,0,6.72-1.56,6.76-8V323a1,1,0,0,1,1.08-1.08H672A1,1,0,0,1,673.1,323v17.8a1,1,0,0,1-1.08,1.08h-.92a1,1,0,0,1-1.08-1.08v-3.16a7,7,0,0,1-7,4.68C658.82,342.3,655.14,339.83,655.14,333.27Z"/><path class="cls-3" d="M684.82,341l-7-17.84c-.28-.76,0-1.24.84-1.24h1a1.16,1.16,0,0,1,1.2.88l6,15.68,6-15.68a1.17,1.17,0,0,1,1.24-.88h1c.8,0,1.12.48.84,1.24l-7,17.84a1.28,1.28,0,0,1-1.28.88h-1.6A1.2,1.2,0,0,1,684.82,341Z"/><path class="cls-3" d="M705.66,341l-6.72-17.84c-.28-.76.08-1.24.88-1.24h.92a1.14,1.14,0,0,1,1.24.88l5.56,15,4.76-14.32a1.2,1.2,0,0,1,1.2-.88h.8a1.17,1.17,0,0,1,1.2.88l4.8,14.32,5.56-15a1.12,1.12,0,0,1,1.2-.88h1c.8,0,1.16.48.88,1.24L722.17,341a1.16,1.16,0,0,1-1.24.88h-1.08a1.13,1.13,0,0,1-1.2-.88l-4.76-14.08L709.18,341a1.16,1.16,0,0,1-1.2.88h-1.12A1.16,1.16,0,0,1,705.66,341Z"/><path class="cls-3" d="M731.86,340.54l7.68-9.12-6.92-8.2c-.56-.68-.28-1.32.64-1.32h1a1.57,1.57,0,0,1,1.32.64l6.08,7,6-7a1.57,1.57,0,0,1,1.32-.64h1c.92,0,1.2.64.64,1.32l-6.92,8.2,7.68,9.12c.56.72.28,1.32-.64,1.32h-1.12a1.54,1.54,0,0,1-1.32-.6l-6.64-7.92-6.68,7.92a1.54,1.54,0,0,1-1.32.6H732.5C731.58,341.86,731.3,341.26,731.86,340.54Z"/><path class="cls-3" d="M759,349.58l3.16-8-8-18.36c-.28-.76,0-1.28.84-1.28h1.24a1.17,1.17,0,0,1,1.2.84l6.4,15.32,6-15.28a1.2,1.2,0,0,1,1.24-.88h1.28c.8,0,1.16.48.84,1.28L761.82,350a1.2,1.2,0,0,1-1.24.84h-.76C759,350.82,758.7,350.34,759,349.58Z"/><path class="cls-3" d="M775.66,340.79v-.2a1.91,1.91,0,0,1,.52-1.32l14-14.84H777.66a1,1,0,0,1-1-1.08V323a1,1,0,0,1,1-1.08h15.68a1,1,0,0,1,1.08,1.08v.2a1.84,1.84,0,0,1-.52,1.32l-14,14.84h14.36a1,1,0,0,1,1,1.08v.36a1,1,0,0,1-1.08,1.08H776.74A1,1,0,0,1,775.66,340.79Z"/><path class="cls-3" d="M107.46,96.71v-16a1,1,0,0,1,1.09-1.09h1.25a1,1,0,0,1,1.09,1.09v7h7.59v-7a1,1,0,0,1,1.09-1.09h1.25a1,1,0,0,1,1.09,1.09v16a1,1,0,0,1-1.09,1.09h-1.25a1,1,0,0,1-1.09-1.09V90.53h-7.59v6.19a1,1,0,0,1-1.09,1.09h-1.25A1,1,0,0,1,107.46,96.71Z"/><path class="cls-3" d="M125.09,91.25a6.9,6.9,0,0,1,7.18-6.94c3.54,0,6.6,2.13,6.86,6.34.05.68-.39,1-1.09,1h-9.7c-.05,2,1.72,3.64,4.45,3.64a6,6,0,0,0,3.25-1,1.11,1.11,0,0,1,1.53.21l.23.29a1.05,1.05,0,0,1-.21,1.66,8,8,0,0,1-5,1.56C127.95,98.09,125.09,95,125.09,91.25Zm10.82-1.66a3.37,3.37,0,0,0-3.59-2.6,3.74,3.74,0,0,0-3.82,2.6Z"/><path class="cls-3" d="M141.08,91.2c0-3.85,2.63-6.89,6.45-6.89A5.19,5.19,0,0,1,152,86.57v-.86a1,1,0,0,1,1.09-1.12h1.14a1,1,0,0,1,1.12,1.12v11a1,1,0,0,1-1.12,1.09h-1.14A1,1,0,0,1,152,96.71v-.88a5.19,5.19,0,0,1-4.47,2.26C143.7,98.09,141.08,95.05,141.08,91.2Zm11,0a3.85,3.85,0,0,0-3.87-4.11c-2.37,0-3.74,1.87-3.74,4.11s1.38,4.11,3.74,4.11A3.85,3.85,0,0,0,152,91.2Z"/><path class="cls-3" d="M158.31,91.2c0-3.85,2.6-6.89,6.42-6.89a5.13,5.13,0,0,1,4.47,2.26V80.1A1,1,0,0,1,170.33,79h1.14a1,1,0,0,1,1.09,1.09V96.71a1,1,0,0,1-1.09,1.09h-1.14a1,1,0,0,1-1.12-1.09v-.88a5.13,5.13,0,0,1-4.47,2.26C160.91,98.09,158.31,95.05,158.31,91.2Zm11,0a3.87,3.87,0,0,0-3.9-4.11c-2.37,0-3.72,1.87-3.72,4.11s1.35,4.11,3.72,4.11A3.87,3.87,0,0,0,169.29,91.2Z"/><path class="cls-3" d="M175.5,91.25a6.9,6.9,0,0,1,7.18-6.94c3.54,0,6.6,2.13,6.86,6.34.05.68-.39,1-1.09,1h-9.7c-.05,2,1.72,3.64,4.45,3.64a6,6,0,0,0,3.25-1,1.11,1.11,0,0,1,1.53.21l.23.29a1.05,1.05,0,0,1-.21,1.66,8,8,0,0,1-5,1.56C178.36,98.09,175.5,95,175.5,91.25Zm10.82-1.66a3.37,3.37,0,0,0-3.59-2.6,3.74,3.74,0,0,0-3.82,2.6Z"/><path class="cls-3" d="M192.37,96.71v-11a1,1,0,0,1,1.09-1.12h1.09a1,1,0,0,1,1.09,1.12v1.82a3.68,3.68,0,0,1,3.48-3.22,3.85,3.85,0,0,1,.52.05c.57.05.68.52.68,1v1.3c0,.68-.31,1-.81.88a3.16,3.16,0,0,0-.68-.08c-1.25,0-3.12.75-3.12,5.07v4.13a1,1,0,0,1-1.12,1.09h-1.14A1,1,0,0,1,192.37,96.71Z"/><path class="cls-3" d="M201.92,95.49c-.34-.7,0-1.2.73-1.38l.68-.16c.62-.16.94.13,1.38.62a2.81,2.81,0,0,0,2.18.94c1.14,0,1.95-.62,1.95-1.46s-.55-1.07-1.4-1.38l-1.69-.6c-1.69-.52-3.51-1.56-3.51-3.72,0-2.34,1.92-4.06,4.65-4.06A4.43,4.43,0,0,1,211,86.42c.44.68.08,1.22-.65,1.4l-.6.16a1.26,1.26,0,0,1-1.38-.52,1.75,1.75,0,0,0-1.43-.6,1.44,1.44,0,0,0-1.61,1.38c0,.7.62,1.07,1.35,1.3l1.77.62c2.63.83,3.46,2.37,3.48,3.87,0,2.65-2.34,4.06-5,4.06A5.29,5.29,0,0,1,201.92,95.49Z"/><path class="cls-3" d="M214.63,101.16l-.13-.23a.49.49,0,0,1,.23-.73,3.53,3.53,0,0,0,1.77-2.83,2.89,2.89,0,0,1-.42.08,1.67,1.67,0,0,1-1.69-1.69,1.93,1.93,0,0,1,2.13-2,2.22,2.22,0,0,1,2.13,2.39,5.78,5.78,0,0,1-3.3,5.25A.51.51,0,0,1,214.63,101.16Z"/><path class="cls-3" d="M232.21,95.83v.88a1,1,0,0,1-1.09,1.09H230a1,1,0,0,1-1.12-1.09V80.1A1,1,0,0,1,230,79h1.14a1,1,0,0,1,1.09,1.09v6.47a5.19,5.19,0,0,1,4.47-2.26c3.82,0,6.45,3,6.45,6.89s-2.63,6.89-6.45,6.89A5.19,5.19,0,0,1,232.21,95.83Zm7.57-4.63c0-2.24-1.35-4.11-3.74-4.11a4.12,4.12,0,0,0,0,8.22C238.42,95.31,239.77,93.46,239.77,91.2Z"/><path class="cls-3" d="M245.91,92.14V85.72A1,1,0,0,1,247,84.6h1.14a1,1,0,0,1,1.09,1.12V92c0,2.26,1,3.3,2.37,3.3s3.41-1,3.41-4.21V85.72a1,1,0,0,1,1.12-1.12h1.14a1,1,0,0,1,1.09,1.12v11a1,1,0,0,1-1.09,1.09h-1.14A1,1,0,0,1,255,96.71V95.47a4.15,4.15,0,0,1-4.19,2.63C247.62,98.09,245.91,95.75,245.91,92.14Z"/><path class="cls-3" d="M263,93.52V87.15h-1.46a.54.54,0,0,1-.6-.6V85.2a.55.55,0,0,1,.6-.6h1.61l.47-2.83a.84.84,0,0,1,.91-.78h.91a.78.78,0,0,1,.86.86V84.6h3.28a.55.55,0,0,1,.6.6v1.35a.54.54,0,0,1-.6.6h-3.28v6.5c0,1.2.6,1.66,1.3,1.66a1.26,1.26,0,0,0,1.33-1.3,3.11,3.11,0,0,0,0-.47c-.05-.42.08-.65.49-.65h1.38a.61.61,0,0,1,.68.47,5.24,5.24,0,0,1,.13,1c0,2.44-1.72,3.74-4.19,3.74C265.2,98.09,263,97.05,263,93.52Z"/><path class="cls-3" d="M274.58,93.52V87.15h-1.46a.54.54,0,0,1-.6-.6V85.2a.55.55,0,0,1,.6-.6h1.61l.47-2.83a.84.84,0,0,1,.91-.78H277a.78.78,0,0,1,.86.86V84.6h3.28a.55.55,0,0,1,.6.6v1.35a.54.54,0,0,1-.6.6h-3.28v6.5c0,1.2.6,1.66,1.3,1.66a1.26,1.26,0,0,0,1.33-1.3,3.11,3.11,0,0,0,0-.47c-.05-.42.08-.65.49-.65h1.38a.61.61,0,0,1,.68.47,5.24,5.24,0,0,1,.13,1c0,2.44-1.72,3.74-4.19,3.74C276.8,98.09,274.58,97.05,274.58,93.52Z"/><path class="cls-3" d="M284.62,91.2a7.14,7.14,0,1,1,7.12,6.89A7,7,0,0,1,284.62,91.2Zm11,0a3.9,3.9,0,1,0-3.9,4.06A4,4,0,0,0,295.64,91.23Z"/><path class="cls-3" d="M301.83,96.71v-11a1,1,0,0,1,1.09-1.12h1.14a1,1,0,0,1,1.12,1.12v1.22a4.15,4.15,0,0,1,4.19-2.63c3.22,0,4.94,2.34,4.94,6v6.45a1,1,0,0,1-1.12,1.09h-1.14A1,1,0,0,1,311,96.71V90.42c0-2.26-1-3.3-2.37-3.3s-3.41,1-3.41,4.24v5.36a1,1,0,0,1-1.12,1.09h-1.14A1,1,0,0,1,301.83,96.71Z"/><path class="cls-3" d="M317.22,95.49c-.34-.7,0-1.2.73-1.38l.68-.16c.62-.16.94.13,1.38.62a2.81,2.81,0,0,0,2.18.94c1.14,0,2-.62,2-1.46s-.55-1.07-1.4-1.38l-1.69-.6c-1.69-.52-3.51-1.56-3.51-3.72,0-2.34,1.92-4.06,4.65-4.06a4.43,4.43,0,0,1,4.11,2.11c.44.68.08,1.22-.65,1.4l-.6.16a1.26,1.26,0,0,1-1.38-.52,1.75,1.75,0,0,0-1.43-.6,1.44,1.44,0,0,0-1.61,1.38c0,.7.62,1.07,1.35,1.3l1.77.62c2.63.83,3.46,2.37,3.48,3.87,0,2.65-2.34,4.06-5,4.06A5.29,5.29,0,0,1,317.22,95.49Z"/><path class="cls-3" d="M329.94,101.16l-.13-.23a.49.49,0,0,1,.23-.73,3.54,3.54,0,0,0,1.77-2.83,2.89,2.89,0,0,1-.42.08,1.67,1.67,0,0,1-1.69-1.69,1.93,1.93,0,0,1,2.13-2A2.22,2.22,0,0,1,334,96.14a5.78,5.78,0,0,1-3.3,5.25A.51.51,0,0,1,329.94,101.16Z"/><path class="cls-3" d="M343.28,91.25a6.9,6.9,0,0,1,7.18-6.94c3.54,0,6.6,2.13,6.86,6.34.05.68-.39,1-1.09,1h-9.7c-.05,2,1.72,3.64,4.45,3.64a6,6,0,0,0,3.25-1,1.11,1.11,0,0,1,1.53.21l.23.29a1.05,1.05,0,0,1-.21,1.66,8,8,0,0,1-5,1.56C346.14,98.09,343.28,95,343.28,91.25Zm10.82-1.66A3.37,3.37,0,0,0,350.5,87a3.74,3.74,0,0,0-3.82,2.6Z"/><path class="cls-3" d="M363.19,96.95l-4.45-11.08c-.31-.75,0-1.27.83-1.27h1.25a1.21,1.21,0,0,1,1.27.91l3.17,8.63,3.17-8.63a1.2,1.2,0,0,1,1.25-.91H371c.81,0,1.14.52.83,1.27l-4.45,11.08a1.28,1.28,0,0,1-1.3.86h-1.56A1.3,1.3,0,0,1,363.19,96.95Z"/><path class="cls-3" d="M373.33,91.25a6.9,6.9,0,0,1,7.18-6.94c3.54,0,6.6,2.13,6.86,6.34.05.68-.39,1-1.09,1h-9.7c-.05,2,1.72,3.64,4.45,3.64a6,6,0,0,0,3.25-1,1.11,1.11,0,0,1,1.53.21l.23.29a1.05,1.05,0,0,1-.21,1.66,8,8,0,0,1-5,1.56C376.19,98.09,373.33,95,373.33,91.25Zm10.82-1.66a3.37,3.37,0,0,0-3.59-2.6,3.74,3.74,0,0,0-3.82,2.6Z"/><path class="cls-3" d="M390.21,96.71v-11a1,1,0,0,1,1.09-1.12h1.09a1,1,0,0,1,1.09,1.12v1.82A3.68,3.68,0,0,1,397,84.31a3.85,3.85,0,0,1,.52.05c.57.05.68.52.68,1v1.3c0,.68-.31,1-.81.88a3.16,3.16,0,0,0-.68-.08c-1.25,0-3.12.75-3.12,5.07v4.13a1,1,0,0,1-1.12,1.09H391.3A1,1,0,0,1,390.21,96.71Z"/><path class="cls-3" d="M402.48,102.36l2.11-5.25-5-11.21c-.34-.75,0-1.3.86-1.3h1.4a1.21,1.21,0,0,1,1.25.88l3.17,8,3-8a1.27,1.27,0,0,1,1.3-.88H412c.81,0,1.17.52.83,1.3l-7.28,16.9a1.23,1.23,0,0,1-1.27.83h-1C402.5,103.63,402.17,103.11,402.48,102.36Z"/><path class="cls-3" d="M416.49,93.52V87.15H415a.54.54,0,0,1-.6-.6V85.2a.55.55,0,0,1,.6-.6h1.61l.47-2.83A.84.84,0,0,1,418,81h.91a.78.78,0,0,1,.86.86V84.6h3.28a.55.55,0,0,1,.6.6v1.35a.54.54,0,0,1-.6.6h-3.28v6.5c0,1.2.6,1.66,1.3,1.66a1.26,1.26,0,0,0,1.33-1.3,3.11,3.11,0,0,0,0-.47c-.05-.42.08-.65.49-.65h1.38a.61.61,0,0,1,.68.47,5.19,5.19,0,0,1,.13,1c0,2.44-1.72,3.74-4.19,3.74C418.7,98.09,416.49,97.05,416.49,93.52Z"/><path class="cls-3" d="M427.44,96.71V80.1A1,1,0,0,1,428.53,79h1.14a1,1,0,0,1,1.12,1.09v6.84A4.15,4.15,0,0,1,435,84.31c3.22,0,4.94,2.34,4.94,6v6.45a1,1,0,0,1-1.12,1.09h-1.14a1,1,0,0,1-1.09-1.09V90.42c0-2.26-1-3.3-2.37-3.3s-3.41,1-3.41,4.24v5.36a1,1,0,0,1-1.12,1.09h-1.14A1,1,0,0,1,427.44,96.71Z"/><path class="cls-3" d="M443.17,80.7a1.94,1.94,0,0,1,2.11-2,2,2,0,1,1-2.11,2Zm.44,16v-11a1,1,0,0,1,1.09-1.12h1.17A1,1,0,0,1,447,85.72v11a1,1,0,0,1-1.09,1.09H444.7A1,1,0,0,1,443.61,96.71Z"/><path class="cls-3" d="M450.86,96.71v-11A1,1,0,0,1,452,84.6h1.14a1,1,0,0,1,1.12,1.12v1.22a4.15,4.15,0,0,1,4.19-2.63c3.22,0,4.94,2.34,4.94,6v6.45a1,1,0,0,1-1.12,1.09h-1.14A1,1,0,0,1,460,96.71V90.42c0-2.26-1-3.3-2.37-3.3s-3.41,1-3.41,4.24v5.36a1,1,0,0,1-1.12,1.09H452A1,1,0,0,1,450.86,96.71Z"/><path class="cls-3" d="M468.13,102.64a1,1,0,0,1-.39-1.51l.26-.47a.94.94,0,0,1,1.48-.39,6.89,6.89,0,0,0,3.51.94,3.7,3.7,0,0,0,4.06-4V95.83a5.2,5.2,0,0,1-4.5,2.26c-3.82,0-6.42-3.09-6.42-6.89s2.6-6.89,6.42-6.89A5.16,5.16,0,0,1,477,86.57v-.94a1,1,0,0,1,1.09-1h1.12a1,1,0,0,1,1.09,1.12V97.21c0,4.76-3.33,6.71-7.15,6.71A9.68,9.68,0,0,1,468.13,102.64Zm8.94-11.44a3.87,3.87,0,0,0-3.87-4.13c-2.37,0-3.74,1.9-3.74,4.13s1.38,4.13,3.74,4.13A3.87,3.87,0,0,0,477.07,91.2Z"/><path class="cls-3" d="M490.2,95.49c-.34-.7,0-1.2.73-1.38l.68-.16c.62-.16.94.13,1.38.62a2.81,2.81,0,0,0,2.18.94c1.14,0,2-.62,2-1.46s-.55-1.07-1.4-1.38l-1.69-.6c-1.69-.52-3.51-1.56-3.51-3.72,0-2.34,1.92-4.06,4.65-4.06a4.43,4.43,0,0,1,4.11,2.11c.44.68.08,1.22-.65,1.4L498,88a1.26,1.26,0,0,1-1.38-.52,1.75,1.75,0,0,0-1.43-.6,1.44,1.44,0,0,0-1.61,1.38c0,.7.62,1.07,1.35,1.3l1.77.62c2.63.83,3.46,2.37,3.48,3.87,0,2.65-2.34,4.06-5,4.06A5.29,5.29,0,0,1,490.2,95.49Z"/><path class="cls-3" d="M503.15,96.71V80.1A1,1,0,0,1,504.24,79h1.14a1,1,0,0,1,1.12,1.09v6.84a4.15,4.15,0,0,1,4.19-2.63c3.22,0,4.94,2.34,4.94,6v6.45a1,1,0,0,1-1.12,1.09h-1.14a1,1,0,0,1-1.09-1.09V90.42c0-2.26-1-3.3-2.37-3.3s-3.41,1-3.41,4.24v5.36a1,1,0,0,1-1.12,1.09h-1.14A1,1,0,0,1,503.15,96.71Z"/><path class="cls-3" d="M518.36,91.2a7.14,7.14,0,1,1,7.12,6.89A7,7,0,0,1,518.36,91.2Zm11,0a3.9,3.9,0,1,0-3.9,4.06A4,4,0,0,0,529.38,91.23Z"/><path class="cls-3" d="M535.57,96.71v-11a1,1,0,0,1,1.09-1.12h1.09a1,1,0,0,1,1.09,1.12v1.82a3.68,3.68,0,0,1,3.48-3.22,3.85,3.85,0,0,1,.52.05c.57.05.68.52.68,1v1.3c0,.68-.31,1-.81.88a3.16,3.16,0,0,0-.68-.08c-1.25,0-3.12.75-3.12,5.07v4.13a1,1,0,0,1-1.12,1.09h-1.14A1,1,0,0,1,535.57,96.71Z"/><path class="cls-3" d="M546.64,93.52V87.15h-1.46a.54.54,0,0,1-.6-.6V85.2a.55.55,0,0,1,.6-.6h1.61l.47-2.83a.84.84,0,0,1,.91-.78h.91a.78.78,0,0,1,.86.86V84.6h3.28a.55.55,0,0,1,.6.6v1.35a.54.54,0,0,1-.6.6h-3.28v6.5c0,1.2.6,1.66,1.3,1.66a1.26,1.26,0,0,0,1.33-1.3,3.11,3.11,0,0,0,0-.47c-.05-.42.08-.65.49-.65h1.38a.61.61,0,0,1,.68.47,5.19,5.19,0,0,1,.13,1c0,2.44-1.72,3.74-4.19,3.74C548.85,98.09,546.64,97.05,546.64,93.52Z"/><path class="cls-3" d="M563.52,91.2c0-3.85,2.63-6.89,6.45-6.89a5.18,5.18,0,0,1,4.47,2.26v-.86a1,1,0,0,1,1.09-1.12h1.14a1,1,0,0,1,1.12,1.12v11a1,1,0,0,1-1.12,1.09h-1.14a1,1,0,0,1-1.09-1.09v-.88A5.19,5.19,0,0,1,570,98.09C566.14,98.09,563.52,95.05,563.52,91.2Zm11,0a3.85,3.85,0,0,0-3.87-4.11c-2.37,0-3.74,1.87-3.74,4.11s1.38,4.11,3.74,4.11A3.85,3.85,0,0,0,574.49,91.2Z"/><path class="cls-3" d="M581.61,96.71v-11a1,1,0,0,1,1.09-1.12h1.14A1,1,0,0,1,585,85.72v1.22a4.15,4.15,0,0,1,4.19-2.63c3.22,0,4.94,2.34,4.94,6v6.45A1,1,0,0,1,593,97.81h-1.14a1,1,0,0,1-1.09-1.09V90.42c0-2.26-1-3.3-2.37-3.3s-3.41,1-3.41,4.24v5.36a1,1,0,0,1-1.12,1.09h-1.14A1,1,0,0,1,581.61,96.71Z"/><path class="cls-3" d="M596.9,91.2c0-3.85,2.6-6.89,6.42-6.89a5.13,5.13,0,0,1,4.47,2.26V80.1A1,1,0,0,1,608.91,79h1.14a1,1,0,0,1,1.09,1.09V96.71a1,1,0,0,1-1.09,1.09h-1.14a1,1,0,0,1-1.12-1.09v-.88a5.13,5.13,0,0,1-4.47,2.26C599.5,98.09,596.9,95.05,596.9,91.2Zm11,0a3.87,3.87,0,0,0-3.9-4.11c-2.37,0-3.72,1.87-3.72,4.11s1.35,4.11,3.72,4.11A3.87,3.87,0,0,0,607.87,91.2Z"/><path class="cls-3" d="M620.9,91.31c0-3.85,2.81-7,7.54-7a8,8,0,0,1,4.06,1.12,1,1,0,0,1,.26,1.53l-.31.39c-.42.57-.88.6-1.53.29a5.27,5.27,0,0,0-2.29-.52,4.1,4.1,0,1,0,0,8.19,5.69,5.69,0,0,0,2.29-.52c.65-.31,1.14-.29,1.53.26l.31.42c.42.57.29,1.25-.57,1.69a7.79,7.79,0,0,1-3.74.94C623.81,98.09,620.9,95.08,620.9,91.31Z"/><path class="cls-3" d="M635.85,92.14V85.72A1,1,0,0,1,637,84.6h1.14a1,1,0,0,1,1.09,1.12V92c0,2.26,1,3.3,2.37,3.3s3.41-1,3.41-4.21V85.72a1,1,0,0,1,1.12-1.12h1.14a1,1,0,0,1,1.09,1.12v11a1,1,0,0,1-1.09,1.09h-1.14A1,1,0,0,1,645,96.71V95.47a4.15,4.15,0,0,1-4.19,2.63C637.57,98.09,635.85,95.75,635.85,92.14Z"/><path class="cls-3" d="M652.93,93.52V87.15h-1.46a.54.54,0,0,1-.6-.6V85.2a.55.55,0,0,1,.6-.6h1.61l.47-2.83a.84.84,0,0,1,.91-.78h.91a.78.78,0,0,1,.86.86V84.6h3.28a.55.55,0,0,1,.6.6v1.35a.54.54,0,0,1-.6.6h-3.28v6.5c0,1.2.6,1.66,1.3,1.66a1.26,1.26,0,0,0,1.33-1.3,3.11,3.11,0,0,0,0-.47c-.05-.42.08-.65.49-.65h1.38a.61.61,0,0,1,.68.47,5.23,5.23,0,0,1,.13,1c0,2.44-1.72,3.74-4.19,3.74C655.14,98.09,652.93,97.05,652.93,93.52Z"/><path class="cls-3" d="M663,91.25a6.9,6.9,0,0,1,7.18-6.94c3.54,0,6.6,2.13,6.86,6.34.05.68-.39,1-1.09,1h-9.7c-.05,2,1.72,3.64,4.45,3.64a6,6,0,0,0,3.25-1,1.11,1.11,0,0,1,1.53.21l.23.29a1,1,0,0,1-.21,1.66,8,8,0,0,1-5,1.56C665.83,98.09,663,95,663,91.25Zm10.82-1.66a3.37,3.37,0,0,0-3.59-2.6,3.74,3.74,0,0,0-3.82,2.6Z"/><path class="cls-3" d="M679.32,96a2.24,2.24,0,1,1,2.24,2.11A2.15,2.15,0,0,1,679.32,96Z"/></svg>