<svg id="Layer_1" data-name="Layer 1" xmlns="http://www.w3.org/2000/svg" viewBox="0 0 470 273.51"><defs><style>.cls-1{fill:#fbb03b;opacity:0.25;}.cls-2{fill:#40aa85;}.cls-3{fill:none;stroke:#40aa85;stroke-miterlimit:10;stroke-width:3.08px;}</style></defs><title>casestudy</title><path class="cls-1" d="M400.77,64.76c-1.06-.67-2.1-1.3-3.13-1.89l-.07-.06h0a67.28,67.28,0,0,0-18.15-7.48c-6.42-1.46-13.35-1.61-19.74.61a29.29,29.29,0,0,0-15.31,12.5c-.52.85-1,1.72-1.43,2.61,0-.15,0-.31,0-.46a31.26,31.26,0,0,0-1.09-8.71,28.92,28.92,0,0,0-3.63-8,34.5,34.5,0,0,0-13-11.45,55.47,55.47,0,0,0-8-3.4,78.44,78.44,0,0,0-8.32-2.23,1.15,1.15,0,0,0-.23,0c-1.46-.32-3-.61-4.5-.84a1.22,1.22,0,0,0-1.3.77c-6.17,16.5-5.15,32.15,2.81,42.93,5.86,7.94,15.05,12.6,25.7,13.19-.59,2.81-1.17,5.36-1.77,7.82h12.43q.51-2.1,1-4.32a41.44,41.44,0,0,0,19.46,5,33.11,33.11,0,0,0,10.12-1.67c12.54-4.17,22.44-15.74,28.63-33.47A1.2,1.2,0,0,0,400.77,64.76Z"/><path class="cls-2" d="M399.82,60.23a64.59,64.59,0,0,0-17.39-7.18,33.24,33.24,0,0,0-18.23.53,26.53,26.53,0,0,0-13.87,11.35,37.06,37.06,0,0,0-5.15,17.63l-.71-1.36A34.5,34.5,0,0,0,352,84.53a42.31,42.31,0,0,0,8.16,1.61A59.9,59.9,0,0,0,376.91,85h0a1,1,0,0,1,1.12.77.87.87,0,0,1-.59,1c-5.49,2.34-11.6,2.81-17.57,2.36a38.93,38.93,0,0,1-8.86-1.7,31.18,31.18,0,0,1-8.21-3.63l0,0a1.54,1.54,0,0,1-.68-1.35,40.14,40.14,0,0,1,5.61-19.11,29.63,29.63,0,0,1,15.48-12.65c6.47-2.25,13.47-2.09,19.93-.62a67.62,67.62,0,0,1,18.25,7.52,1.54,1.54,0,0,1-1.53,2.67h0Z"/><path class="cls-2" d="M312.61,31.49A62.09,62.09,0,0,1,329,37.16a34.84,34.84,0,0,1,13.17,11.57,29.24,29.24,0,0,1,3.68,8.12,31.59,31.59,0,0,1,1.1,8.81,43.31,43.31,0,0,1-4,17,1.54,1.54,0,0,1-1.41.91h0a33.09,33.09,0,0,1-7.78-1.19,35.33,35.33,0,0,1-7.37-2.64c-4.67-2.28-9-5.2-12-9.47a.81.81,0,0,1,.15-1.17.87.87,0,0,1,1,0h0A58.59,58.59,0,0,0,327.73,77a41.59,41.59,0,0,0,6.78,2.36,40.49,40.49,0,0,0,7.09,1.09l-1.45.91a40.25,40.25,0,0,0,3.71-15.77,26.68,26.68,0,0,0-4.27-15.2,31.77,31.77,0,0,0-12-10.53A52.76,52.76,0,0,0,320,36.66a75.73,75.73,0,0,0-8-2.15h0a1.54,1.54,0,0,1,.65-3Z"/><path class="cls-2" d="M340,82.3a65.62,65.62,0,0,0-8.37-19.41,48,48,0,0,0-6.61-8.24,66.92,66.92,0,0,0-8.07-6.9l-.06,0a.89.89,0,0,1,.93-1.5c.84.4,1.67.85,2.5,1.27.42.21.82.45,1.24.68l1.16.8c.78.53,1.55,1.07,2.3,1.64l2.11,1.87a49.18,49.18,0,0,1,7.23,8.63A58.79,58.79,0,0,1,339.7,71c.72,1.72,1.38,3.47,1.94,5.26a46,46,0,0,1,1.42,5.49,1.54,1.54,0,0,1-3,.65Z"/><path class="cls-2" d="M342.72,81.26A89.32,89.32,0,0,1,352,75a84.09,84.09,0,0,1,10-5.12,59.84,59.84,0,0,1,10.67-3.65A31.64,31.64,0,0,1,384,65.62a.69.69,0,0,1-.05,1.37h0a48.56,48.56,0,0,0-10.51,2,76.09,76.09,0,0,0-10.06,3.86L360.9,74l-2.4,1.26c-1.6.85-3.2,1.7-4.76,2.63-3.11,1.84-6.24,3.76-9.17,5.79l0,0a1.54,1.54,0,0,1-1.82-2.49Z"/><path class="cls-2" d="M336.53,86.5a4.82,4.82,0,0,1,.49-1.3c-10.62-.09-19.81-4.42-25.5-12.14-7.21-9.77-8.24-24-2.87-39.16,14.36,2.42,27,8.41,32.22,18,4.77,8.71,3.12,20-1.17,31a4.37,4.37,0,0,1,3.23,0c3.93-11.48,3.39-23-1.66-32.23-5.86-10.69-17.41-17.62-33.4-20a1.55,1.55,0,0,0-1.67,1C300,48.24,301,64,309,74.89c6.13,8.31,15.88,13.07,27.13,13.38Z"/><path class="cls-2" d="M404.58,59.52c-20.69-13.15-35.51-10.45-44.31-5.86C350,59,342.67,70.1,340.8,82.66a4.47,4.47,0,0,1,3,.66c1.56-11.91,7.58-23.61,17.06-28.55,7.93-4.13,22.15-4.91,41,6.71-5.91,16.24-15.06,26.82-26.5,30.62-9.09,3-19.36,1.54-29.26-4.12a4.77,4.77,0,0,1,0,.49l-.55,2.72a42.36,42.36,0,0,0,20.24,5.54A33.52,33.52,0,0,0,376.36,95C389,90.81,399,79.16,405.21,61.33A1.54,1.54,0,0,0,404.58,59.52Z"/><path class="cls-2" d="M334.82,100.65C336,96.33,337,92,338,86.81a3.33,3.33,0,1,1,6.52,1.34c-.93,4.53-2,8.71-3,12.51h3.19c1-3.63,1.92-7.6,2.8-11.89A6.41,6.41,0,1,0,335,86.19c-1.13,5.49-2.17,9.93-3.4,14.46Z"/><path class="cls-2" d="M52.25,73.38c0-8.52,6.11-15.77,16.51-15.77a15.76,15.76,0,0,1,9.08,2.62,1.11,1.11,0,0,1,.44,1.57l-.31.57a1.05,1.05,0,0,1-1.62.44,15,15,0,0,0-7.6-2.1c-8.25,0-13,5.81-13,12.66S60.5,86,68.75,86a15,15,0,0,0,7.6-2.1,1.05,1.05,0,0,1,1.62.44l.31.57c.31.65.26,1.14-.22,1.44a15.68,15.68,0,0,1-9.3,2.75C58.36,89.14,52.25,81.89,52.25,73.38Z"/><path class="cls-2" d="M83.08,87.31,94.17,59.05a1.31,1.31,0,0,1,1.35-1h2.1a1.31,1.31,0,0,1,1.35,1l11.14,28.25c.31.83,0,1.35-.92,1.35h-1a1.36,1.36,0,0,1-1.4-1l-2.18-5.59H88.63L86.44,87.7a1.28,1.28,0,0,1-1.35,1H84C83.12,88.66,82.77,88.14,83.08,87.31Zm20.44-8-6.94-17.9-6.9,17.9Z"/><path class="cls-2" d="M135.18,59.27v.52A1.07,1.07,0,0,1,134,60.93h-9.48V87.48a1.08,1.08,0,0,1-1.18,1.18h-1.09a1.08,1.08,0,0,1-1.18-1.18V60.93h-9.43a1.07,1.07,0,0,1-1.18-1.14v-.52a1.08,1.08,0,0,1,1.18-1.18H134A1.08,1.08,0,0,1,135.18,59.27Z"/><path class="cls-2" d="M139.64,83.12c-.35-.7,0-1.22.74-1.44l1-.26c.7-.17,1.09.09,1.44.74a8.13,8.13,0,0,0,7.34,3.93c4.5,0,7.16-2.4,7.16-5.37,0-2.75-2.36-4.45-5-5.37l-4.89-1.66c-5.81-1.88-6.86-5.24-6.86-7.82,0-5.15,4.54-8.25,9.69-8.25,4.72,0,8.12,2.31,9.39,5.76a1,1,0,0,1-.79,1.44l-.92.26c-.7.22-1.14,0-1.44-.74-1-2.31-3.28-3.62-6.29-3.62-3.32,0-6.16,1.88-6.16,5.07,0,1.53.52,3.45,4.41,4.85l4.93,1.75c4.5,1.44,7.29,4.63,7.29,8.12,0,5.07-4.15,8.65-10.48,8.65C144.92,89.14,141.17,86.48,139.64,83.12Z"/><path class="cls-2" d="M179.65,82.9l-5.94-7.73V87.48a1.07,1.07,0,0,1-1.13,1.18h-1.14a1.07,1.07,0,0,1-1.14-1.18V59.27a1,1,0,0,1,1.14-1.18h1.14a1.07,1.07,0,0,1,1.13,1.18V73.38l11.14-14.54a1.56,1.56,0,0,1,1.44-.74h1.92c.7,0,.74.61.31,1.27L177,74.21l5.76,7.34c1.83,2.4,3.89,4.54,6.07,4.54a5.35,5.35,0,0,0,2.31-.52c.7-.26,1.22-.22,1.57.48l.26.44a1.12,1.12,0,0,1-.52,1.66,8.87,8.87,0,0,1-4,1C184.27,89.14,181.65,85.56,179.65,82.9Z"/><path class="cls-2" d="M199.26,87.48V59.27a1.08,1.08,0,0,1,1.18-1.18h1.09a1.08,1.08,0,0,1,1.18,1.18V87.48a1.08,1.08,0,0,1-1.18,1.18h-1.09A1.08,1.08,0,0,1,199.26,87.48Z"/><path class="cls-2" d="M214.24,87.48V59.27a1.08,1.08,0,0,1,1.18-1.18h1.09a1.08,1.08,0,0,1,1.18,1.18V85.82h13.14A1.05,1.05,0,0,1,232,87v.52a1,1,0,0,1-1.14,1.18H215.42A1.08,1.08,0,0,1,214.24,87.48Z"/><path class="cls-2" d="M238.82,87.48V59.27A1.08,1.08,0,0,1,240,58.09h1.09a1.08,1.08,0,0,1,1.18,1.18V85.82h13.14A1.05,1.05,0,0,1,256.55,87v.52a1,1,0,0,1-1.14,1.18H240A1.08,1.08,0,0,1,238.82,87.48Z"/><path class="cls-2" d="M261,83.12c-.35-.7,0-1.22.74-1.44l1-.26c.7-.17,1.09.09,1.44.74a8.13,8.13,0,0,0,7.34,3.93c4.5,0,7.16-2.4,7.16-5.37,0-2.75-2.36-4.45-5-5.37l-4.89-1.66C263,71.8,262,68.44,262,65.87c0-5.15,4.54-8.25,9.69-8.25,4.72,0,8.12,2.31,9.39,5.76a1,1,0,0,1-.79,1.44l-.92.26c-.7.22-1.14,0-1.44-.74-1-2.31-3.28-3.62-6.29-3.62-3.32,0-6.16,1.88-6.16,5.07,0,1.53.52,3.45,4.41,4.85l4.93,1.75c4.5,1.44,7.29,4.63,7.29,8.12,0,5.07-4.15,8.65-10.48,8.65C266.25,89.14,262.5,86.48,261,83.12Z"/><path class="cls-1" d="M80.73,149.28c0-20,15.83-37.11,40.09-37.11a36.68,36.68,0,0,1,22.82,7.61c3.29,2.37,3.49,5.65.82,8.64l-4.11,4.73c-2.57,3-5.24,2.78-8.64.51a20.34,20.34,0,0,0-10.9-3c-11.21,0-18.5,8.22-18.5,18.61s7.3,18.61,18.5,18.61a20.58,20.58,0,0,0,10.9-3c3.39-2.26,6.07-2.47,8.64.51l4.11,4.73c2.67,3.08,2.67,6.06-.31,8.33a37.13,37.13,0,0,1-23.34,7.92C96.56,186.39,80.73,169.33,80.73,149.28Z"/><path class="cls-1" d="M155.67,149.28c0-20,14.6-37.11,38.86-37.11s38.86,17.06,38.86,37.11-14.6,37.11-38.86,37.11S155.67,169.33,155.67,149.28Zm56.13,0c0-10.07-6.27-18.61-17.27-18.61s-17.27,8.53-17.27,18.61,6.27,18.61,17.27,18.61S211.8,159.36,211.8,149.28Z"/><path class="cls-1" d="M247.47,179.09V119.47c0-4,2.16-6.17,6.17-6.17h6a8.43,8.43,0,0,1,7.5,3.91L288.28,147V119.47c0-4,2.16-6.17,6.17-6.17h9.25c4,0,6.17,2.16,6.17,6.17v59.62c0,4-2.16,6.17-6.17,6.17h-5.86a8.26,8.26,0,0,1-7.4-3.91l-21.38-30.43v28.17c0,4-2.16,6.17-6.17,6.17h-9.25C249.63,185.26,247.47,183.1,247.47,179.09Z"/><path class="cls-1" d="M379.46,119.47v6.17c0,4-2.16,6.17-6.17,6.17H349.13v9.35h20.25c4,0,6.17,2.16,6.17,6.17v4.11c0,4-2.16,6.17-6.17,6.17H349.13v21.49c0,4-2.16,6.17-6.17,6.17h-9.25c-4,0-6.17-2.16-6.17-6.17V119.47c0-4,2.16-6.17,6.17-6.17h39.58C377.3,113.3,379.46,115.46,379.46,119.47Z"/><path class="cls-3" d="M74.68,142.67c0-20,15.83-37.11,40.09-37.11a36.68,36.68,0,0,1,22.82,7.61c3.29,2.37,3.49,5.65.82,8.64l-4.11,4.73c-2.57,3-5.24,2.78-8.64.51a20.34,20.34,0,0,0-10.9-3c-11.21,0-18.5,8.22-18.5,18.61s7.3,18.61,18.5,18.61a20.58,20.58,0,0,0,10.9-3c3.39-2.26,6.07-2.47,8.64.51l4.11,4.73c2.67,3.08,2.67,6.06-.31,8.33a37.13,37.13,0,0,1-23.34,7.92C90.51,179.78,74.68,162.72,74.68,142.67Z"/><path class="cls-3" d="M149.62,142.67c0-20,14.6-37.11,38.86-37.11s38.86,17.06,38.86,37.11-14.6,37.11-38.86,37.11S149.62,162.72,149.62,142.67Zm56.13,0c0-10.07-6.27-18.61-17.27-18.61s-17.27,8.53-17.27,18.61,6.27,18.61,17.27,18.61S205.75,152.74,205.75,142.67Z"/><path class="cls-3" d="M241.42,172.48V112.86c0-4,2.16-6.17,6.17-6.17h6a8.43,8.43,0,0,1,7.5,3.91l21.18,29.81V112.86c0-4,2.16-6.17,6.17-6.17h9.25c4,0,6.17,2.16,6.17,6.17v59.62c0,4-2.16,6.17-6.17,6.17h-5.86a8.26,8.26,0,0,1-7.4-3.91L263,144.31v28.17c0,4-2.16,6.17-6.17,6.17h-9.25C243.58,178.65,241.42,176.49,241.42,172.48Z"/><path class="cls-3" d="M373.41,112.86V119c0,4-2.16,6.17-6.17,6.17H343.08v9.35h20.25c4,0,6.17,2.16,6.17,6.17v4.11c0,4-2.16,6.17-6.17,6.17H343.08v21.49c0,4-2.16,6.17-6.17,6.17h-9.25c-4,0-6.17-2.16-6.17-6.17V112.86c0-4,2.16-6.17,6.17-6.17h39.58C371.25,106.69,373.41,108.85,373.41,112.86Z"/><path class="cls-2" d="M294.11,226.14l0-.35a1.58,1.58,0,0,1,.52-1.53l12.23-11c2.49-2.18,4.59-4.63,4.59-7.82,0-4-2.88-6.29-7.21-6.29s-6.2,2.05-6.72,4.1a1.2,1.2,0,0,1-1.27,1h-1.09c-.74,0-1.27-.44-1.09-1.18.48-3.19,3.32-6.94,10.22-6.94,6.38,0,10.52,3.45,10.52,9.17,0,4.54-2.58,7.42-5.59,10l-10,8.91v.17c1.83-.09,6.16-.13,7.34-.13h8.34a1.08,1.08,0,0,1,1.18,1.18V226a1.08,1.08,0,0,1-1.18,1.18H295.38A1.2,1.2,0,0,1,294.11,226.14Z"/><path class="cls-2" d="M322.07,211.9c0-8.73,4.93-15.81,13-15.81s13.1,7.07,13.1,15.81-5,15.77-13.1,15.77S322.07,220.59,322.07,211.9Zm22.75,0c0-7.07-3.71-12.8-9.74-12.8s-9.65,5.72-9.65,12.8,3.67,12.8,9.65,12.8S344.82,218.93,344.82,211.9Z"/><path class="cls-2" d="M361.24,226V200.72l-6.2,2.84a1,1,0,0,1-1.48-.74l-.17-.57a1.15,1.15,0,0,1,.7-1.48l8.08-3.8a3,3,0,0,1,1.53-.35c.52,0,.87.44.87,1.18V226a1.08,1.08,0,0,1-1.18,1.18h-1A1.07,1.07,0,0,1,361.24,226Z"/><path class="cls-2" d="M375.7,226l15-26.51h-16.9a.92.92,0,0,1-1-1v-.83a.9.9,0,0,1,1-1h19.56a.9.9,0,0,1,1,1v.74a2.09,2.09,0,0,1-.35,1.22l-14.94,26.9a1.27,1.27,0,0,1-1.22.7H376.4C375.61,227.19,375.26,226.66,375.7,226Z"/></svg>