<svg id="Layer_1" data-name="Layer 1" xmlns="http://www.w3.org/2000/svg" xmlns:xlink="http://www.w3.org/1999/xlink" viewBox="0 0 1000 370.25"><defs><style>.cls-1{fill:#fff;}.cls-15,.cls-2{fill:none;}.cls-3,.cls-4{fill:#40aa85;}.cls-4{font-size:25px;font-family:FilsonSoftHeavy, Filson Soft;letter-spacing:-0.01em;}.cls-5{letter-spacing:-0.03em;}.cls-6{letter-spacing:0.05em;}.cls-7{letter-spacing:0.02em;}.cls-8{letter-spacing:0.02em;}.cls-9{letter-spacing:0.03em;}.cls-10{letter-spacing:0.04em;}.cls-11{mask:url(#mask);}.cls-12{opacity:0.15;fill:url(#New_Pattern_6);}.cls-13{mask:url(#mask-2);}.cls-14,.cls-17{fill:#fbb03b;}.cls-14,.cls-16{opacity:0.25;}.cls-15{stroke:#40aa85;stroke-linecap:round;stroke-linejoin:round;stroke-width:1.96px;}</style><mask id="mask" x="-17.51" y="-62.18" width="992.14" height="548.96" maskUnits="userSpaceOnUse"><path class="cls-1" d="M508.44,187V41.76a24.62,24.62,0,0,0-24.62-24.62h-367A24.62,24.62,0,0,0,92.15,41.76V240a24.62,24.62,0,0,0,24.62,24.62H326A24.62,24.62,0,0,1,350.6,289.2V328a24.62,24.62,0,0,0,24.62,24.62H858.7A24.62,24.62,0,0,0,883.32,328V236.26a24.62,24.62,0,0,0-24.62-24.62H533.06A24.62,24.62,0,0,1,508.44,187Z"/></mask><pattern id="New_Pattern_6" data-name="New Pattern 6" width="146" height="102" patternTransform="translate(-12.78 -149.87) scale(1.58)" patternUnits="userSpaceOnUse" viewBox="0 0 146 102"><rect class="cls-2" width="146" height="102"/><path class="cls-3" d="M170.74,99.05l-.18,0a.75.75,0,0,0-.73.57,14.42,14.42,0,0,1-2.56,4.9c-5.19,6.5-6.82,13.36-5.13,21.6a44.44,44.44,0,0,0,2.07,6.56c.45,1.2.91,2.43,1.29,3.65a15.49,15.49,0,0,1-.59,10c-1.31,3.5-3.67,5.82-6.39,8.51L157.28,156a38.49,38.49,0,0,0-9,15.15l-.18.6c-.75,2.51-1.24,4.17-5.24,4.17a.75.75,0,0,0,0,1.5c5.13,0,5.88-2.55,6.68-5.24l.17-.58a36.92,36.92,0,0,1,8.64-14.54l1.23-1.22c2.73-2.7,5.31-5.25,6.74-9.05a17,17,0,0,0,.62-11c-.39-1.25-.86-2.49-1.3-3.68a42.9,42.9,0,0,1-2-6.37c-1.62-7.88-.13-14.16,4.83-20.37a15.88,15.88,0,0,0,2.84-5.47A.75.75,0,0,0,170.74,99.05Z"/><path class="cls-3" d="M125.25,130.69c1.14-3.87-.46-9.24-4.76-16-1.14-1.79-3.18-4.31-4.67-6.15l-.48-.59c-1.79-2.22-3.08-4.05-2.16-5.75a.75.75,0,0,0-.66-1.11.78.78,0,0,0-.21,0,.75.75,0,0,0-.45.36c-1.47,2.71.71,5.42,2.31,7.41l.48.6c1.47,1.82,3.48,4.31,4.57,6,4,6.26,5.58,11.35,4.59,14.74a5.77,5.77,0,0,1-3.32,3.69c-6.53,3-13.67,7.08-17.15,14.6a19.07,19.07,0,0,0-.63,13.37,34.42,34.42,0,0,0,6.48,11.66l.72.89a27.7,27.7,0,0,1,2.73,3.75,27.32,27.32,0,0,1,2.08,5.24c1.22,3.84,2.22,7.32,2.09,10.85-.08,2.14-1.64,4.26-3,6.14a15.28,15.28,0,0,0-2.1,3.4.75.75,0,0,0,.45,1,.77.77,0,0,0,1-.45,14.37,14.37,0,0,1,1.89-3c1.51-2.07,3.21-4.39,3.31-7,.14-3.77-.89-7.38-2.15-11.36a28.42,28.42,0,0,0-2.2-5.53,29.22,29.22,0,0,0-2.87-4l-.09-.11-.62-.77a33,33,0,0,1-6.21-11.15,17.58,17.58,0,0,1,.56-12.31c3.28-7.08,10.14-11,16.42-13.87A7.2,7.2,0,0,0,125.25,130.69Z"/><path class="cls-3" d="M109.74,200.54c2.3-2.83,4.92-6,3-12.06-2.31-7.23-5.92-11.07-9.1-14.46a21.54,21.54,0,0,1-6.47-10.75c-2.66-9.35-5.42-19-5.18-28.9.05-2.12,1.17-4.14,2.46-6.47a28,28,0,0,0,2.86-6.41,19.25,19.25,0,0,0,.19-6.17c-.16-2.18-.31-4.24.28-5.71a33,33,0,0,1,4-7.73.75.75,0,0,0-1.17-.94,35.27,35.27,0,0,0-4.27,8.12c-.72,1.79-.55,4.12-.38,6.37a18.19,18.19,0,0,1-.14,5.68,26.76,26.76,0,0,1-2.72,6.07c-1.33,2.41-2.59,4.68-2.65,7.17-.25,10.1,2.54,19.88,5.23,29.34A23,23,0,0,0,102.53,175c3.07,3.27,6.55,7,8.76,13.89,1.68,5.25-.36,7.76-2.72,10.66a14.72,14.72,0,0,0-3.35,5.74.75.75,0,0,0,.55.91.76.76,0,0,0,.91-.55A13.39,13.39,0,0,1,109.74,200.54Z"/><path class="cls-3" d="M88.38,117.5a39.74,39.74,0,0,0,1.78-5.29,26.62,26.62,0,0,0,.89-5.55,16.12,16.12,0,0,0-.66-5.69.75.75,0,0,0-.94-.49.75.75,0,0,0-.49.94c.89,2.87.81,6.36-.25,10.42A38.46,38.46,0,0,1,87,116.92l-1.08,2.55a22.27,22.27,0,0,0-.82,2.7,28.83,28.83,0,0,0-.75,5.58,47.69,47.69,0,0,0,.18,5.57A87.06,87.06,0,0,0,85.72,142l.15.81-.58-.59a26,26,0,0,1-5.12-7.33,17.24,17.24,0,0,1-1.52-5.29,20.2,20.2,0,0,1,.47-5.52,42.94,42.94,0,0,1,3.5-9.21l.65-1.39a26,26,0,0,0,2-5.62,12.31,12.31,0,0,0-.26-6.1.75.75,0,0,0-.93-.5.75.75,0,0,0-.5.93,10.65,10.65,0,0,1,.16,5.35,26.22,26.22,0,0,1-1.89,5.26l-.68,1.48a44,44,0,0,0-3.53,9.45,21.58,21.58,0,0,0-.48,6,18.68,18.68,0,0,0,1.67,5.78,26.76,26.76,0,0,0,3.1,5.08,14.24,14.24,0,0,0,4.46,3.93.48.48,0,0,0,.26.06.51.51,0,0,0,.5-.53c-.07-2.13-.33-4.27-.58-6.33-.18-1.49-.36-3-.48-4.54a34.15,34.15,0,0,1,.52-10.66,20.47,20.47,0,0,1,.75-2.53l.53-1.3C88,118.31,88.22,117.91,88.38,117.5Z"/><path class="cls-3" d="M53.82,186.66l1.78-1.74c5.51-5.43,11.85-12.79,11.9-21.53,0-7.33-4.21-13.6-8.33-19.66-.76-1.11-1.54-2.26-2.29-3.42a14.19,14.19,0,0,1-2.15-5.86,18.89,18.89,0,0,0-1.86-5.8c-.58-1.1-1.35-2.4-2.17-3.77a44.81,44.81,0,0,1-4-7.74c-1.15-3.56-.45-8.59.11-12.63.1-.73.2-1.44.28-2.1a.75.75,0,0,0-.65-.84h-.09a.75.75,0,0,0-.75.66c-.08.66-.18,1.36-.28,2.08-.58,4.19-1.3,9.41,0,13.3a45.5,45.5,0,0,0,4.17,8l0,.07c.8,1.34,1.56,2.6,2.1,3.64a17.39,17.39,0,0,1,1.71,5.38,15.84,15.84,0,0,0,2.36,6.4c.73,1.12,1.49,2.24,2.26,3.37l0,.07c4,5.87,8.12,11.94,8.08,18.81,0,8.19-6.15,15.24-11.45,20.47L53,185.36l-.23.23c-5.41,5.27-11,10.72-13.23,18a.75.75,0,0,0,.5.94A.77.77,0,0,0,41,204C43.09,197.11,48.55,191.8,53.82,186.66Z"/><path class="cls-3" d="M75.32,158.71a23,23,0,0,0-3.92-5.22,32.83,32.83,0,0,1-2.48-3c-4.69-6.83-7.29-13.09-7.93-19.14-1.25-11.74,1.71-18.15,3.87-22.83,1.24-2.69,2.22-4.81,1.94-7a.75.75,0,0,0-.29-.51.72.72,0,0,0-.44-.15H66a.75.75,0,0,0-.66.84c.22,1.79-.63,3.65-1.82,6.22-2.23,4.84-5.29,11.46-4,23.61.67,6.31,3.35,12.8,8.18,19.84a33.77,33.77,0,0,0,2.59,3.11,22.18,22.18,0,0,1,3.67,4.84c2.18,4.91,2.68,7.42,1.32,12.56A48,48,0,0,1,72.4,179c-1.78,3.86-3.61,7.84-3.79,11.24a22.07,22.07,0,0,0,1.36,7.3,23.11,23.11,0,0,1,1.4,7.43.75.75,0,0,0,.72.78h0a.75.75,0,0,0,.78-.72,24.2,24.2,0,0,0-1.46-7.92,20.75,20.75,0,0,1-1.3-6.79c.17-3.11,1.94-7,3.65-10.69a48.82,48.82,0,0,0,3-7.36C78.2,166.64,77.52,163.66,75.32,158.71Z"/><path class="cls-3" d="M41.77,157.81c2-6.81,4.05-13.85,3.38-21.05a73.88,73.88,0,0,0-2.33-11.63,68.46,68.46,0,0,1-2.54-13.76,24.89,24.89,0,0,1,.81-9.59.75.75,0,0,0-.48-.95.75.75,0,0,0-.95.48,26.12,26.12,0,0,0-.89,10.13,69.58,69.58,0,0,0,2.58,14,71.54,71.54,0,0,1,2.3,11.41c.65,6.92-1.28,13.51-3.32,20.5-1.47,5-3,10.23-3.43,15.51-.21,2.54-.17,5.12-.13,7.61s.08,4.75-.09,7.1a78.46,78.46,0,0,1-2.34,15.87.75.75,0,0,0,.52.93.77.77,0,0,0,.93-.52,79.78,79.78,0,0,0,2.39-16.17c.17-2.4.14-4.84.1-7.19s-.08-5,.13-7.5C38.83,167.9,40.33,162.77,41.77,157.81Z"/><path class="cls-3" d="M32,123.31c-.26-1.13-.59-2.27-.9-3.37a31.83,31.83,0,0,1-1.41-6.62c-.22-3.24-.49-7.27.34-10.54a.75.75,0,0,0-.54-.91l-.19,0a.74.74,0,0,0-.38.1.75.75,0,0,0-.34.46c-.89,3.5-.61,7.67-.38,11a33.54,33.54,0,0,0,1.47,6.93c.31,1.09.63,2.2.89,3.3a42.2,42.2,0,0,1-.2,18.19c-.35,1.64-.76,3.3-1.17,4.89a68.72,68.72,0,0,0-1.85,9c-.71,6.16.25,12.36,1.19,18.36.44,2.85.89,5.75,1.16,8.59A73.45,73.45,0,0,1,28.53,205a.75.75,0,0,0,.57.89.76.76,0,0,0,.89-.57,74.91,74.91,0,0,0,1.19-22.83c-.28-2.91-.73-5.83-1.17-8.67-.92-5.91-1.87-12-1.18-18a67.61,67.61,0,0,1,1.82-8.79c.42-1.65.84-3.31,1.18-5A43.65,43.65,0,0,0,32,123.31Z"/><path class="cls-3" d="M36.08,152.38l.31-.9c.4-1.17.81-2.38,1.16-3.61a23.46,23.46,0,0,0,.9-4.77,46.19,46.19,0,0,0,.15-4.8,116.87,116.87,0,0,0-2-18.87c-.16-.85-.35-1.71-.54-2.55s-.32-1.39-.44-2a31.93,31.93,0,0,1-.51-4.56,30,30,0,0,1,.88-9.09.76.76,0,0,0-.51-.94.75.75,0,0,0-.93.51,31.16,31.16,0,0,0-1.08,9.59,33.73,33.73,0,0,0,.47,4.8c.15.83.33,1.62.5,2.38s.34,1.48.47,2.24a124.26,124.26,0,0,1,2,18.57,44.88,44.88,0,0,1-.09,4.63,21.72,21.72,0,0,1-.8,4.48c-.32,1.17-.7,2.31-1.1,3.52l-.31.94a26.47,26.47,0,0,0-1.17,4.68,63.36,63.36,0,0,0-.67,9.49,59.11,59.11,0,0,0,.69,9.44.19.19,0,0,0,.18.15h0a.18.18,0,0,0,.13-.05.19.19,0,0,0,.05-.13c0-3.32.05-6.38.24-9.38s.4-6.15.89-9.27A24.37,24.37,0,0,1,36.08,152.38Z"/><path class="cls-3" d="M24.74,99.05l-.18,0a.75.75,0,0,0-.73.57,14.42,14.42,0,0,1-2.56,4.9c-5.19,6.5-6.82,13.36-5.13,21.6a44.44,44.44,0,0,0,2.07,6.56c.45,1.2.91,2.43,1.29,3.65a15.49,15.49,0,0,1-.59,10c-1.31,3.5-3.67,5.82-6.39,8.51L11.28,156a38.49,38.49,0,0,0-9,15.15l-.18.6c-.75,2.51-1.24,4.17-5.24,4.17a.75.75,0,0,0-.75.75.75.75,0,0,0,.75.75c5.13,0,5.88-2.55,6.68-5.24l.17-.58a36.92,36.92,0,0,1,8.64-14.54l1.23-1.22c2.73-2.7,5.31-5.25,6.74-9.05a17,17,0,0,0,.62-11c-.39-1.25-.86-2.49-1.3-3.68a42.9,42.9,0,0,1-2-6.37c-1.62-7.88-.13-14.16,4.83-20.37A15.88,15.88,0,0,0,25.28,100,.75.75,0,0,0,24.74,99.05Z"/><path class="cls-3" d="M10,152.95a17,17,0,0,0,2.78-3.34,16.92,16.92,0,0,0,1.74-6.49c.46-3.63.93-7.39.26-11.13a36.78,36.78,0,0,0-1.67-5.69c-.43-1.23-.88-2.5-1.22-3.76-1.1-4.1.12-12.33,7.2-22a.75.75,0,0,0-.6-1.19h-.12a.74.74,0,0,0-.49.3c-7.38,10.12-8.68,18.68-7.44,23.31.36,1.32.81,2.62,1.25,3.87a35,35,0,0,1,1.6,5.45c.63,3.51.17,7.15-.27,10.67a15.83,15.83,0,0,1-1.55,5.93,15.62,15.62,0,0,1-2.55,3l-.48.48a50.15,50.15,0,0,0-6.31,7.93.75.75,0,0,0,.23,1,.77.77,0,0,0,1-.23,48.55,48.55,0,0,1,6.12-7.69Z"/><path class="cls-3" d="M2.43,149a.77.77,0,0,0,1.06.05A26.56,26.56,0,0,0,9,142.55,12.44,12.44,0,0,0,10.57,134,19,19,0,0,0,7.73,128c-.28-.46-.57-.91-.84-1.37-.9-1.51-3-5.33-2.67-8.08a15.08,15.08,0,0,1,2.36-6C8,110,9.67,107.1,9.49,102.68a.75.75,0,0,0-.25-.53.73.73,0,0,0-.49-.19h0a.75.75,0,0,0-.72.78c.17,4-1.23,6.43-2.71,9a16.46,16.46,0,0,0-2.55,6.62c-.32,3.08,1.66,7,2.87,9,.28.47.56.93.85,1.39a17.66,17.66,0,0,1,2.64,5.57,11,11,0,0,1-1.41,7.47,25.22,25.22,0,0,1-5.2,6.11A.75.75,0,0,0,2.43,149Z"/><path class="cls-3" d="M137.37,134.16a12.12,12.12,0,0,0,2.85-9.14,11.61,11.61,0,0,0-5-8.51c-3.72-2.68-9.65-8.38-7.55-16.51a.75.75,0,0,0-.54-.91l-.19,0a.73.73,0,0,0-.37.1.74.74,0,0,0-.35.46c-1.7,6.57,1.26,13.17,8.12,18.11a10.15,10.15,0,0,1,4.38,7.43,10.68,10.68,0,0,1-2.45,8,14.4,14.4,0,0,0-2.58,4.54,18.54,18.54,0,0,1-3.85,6.37,24.41,24.41,0,0,0-5.95,22.66c.58,2.28,1.32,4.48,2,6.61a61.22,61.22,0,0,1,2.74,10.06c.74,4.72-.44,9.77-1.59,14.65-.35,1.5-.72,3.06-1,4.56a.75.75,0,0,0,.59.88.76.76,0,0,0,.88-.59c.29-1.48.64-3,1-4.51,1.18-5,2.39-10.21,1.61-15.23a63.28,63.28,0,0,0-2.8-10.3c-.71-2.11-1.44-4.3-2-6.51a22.88,22.88,0,0,1,5.57-21.24,20,20,0,0,0,4.16-6.83A13.11,13.11,0,0,1,137.37,134.16Z"/><path class="cls-3" d="M170.74-2.95l-.18,0a.75.75,0,0,0-.73.57,14.42,14.42,0,0,1-2.56,4.9c-5.19,6.5-6.82,13.36-5.13,21.6a44.44,44.44,0,0,0,2.07,6.56c.45,1.2.91,2.43,1.29,3.65a15.49,15.49,0,0,1-.59,10c-1.31,3.5-3.67,5.82-6.39,8.51L157.28,54a38.49,38.49,0,0,0-9,15.15l-.18.6c-.75,2.51-1.24,4.17-5.24,4.17a.75.75,0,0,0,0,1.5c5.13,0,5.88-2.55,6.68-5.24l.17-.58a36.92,36.92,0,0,1,8.64-14.54l1.23-1.22c2.73-2.7,5.31-5.25,6.74-9.05a17,17,0,0,0,.62-11c-.39-1.25-.86-2.49-1.3-3.68a42.9,42.9,0,0,1-2-6.37c-1.62-7.88-.13-14.16,4.83-20.37A15.88,15.88,0,0,0,171.28-2,.75.75,0,0,0,170.74-2.95Z"/><path class="cls-3" d="M119.64,104.25a.75.75,0,0,0,.75-.71,11.38,11.38,0,0,1,1.19-3.92A19,19,0,0,0,123.43,93c.59-7.44-.72-14.17-2.12-20.43l-.4-1.76a68.61,68.61,0,0,1-2.13-13.47c-.13-5.68,1.37-10.71,4.22-14.15l2.18-2.61c1-1.17,1.93-2.31,3-3.64,4.54-5.53,5.65-13.14,2.7-18.49a32.36,32.36,0,0,0-4.64-6l0,0c-.7-.77-1.43-1.57-2.1-2.38-2.72-3.28-4-6.34-3.73-9.11a.75.75,0,0,0-.68-.81h-.07a.73.73,0,0,0-.47.17.75.75,0,0,0-.27.51C118.6,4,120,7.44,123,11c.7.84,1.45,1.66,2.17,2.46a30.89,30.89,0,0,1,4.46,5.72C132.24,24,131.19,31,127,36c-1.08,1.32-2,2.45-3,3.61l-.12.15-2.07,2.48c-3.94,4.76-4.66,10.86-4.56,15.14a69.6,69.6,0,0,0,2.17,13.77l.4,1.76c1.43,6.4,2.67,12.75,2.08,20A17.46,17.46,0,0,1,120.2,99a12.63,12.63,0,0,0-1.32,4.43.75.75,0,0,0,.7.79l0,.25h0Z"/><path class="cls-3" d="M139.47,48.92a13.53,13.53,0,0,0-5.84,9.13,10.38,10.38,0,0,0,2.64,8.37,6.87,6.87,0,0,0,5.21,2.06,7.42,7.42,0,0,0,2.51-.4c2.48-.92,3.16-3,3.82-5.09a14.19,14.19,0,0,1,1.85-4.12.75.75,0,1,0-1.22-.87,15.55,15.55,0,0,0-2.06,4.53c-.7,2.16-1.21,3.51-2.92,4.15-1.26.47-4.45.6-6.07-1.24a8.91,8.91,0,0,1-2.28-7.19,12,12,0,0,1,5.19-8.08,12.29,12.29,0,0,1,5.22-1.81,8.4,8.4,0,0,0,4-1.39.75.75,0,0,0-.38-1.33H149a.74.74,0,0,0-.46.16,7.25,7.25,0,0,1-3.31,1.08A13.91,13.91,0,0,0,139.47,48.92Z"/><path class="cls-3" d="M148.53,108.74a.21.21,0,0,0,.16,0,.21.21,0,0,0,.11-.12,26,26,0,0,0,1.62-9.88h0a36.92,36.92,0,0,0-1.75-9.95c-.15-.55-.35-1.09-.53-1.61l-.27-.78A10.44,10.44,0,0,0,146.65,84a9.67,9.67,0,0,0-4.19-3.25l-2.05-.9c-2.37-1-4.61-2-6.91-3.17a.31.31,0,0,0-.21,0,.3.3,0,0,0-.18.14.29.29,0,0,0,0,.22l.08.29a40.36,40.36,0,0,1,1.48,6.21,18.08,18.08,0,0,1-.42,6.55c-.49,2.09-1.14,4.18-1.88,6.51s-1.38,4.56-1.89,6.62a.7.7,0,0,0,.49.85.69.69,0,0,0,.54-.06.7.7,0,0,0,.34-.42c.6-2,1.26-4.11,1.9-6.1l.13-.41.37-1.18a51.94,51.94,0,0,0,1.53-5.48,19.62,19.62,0,0,0,.3-7.07,16.65,16.65,0,0,0-1.37-4.47l-.38-.83.75.52a24.92,24.92,0,0,0,2.29,1.4c.9.48,1.83.91,2.74,1.32.59.27,1.17.54,1.74.81a8.53,8.53,0,0,1,3.52,2.82,8.84,8.84,0,0,1,1,2l.24.73c.18.53.35,1.07.51,1.6a39.25,39.25,0,0,1,1.81,9.51,56.47,56.47,0,0,1-.33,7.84c-.05.63-.11,1.26-.16,1.89A.22.22,0,0,0,148.53,108.74Z"/><path class="cls-3" d="M125.25,28.69c1.14-3.87-.46-9.24-4.76-16-1.14-1.79-3.18-4.31-4.67-6.15L115.35,6c-1.79-2.22-3.08-4.05-2.16-5.75a.74.74,0,0,0,.06-.57.75.75,0,0,0-.36-.45.74.74,0,0,0-.36-.09.78.78,0,0,0-.21,0,.75.75,0,0,0-.45.36c-1.47,2.71.71,5.42,2.31,7.41l.48.6c1.47,1.82,3.48,4.31,4.57,6,4,6.26,5.58,11.35,4.59,14.74A5.77,5.77,0,0,1,120.49,32c-6.53,3-13.67,7.08-17.15,14.6a19.07,19.07,0,0,0-.63,13.37,34.42,34.42,0,0,0,6.48,11.66l.72.89a27.7,27.7,0,0,1,2.73,3.75,27.32,27.32,0,0,1,2.08,5.24c1.22,3.84,2.22,7.32,2.09,10.85-.08,2.14-1.64,4.26-3,6.14a15.28,15.28,0,0,0-2.1,3.4.75.75,0,0,0,.45,1,.77.77,0,0,0,1-.45,14.37,14.37,0,0,1,1.89-3c1.51-2.07,3.21-4.39,3.31-7,.14-3.77-.89-7.38-2.15-11.36a28.42,28.42,0,0,0-2.2-5.53,29.22,29.22,0,0,0-2.87-4l-.09-.11-.62-.77a33,33,0,0,1-6.21-11.15,17.58,17.58,0,0,1,.56-12.31c3.28-7.08,10.14-11,16.42-13.87A7.2,7.2,0,0,0,125.25,28.69Z"/><path class="cls-3" d="M120.8,37.46h0a.25.25,0,0,0-.17-.08h0a.25.25,0,0,0-.17.07l-.07.06a35.77,35.77,0,0,0-8.08,5.72,20.61,20.61,0,0,0-3.34,3.95,10.53,10.53,0,0,0-1.14,2.45,13.63,13.63,0,0,0-.44,2.64,22.86,22.86,0,0,0,1.92,10.09,16,16,0,0,0,2.8,4.42l3.34,3.51a.37.37,0,0,0,.32.12.36.36,0,0,0,.3-.4c-.15-1-.35-2-.55-3-.08-.4-.16-.8-.24-1.2-.12-.65-.25-1.34-.32-2.08l-.23-2.17c-.17-1.61-.33-3-.54-4.35L114,56c0-.31-.09-.59-.11-.89a13.45,13.45,0,0,1,0-2,21.38,21.38,0,0,1,2.48-8,75.42,75.42,0,0,1,4.47-7.31A.26.26,0,0,0,120.8,37.46ZM116.58,42c-.61.91-1.08,1.69-1.49,2.46a22.87,22.87,0,0,0-2.84,8.51,12.21,12.21,0,0,0,0,2.31c0,.37.09.77.15,1.12l.18,1.09c.21,1.43.4,2.89.58,4.29l.27,2.16c.07.56.17,1.15.3,1.75l.2.91-.74-.82a14.53,14.53,0,0,1-2.47-4,21.4,21.4,0,0,1-1.7-9.37,12.75,12.75,0,0,1,.33-2.29,9,9,0,0,1,.92-2.09,19.16,19.16,0,0,1,3-3.72c.95-.92,2-1.8,2.92-2.62l1.36-1.15Z"/><path class="cls-3" d="M109.74,98.54c2.3-2.83,4.92-6,3-12.06-2.31-7.23-5.92-11.07-9.1-14.46a26.67,26.67,0,0,1-4.5-5.71,26.42,26.42,0,0,1-2-5c-2.66-9.35-5.42-19-5.18-28.9.05-2.12,1.17-4.14,2.46-6.47a28,28,0,0,0,2.86-6.41,19.25,19.25,0,0,0,.19-6.17c-.16-2.18-.31-4.24.28-5.71a33,33,0,0,1,4-7.73.75.75,0,0,0-.11-1.06.75.75,0,0,0-.47-.17.75.75,0,0,0-.59.28,35.27,35.27,0,0,0-4.27,8.12c-.72,1.79-.55,4.12-.38,6.37a18.19,18.19,0,0,1-.14,5.68,26.76,26.76,0,0,1-2.72,6.07c-1.33,2.41-2.59,4.68-2.65,7.17-.25,10.1,2.54,19.88,5.23,29.34A27.88,27.88,0,0,0,97.8,67a28.09,28.09,0,0,0,4.74,6c3.07,3.27,6.55,7,8.76,13.89,1.68,5.25-.36,7.76-2.72,10.66a14.72,14.72,0,0,0-3.35,5.74.75.75,0,0,0,.55.91.76.76,0,0,0,.91-.55A13.39,13.39,0,0,1,109.74,98.54Z"/><path class="cls-3" d="M102.37,38.83A12.34,12.34,0,0,1,105,36.34a40.56,40.56,0,0,1,4.77-2.88l1.77-1c1.14-.64,2.18-1.3,3.29-2A12.7,12.7,0,0,0,118,27.85,6.61,6.61,0,0,0,119,26a7.42,7.42,0,0,0,.35-2.14,11.17,11.17,0,0,0-.83-4,20.7,20.7,0,0,0-4.42-6.62c-.42-.42-.95-.91-1.45-1.34s-.94-.85-1.38-1.28a25.68,25.68,0,0,1-2.48-2.78A12.59,12.59,0,0,1,107,4.66,6.14,6.14,0,0,1,106.63,3a4.19,4.19,0,0,1,0-.82,2.42,2.42,0,0,1,.05-.32l.05-.24a1.29,1.29,0,0,0,0-.44,1.31,1.31,0,0,0-.32-.67,1.7,1.7,0,0,0-.87.31,1.75,1.75,0,0,0-.5.65l-.08.17c-.1.21-.2.41-.28.63a12.49,12.49,0,0,0-.54,1.61,17.17,17.17,0,0,0-.5,3.27,48.58,48.58,0,0,0,0,4.87c0,.51,0,1,.06,1.52a14.67,14.67,0,0,1-.73,5.91,17.24,17.24,0,0,1-1.48,2.62c-.51.78-1,1.52-1.61,2.31l-.29.41a24.8,24.8,0,0,0-3.19,5.47,11.24,11.24,0,0,0-.73,3.32c0,.51,0,.89.06,1.29l.18,2c.18,1.73.43,4,.77,6.31l.11.68c.13.81.25,1.64.43,2.46.1.49.21,1,.35,1.57.07.26.14.52.23.79l.07.19a2.55,2.55,0,0,0,.36.74.51.51,0,0,0,.94-.32v-.08a23.3,23.3,0,0,1,1.35-7.2A12.73,12.73,0,0,1,102.37,38.83Zm-3.16,2.62c-.17.45-.33.94-.48,1.5l-.33,1.19-.16-1.22c-.24-1.87-.51-4-.73-6.21l-.14-1.56c0-.47-.09-1.1-.09-1.47a9.71,9.71,0,0,1,.64-2.85A24.48,24.48,0,0,1,101,25.56l.22-.3c.54-.75,1.09-1.52,1.62-2.31l.12-.19a17.14,17.14,0,0,0,1.51-2.69,16,16,0,0,0,.87-6.55c0-.69,0-1.37-.08-2-.07-1.46-.13-2.84-.06-4.21,0-.45.07-.9.13-1.38l.11-.89.36.82a15.21,15.21,0,0,0,1.74,2.91,27.32,27.32,0,0,0,2.61,3c.45.45.93.9,1.43,1.35s1,.86,1.37,1.26a19.09,19.09,0,0,1,4.08,6.07,9.68,9.68,0,0,1,.73,3.44,4.84,4.84,0,0,1-1.07,3.08A11.23,11.23,0,0,1,114,29.17c-1,.63-2.14,1.35-3.24,2l-1.75,1a42.18,42.18,0,0,0-4.93,3,13.79,13.79,0,0,0-2.92,2.79A14.08,14.08,0,0,0,99.21,41.45Z"/><path class="cls-3" d="M87.13,76.68a35.18,35.18,0,0,0,2-3.42,21,21,0,0,0,1.51-13.74,30,30,0,0,0-6.12-12.37c-1-1.25-2.07-2.44-3.11-3.59A41,41,0,0,1,76.28,37a25.76,25.76,0,0,1-3.11-14.62c.19-3.17,1.28-5.52,2.54-8.25A31.75,31.75,0,0,0,79.24,1.46a.75.75,0,0,0-.71-.79h0a.77.77,0,0,0-.76.71,30.07,30.07,0,0,1-3.4,12.12c-1.27,2.75-2.48,5.33-2.68,8.79A27.24,27.24,0,0,0,75,37.76a42.62,42.62,0,0,0,5.34,6.79c1,1.15,2.1,2.32,3.06,3.53a28.54,28.54,0,0,1,5.83,11.75,19.48,19.48,0,0,1-1.38,12.75,33.81,33.81,0,0,1-2,3.28c-.58.9-1.17,1.79-1.68,2.73a22.81,22.81,0,0,0-2.73,8.92c-.22,2.42-.19,7.7,2.43,15.82a.76.76,0,0,0,.94.48.75.75,0,0,0,.48-.94C82.77,95,82.74,90,83,87.64a21.29,21.29,0,0,1,2.54-8.33c.49-.88,1-1.74,1.59-2.58Z"/><polygon class="cls-3" points="87.3 76.87 87.3 76.87 87.3 76.87 87.3 76.87"/><path class="cls-3" d="M88.38,15.5a39.74,39.74,0,0,0,1.78-5.29,26.62,26.62,0,0,0,.89-5.55A16.12,16.12,0,0,0,90.39-1a.75.75,0,0,0-.94-.49.74.74,0,0,0-.44.37A.75.75,0,0,0,89-.59c.89,2.87.81,6.36-.25,10.42A38.46,38.46,0,0,1,87,14.92l-1.08,2.55a22.27,22.27,0,0,0-.82,2.7,28.83,28.83,0,0,0-.75,5.58,47.69,47.69,0,0,0,.18,5.57A87.06,87.06,0,0,0,85.72,40l.15.81-.58-.59a26,26,0,0,1-5.12-7.33,17.24,17.24,0,0,1-1.52-5.29,20.2,20.2,0,0,1,.47-5.52,42.94,42.94,0,0,1,3.5-9.21l.65-1.39a26,26,0,0,0,2-5.62A12.31,12.31,0,0,0,85-.22a.76.76,0,0,0-.72-.53.76.76,0,0,0-.21,0,.75.75,0,0,0-.45.36.75.75,0,0,0-.06.57,10.65,10.65,0,0,1,.16,5.35,26.22,26.22,0,0,1-1.89,5.26l-.68,1.48a44,44,0,0,0-3.53,9.45,21.58,21.58,0,0,0-.48,6,18.68,18.68,0,0,0,1.67,5.78,26.76,26.76,0,0,0,3.1,5.08,14.24,14.24,0,0,0,4.46,3.93.48.48,0,0,0,.26.06.51.51,0,0,0,.5-.53c-.07-2.13-.33-4.27-.58-6.33-.18-1.49-.36-3-.48-4.54a34.15,34.15,0,0,1,.52-10.66A20.47,20.47,0,0,1,87.33,18l.53-1.3C88,16.31,88.22,15.91,88.38,15.5Z"/><path class="cls-3" d="M105.67,95a15.23,15.23,0,0,0,0-9,13.64,13.64,0,0,0-2.06-4.09c-.81-1.07-1.68-2.07-2.51-3L98,75.24c-1-1.15-1.84-2.19-2.61-3.3a.4.4,0,0,0-.33-.2H95a.37.37,0,0,0-.3.42A8.87,8.87,0,0,1,94,75.85a22.38,22.38,0,0,1-1.78,3.5c-.47.78-1,1.51-1.49,2.27L90,82.75a19.7,19.7,0,0,0-1.84,3.83,24.63,24.63,0,0,0-1.43,8.31,12.84,12.84,0,0,0,1.1,4.21c.34.84.73,1.65,1.1,2.44.21.43.41.86.6,1.29a.75.75,0,0,0,1.38-.6c-.2-.46-.4-.9-.6-1.35-.37-.82-.71-1.59-1-2.38a11.42,11.42,0,0,1-.91-3.66,23.49,23.49,0,0,1,1.37-7.71,18.26,18.26,0,0,1,1.63-3.54L92,82.51c.51-.77,1-1.57,1.5-2.37a19.53,19.53,0,0,0,1.81-3.82A9.2,9.2,0,0,0,95.67,75l.11-.65.35.56a36.35,36.35,0,0,0,3,3.89l.78.94c.84,1,1.7,2,2.46,3.06a12.06,12.06,0,0,1,1.76,3.63,13.83,13.83,0,0,1,0,8,22,22,0,0,1-4,7.23.75.75,0,0,0,1.15,1A22.8,22.8,0,0,0,105.67,95Z"/><path class="cls-3" d="M94.66,87.51a12.65,12.65,0,0,0-2,5.17,8.74,8.74,0,0,0,.19,2.86,13.84,13.84,0,0,0,.6,1.85c.09.24.18.47.26.7a20.49,20.49,0,0,1,.68,2.37l.36,1.66a2.37,2.37,0,0,0,.1.41,1.75,1.75,0,0,0,.39.63l.12-.12a1.36,1.36,0,0,0,.3-.51,2.61,2.61,0,0,0,.08-.35.93.93,0,0,1,.05-.2l.34-1.45a17.9,17.9,0,0,1,.61-2.33A20,20,0,0,1,99,93.89a10.06,10.06,0,0,0,1.19-2.49,6.5,6.5,0,0,0,.11-2.87c0-.08,0-.16,0-.24a3.9,3.9,0,0,0-.11-.47,4.79,4.79,0,0,0-.28-.7c-.11-.23-.23-.44-.34-.64s-.17-.32-.25-.47A3.32,3.32,0,0,1,98.83,84l0-.09a.31.31,0,0,0-.27-.47.31.31,0,0,0-.18.05l-.18.13A12.71,12.71,0,0,0,94.66,87.51Zm3.81-.06.11.26a3.48,3.48,0,0,1,.23.9l0,.14A5.75,5.75,0,0,1,97.6,93a19.48,19.48,0,0,0-2.11,4l-.25.69L95,97a9.25,9.25,0,0,1-.64-4.15A12.09,12.09,0,0,1,96,88.3c.48-.85,1-1.69,1.52-2.4l.32-.47L98,86c0,.19.09.38.15.55C98.23,86.86,98.36,87.17,98.48,87.45Z"/><path class="cls-3" d="M78.45,104.82a.75.75,0,0,0,.75-.71,42.87,42.87,0,0,0-.63-9.16,34.52,34.52,0,0,1,.6-15.67,33.86,33.86,0,0,1,2.22-5.79,46.92,46.92,0,0,0,1.87-4.55,18.35,18.35,0,0,0-.39-11.44c-1-3-3-5.41-5-7.76-.49-.59-1-1.18-1.46-1.78A45.46,45.46,0,0,1,67,17.17a22.46,22.46,0,0,1,3.72-11c1.08-1.81,2-3.38,2.13-5.22a.75.75,0,0,0-.7-.8h0a.77.77,0,0,0-.77.7c-.1,1.48-.91,2.84-1.92,4.56a23.73,23.73,0,0,0-3.93,11.67,47,47,0,0,0,9.74,31.81c.45.57.92,1.13,1.39,1.69l.09.11c2,2.34,3.79,4.55,4.68,7.26s1.66,6.69.39,10.51A45.57,45.57,0,0,1,80,72.86a35.64,35.64,0,0,0-2.31,6.05,36.27,36.27,0,0,0-.62,16.25A41.5,41.5,0,0,1,77.7,104a.75.75,0,0,0,.71.79l0,.25h0Z"/><path class="cls-3" d="M53.82,84.66l1.78-1.74c5.51-5.43,11.85-12.79,11.9-21.53,0-7.33-4.21-13.6-8.33-19.66-.76-1.11-1.54-2.26-2.29-3.42a14.19,14.19,0,0,1-2.15-5.86,18.89,18.89,0,0,0-1.86-5.8c-.58-1.1-1.35-2.4-2.17-3.77a44.81,44.81,0,0,1-4-7.74c-1.15-3.56-.45-8.59.11-12.63.1-.73.2-1.44.28-2.1a.75.75,0,0,0-.65-.84h-.09a.75.75,0,0,0-.75.66c-.08.66-.18,1.36-.28,2.08-.58,4.19-1.3,9.41,0,13.3a45.5,45.5,0,0,0,4.17,8l0,.07c.8,1.34,1.56,2.6,2.1,3.64a17.39,17.39,0,0,1,1.71,5.38,15.84,15.84,0,0,0,2.36,6.4c.73,1.12,1.49,2.24,2.26,3.37l0,.07c4,5.87,8.12,11.94,8.08,18.81,0,8.19-6.15,15.24-11.45,20.47L53,83.36l-.23.23c-5.41,5.27-11,10.72-13.23,18a.75.75,0,0,0,.5.94A.77.77,0,0,0,41,102C43.09,95.11,48.55,89.8,53.82,84.66Z"/><polygon class="cls-3" points="49.19 23.78 49.19 23.78 49.19 23.78 49.19 23.78"/><path class="cls-3" d="M75.32,56.71a23,23,0,0,0-3.92-5.22,32.83,32.83,0,0,1-2.48-3C64.23,41.69,61.64,35.43,61,29.37,59.75,17.63,62.7,11.22,64.86,6.54c1.24-2.69,2.22-4.81,1.94-7A.75.75,0,0,0,66.51-1a.72.72,0,0,0-.44-.15H66a.75.75,0,0,0-.5.28.75.75,0,0,0-.15.55c.22,1.79-.63,3.65-1.82,6.22-2.23,4.84-5.29,11.46-4,23.61.67,6.31,3.35,12.8,8.18,19.84a33.77,33.77,0,0,0,2.59,3.11,22.18,22.18,0,0,1,3.67,4.84c2.18,4.91,2.68,7.42,1.32,12.56A48,48,0,0,1,72.4,77c-1.78,3.86-3.61,7.84-3.79,11.24A22.07,22.07,0,0,0,70,95.53a23.11,23.11,0,0,1,1.4,7.43.75.75,0,0,0,.72.78h0a.75.75,0,0,0,.78-.72,24.2,24.2,0,0,0-1.46-7.92,20.75,20.75,0,0,1-1.3-6.79c.17-3.11,1.94-7,3.65-10.69a48.82,48.82,0,0,0,3-7.36C78.2,64.64,77.52,61.66,75.32,56.71Z"/><path class="cls-3" d="M71.9,64.93c.08-.43.15-.86.19-1.31v-.15A3.69,3.69,0,0,0,72,62.22a.27.27,0,0,0-.19-.23h-.07a.26.26,0,0,0-.13,0,.26.26,0,0,0-.12.16l0,.08a83.24,83.24,0,0,1-4,11.6,46.52,46.52,0,0,1-6.22,10.44,30,30,0,0,1-2,2.24,24.28,24.28,0,0,1-2.27,2c-.64.5-1.3,1-2,1.47-1,.72-2,1.47-3,2.28a23.86,23.86,0,0,0-2.37,2.17,16.44,16.44,0,0,0-2,2.6,16,16,0,0,0-2.25,6.08.76.76,0,0,0,.62.84.74.74,0,0,0,.56-.13.75.75,0,0,0,.3-.49,14.63,14.63,0,0,1,2.18-5.42,16.17,16.17,0,0,1,4-4.34c.81-.65,1.66-1.31,2.49-1.94S57.2,90.41,58,89.77a28.47,28.47,0,0,0,2.39-2.12,30.7,30.7,0,0,0,2.1-2.38c.55-.69,1.07-1.43,1.51-2.06l1.31-1.89-.95,2.29c-.08.2-.17.4-.23.6a14.58,14.58,0,0,0-.62,2.64,22.94,22.94,0,0,0,0,5.35c.23,2.15.66,4.25,1.08,6.29.26,1.29.54,2.62.75,3.92a.75.75,0,0,0,.83.63.75.75,0,0,0,.66-.83c-.22-1.83-.56-3.65-.89-5.4-.3-1.57-.6-3.2-.81-4.79A21.71,21.71,0,0,1,65,87a13.75,13.75,0,0,1,.42-2.42,11.51,11.51,0,0,1,.38-1.17l.5-1.2c1.2-3,2.36-6.19,3.54-9.78.64-2,1.09-3.51,1.48-5C71.51,66.74,71.73,65.85,71.9,64.93Z"/><path class="cls-3" d="M59.17,103.95a.75.75,0,0,0,.9-.56,14.49,14.49,0,0,0,.17-4.21l0-.61a25.38,25.38,0,0,0-.84-4.36s0-.17-.06-.23c-.05-.29-.11-.79-.27-.92-.35-.29-.62.32-.9.76a9.79,9.79,0,0,1-.56.82,7.31,7.31,0,0,1-1,1c-.34.3-.71.59-1.09.89s-.83.65-1.24,1A16.25,16.25,0,0,0,52,100,8.18,8.18,0,0,0,50.56,103a.75.75,0,0,0,.57.89.75.75,0,0,0,.9-.57,6.73,6.73,0,0,1,1.17-2.53,11.43,11.43,0,0,1,2.09-2.07,15.81,15.81,0,0,0,2.3-2.19,5.69,5.69,0,0,0,.52-.76l.32-.45s.08.61.09.77c.07.85,0,1.61.13,2.59a12,12,0,0,1,0,4.31A.76.76,0,0,0,59.17,103.95Z"/><path class="cls-3" d="M58.47,5.95a14.83,14.83,0,0,0,1.6-4.67.75.75,0,0,0-.66-.84.74.74,0,0,0-.55.16.75.75,0,0,0-.28.5A14.57,14.57,0,0,1,57,5.58l-.28.59a33.38,33.38,0,0,0-2.16,5.37,20.68,20.68,0,0,0-.76,5.53v1.37l-.48-1.29a36.77,36.77,0,0,1-1.6-5,20.74,20.74,0,0,1-.56-5.47A22,22,0,0,1,52,1.28.75.75,0,0,0,52,.7a.74.74,0,0,0-.45-.36.74.74,0,0,0-.21,0,.75.75,0,0,0-.72.54,23.46,23.46,0,0,0-1,5.81,22.23,22.23,0,0,0,.55,5.87A32.8,32.8,0,0,0,52.08,18a44.12,44.12,0,0,0,2.64,5.13.5.5,0,0,0,.93-.33,33.3,33.3,0,0,1-.39-5.51A20,20,0,0,1,56,12a31.25,31.25,0,0,1,2-5.14Z"/><path class="cls-3" d="M41.77,55.81c2-6.81,4.05-13.85,3.38-21.05a73.88,73.88,0,0,0-2.33-11.63A68.46,68.46,0,0,1,40.28,9.38a24.89,24.89,0,0,1,.81-9.59.74.74,0,0,0,0-.57.75.75,0,0,0-.44-.37.76.76,0,0,0-.23,0,.75.75,0,0,0-.71.52,26.12,26.12,0,0,0-.89,10.13,69.58,69.58,0,0,0,2.58,14,71.54,71.54,0,0,1,2.3,11.41c.65,6.92-1.28,13.51-3.32,20.5-1.47,5-3,10.23-3.43,15.51-.21,2.54-.17,5.12-.13,7.61s.08,4.75-.09,7.1a78.46,78.46,0,0,1-2.34,15.87.75.75,0,0,0,.52.93.77.77,0,0,0,.93-.52,79.78,79.78,0,0,0,2.39-16.17c.17-2.4.14-4.84.1-7.19s-.08-5,.13-7.5C38.83,65.9,40.33,60.77,41.77,55.81Z"/><path class="cls-3" d="M47.94,81.94c.36-.37.77-.74,1.2-1.14s1.15-1.05,1.67-1.62c.92-1,1.81-2,2.67-3.06a39.89,39.89,0,0,0,2.35-3.3c.36-.56.7-1.13,1.05-1.74a15.18,15.18,0,0,0,.9-1.91,26.39,26.39,0,0,0,1.49-8.05c0-.68.06-1.33.08-2A19.23,19.23,0,0,0,59.29,57a20.92,20.92,0,0,0-.8-4.06A25.37,25.37,0,0,0,57,49.15c-.37-.78-.79-1.51-1.19-2.23-.25-.44-.49-.87-.72-1.31a56.5,56.5,0,0,1-3.28-7.14c-.36-1-.68-1.92-1-2.86-.5-1.49-1-3-1.67-4.53A.2.2,0,0,0,49,31h0a.19.19,0,0,0-.19.2c0,.08,0,.17,0,.25v.18a55.91,55.91,0,0,0,0,6.72c.11,2.78.13,5.06.07,7.16,0,1.25-.11,2.41-.22,3.56a20.86,20.86,0,0,1-.72,3.38c-.3,1.08-.63,2.12-1,3.23s-.78,2.43-1.12,3.7a75.21,75.21,0,0,0-1.94,14.43l-.11,2c-.09,1.72-.19,3.5-.32,5.24l-.07.9a43.43,43.43,0,0,0-.21,6.24.22.22,0,0,0,.09.16.23.23,0,0,0,.31-.06c.48-.7.92-1.4,1.34-2.08A22.46,22.46,0,0,1,47.94,81.94Zm-3.18.79c.06-.55.11-1.1.16-1.64.16-1.76.28-3.55.4-5.28l.14-1.93a80.55,80.55,0,0,1,2-14.12c.3-1.17.66-2.33,1-3.55s.69-2.22,1-3.35a20.91,20.91,0,0,0,.72-3.69c.08-1.16.13-2.39.15-3.65,0-1.71,0-3.55-.15-5.95l-.09-1.63.57,1.53a58.29,58.29,0,0,0,3.08,6.86c.24.46.48.91.73,1.35.4.74.78,1.43,1.11,2.14A23.66,23.66,0,0,1,57,53.41a19.27,19.27,0,0,1,.7,3.75,17.07,17.07,0,0,1,0,1.89c0,.65-.06,1.31-.1,2a25.88,25.88,0,0,1-1.37,7.54,13.59,13.59,0,0,1-.79,1.69c-.33.57-.67,1.13-1,1.67-.7,1.1-1.45,2.18-2.23,3.2s-1.66,2.05-2.52,3c-.44.48-.9.94-1.37,1.38l-.29.27c-.38.35-.8.75-1.17,1.14a20.58,20.58,0,0,0-1.63,2l-.56.79Z"/><path class="cls-3" d="M50.56,66.48c-.52,1.27-1,2.61-1.44,4.08a.33.33,0,0,0,.14.39.31.31,0,0,0,.25,0,.32.32,0,0,0,.2-.15c.79-1.3,1.51-2.61,2.14-3.88a16.38,16.38,0,0,0,1.57-4.2,19,19,0,0,0,.51-4.5,10.13,10.13,0,0,0-.79-4.39.36.36,0,0,0-.28-.2h0a.36.36,0,0,0-.36.32,22.23,22.23,0,0,0-.09,2.56c0,.55,0,1.11,0,1.68a28.92,28.92,0,0,1-.53,4.18A20.36,20.36,0,0,1,50.56,66.48Z"/><path class="cls-3" d="M32,21.31c-.26-1.13-.59-2.27-.9-3.37a31.83,31.83,0,0,1-1.41-6.62C29.49,8.08,29.22,4,30,.78A.75.75,0,0,0,30,.21a.74.74,0,0,0-.46-.34l-.19,0a.74.74,0,0,0-.38.1.75.75,0,0,0-.34.46c-.89,3.5-.61,7.67-.38,11a33.54,33.54,0,0,0,1.47,6.93c.31,1.09.63,2.2.89,3.3a42.2,42.2,0,0,1-.2,18.19c-.35,1.64-.76,3.3-1.17,4.89a68.72,68.72,0,0,0-1.85,9c-.71,6.16.25,12.36,1.19,18.36.44,2.85.89,5.75,1.16,8.59A73.45,73.45,0,0,1,28.53,103a.75.75,0,0,0,.57.89.76.76,0,0,0,.89-.57,74.91,74.91,0,0,0,1.19-22.83c-.28-2.91-.73-5.83-1.17-8.67-.92-5.91-1.87-12-1.18-18a67.61,67.61,0,0,1,1.82-8.79c.42-1.65.84-3.31,1.18-5A43.65,43.65,0,0,0,32,21.31Z"/><path class="cls-3" d="M36.08,50.38l.31-.9c.4-1.17.81-2.38,1.16-3.61a23.46,23.46,0,0,0,.9-4.77,46.19,46.19,0,0,0,.15-4.8,116.87,116.87,0,0,0-2-18.87c-.16-.85-.35-1.71-.54-2.55s-.32-1.39-.44-2a31.93,31.93,0,0,1-.51-4.56,30,30,0,0,1,.88-9.09.76.76,0,0,0-.51-.94.74.74,0,0,0-.21,0,.75.75,0,0,0-.36.09.75.75,0,0,0-.36.45,31.16,31.16,0,0,0-1.08,9.59,33.73,33.73,0,0,0,.47,4.8c.15.83.33,1.62.5,2.38s.34,1.48.47,2.24a124.26,124.26,0,0,1,2,18.57A44.88,44.88,0,0,1,36.79,41a21.72,21.72,0,0,1-.8,4.48c-.32,1.17-.7,2.31-1.1,3.52l-.31.94a26.47,26.47,0,0,0-1.17,4.68,63.36,63.36,0,0,0-.67,9.49,59.11,59.11,0,0,0,.69,9.44.19.19,0,0,0,.18.15h0a.18.18,0,0,0,.13-.05.19.19,0,0,0,.05-.13c0-3.32.05-6.38.24-9.38s.4-6.15.89-9.27A24.37,24.37,0,0,1,36.08,50.38Z"/><path class="cls-3" d="M24.74-2.95l-.18,0a.75.75,0,0,0-.73.57,14.42,14.42,0,0,1-2.56,4.9C16.08,9,14.45,15.86,16.14,24.1a44.44,44.44,0,0,0,2.07,6.56c.45,1.2.91,2.43,1.29,3.65a15.49,15.49,0,0,1-.59,10c-1.31,3.5-3.67,5.82-6.39,8.51L11.28,54a38.49,38.49,0,0,0-9,15.15l-.18.6c-.75,2.51-1.24,4.17-5.24,4.17a.75.75,0,0,0-.75.75.75.75,0,0,0,.75.75c5.13,0,5.88-2.55,6.68-5.24l.17-.58a36.92,36.92,0,0,1,8.64-14.54l1.23-1.22c2.73-2.7,5.31-5.25,6.74-9.05a17,17,0,0,0,.62-11c-.39-1.25-.86-2.49-1.3-3.68a42.9,42.9,0,0,1-2-6.37C16,15.93,17.48,9.65,22.44,3.44A15.88,15.88,0,0,0,25.28-2,.75.75,0,0,0,24.74-2.95Z"/><path class="cls-3" d="M28.18,27.07a18.8,18.8,0,0,0-1.61-5l-.08-.2a25.09,25.09,0,0,1-1.7-4.88,20.88,20.88,0,0,1-.5-5.09l0-.13v0a25.44,25.44,0,0,0,1-4.77.17.17,0,0,0-.07-.15.17.17,0,0,0-.23,0A19.94,19.94,0,0,0,22.31,13a25.86,25.86,0,0,0-1.07,6.85,22.69,22.69,0,0,0,1.18,6.85c.28.95.63,1.88,1,2.78l.19.5a8.56,8.56,0,0,0,.74,1.61,2.89,2.89,0,0,0,1.78,1.35.72.72,0,0,0,.75-.25A7.55,7.55,0,0,0,28.18,27.07Zm-2,3.81-.19.4-.24-.37a6.12,6.12,0,0,1-.67-1.57c-.35-1.05-.69-2.11-1-3.16A21.89,21.89,0,0,1,23,19.83c0-.54,0-1.1,0-1.72l.1-1.53.39,1.48a29,29,0,0,0,1.59,4.36,18.44,18.44,0,0,1,1.58,4.84A6.59,6.59,0,0,1,26.21,30.88Z"/><path class="cls-3" d="M23.5,102.82a.75.75,0,0,0,.57,0,.74.74,0,0,0,.41-.41,30.71,30.71,0,0,0,2-7.82,44.92,44.92,0,0,0,.38-8,36.89,36.89,0,0,0-.37-4c-.08-.59-.2-1.19-.31-1.77l0-.23c-.13-.64-.26-1.25-.36-1.89-.23-1.4-.37-2.79-.52-4.26-.11-1.15-.23-2.34-.4-3.53A33.65,33.65,0,0,0,24,67a20,20,0,0,1-.53-3.73,57.71,57.71,0,0,1,.16-7.75c.26-3.36.76-6.74,1.24-10,.26-1.79.54-3.65.77-5.48a.33.33,0,0,0-.21-.39.33.33,0,0,0-.41.2c-.23.66-.43,1.28-.64,1.9-.53,1.58-1.07,3.22-1.71,4.78a47.26,47.26,0,0,1-2.9,6.35,38.2,38.2,0,0,1-3.93,5.75c-.54.67-1.12,1.33-1.68,2a44.87,44.87,0,0,0-2.89,3.56A80,80,0,0,0,4,76.52a30.82,30.82,0,0,0-2.24,6.93,19.43,19.43,0,0,0-.08,7.37.75.75,0,0,0,1.47-.28c-.68-3.8.09-8.16,2.37-13.33a85.15,85.15,0,0,1,7-11.95l.11-.17a42.73,42.73,0,0,1,2.74-3.43c.57-.66,1.15-1.35,1.71-2a40.12,40.12,0,0,0,4-6c.3-.54.59-1.1.87-1.68l.65-1.33L22.48,52c-.13,1.12-.25,2.24-.35,3.33a58.79,58.79,0,0,0-.21,8,21.84,21.84,0,0,0,.55,4,32.44,32.44,0,0,1,.7,3.77c.13,1,.23,2.05.32,3.06.15,1.56.3,3.18.57,4.78.11.66.25,1.33.38,2l.06.29c.1.52.21,1.05.28,1.59a35.43,35.43,0,0,1,.36,3.82,48.78,48.78,0,0,1-.29,7.71,29.61,29.61,0,0,1-1.75,7.43A.76.76,0,0,0,23.5,102.82Z"/><path class="cls-3" d="M21.93,91.94a27.89,27.89,0,0,0-.58-9.64h0c-.18-.8-.41-1.59-.64-2.33l-.37-1.12a7.06,7.06,0,0,1-.18-1c-.17-1.44-.26-3-.34-4.44l-.06-1a38.59,38.59,0,0,0-1-8.22v-.06l-.1-.34a.14.14,0,0,0-.12-.1h0a.14.14,0,0,0-.14.13l-.18.23-.41,1-1.57,3.63A50.49,50.49,0,0,1,14,73.45c-.58,1.16-1.25,2.21-2,3.33L11.33,78a36.48,36.48,0,0,0-2.48,4.85A20.64,20.64,0,0,0,7.28,93.7a47.26,47.26,0,0,1,.61,5.21c.07,1.29.09,2.57.1,3.91,0,.46,0,.91,0,1.38a.75.75,0,0,0,.72.74.79.79,0,0,0,.54-.2.74.74,0,0,0,.24-.52A52.62,52.62,0,0,0,9,93.46a19,19,0,0,1,1.49-10,34.69,34.69,0,0,1,2.3-4.66l.67-1.11c.7-1.15,1.43-2.33,2-3.55a42.85,42.85,0,0,0,2.12-5c0-.1.06-.2.09-.29l.55-1.84v1.73c0,1.54,0,3.05.09,4.49l0,.42c.05,1.41.11,2.86.25,4.34l0,.19a6.91,6.91,0,0,0,.2,1.14l.34,1.11c.23.82.42,1.51.56,2.22a27.53,27.53,0,0,1,.54,9.05,21.92,21.92,0,0,1-2.73,8.56.75.75,0,0,0,1.28.78A21.92,21.92,0,0,0,21.93,91.94Z"/><path class="cls-3" d="M14.38,84.32l-.1.14c-.2.27-.45.64-.68,1s-.43.71-.64,1.09a13.26,13.26,0,0,0-1.52,4.83,13.41,13.41,0,0,0,.41,5.06,10.63,10.63,0,0,0,.93,2.44l.09.13a2.5,2.5,0,0,0,.38.49,1.56,1.56,0,0,0,1,.52,1.44,1.44,0,0,0,1.1-.46,2.52,2.52,0,0,0,.5-.74,24.08,24.08,0,0,0,1.66-9.75,23.6,23.6,0,0,0-.23-2.47c0-.32-.1-.64-.16-1L17,85.07h0L17,84.3l-.09-.65c-.08-.58-.17-1.17-.22-1.76,0-.12,0-.24,0-.37s0-.09,0-.14l0-.28v0a.37.37,0,0,0-.45-.31l-.1,0a.44.44,0,0,0-.15.2v0l0,.08,0,.32a4.54,4.54,0,0,1-.36,1.12A10.35,10.35,0,0,1,14.38,84.32ZM15.67,86c0,.28.08.55.11.83a23,23,0,0,1,.15,2.32,23.5,23.5,0,0,1-1.41,9l-.2.51-.26-.49A9.45,9.45,0,0,1,13.33,96,11.93,11.93,0,0,1,13,91.55a13.16,13.16,0,0,1,1.32-4.31c.17-.35.36-.68.56-1l.67-1.06Z"/><path class="cls-3" d="M10,50.95a17,17,0,0,0,2.78-3.34,16.92,16.92,0,0,0,1.74-6.49c.46-3.63.93-7.39.26-11.13a36.78,36.78,0,0,0-1.67-5.69c-.43-1.23-.88-2.5-1.22-3.76-1.1-4.1.12-12.33,7.2-22A.74.74,0,0,0,19.23-2a.74.74,0,0,0-.3-.49.75.75,0,0,0-.44-.14h-.12a.74.74,0,0,0-.49.3C10.5,7.74,9.2,16.3,10.45,20.93c.36,1.32.81,2.62,1.25,3.87a35,35,0,0,1,1.6,5.45c.63,3.51.17,7.15-.27,10.67a15.83,15.83,0,0,1-1.55,5.93,15.62,15.62,0,0,1-2.55,3l-.48.48A50.15,50.15,0,0,0,2.15,58.3a.75.75,0,0,0,.23,1,.77.77,0,0,0,1-.23,48.55,48.55,0,0,1,6.12-7.69Z"/><path class="cls-3" d="M2.43,47A.77.77,0,0,0,3.49,47,26.56,26.56,0,0,0,9,40.55,12.44,12.44,0,0,0,10.57,32,19,19,0,0,0,7.73,26c-.28-.46-.57-.91-.84-1.37-.9-1.51-3-5.33-2.67-8.08a15.08,15.08,0,0,1,2.36-6C8,8,9.67,5.1,9.49.68A.75.75,0,0,0,9.24.16.73.73,0,0,0,8.75,0h0A.75.75,0,0,0,8,.74c.17,4-1.23,6.43-2.71,9a16.46,16.46,0,0,0-2.55,6.62c-.32,3.08,1.66,7,2.87,9,.28.47.56.93.85,1.39A17.66,17.66,0,0,1,9.1,32.35a11,11,0,0,1-1.41,7.47,25.22,25.22,0,0,1-5.2,6.11A.75.75,0,0,0,2.43,47Z"/><path class="cls-3" d="M137.37,32.16A12.12,12.12,0,0,0,140.22,23a11.61,11.61,0,0,0-5-8.51c-3.72-2.68-9.65-8.38-7.55-16.51a.74.74,0,0,0-.08-.57.74.74,0,0,0-.46-.34l-.19,0a.73.73,0,0,0-.37.1.74.74,0,0,0-.35.46c-1.7,6.57,1.26,13.17,8.12,18.11a10.15,10.15,0,0,1,4.38,7.43,10.68,10.68,0,0,1-2.45,8,14.4,14.4,0,0,0-2.58,4.54A18.54,18.54,0,0,1,129.84,42a24.41,24.41,0,0,0-5.95,22.66c.58,2.28,1.32,4.48,2,6.61a61.22,61.22,0,0,1,2.74,10.06c.74,4.72-.44,9.77-1.59,14.65-.35,1.5-.72,3.06-1,4.56a.75.75,0,0,0,.59.88.76.76,0,0,0,.88-.59c.29-1.48.64-3,1-4.51,1.18-5,2.39-10.21,1.61-15.23a63.28,63.28,0,0,0-2.8-10.3c-.71-2.11-1.44-4.3-2-6.51a22.88,22.88,0,0,1,5.57-21.24,20,20,0,0,0,4.16-6.83A13.11,13.11,0,0,1,137.37,32.16Z"/><path class="cls-3" d="M105.91,29.58l.37-.07a11.69,11.69,0,0,0,4.1-1.47,6.65,6.65,0,0,0,2.74-3.62,7.5,7.5,0,0,0-.05-4.48h0a8.56,8.56,0,0,0-.88-2,9,9,0,0,0-.6-.87l-.29-.35-.14-.17a1.2,1.2,0,0,0-.25-.25,1,1,0,0,0-.5-.17.93.93,0,0,0-.26.44,1.25,1.25,0,0,0,0,.25.41.41,0,0,1,0,.16l0,.07c0,.13-.08.28-.12.42s-.15.51-.24.77l0,.08a12.28,12.28,0,0,1-.7,1.76,16.45,16.45,0,0,1-2.14,3.23c-.46.55-.93,1.06-1.44,1.59s-.87.92-1.32,1.44l0,0a4.38,4.38,0,0,0-.64,1,1.85,1.85,0,0,0-.17.85,1.53,1.53,0,0,0,.12.51,1.89,1.89,0,0,0,.21.37,1.49,1.49,0,0,0,.84.56,2.21,2.21,0,0,0,.79,0Zm-1.27-1.31.31-.47a4.34,4.34,0,0,1,.34-.44c.35-.4.74-.8,1.15-1.22s1.12-1.15,1.64-1.77a15,15,0,0,0,2.31-3.6c.18-.4.34-.83.48-1.26l.23-.71.24.71c.1.29.19.57.26.86a6.29,6.29,0,0,1,0,3.58,5.19,5.19,0,0,1-2.07,2.8A10.38,10.38,0,0,1,106,28l-.78.15Z"/><path class="cls-3" d="M150.8,30.5a20.31,20.31,0,0,0-3.2-5.59,22.59,22.59,0,0,1-2.76-4.47c-1.91-4.26-4.93-7.05-7.6-9.52-3.33-3.08-6-5.52-5.38-9.66a.75.75,0,0,0-.64-.85h-.11a.75.75,0,0,0-.74.65c-.69,4.91,2.48,7.85,5.84,11,2.56,2.37,5.46,5.06,7.25,9a24,24,0,0,0,2.92,4.75,18.79,18.79,0,0,1,3,5.2,6.93,6.93,0,0,1-1.56,7.51c-1,1.15-2.82,1.81-4.87,2.59-3.41,1.28-7.64,2.87-11.41,7.45s-3.8,13.25-1.61,18.34a14.46,14.46,0,0,0,13,8.51h0l.63,0a.75.75,0,0,0,.46-1.31.73.73,0,0,0-.54-.19,12.88,12.88,0,0,1-12.16-7.59c-2-4.69-1.84-12.87,1.39-16.8,3.52-4.28,7.54-5.79,10.77-7,2.25-.84,4.18-1.57,5.47-3A8.4,8.4,0,0,0,150.8,30.5Z"/><path class="cls-3" d="M54,3a5.53,5.53,0,0,0,0,2.42.34.34,0,0,0,.16.21.31.31,0,0,0,.25,0,.32.32,0,0,0,.2-.16,9.3,9.3,0,0,0,.78-2l.06-.19L56,1.32a.46.46,0,0,0-.69-.51A3.37,3.37,0,0,0,54,3Z"/><path class="cls-3" d="M141,33l-.09.08a5.1,5.1,0,0,0-1.59,3,1.32,1.32,0,0,0,0,.35v.17a1.35,1.35,0,0,0,.1.52,1.86,1.86,0,0,0,.68,1,2.85,2.85,0,0,0,1.93.48,4.61,4.61,0,0,0,3.16-1.52,2.88,2.88,0,0,0,.48-.9,1.62,1.62,0,0,0,.1-.38l0-.09a2.76,2.76,0,0,0,0-.42,7.48,7.48,0,0,0-.11-1.66,14.88,14.88,0,0,0-.88-3,14.45,14.45,0,0,0-.65-1.37l0-.06c-.11-.2-.22-.4-.34-.6l-.29-.45a.94.94,0,0,0-.21-.24.86.86,0,0,0-.43-.17,2.65,2.65,0,0,0-.44.95,3.11,3.11,0,0,0,0,.34l-.06.63a12.29,12.29,0,0,1-.16,1.33,2.89,2.89,0,0,1-.4,1.11A5,5,0,0,1,141,33Zm1.13,1.1a5.1,5.1,0,0,0,1-1.14,4.05,4.05,0,0,0,.27-.57l.28-.7.19.73a12.88,12.88,0,0,1,.32,1.47c.14.8.17,1.87-.2,2.25a3.18,3.18,0,0,1-2,1h-.15a1.25,1.25,0,0,1-.77-.21c-.15-.12-.16-.28-.15-.59a3.89,3.89,0,0,1,.4-1.15,3.76,3.76,0,0,1,.76-1Z"/><path class="cls-3" d="M146.78,51.7a1.17,1.17,0,0,0-.3-.06l-.11,0-.44,0h-.26a4.69,4.69,0,0,0-.64,0,6.64,6.64,0,0,0-1.78.46,8.93,8.93,0,0,0-3.11,2.07,8.37,8.37,0,0,0-2,3.24,4.38,4.38,0,0,0-.24,1,4.19,4.19,0,0,0,0,1.08,3.94,3.94,0,0,0,.9,1.93,2.92,2.92,0,0,0,2,1.07,3.14,3.14,0,0,0,2.15-.73l.19-.17a3.52,3.52,0,0,0,.55-.57,4,4,0,0,0,.55-.93,9.38,9.38,0,0,0,.54-1.71l0-.08.19-.77a20.18,20.18,0,0,1,.68-2.46c.1-.3.23-.58.36-.87s.17-.38.25-.58l.12-.27a4.63,4.63,0,0,0,.18-.46l.08-.16a2.47,2.47,0,0,0,.21-.48,1.88,1.88,0,0,0,.07-.41.8.8,0,0,0-.21-.13Zm-1.89,1.71a6.9,6.9,0,0,0-.59,1.06h0a15.71,15.71,0,0,0-1,3.21l-.05.23a10,10,0,0,1-.45,1.53,2.72,2.72,0,0,1-.77,1.08,1.72,1.72,0,0,1-1,.44,1.4,1.4,0,0,1-1-.51,2.47,2.47,0,0,1-.54-1.22,2.65,2.65,0,0,1,0-.66,2.58,2.58,0,0,1,.2-.67,7.58,7.58,0,0,1,1.67-2.6,10,10,0,0,1,2.55-1.88l.7-.37.84-.41Z"/><path class="cls-3" d="M144.6,102.64c.13-.79.27-1.6.38-2.42A16.58,16.58,0,0,0,144.5,93a13.17,13.17,0,0,0-1.5-3.33,10.42,10.42,0,0,0-1.09-1.44l-.1-.12-.23-.25a3,3,0,0,0-.5-.42,4,4,0,0,0-.64-.33l-.07,0a1.11,1.11,0,0,0,0,.46,4.62,4.62,0,0,1,.08.49s0,.08,0,.14l.16,1.22c.06.48.13,1,.15,1.46a10.32,10.32,0,0,1-.49,3.56A29.06,29.06,0,0,1,138,99.29c-.33.63-.67,1.26-1,1.91l-.42.9a8.16,8.16,0,0,0-.37,1,5.57,5.57,0,0,0-.16,2.24,7.67,7.67,0,0,0,1.92,3.78,32.79,32.79,0,0,0,5.82,5.11l.07.07a.35.35,0,0,0,.31.15.33.33,0,0,0,.29-.36l0-.26c0-.38-.08-.75-.13-1.13a30.3,30.3,0,0,1-.3-5.61A38.3,38.3,0,0,1,144.6,102.64ZM143.37,100c-.09.68-.2,1.38-.31,2.08a42.87,42.87,0,0,0-.57,4.94,18.82,18.82,0,0,0,.22,4.05l.14.79-.56-.56-1-1a28.21,28.21,0,0,1-2.14-2.22,5.92,5.92,0,0,1-1.52-3,4,4,0,0,1,.14-1.58,6.56,6.56,0,0,1,.3-.79l.4-.84c.28-.58.58-1.16.88-1.74a27,27,0,0,0,2.32-5.41,12.32,12.32,0,0,0,.43-2.92l0-1.23.45,1.15a12.36,12.36,0,0,1,.51,1.58A16.35,16.35,0,0,1,143.37,100Z"/><path class="cls-3" d="M91.87,14.4c-.24.72-.46,1.5-.68,2.32l-.17.63c-.15.55-.3,1.11-.47,1.62s-.5,1.47-.73,2.3a19.91,19.91,0,0,0-.53,2.38.43.43,0,0,0,.79.27,20,20,0,0,0,1-2.19c.31-.74.58-1.47.85-2.29A13.21,13.21,0,0,0,92.46,17a15.52,15.52,0,0,0,.09-2.47.34.34,0,0,0-.23-.31l-.11,0a.34.34,0,0,0-.33.24Z"/><path class="cls-3" d="M-6.53,48.92a13.53,13.53,0,0,0-5.84,9.13,10.38,10.38,0,0,0,2.64,8.37,6.87,6.87,0,0,0,5.21,2.06A7.42,7.42,0,0,0-2,68.08C.46,67.16,1.15,65,1.81,63a14.19,14.19,0,0,1,1.85-4.12A.75.75,0,0,0,2.44,58,15.55,15.55,0,0,0,.38,62.53C-.31,64.69-.83,66-2.54,66.68c-1.26.47-4.45.6-6.07-1.24a8.91,8.91,0,0,1-2.28-7.19A12,12,0,0,1-5.7,50.16,12.29,12.29,0,0,1-.47,48.36a8.4,8.4,0,0,0,4-1.39.75.75,0,0,0-.38-1.33H3a.74.74,0,0,0-.46.16A7.25,7.25,0,0,1-.73,46.88,13.91,13.91,0,0,0-6.53,48.92Z"/><path class="cls-3" d="M2.53,108.74a.21.21,0,0,0,.16,0,.21.21,0,0,0,.11-.12,26,26,0,0,0,1.62-9.88h0a36.92,36.92,0,0,0-1.75-9.95c-.15-.55-.35-1.09-.53-1.61l-.27-.78A10.44,10.44,0,0,0,.65,84a9.67,9.67,0,0,0-4.19-3.25l-2.05-.9c-2.37-1-4.61-2-6.91-3.17a.31.31,0,0,0-.21,0,.3.3,0,0,0-.18.14.29.29,0,0,0,0,.22l.08.29a40.36,40.36,0,0,1,1.48,6.21,18.08,18.08,0,0,1-.42,6.55c-.49,2.09-1.14,4.18-1.88,6.51s-1.38,4.56-1.89,6.62a.7.7,0,0,0,.49.85.69.69,0,0,0,.54-.06.7.7,0,0,0,.34-.42c.6-2,1.26-4.11,1.9-6.1l.13-.41.37-1.18a51.94,51.94,0,0,0,1.53-5.48,19.62,19.62,0,0,0,.3-7.07,16.65,16.65,0,0,0-1.37-4.47l-.38-.83.75.52A24.92,24.92,0,0,0-8.65,80c.9.48,1.83.91,2.74,1.32.59.27,1.17.54,1.74.81A8.53,8.53,0,0,1-.66,84.91a8.84,8.84,0,0,1,1,2l.24.73c.18.53.35,1.07.51,1.6a39.25,39.25,0,0,1,1.81,9.51,56.47,56.47,0,0,1-.33,7.84c-.05.63-.11,1.26-.16,1.89A.22.22,0,0,0,2.53,108.74Z"/><path class="cls-3" d="M4.8,30.5a20.31,20.31,0,0,0-3.2-5.59,22.59,22.59,0,0,1-2.76-4.47c-1.91-4.26-4.93-7.05-7.6-9.52-3.33-3.08-6-5.52-5.38-9.66a.75.75,0,0,0-.64-.85h-.11a.74.74,0,0,0-.45.15.74.74,0,0,0-.29.5C-16.31,6-13.14,8.91-9.77,12c2.56,2.37,5.46,5.06,7.25,9A24,24,0,0,0,.4,25.8a18.79,18.79,0,0,1,3,5.2,6.93,6.93,0,0,1-1.56,7.51C.79,39.67-1,40.33-3,41.1c-3.41,1.28-7.64,2.87-11.41,7.45s-3.8,13.25-1.61,18.34a14.46,14.46,0,0,0,13,8.51h0l.63,0a.75.75,0,0,0,.71-.79A.75.75,0,0,0-2,74.08a.73.73,0,0,0-.54-.19,12.88,12.88,0,0,1-12.16-7.59c-2-4.69-1.84-12.87,1.39-16.8,3.52-4.28,7.54-5.79,10.77-7,2.25-.84,4.18-1.57,5.47-3A8.4,8.4,0,0,0,4.8,30.5Z"/><path class="cls-3" d="M.78,51.7a1.17,1.17,0,0,0-.3-.06l-.11,0-.44,0H-.34a4.69,4.69,0,0,0-.64,0,6.64,6.64,0,0,0-1.78.46,8.93,8.93,0,0,0-3.11,2.07,8.37,8.37,0,0,0-2,3.24,4.38,4.38,0,0,0-.24,1,4.19,4.19,0,0,0,0,1.08,3.94,3.94,0,0,0,.9,1.93,2.92,2.92,0,0,0,2,1.07A3.14,3.14,0,0,0-3,61.75l.19-.17A3.52,3.52,0,0,0-2.26,61a4,4,0,0,0,.55-.93,9.38,9.38,0,0,0,.54-1.71l0-.08.19-.77a20.18,20.18,0,0,1,.68-2.46c.1-.3.23-.58.36-.87s.17-.38.25-.58l.12-.27a4.63,4.63,0,0,0,.18-.46l.08-.16a2.47,2.47,0,0,0,.21-.48A1.88,1.88,0,0,0,1,51.83a.8.8,0,0,0-.21-.13Zm-1.89,1.71a6.9,6.9,0,0,0-.59,1.06h0a15.71,15.71,0,0,0-1,3.21l-.05.23a10,10,0,0,1-.45,1.53A2.72,2.72,0,0,1-4,60.52,1.72,1.72,0,0,1-5,61a1.4,1.4,0,0,1-1-.51,2.47,2.47,0,0,1-.54-1.22,2.65,2.65,0,0,1,0-.66,2.58,2.58,0,0,1,.2-.67,7.58,7.58,0,0,1,1.67-2.6,10,10,0,0,1,2.55-1.88l.7-.37.84-.41Z"/><path class="cls-3" d="M119.64,2.25a.75.75,0,0,0,.75-.71,11.38,11.38,0,0,1,1.19-3.92A19,19,0,0,0,123.43-9c.59-7.44-.72-14.17-2.12-20.43l-.4-1.76a68.61,68.61,0,0,1-2.13-13.47c-.13-5.68,1.37-10.71,4.22-14.15l2.18-2.61c1-1.17,1.93-2.31,3-3.64,4.54-5.53,5.65-13.14,2.7-18.49a32.36,32.36,0,0,0-4.64-6l0,0c-.7-.77-1.43-1.57-2.1-2.38-2.72-3.28-4-6.34-3.73-9.11a.75.75,0,0,0-.68-.81h-.07a.73.73,0,0,0-.47.17.75.75,0,0,0-.27.51C118.6-98,120-94.56,123-91c.7.84,1.45,1.66,2.17,2.46a30.89,30.89,0,0,1,4.46,5.72C132.24-78,131.19-71,127-66c-1.08,1.32-2,2.45-3,3.61l-.12.15-2.07,2.48c-3.94,4.76-4.66,10.86-4.56,15.14a69.6,69.6,0,0,0,2.17,13.77l.4,1.76c1.43,6.4,2.67,12.75,2.08,20A17.46,17.46,0,0,1,120.2-3a12.63,12.63,0,0,0-1.32,4.43.75.75,0,0,0,.7.79l0,.25h0Z"/><path class="cls-3" d="M148.53,6.74a.21.21,0,0,0,.16,0,.21.21,0,0,0,.11-.12,26,26,0,0,0,1.62-9.88h0a36.92,36.92,0,0,0-1.75-9.95c-.15-.55-.35-1.09-.53-1.61l-.27-.78A10.44,10.44,0,0,0,146.65-18a9.67,9.67,0,0,0-4.19-3.25l-2.05-.9c-2.37-1-4.61-2-6.91-3.17a.31.31,0,0,0-.21,0,.3.3,0,0,0-.18.14.29.29,0,0,0,0,.22l.08.29a40.36,40.36,0,0,1,1.48,6.21,18.08,18.08,0,0,1-.42,6.55c-.49,2.09-1.14,4.18-1.88,6.51S131-.85,130.46,1.22a.7.7,0,0,0,.49.85.69.69,0,0,0,.54-.06.7.7,0,0,0,.34-.42c.6-2,1.26-4.11,1.9-6.1l.13-.41.37-1.18a51.94,51.94,0,0,0,1.53-5.48,19.62,19.62,0,0,0,.3-7.07,16.65,16.65,0,0,0-1.37-4.47l-.38-.83.75.52a24.92,24.92,0,0,0,2.29,1.4c.9.48,1.83.91,2.74,1.32.59.27,1.17.54,1.74.81a8.53,8.53,0,0,1,3.52,2.82,8.84,8.84,0,0,1,1,2l.24.73c.18.53.35,1.07.51,1.6a39.25,39.25,0,0,1,1.81,9.51,56.47,56.47,0,0,1-.33,7.84c-.05.63-.11,1.26-.16,1.89A.22.22,0,0,0,148.53,6.74Z"/><path class="cls-3" d="M125.25-73.31c1.14-3.87-.46-9.24-4.76-16-1.14-1.79-3.18-4.31-4.67-6.15l-.48-.59c-1.79-2.22-3.08-4.05-2.16-5.75a.74.74,0,0,0,.06-.57.75.75,0,0,0-.36-.45.74.74,0,0,0-.36-.09.78.78,0,0,0-.21,0,.75.75,0,0,0-.45.36c-1.47,2.71.71,5.42,2.31,7.41l.48.6c1.47,1.82,3.48,4.31,4.57,6,4,6.26,5.58,11.35,4.59,14.74A5.77,5.77,0,0,1,120.49-70c-6.53,3-13.67,7.08-17.15,14.6a19.07,19.07,0,0,0-.63,13.37,34.42,34.42,0,0,0,6.48,11.66l.72.89a27.7,27.7,0,0,1,2.73,3.75,27.32,27.32,0,0,1,2.08,5.24c1.22,3.84,2.22,7.32,2.09,10.85-.08,2.14-1.64,4.26-3,6.14a15.28,15.28,0,0,0-2.1,3.4.74.74,0,0,0,0,.57.74.74,0,0,0,.42.39.77.77,0,0,0,1-.45,14.37,14.37,0,0,1,1.89-3c1.51-2.07,3.21-4.39,3.31-7,.14-3.77-.89-7.38-2.15-11.36a28.42,28.42,0,0,0-2.2-5.53,29.22,29.22,0,0,0-2.87-4l-.09-.11-.62-.77a33,33,0,0,1-6.21-11.15,17.58,17.58,0,0,1,.56-12.31c3.28-7.08,10.14-11,16.42-13.87A7.2,7.2,0,0,0,125.25-73.31Z"/><path class="cls-3" d="M109.74-3.46c2.3-2.83,4.92-6,3-12.06-2.31-7.23-5.92-11.07-9.1-14.46a26.67,26.67,0,0,1-4.5-5.71,26.42,26.42,0,0,1-2-5c-2.66-9.35-5.42-19-5.18-28.9.05-2.12,1.17-4.14,2.46-6.47a28,28,0,0,0,2.86-6.41,19.25,19.25,0,0,0,.19-6.17c-.16-2.18-.31-4.24.28-5.71a33,33,0,0,1,4-7.73.75.75,0,0,0-.11-1.06.75.75,0,0,0-.47-.17.75.75,0,0,0-.59.28,35.27,35.27,0,0,0-4.27,8.12c-.72,1.79-.55,4.12-.38,6.37a18.19,18.19,0,0,1-.14,5.68,26.76,26.76,0,0,1-2.72,6.07c-1.33,2.41-2.59,4.68-2.65,7.17-.25,10.1,2.54,19.88,5.23,29.34A27.88,27.88,0,0,0,97.8-35a28.09,28.09,0,0,0,4.74,6c3.07,3.27,6.55,7,8.76,13.89,1.68,5.25-.36,7.76-2.72,10.66a14.72,14.72,0,0,0-3.35,5.74.75.75,0,0,0,.55.91.76.76,0,0,0,.91-.55A13.39,13.39,0,0,1,109.74-3.46Z"/><path class="cls-3" d="M87.13-25.32a35.18,35.18,0,0,0,2-3.42,21,21,0,0,0,1.51-13.74,30,30,0,0,0-6.12-12.37c-1-1.25-2.07-2.44-3.11-3.59A41,41,0,0,1,76.28-65a25.76,25.76,0,0,1-3.11-14.62c.19-3.17,1.28-5.52,2.54-8.25a31.75,31.75,0,0,0,3.53-12.67.75.75,0,0,0-.71-.79h0a.77.77,0,0,0-.76.71,30.07,30.07,0,0,1-3.4,12.12c-1.27,2.75-2.48,5.33-2.68,8.79A27.24,27.24,0,0,0,75-64.24a42.62,42.62,0,0,0,5.34,6.79c1,1.15,2.1,2.32,3.06,3.53a28.54,28.54,0,0,1,5.83,11.75,19.48,19.48,0,0,1-1.38,12.75,33.81,33.81,0,0,1-2,3.28c-.58.9-1.17,1.79-1.68,2.73a22.81,22.81,0,0,0-2.73,8.92c-.22,2.42-.19,7.7,2.43,15.82a.76.76,0,0,0,.94.48.75.75,0,0,0,.48-.94C82.77-7,82.74-12,83-14.36a21.29,21.29,0,0,1,2.54-8.33c.49-.88,1-1.74,1.59-2.58Z"/><path class="cls-3" d="M105.67-7a15.23,15.23,0,0,0,0-9,13.64,13.64,0,0,0-2.06-4.09c-.81-1.07-1.68-2.07-2.51-3L98-26.76c-1-1.15-1.84-2.19-2.61-3.3a.4.4,0,0,0-.33-.2H95a.37.37,0,0,0-.24.15.37.37,0,0,0-.06.27A8.87,8.87,0,0,1,94-26.15a22.38,22.38,0,0,1-1.78,3.5c-.47.78-1,1.51-1.49,2.27L90-19.25a19.7,19.7,0,0,0-1.84,3.83A24.63,24.63,0,0,0,86.7-7.12a12.84,12.84,0,0,0,1.1,4.21c.34.84.73,1.65,1.1,2.44.21.43.41.86.6,1.29a.76.76,0,0,0,1,.39.75.75,0,0,0,.39-1c-.2-.46-.4-.9-.6-1.35-.37-.82-.71-1.59-1-2.38a11.42,11.42,0,0,1-.91-3.66,23.49,23.49,0,0,1,1.37-7.71,18.26,18.26,0,0,1,1.63-3.54L92-19.49c.51-.77,1-1.57,1.5-2.37a19.53,19.53,0,0,0,1.81-3.82A9.2,9.2,0,0,0,95.67-27l.11-.65.35.56a36.35,36.35,0,0,0,3,3.89l.78.94c.84,1,1.7,2,2.46,3.06a12.06,12.06,0,0,1,1.76,3.63,13.83,13.83,0,0,1,0,8,22,22,0,0,1-4,7.23.75.75,0,0,0,.09,1.05A.75.75,0,0,0,101.2.68,22.8,22.8,0,0,0,105.67-7Z"/><path class="cls-3" d="M94.66-14.49a12.65,12.65,0,0,0-2,5.17,8.74,8.74,0,0,0,.19,2.86,13.84,13.84,0,0,0,.6,1.85c.09.24.18.47.26.7a20.49,20.49,0,0,1,.68,2.37L94.78.12a2.37,2.37,0,0,0,.1.41,1.75,1.75,0,0,0,.39.63L95.38,1a1.36,1.36,0,0,0,.3-.51,2.61,2.61,0,0,0,.08-.35.93.93,0,0,1,.05-.2l.34-1.45a17.9,17.9,0,0,1,.61-2.33A20,20,0,0,1,99-8.11a10.06,10.06,0,0,0,1.19-2.49,6.5,6.5,0,0,0,.11-2.87c0-.08,0-.16,0-.24a3.9,3.9,0,0,0-.11-.47,4.79,4.79,0,0,0-.28-.7c-.11-.23-.23-.44-.34-.64s-.17-.32-.25-.47A3.32,3.32,0,0,1,98.83-18l0-.09a.31.31,0,0,0,0-.33.31.31,0,0,0-.26-.14.31.31,0,0,0-.18.05l-.18.13A12.71,12.71,0,0,0,94.66-14.49Zm3.81-.06.11.26a3.48,3.48,0,0,1,.23.9l0,.14A5.75,5.75,0,0,1,97.6-9,19.48,19.48,0,0,0,95.5-5l-.25.69L95-5a9.25,9.25,0,0,1-.64-4.15A12.09,12.09,0,0,1,96-13.7c.48-.85,1-1.69,1.52-2.4l.32-.47L98-16c0,.19.09.38.15.55C98.23-15.14,98.36-14.83,98.48-14.55Z"/><path class="cls-3" d="M78.45,2.82a.75.75,0,0,0,.75-.71,42.87,42.87,0,0,0-.63-9.16,34.52,34.52,0,0,1,.6-15.67,33.86,33.86,0,0,1,2.22-5.79,46.92,46.92,0,0,0,1.87-4.55,18.35,18.35,0,0,0-.39-11.44c-1-3-3-5.41-5-7.76-.49-.59-1-1.18-1.46-1.78A45.46,45.46,0,0,1,67-84.83a22.46,22.46,0,0,1,3.72-11c1.08-1.81,2-3.38,2.13-5.22a.75.75,0,0,0-.7-.8h0a.77.77,0,0,0-.77.7c-.1,1.48-.91,2.84-1.92,4.56a23.73,23.73,0,0,0-3.93,11.67,47,47,0,0,0,9.74,31.81c.45.57.92,1.13,1.39,1.69l.09.11c2,2.34,3.79,4.55,4.68,7.26s1.66,6.69.39,10.51A45.57,45.57,0,0,1,80-29.14a35.64,35.64,0,0,0-2.31,6.05,36.27,36.27,0,0,0-.62,16.25A41.5,41.5,0,0,1,77.7,2a.75.75,0,0,0,.71.79l0,.25h0Z"/><path class="cls-3" d="M53.82-17.34l1.78-1.74c5.51-5.43,11.85-12.79,11.9-21.53,0-7.33-4.21-13.6-8.33-19.66-.76-1.11-1.54-2.26-2.29-3.42a14.19,14.19,0,0,1-2.15-5.86,18.89,18.89,0,0,0-1.86-5.8c-.58-1.1-1.35-2.4-2.17-3.77a44.81,44.81,0,0,1-4-7.74c-1.15-3.56-.45-8.59.11-12.63.1-.73.2-1.44.28-2.1a.75.75,0,0,0-.65-.84h-.09a.75.75,0,0,0-.75.66c-.08.66-.18,1.36-.28,2.08-.58,4.19-1.3,9.41,0,13.3a45.5,45.5,0,0,0,4.17,8l0,.07c.8,1.34,1.56,2.6,2.1,3.64a17.39,17.39,0,0,1,1.71,5.38,15.84,15.84,0,0,0,2.36,6.4c.73,1.12,1.49,2.24,2.26,3.37l0,.07c4,5.87,8.12,11.94,8.08,18.81,0,8.19-6.15,15.24-11.45,20.47L53-18.64l-.23.23c-5.41,5.27-11,10.72-13.23,18a.75.75,0,0,0,.5.94A.77.77,0,0,0,41,0C43.09-6.89,48.55-12.2,53.82-17.34Z"/><path class="cls-3" d="M75.32-45.29a23,23,0,0,0-3.92-5.22,32.83,32.83,0,0,1-2.48-3C64.23-60.31,61.64-66.57,61-72.63c-1.25-11.74,1.71-18.15,3.87-22.83,1.24-2.69,2.22-4.81,1.94-7a.75.75,0,0,0-.29-.51.72.72,0,0,0-.44-.15H66a.75.75,0,0,0-.5.28.75.75,0,0,0-.15.55c.22,1.79-.63,3.65-1.82,6.22-2.23,4.84-5.29,11.46-4,23.61.67,6.31,3.35,12.8,8.18,19.84a33.77,33.77,0,0,0,2.59,3.11,22.18,22.18,0,0,1,3.67,4.84c2.18,4.91,2.68,7.42,1.32,12.56A48,48,0,0,1,72.4-25c-1.78,3.86-3.61,7.84-3.79,11.24A22.07,22.07,0,0,0,70-6.47,23.11,23.11,0,0,1,71.37,1a.75.75,0,0,0,.72.78h0A.75.75,0,0,0,72.87,1,24.2,24.2,0,0,0,71.41-6.9a20.75,20.75,0,0,1-1.3-6.79c.17-3.11,1.94-7,3.65-10.69a48.82,48.82,0,0,0,3-7.36C78.2-37.36,77.52-40.34,75.32-45.29Z"/><path class="cls-3" d="M71.9-37.07c.08-.43.15-.86.19-1.31v-.15A3.69,3.69,0,0,0,72-39.78a.27.27,0,0,0-.19-.23h-.07a.26.26,0,0,0-.13,0,.26.26,0,0,0-.12.16l0,.08a83.24,83.24,0,0,1-4,11.6,46.52,46.52,0,0,1-6.22,10.44,30,30,0,0,1-2,2.24,24.28,24.28,0,0,1-2.27,2c-.64.5-1.3,1-2,1.47-1,.72-2,1.47-3,2.28a23.86,23.86,0,0,0-2.37,2.17,16.44,16.44,0,0,0-2,2.6A16,16,0,0,0,45.48,1.1a.76.76,0,0,0,.62.84.74.74,0,0,0,.56-.13.75.75,0,0,0,.3-.49A14.63,14.63,0,0,1,49.14-4.1a16.17,16.17,0,0,1,4-4.34c.81-.65,1.66-1.31,2.49-1.94S57.2-11.59,58-12.23a28.47,28.47,0,0,0,2.39-2.12,30.7,30.7,0,0,0,2.1-2.38c.55-.69,1.07-1.43,1.51-2.06l1.31-1.89-.95,2.29c-.08.2-.17.4-.23.6a14.58,14.58,0,0,0-.62,2.64,22.94,22.94,0,0,0,0,5.35c.23,2.15.66,4.25,1.08,6.29.26,1.29.54,2.62.75,3.92a.75.75,0,0,0,.83.63.74.74,0,0,0,.5-.28.74.74,0,0,0,.16-.55c-.22-1.83-.56-3.65-.89-5.4-.3-1.57-.6-3.2-.81-4.79A21.71,21.71,0,0,1,65-15a13.75,13.75,0,0,1,.42-2.42,11.51,11.51,0,0,1,.38-1.17l.5-1.2c1.2-3,2.36-6.19,3.54-9.78.64-2,1.09-3.51,1.48-5C71.51-35.26,71.73-36.15,71.9-37.07Z"/><path class="cls-3" d="M59.17,1.95a.75.75,0,0,0,.9-.56,14.49,14.49,0,0,0,.17-4.21l0-.61a25.38,25.38,0,0,0-.84-4.36s0-.17-.06-.23c-.05-.29-.11-.79-.27-.92-.35-.29-.62.32-.9.76a9.79,9.79,0,0,1-.56.82,7.31,7.31,0,0,1-1,1c-.34.3-.71.59-1.09.89s-.83.65-1.24,1A16.25,16.25,0,0,0,52-2,8.18,8.18,0,0,0,50.56,1a.75.75,0,0,0,.57.89.75.75,0,0,0,.9-.57,6.73,6.73,0,0,1,1.17-2.53,11.43,11.43,0,0,1,2.09-2.07,15.81,15.81,0,0,0,2.3-2.19,5.69,5.69,0,0,0,.52-.76l.32-.45s.08.61.09.77c.07.85,0,1.61.13,2.59a12,12,0,0,1,0,4.31A.76.76,0,0,0,59.17,1.95Z"/><path class="cls-3" d="M41.77-46.19c2-6.81,4.05-13.85,3.38-21.05a73.88,73.88,0,0,0-2.33-11.62,68.46,68.46,0,0,1-2.54-13.76,24.89,24.89,0,0,1,.81-9.59.74.74,0,0,0,0-.57.75.75,0,0,0-.44-.37.76.76,0,0,0-.23,0,.75.75,0,0,0-.71.52,26.12,26.12,0,0,0-.89,10.12,69.58,69.58,0,0,0,2.58,14,71.54,71.54,0,0,1,2.3,11.41c.65,6.92-1.28,13.51-3.32,20.5-1.47,5-3,10.23-3.43,15.51-.21,2.54-.17,5.12-.13,7.61s.08,4.75-.09,7.1A78.46,78.46,0,0,1,34.34-.51a.75.75,0,0,0,.52.93.77.77,0,0,0,.93-.52,79.78,79.78,0,0,0,2.39-16.17c.17-2.4.14-4.84.1-7.19s-.08-5,.13-7.5C38.83-36.1,40.33-41.23,41.77-46.19Z"/><path class="cls-3" d="M32-80.69c-.26-1.13-.59-2.27-.9-3.37a31.83,31.83,0,0,1-1.41-6.62c-.22-3.24-.49-7.27.34-10.54a.75.75,0,0,0-.08-.57.74.74,0,0,0-.46-.34l-.19,0a.74.74,0,0,0-.38.1.75.75,0,0,0-.34.46c-.89,3.5-.61,7.67-.38,11a33.54,33.54,0,0,0,1.47,6.93c.31,1.09.63,2.2.89,3.3a42.2,42.2,0,0,1-.2,18.19c-.35,1.64-.76,3.3-1.17,4.89a68.72,68.72,0,0,0-1.85,9c-.71,6.16.25,12.36,1.19,18.36.44,2.85.89,5.75,1.16,8.59A73.45,73.45,0,0,1,28.53,1a.75.75,0,0,0,.57.89A.76.76,0,0,0,30,1.37a74.91,74.91,0,0,0,1.19-22.83c-.28-2.91-.73-5.83-1.17-8.67-.92-5.91-1.87-12-1.18-18a67.61,67.61,0,0,1,1.82-8.79c.42-1.65.84-3.31,1.18-5A43.65,43.65,0,0,0,32-80.69Z"/><path class="cls-3" d="M23.5.82a.75.75,0,0,0,.57,0,.74.74,0,0,0,.41-.41,30.71,30.71,0,0,0,2-7.82,44.92,44.92,0,0,0,.38-8,36.89,36.89,0,0,0-.37-4c-.08-.59-.2-1.19-.31-1.77l0-.23c-.13-.64-.26-1.25-.36-1.89-.23-1.4-.37-2.79-.52-4.26-.11-1.15-.23-2.34-.4-3.53A33.65,33.65,0,0,0,24-35a20,20,0,0,1-.53-3.73,57.71,57.71,0,0,1,.16-7.75c.26-3.36.76-6.74,1.24-10,.26-1.79.54-3.65.77-5.48a.33.33,0,0,0-.21-.39.32.32,0,0,0-.25,0,.32.32,0,0,0-.16.19c-.23.66-.43,1.28-.64,1.9-.53,1.58-1.07,3.22-1.71,4.78a47.26,47.26,0,0,1-2.9,6.35,38.2,38.2,0,0,1-3.93,5.75c-.54.67-1.12,1.33-1.68,2a44.87,44.87,0,0,0-2.89,3.56A80,80,0,0,0,4-25.48a30.82,30.82,0,0,0-2.24,6.93,19.43,19.43,0,0,0-.08,7.37.75.75,0,0,0,.87.59.75.75,0,0,0,.61-.87c-.68-3.8.09-8.16,2.37-13.33a85.15,85.15,0,0,1,7-11.95l.11-.17a42.73,42.73,0,0,1,2.74-3.43c.57-.66,1.15-1.35,1.71-2a40.12,40.12,0,0,0,4-6c.3-.54.59-1.1.87-1.68l.65-1.33L22.48-50c-.13,1.12-.25,2.24-.35,3.33a58.79,58.79,0,0,0-.21,8,21.84,21.84,0,0,0,.55,4,32.44,32.44,0,0,1,.7,3.77c.13,1,.23,2.05.32,3.06.15,1.56.3,3.18.57,4.78.11.66.25,1.33.38,2l.06.29c.1.52.21,1.05.28,1.59a35.43,35.43,0,0,1,.36,3.82,48.78,48.78,0,0,1-.29,7.71A29.61,29.61,0,0,1,23.1-.17.76.76,0,0,0,23.5.82Z"/><path class="cls-3" d="M21.93-10.06a27.89,27.89,0,0,0-.58-9.64h0c-.18-.8-.41-1.59-.64-2.33l-.37-1.12a7.06,7.06,0,0,1-.18-1c-.17-1.44-.26-3-.34-4.44l-.06-1a38.59,38.59,0,0,0-1-8.22v-.06l-.1-.34a.14.14,0,0,0-.12-.1h0a.14.14,0,0,0-.14.13l-.18.23-.41,1-1.57,3.63A50.49,50.49,0,0,1,14-28.55c-.58,1.16-1.25,2.21-2,3.33L11.33-24a36.48,36.48,0,0,0-2.48,4.85A20.64,20.64,0,0,0,7.28-8.3a47.26,47.26,0,0,1,.61,5.21C8-1.8,8-.52,8,.82c0,.46,0,.91,0,1.37a.75.75,0,0,0,.72.74.79.79,0,0,0,.54-.2.74.74,0,0,0,.24-.52A52.62,52.62,0,0,0,9-8.54a19,19,0,0,1,1.49-10,34.69,34.69,0,0,1,2.3-4.66l.67-1.11c.7-1.15,1.43-2.33,2-3.55a42.85,42.85,0,0,0,2.12-5c0-.1.06-.2.09-.29l.55-1.84v1.73c0,1.54,0,3.05.09,4.49l0,.42c.05,1.41.11,2.86.25,4.34l0,.19a6.91,6.91,0,0,0,.2,1.14l.34,1.11c.23.82.42,1.51.56,2.22a27.53,27.53,0,0,1,.54,9.05A21.92,21.92,0,0,1,17.47-1.7a.75.75,0,0,0,.25,1,.75.75,0,0,0,1-.24A21.92,21.92,0,0,0,21.93-10.06Z"/><path class="cls-3" d="M144.6.64c.13-.79.27-1.6.38-2.42A16.58,16.58,0,0,0,144.5-9a13.17,13.17,0,0,0-1.5-3.33,10.42,10.42,0,0,0-1.09-1.44l-.1-.12-.23-.25a3,3,0,0,0-.5-.42,4,4,0,0,0-.64-.33l-.07,0a1.11,1.11,0,0,0,0,.46,4.62,4.62,0,0,1,.08.49s0,.08,0,.14l.16,1.22c.06.48.13,1,.15,1.46a10.32,10.32,0,0,1-.49,3.56A29.06,29.06,0,0,1,138-2.71c-.33.63-.67,1.26-1,1.91l-.42.9a8.16,8.16,0,0,0-.37,1,5.57,5.57,0,0,0-.16,2.24A7.67,7.67,0,0,0,138,7.14a32.79,32.79,0,0,0,5.82,5.11l.07.07a.35.35,0,0,0,.31.15.33.33,0,0,0,.29-.36l0-.26c0-.38-.08-.75-.13-1.13a30.3,30.3,0,0,1-.3-5.61A38.3,38.3,0,0,1,144.6.64ZM143.37-2c-.09.68-.2,1.38-.31,2.08A42.87,42.87,0,0,0,142.48,5a18.82,18.82,0,0,0,.22,4.05l.14.79-.56-.56-1-1a28.21,28.21,0,0,1-2.14-2.22,5.92,5.92,0,0,1-1.52-3,4,4,0,0,1,.14-1.58,6.56,6.56,0,0,1,.3-.79l.4-.84c.28-.58.58-1.16.88-1.74a27,27,0,0,0,2.32-5.41,12.32,12.32,0,0,0,.43-2.92l0-1.23.45,1.15a12.36,12.36,0,0,1,.51,1.58A16.35,16.35,0,0,1,143.37-2Z"/><path class="cls-3" d="M2.53,6.74a.21.21,0,0,0,.16,0,.21.21,0,0,0,.11-.12A26,26,0,0,0,4.42-3.27h0a36.92,36.92,0,0,0-1.75-9.95c-.15-.55-.35-1.09-.53-1.61l-.27-.78A10.44,10.44,0,0,0,.65-18a9.67,9.67,0,0,0-4.19-3.25l-2.05-.9c-2.37-1-4.61-2-6.91-3.17a.31.31,0,0,0-.21,0,.3.3,0,0,0-.18.14.29.29,0,0,0,0,.22l.08.29a40.36,40.36,0,0,1,1.48,6.21,18.08,18.08,0,0,1-.42,6.55c-.49,2.09-1.14,4.18-1.88,6.51S-15-.85-15.54,1.22a.7.7,0,0,0,.49.85A.69.69,0,0,0-14.51,2a.7.7,0,0,0,.34-.42c.6-2,1.26-4.11,1.9-6.1l.13-.41.37-1.18a51.94,51.94,0,0,0,1.53-5.48,19.62,19.62,0,0,0,.3-7.07,16.65,16.65,0,0,0-1.37-4.47l-.38-.83.75.52A24.92,24.92,0,0,0-8.65-22c.9.48,1.83.91,2.74,1.32.59.27,1.17.54,1.74.81A8.53,8.53,0,0,1-.66-17.09a8.84,8.84,0,0,1,1,2l.24.73c.18.53.35,1.07.51,1.6A39.25,39.25,0,0,1,2.88-3.21a56.47,56.47,0,0,1-.33,7.84c-.05.63-.11,1.26-.16,1.89A.22.22,0,0,0,2.53,6.74Z"/></pattern><mask id="mask-2" x="-167.61" y="-52.18" width="1323.08" height="755.47" maskUnits="userSpaceOnUse"><path class="cls-1" d="M508.44,187V41.76a24.62,24.62,0,0,0-24.62-24.62h-367A24.62,24.62,0,0,0,92.15,41.76V240a24.62,24.62,0,0,0,24.62,24.62H326A24.62,24.62,0,0,1,350.6,289.2V328a24.62,24.62,0,0,0,24.62,24.62H858.7A24.62,24.62,0,0,0,883.32,328V236.26a24.62,24.62,0,0,0-24.62-24.62H533.06A24.62,24.62,0,0,1,508.44,187Z"/></mask></defs><title>casestudy</title><text class="cls-4" transform="translate(218.1 -24.09)">P<tspan class="cls-5" x="16.45" y="0">A</tspan><tspan class="cls-6" x="33.65" y="0">TTERN &amp;</tspan><tspan class="cls-7" x="150.32" y="0"> </tspan><tspan class="cls-8" x="156.35" y="0">A</tspan><tspan class="cls-9" x="174.85" y="0">C</tspan><tspan class="cls-6" x="193.05" y="0">CEN</tspan><tspan class="cls-10" x="247.65" y="0">T</tspan><tspan class="cls-6" x="264.3" y="0">S</tspan></text><g class="cls-11"><rect class="cls-12" x="13.22" y="-62.18" width="961.41" height="548.96"/></g><g class="cls-13"><rect class="cls-14" x="-167.61" y="-52.18" width="1323.08" height="755.47"/></g><path class="cls-1" d="M841,153.21a3.47,3.47,0,0,0-4-2.89c-2.49.4-5.23.93-8.38,1.64a2.73,2.73,0,0,1-1.53-.27,4.59,4.59,0,0,0-2.79-.32,17.52,17.52,0,0,0-4,1.87,17.53,17.53,0,0,1-3.65,1.73c-3.25.87-6.59,1.79-10,2.72-17.82,4.91-36.27,10-49.11,9.69-7.68-.17-17.45-2.62-25.55-5a24.74,24.74,0,0,0,2.55-.26c7.53-1.34,23.56-6.55,30.09-9.78,7.26-3.58,15.66-1,15.73-.93a1.31,1.31,0,0,0,1.16-.1,1.74,1.74,0,0,0,.68-1.4,3.69,3.69,0,0,1,.06-.38l.65-.21c1.09-.33,2-.62,2.29-1.4a2.07,2.07,0,0,0,0-1.65,3.06,3.06,0,0,0-2.06-1.28l-.52-.16a31.7,31.7,0,0,0-11-1.28,1.89,1.89,0,0,1-.84-.25,3.39,3.39,0,0,0-2.07-.38,18.63,18.63,0,0,0-5.24,2.24c-.62.34-1.24.68-1.82,1a90.34,90.34,0,0,1-9.09,3.64,13,13,0,0,1,3.35-5.29,1.59,1.59,0,0,0,.54-1.37c-.11-.81-.82-1.21-1.51-1.6a4.75,4.75,0,0,1-1-.67,2.19,2.19,0,0,1-.47-.82,1.48,1.48,0,0,0-1-1.08,1.64,1.64,0,0,0-1.45.61,19.67,19.67,0,0,0-5.18,8.45,19.43,19.43,0,0,0-.44,1.94,4.86,4.86,0,0,1-.59,1.91,3.45,3.45,0,0,1-2.11,1.12l-.22.06a92.92,92.92,0,0,1-9,2.26,110.19,110.19,0,0,1-12.92.38,64.74,64.74,0,0,1-9.22-.48,59.62,59.62,0,0,1-9-2.54c-1.13-.39-2.23-.76-3.29-1.09-3-.92-5.41-1.59-7.45-2-.17,0-.17,0-.28-.45a2,2,0,0,0-1.48-1.62,7.73,7.73,0,0,0-4.59.78,6.26,6.26,0,0,1-1.73.54c-8.41.37-22.91,3.09-39.7,6.25l-.21,0c-13.71,2.58-27.89,5.24-40.6,7-8.17,1.12-21.92-2.32-36.56-6-12.43-3.12-25.28-6.35-37.8-7.76a134.35,134.35,0,0,0-14.5-.83,31.51,31.51,0,0,1,3.87-1c5.44-1,15.68-.32,25.65.37,6.14.42,12.49.85,17.63.85a10.52,10.52,0,0,1,2.13.38,9.65,9.65,0,0,0,2.91.42,3.25,3.25,0,0,0,1.93-1,1.58,1.58,0,0,1,.72-.47,72.33,72.33,0,0,0,11.63-3.11c3.51-1.17,6.55-2.19,9.3-2.19,6.74,0,17.68,4.74,18.14,4.94a1.71,1.71,0,0,0,1.51,0,2.35,2.35,0,0,0,1-1.82,5.25,5.25,0,0,1,.29-1,3.91,3.91,0,0,1,.54-.82,1.88,1.88,0,0,0,.56-1.63,1.8,1.8,0,0,0-1.1-1.11c-.46-.2-10.33-4.53-18.45-5.38a31.58,31.58,0,0,0,3-2.76,3.46,3.46,0,0,0,.91-2.5,1.11,1.11,0,0,0-.39-.77c-.43-.34-.92-.26-1.54-.15a3.66,3.66,0,0,1-1.45.08c-1.8-.82-3.07-.91-3.77-.26a84.8,84.8,0,0,1-8.44,6.43,42.4,42.4,0,0,1-4.81,2.91,31.36,31.36,0,0,1-9.76,2.51,40.33,40.33,0,0,1-4.84.29c-4.92,0-11.18-.43-17.24-.84-4.92-.34-10-.68-14.59-.82a8.52,8.52,0,0,1-1.72-.45,18.64,18.64,0,0,0-4.6-1,10.58,10.58,0,0,0-4.37,1.1,35.77,35.77,0,0,1-4.13,1.4c-5.21,1.35-11.48,4.2-15.63,6.08-2,.91-3.6,1.63-4.34,1.86a33.23,33.23,0,0,1-5.66,1.17c-2.72.35-5.23.71-7.6,1.05-4.71.68-8.42,1.21-10.14,1.08-7.07-.56-15.85-2.48-25.19-4.52-8.08-1.76-16.44-3.59-24.24-4.63a1.87,1.87,0,0,1-.16-.2,3.53,3.53,0,0,0-1.67-1.31,5.56,5.56,0,0,0-3.65.35,6.05,6.05,0,0,1-1.83.42c-1.7-.11-3.33-.16-4.88-.14-19,.13-42.11,4.91-55.9,7.76-2.52.52-4.72,1-6.52,1.33a3.48,3.48,0,1,0,1.32,6.83c1.82-.35,4.05-.81,6.61-1.34,8.07-1.67,20.27-4.19,32.58-5.85l.84-.13c1.11-.17,3-.46,4.56-.57,2.44-.17,3.29.29,3.77.7l.2.19a76.82,76.82,0,0,0,18.85,13c.92.45,1.91.83,2.86,1.2a31,31,0,0,1,3.58,1.57,51.91,51.91,0,0,1,4.63,3.75,58.25,58.25,0,0,1,9,9.52c.29.4,2.84,3.93,4.43,3.93,1,0,1.24-1.07,1.36-1.64,0-.1.05-.26.08-.37l.39-.2c.62-.31,1.26-.64,1.48-1.37a2.13,2.13,0,0,0-.31-1.63A45.21,45.21,0,0,0,437,169.7c2.14.3,4.31.51,6.66.73,7.27.7,14.8,1.42,20,5.06.79.55,1.56,1,2.28.71a1.17,1.17,0,0,0,.68-.93c.07-.5.21-.67,1.6-.65a2.62,2.62,0,0,0,1.37-.21,1.56,1.56,0,0,0,.85-1.3c.06-1.21-1.29-2.26-2.81-3.32a25.61,25.61,0,0,0-4.55-2.51,2.68,2.68,0,0,1-1.07-.9,3.89,3.89,0,0,0-2.16-1.5,11.22,11.22,0,0,0-3-.07,12.39,12.39,0,0,1-2.14,0c-3.49-.66-7-1-10.38-1.31-2.36-.23-4.6-.44-6.71-.75-15-2.17-26.55-9.92-32.18-14.44,1.46-.06,2.85-.1,4.17-.11h.38c10,0,22.48,2.73,34.56,5.36l.68.15c9.27,2,18,3.94,25.4,4.5a4.15,4.15,0,0,1,1.64.57,7.54,7.54,0,0,0,4,1,2.11,2.11,0,0,0,1.83-1.52c.25-.54.31-.6.49-.63l3.78-.54c10.89-1.57,27.34-3.94,45.38-1.91,12.08,1.36,24.7,4.53,36.92,7.6,11.05,2.77,21.49,5.39,29.89,6.65a15.86,15.86,0,0,1,2.23.65,14.32,14.32,0,0,0,2.73.75,5.51,5.51,0,0,0,2.52-.33,4.12,4.12,0,0,1,1.35-.26c10.49.16,21.15,3.46,31.14,7,5,1.78,9.72,3.46,13.83,4.53a23.32,23.32,0,0,0,5.87.71h.24a7.21,7.21,0,0,1,1.91.17,11.56,11.56,0,0,1,3.5,1.75,14.38,14.38,0,0,1,5.06,4.86,3.49,3.49,0,0,0,3,1.71,1,1,0,0,0,.87-.53,7.5,7.5,0,0,1,.67-1.09c1.06-.63,2.67-1.57,1.45-3.63a19.78,19.78,0,0,0-4.67-5.32,115,115,0,0,0,11.91-4.59,58.69,58.69,0,0,1,6-2.39,1.62,1.62,0,0,0,1.18-1,1.86,1.86,0,0,0-.52-1.73,4.89,4.89,0,0,1-.43-.65l.46-.3c.53-.33,1.14-.7,1.09-1.42a1.12,1.12,0,0,0-.69-.95l-.15-.07a4.56,4.56,0,0,0-2.8-.63,61.43,61.43,0,0,0-6.92,2.71c-7,3-17.61,7.6-25.28,5.6-3.81-1-8.39-2.62-13.27-4.36-4.39-1.56-9.23-3.28-14.18-4.78,7.39-1.29,14.86-2.69,22.12-4.06l.16,0c18.47-3.47,35.92-6.76,41.93-6.11,4.65.5,13.11,3.38,22.91,6.72,13.16,4.49,31.18,10.63,44.72,11.73a6.92,6.92,0,0,1,1,.36,15.25,15.25,0,0,0,6.44,1.34,2.67,2.67,0,0,0,2.44-1.27c.26-.36.38-.54,1.14-.62,12.68-1.24,28.09-5.49,43-9.59,11-3,21.45-5.91,29.63-7.21A3.48,3.48,0,0,0,841,153.21Z"/><path class="cls-14" d="M841,153.21a3.47,3.47,0,0,0-4-2.89c-2.49.4-5.23.93-8.38,1.64a2.73,2.73,0,0,1-1.53-.27,4.59,4.59,0,0,0-2.79-.32,17.52,17.52,0,0,0-4,1.87,17.53,17.53,0,0,1-3.65,1.73c-3.25.87-6.59,1.79-10,2.72-17.82,4.91-36.27,10-49.11,9.69-7.68-.17-17.45-2.62-25.55-5a24.74,24.74,0,0,0,2.55-.26c7.53-1.34,23.56-6.55,30.09-9.78,7.26-3.58,15.66-1,15.73-.93a1.31,1.31,0,0,0,1.16-.1,1.74,1.74,0,0,0,.68-1.4,3.69,3.69,0,0,1,.06-.38l.65-.21c1.09-.33,2-.62,2.29-1.4a2.07,2.07,0,0,0,0-1.65,3.06,3.06,0,0,0-2.06-1.28l-.52-.16a31.7,31.7,0,0,0-11-1.28,1.89,1.89,0,0,1-.84-.25,3.39,3.39,0,0,0-2.07-.38,18.63,18.63,0,0,0-5.24,2.24c-.62.34-1.24.68-1.82,1a90.34,90.34,0,0,1-9.09,3.64,13,13,0,0,1,3.35-5.29,1.59,1.59,0,0,0,.54-1.37c-.11-.81-.82-1.21-1.51-1.6a4.75,4.75,0,0,1-1-.67,2.19,2.19,0,0,1-.47-.82,1.48,1.48,0,0,0-1-1.08,1.64,1.64,0,0,0-1.45.61,19.67,19.67,0,0,0-5.18,8.45,19.43,19.43,0,0,0-.44,1.94,4.86,4.86,0,0,1-.59,1.91,3.45,3.45,0,0,1-2.11,1.12l-.22.06a92.92,92.92,0,0,1-9,2.26,110.19,110.19,0,0,1-12.92.38,64.74,64.74,0,0,1-9.22-.48,59.62,59.62,0,0,1-9-2.54c-1.13-.39-2.23-.76-3.29-1.09-3-.92-5.41-1.59-7.45-2-.17,0-.17,0-.28-.45a2,2,0,0,0-1.48-1.62,7.73,7.73,0,0,0-4.59.78,6.26,6.26,0,0,1-1.73.54c-8.41.37-22.91,3.09-39.7,6.25l-.21,0c-13.71,2.58-27.89,5.24-40.6,7-8.17,1.12-21.92-2.32-36.56-6-12.43-3.12-25.28-6.35-37.8-7.76a134.35,134.35,0,0,0-14.5-.83,31.51,31.51,0,0,1,3.87-1c5.44-1,15.68-.32,25.65.37,6.14.42,12.49.85,17.63.85a10.52,10.52,0,0,1,2.13.38,9.65,9.65,0,0,0,2.91.42,3.25,3.25,0,0,0,1.93-1,1.58,1.58,0,0,1,.72-.47,72.33,72.33,0,0,0,11.63-3.11c3.51-1.17,6.55-2.19,9.3-2.19,6.74,0,17.68,4.74,18.14,4.94a1.71,1.71,0,0,0,1.51,0,2.35,2.35,0,0,0,1-1.82,5.25,5.25,0,0,1,.29-1,3.91,3.91,0,0,1,.54-.82,1.88,1.88,0,0,0,.56-1.63,1.8,1.8,0,0,0-1.1-1.11c-.46-.2-10.33-4.53-18.45-5.38a31.58,31.58,0,0,0,3-2.76,3.46,3.46,0,0,0,.91-2.5,1.11,1.11,0,0,0-.39-.77c-.43-.34-.92-.26-1.54-.15a3.66,3.66,0,0,1-1.45.08c-1.8-.82-3.07-.91-3.77-.26a84.8,84.8,0,0,1-8.44,6.43,42.4,42.4,0,0,1-4.81,2.91,31.36,31.36,0,0,1-9.76,2.51,40.33,40.33,0,0,1-4.84.29c-4.92,0-11.18-.43-17.24-.84-4.92-.34-10-.68-14.59-.82a8.52,8.52,0,0,1-1.72-.45,18.64,18.64,0,0,0-4.6-1,10.58,10.58,0,0,0-4.37,1.1,35.77,35.77,0,0,1-4.13,1.4c-5.21,1.35-11.48,4.2-15.63,6.08-2,.91-3.6,1.63-4.34,1.86a33.23,33.23,0,0,1-5.66,1.17c-2.72.35-5.23.71-7.6,1.05-4.71.68-8.42,1.21-10.14,1.08-7.07-.56-15.85-2.48-25.19-4.52-8.08-1.76-16.44-3.59-24.24-4.63a1.87,1.87,0,0,1-.16-.2,3.53,3.53,0,0,0-1.67-1.31,5.56,5.56,0,0,0-3.65.35,6.05,6.05,0,0,1-1.83.42c-1.7-.11-3.33-.16-4.88-.14-19,.13-42.11,4.91-55.9,7.76-2.52.52-4.72,1-6.52,1.33a3.48,3.48,0,1,0,1.32,6.83c1.82-.35,4.05-.81,6.61-1.34,8.07-1.67,20.27-4.19,32.58-5.85l.84-.13c1.11-.17,3-.46,4.56-.57,2.44-.17,3.29.29,3.77.7l.2.19a76.82,76.82,0,0,0,18.85,13c.92.45,1.91.83,2.86,1.2a31,31,0,0,1,3.58,1.57,51.91,51.91,0,0,1,4.63,3.75,58.25,58.25,0,0,1,9,9.52c.29.4,2.84,3.93,4.43,3.93,1,0,1.24-1.07,1.36-1.64,0-.1.05-.26.08-.37l.39-.2c.62-.31,1.26-.64,1.48-1.37a2.13,2.13,0,0,0-.31-1.63A45.21,45.21,0,0,0,437,169.7c2.14.3,4.31.51,6.66.73,7.27.7,14.8,1.42,20,5.06.79.55,1.56,1,2.28.71a1.17,1.17,0,0,0,.68-.93c.07-.5.21-.67,1.6-.65a2.62,2.62,0,0,0,1.37-.21,1.56,1.56,0,0,0,.85-1.3c.06-1.21-1.29-2.26-2.81-3.32a25.61,25.61,0,0,0-4.55-2.51,2.68,2.68,0,0,1-1.07-.9,3.89,3.89,0,0,0-2.16-1.5,11.22,11.22,0,0,0-3-.07,12.39,12.39,0,0,1-2.14,0c-3.49-.66-7-1-10.38-1.31-2.36-.23-4.6-.44-6.71-.75-15-2.17-26.55-9.92-32.18-14.44,1.46-.06,2.85-.1,4.17-.11h.38c10,0,22.48,2.73,34.56,5.36l.68.15c9.27,2,18,3.94,25.4,4.5a4.15,4.15,0,0,1,1.64.57,7.54,7.54,0,0,0,4,1,2.11,2.11,0,0,0,1.83-1.52c.25-.54.31-.6.49-.63l3.78-.54c10.89-1.57,27.34-3.94,45.38-1.91,12.08,1.36,24.7,4.53,36.92,7.6,11.05,2.77,21.49,5.39,29.89,6.65a15.86,15.86,0,0,1,2.23.65,14.32,14.32,0,0,0,2.73.75,5.51,5.51,0,0,0,2.52-.33,4.12,4.12,0,0,1,1.35-.26c10.49.16,21.15,3.46,31.14,7,5,1.78,9.72,3.46,13.83,4.53a23.32,23.32,0,0,0,5.87.71h.24a7.21,7.21,0,0,1,1.91.17,11.56,11.56,0,0,1,3.5,1.75,14.38,14.38,0,0,1,5.06,4.86,3.49,3.49,0,0,0,3,1.71,1,1,0,0,0,.87-.53,7.5,7.5,0,0,1,.67-1.09c1.06-.63,2.67-1.57,1.45-3.63a19.78,19.78,0,0,0-4.67-5.32,115,115,0,0,0,11.91-4.59,58.69,58.69,0,0,1,6-2.39,1.62,1.62,0,0,0,1.18-1,1.86,1.86,0,0,0-.52-1.73,4.89,4.89,0,0,1-.43-.65l.46-.3c.53-.33,1.14-.7,1.09-1.42a1.12,1.12,0,0,0-.69-.95l-.15-.07a4.56,4.56,0,0,0-2.8-.63,61.43,61.43,0,0,0-6.92,2.71c-7,3-17.61,7.6-25.28,5.6-3.81-1-8.39-2.62-13.27-4.36-4.39-1.56-9.23-3.28-14.18-4.78,7.39-1.29,14.86-2.69,22.12-4.06l.16,0c18.47-3.47,35.92-6.76,41.93-6.11,4.65.5,13.11,3.38,22.91,6.72,13.16,4.49,31.18,10.63,44.72,11.73a6.92,6.92,0,0,1,1,.36,15.25,15.25,0,0,0,6.44,1.34,2.67,2.67,0,0,0,2.44-1.27c.26-.36.38-.54,1.14-.62,12.68-1.24,28.09-5.49,43-9.59,11-3,21.45-5.91,29.63-7.21A3.48,3.48,0,0,0,841,153.21Z"/><path class="cls-15" d="M838.07,151.36a2.49,2.49,0,0,0-2.86-2.08c-2.59.41-5.38,1-8.31,1.63-1.54.35-2.68-1-4.3-.6-2.34.58-5.2,2.93-7.68,3.59-3.24.87-6.59,1.79-10,2.72-17.89,4.93-36.39,10-49.39,9.73-8.8-.2-20.28-3.25-31.4-6.77a67.15,67.15,0,0,0,8.25-.45c7.46-1.33,23.35-6.49,29.83-9.69,7.7-3.8,16.39-1,16.47-1,.82.28.3-1.24.94-1.73.38-.29,2.5-.66,2.66-1.15.44-1.31-.71-1.42-2-1.86a30.6,30.6,0,0,0-10.67-1.23c-1,.06-1.74-.84-2.8-.65-2.12.37-4.63,2-6.8,3.12a102.61,102.61,0,0,1-10.86,4.26,13,13,0,0,1,4-7.48c1-1-1-1.28-2-2.25s-.58-2.26-1.56-1.29a18.64,18.64,0,0,0-4.93,8c-.53,1.83-.46,3.15-1.17,4.14a4.68,4.68,0,0,1-2.85,1.55c-3.55,1-6.82,1.87-9.15,2.29a119.87,119.87,0,0,1-13.09.39,63.45,63.45,0,0,1-9.38-.49c-4.59-.81-8.72-2.52-12.4-3.66-2.73-.84-5.21-1.54-7.37-2-1.4-.31-.65-1.83-1.75-2.07-2.37-.51-4.49,1.27-6.08,1.34-8.38.36-23.12,3.14-39.78,6.27-13.72,2.58-27.92,5.25-40.65,7-8.38,1.15-22.23-2.33-36.9-6-12.41-3.11-25.24-6.34-37.7-7.74a139.57,139.57,0,0,0-20-.75,49.67,49.67,0,0,1,9.26-3c5.55-1,15.86-.34,25.82.35,6.15.42,12.51.86,17.63.86,1.44,0,3.62.92,4.94.8,1.17-.11,1.5-1.24,2.58-1.42a71.78,71.78,0,0,0,11.48-3.08c3.59-1.2,6.7-2.24,9.61-2.24,7.05,0,18.42,5,18.53,5,1.26.56,1-1,1.52-2.3s1.76-1.72.5-2.28c-.5-.22-12.44-5.45-20.55-5.45h-.1a41.34,41.34,0,0,0,4.84-4.25,2.49,2.49,0,0,0,.66-1.8c0-.32-1.84.45-2.81,0s-2.26-.84-2.71-.43a88.2,88.2,0,0,1-8.54,6.51,43.16,43.16,0,0,1-4.94,3,32.39,32.39,0,0,1-10.06,2.6,41,41,0,0,1-5,.3c-4.95,0-11.22-.43-17.29-.84-5-.34-10-.68-14.57-.82-1.22,0-3.48-1.27-6.36-1.45-2-.13-4.33,1.46-8.19,2.47-7.63,2-17.48,7.18-19.92,7.94a34.71,34.71,0,0,1-5.82,1.2c-2.71.35-5.22.71-7.5,1-4.81.69-8.61,1.25-10.45,1.1-7.14-.57-16-2.49-25.28-4.53-8.12-1.77-16.43-3.59-24.19-4.63-.93-.12-.68-1-2.09-1.57s-3.71.92-5.18.83c-1.65-.1-3.26-.15-4.81-.14-18.94.13-42,4.9-55.71,7.74-2.52.52-4.73,1-6.53,1.33a2.5,2.5,0,1,0,.95,4.91c1.82-.35,4-.81,6.59-1.34,8.43-1.74,20.38-4.21,32.65-5.86.83-.11,3.35-.56,5.47-.7,2.33-.16,3.61.19,4.47.94a74.53,74.53,0,0,0,18.84,13c2,1,4.32,1.62,6.48,2.79a44.17,44.17,0,0,1,4.8,3.88,58.64,58.64,0,0,1,9.11,9.69c.53.75,2.77,3.52,3.63,3.52.42,0,.36-1.54.75-1.77,1.2-.69,2.1-.79,1.41-2a49.37,49.37,0,0,0-8.26-10.16c.84.16,1.68.3,2.55.42,2.26.33,4.56.55,7,.78,7.4.71,15.06,1.44,20.47,5.23.44.31,1.37.94,1.43.45.29-2.16,2.89-1.26,3.47-1.58,1.2-.68-.9-2.18-2-3a24.55,24.55,0,0,0-4.38-2.42c-1.54-.66-1.45-1.92-3.1-2.35-1.12-.3-4,.18-5.1,0-3.45-.65-7-1-10.28-1.3-2.38-.23-4.63-.44-6.76-.75-17.31-2.5-30-12.28-34.58-16.26,2.28-.13,4.52-.22,6.7-.23h.39c10.1,0,22.64,2.74,34.77,5.39,9.5,2.07,18.46,4.06,25.95,4.63,1.93.15,2.58,1.64,5.56,1.54,1.16,0,.77-1.94,2.22-2.13l3.78-.54c10.94-1.58,27.47-4,45.63-1.91,12.13,1.37,24.8,4.55,37,7.62,11.3,2.84,21.48,5.39,29.79,6.64,1.32.2,3.69,1.27,4.91,1.4,1.73.18,2.26-.61,3.78-.59,10.73.16,21.6,3.56,31.43,7.06,5,1.77,9.7,3.45,13.77,4.51a22.24,22.24,0,0,0,5.62.68,9,9,0,0,1,2.38.2,12.34,12.34,0,0,1,3.77,1.87,15.52,15.52,0,0,1,5.4,5.2,2.5,2.5,0,0,0,2.16,1.23,5.6,5.6,0,0,1,1-1.48c1.19-.7,1.81-1.1,1.11-2.29a19.82,19.82,0,0,0-6-6.2,103.08,103.08,0,0,0,13.69-5.1,59,59,0,0,1,6.15-2.44c1.33-.37-.2-1.11-.57-2.44-.21-.75,2.18-1.44,1.52-1.73s-1.71-.81-2.29-.65a60.9,60.9,0,0,0-6.79,2.66c-7.13,3.08-17.91,7.74-25.92,5.65-3.86-1-8.47-2.65-13.35-4.38-5.75-2-11.93-4.24-18.24-5.94,8.65-1.46,17.58-3.14,26.33-4.78,18.62-3.5,36.21-6.81,42.38-6.15,4.75.51,13.26,3.41,23.12,6.77,14,4.79,31.28,10.61,44.49,11.68,1,.08,3.48,1.79,7.36,1.7,2.16-.05,1.13-1.65,3.5-1.89,12.6-1.24,27.92-5.45,42.83-9.56,11.06-3,21.51-5.92,29.74-7.23A2.5,2.5,0,0,0,838.07,151.36Z"/><g class="cls-16"><path class="cls-17" d="M237.46,291.33H190.31a4.23,4.23,0,0,0-4.23,4.23v8.16a4.23,4.23,0,0,0,4.23,4.23h47.15a15,15,0,0,1,15,15v7.26a4.23,4.23,0,0,0,4.23,4.23h8.16a4.23,4.23,0,0,0,4.23-4.23V323A31.64,31.64,0,0,0,237.46,291.33Z"/></g><path class="cls-15" d="M263.8,339.79v-15.9A26.76,26.76,0,0,0,237,297.12H169.79"/><g class="cls-16"><path class="cls-17" d="M572.65,17.79h47.15A4.23,4.23,0,0,1,624,22v8.16a4.23,4.23,0,0,1-4.23,4.23H572.65a15,15,0,0,0-15,15v7.26a4.23,4.23,0,0,1-4.23,4.23h-8.16A4.23,4.23,0,0,1,541,56.69V49.43A31.64,31.64,0,0,1,572.65,17.79Z"/></g><path class="cls-15" d="M546.32,66.25V50.34a26.76,26.76,0,0,1,26.76-26.76h67.25"/><circle class="cls-14" cx="68.66" cy="67.75" r="7.3"/><circle class="cls-15" cx="66.66" cy="64.75" r="7.3"/><circle class="cls-14" cx="726.18" cy="43.41" r="7.3"/><circle class="cls-15" cx="724.18" cy="40.41" r="7.3"/><circle class="cls-14" cx="669.76" cy="65.75" r="7.3"/><circle class="cls-15" cx="667.76" cy="62.75" r="7.3"/><circle class="cls-14" cx="911.19" cy="335.96" r="7.3"/><circle class="cls-15" cx="909.19" cy="332.96" r="7.3"/><circle class="cls-1" cx="797.41" cy="319.95" r="7.3"/><circle class="cls-15" cx="795.41" cy="316.95" r="7.3"/><circle class="cls-1" cx="136.78" cy="100.43" r="7.3"/><circle class="cls-15" cx="134.78" cy="97.43" r="7.3"/><circle class="cls-1" cx="850.37" cy="289.82" r="7.3"/><circle class="cls-15" cx="848.37" cy="286.82" r="7.3"/><circle class="cls-1" cx="179.09" cy="52.21" r="7.3"/><circle class="cls-15" cx="177.09" cy="49.21" r="7.3"/></svg>