<svg id="Layer_1" data-name="Layer 1" xmlns="http://www.w3.org/2000/svg" viewBox="0 0 1000 714.4"><defs><style>.cls-1,.cls-13,.cls-14,.cls-15,.cls-16,.cls-2,.cls-4{fill:#fff;}.cls-1,.cls-10,.cls-12,.cls-13,.cls-14,.cls-15,.cls-4,.cls-5,.cls-9{stroke:#00a99d;}.cls-1,.cls-12,.cls-13,.cls-14,.cls-15,.cls-16,.cls-5,.cls-9{stroke-linecap:round;stroke-linejoin:round;}.cls-1,.cls-10,.cls-12,.cls-16,.cls-4,.cls-5{stroke-width:1.76px;}.cls-3{fill:#00a99d;}.cls-10,.cls-4{stroke-miterlimit:10;}.cls-10,.cls-5{fill:#e8e0d3;}.cls-11,.cls-6,.cls-8{fill:#fbb03b;}.cls-6,.cls-7{opacity:0.25;}.cls-12,.cls-9{fill:none;}.cls-9{stroke-width:1.94px;}.cls-11{opacity:0.26;}.cls-13{stroke-width:1.87px;}.cls-14{stroke-width:1.86px;}.cls-15{stroke-width:1.76px;}.cls-16{stroke:#fff;}</style></defs><title>casestudy</title><path class="cls-1" d="M129.81,80.68c-16.42,11.33-36,7.73-45.55-18.81C111,44.48,128.8,62.36,129.81,80.68Z"/><path class="cls-1" d="M131.34,80.31c19.66.93,32.34-16.42,23.14-40.2C128,44.4,124.11,64.54,131.34,80.31Z"/><path class="cls-2" d="M86.56,60.44c25.36-15.12,41-1,41.93,16.84-6.42,4.22-15.86,5.36-24.56,2.79"/><path class="cls-3" d="M86.11,59.68a49.32,49.32,0,0,1,13.24-5.63,26.36,26.36,0,0,1,14.47.29,21.46,21.46,0,0,1,11.32,9,29.17,29.17,0,0,1,4.23,13.84A.88.88,0,0,1,129,78h0A23.88,23.88,0,0,1,123,80.88a30.23,30.23,0,0,1-19.27-.29.55.55,0,0,1,.31-1.05,40.68,40.68,0,0,0,12.35.81,30.64,30.64,0,0,0,6-1.26A24.53,24.53,0,0,0,128,76.54l-.4.78a27.42,27.42,0,0,0-4-13A19.69,19.69,0,0,0,113.27,56a24.61,24.61,0,0,0-13.5-.25A47.59,47.59,0,0,0,87,61.19h0a.88.88,0,1,1-.89-1.52Z"/><path class="cls-2" d="M151.06,40.75c-23.5,5.13-27.95,21.08-21,36.15a28.12,28.12,0,0,0,19.39-9.23"/><path class="cls-3" d="M151.25,41.61a43.53,43.53,0,0,0-11.42,4.08A23.53,23.53,0,0,0,131,53.6,19.8,19.8,0,0,0,128,64.91a29.75,29.75,0,0,0,2.87,11.63L130,76a28.51,28.51,0,0,0,10.24-2.65,31.34,31.34,0,0,0,4.6-2.69A51.35,51.35,0,0,0,149,67.35a.49.49,0,0,1,.73.66,20.67,20.67,0,0,1-3.94,4,27,27,0,0,1-4.81,3,25.87,25.87,0,0,1-11,2.73h0a.88.88,0,0,1-.82-.51,31.49,31.49,0,0,1-3-12.32,22.92,22.92,0,0,1,.73-6.39,21.2,21.2,0,0,1,2.6-5.91,25.29,25.29,0,0,1,9.47-8.5,45.27,45.27,0,0,1,11.89-4.26.88.88,0,1,1,.38,1.72h0Z"/><path class="cls-4" d="M143.51,120.89a3.57,3.57,0,0,1-4.51-1.79,187.13,187.13,0,0,1-12.25-37.43,3.57,3.57,0,1,1,7-1.51A182.6,182.6,0,0,0,145.45,116a3.57,3.57,0,0,1-1.69,4.76Z"/><path class="cls-2" d="M130,76.9S133.18,59.25,147.43,51"/><path class="cls-3" d="M129.15,76.75a42.2,42.2,0,0,1,2.38-7.84,43.54,43.54,0,0,1,3.78-7.25,35.66,35.66,0,0,1,5.18-6.35L142,53.92c.54-.43,1.09-.83,1.65-1.23l.83-.6.89-.52c.6-.33,1.19-.67,1.79-1a.51.51,0,0,1,.54.85l0,0a43.89,43.89,0,0,0-6,5.07,35.6,35.6,0,0,0-4.83,6.13,47.54,47.54,0,0,0-3.6,7,46.26,46.26,0,0,0-2.4,7.43v0a.88.88,0,0,1-1.72-.36Z"/><path class="cls-2" d="M128.49,77.27S111.54,64.85,98.82,65.73"/><path class="cls-3" d="M128,78c-2.17-1.49-4.48-2.88-6.78-4.21s-4.68-2.55-7.11-3.63a55.61,55.61,0,0,0-7.45-2.74,33.67,33.67,0,0,0-7.79-1.27h0a.39.39,0,0,1,0-.78,23.85,23.85,0,0,1,8.23.5,43.84,43.84,0,0,1,7.8,2.6,63.83,63.83,0,0,1,7.32,3.67A68.37,68.37,0,0,1,129,76.56.88.88,0,0,1,128,78Z"/><path class="cls-5" d="M139,119.09c.85-2.52,3.74-4.35,6.45-3.07a3.52,3.52,0,0,1-1.69,4.76C140.56,122.37,139,119.09,139,119.09Z"/><path class="cls-6" d="M153.06,37a.86.86,0,0,0-1-.54c-12.64,2-21.49,7.14-25.59,14.72A22,22,0,0,0,124,62.43a21.67,21.67,0,0,0-12-10.78c-5.94-2.12-16-2.68-30.41,6.67a.88.88,0,0,0-.35,1c4.5,12.46,11.52,20.75,20.29,24,7.1,2.6,14.9,1.8,22.62-2.32A188.14,188.14,0,0,0,136,116.66a4.48,4.48,0,0,0,4,2.53,4.38,4.38,0,0,0,1.58-.29l.32-.14a4.46,4.46,0,0,0,2.1-5.94,180.84,180.84,0,0,1-11.39-34.48c8-.52,14.77-4.14,19-10.27,5.24-7.59,6-18,2.12-29.23C153.54,38.22,153.32,37.6,153.06,37Z"/><path class="cls-5" d="M333.73,292.92s-1.69-3.37-10-2.32-9.11,4.67-9.11,4.67,1.32,3.38,10,2.32c8.8-1.08,9.11-4.67,9.11-4.67"/><circle class="cls-1" cx="318.81" cy="250.41" r="7.4" transform="translate(-28.23 40.86) rotate(-7.02)"/><path class="cls-3" d="M317.12,222.2c-.43,1.26-.89,2.51-1.38,3.74a34.5,34.5,0,0,1-1.6,3.64l-.91-1.24,5.64-.69a.88.88,0,0,1,.92,1.22l0,0a38.26,38.26,0,0,1-1.88,3.58c-.66,1.18-1.35,2.34-2.06,3.5a.52.52,0,0,1-.92-.46c.5-1.26,1-2.51,1.56-3.75a38.27,38.27,0,0,1,1.73-3.66l.9,1.27-5.64.7a.88.88,0,0,1-.93-1.19l0,0a34.52,34.52,0,0,1,1.72-3.59c.61-1.18,1.26-2.34,1.93-3.49a.52.52,0,0,1,.94.43Z"/><path class="cls-3" d="M334.93,226.48q-1.33,1.48-2.71,2.92c-.92,1-1.82,1.94-2.83,2.8l-.38-1.49,5.49,1.46a.88.88,0,0,1,.39,1.48l0,0c-1,.95-2,1.8-3.07,2.64s-2.12,1.68-3.2,2.49a.56.56,0,0,1-.74-.83c.93-1,1.88-1.95,2.85-2.89s1.93-1.89,3-2.74l.36,1.51-5.49-1.46a.88.88,0,0,1-.42-1.45l0,0c.91-1,1.94-1.81,2.94-2.68s2-1.71,3.06-2.55a.54.54,0,0,1,.74.79Z"/><path class="cls-3" d="M300.37,229.65c0,1.33,0,2.66,0,4a39.31,39.31,0,0,1-.12,4l-1.3-.82,5-2.73a.88.88,0,0,1,1.3.79v.05a39.15,39.15,0,0,1-.42,4c-.18,1.34-.39,2.68-.61,4a.53.53,0,0,1-1.06-.09c0-1.35,0-2.71.07-4.06a39.15,39.15,0,0,1,.26-4l1.3.85-5,2.73a.88.88,0,0,1-1.3-.77v0a39.29,39.29,0,0,1,.29-4c.14-1.32.26-2.64.44-4a.57.57,0,0,1,1.13.06Z"/><g class="cls-7"><path class="cls-8" d="M317.06,225.85l-4,.5q.49-1.09.92-2.2c.49-1.23,1-2.48,1.38-3.74a.52.52,0,0,0-.94-.43c-.67,1.15-1.32,2.31-1.93,3.49a34.52,34.52,0,0,0-1.72,3.59l0,0a.88.88,0,0,0,.93,1.19l4-.49c-.34.72-.66,1.46-1,2.19-.54,1.24-1.06,2.49-1.56,3.75a.52.52,0,0,0,.92.46c.71-1.16,1.39-2.32,2.06-3.5a38.29,38.29,0,0,0,1.88-3.58l0,0a.88.88,0,0,0-.92-1.22Z"/><path class="cls-8" d="M332.7,230.36l-4-1c.57-.56,1.12-1.14,1.68-1.71q1.38-1.44,2.71-2.92a.54.54,0,0,0-.74-.79q-1.55,1.25-3.06,2.55c-1,.87-2,1.71-2.94,2.68l0,0a.88.88,0,0,0,.42,1.45l3.89,1q-.89.81-1.74,1.65c-1,.94-1.92,1.91-2.85,2.89a.56.56,0,0,0,.74.83c1.08-.81,2.16-1.64,3.2-2.49s2.1-1.7,3.07-2.64l0,0a.88.88,0,0,0-.39-1.48Z"/><path class="cls-8" d="M302.15,232.27l-3.58,2c0-.8,0-1.59,0-2.39,0-1.33,0-2.66,0-4a.57.57,0,0,0-1.13-.06c-.17,1.32-.32,2.64-.45,4s-.28,2.64-.28,4v0a.88.88,0,0,0,1.3.77l3.53-1.93c-.05.8-.08,1.6-.11,2.4-.05,1.35-.07,2.7-.07,4.06a.53.53,0,0,0,1.06.09c.23-1.34.44-2.67.61-4a39.17,39.17,0,0,0,.42-4v-.05a.88.88,0,0,0-1.3-.79Z"/></g><path class="cls-9" d="M325.87,250.56c-3-2.36-11.19-1.42-13.82,1.7"/><path class="cls-1" d="M321.75,256.61l3.31,26.48-4.37.54-3.31-26.48a3.64,3.64,0,0,1,2.13-.84A3.29,3.29,0,0,1,321.75,256.61Z"/><path class="cls-1" d="M332.79,285.33l.94,7.59s-1.31-3.39-10-2.32-9.11,4.67-9.11,4.67l-.94-7.67a4.31,4.31,0,0,1,2.85-4.59,28.63,28.63,0,0,1,6.1-1.39,27.83,27.83,0,0,1,6.36,0A4.29,4.29,0,0,1,332.79,285.33Z"/><path class="cls-6" d="M314.72,256.84l2.82,22.89a26.73,26.73,0,0,0-3.24.91,5.17,5.17,0,0,0-3.42,5.53l.94,7.67a.8.8,0,0,0,0,.13s0,.05,0,.08c.14.36,1.41,3.09,7.64,3.09a26.73,26.73,0,0,0,3.26-.21c9.24-1.14,9.84-5,9.87-5.47,0,0,0,0,0-.07a.79.79,0,0,0,0-.11l-.94-7.59a5.15,5.15,0,0,0-4.55-4.52,29.51,29.51,0,0,0-3.48-.15l-2.82-22.9a8.28,8.28,0,0,0,4.22-8.24h0a8.28,8.28,0,1,0-10.34,9Z"/><path class="cls-4" d="M555.73,103.9a2.21,2.21,0,0,1-1.21-.88c-7.91-11.61-16.88-13.29-17-13.3a1.93,1.93,0,0,1-1.45-2.48c.2-1.19,1-2.06,2.17-1.86.44.07,10.84,1.89,19.89,15.16a2.2,2.2,0,0,1-2.43,3.36Z"/><circle class="cls-10" cx="556.48" cy="102.04" r="1.99" transform="matrix(0.28, -0.96, 0.96, 0.28, 305.34, 609)"/><polygon class="cls-5" points="459.27 55.56 458.07 59.75 460.64 60.6 468.45 60.34 467.64 62.9 468.21 63.09 475.72 62.66 474.88 65.28 475.27 65.41 482.71 64.89 481.86 67.57 482.1 67.65 489.98 67.2 489.1 69.95 491.96 70.89 494.69 61.36 459.27 55.56"/><polygon class="cls-1" points="458.71 52.98 457.51 57.17 460.08 58.02 467.89 57.76 467.08 60.32 467.65 60.51 475.16 60.08 474.32 62.7 474.71 62.83 482.15 62.31 481.3 65 481.54 65.08 489.42 64.63 488.54 67.38 491.4 68.32 494.13 58.78 458.71 52.98"/><polygon class="cls-1" points="486.64 72.86 478.87 73.91 479.53 71.12 479.4 71.09 471.73 72.22 472.4 69.38 464.31 70.48 464.97 67.64 458.4 68.36 459.08 66.12 455.22 65.18 454.02 69.37 487.15 83.18 489.88 73.64 486.64 72.86"/><polygon class="cls-5" points="454.02 69.37 454.91 72.69 487.12 86.4 487.15 83.18 454.02 69.37"/><line class="cls-1" x1="457.51" y1="57.18" x2="458.07" y2="59.75"/><line class="cls-1" x1="467.08" y1="60.32" x2="467.64" y2="62.9"/><line class="cls-1" x1="474.32" y1="62.7" x2="474.88" y2="65.28"/><line class="cls-1" x1="481.3" y1="65" x2="481.86" y2="67.57"/><line class="cls-1" x1="488.54" y1="67.38" x2="489.1" y2="69.95"/><path class="cls-1" d="M536.54,92.34a83.62,83.62,0,0,0-9.84-1.92c-5.27-.57-14.45,5-20.44,6-5.83,1-20.21-6.32-30-11.45-1.22-.64-.57-2.35.58-2,0,0,7.46,2.57,8.2-1s8.33-19.2,4-24.25c-1.84-2.17-6.58-.89-6.58-.89-1.83-.53-.45-2.61.49-2.56,9.82.51,29.39,3.76,34.18,9C523,69.81,526,77.11,530,78.9c4.21,1.86,9.29,3.87,9.29,3.87"/><path class="cls-1" d="M539.28,82.76c1,.28,1.15,2.65.39,5.29s-2.16,4.56-3.13,4.29"/><path class="cls-2" d="M491,85.06c3.59,1.69,11,5.84,14.54,5.41"/><path class="cls-3" d="M491.25,84.52A35.84,35.84,0,0,1,494.91,86c1.19.52,2.35,1.09,3.53,1.58s2.34,1,3.53,1.45a16.59,16.59,0,0,0,3.51.93h.07a.53.53,0,0,1,.06,1,8.39,8.39,0,0,1-4.17-.29,32.43,32.43,0,0,1-3.77-1.37c-1.2-.55-2.4-1.11-3.55-1.74s-2.28-1.28-3.37-2h0a.59.59,0,0,1,.51-1.06Z"/><path class="cls-11" d="M558.15,103.23c-6.56-9.63-13.77-13.38-17.87-14.82,0-1.84-.47-3-1.41-3.29,0,0-5.1-2-9.25-3.85-2.12-.93-4.07-3.81-6.34-7.13a72.27,72.27,0,0,0-6.23-8.21c-5.05-5.56-25.15-8.81-34.79-9.31a2.55,2.55,0,0,0-2.29,2.1q0,.08,0,.16L458.12,55.3a.88.88,0,0,0-1,.63l-1.2,4.19a.88.88,0,0,0,.57,1.08l.38.12-.39,1.37a.88.88,0,0,0,.57,1.08l2.57.84a.69.69,0,0,0,.3,0l6.47-.21.09,0-.43,1.34a.88.88,0,0,0,.56,1.1l.57.19a1,1,0,0,0,.32,0l6-.34.14,0h0l-.43,1.34a.88.88,0,0,0,.57,1.11l.39.13a.9.9,0,0,0,.34,0l5.84-.41.1,0,.18,0-.43,1.35a.88.88,0,0,0,.57,1.11l.24.08a.73.73,0,0,0,.32,0l6-.34.07,0,.3.1c-.3,1.19-.66,2.45-1.11,3.84l-.61-.15a.88.88,0,0,0-.33,0l-6.5.88.36-1.54a1,1,0,0,0-.78-1.09.84.84,0,0,0-.33,0l-6.39.95.37-1.58a.88.88,0,0,0-.2-.79.9.9,0,0,0-.77-.28l-6.82.92.37-1.6a.88.88,0,0,0-1-1.08l-5.24.58.29-1a.88.88,0,0,0-.63-1.11l-3.86-.94a.87.87,0,0,0-1.06.61l-1.2,4.19a.88.88,0,0,0,0,.47l.89,3.32a.88.88,0,0,0,.51.58l20.91,8.9a1.89,1.89,0,0,0-.64.83,2,2,0,0,0,1,2.55c12.55,6.56,24.94,12.49,30.59,11.54a47.88,47.88,0,0,0,8.83-2.93c4.19-1.67,8.53-3.39,11.37-3.09a83.69,83.69,0,0,1,9.7,1.89c1,.29,2.08-.44,3-2,2.93,1.11,9,4.24,14.48,12.34a3.08,3.08,0,0,0,1.68,1.22l.13,0,.09,0a1.4,1.4,0,0,0,.4,0l.41,0a2.82,2.82,0,0,0,2.74-2,1.48,1.48,0,0,0,0-.26A3,3,0,0,0,558.15,103.23Z"/><circle class="cls-1" cx="694.75" cy="78.63" r="28.51" transform="translate(-2.11 21.65) rotate(-1.78)"/><circle class="cls-1" cx="692.13" cy="75.06" r="28.51" transform="translate(-2 21.57) rotate(-1.78)"/><circle class="cls-5" cx="693.59" cy="77.05" r="20.21" transform="translate(-2.06 21.61) rotate(-1.78)"/><line class="cls-1" x1="713.8" y1="56.39" x2="718.45" y2="62.74"/><path class="cls-1" d="M705.53,93.35a20.2,20.2,0,0,0,4.54-28L695.33,97.16A20.08,20.08,0,0,0,705.53,93.35Z"/><path class="cls-1" d="M709.89,65.11a20.18,20.18,0,0,0-18.16-8.16l20.17,28.67A20.2,20.2,0,0,0,709.89,65.11Z"/><path class="cls-1" d="M681.65,60.75a20.1,20.1,0,0,0-6.41,7.86l34.9-3.13c-.09-.12-.16-.25-.25-.38A20.21,20.21,0,0,0,681.65,60.75Z"/><path class="cls-1" d="M691.84,56.94a20.17,20.17,0,0,0-14.74,31.78Z"/><path class="cls-1" d="M677.29,89a20.18,20.18,0,0,0,18.16,8.16L675.28,68.49A20.2,20.2,0,0,0,677.29,89Z"/><path class="cls-1" d="M677,88.62c.09.12.16.25.25.38a20.18,20.18,0,0,0,18,8.17l4.93-10.63Z"/><path class="cls-1" d="M691.24,46.56a28.51,28.51,0,1,0,29.39,27.61A28.51,28.51,0,0,0,691.24,46.56Zm21.08,27.87A20.21,20.21,0,1,1,691.5,54.86,20.21,20.21,0,0,1,712.33,74.43Z"/><path class="cls-6" d="M718.31,62.44A29.24,29.24,0,0,0,684.64,50c-.64.2-1.26.42-1.88.67a29.37,29.37,0,0,0-13.17,44.54c.51.71,1.06,1.39,1.56,1.95A29.51,29.51,0,0,0,696.07,111h.9a29.38,29.38,0,0,0,21.34-48.57Z"/><path class="cls-1" d="M909.88,56.68c5.19-1.26,13.77,4,14.24,10.86s-3.07,14.9-21.15,16c-15.36.9-19.28-10-16.88-15.93s6.36-10.06,11.83-9.39"/><polygon class="cls-2" points="911.21 59.72 911.7 53.51 906.77 55.85 903.74 53.74 900.89 56.54 895.86 55.57 896.1 61.75 898.82 61.96 900.86 65.24 903.75 62.3 906.7 63.84 908.94 60.94 911.67 61.44 911.21 59.72"/><path class="cls-3" d="M910.33,59.8l.65-6.35,1.1.85-4.93,2.34h0a.83.83,0,0,1-.85-.09l-3-2.22,1-.08-2.75,2.89a.83.83,0,0,1-.78.24h0l-5-1.1.89-.77.38,6.17-.81-.84,2.69.45h0a.74.74,0,0,1,.48.3l2.24,3.15-1.38-.15,3.09-2.74a.65.65,0,0,1,.68-.11h0l3.09,1.29L906,63.3l2.44-2.76a.71.71,0,0,1,.6-.24h0l2.77.26-1,1.09Zm1.75-.16.43,1.56,0,.07a.84.84,0,0,1-.58,1,.84.84,0,0,1-.45,0l-2.68-.74.62-.24-2.05,3.06h0a.8.8,0,0,1-1.1.23l-2.81-1.8.69-.11-2.67,3.15a.84.84,0,0,1-1.37-.14h0l-1.85-3.4.5.3-2.73,0a.8.8,0,0,1-.81-.79v-.05l-.12-6.18a.76.76,0,0,1,.75-.78H896l5.06.84-.78.24,2.94-2.7a.78.78,0,0,1,1-.08l3.11,2-.88-.07,4.93-2.34a.78.78,0,0,1,1.11.74v.11Z"/><path class="cls-3" d="M907.33,59.32c-.9.06-1.78.12-2.63.22a16.24,16.24,0,0,0-2.55.51,9.55,9.55,0,0,0-2.35.92,1.39,1.39,0,0,0-.56.55c-.07.13.09.45.34.77l0,.05a.5.5,0,0,1-.69.71,2,2,0,0,1-1-1.59,2.29,2.29,0,0,1,1-1.69,8.82,8.82,0,0,1,2.74-1.36,11.76,11.76,0,0,1,2.92-.59,6.87,6.87,0,0,1,2.94.51.52.52,0,0,1-.17,1Z"/><path class="cls-1" d="M876.15,82c-7.94-5-21.43-4.34-27.35,5.72s-.42,18,6,20.63,19-.42,24.72-8.55C883.34,94.37,882.58,86,876.15,82Z"/><polygon class="cls-2" points="865.11 84.78 863.45 82.84 860.54 85.94 856.9 84.98 856.52 89.71 853.38 92.1 858.87 93.05 858.58 96.74 863.87 94.3 868.39 94.95 867.54 91.26 870.72 88.38 866.94 88.07 869.19 83.78 865.11 84.78"/><path class="cls-3" d="M864.84,85.62c-.68-.76-1.33-1.56-1.9-2.34l1,0-2.77,3.24h0a.79.79,0,0,1-.85.23l-3.57-1.22.77-.54-.11,4.75h0a.77.77,0,0,1-.34.62l-3.31,2.16-.26-1.07,5.54.67h0a.81.81,0,0,1,.71.9v0l-.6,3.67-.81-.57,5.16-2.71a.75.75,0,0,1,.49-.07l4.49.89-.71.78-1.08-3.63a.8.8,0,0,1,.27-.85l3.35-2.7.37,1.1-3.8-.06a.85.85,0,0,1-.72-1.28h0l2.49-4.17.68.86C867.89,84.81,866.37,85.25,864.84,85.62Zm.54-1.68c1.18-.3,2.38-.53,3.67-.75h0a.62.62,0,0,1,.67.87l-2,4.42L867,87.2l3.77.55a.65.65,0,0,1,.55.73.66.66,0,0,1-.18.37l-3,3.07.27-.85.61,3.74h0a.66.66,0,0,1-.55.76h-.17l-4.55-.41.49-.07-5.42,2.16a.59.59,0,0,1-.81-.55V93l.73.94-5.45-1.22a.61.61,0,0,1-.27-1.06h0L856,89l-.35.63.65-4.71a.64.64,0,0,1,.73-.55h0l3.71.7-.87.25,3.06-3a.71.71,0,0,1,1,0l0,0A15.52,15.52,0,0,1,865.38,83.95Z"/><path class="cls-2" d="M864.08,87.75a3.29,3.29,0,0,0-2.24.2c-1.52.82-3,3-.63,3.59a4.56,4.56,0,0,0,2.93-.09"/><path class="cls-3" d="M864,88.12a3.18,3.18,0,0,0-1.95.67,3.32,3.32,0,0,0-1.11,1.46c0,.19,0,.05,0,.19a2.14,2.14,0,0,0,.8.34,5.44,5.44,0,0,0,2.18.22h0a.49.49,0,0,1,.35.89,4.18,4.18,0,0,1-2.89.57,3.54,3.54,0,0,1-1.6-.54,1.88,1.88,0,0,1-.73-.93,2,2,0,0,1-.06-1.15,3.37,3.37,0,0,1,.86-1.5,4.76,4.76,0,0,1,1.22-.94,3.3,3.3,0,0,1,.77-.31,3.06,3.06,0,0,1,.81-.08,3.38,3.38,0,0,1,1.44.38.39.39,0,0,1-.15.74Z"/><path class="cls-3" d="M912.52,65.49a3.74,3.74,0,0,1-1.19,1.27,6.32,6.32,0,0,1-1.41.75,8.44,8.44,0,0,1-3.1.56A.55.55,0,0,1,906.6,67h0l2.6-1.2c.42-.2.86-.37,1.29-.54l1.23-.47.13-.05a.53.53,0,0,1,.66.75Z"/><g class="cls-7"><path class="cls-8" d="M923,63.46c-.43-6.31-6.93-11.41-12.57-12l.15-1.83A1.15,1.15,0,0,0,909,48.47l-4.33,2.06-2.49-1.73a1.15,1.15,0,0,0-1.46.12l-2.41,2.38-4.45-.85a1.15,1.15,0,0,0-1.36,1.17l.06,1.55c-4.09.84-7.44,4.26-9.74,10a12.12,12.12,0,0,0,1.65,11.29c1.73,2.41,5.86,6.27,14.55,6.27.58,0,1.19,0,1.81-.05,9-.53,15.44-2.85,19-6.89A13.58,13.58,0,0,0,923,63.46Z"/><path class="cls-8" d="M874.54,77a22.9,22.9,0,0,0-17-2.58,18.55,18.55,0,0,0-11.92,8.69c-3.4,5.77-3,10.43-2,13.33a14.71,14.71,0,0,0,14.33,10c7,0,15.76-3.48,20.31-10a14.06,14.06,0,0,0,2.24-10.83A13.12,13.12,0,0,0,874.54,77Z"/></g><path class="cls-4" d="M188.08,250.1a3.84,3.84,0,0,0-2.68-1.67c-2.46-.35-4.81,1.61-7.13,3.52a23.18,23.18,0,0,1-1.94,1.5.4.4,0,0,0-.08.61l2.51,2.73a.4.4,0,0,0,.53.05c.56-.4,1.14-.88,1.76-1.39l.08-.07a23,23,0,0,1,3.28-2.39.3.3,0,0,1,.25.06c1.13,2,1.48,5.17.89,8.55a2.23,2.23,0,0,0,1.82,2.58,2,2,0,0,0,.39,0,2.23,2.23,0,0,0,2.2-1.85C190.8,257.56,190.1,253,188.08,250.1Z"/><rect class="cls-1" x="149.83" y="247.24" width="18.72" height="52.73" rx="9.36" ry="9.36" transform="translate(230.05 -34.91) rotate(43.13)"/><path class="cls-12" d="M146.1,273.85c4.31-1.17,14.62,1.73,12.94,13.56"/><path class="cls-3" d="M145.5,281.69a10,10,0,0,1,3.52,1.63,10.38,10.38,0,0,1,2.67,2.92,10.76,10.76,0,0,1,1.42,3.69,14.43,14.43,0,0,1,.2,3.87.88.88,0,0,1-1.76-.08v0a12.39,12.39,0,0,0-1.44-6.52,12.05,12.05,0,0,0-5-4.42h0a.57.57,0,0,1,.39-1.05Z"/><path class="cls-12" d="M153.32,266.16c4.31-1.17,14.62,1.73,12.94,13.56"/><path class="cls-12" d="M160.54,258.56c4.31-1.17,14.62,1.73,12.94,13.56"/><path class="cls-4" d="M143.4,288h0c-.45,0-.81.32-1.26.77-1.49,1.49-5,5.54-5.13,10.89a29.55,29.55,0,0,0,1.07,8.33,2.24,2.24,0,0,0,4.29-1.27,25.42,25.42,0,0,1-.89-6.93c.11-3.75,2.71-6.75,3.82-7.87a1.34,1.34,0,0,0,.39-1,4,4,0,0,0-1.25-2.4A1.54,1.54,0,0,0,143.4,288Z"/><path class="cls-4" d="M159.24,233.75a3.84,3.84,0,0,0-2.68-1.67c-2.46-.35-4.81,1.61-7.13,3.52a23.18,23.18,0,0,1-1.94,1.5.4.4,0,0,0-.08.61l2.51,2.73a.4.4,0,0,0,.53.05c.56-.4,1.14-.88,1.76-1.39l.08-.07a23,23,0,0,1,3.28-2.39.3.3,0,0,1,.25.06c1.13,2,1.48,5.17.89,8.55a2.23,2.23,0,0,0,1.82,2.58,2,2,0,0,0,.39,0,2.23,2.23,0,0,0,2.2-1.85C162,241.21,161.26,236.62,159.24,233.75Z"/><rect class="cls-1" x="120.99" y="230.89" width="18.72" height="52.73" rx="9.36" ry="9.36" transform="translate(211.08 -19.61) rotate(43.13)"/><path class="cls-12" d="M117.26,257.49c4.31-1.17,14.62,1.73,12.94,13.56"/><path class="cls-3" d="M116.67,265.34a10,10,0,0,1,3.52,1.63,10.38,10.38,0,0,1,2.67,2.92,10.76,10.76,0,0,1,1.42,3.69,14.43,14.43,0,0,1,.2,3.87.88.88,0,0,1-1.76-.08v0a12.39,12.39,0,0,0-1.44-6.52,12.05,12.05,0,0,0-5-4.42h0a.57.57,0,0,1,.39-1.05Z"/><path class="cls-12" d="M124.48,249.81c4.31-1.17,14.62,1.73,12.94,13.56"/><path class="cls-12" d="M131.71,242.21c4.31-1.17,14.62,1.73,12.94,13.56"/><path class="cls-4" d="M114.56,271.62h0c-.45,0-.81.32-1.26.77-1.49,1.49-5,5.54-5.13,10.89a29.55,29.55,0,0,0,1.07,8.33,2.24,2.24,0,0,0,4.29-1.27,25.42,25.42,0,0,1-.89-6.93c.11-3.75,2.71-6.75,3.82-7.87a1.34,1.34,0,0,0,.39-1,4,4,0,0,0-1.25-2.4A1.54,1.54,0,0,0,114.56,271.62Z"/><path class="cls-4" d="M130.93,218.39a3.84,3.84,0,0,0-2.68-1.67c-2.46-.35-4.81,1.61-7.13,3.52a23.18,23.18,0,0,1-1.94,1.5.4.4,0,0,0-.08.61l2.51,2.73a.4.4,0,0,0,.53.05c.56-.4,1.14-.88,1.76-1.39l.08-.07a23,23,0,0,1,3.28-2.39.3.3,0,0,1,.25.06c1.13,2,1.48,5.17.89,8.55a2.23,2.23,0,0,0,1.82,2.58,2,2,0,0,0,.39,0,2.23,2.23,0,0,0,2.2-1.85C133.65,225.85,133,221.26,130.93,218.39Z"/><rect class="cls-1" x="92.69" y="215.54" width="18.72" height="52.73" rx="9.36" ry="9.36" transform="translate(192.93 -4.41) rotate(43.13)"/><path class="cls-12" d="M89,242.14c4.31-1.17,14.62,1.73,12.94,13.56"/><path class="cls-3" d="M88.36,250a10,10,0,0,1,3.52,1.63,10.38,10.38,0,0,1,2.67,2.92A10.76,10.76,0,0,1,96,258.21a14.43,14.43,0,0,1,.2,3.87.88.88,0,0,1-1.76-.08v0A12.39,12.39,0,0,0,93,255.47,12.05,12.05,0,0,0,88,251h0a.57.57,0,0,1,.39-1.05Z"/><path class="cls-12" d="M96.17,234.45c4.31-1.17,14.62,1.73,12.94,13.56"/><path class="cls-12" d="M103.4,226.86c4.31-1.17,14.62,1.73,12.94,13.56"/><path class="cls-4" d="M86.25,256.26h0c-.45,0-.81.32-1.26.77-1.49,1.49-5,5.54-5.13,10.89a29.55,29.55,0,0,0,1.07,8.33A2.24,2.24,0,0,0,85.22,275a25.42,25.42,0,0,1-.89-6.93c.11-3.75,2.71-6.75,3.82-7.87a1.34,1.34,0,0,0,.39-1,4,4,0,0,0-1.25-2.4A1.54,1.54,0,0,0,86.25,256.26Z"/><path class="cls-6" d="M182.63,246.55c-2.79-.39-5.29,1.67-7.77,3.71-.59.49-1.15.95-1.58,1.25a10.17,10.17,0,0,0-12.76,1.64L150,264.36l-1.06.37.37.37L142.85,272l-1.15.34.43.43L137.27,278a10.19,10.19,0,0,0-1.2,12.34,16,16,0,0,0-2.74,8.2,30.15,30.15,0,0,0,1.1,8.58,3,3,0,0,0,5.83-1.72,24.52,24.52,0,0,1-.85-6.68,9.36,9.36,0,0,1,1.37-4.44,10.19,10.19,0,0,0,11.32-2.39l18.5-19.75.59.55.19-1.38,4-4.25a10.15,10.15,0,0,0,1.9-10.91c.46-.35,1-.75,1.52-1.22a32.26,32.26,0,0,1,2.61-2,13.73,13.73,0,0,1,.52,7.46,3,3,0,0,0,6,1c.87-5,.11-9.83-2-12.87A4.62,4.62,0,0,0,182.63,246.55Z"/><path class="cls-6" d="M142.34,256.37l.19-1.42,4-4.25a10.16,10.16,0,0,0,1.9-10.91c.46-.35,1-.76,1.54-1.24a32.32,32.32,0,0,1,2.59-2,13.74,13.74,0,0,1,.52,7.46,3,3,0,0,0,6,1c.87-5,.11-9.83-2-12.87a4.62,4.62,0,0,0-3.22-2c-2.79-.39-5.29,1.67-7.8,3.74-.58.47-1.13.93-1.55,1.23a10.16,10.16,0,0,0-12.76,1.64L121.2,248l-1.11.33.41.41L114,255.68l-1.1.33.4.42-4.88,5.21a10.2,10.2,0,0,0-1.2,12.34,15.74,15.74,0,0,0-2.74,8.2,30.15,30.15,0,0,0,1.1,8.58,3,3,0,0,0,5.83-1.72,24.52,24.52,0,0,1-.85-6.68,9.36,9.36,0,0,1,1.37-4.44,10.2,10.2,0,0,0,11.32-2.39l18.49-19.74Z"/><path class="cls-6" d="M114,241.06l.19-1.47,4-4.25a10.15,10.15,0,0,0,1.9-10.91c.46-.35,1-.76,1.53-1.23a32.51,32.51,0,0,1,2.59-2,13.73,13.73,0,0,1,.52,7.46,3,3,0,0,0,6,1c.87-5,.11-9.83-2-12.87a4.62,4.62,0,0,0-3.22-2c-2.79-.39-5.29,1.67-7.77,3.71-.59.49-1.15.95-1.58,1.26a10.17,10.17,0,0,0-12.76,1.64L92.92,232.62l-1.17.21.48.54-6.52,7-1.09.32.39.42-4.88,5.21a10.19,10.19,0,0,0-1.2,12.34,16,16,0,0,0-2.74,8.2,30.15,30.15,0,0,0,1.1,8.58,3,3,0,0,0,5.83-1.72,24.52,24.52,0,0,1-.85-6.68,9.41,9.41,0,0,1,1.37-4.44A10.19,10.19,0,0,0,95,260.17l18.48-19.73Z"/><path class="cls-1" d="M480.91,290.92l-.52-3.43a9.48,9.48,0,0,1,1.62-6.89l24.85-35.34,10,7-25,35.61a9.48,9.48,0,0,1-6.41,3.93l-2.73.39A1.52,1.52,0,0,1,480.91,290.92Z"/><path class="cls-12" d="M507.52,244.31c-3.78-1.15-5,5-.8,11.71,4.39,7,8.38,4,6.8.91"/><path class="cls-12" d="M501.45,253c-3.78-1.15-5,5-.8,11.71,4.39,7,8.38,4,6.8.91"/><path class="cls-12" d="M495.37,261.59c-3.78-1.15-5,5-.8,11.71,4.39,7,8.38,4,6.8.91"/><path class="cls-12" d="M489.3,270.23c-3.78-1.15-5,5-.8,11.71,4.39,7,8.38,4,6.8.91"/><path class="cls-1" d="M533.15,251.63c.95-5-.21-12.19-6.75-18.27l-6.66,9.47-5.2-3.66,6.71-9.54c-8-4.32-16-2.28-19.39,0-4.59,3.05,1,12.84,9.93,19.12S532.09,257.26,533.15,251.63Z"/><line class="cls-1" x1="519.55" y1="232.03" x2="524.76" y2="235.69"/><path class="cls-6" d="M524.55,230.72a.88.88,0,0,0-.63.37l-6.15,8.75L514,237.19l6.2-8.82a.88.88,0,0,0-.3-1.28c-8.83-4.76-17.13-2.05-20.3,0a4.49,4.49,0,0,0-2,3.39c-.33,3.09,1.73,7.35,5.55,11.57a3.27,3.27,0,0,0-.64.59,6.24,6.24,0,0,0-1.06,4.45l-2.17,3.09a3,3,0,0,0-2.41.65c-1.12.92-1.66,2.7-1.5,4.91l-2.17,3.09a3,3,0,0,0-2.41.65c-1.12.92-1.66,2.7-1.5,4.91l-2.17,3.09a3,3,0,0,0-2.41.65c-1.12.92-1.66,2.7-1.5,4.91l-3.73,5.3a10.31,10.31,0,0,0-1.77,7.53l.52,3.43a2.41,2.41,0,0,0,2.38,2l.34,0,2.73-.39a10.4,10.4,0,0,0,7-4.3l.93-1.32a2.85,2.85,0,0,0,2.5-1,3.17,3.17,0,0,0,.39-3.1l3.19-4.53a2.88,2.88,0,0,0,2.5-1,3.17,3.17,0,0,0,.39-3.1L503.8,268a2.77,2.77,0,0,0,2.5-1,3.18,3.18,0,0,0,.39-3.1l3.19-4.53a2.81,2.81,0,0,0,2.5-1,3.18,3.18,0,0,0,.39-3.1l2.85-4.05c5.39,2.5,10.71,3.44,13.79,2.19a4.43,4.43,0,0,0,2.85-3.38c1.26-6.7-1.36-13.83-7-19.08A.89.89,0,0,0,524.55,230.72Z"/><path class="cls-1" d="M715.49,296.55c-2.54-7.37-20.08-17.29-30.25-12.2a129.72,129.72,0,0,1-16.52,7.12s7.12,6.86,22.12,12.71S713.2,303.16,715.49,296.55Z"/><path class="cls-2" d="M715.49,296.55a27.26,27.26,0,0,1-14.24,2.29A64.69,64.69,0,0,1,688.64,296"/><path class="cls-3" d="M715.88,297.34a27.33,27.33,0,0,1-6.78,2.2,24.67,24.67,0,0,1-7.12.33,66.2,66.2,0,0,1-6.89-1.21,29.17,29.17,0,0,1-6.61-2.25.47.47,0,0,1,.3-.87h0l6.67,1.38a64.63,64.63,0,0,0,6.7,1,25,25,0,0,0,6.59-.33,28.5,28.5,0,0,0,6.34-1.88l0,0a.88.88,0,0,1,.74,1.6Z"/><path class="cls-1" d="M736.67,273.21c-8.16,1.64-21.83-18.74-7.74-45.46C738.39,241.09,762.77,261.21,736.67,273.21Z"/><path class="cls-2" d="M736.67,273.21s5.71-7.23,4.38-14.69"/><path class="cls-3" d="M736,272.67a29.89,29.89,0,0,0,1.93-3.23A27.35,27.35,0,0,0,739.4,266a18,18,0,0,0,.87-3.63c.16-1.24.16-2.44.29-3.74v0a.5.5,0,0,1,1-.13,8.81,8.81,0,0,1,.51,4.1,19.87,19.87,0,0,1-.83,4,23.56,23.56,0,0,1-1.6,3.76,21.7,21.7,0,0,1-2.24,3.43.88.88,0,0,1-1.41-1.05Z"/><path class="cls-1" d="M658.66,259.5c-10.85-13.94-1.56-29.45,10.08-33.15a45.21,45.21,0,0,0,15.51-8.4s2.37,12.11-.38,21S668.56,264.95,658.66,259.5Z"/><path class="cls-2" d="M668.73,226.35c5.2-2,8.51,5.13,4.05,13.79"/><path class="cls-3" d="M668.42,225.53a5.53,5.53,0,0,1,2.72-.36,4.49,4.49,0,0,1,1.38.4,4.08,4.08,0,0,1,.61.38,2.63,2.63,0,0,1,.55.45,7.5,7.5,0,0,1,2.05,4.75,14.73,14.73,0,0,1-.46,4.89l-.35,1.16c-.15.37-.3.75-.47,1.11a13.93,13.93,0,0,1-1.17,2.08.55.55,0,0,1-1-.45l0-.05c.44-1.46,1-2.83,1.26-4.27a13,13,0,0,0,.31-4.27,6,6,0,0,0-1.5-3.58,3.09,3.09,0,0,0-3.33-.59l-.06,0a.88.88,0,1,1-.58-1.66Z"/><path class="cls-2" d="M658.66,259.5a29.23,29.23,0,0,0,6.62-7.72"/><path class="cls-3" d="M658.11,258.81c.58-.53,1.19-1.12,1.78-1.69s1.15-1.19,1.72-1.79c1.12-1.22,2.09-2.53,3.24-3.78h0a.49.49,0,0,1,.83.48,13.15,13.15,0,0,1-2.69,4.53,21,21,0,0,1-1.79,1.93,18.4,18.4,0,0,1-2,1.72.88.88,0,0,1-1.12-1.36Z"/><path class="cls-6" d="M709,286.19a35.75,35.75,0,0,0-7.8-4.48,30.38,30.38,0,0,0-8.69-2.31,16.32,16.32,0,0,0-8.9,1.49l-.18-.36q-4,2-8.11,3.8c-2.73,1.18-5.51,2.33-8.29,3.27l-.05,0a.86.86,0,0,0-.29,1.46,61.63,61.63,0,0,0,11.51,7.84,86.92,86.92,0,0,0,12.65,5.66,29.3,29.3,0,0,0,6.88,1.54,18.36,18.36,0,0,0,7.12-.58,14.61,14.61,0,0,0,6.24-3.63,16.28,16.28,0,0,0,3.82-6.11v0a.74.74,0,0,0,0-.53A17.79,17.79,0,0,0,709,286.19Z"/><path class="cls-6" d="M745.18,247.14a70.37,70.37,0,0,0-8.25-11.76l-4.6-5.44-2.28-2.72-1.11-1.38a10.24,10.24,0,0,0-1.49-1.6l-.2-.17a17.08,17.08,0,0,0-1.09,1.46,12.23,12.23,0,0,0-.94,1.79c-.45,1-.93,2-1.31,3.1a51.59,51.59,0,0,0-2.06,6.42,42.74,42.74,0,0,0-1.23,13.43,31.59,31.59,0,0,0,3.69,13,19.36,19.36,0,0,0,4.29,5.42c1.75,1.48,4.11,2.82,6.79,2.33l.2-.06a35.08,35.08,0,0,0,6.28-3.72,16,16,0,0,0,4.77-5.74,13.11,13.11,0,0,0,1-7.45,23,23,0,0,0-2.44-6.94"/><path class="cls-6" d="M683,236.39a31.68,31.68,0,0,0,1.24-7.19,49.1,49.1,0,0,0-.06-7.22c-.1-1.2-.22-2.39-.38-3.58l-.26-1.78-.15-.89-.08-.44,0-.22a1.32,1.32,0,0,0,0-.2.76.76,0,0,0-.32-.39l-.54-.3a1.12,1.12,0,0,0-.22.13l-.06,0-.08.07-.17.14-.34.28-.7.55c-.47.36-1,.71-1.45,1-1,.67-2,1.32-3,1.92a46.63,46.63,0,0,1-6.47,3.11c-1.12.46-2.23.78-3.41,1.23l-1.78.7-1.69.89a23.28,23.28,0,0,0-9.9,11.21,21.5,21.5,0,0,0-1.57,7.44,22.58,22.58,0,0,0,5,14.09.89.89,0,0,0,.26.22h0a9.8,9.8,0,0,0,7.59.68,19,19,0,0,0,6.48-3.66A41.43,41.43,0,0,0,680,243,34.9,34.9,0,0,0,683,236.39Z"/><path class="cls-1" d="M916.24,270.09c-1.12,8-14.9,12.77-30.78,10.55s-27.84-10.53-26.72-18.57a59.67,59.67,0,0,1,1.62-8.31c1.88-6.31,19-3.67,29.16-2.24S916.58,255.38,917,262C917.17,265.33,916.63,267.25,916.24,270.09Z"/><path class="cls-1" d="M862.57,262.53a10.42,10.42,0,0,1-2.41-7.77c1.18-8.45,14.83-13.53,30.49-11.34s27.4,10.8,26.22,19.25S902,276.2,886.38,274c-1.73-.24-3.42-.56-5-1"/><path class="cls-1" d="M883.85,250.54c-7.06.06-12.43,2.19-12.89,5.52-.59,4.19,6.81,8.69,16.52,10s18.06-.95,18.64-5.14c.46-3.33-4.12-6.85-10.89-8.84"/><line class="cls-1" x1="889.92" y1="248.65" x2="888.91" y2="255.9"/><path class="cls-6" d="M861.31,276c5.16,3.58,12.3,6.16,20.11,7.25a57,57,0,0,0,7.87.56,42,42,0,0,0,13.46-2c6.14-2.11,9.85-5.6,10.44-9.83.09-.65.19-1.25.28-1.84a26.39,26.39,0,0,0,.46-6.46c0-.14,0-.28-.05-.18.21-8.61-11.66-17-27-19.18S858,246.82,855.72,255a1.66,1.66,0,0,0-.12.26,61,61,0,0,0-1.65,8.44C853.37,267.94,856,272.32,861.31,276Z"/><polygon class="cls-5" points="176.81 448.62 155.89 437.85 145.24 439.01 153.54 448.78 176.41 451.29 176.81 448.62"/><polygon class="cls-1" points="95.47 417.31 146.24 407.22 169.19 417.98 118.58 428.36 95.47 417.31"/><polygon class="cls-1" points="116.89 439.72 93.77 428.78 95.47 417.31 118.59 428.22 116.89 439.72"/><path class="cls-1" d="M113.66,433.56s2.9-6.29-5.17-10.1-33.67,3.95-41,10.75C67.45,434.21,98.29,443.51,113.66,433.56Z"/><path class="cls-1" d="M118.59,428.22,169.19,418l-2.68,15.19s-4.06-.81-9.05,3.18-5.37,10.29-.74,11.56,16-1.26,20.09.71,3.7,3,3.7,3l-19.74,5.57a24,24,0,0,0-17.37-1.45c-9.49,2.68-10.26,9.25-10.26,9.25l-23.85,6.73s-.58-.92.67-4.5A31.87,31.87,0,0,1,118,454.35c3.33-3.51,11.93-5.78,8.13-9.72-3.23-3.34-9.28-4.91-9.28-4.91l1.69-11.36"/><path class="cls-1" d="M132.79,457.24c.53-5.15,5.66-8.29,9.68-8.85a14.78,14.78,0,0,1,10.72,2.77"/><polyline class="cls-1" points="161 423.85 126.21 430.96 124.72 431.27 121.41 431.95"/><path class="cls-1" d="M81.64,433.08s19.14.16,26.42-3.11"/><line class="cls-1" x1="176.81" y1="448.62" x2="155.89" y2="437.85"/><polygon class="cls-1" points="95.47 417.31 146.24 407.22 169.19 417.98 118.58 428.36 95.47 417.31"/><path class="cls-5" d="M95.34,420.09l-1.4,8.71c15.61-3.12,25.29,14.09,16.49,18.44s-18.67,3-22.46,4.7a14,14,0,0,0-5.62,4.62l26.94,15.2,23-27L95.34,420.09"/><polygon class="cls-5" points="116.89 439.72 93.77 428.78 95.47 417.31 118.59 428.22 116.89 439.72"/><path class="cls-1" d="M113.66,433.56s2.9-6.29-5.17-10.1-33.67,3.95-41,10.75C67.45,434.21,98.29,443.51,113.66,433.56Z"/><path class="cls-1" d="M118.59,428.22,169.19,418l-2.68,15.19s-4.06-.81-9.05,3.18-5.37,10.29-.74,11.56,16-1.26,20.09.71,3.7,3,3.7,3l-19.74,5.57a24,24,0,0,0-17.37-1.45c-9.49,2.68-10.26,9.25-10.26,9.25l-23.85,6.73s-.58-.92.67-4.5c2-5.61,6.62-7,11.07-10.64,3.77-3,8.93-8.06,5.13-12-3.23-3.34-9.28-4.91-9.28-4.91l1.69-11.36"/><path class="cls-2" d="M132.79,457.24c.53-5.15,5.66-8.29,9.68-8.85a14.78,14.78,0,0,1,10.72,2.77"/><path class="cls-3" d="M132.34,457.2a8.71,8.71,0,0,1,2.68-6.13,13.25,13.25,0,0,1,5.87-3.32,14.36,14.36,0,0,1,6.72,0,15,15,0,0,1,5.86,3,.52.52,0,0,1-.58.87,19.59,19.59,0,0,0-5.65-2.19,13.16,13.16,0,0,0-5.87.18,12.84,12.84,0,0,0-5.14,2.75,9.73,9.73,0,0,0-3,4.95h0a.45.45,0,0,1-.89-.1Z"/><polyline class="cls-2" points="161 423.85 126.21 430.96 124.72 431.27 121.41 431.95"/><path class="cls-3" d="M161.11,424.38c-6.52,1.75-13.13,3-19.72,4.44-3.29.71-6.6,1.37-9.9,2l-5,1a22.86,22.86,0,0,1-5,.72.63.63,0,0,1-.25-1.2,22.89,22.89,0,0,1,4.89-1.31l4.94-1c3.3-.69,6.59-1.39,9.9-2,6.61-1.29,13.2-2.71,19.88-3.66a.54.54,0,0,1,.22,1.06Z"/><path class="cls-2" d="M81.64,433.08s19.14.16,26.42-3.11"/><path class="cls-3" d="M81.65,432.67l6.65-.47c2.21-.14,4.42-.37,6.62-.57s4.38-.54,6.55-.87c1.08-.17,2.15-.37,3.21-.6.52-.14,1-.29,1.57-.37a7,7,0,0,1,1.63-.23h.06a.47.47,0,0,1,.31.83,6.63,6.63,0,0,1-1.49,1c-.53.22-1.09.38-1.64.55-1.11.28-2.21.57-3.33.75a61.14,61.14,0,0,1-6.71.79c-2.24.18-4.48.23-6.72.26s-4.48,0-6.72-.21a.41.41,0,0,1,0-.82Z"/><path class="cls-6" d="M176.84,444.14,157,433.92c.21-.19.41-.39.65-.58,4.56-3.65,8.18-3,8.33-3a.86.86,0,0,0,.67-.14.88.88,0,0,0,.37-.57l2.68-15.19s0,0,0,0v0s0,0,0-.05a.88.88,0,0,0,0-.18l0-.08a.86.86,0,0,0-.06-.17l0-.06a.87.87,0,0,0-.14-.19h0l0,0a.88.88,0,0,0-.17-.12l0,0-22.95-10.76a.89.89,0,0,0-.55-.07L94.94,412.76a.87.87,0,0,0-.22.08h0a.87.87,0,0,0-.27.24l0,.07a.87.87,0,0,0-.12.31v0l-.8,5.36c-10.27,1.93-22.13,6.55-27,11a.88.88,0,0,0,.34,1.49,109.74,109.74,0,0,0,13.89,3c1.16.17,2.37.33,3.61.47,9.85,1.11,17.93.56,24.12-1.62l3.35,1.59c.09.21.18.42.25.63,1.13,3.32.24,6.08-2.37,7.37-5.26,2.6-10.92,3.09-15.46,3.49-3,.26-5.37.47-7,1.21a14.79,14.79,0,0,0-6,4.95.88.88,0,0,0,.31,1.24l26.94,15.2a.85.85,0,0,0,.55.1l.07,0h.05L133,462.19a.89.89,0,0,0,.63-.74c0-.25.87-6,9.62-8.51A23.38,23.38,0,0,1,160,454.31a.89.89,0,0,0,.68.08l19.74-5.57a.88.88,0,0,0,.58-.52C181.3,447.46,180.85,446.06,176.84,444.14Z"/><path class="cls-1" d="M701.66,411.16a60.64,60.64,0,0,0,.91-7c.23-3.27-1.06-5-3.51-5.64s-4.65.55-5.92,3.4-2.59,6.29-2.59,6.29"/><path class="cls-1" d="M698.2,410.49s1.21-6.32,1.21-7.71c0-1.1-.27-1.67-1-1.86s-1.3.29-1.81,1.21-2.72,7.23-2.72,7.23"/><path class="cls-1" d="M654.2,458.89a12.62,12.62,0,0,0,7.63,15,153,153,0,0,0,16.06,5.18,150.53,150.53,0,0,0,16.53,3.32,12.65,12.65,0,0,0,14-9.3l8.24-31.29a28,28,0,0,0-20-34.26h0a28,28,0,0,0-34.26,20Z"/><path class="cls-2" d="M666.83,445.37l-3.4,12.91a6,6,0,0,0,4.31,7.38l25.94,6.83a6,6,0,0,0,7.38-4.31l3.4-12.91a3.29,3.29,0,0,0-2.34-4l-15.63-4.12"/><path class="cls-3" d="M667.33,445.5c-.71,3.85-1.66,7.65-2.6,11.44l-.36,1.42a5.88,5.88,0,0,0-.2,1.25,5.11,5.11,0,0,0,2.06,4.3,4.91,4.91,0,0,0,1.07.61,8.85,8.85,0,0,0,1.27.39l22.7,5.93,2.81.74a5,5,0,0,0,2.43,0,5.09,5.09,0,0,0,3.5-3.2c.13-.36.25-.87.38-1.33l.38-1.42.76-2.83L703,457.1l.38-1.42.18-.69a2.32,2.32,0,0,0,.07-.53,2.4,2.4,0,0,0-1.81-2.36l-1.42-.38L697.6,451c-3.77-1-7.53-2.09-11.26-3.29a.55.55,0,0,1,.28-1.06c3.83.8,7.63,1.73,11.42,2.68l2.84.72,1.42.37a4.19,4.19,0,0,1,3,5l-.19.73-.37,1.42-1.47,5.68-.74,2.84-.37,1.42c-.13.48-.23.92-.42,1.49a7,7,0,0,1-8.17,4.5l-2.87-.74-22.67-6a10.62,10.62,0,0,1-1.52-.48,6.78,6.78,0,0,1-1.47-.84,7,7,0,0,1-2.79-5.88,7.8,7.8,0,0,1,.26-1.64l.38-1.42c1-3.77,2.09-7.54,3.37-11.24a.52.52,0,0,1,1,.27Z"/><path class="cls-2" d="M700.5,456s-10.67-1.67-15.76-3S672,449.12,672,449.12"/><path class="cls-3" d="M700.39,456.72a4.5,4.5,0,0,1-1.85-.09l-1.82-.29-3.63-.62c-2.42-.44-4.83-.87-7.24-1.44s-4.77-1.31-7.11-2l-3.5-1.13a20.39,20.39,0,0,1-3.41-1.39.64.64,0,0,1,.4-1.19,23.07,23.07,0,0,1,3.56.9l3.49,1.08c2.33.7,4.68,1.4,7,1.94s4.75,1,7.14,1.47l3.6.65,1.8.31a4.57,4.57,0,0,1,1.77.5h0a.75.75,0,0,1-.22,1.35Z"/><path class="cls-1" d="M695.33,455.19s-2.87,4.72.72,5.58,1.58-5.19,1.58-5.19Z"/><rect class="cls-1" x="686.37" y="421.06" width="11.03" height="11.03" rx="2.17" ry="2.17" transform="translate(671.98 1239.15) rotate(-120.25)"/><line class="cls-1" x1="693.73" y1="425.37" x2="692.9" y2="428.53"/><line class="cls-1" x1="690.88" y1="424.62" x2="690.05" y2="427.78"/><path class="cls-2" d="M700.59,413.63c-5.54-3.33-13-3.37-18.16-1.77a23.28,23.28,0,0,0-13.85,12"/><path class="cls-3" d="M700.31,414.09a22.46,22.46,0,0,0-8.7-2.29,24.66,24.66,0,0,0-8.93,1,21.9,21.9,0,0,0-7.84,4.31,26.21,26.21,0,0,0-5.73,7,.6.6,0,0,1-1.07-.54,23.65,23.65,0,0,1,5.67-7.76,22.86,22.86,0,0,1,8.41-4.81,25.52,25.52,0,0,1,9.63-.93,19.45,19.45,0,0,1,9.11,3.12.54.54,0,0,1-.55.92Z"/><path class="cls-6" d="M695.59,403.38c.48-1.2,1.11-2.73,1.75-4.17,1.43-3.21,4-4.66,6.95-3.89s4.41,3,4.17,6.55c-.13,1.82-.34,3.49-.53,4.76a29,29,0,0,1,14.63,33l-8.24,31.29a13.52,13.52,0,0,1-15,9.94,150.38,150.38,0,0,1-16.63-3.34,153.91,153.91,0,0,1-16.16-5.21,13.48,13.48,0,0,1-8.16-16l8.26-31.37A29,29,0,0,1,695.59,403.38Z"/><path class="cls-1" d="M887.82,445.28c4.2-9.17,16.42-14.93,24.64-7.13S915,454.09,904.24,457,884.86,451.74,887.82,445.28Z"/><path class="cls-1" d="M889.93,451.14c14-3.54,21.1,9.56,17.27,16.25s-18.43,10.92-25.52,1.82S881.78,453.2,889.93,451.14Z"/><path class="cls-1" d="M861.39,441.62c9.08,4.34,12.06,11.55,6.63,17.28s-20.92,1.27-20.14-10.89C848.37,440.36,855.74,438.92,861.39,441.62Z"/><path class="cls-2" d="M887.9,427.09a66.52,66.52,0,0,0-4.83,5.91s1.68,1.34,4.4,6.75A60.37,60.37,0,0,1,890.78,450a12.65,12.65,0,0,0,2.87,5.81s-.8,3.93-7.51,2a24.56,24.56,0,0,0-6.67-22.08c-3.07,5.17-13.36,8.26-15.89,14,0,0-5.22.07-4.4-5.41,0,0,1.19.05,3.59-1.68a86.59,86.59,0,0,1,8.81-5.91c4.53-2.62,4.93-4,7.21-5.78,0,0,4.85-5.92,7.52-9.26A25.76,25.76,0,0,0,891,411.3a5.37,5.37,0,0,1,4-.42,3.45,3.45,0,0,1,2.23,3.75c-1.33,3.18-7.29,10.91-7.29,10.91,3.48,2.81,5.54,8.53,6.8,11.61s3.1,3.44,3.1,3.44a4,4,0,0,1-5,3.67s-2.72-12.71-8.53-15.31"/><path class="cls-3" d="M888.19,427.43l-1,1.55c-.35.52-.71,1-1.09,1.55-.74,1-1.5,2-2.33,3h0l-.16-1.21a9.38,9.38,0,0,1,1.2,1.33c.34.44.66.89,1,1.35.6.91,1.14,1.85,1.66,2.79l.75,1.43c.25.49.48,1,.68,1.52.41,1,.76,2,1.09,3.05.65,2,1.23,4.11,1.73,6.18a14.32,14.32,0,0,0,1,2.81,10.33,10.33,0,0,0,1.57,2.4l.06.06a.8.8,0,0,1,.19.74,3.67,3.67,0,0,1-.62,1.31,4.44,4.44,0,0,1-1,1,5.22,5.22,0,0,1-2.4.89,9,9,0,0,1-1.21.08c-.39,0-.79,0-1.17-.1a18,18,0,0,1-2.24-.48.86.86,0,0,1-.62-1v-.06a22.1,22.1,0,0,0,.41-5.7,23.05,23.05,0,0,0-1-5.69,22,22,0,0,0-2.34-5.27,25.82,25.82,0,0,0-3.53-4.58l1.38-.17a15.29,15.29,0,0,1-4,4c-1.47,1.1-3,2.06-4.47,3a46.09,46.09,0,0,0-4.27,3,11.28,11.28,0,0,0-3.15,3.76l0,0a.83.83,0,0,1-.78.48,6.61,6.61,0,0,1-2.31-.46,4.86,4.86,0,0,1-2-1.42,4.63,4.63,0,0,1-1-2.24,7.45,7.45,0,0,1-.09-1.17c0-.38.06-.75.09-1.13l.91-.75c-.06,0,.09,0,.16,0l.28-.07a5.44,5.44,0,0,0,.6-.23,10,10,0,0,0,1.2-.65c.77-.49,1.58-1.12,2.39-1.69,1.61-1.18,3.27-2.35,5-3.41s3.49-2,5-3.13a19,19,0,0,0,2.16-1.87,27.15,27.15,0,0,1,2.25-2.09l-.13.13,7.37-9.07a21.69,21.69,0,0,0,2.92-4.79,25.54,25.54,0,0,0,1.76-5.33v-.06a.81.81,0,0,1,.42-.56,6.63,6.63,0,0,1,2.46-.73,5.24,5.24,0,0,1,2.6.39,3.93,3.93,0,0,1,2,1.9,4.92,4.92,0,0,1,.43,2.67.64.64,0,0,1,0,.19v0a22.82,22.82,0,0,1-1.66,3q-.89,1.41-1.84,2.77c-1.26,1.81-2.56,3.58-3.9,5.34l-.14-1.22a15.49,15.49,0,0,1,3.16,3.69,32.9,32.9,0,0,1,2.2,4.17c.64,1.41,1.2,2.88,1.77,4.25a7.09,7.09,0,0,0,1,1.74,4.41,4.41,0,0,0,.68.65,2.8,2.8,0,0,0,.37.24,2.15,2.15,0,0,0,.29.13l.71.91a5.78,5.78,0,0,1-.57,2,4.4,4.4,0,0,1-3.41,2.47,6.9,6.9,0,0,1-1,.07c-.34,0-.66-.06-1-.09a.81.81,0,0,1-.71-.62v-.06c-.32-1.41-.74-2.84-1.2-4.23a37.1,37.1,0,0,0-1.63-4.08,20,20,0,0,0-2.18-3.72,8.46,8.46,0,0,0-3-2.66h0a.88.88,0,0,1,.74-1.6h0a10.13,10.13,0,0,1,3.7,3.2,21.7,21.7,0,0,1,2.37,4,38.85,38.85,0,0,1,1.7,4.28c.48,1.46.91,2.9,1.25,4.42l-.72-.68.77.07a5.22,5.22,0,0,0,.73,0,2.65,2.65,0,0,0,2.09-1.51,4.16,4.16,0,0,0,.39-1.35l.71.91a3.1,3.1,0,0,1-.77-.3,4.57,4.57,0,0,1-.6-.38,6.17,6.17,0,0,1-1-.93,8.83,8.83,0,0,1-1.31-2.18c-.61-1.46-1.14-2.85-1.76-4.23a31.19,31.19,0,0,0-2.08-3.95,13.78,13.78,0,0,0-2.78-3.27h0a.89.89,0,0,1-.14-1.22c1.32-1.72,2.61-3.49,3.85-5.27q.93-1.34,1.8-2.7a21.44,21.44,0,0,0,1.52-2.74l-.06.21a3.26,3.26,0,0,0-.27-1.64,2.15,2.15,0,0,0-1.14-1.05,3.48,3.48,0,0,0-1.73-.25,5,5,0,0,0-1.75.51l.43-.61a27.12,27.12,0,0,1-1.88,5.75,23.46,23.46,0,0,1-3.15,5.17l-7.38,9.08-.13.13a25.45,25.45,0,0,0-2.12,2,20.86,20.86,0,0,1-2.35,2,28.57,28.57,0,0,1-2.58,1.68c-.87.51-1.71,1-2.54,1.52-1.67,1-3.27,2.17-4.88,3.34-.81.58-1.58,1.18-2.49,1.76a11.78,11.78,0,0,1-1.43.77,7.18,7.18,0,0,1-.8.3l-.44.11a2.66,2.66,0,0,1-.58.06l.91-.75-.07.89a5.8,5.8,0,0,0,.07.85,2.87,2.87,0,0,0,.62,1.42,3.09,3.09,0,0,0,1.28.9,5,5,0,0,0,1.63.34l-.79.52a12.93,12.93,0,0,1,3.63-4.39,47.57,47.57,0,0,1,4.43-3.16c1.5-1,3-1.92,4.38-3a13.69,13.69,0,0,0,3.5-3.53l0,0a.86.86,0,0,1,1.18-.28.88.88,0,0,1,.18.15,27.55,27.55,0,0,1,3.78,4.91,23.75,23.75,0,0,1,2.51,5.67,24.81,24.81,0,0,1,1.06,6.11A23.62,23.62,0,0,1,887,458l-.61-1.06a16.31,16.31,0,0,0,2,.42c.33,0,.65.05,1,.08a7.3,7.3,0,0,0,.94-.06,3.48,3.48,0,0,0,1.62-.58,2.68,2.68,0,0,0,.56-.56,2.21,2.21,0,0,0,.32-.62l.24.8a11.76,11.76,0,0,1-1.92-2.88,16.08,16.08,0,0,1-1.14-3.16c-.49-2.05-1.05-4.06-1.69-6.06-.32-1-.66-2-1-2.93-.19-.48-.39-.93-.62-1.38l-.73-1.38c-.5-.91-1-1.81-1.58-2.67-.28-.43-.57-.85-.88-1.24a8.8,8.8,0,0,0-.91-1,.94.94,0,0,1-.17-1.19v0h0a27.87,27.87,0,0,1,2.32-3.07c.42-.49.85-1,1.33-1.42a8.54,8.54,0,0,1,1.6-1.24.46.46,0,0,1,.62.65Z"/><path class="cls-6" d="M911.26,434.81a13.77,13.77,0,0,0-12.39-3.62,17.09,17.09,0,0,0-3.81,1.24c-1.24-3-3-7.13-5.73-9.7,1.48-2,5.76-7.72,6.9-10.45a.87.87,0,0,0,.06-.21,4.27,4.27,0,0,0-2.83-4.72,6.26,6.26,0,0,0-4.68.49.88.88,0,0,0-.43.61,25,25,0,0,1-4.53,9.94c-2.48,3.1-6.9,8.5-7.46,9.18a22.58,22.58,0,0,0-1.85,1.71,21.33,21.33,0,0,1-5.18,3.94,75.89,75.89,0,0,0-7.68,5.08l-.55.4c-.37-.2-.74-.39-1.13-.57-3.69-1.76-7.79-1.79-10.71-.08-1.71,1-3.8,3.07-4.06,7.21-.36,5.73,2.71,10.59,8.22,13a15.45,15.45,0,0,0,6.13,1.32,10,10,0,0,0,7.32-2.76,9.41,9.41,0,0,0,2.81-8.35,11.37,11.37,0,0,0-3-5.62c1.23-.93,2.59-1.82,3.94-2.69,2.7-1.75,5.49-3.56,7.18-5.73A23.56,23.56,0,0,1,883.87,449c-3.6,1.73-6.25,4.34-7.27,7.3-.8,2.34-1,6.09,2.58,10.71a14.62,14.62,0,0,0,11.91,5.57q.67,0,1.35,0c5.8-.41,11.44-3.47,13.71-7.44,1.76-3.07,1.47-7.3-.63-10.95,5.16-2,8.7-5.25,9.66-9C915.8,442.73,915.62,439,911.26,434.81Zm-23.94,3.89a21.88,21.88,0,0,0-.87-2.05,30.48,30.48,0,0,0-4-6.43c.6-.81,1.47-2,2.25-2.89,2.48,1.45,4.34,5,5.59,8.21A20.5,20.5,0,0,0,887.32,438.7Z"/><path class="cls-1" d="M517.2,408.66a89.29,89.29,0,0,1,16.55,29.92c4.78,14.54-3.4,24.09-11.37,27.88a61.06,61.06,0,0,1-23.79,6c-8.81.42-21-4.55-23.19-19.21a115,115,0,0,1,.3-35.27"/><path class="cls-1" d="M500.17,421.34c11.38-2.93,19-8.66,17-12.79s-12.77-5.09-24.09-2.18-18.94,8.62-17,12.75S488.79,424.26,500.17,421.34Z"/><path class="cls-2" d="M490.62,465.91c3.17-3.6,11.72-8,23-9.84"/><path class="cls-3" d="M490.3,465.62a17.15,17.15,0,0,1,2.32-2.31,29.62,29.62,0,0,1,2.65-1.87,39.74,39.74,0,0,1,5.76-2.92,41.7,41.7,0,0,1,6.12-2,30.42,30.42,0,0,1,6.35-1,.56.56,0,0,1,.18,1.1h0c-2,.61-4,1.1-6.06,1.64-1,.29-2,.6-3,.92s-2,.64-2.95,1a46.85,46.85,0,0,0-5.69,2.52,22.06,22.06,0,0,0-5.07,3.48h0a.43.43,0,0,1-.63-.58Z"/><path class="cls-1" d="M533.16,437.83c0,2.8-13.2,5.06-29.47,5.06s-29.47-2.27-29.47-5.06,13.2-5.06,29.47-5.06c3.48,0,6.82.1,9.92.29a92.78,92.78,0,0,1,13,1.58C530.7,435.52,533.16,436.62,533.16,437.83Z"/><path class="cls-3" d="M483.66,459.23a1.35,1.35,0,0,0,0-2.7,1.35,1.35,0,0,0,0,2.7Z"/><path class="cls-3" d="M487.62,455.53a1.35,1.35,0,0,0,0-2.7,1.35,1.35,0,0,0,0,2.7Z"/><path class="cls-3" d="M481.95,451.6a1.35,1.35,0,0,0,0-2.7,1.35,1.35,0,0,0,0,2.7Z"/><path class="cls-3" d="M489.2,448.28a1.35,1.35,0,0,0,0-2.7,1.35,1.35,0,0,0,0,2.7Z"/><path class="cls-2" d="M508.26,436.12s12.36.16,16.41,1.71c.73.28-4.91.75-4.91.75"/><path class="cls-3" d="M508.26,435.74a71.19,71.19,0,0,1,10.91.16,24.41,24.41,0,0,1,5.5,1l.17.06.09,0a1.19,1.19,0,0,1,.3.17.86.86,0,0,1,.12.12.9.9,0,0,1,.14.24.82.82,0,0,1,0,.49.92.92,0,0,1-.2.4.61.61,0,0,1-.14.13l-.18.11-.09,0a1.91,1.91,0,0,1-.26.08,6.21,6.21,0,0,1-.75.12c-.47,0-.93.08-1.39.09a24.3,24.3,0,0,1-2.74,0,.39.39,0,0,1-.36-.42.4.4,0,0,1,.3-.35c.88-.23,1.77-.41,2.65-.58l1.3-.26c.21,0,.42-.09.58-.14l.06,0h0l-.11.06-.11.1a.76.76,0,0,0-.18.36.85.85,0,0,0,0,.45.77.77,0,0,0,.13.22,1,1,0,0,0,.11.11c.08.08.23.12.15.1l-.07,0-.15,0a33.82,33.82,0,0,0-5.13-.94c-1.77-.22-3.56-.4-5.35-.57l-5.38-.53a.38.38,0,0,1-.35-.41A.39.39,0,0,1,508.26,435.74Z"/><path class="cls-6" d="M531.89,441a90.58,90.58,0,0,0-16.62-30.11l0,0c-2.19-4.54-13.22-5.7-25.1-2.65-10.55,2.71-17.83,7.66-18,12.14a.83.83,0,0,0,0,.14,109.61,109.61,0,0,0-1.51,19.94.89.89,0,0,0,0,.1,1,1,0,0,0,0,.12,114.28,114.28,0,0,0,1.2,15.41c2.06,13.87,13.13,20,23,20l1.13,0a50.91,50.91,0,0,0,11.92-1.69l.9-.23a50.9,50.9,0,0,0,11.3-4.14C528.58,465.91,536.78,455.9,531.89,441Z"/><path class="cls-2" d="M108.35,641.56,107,644a6.82,6.82,0,0,1-3.38-1.19,7.86,7.86,0,0,1-2.73-2.32l1.42-2.48"/><path class="cls-3" d="M108.92,641.88c.08.58-.26.93-.5,1.33l-.7,1.22,0,0a.81.81,0,0,1-.68.41,3.16,3.16,0,0,1-.65,0l-.52-.11a8,8,0,0,1-1-.31,12.71,12.71,0,0,1-1.75-.84,12,12,0,0,1-1.61-1.1,7.17,7.17,0,0,1-1.44-1.52.81.81,0,0,1,0-.86l0,0,1.42-2.48a.88.88,0,1,1,1.53.88l-1.42,2.48V640a5.92,5.92,0,0,0,1.05,1.08A10.3,10.3,0,0,0,104,642a10.92,10.92,0,0,0,1.5.73,6.32,6.32,0,0,0,.76.24l.36.07.25,0-.7.44.7-1.22c.23-.41.35-.88.9-1.1a.82.82,0,0,1,1.07.44A.86.86,0,0,1,108.92,641.88Z"/><path class="cls-13" d="M106.56,641h0Z"/><circle class="cls-1" cx="127.46" cy="601.12" r="10.61" transform="translate(-457.54 413.08) rotate(-60.21)"/><path class="cls-2" d="M115.52,618c.5.32,1.06.67,1.68,1,4.91,2.81,6.14,2.24,6.14,2.24l3.46-5.11.18-4.09a11.61,11.61,0,0,1-4.82-1.7,12.71,12.71,0,0,1-4.16-3.62l-3.38,3-2.46,5.17-11,22.11s.65,1.64,3.8,3.45a9.69,9.69,0,0,0,4.89,1.53l13.49-20.68"/><path class="cls-3" d="M115.88,617.46c.65.29,1.27.61,1.9.93s1.26.63,1.88.92,1.26.55,1.88.77c.31.11.62.2.92.26a3,3,0,0,0,.41.07h.21l-.1,0h0l-.36.3,3.46-5.11-.15.45.18-4.09.85.92a10.46,10.46,0,0,1-2.87-.7,16.45,16.45,0,0,1-2.54-1.23,15.59,15.59,0,0,1-2.3-1.65,11.86,11.86,0,0,1-2-2.15l1.32.19-3.38,3,.21-.28c-1.1,2.28-2.15,4.6-3.3,6.86l-3.39,6.81-6.78,13.62,0-.71a3,3,0,0,0,.23.37,5.41,5.41,0,0,0,.35.43,8,8,0,0,0,.84.81,13.24,13.24,0,0,0,2,1.38,12.54,12.54,0,0,0,2.2,1,7.52,7.52,0,0,0,2.21.42l-.68.4,13.49-20.68a.88.88,0,1,1,1.47,1l-13.49,20.68,0,0a.8.8,0,0,1-.66.36,8.84,8.84,0,0,1-2.87-.51,14.27,14.27,0,0,1-2.52-1.14,14.93,14.93,0,0,1-2.26-1.57,9.68,9.68,0,0,1-1-1,7.14,7.14,0,0,1-.46-.58,3.93,3.93,0,0,1-.43-.74.8.8,0,0,1,0-.68l0,0L107.15,623l3.39-6.81c1.15-2.26,2.19-4.56,3.3-6.84h0A.9.9,0,0,1,114,609l3.38-3a.88.88,0,0,1,1.24.08l.06.07,0,0A10.43,10.43,0,0,0,120.4,608a13.81,13.81,0,0,0,2,1.47,14.71,14.71,0,0,0,2.27,1.1,9.15,9.15,0,0,0,2.31.59h0a.88.88,0,0,1,.8.92l-.18,4.09a.89.89,0,0,1-.15.45l-3.46,5.11h0a.84.84,0,0,1-.35.3h0a1.46,1.46,0,0,1-.36.1l-.22,0h-.37a4.74,4.74,0,0,1-.65-.08,7.53,7.53,0,0,1-1.16-.31,14.57,14.57,0,0,1-2.08-.89,20.43,20.43,0,0,1-3.7-2.37.65.65,0,0,1,.67-1.11Z"/><path class="cls-1" d="M117.59,595.46s1.77,3.14,9,7.26c6.79,3.89,10.79,4.05,10.79,4.05"/><path class="cls-3" d="M123.75,597.07a1,1,0,0,0,0-2,1,1,0,0,0,0,2Z"/><path class="cls-3" d="M127.47,595.51a1,1,0,0,0,0-2,1,1,0,0,0,0,2Z"/><path class="cls-3" d="M127.16,599.28a1,1,0,0,0,0-2,1,1,0,0,0,0,2Z"/><path class="cls-6" d="M140.33,609.06a.87.87,0,0,0-.39-.75,11.48,11.48,0,0,0-19.87-11.38.86.86,0,0,0-.8,0,.88.88,0,0,0-.33,1.2s.09.15.24.36a11.49,11.49,0,0,0,.15,10l-3.16,2.76a.9.9,0,0,0-.21.28h0c-1.1,2.28-2.15,4.58-3.3,6.84l-3.39,6.81-6.78,13.61,0,0a.8.8,0,0,0,0,.68,3.93,3.93,0,0,0,.43.74c.08.12.18.22.27.33l-1,1.68,0,0a.81.81,0,0,0,0,.86,7.17,7.17,0,0,0,1.44,1.52,12.05,12.05,0,0,0,1.61,1.1,12.65,12.65,0,0,0,1.75.84,8,8,0,0,0,1,.31l.52.11a3.15,3.15,0,0,0,.65,0,.82.82,0,0,0,.68-.41l0,0,.7-1.22c.09-.16.2-.31.29-.47a6.17,6.17,0,0,0,1.19.09.82.82,0,0,0,.67-.37l0,0L126.2,624l3.45-5.1a.89.89,0,0,0,.15-.45l.16-3.62a11.49,11.49,0,0,0,9.08-5l.37,0A.88.88,0,0,0,140.33,609.06Z"/><path class="cls-1" d="M288.68,616.06l-15.62,20.52-2.31-2.45-.41,6s4.17,3.83,18.42,12.92c11,7,18.56,10.91,18.56,10.91l6-10.15,10.19-17.33Z"/><path class="cls-1" d="M319.1,623.25c-2.37-2.68-3.11-7.18-.67-9.81,5-5.38,12.33-12.27,14.46-16.75a24.56,24.56,0,0,0,1.7-6c.5-2.91-2.57-10-5.11-11.46l-1.36,1.58c-2.48-1.46-2.5,1.31-4.78,3.06a18.26,18.26,0,0,0-4.15,4.1c-2.74,4.27-5.58,14.15-7.9,21.27a7,7,0,0,1-8.13,4.67l-7.69-2a5.42,5.42,0,0,0-5.84,2.55l-.95,1.61,34.78,20.45.95-1.61c1.19-2-.38-8.2-1.93-10Z"/><polygon class="cls-1" points="320.85 640.95 319.11 636.8 286.06 620.5 288.68 616.06 321.72 632.36 323.46 636.51 320.85 640.95"/><path class="cls-1" d="M317.37,619.1c-2.37-2.68-3.11-7.18-.67-9.81,5-5.38,12.33-12.27,14.46-16.75a24.56,24.56,0,0,0,1.7-6,7.08,7.08,0,0,0-3.38-7.31h0a7.07,7.07,0,0,0-7.88.49,18.26,18.26,0,0,0-4.15,4.1c-2.74,4.27-5.58,14.15-7.9,21.27-1.11,3.42-5.4,5-8.91,4.21l-6.92-1.52a5.42,5.42,0,0,0-5.84,2.55l-.95,1.61,34.78,20.45.95-1.61a5.42,5.42,0,0,0-.61-6.34Z"/><path class="cls-1" d="M305.57,659.83s-8.69-5.34-18.53-12.26c-10.3-7.24-13.59-10.23-16.3-13.44A57.38,57.38,0,0,0,282,620.25l4.9-8.34,34.78,20.45-10.19,17.33Z"/><rect class="cls-1" x="282.85" y="621.78" width="40.35" height="5.15" transform="translate(358.22 -67.45) rotate(30.45)"/><line class="cls-1" x1="305.57" y1="659.83" x2="307.31" y2="663.99"/><path class="cls-3" d="M283.7,629.77a21.93,21.93,0,0,1-3.53,5.2,26.32,26.32,0,0,1-2.25,2.21,19.45,19.45,0,0,1-2.57,1.9h0l.4-.87a30.55,30.55,0,0,0,.74,3.48,15.4,15.4,0,0,0,.55,1.65,6.24,6.24,0,0,0,.74,1.41h0a.88.88,0,1,1-1.4,1.07h0a7.85,7.85,0,0,1-1-1.83,17.18,17.18,0,0,1-.61-1.83,32.24,32.24,0,0,1-.79-3.7.86.86,0,0,1,.34-.82l.06,0h0c.75-.56,1.56-1.19,2.3-1.82s1.5-1.3,2.2-2,1.39-1.42,2-2.17,1.26-1.54,1.87-2.34h0a.51.51,0,0,1,.86.53Z"/><path class="cls-2" d="M279.12,641.81a55.19,55.19,0,0,0,12-14.33"/><path class="cls-3" d="M278.58,641.11c1.13-1,2.26-2,3.34-3.13s2.14-2.22,3.13-3.4,2-2.37,2.9-3.61,1.81-2.51,2.68-3.79h0a.59.59,0,0,1,1,.62,47.09,47.09,0,0,1-2.43,4.09c-.87,1.33-1.83,2.6-2.82,3.84s-2.06,2.42-3.17,3.56a36.49,36.49,0,0,1-3.56,3.23.88.88,0,0,1-1.11-1.36Z"/><path class="cls-3" d="M299.18,644a28.16,28.16,0,0,1-2.86,4.15,31.09,31.09,0,0,1-3.43,3.66h0l.12-1.15,4.66,6.7a.88.88,0,0,1-1.44,1l-4.66-6.7a.88.88,0,0,1,.11-1.13h0c1.12-1.13,2.26-2.3,3.36-3.47a38.22,38.22,0,0,0,3.06-3.72h0a.63.63,0,0,1,1.07.67Z"/><path class="cls-1" d="M279.75,642.18A8.44,8.44,0,0,0,282,648.7"/><path class="cls-6" d="M325.64,629l0,0a6.27,6.27,0,0,0-.39-.52l-4.69-5.31-.18-.22a5.3,5.3,0,0,1,1.23-4.26c1.17-1.26,2.47-2.6,3.8-4,4.49-4.64,9.12-9.44,10.81-13a24.85,24.85,0,0,0,1.77-6.26c.32-1.88-.59-5.05-2-7.75a7.93,7.93,0,0,0-12.45-4.07,18.57,18.57,0,0,0-4.35,4.32c-2.32,3.62-4.67,11-6.74,17.53-.43,1.37-.85,2.69-1.26,3.94-1,3-4.86,4.29-7.88,3.63l-6.92-1.52a6.29,6.29,0,0,0-6.78,3l-.95,1.61-2.61,4.44-2.29,3.9a57.09,57.09,0,0,1-11.1,13.66l0,0a.86.86,0,0,0-.16.19l0,.08a.87.87,0,0,0-.08.27v0h0l-.41,6a.88.88,0,0,0,.28.71c.17.16,4.39,4,18.54,13,3.65,2.33,6.93,4.32,9.69,5.94,5.48,3.22,8.88,5,8.93,5a.87.87,0,0,0,.33.09h0a.87.87,0,0,0,.33-.05h0l.09-.06a.7.7,0,0,0,.26-.23.85.85,0,0,0,.07-.08l13.54-23,2.61-4.44.95-1.61C329.12,637.5,327.41,631,325.64,629Z"/><path class="cls-14" d="M504.11,646.49c-4.38-4.55-28-12.19-36.54-10.24,0,0,8.26-41.27,35.29-39,21.7,1.83,29.54,37.14,29.54,37.14C525.53,634.41,509.71,639.7,504.11,646.49Z"/><path class="cls-14" d="M529.51,624.94S514.39,621,506.85,631c-3.09-7.35-17.65-21.68-17.65-21.68A125.44,125.44,0,0,0,471,624.86"/><path class="cls-3" d="M504.2,600.81a14,14,0,0,1,1,1.2c.27.43.55.87.79,1.32s.43.92.63,1.38l.47,1.43a32.25,32.25,0,0,1,1.13,5.82,72.69,72.69,0,0,1,.28,11.72,112.46,112.46,0,0,1-1.24,11.6c-.57,3.85-1.4,7.64-2.24,11.42a.93.93,0,0,1-1.82-.39v0c.79-3.76,1.53-7.52,2.08-11.31a114.69,114.69,0,0,0,1.21-11.4,70.79,70.79,0,0,0-.16-11.4,38.73,38.73,0,0,0-1-5.54,16.84,16.84,0,0,0-2-5l0-.06a.59.59,0,0,1,.93-.71Z"/><path class="cls-14" d="M505.43,597.61c-7.76,1.58-14.84,7.23-16.23,11.7"/><path class="cls-2" d="M497.77,625.28a20.36,20.36,0,0,0-.41,7c-5.51-1.83-14.71-4.37-20.19-4.25a23.61,23.61,0,0,1,.4-5"/><path class="cls-3" d="M498.32,625.42c-.07,1.12-.15,2.28-.16,3.4,0,.56,0,1.12,0,1.67s.05,1.1.07,1.64h0v.06a.9.9,0,0,1-.83,1,.92.92,0,0,1-.35,0c-3.25-1.06-6.56-2-9.89-2.77-1.66-.38-3.34-.72-5-1a30.54,30.54,0,0,0-5-.4h-.06a.93.93,0,0,1-.93-.94h0a16.62,16.62,0,0,1,.25-2.6,10.31,10.31,0,0,1,.74-2.55.39.39,0,0,1,.73.17v0c0,.81,0,1.63.06,2.46l.14,2.45-1-.94h0a32.33,32.33,0,0,1,5.32.46c1.74.27,3.45.63,5.14,1,3.39.8,6.73,1.77,10,2.87l-1.17,1h0a9.76,9.76,0,0,1-.22-1.86,13.81,13.81,0,0,1,.1-1.84,14.51,14.51,0,0,1,.87-3.56.57.57,0,0,1,1.11.25Z"/><path class="cls-2" d="M492.29,617.7a27.25,27.25,0,0,0-6.6-1"/><path class="cls-3" d="M492.12,618.39c-1.12-.11-2.18-.29-3.24-.43s-2.12-.27-3.21-.51h0a.73.73,0,0,1,.05-1.44,13.25,13.25,0,0,1,6.76,1,.72.72,0,0,1-.35,1.38Z"/><path class="cls-6" d="M535.85,636.93c-.39-1.65-.86-3.23-1.36-4.83-.25-.79-.51-1.58-.79-2.37l-.42-1.18c-.09-.25-.08-.23-.17-.3a3.11,3.11,0,0,1-.34-.2h0a.65.65,0,0,1-.34.26l-.16-.42.11-.91.46.41a66.18,66.18,0,0,0-8.93-16.89,34.67,34.67,0,0,0-6.8-6.87,23.19,23.19,0,0,0-8.51-4,.83.83,0,0,0-.52-.12,24.49,24.49,0,0,0-12.14.7,27.53,27.53,0,0,0-10.45,6.46,45.33,45.33,0,0,0-7.45,9.66,73.09,73.09,0,0,0-5.21,10.95h0q-1.06,2.81-1.94,5.69-.44,1.44-.82,2.89c-.26,1-.5,1.94-.71,2.95a.94.94,0,0,0,0,.34.92.92,0,0,0,1.06.75h.06a18.67,18.67,0,0,1,4.55-.23c.78,0,1.56.09,2.34.2s1.57.18,2.35.33a78.59,78.59,0,0,1,9.3,2.14,94.3,94.3,0,0,1,9,3.1l2.19.93c.71.34,1.44.66,2.13,1s1.41.71,2,1.15c.31.21.66.4.94.63l.82.69.07.06a.9.9,0,0,0,1.26-.11,23.65,23.65,0,0,1,5.84-4.74,48.9,48.9,0,0,1,6.91-3.43,61.93,61.93,0,0,1,7.33-2.48,33.75,33.75,0,0,1,7.53-1.26h0l.15,0A.75.75,0,0,0,535.85,636.93Zm-62.34-8.84,0,.09-.64-.93A.89.89,0,0,1,473,627Z"/><path class="cls-1" d="M711.73,617.84l-8.56-4q-.67-.31-1.32-.68l-8.47-4.83a10,10,0,0,1-2.49-2l-7.73-9.9a2,2,0,0,1-.22-2.25h0c.39-.69,2.73-3.29,3.34-3.42l10.8,3.92a10,10,0,0,1,3.07,1.14l8.9,5.08q.66.37,1.28.8l7.61,5.25a1.39,1.39,0,0,1,.56,1.78l-2.12,5.84C716.06,615.14,712.44,618.17,711.73,617.84Z"/><path class="cls-1" d="M714.56,615,706,611q-.67-.31-1.32-.68l-8.47-4.83a10,10,0,0,1-2.49-2L686,593.6a2,2,0,0,1-.22-2.25h0a2,2,0,0,1,2-1l12.12,1.46A10,10,0,0,1,703,593l8.9,5.08q.66.37,1.28.8l7.61,5.25a1.39,1.39,0,0,1,.56,1.78l-5,8.68A1.39,1.39,0,0,1,714.56,615Z"/><path class="cls-1" d="M681.23,646.09s-1.75,1.68-4.69,0a4.29,4.29,0,0,1-2.39-4l9.53-16.7c.63-1.1,2.06-2.88,3.19-4.87,1.8-3.16,3.34-6.58,3.34-6.58l3.82-6.69a6.47,6.47,0,0,1,4.68.66,4.22,4.22,0,0,1,2.4,3.38l-3.82,6.69s-2.2,3-4,6.2c-1.13,2-1.89,4.14-2.52,5.25Z"/><path class="cls-12" d="M674.15,642.05s1.53-1.78,4.68,0,2.4,4,2.4,4"/><path class="cls-6" d="M722.17,607.89l-7.61-5.25c-.43-.3-.88-.58-1.34-.84l-8.9-5.08a10.81,10.81,0,0,0-3.4-1.25L688.8,594a3,3,0,0,0-2.05.49c-1.19.56-3.39,3.26-3.68,3.75a2.9,2.9,0,0,0,.29,3.23l7.77,9.94a10.74,10.74,0,0,0,2,1.72L690.3,618s-1.54,3.41-3.3,6.5c-.63,1.1-1.35,2.14-2,3-.49.7-.91,1.31-1.2,1.82l-9.53,16.7s0,.06,0,.09a.85.85,0,0,0-.05.16.83.83,0,0,0,0,.08,5.15,5.15,0,0,0,2.82,4.91,5.94,5.94,0,0,0,3,.87,4.18,4.18,0,0,0,2.78-1l0-.06.07-.09,0,0,9.53-16.7c.29-.51.59-1.19.94-2a35.08,35.08,0,0,1,1.58-3.27c1.76-3.08,3.93-6.09,4-6.12l.05-.08,2.73-4.79.63.36c.45.26.92.5,1.39.71l8.56,4h0a1,1,0,0,0,.43.09c1.4,0,3.89-2.14,4.92-3.19a2,2,0,0,0,.29-.32l.14-.19h0l5-8.68A2.25,2.25,0,0,0,722.17,607.89Z"/><path class="cls-1" d="M905.76,635.06a1.8,1.8,0,0,1,3.52-.76h0"/><rect class="cls-1" x="887.83" y="592.24" width="3.43" height="15.11" transform="translate(-138.46 292.79) rotate(-17.36)"/><rect class="cls-1" x="883.94" y="578.4" width="2.56" height="15.11" transform="translate(-134.53 290.87) rotate(-17.36)"/><circle class="cls-1" cx="882.89" cy="578.54" r="2.64" transform="translate(-132.42 289.84) rotate(-17.36)"/><path class="cls-1" d="M857.45,620.22A10.3,10.3,0,0,0,854,631.36h0a64.41,64.41,0,0,0,2,6.4,69.4,69.4,0,0,0,4.28,7,7.2,7.2,0,0,0,8.13,2.85l3.7-1.16a9.63,9.63,0,0,0,6.48-6.88l.31-1.26a9.63,9.63,0,0,1,6.48-6.88l.67-.21a9.63,9.63,0,0,1,9.7,2.4h0a9.63,9.63,0,0,0,9.7,2.4l4.16-1.3a7.2,7.2,0,0,0,5.06-7,69.4,69.4,0,0,0-.45-8.16,64.41,64.41,0,0,0-2-6.4l-.07-.22a10.29,10.29,0,0,0-8.84-7.18c-3.92-.37-8.48-.68-10.67-.36-7.07,1-19.12,4.88-25.56,8C864.9,614.46,860.82,617.54,857.45,620.22Z"/><polygon class="cls-1" points="906.39 616.34 902.42 617.58 901.18 613.61 896.2 615.17 897.44 619.14 893.47 620.38 895.03 625.36 899 624.12 900.24 628.09 905.22 626.53 903.98 622.56 907.95 621.32 906.39 616.34"/><circle class="cls-1" cx="866.05" cy="625.53" r="2.75" transform="translate(-147.21 286.96) rotate(-17.36)"/><circle class="cls-1" cx="873.41" cy="629.39" r="2.75" transform="translate(-148.03 289.33) rotate(-17.36)"/><circle class="cls-1" cx="869.56" cy="636.74" r="2.75" transform="translate(-150.4 288.51) rotate(-17.36)"/><circle class="cls-1" cx="862.2" cy="632.89" r="2.75" transform="matrix(0.95, -0.3, 0.3, 0.95, -149.58, 286.14)"/><rect class="cls-1" x="875.11" y="614.96" width="4.24" height="5.42" transform="translate(-144.36 289.94) rotate(-17.36)"/><rect class="cls-1" x="879.21" y="613.68" width="4.24" height="5.42" transform="translate(-143.79 291.1) rotate(-17.36)"/><rect class="cls-1" x="883.26" y="612.41" width="4.24" height="5.42" transform="translate(-143.22 292.25) rotate(-17.36)"/><path class="cls-6" d="M907.6,636.55l.24-.07a7.2,7.2,0,0,0,5.06-7,69.39,69.39,0,0,0-.45-8.16,64.44,64.44,0,0,0-2-6.4l-.07-.22a10.29,10.29,0,0,0-8.84-7.18,65.9,65.9,0,0,0-10.26-.41l-4.15-13.27-.42.13L883,582.15a2.64,2.64,0,1,0-2.44.76l3.71,11.86-.42.13,4,12.84a115,115,0,0,0-22.55,7.45c-2.21,1.07-6.29,4.15-9.66,6.83a10.3,10.3,0,0,0-3.42,11.13,64.44,64.44,0,0,0,2,6.4,69.39,69.39,0,0,0,4.28,7,7.2,7.2,0,0,0,8.13,2.85l3.7-1.16a9.63,9.63,0,0,0,6.48-6.88l.31-1.26a9.63,9.63,0,0,1,6.48-6.88l.67-.21a9.63,9.63,0,0,1,9.7,2.4h0a9.63,9.63,0,0,0,9.7,2.4l.48-.15"/><path class="cls-15" d="M288.56,94.54c-1.37-.6-5.32-5.63-2.47-11.76,3.37-7.26,9.4-5.69,11-5.41a13.47,13.47,0,0,1,2.59,1l37.83,15.2-8.88,17.5S297.85,98.64,288.56,94.54Z"/><path class="cls-15" d="M331.4,93.6a5.73,5.73,0,0,1,3.18-.9,5.56,5.56,0,0,1,5.72,5.14c.6,5.76-1.39,10.82-6.19,13-1.19.53-4.36,1.31-6.41-.27a9.64,9.64,0,0,1-2.5-5.17,13.42,13.42,0,0,1,.63-5.88C326.76,96.85,329.77,94.76,331.4,93.6Z"/><path class="cls-2" d="M329.4,102.84c-.27,1.67.2,3.12,1.17,3.7,1.41.83,3.52-.43,4.73-2.05a9.12,9.12,0,0,0,1.13-1.92"/><path class="cls-3" d="M330,102.94a3.9,3.9,0,0,0,.52,2.4,1.35,1.35,0,0,0,1.64.49,5.11,5.11,0,0,0,2.15-1.28,9.47,9.47,0,0,0,1.63-2.2v0a.57.57,0,0,1,1,.46,9,9,0,0,1-1.58,2.78,6.3,6.3,0,0,1-2.76,2,3.07,3.07,0,0,1-2,0,2.91,2.91,0,0,1-1.49-1.38,4.86,4.86,0,0,1-.28-3.39.57.57,0,0,1,1.13.17Z"/><path class="cls-2" d="M333.2,97.16c.81-.15,2.41-.47,2.77,1.42"/><path class="cls-3" d="M333.1,96.6a2.57,2.57,0,0,1,1-.35,2.25,2.25,0,0,1,1.24.12,2,2,0,0,1,1,.93,2,2,0,0,1,.19,1.18.59.59,0,0,1-1,.31l-.08-.09a5.56,5.56,0,0,0-.44-.5,1.44,1.44,0,0,0-.32-.2,6.09,6.09,0,0,0-1.34-.27.61.61,0,0,1-.22-1.11Z"/><path class="cls-15" d="M334.64,91.27c1.33-.67,2.86-6.58.11-11.64-2.07-3.83-7.38-5.05-8-5-1,.14-1.85.64-2.84.83a13.47,13.47,0,0,0-2.58,1L284.67,91.8,292,109.72S325.74,95.74,334.64,91.27Z"/><path class="cls-15" d="M296.48,100.85a13.18,13.18,0,0,1-2.13,7.41,5.23,5.23,0,0,1-3.31,1.65,8.85,8.85,0,0,1-7.69-3.49,13.74,13.74,0,0,1-2.17-10.58,7.58,7.58,0,0,1,4.47-4.6c2.29-.72,4.59.58,6.65,2.23C294,94.83,296.47,97.73,296.48,100.85Z"/><path class="cls-2" d="M291.41,99.07c1,1.82.84,3.91,0,4.84"/><path class="cls-3" d="M292,98.78a4.76,4.76,0,0,1,1,2.69,4.42,4.42,0,0,1-.21,1.51,2.79,2.79,0,0,1-.91,1.36.63.63,0,0,1-1-.7l.05-.15a4.75,4.75,0,0,0,.22-1.93,11.61,11.61,0,0,0-.31-2.19v0a.64.64,0,0,1,1.13-.54Z"/><path class="cls-2" d="M287.34,95.72c-1.7,0-2.6,3-2.18,4.81a8.16,8.16,0,0,0,2.18,4.22"/><path class="cls-3" d="M287.34,96.35c-.46.07-.86.65-1.1,1.36a5.68,5.68,0,0,0-.25,2.22,6.64,6.64,0,0,0,.23,1.13,9.82,9.82,0,0,0,.36,1.17,6.58,6.58,0,0,0,1.19,2v0a.63.63,0,0,1-.86.92,6.73,6.73,0,0,1-1.83-2.31,11.45,11.45,0,0,1-.55-1.33,7.44,7.44,0,0,1-.36-1.46,6.09,6.09,0,0,1,.53-3,4.16,4.16,0,0,1,.92-1.33,2.29,2.29,0,0,1,1.71-.67.63.63,0,0,1,0,1.25Z"/><path class="cls-2" d="M305.33,65a9.8,9.8,0,0,1-1.91-7.05c-8,9.11-10.35,14.5-10.35,19.49,0,11.94,9.32,15.27,19.17,15.27,7.36,0,16.51-3,16.51-15.9,0-8.38-2.82-19.43-16.43-31.45,0,0,5.32,11.72-6.12,19.74A.72.72,0,0,1,305.33,65Z"/><path class="cls-3" d="M304.63,65.5a11.05,11.05,0,0,1-1.79-3.62,8,8,0,0,1-.15-4.05h0l1.29.59c-1.4,1.89-2.93,3.65-4.31,5.53a40.89,40.89,0,0,0-3.7,5.84A17.52,17.52,0,0,0,294,76.19a16.9,16.9,0,0,0,.76,6.62,11.27,11.27,0,0,0,3.73,5.3,16,16,0,0,0,6,2.83,30.39,30.39,0,0,0,6.81.86,23,23,0,0,0,6.75-.73,13.5,13.5,0,0,0,5.78-3.14,12.34,12.34,0,0,0,3.3-5.64,21.35,21.35,0,0,0,.68-6.74,32.75,32.75,0,0,0-.94-6.82A37.49,37.49,0,0,0,321.1,56.3a83.1,83.1,0,0,0-9.21-10.46l1-.75h0a14.29,14.29,0,0,1,1.5,5.92,16,16,0,0,1-2.1,8.91,18.22,18.22,0,0,1-1.8,2.5,19.31,19.31,0,0,1-2.19,2.14c-.38.33-.79.64-1.2.94l-.31.23a1.59,1.59,0,0,1-.65.31,1.7,1.7,0,0,1-.74,0A1.4,1.4,0,0,1,304.63,65.5Zm1.4-1a.37.37,0,0,0-.2-.14h0s-.19.1,0,0l.28-.21c.38-.28.75-.56,1.1-.87a17.53,17.53,0,0,0,2-2,14.39,14.39,0,0,0,3.5-10.18,23.41,23.41,0,0,0-.93-5.46h0a.63.63,0,0,1,.93-.81l.08.06a48.34,48.34,0,0,1,9.79,10.43,39.24,39.24,0,0,1,6.08,13,34.51,34.51,0,0,1,1,7.18,23.08,23.08,0,0,1-.75,7.28,14.1,14.1,0,0,1-3.78,6.42,15.25,15.25,0,0,1-6.52,3.56,24.71,24.71,0,0,1-7.26.79,32.12,32.12,0,0,1-7.2-.91,17.74,17.74,0,0,1-6.68-3.16,13,13,0,0,1-4.3-6.11,18.6,18.6,0,0,1-.85-7.34,19.27,19.27,0,0,1,2.13-7,42.61,42.61,0,0,1,3.86-6.1,47.65,47.65,0,0,1,4.61-5.45l.05-.05a.73.73,0,0,1,1.24.65h0a11.18,11.18,0,0,0,.38,3.36A10.11,10.11,0,0,0,306,64.46Z"/><path class="cls-2" d="M320.16,80.15c3.76-4.67,1.25-11.6-1.86-14.77l-2.91,5"/><path class="cls-3" d="M319.83,79.89a10.52,10.52,0,0,0,1.11-7.22,14,14,0,0,0-1.23-3.55A12.89,12.89,0,0,0,317.63,66l1.49-.19a23.68,23.68,0,0,1-3.39,4.76.41.41,0,0,1-.58,0,.42.42,0,0,1-.1-.38,23.68,23.68,0,0,1,2.44-5.31.92.92,0,0,1,1.45-.23l0,0a13.54,13.54,0,0,1,2.5,3.53,14.65,14.65,0,0,1,1.31,4.1,11.13,11.13,0,0,1-.12,4.35,7.41,7.41,0,0,1-2.18,3.73.43.43,0,0,1-.66-.52Z"/><path class="cls-2" d="M303.68,83.67c-3.19-4.41-.12-7.17,2-10.56l3.06,4.75"/><path class="cls-3" d="M303.38,83.89a5.84,5.84,0,0,1-1.74-2.68,5.58,5.58,0,0,1,.12-3.37A12,12,0,0,1,303.21,75l1.65-2.4,0-.06a.92.92,0,0,1,1.28-.24.94.94,0,0,1,.27.29,26.86,26.86,0,0,1,2.6,5,.41.41,0,0,1-.66.43,26.86,26.86,0,0,1-3.52-4.45l1.59,0a45.32,45.32,0,0,0-2.94,4.85,4.79,4.79,0,0,0-.32,2.41,10.19,10.19,0,0,0,.78,2.59h0a.38.38,0,0,1-.6.42Z"/><path class="cls-6" d="M337.92,99.73a6.41,6.41,0,0,0-5.38-5.82l-.35-.14a5,5,0,0,0,1.2-2.14,14.1,14.1,0,0,0-1.1-10.43,11.26,11.26,0,0,0-6-4.77,34.34,34.34,0,0,0-.93-6.1,39.24,39.24,0,0,0-6.08-13,48.34,48.34,0,0,0-9.79-10.43.66.66,0,0,0-1,.7v0a23.41,23.41,0,0,1,.93,5.46,14.4,14.4,0,0,1-3.5,10.18,17.52,17.52,0,0,1-2,2c-.35.31-.72.6-1.1.87l-.21.16a10.18,10.18,0,0,1-1.35-2.84A11.18,11.18,0,0,1,300.9,60h0a.74.74,0,0,0-1.24-.64l0,0A47.65,47.65,0,0,0,295,64.88a42.59,42.59,0,0,0-3.86,6.1A19.27,19.27,0,0,0,289,78c0,.12,0,.23,0,.35-3,.61-5.37,2.62-6.95,6a10.87,10.87,0,0,0-.51,8.25,8.52,8.52,0,0,0-4.45,5,14.55,14.55,0,0,0,2.3,11.31,9.8,9.8,0,0,0,7.7,3.9,7.13,7.13,0,0,0,.81,0,6.77,6.77,0,0,0,2.4-.77c2.45-1,8.25-3.43,14.87-6.23,10.07,4.13,19.71,8,19.88,8.09h0a6.54,6.54,0,0,0,2.52.47,9.51,9.51,0,0,0,3.65-.75C336.09,111.41,338.59,106.23,337.92,99.73Z"/><path class="cls-14" d="M358,459.75a2.36,2.36,0,0,1,2.52-1.64l1.1-3.54a2.36,2.36,0,0,1,1.38-4.42l1.09-3.5a2.36,2.36,0,0,1,1.4-4.51l1.18-3.8a10.13,10.13,0,0,1-4.68-8.93L290.22,407a10.13,10.13,0,0,1-8.92,4.68l-1.19,3.82a2.35,2.35,0,0,1-1.39,4.46l-1.09,3.5.22,0a2.36,2.36,0,0,1-1.4,4.51l-.21-.09-1.09,3.5.22,0A2.36,2.36,0,0,1,274,436l-.21-.09-1.19,3.82a10.13,10.13,0,0,1,4.68,8.93l71.81,22.38a10.13,10.13,0,0,1,8.93-4.68l1.2-3.84A2.36,2.36,0,0,1,358,459.75Z"/><line class="cls-14" x1="309.3" y1="423.7" x2="291.46" y2="418.14"/><line class="cls-14" x1="295.67" y1="443.24" x2="284.7" y2="439.82"/><line class="cls-14" x1="354.83" y1="437.89" x2="347.31" y2="435.55"/><line class="cls-14" x1="355.16" y1="445.92" x2="345.06" y2="442.78"/><line class="cls-14" x1="352.9" y1="453.15" x2="339.37" y2="448.93"/><line class="cls-14" x1="301.88" y1="429.32" x2="286.63" y2="424.56"/><line class="cls-14" x1="296.19" y1="435.47" x2="284.38" y2="431.79"/><line class="cls-14" x1="332.76" y1="454.8" x2="348.08" y2="459.58"/><path class="cls-6" d="M367.47,446.56a.93.93,0,0,0,1.16-.61l1.18-3.8a.93.93,0,0,0-.39-1.06,9.22,9.22,0,0,1-4.25-8.11.93.93,0,0,0-.65-.92l-71.81-22.38a.93.93,0,0,0-1.06.39,9.22,9.22,0,0,1-8.1,4.25.93.93,0,0,0-.92.65l-1.19,3.82a.93.93,0,0,0,.53,1.13,1.42,1.42,0,0,1-.84,2.7.93.93,0,0,0-1.08.63l-1.09,3.5a.93.93,0,0,0,.7,1.19l.13,0a1.43,1.43,0,1,1-.86,2.72h0l-.1,0a.93.93,0,0,0-1.25.58l-1.09,3.5a.93.93,0,0,0,.09.75,1,1,0,0,0,.61.44l.13,0a1.43,1.43,0,1,1-.86,2.72h0l-.1,0a.94.94,0,0,0-.75,0,.93.93,0,0,0-.5.57L273.9,443a.93.93,0,0,0,.39,1.06,9.22,9.22,0,0,1,4.25,8.1.93.93,0,0,0,.65.92L351,475.46a.93.93,0,0,0,1.06-.39,9.22,9.22,0,0,1,8.11-4.25.93.93,0,0,0,.92-.65l1.2-3.84a.93.93,0,0,0-.45-1.1,1.43,1.43,0,0,1,.83-2.68.93.93,0,0,0,1-.65l1.1-3.54a.93.93,0,0,0-.45-1.1,1.43,1.43,0,0,1,.83-2.68.93.93,0,0,0,1-.65l1.09-3.5a.93.93,0,0,0-.61-1.16,1.43,1.43,0,1,1,.85-2.73Z"/><path class="cls-16" d="M303.1,445.88c11.59,11.9,28.25,11.35,36.27-8.62C320.56,424.66,307.72,432,303.1,445.88Z"/><path class="cls-12" d="M302.18,442.77c11.59,11.9,28.25,11.35,36.27-8.62C319.65,421.55,306.8,428.88,302.18,442.77Z"/><path class="cls-2" d="M302.18,442.77s12.11-9.07,25.63-5.94"/><path class="cls-3" d="M301.65,442.06a35.26,35.26,0,0,1,6-3.48,36.61,36.61,0,0,1,6.53-2.29,28.72,28.72,0,0,1,6.88-.9,25,25,0,0,1,6.87.89.56.56,0,0,1-.2,1.09h0l-1.64-.21-.82-.1-.82,0-1.64-.07-1.64.06a31.72,31.72,0,0,0-6.48,1,40.31,40.31,0,0,0-6.2,2.23,39.63,39.63,0,0,0-5.73,3.19l0,0a.88.88,0,0,1-1-1.44Z"/></svg>