<svg id="Layer_1" data-name="Layer 1" xmlns="http://www.w3.org/2000/svg" viewBox="0 0 600 312.42"><defs><style>.cls-1{font-size:25px;font-family:FilsonSoftHeavy, Filson Soft;letter-spacing:0.03em;}.cls-1,.cls-6{fill:#40aa85;}.cls-2{letter-spacing:0.05em;}.cls-3{letter-spacing:0.04em;}.cls-4{letter-spacing:-0.01em;}.cls-5{fill:#fbb03b;opacity:0.25;}</style></defs><title>casestudy</title><text class="cls-1" transform="translate(18.1 -34.79)">C<tspan class="cls-2" x="18.2" y="0">O</tspan><tspan class="cls-3" x="39.65" y="0">L</tspan><tspan class="cls-2" x="55.6" y="0">OR </tspan><tspan class="cls-4" x="103.02" y="0">P</tspan><tspan class="cls-2" x="119.47" y="0">ALETTE</tspan></text><circle class="cls-5" cx="218.95" cy="154.05" r="116.53"/><path class="cls-6" d="M339.8,53.52A100.53,100.53,0,1,1,239.27,154.05,100.65,100.65,0,0,1,339.8,53.52m0-16A116.53,116.53,0,1,0,456.33,154.05,116.53,116.53,0,0,0,339.8,37.52Z"/><path class="cls-6" d="M78.48,179.16H75.7v5.14a.91.91,0,0,1-1,1H73.54a.91.91,0,0,1-1-1V169.51a.91.91,0,0,1,1-1h6.34A5.15,5.15,0,0,1,85.22,174a4.87,4.87,0,0,1-3.82,5c.17,1.78,1.2,4,2.83,4a2.34,2.34,0,0,0,1.15-.24c.6-.24.94-.14,1.22.43l.17.34c.26.58.22,1.06-.31,1.37a5,5,0,0,1-2.64.7C79.75,185.57,78.65,181.11,78.48,179.16Zm.89-2.4a2.8,2.8,0,0,0,0-5.59H75.7v5.59Z"/><path class="cls-6" d="M88.58,174.84a2,2,0,0,1,2-2,2,2,0,0,1,2.06,2,2,2,0,0,1-2.06,1.92A2,2,0,0,1,88.58,174.84Zm0,8.78a2,2,0,0,1,2-2,2,2,0,1,1,0,3.91A2,2,0,0,1,88.58,183.63Z"/><path class="cls-6" d="M101.49,184.39l0-.24a1.34,1.34,0,0,1,.46-1.32l6.12-5.52c1.3-1.13,2.3-2.28,2.3-3.77,0-1.7-1.25-2.69-3-2.69s-2.57.79-2.86,1.63c-.22.58-.48.89-1.08.89h-1.06c-.67,0-1.1-.38-.94-1.06.38-2,2-4.08,6-4.08,3.62,0,6,2.06,6,5.3,0,2.5-1.51,4.2-3.1,5.57l-4.22,3.67,0,.1c.89-.1,3.38-.12,3.62-.12h3.36a.91.91,0,0,1,1,1v.53a.91.91,0,0,1-1,1H102.6A1,1,0,0,1,101.49,184.39Z"/><path class="cls-6" d="M116.81,184.18a.88.88,0,0,1-.14-1.42l.34-.46a1,1,0,0,1,1.42-.22,8.79,8.79,0,0,0,3.55.84c2.47,0,3.84-1.46,3.84-3.34,0-1.61-1.27-3-3.48-3a6.35,6.35,0,0,0-3,.79,1.4,1.4,0,0,1-1.39.17l-.55-.24a1.11,1.11,0,0,1-.74-1.2l.41-6.6a.94.94,0,0,1,1.06-1h8.52a.91.91,0,0,1,1,1V170a.91.91,0,0,1-1,1h-6.79l-.31,4.27a5.35,5.35,0,0,1,3.58-1.18,5.43,5.43,0,0,1,5.74,5.45c0,3.53-2.47,6-6.84,6A9.7,9.7,0,0,1,116.81,184.18Z"/><path class="cls-6" d="M134.47,184.3V172l-2.69,1.18a.87.87,0,0,1-1.3-.6l-.17-.53a1,1,0,0,1,.58-1.32l4.39-2a3.25,3.25,0,0,1,1.42-.26c.55,0,.86.36.86,1V184.3a.91.91,0,0,1-1,1h-1.08A.91.91,0,0,1,134.47,184.3Z"/><path class="cls-6" d="M71.42,204.93a8.71,8.71,0,0,1,8.9-8.69,9.8,9.8,0,0,1,5.26,1.34.93.93,0,0,1,.29,1.42l-.43.58a.94.94,0,0,1-1.39.34,6.93,6.93,0,0,0-3.72-.89,5.74,5.74,0,0,0-5.69,5.9,5.66,5.66,0,0,0,5.93,5.86A6.72,6.72,0,0,0,84,209.9v-3H80.59a.93.93,0,0,1-1-1v-.41a.91.91,0,0,1,1-1h5.3a.91.91,0,0,1,1,1v4.85a1.59,1.59,0,0,1-.74,1.37,9.42,9.42,0,0,1-5.69,1.85A8.67,8.67,0,0,1,71.42,204.93Z"/><path class="cls-6" d="M89.54,202.84a2,2,0,0,1,2-2,2,2,0,0,1,2.06,2,2,2,0,0,1-2.06,1.92A2,2,0,0,1,89.54,202.84Zm0,8.78a2,2,0,0,1,2-2,2,2,0,1,1,0,3.91A2,2,0,0,1,89.54,211.63Z"/><path class="cls-6" d="M105.89,212.3V200l-2.69,1.18a.87.87,0,0,1-1.3-.6l-.17-.53a1,1,0,0,1,.58-1.32l4.39-2a3.25,3.25,0,0,1,1.42-.26c.55,0,.86.36.86,1V212.3a.91.91,0,0,1-1,1H106.9A.91.91,0,0,1,105.89,212.3Z"/><path class="cls-6" d="M112.92,212.23,120.29,199h-8a.81.81,0,0,1-.89-.89v-.77a.81.81,0,0,1,.89-.89h10.58a.82.82,0,0,1,.89.89v.48a2.17,2.17,0,0,1-.29,1.1l-7.32,13.68a1.1,1.1,0,0,1-1.06.65h-1.54C112.85,213.31,112.56,212.85,112.92,212.23Z"/><path class="cls-6" d="M125.18,205.24c0-4.94,2.5-9,7.46-9a7.33,7.33,0,0,1,4.34,1.3c.55.38.53.94,0,1.44l-.38.38a1,1,0,0,1-1.42.12,4.93,4.93,0,0,0-2.45-.6c-2.69,0-4.56,2.11-4.56,5.62a5.37,5.37,0,0,1,4.49-2.23,5.6,5.6,0,0,1,5.88,5.59c0,3.31-2.54,5.71-6.34,5.71C127.8,213.57,125.18,210.23,125.18,205.24Zm10.34,2.62a3.23,3.23,0,0,0-3.46-3.12,3.14,3.14,0,1,0,0,6.22A3.19,3.19,0,0,0,135.53,207.86Z"/><path class="cls-6" d="M85.46,236.7c0,2.78-2.33,4.61-5.81,4.61h-6.1a.91.91,0,0,1-1-1V225.51a.91.91,0,0,1,1-1h5.35c3.34,0,5.76,1.68,5.76,4.46a3.72,3.72,0,0,1-2.93,3.67A4,4,0,0,1,85.46,236.7ZM75.72,227v4.7H78c2.5,0,3.48-1.22,3.48-2.47,0-1.44-1.22-2.23-2.74-2.23Zm6.58,9.46c0-1.3-1.1-2.57-3.72-2.57H75.72v4.78h3.86C81.22,238.71,82.3,237.8,82.3,236.51Z"/><path class="cls-6" d="M87.86,230.84a2,2,0,0,1,2-2,2,2,0,0,1,2.06,2,2,2,0,0,1-2.06,1.92A2,2,0,0,1,87.86,230.84Zm0,8.78a2,2,0,0,1,2-2,2,2,0,1,1,0,3.91A2,2,0,0,1,87.86,239.63Z"/><path class="cls-6" d="M101.25,240.18a.88.88,0,0,1-.14-1.42l.34-.46a1,1,0,0,1,1.42-.22,8.79,8.79,0,0,0,3.55.84c2.47,0,3.84-1.46,3.84-3.34,0-1.61-1.27-3-3.48-3a6.35,6.35,0,0,0-3,.79,1.4,1.4,0,0,1-1.39.17l-.55-.24a1.11,1.11,0,0,1-.74-1.2l.41-6.6a.94.94,0,0,1,1.06-1h8.52a.91.91,0,0,1,1,1V226a.91.91,0,0,1-1,1H104.3l-.31,4.27a5.35,5.35,0,0,1,3.58-1.18,5.43,5.43,0,0,1,5.74,5.45c0,3.53-2.47,6-6.84,6A9.7,9.7,0,0,1,101.25,240.18Z"/><path class="cls-6" d="M128.52,232.57c0,4.94-2.5,9-7.46,9a7.39,7.39,0,0,1-4.34-1.3c-.53-.38-.5-.94,0-1.44l.41-.38a1,1,0,0,1,1.42-.12,4.84,4.84,0,0,0,2.42.6c2.71,0,4.56-2.11,4.56-5.62a5.33,5.33,0,0,1-4.46,2.23,5.61,5.61,0,0,1-5.9-5.59c0-3.31,2.54-5.71,6.36-5.71C125.93,224.24,128.52,227.58,128.52,232.57ZM118.2,230a3.21,3.21,0,0,0,3.43,3.12,3.14,3.14,0,1,0,0-6.22A3.18,3.18,0,0,0,118.2,230Z"/><path class="cls-6" d="M71.11,268.13l5.69-14.81a1.16,1.16,0,0,1,1.18-.82h1.56a1.16,1.16,0,0,1,1.18.82l5.76,14.81c.26.7,0,1.18-.79,1.18H84.53a1.17,1.17,0,0,1-1.2-.82L82.39,266H75.14l-.94,2.47a1.11,1.11,0,0,1-1.15.82H71.9C71.16,269.31,70.85,268.83,71.11,268.13Zm10.54-4.63-2.88-7.8-2.88,7.8Z"/><path class="cls-6" d="M88.56,258.84a2,2,0,0,1,2-2,2,2,0,0,1,2.06,2,2,2,0,0,1-2.06,1.92A2,2,0,0,1,88.56,258.84Zm0,8.78a2,2,0,0,1,2-2,2,2,0,1,1,0,3.91A2,2,0,0,1,88.56,267.63Z"/><path class="cls-6" d="M101.3,260.91c0-4.8,2.78-8.69,7.37-8.69s7.39,3.89,7.39,8.69-2.83,8.67-7.39,8.67S101.3,265.68,101.3,260.91Zm11.71,0c0-3.38-1.66-6.07-4.34-6.07s-4.3,2.69-4.3,6.07,1.61,6,4.3,6S113,264.27,113,260.91Z"/><path class="cls-6" d="M117.84,267.63a2.07,2.07,0,1,1,2.06,1.94A2,2,0,0,1,117.84,267.63Z"/><path class="cls-6" d="M124.44,268.39l0-.24a1.34,1.34,0,0,1,.46-1.32l6.12-5.52c1.3-1.13,2.3-2.28,2.3-3.77,0-1.7-1.25-2.69-3-2.69s-2.57.79-2.86,1.63c-.22.58-.48.89-1.08.89h-1.06c-.67,0-1.1-.38-.94-1.06.38-2,2-4.08,6-4.08,3.62,0,6,2.06,6,5.3,0,2.5-1.51,4.2-3.1,5.57L129,266.79l0,.1c.89-.1,3.38-.12,3.62-.12H136a.91.91,0,0,1,1,1v.53a.91.91,0,0,1-1,1H125.54A1,1,0,0,1,124.44,268.39Z"/><path class="cls-6" d="M139.75,268.18a.88.88,0,0,1-.14-1.42l.34-.46a1,1,0,0,1,1.42-.22,8.79,8.79,0,0,0,3.55.84c2.47,0,3.84-1.46,3.84-3.34,0-1.61-1.27-3-3.48-3a6.35,6.35,0,0,0-3,.79,1.4,1.4,0,0,1-1.39.17l-.55-.24a1.11,1.11,0,0,1-.74-1.2l.41-6.6a.94.94,0,0,1,1.06-1h8.52a.91.91,0,0,1,1,1V254a.91.91,0,0,1-1,1H142.8l-.31,4.27a5.35,5.35,0,0,1,3.58-1.18,5.43,5.43,0,0,1,5.74,5.45c0,3.53-2.47,6-6.84,6A9.7,9.7,0,0,1,139.75,268.18Z"/><path class="cls-6" d="M484.76,179.16H482v5.14a.91.91,0,0,1-1,1h-1.15a.91.91,0,0,1-1-1V169.51a.91.91,0,0,1,1-1h6.34A5.15,5.15,0,0,1,491.5,174a4.87,4.87,0,0,1-3.82,5c.17,1.78,1.2,4,2.83,4a2.35,2.35,0,0,0,1.15-.24c.6-.24.94-.14,1.22.43l.17.34c.26.58.22,1.06-.31,1.37a5,5,0,0,1-2.64.7C486,185.57,484.93,181.11,484.76,179.16Zm.89-2.4a2.8,2.8,0,0,0,0-5.59H482v5.59Z"/><path class="cls-6" d="M494.86,174.84a2,2,0,0,1,2-2,2,2,0,0,1,2.06,2,2,2,0,0,1-2.06,1.92A2,2,0,0,1,494.86,174.84Zm0,8.78a2,2,0,0,1,2-2,2,2,0,1,1,0,3.91A2,2,0,0,1,494.86,183.63Z"/><path class="cls-6" d="M507.63,177.24c0-4.94,2.5-9,7.46-9a7.33,7.33,0,0,1,4.34,1.3c.55.38.53.94,0,1.44l-.38.38a1,1,0,0,1-1.42.12,4.93,4.93,0,0,0-2.45-.6c-2.69,0-4.56,2.11-4.56,5.62a5.37,5.37,0,0,1,4.49-2.23,5.6,5.6,0,0,1,5.88,5.59c0,3.31-2.54,5.71-6.34,5.71C510.25,185.57,507.63,182.23,507.63,177.24ZM518,179.86a3.23,3.23,0,0,0-3.46-3.12,3.14,3.14,0,1,0,0,6.22A3.19,3.19,0,0,0,518,179.86Z"/><path class="cls-6" d="M531.08,184.37V181h-7.66a.83.83,0,0,1-.91-.94v-.55a1.61,1.61,0,0,1,.43-1.15l8.54-9.34a1.4,1.4,0,0,1,1.15-.5h.6a.85.85,0,0,1,.94.94v9.1h2.57a.85.85,0,0,1,.94.94v.58a.85.85,0,0,1-.94.94h-2.57v3.38a.85.85,0,0,1-.94.94H532A.84.84,0,0,1,531.08,184.37Zm0-5.83v-5.66l-5.21,5.66Z"/><path class="cls-6" d="M477.7,204.93a8.71,8.71,0,0,1,8.91-8.69,9.8,9.8,0,0,1,5.26,1.34.93.93,0,0,1,.29,1.42l-.43.58a.94.94,0,0,1-1.39.34,6.93,6.93,0,0,0-3.72-.89,5.73,5.73,0,0,0-5.69,5.9,5.66,5.66,0,0,0,5.93,5.86,6.71,6.71,0,0,0,3.38-.89v-3h-3.36a.93.93,0,0,1-1-1v-.41a.91.91,0,0,1,1-1h5.3a.91.91,0,0,1,1,1v4.85a1.58,1.58,0,0,1-.74,1.37,9.42,9.42,0,0,1-5.69,1.85A8.68,8.68,0,0,1,477.7,204.93Z"/><path class="cls-6" d="M495.82,202.84a2,2,0,0,1,2-2,2,2,0,0,1,2.06,2,2,2,0,0,1-2.06,1.92A2,2,0,0,1,495.82,202.84Zm0,8.78a2,2,0,0,1,2-2,2,2,0,1,1,0,3.91A2,2,0,0,1,495.82,211.63Z"/><path class="cls-6" d="M512.17,212.3V200l-2.69,1.18a.87.87,0,0,1-1.3-.6l-.17-.53a1,1,0,0,1,.58-1.32l4.39-2a3.25,3.25,0,0,1,1.42-.26c.55,0,.86.36.86,1V212.3a.91.91,0,0,1-1,1h-1.08A.91.91,0,0,1,512.17,212.3Z"/><path class="cls-6" d="M519.2,212.23,526.57,199h-8a.81.81,0,0,1-.89-.89v-.77a.81.81,0,0,1,.89-.89h10.58a.82.82,0,0,1,.89.89v.48a2.17,2.17,0,0,1-.29,1.1l-7.32,13.68a1.1,1.1,0,0,1-1.06.65h-1.54C519.13,213.31,518.84,212.85,519.2,212.23Z"/><path class="cls-6" d="M531.44,204.91c0-4.8,2.78-8.69,7.37-8.69s7.39,3.89,7.39,8.69-2.83,8.67-7.39,8.67S531.44,209.68,531.44,204.91Zm11.71,0c0-3.38-1.66-6.07-4.34-6.07s-4.3,2.69-4.3,6.07,1.61,6,4.3,6S543.15,208.27,543.15,204.91Z"/><path class="cls-6" d="M491.74,236.7c0,2.78-2.33,4.61-5.81,4.61h-6.1a.91.91,0,0,1-1-1V225.51a.91.91,0,0,1,1-1h5.35c3.34,0,5.76,1.68,5.76,4.46a3.72,3.72,0,0,1-2.93,3.67A4,4,0,0,1,491.74,236.7ZM482,227v4.7h2.3c2.5,0,3.48-1.22,3.48-2.47,0-1.44-1.22-2.23-2.74-2.23Zm6.58,9.46c0-1.3-1.1-2.57-3.72-2.57H482v4.78h3.86C487.5,238.71,488.58,237.8,488.58,236.51Z"/><path class="cls-6" d="M494.14,230.84a2,2,0,0,1,2-2,2,2,0,0,1,2.06,2,2,2,0,0,1-2.06,1.92A2,2,0,0,1,494.14,230.84Zm0,8.78a2,2,0,0,1,2-2,2,2,0,1,1,0,3.91A2,2,0,0,1,494.14,239.63Z"/><path class="cls-6" d="M510.49,240.3V228l-2.69,1.18a.87.87,0,0,1-1.3-.6l-.17-.53a1,1,0,0,1,.58-1.32l4.39-2a3.25,3.25,0,0,1,1.42-.26c.55,0,.86.36.86,1V240.3a.91.91,0,0,1-1,1h-1.08A.91.91,0,0,1,510.49,240.3Z"/><path class="cls-6" d="M516.68,240.11a.78.78,0,0,1-.14-1.25l.5-.62a.89.89,0,0,1,1.27-.19,6.33,6.33,0,0,0,3.55.89c2.71,0,4-1.7,4-3.26,0-1.75-1.49-3-3.41-3a4.19,4.19,0,0,0-1.63.31.94.94,0,0,1-1.22-.29l-.24-.34a.81.81,0,0,1,.14-1.25l4.39-4.1h-6.24a.81.81,0,0,1-.89-.89v-.77a.81.81,0,0,1,.89-.89h9.79a.83.83,0,0,1,.91.89v.29a1.41,1.41,0,0,1-.5,1.1l-4.42,3.91a4.49,4.49,0,0,1,1,.1,4.92,4.92,0,0,1,4.49,4.92c0,3.26-2.47,5.86-7,5.86A9.41,9.41,0,0,1,516.68,240.11Z"/><path class="cls-6" d="M531.49,240.11a.78.78,0,0,1-.14-1.25l.5-.62a.89.89,0,0,1,1.27-.19,6.33,6.33,0,0,0,3.55.89c2.71,0,4-1.7,4-3.26,0-1.75-1.49-3-3.41-3a4.19,4.19,0,0,0-1.63.31.94.94,0,0,1-1.22-.29l-.24-.34a.81.81,0,0,1,.14-1.25l4.39-4.1h-6.24a.81.81,0,0,1-.89-.89v-.77a.81.81,0,0,1,.89-.89h9.79a.83.83,0,0,1,.91.89v.29a1.41,1.41,0,0,1-.5,1.1l-4.42,3.91a4.49,4.49,0,0,1,1,.1,4.92,4.92,0,0,1,4.49,4.92c0,3.26-2.47,5.86-7,5.86A9.41,9.41,0,0,1,531.49,240.11Z"/><path class="cls-6" d="M477.39,268.13l5.69-14.81a1.16,1.16,0,0,1,1.18-.82h1.56a1.16,1.16,0,0,1,1.18.82l5.76,14.81c.26.7,0,1.18-.79,1.18h-1.15a1.17,1.17,0,0,1-1.2-.82l-.94-2.47h-7.25l-.94,2.47a1.11,1.11,0,0,1-1.15.82h-1.15C477.44,269.31,477.13,268.83,477.39,268.13Zm10.54-4.63L485,255.7l-2.88,7.8Z"/><path class="cls-6" d="M494.84,258.84a2,2,0,0,1,2-2,2,2,0,0,1,2.06,2,2,2,0,0,1-2.06,1.92A2,2,0,0,1,494.84,258.84Zm0,8.78a2,2,0,0,1,2-2,2,2,0,1,1,0,3.91A2,2,0,0,1,494.84,267.63Z"/><path class="cls-6" d="M511.18,268.3V256l-2.69,1.18a.87.87,0,0,1-1.3-.6l-.17-.53a1,1,0,0,1,.58-1.32l4.39-2a3.25,3.25,0,0,1,1.42-.26c.55,0,.86.36.86,1V268.3a.91.91,0,0,1-1,1h-1.08A.91.91,0,0,1,511.18,268.3Z"/><path class="cls-6" d="M517.16,267.63a2.07,2.07,0,1,1,2.06,1.94A2,2,0,0,1,517.16,267.63Z"/><path class="cls-6" d="M523.06,260.91c0-4.8,2.78-8.69,7.37-8.69s7.39,3.89,7.39,8.69-2.83,8.67-7.39,8.67S523.06,265.68,523.06,260.91Zm11.71,0c0-3.38-1.66-6.07-4.34-6.07s-4.3,2.69-4.3,6.07,1.61,6,4.3,6S534.78,264.27,534.78,260.91Z"/></svg>