<svg xmlns="http://www.w3.org/2000/svg" viewBox="0 0 120 120"><defs><style>.cls-1{fill:none;stroke:#f69679;stroke-linecap:round;stroke-linejoin:round;stroke-width:2.5px;}.cls-2{fill:#f69679;}.cls-3{opacity:0.3;}.cls-4{fill:#ffd54c;}.cls-5{fill:#f47a5c;opacity:0.2;}</style></defs><title>icons3</title><g id="Layer_1" data-name="Layer 1"><path class="cls-1" d="M27.91,43.49a68.83,68.83,0,0,1,4.56-17.37L53.72,21a32,32,0,0,1,15,0L90,26.13A68.8,68.8,0,0,1,94.5,43.44"/><path class="cls-1" d="M92.07,73.08C85.94,90.73,61.21,99.87,61.21,99.87S36.6,90.77,30.39,73.21"/><path class="cls-1" d="M81.21,79c-7,9.33-20,14.13-20,14.13s-13-4.8-20-14.13"/><polyline class="cls-1" points="25.55 73.99 25.55 85.02 10.4 85.02 10.4 55.07 17.98 55.07"/><line class="cls-1" x1="17.98" y1="76.91" x2="25.55" y2="85.02"/><polyline class="cls-1" points="96.86 73.96 96.86 85.02 112.01 85.02 112.01 55.07 104.44 55.07"/><path class="cls-1" d="M61.21,69.84c31.78,0,43.23,7.07,43.23,7.07V47.15s-10.24-7.07-43.23-7.07C28.76,40.08,18,47.15,18,47.15V76.91S29.79,69.84,61.21,69.84Z"/><line class="cls-1" x1="104.44" y1="76.91" x2="96.86" y2="85.02"/><path class="cls-2" d="M61.15,62.91a1.14,1.14,0,0,0-.32,0,1.31,1.31,0,0,0-.22.08h0l0,0,.1-.05.2-.11.41-.22.82-.47q.81-.48,1.6-1a28.88,28.88,0,0,0,3-2.26,13.94,13.94,0,0,0,2.38-2.63,6.56,6.56,0,0,0,.74-1.45,5.53,5.53,0,0,0,.32-1.55A4.46,4.46,0,0,0,67,48.65a2.8,2.8,0,0,0-1.34-.05,3.5,3.5,0,0,0-1.32.58,9.16,9.16,0,0,0-1.22,1,6.55,6.55,0,0,0-.56.67c-.08.12-.17.25-.25.39l-.13.23-.09.15-.09.12-.14.15a.86.86,0,0,1-.23.15.95.95,0,0,1-1-.06.74.74,0,0,1-.17-.14l-.11-.14-.07-.12-.08-.14-.12-.22c-.08-.14-.16-.26-.24-.39a6.48,6.48,0,0,0-.55-.67,9.26,9.26,0,0,0-1.2-1,3.52,3.52,0,0,0-1.31-.61,2.8,2.8,0,0,0-1.34,0,4.46,4.46,0,0,0-3.27,4.53,5.53,5.53,0,0,0,.29,1.55,6.56,6.56,0,0,0,.71,1.46,13.94,13.94,0,0,0,2.33,2.68,28.9,28.9,0,0,0,2.92,2.32q.77.54,1.58,1l.81.48.41.23.2.11.1.05,0,0h0a1.32,1.32,0,0,0-.21-.08A1.14,1.14,0,0,0,61.15,62.91Zm0,2.5a1.36,1.36,0,0,1-.35-.05,1.53,1.53,0,0,1-.24-.1l0,0-.06,0-.12-.06L60.1,65l-.45-.24-.88-.5q-.87-.52-1.71-1.08a28.16,28.16,0,0,1-3.24-2.49A16.51,16.51,0,0,1,51,57.5a9.18,9.18,0,0,1-1-2,8.17,8.17,0,0,1-.43-2.28,7.06,7.06,0,0,1,5.32-7.11,5.35,5.35,0,0,1,2.54,0,6,6,0,0,1,2.2,1.06,5.48,5.48,0,0,1,1.49,1.78,10.5,10.5,0,0,1,.48,1l.22.48.1.21,0,.07h0l-.08-.09a.82.82,0,0,0-.15-.12.93.93,0,0,0-.91-.06,1,1,0,0,0-.2.14l-.1.1,0,0,0-.06.1-.2.22-.47a10.67,10.67,0,0,1,.5-1,5.47,5.47,0,0,1,1.52-1.76,6,6,0,0,1,2.22-1,5.35,5.35,0,0,1,2.53,0,7.06,7.06,0,0,1,5.19,7.21,8.17,8.17,0,0,1-.47,2.27,9.18,9.18,0,0,1-1,2,16.51,16.51,0,0,1-2.85,3.15,28.15,28.15,0,0,1-3.29,2.43q-.85.55-1.73,1l-.89.49-.45.24-.23.12-.12.06-.06,0h0a1.52,1.52,0,0,1-.24.09A1.37,1.37,0,0,1,61.13,65.41Z"/><path class="cls-1" d="M36.34,31.24l18.42-4.43a27.74,27.74,0,0,1,13,0l18.42,4.43"/><g class="cls-3"><path class="cls-4" d="M67.39,35.16c-16.64-1.23-35.74.75-41.84,4.07-7.9,4.3-14,8.25-16.53,17.09s1.5,20.53,9,24.33c11.72,6,17.35-6.11,42-5.2,11,.41,25,4.48,35.53,2.27,10.9-2.28,15.52.45,16.56-18.47C113,41.64,86.14,36.54,67.39,35.16ZM71.8,60.68c-3.56,4.38-7.34,7.6-14.89,4.28S45.79,53.43,47.25,47.55c1.4-5.6,10.3-6.65,19.83-4.16C73.51,45.07,76.07,55.43,71.8,60.68Z"/></g><path class="cls-5" d="M52.48,60.88c-6-4.74-7.2-15.42,2.83-17,9.81-1.55,17.19.51,17.52,7.7S66.22,71.76,52.48,60.88Z"/></g></svg>