<svg xmlns="http://www.w3.org/2000/svg" viewBox="0 0 120 120"><defs><style>.cls-1{opacity:0.2;}.cls-2{fill:#f47a5c;}.cls-3{fill:none;}.cls-3,.cls-4{stroke:#f69679;stroke-linecap:round;stroke-linejoin:round;stroke-width:2.5px;}.cls-4{fill:#f69679;}.cls-5{fill:#ffd54c;opacity:0.3;}</style></defs><title>icons3</title><g id="Layer_1" data-name="Layer 1"><g class="cls-1"><path class="cls-2" d="M37.09,44.34C24.32,55.75,14.54,71.45,14,81.46c-.39,6.8-2.79,15.57,14.92,19.08,14.83,2.94,16.53-23.18,23.74-28.11,11.5-7.86,42.14,0,42.89-21.77C96,36.92,78.42,33.85,73,32.58,62.31,30.12,47.6,34.94,37.09,44.34Z"/></g><line class="cls-3" x1="30.56" y1="81.46" x2="23.01" y2="87.8"/><line class="cls-3" x1="77.61" y1="41.93" x2="64.33" y2="53.09"/><polyline class="cls-3" points="34.96 86.69 24.52 95.46 15.94 85.26 26.38 76.48"/><polyline class="cls-3" points="60.53 47.76 73.41 36.93 81.99 47.13 72.07 55.47"/><polygon class="cls-3" points="81.99 47.13 90.48 31.56 73.41 36.93 81.99 47.13"/><rect class="cls-3" x="19.79" y="82.48" width="3.78" height="13.33" transform="translate(-52.29 34.87) rotate(-40.06)"/><path class="cls-3" d="M16,87.32h5.54a0,0,0,0,1,0,0v13.33a0,0,0,0,1,0,0H16a5.73,5.73,0,0,1-5.73-5.73V93.05A5.73,5.73,0,0,1,16,87.32Z" transform="translate(-56.76 32.3) rotate(-40.06)"/><line class="cls-3" x1="60.62" y1="21.2" x2="70.54" y2="27.64"/><line class="cls-3" x1="74.62" y1="9.9" x2="78.83" y2="20.95"/><line class="cls-3" x1="92.6" y1="9.05" x2="89.46" y2="20.45"/><line class="cls-3" x1="107.6" y1="19" x2="98.33" y2="26.34"/><line class="cls-3" x1="113.81" y1="35.9" x2="102" y2="36.32"/><line class="cls-3" x1="108.86" y1="53.2" x2="99.08" y2="46.56"/><path class="cls-3" d="M42.57,87.18a5.51,5.51,0,0,1-7.77-.67L25,74.86a5.51,5.51,0,1,1,8.44-7.1l9.79,11.64A5.51,5.51,0,0,1,42.57,87.18Z"/><path class="cls-3" d="M70.16,68.59a5.51,5.51,0,0,1-7.77-.67L50.18,53.4a5.51,5.51,0,1,1,8.44-7.1l6.31,7.5"/><path class="cls-3" d="M54,83.59a5.51,5.51,0,0,1-7.77-.67L32.79,67a5.51,5.51,0,0,1,8.44-7.1l13.4,15.94A5.51,5.51,0,0,1,54,83.59Z"/><path class="cls-3" d="M63.59,77.91a5.51,5.51,0,0,1-7.77-.67L41,59.6a5.51,5.51,0,1,1,8.44-7.1L64.26,70.15A5.51,5.51,0,0,1,63.59,77.91Z"/><path class="cls-3" d="M71.61,86.74c-1-1.22-3.06-3.64-3-6.42.22-5.84,2.71-9.35,2.78-11.42a53.22,53.22,0,0,0-8.11-4.64c-2.81-1.18-5.55-3-5.79-6-.18-2.16,1.51-4.07,4.55-4.28,8.47-.59,17.44,4.5,19.87,7.4,2.18,2.6,0,15.68.25,19C82.62,84.89,88.4,91,88.4,91"/><path class="cls-3" d="M67.33,108.7s-5-6.13-7.15-7.53c-3-2-12.23-4.26-14.9-5.29s-6.17-4.24-12.44-11.7"/><polygon class="cls-4" points="83.07 33.89 86.8 38.32 90.48 31.56 83.07 33.89"/><path class="cls-5" d="M64.72,17.24c-.1-4.76,5.27-4.74,11.65-2.14,5.62,2.29,13.2,2.3,19.74.05,9.69-3.34,12.4,5.39,10.2,11.27-1.66,4.44,1.94,11.19,5.89,15.5,4.35,4.74-.82,20.73-5.6,16.25s-3.08-9.41-4.53-16.61S99.36,25.15,90,23.51c-5.72-1-17.49,4-21.45,4.6C61.95,29.17,64.83,22.51,64.72,17.24Z"/></g></svg>