<svg xmlns="http://www.w3.org/2000/svg" viewBox="0 0 120 120"><defs><style>.cls-1,.cls-2{fill:none;stroke-linecap:round;stroke-linejoin:round;stroke-width:2.5px;}.cls-1{stroke:#f69679;}.cls-2{stroke:#ffd0c2;}.cls-3{fill:#f47a5c;opacity:0.2;}.cls-4{fill:#ffd54c;opacity:0.3;}</style></defs><title>icons3</title><g id="Layer_1" data-name="Layer 1"><rect class="cls-1" x="11.14" y="26.53" width="97.43" height="63.78"/><polyline class="cls-2" points="53.28 35.58 49.66 39.19 46.04 35.58 42.43 39.19 38.81 35.58 35.19 39.19 31.58 35.58 27.96 39.19 24.34 35.58 20.73 39.19"/><polyline class="cls-2" points="98.17 68.49 94.55 72.11 90.94 68.49 87.32 72.11 83.7 68.49 80.08 72.11 76.47 68.49 72.85 72.11 69.23 68.49 65.62 72.11"/><polyline class="cls-2" points="83.7 77.03 80.08 80.65 76.47 77.03 72.85 80.65 69.23 77.03 65.62 80.65"/><path class="cls-2" d="M35.58,63.19,23.9,74.57a16.31,16.31,0,1,1,28-11.47Z"/><path class="cls-2" d="M35.58,63.19,24.88,50.89a16.31,16.31,0,0,1,27,12.21Z"/><path class="cls-2" d="M35.58,63.19l3.14-16A16.31,16.31,0,0,1,51.9,63.1Z"/><circle class="cls-1" cx="35.58" cy="63.19" r="16.31" transform="translate(-0.37 0.21) rotate(-0.34)"/><rect class="cls-1" x="65.67" y="36.09" width="32.55" height="23.27"/><polyline class="cls-2" points="71.07 53.8 76.49 44.65 81.89 49.65 87.41 47.15 92.81 40.44"/><circle class="cls-1" cx="71.07" cy="53.81" r="0.27"/><circle class="cls-1" cx="81.89" cy="49.65" r="0.27"/><circle class="cls-1" cx="76.49" cy="44.65" r="0.27"/><circle class="cls-1" cx="92.81" cy="40.44" r="0.27"/><circle class="cls-1" cx="87.41" cy="47.15" r="0.27"/><rect class="cls-1" x="6.06" y="19.64" width="107.61" height="6.89"/><line class="cls-1" x1="59.86" y1="90.31" x2="59.86" y2="96.71"/><circle class="cls-1" cx="59.86" cy="100.52" r="3.82"/><path class="cls-3" d="M23.64,47.36c.83-2,8.18-4.2,16.32-2.67,3.92.74-7.19,14.37-4.38,16.84,4.32,3.8,16.68-3,19.1.27,1.79,2.43-.63,6.66-2.79,10.76-4.3,8.17-9.8,11.47-17.72,9.91-3.67-.73-13.41-3.16-14.27-7.58-.25-1.3,11.6-6.91,12.46-12.36C33,58.28,21.82,51.77,23.64,47.36Z"/><path class="cls-3" d="M65.67,62.77c4.28,3.78,30.61,1.84,34.74-2s4.33-24.54.79-26.9S67,28.68,62.84,35.58,62.59,60.05,65.67,62.77Z"/><path class="cls-4" d="M20.42,51.79c4.72,1.86,10.82,8.07,10,10.94s-9.53,11.68-12.5,8.51S16,50.07,20.42,51.79Z"/><path class="cls-4" d="M38.39,59.36c-.49-2.62,3.38-13.8,7.38-12.48s11.4,10.27,8.09,11.54S38.8,61.57,38.39,59.36Z"/></g></svg>