<svg xmlns="http://www.w3.org/2000/svg" viewBox="0 0 120 120"><defs><style>.cls-1,.cls-2{fill:none;stroke-linecap:round;stroke-linejoin:round;stroke-width:2.5px;}.cls-1{stroke:#f69679;}.cls-2{stroke:#ffd0c2;}.cls-3{fill:#ffd54c;opacity:0.3;}.cls-4{fill:#f47a5c;opacity:0.2;}</style></defs><title>icons3</title><g id="Layer_1" data-name="Layer 1"><path class="cls-1" d="M34,81c0,14.22,29.32,19.84,29.32,19.84S89,91,90.47,74.31L75,61S40.12,78.22,34,81Z"/><path class="cls-1" d="M34,81l-6.8-44.4S15.9,59.41,16.3,69.33C20.45,78.86,34,81,34,81Z"/><path class="cls-1" d="M87.87,27.46l2.6,44.8s10.19,2.47,12.09-2.93Z"/><polyline class="cls-1" points="75.01 61.02 53.71 62.77 34.02 81"/><polyline class="cls-1" points="27.22 36.6 53.71 62.77 78.66 37.24 57.98 11.72 33.54 42.84"/><polyline class="cls-1" points="57.98 11.72 53.71 62.77 87.87 27.46 78.66 37.24"/><line class="cls-2" x1="64.57" y1="32.56" x2="66.42" y2="39.35"/><path class="cls-2" d="M36.1,57.29c1.3-3.36,5.86.11,3.8,2.06,2.71-1.84,5.53,3.8,1,4.77"/><path class="cls-2" d="M81.53,47.16c-3.34-.38-7.66,4.17-4.85,6.83s6.67-3,1.06-4.17"/><polyline class="cls-1" points="75.01 61.02 72.82 68.48 65.73 92.67 63.34 100.84"/><path class="cls-2" d="M46,35l4.24.67s-3.66,3.21-4.76,7"/><path class="cls-3" d="M31,42.64c2-4.93,12.31-26.25,24.8-28.11A19.94,19.94,0,0,1,75,23.08c4.21,6.16,13.26,5.56,15.46,11,4,9.91,5.06,35.52-3.53,34.37S76.74,61.22,72,63.55,46.63,84.61,34,78.34C26.42,74.57,28.54,48.57,31,42.64Z"/><path class="cls-4" d="M33,84.27c10.31-1.42,41.42-19.42,47.25-16.71,9.15,4.25,9.08,8.39,10.25,17.52s-22,20.15-27.13,19.26C43.28,100.84,29.57,84.74,33,84.27Z"/><path class="cls-4" d="M96.88,74.57c-1.3-6.83-4.4-31.47-.65-27.38s9.83,20.55,8.28,23.83S97.78,79.31,96.88,74.57Z"/><path class="cls-4" d="M23.41,38.79c4.63,3.13,4.65,15.69,4.77,22.83.16,9.3.54,20.08-5.7,18.49-4.75-1.21-11.85-7.3-8.77-19.09C17.14,47.88,21.27,37.35,23.41,38.79Z"/></g></svg>