<svg xmlns="http://www.w3.org/2000/svg" viewBox="0 0 120 120"><defs><style>.cls-1{opacity:0.2;}.cls-2{fill:#f47a5c;}.cls-3{fill:none;stroke:#f69679;stroke-linecap:round;stroke-linejoin:round;stroke-width:2.5px;}.cls-4{fill:#ffd54c;opacity:0.3;}</style></defs><title>icons3</title><g id="Layer_1" data-name="Layer 1"><g class="cls-1"><path class="cls-2" d="M76.4,102.79c-14.8,8.8-37.54-.9-47.95-13.68-6.19-7.6-5.48-14.92-6.2-24.69-.9-12.31-1.88-16.8,8.06-24.81,9.62-7.75,28.8-12.46,40.85-9.28C91.27,35.64,102,53.85,98.4,74,96.34,85.47,86.24,96.94,76.4,102.79Z"/></g><path class="cls-3" d="M73.43,71.95a4,4,0,0,1,3.3,6.76,22.75,22.75,0,0,1-32.27-.07,4,4,0,0,1,3.32-6.76,120.35,120.35,0,0,0,13.42.85A106.89,106.89,0,0,0,73.43,71.95Z"/><line class="cls-3" x1="100.13" y1="52.65" x2="111.37" y2="48.97"/><line class="cls-3" x1="95.05" y1="42.29" x2="104.83" y2="35.65"/><line class="cls-3" x1="87.3" y1="33.72" x2="94.89" y2="24.65"/><line class="cls-3" x1="77.5" y1="27.6" x2="82.31" y2="16.8"/><line class="cls-3" x1="66.41" y1="24.44" x2="68.04" y2="12.72"/><line class="cls-3" x1="54.85" y1="24.44" x2="53.22" y2="12.72"/><line class="cls-3" x1="43.75" y1="27.6" x2="38.94" y2="16.8"/><line class="cls-3" x1="33.96" y1="33.72" x2="26.36" y2="24.65"/><line class="cls-3" x1="26.21" y1="42.29" x2="16.42" y2="35.65"/><line class="cls-3" x1="21.12" y1="52.65" x2="9.88" y2="48.97"/><path class="cls-3" d="M37.47,40.33a34.32,34.32,0,1,0,46.32,0"/><path class="cls-3" d="M80.7,55.23a7.06,7.06,0,0,0-12.79,0"/><path class="cls-3" d="M53.34,55.23a7.06,7.06,0,0,0-12.79,0"/><path class="cls-4" d="M101.15,52.13c5.57,6,13.8,3.89,11.74-3.38a16.74,16.74,0,0,0-8.72-10.08c-5.5-2.36-4.34-10.59-9.23-10.33S89.8,39.92,101.15,52.13Z"/><path class="cls-4" d="M80.7,16.78C82.27,22.17,81.82,31,73,27.58S66.5,13.91,72.24,12.9,79.73,13.41,80.7,16.78Z"/><path class="cls-4" d="M53.34,14.92c3.92-2.94,9,5.75,5.65,8.61s-15.82,2.24-21.08,5.78-12.41-3.26-8.86-8,7.26-5.8,12.32-4.62S50,17.46,53.34,14.92Z"/><path class="cls-4" d="M21.72,34.72c-6.35-.31-11.89,8.89-8.53,12.43s6.4.67,9.27-3.54S26.38,34.94,21.72,34.72Z"/></g></svg>