<svg xmlns="http://www.w3.org/2000/svg" viewBox="0 0 120 120"><defs><style>.cls-1{fill:none;stroke:#f69679;stroke-linecap:round;stroke-linejoin:round;stroke-width:2.5px;}.cls-2{fill:#f47a5c;opacity:0.2;}.cls-3{fill:#ffd54c;opacity:0.3;}</style></defs><title>icons3</title><g id="Layer_1" data-name="Layer 1"><line class="cls-1" x1="11.36" y1="37.73" x2="91.62" y2="37.73"/><line class="cls-1" x1="11.36" y1="44.54" x2="40.9" y2="44.54"/><circle class="cls-1" cx="20.97" cy="30.19" r="2.61"/><circle class="cls-1" cx="32.86" cy="30.19" r="2.61"/><circle class="cls-1" cx="44.75" cy="30.19" r="2.61"/><path class="cls-1" d="M44.44,88l.65.69a3.43,3.43,0,0,1-5,4.72l-2.66-2.79L31.13,84l-2.55-2.68a3.43,3.43,0,0,1,0-4.72l2.55-2.68"/><path class="cls-1" d="M36.5,68.28l3.63-3.81a3.43,3.43,0,0,1,5,4.72l-3.74,3.93-3.14,3.3L35.8,79l3.28,3.45"/><path class="cls-1" d="M86.16,88.05,81,93.46a3.43,3.43,0,0,1-5-4.72L85.35,79l-4.8-5"/><path class="cls-1" d="M75.43,68.28A3.43,3.43,0,0,1,81,64.47L92.56,76.6a3.43,3.43,0,0,1,0,4.72l-1,1.09"/><path class="cls-1" d="M54.31,104.18a3.39,3.39,0,0,1-.95-.14A3.42,3.42,0,0,1,51,99.81l10.7-37.19,1.84-6.39a3.42,3.42,0,1,1,6.58,1.89L64.86,76.46,61.79,87.11l-1.71,6-1.53,5.31-1,3.33A3.43,3.43,0,0,1,54.31,104.18Z"/><polyline class="cls-1" points="21.6 87.11 11.36 87.11 11.36 22.36 109.79 22.36 109.79 87.11 99.11 87.11"/><path class="cls-2" d="M30.23,88.4C25.55,78,29,66.38,44.46,58.49c9.94-5.07,25-4.75,35-.76,9.27,3.71,20,13.89,15.34,27.28-2.26,6.43-9.38,15.71-19.64,14.29-5.91-.82-13.19-2.11-21.83.56C43.91,102.76,34.64,98.21,30.23,88.4Z"/><path class="cls-3" d="M15.69,27.58c.88-4.66,5.53-5.46,8.9-1.54,2.16,2.51,3,2.32,4.59,0,2-3,7.14-2,9.34.61s1.65,3.53-1.68,6.14c-3.13,2.45-5.73,2.81-10.71,2.65S14.32,34.86,15.69,27.58Z"/><path class="cls-3" d="M42.15,25.71c2.15-1.57,7.88.1,9.34,3.8s-3.74,5.88-6.74,5S39,28,42.15,25.71Z"/></g></svg>