<svg xmlns="http://www.w3.org/2000/svg" viewBox="0 0 169.12 117.98"><defs><style>.cls-1{fill:#fff;}.cls-2{fill:#f47a5c;opacity:0.2;}.cls-3{fill:#ffd54c;opacity:0.3;}.cls-4,.cls-6,.cls-7{fill:none;stroke:#f69679;stroke-linecap:round;stroke-linejoin:round;}.cls-4{stroke-width:1.86px;}.cls-5{fill:#f69679;}.cls-6,.cls-7{stroke-width:1.3px;}.cls-7{stroke-dasharray:1.53 3.58;}</style></defs><title>icons3-illus</title><g id="Layer_1" data-name="Layer 1"><path class="cls-1" d="M11.6,9.66c5.51-10.83,54.33-3.08,74,0s59.11,6.7,72.42,7.53c16.3,1,6.88,30,5.72,47.78S161.45,112.5,149,113.7s-42.56-5.45-67.77-7.31c-24.81-1.84-71.93-1-77.53-12.16S6.1,20.46,11.6,9.66Z"/><path class="cls-2" d="M83,24.75c3.08-5.64,9.26-8.19,18.48-4.83,8.18,3,7.55,11.56,3.66,18-2.9,4.77-8.57,7.73-16.92,2.77S81,28.51,83,24.75Z"/><path class="cls-3" d="M119.65,73.21C117.57,77,122.47,95,126.19,94.29s20.91-4.58,19.38-9-4.26-18-9-16.82S121.47,69.93,119.65,73.21Z"/><path class="cls-3" d="M160.68,49.82a40.49,40.49,0,0,0-6.45-1.45,6.34,6.34,0,0,0,.47-.87c2.76-6.32,6.62-17.18-1-19.95s-14.56-4.26-16.53.26S129.45,47,136,49.61c2,.78,4.47,1.9,3.93,4-1.11,4.26-2.76,10.93,3.21,14.15s13.45,4.22,16.13-1Z"/><rect class="cls-2" x="22.47" y="13.2" width="35.76" height="6.06" rx="2.53" ry="2.53" transform="translate(1.82 -3.94) rotate(5.72)"/><rect class="cls-2" x="60.94" y="54.02" width="54.03" height="8.78" rx="2.53" ry="2.53" transform="translate(6.26 -8.48) rotate(5.72)"/><rect class="cls-2" x="59.97" y="63.68" width="54.01" height="8.78" rx="2.53" ry="2.53" transform="translate(7.22 -8.33) rotate(5.72)"/><rect class="cls-2" x="59.18" y="73.46" width="53.63" height="8.78" rx="2.53" ry="2.53" transform="translate(8.19 -8.18) rotate(5.72)"/><rect class="cls-2" x="21.77" y="20.2" width="35.76" height="6.06" rx="2.53" ry="2.53" transform="translate(2.51 -3.84) rotate(5.72)"/><rect class="cls-2" x="21.06" y="27.24" width="35.76" height="6.06" rx="2.53" ry="2.53" transform="translate(3.21 -3.73) rotate(5.72)"/><path class="cls-4" d="M14.81,12.32C13.19,23.1,8.12,84.43,7.77,90c-.34,5.37,3.37,5.63,10.68,6.65s35.06,3.95,55.1,5.79,54.42,5.74,71.4,7.32c6.6.61,9.07,0,10-5.72,2-12,7.86-70.74,7.76-77.12-.07-4.55-2.41-5.11-8.65-6.05C144,19.31,111.7,16.35,79,13.17S26.26,8.31,22.12,7.74,15.35,8.78,14.81,12.32Z"/><path class="cls-5" d="M139.82,74.18c.69,2.29,1.23,4.61,1.75,6.93l.75,3.49.18.9a4.33,4.33,0,0,1,.06,1.15,4.24,4.24,0,0,1-2.62,3.53,12.18,12.18,0,0,1-1.92.45l-3.51.68L131,92l-1.75.34-.44.08a5.25,5.25,0,0,1-.57.07,4.32,4.32,0,0,1-1.16-.08,4.26,4.26,0,0,1-3.21-3.07l-.78-3.53-1.52-7a13.91,13.91,0,0,1-.35-1.92,4.2,4.2,0,0,1,2.13-3.83,5.37,5.37,0,0,1,2-.59c2.36-.35,4.71-.71,7.1-.84a.61.61,0,0,1,.2,1.19c-2.31.64-4.65,1.06-7,1.48a3.56,3.56,0,0,0-1.39.39,2.33,2.33,0,0,0-.88.9,2.3,2.3,0,0,0-.28,1.22,14.39,14.39,0,0,0,.32,1.59l1.57,7,.78,3.44a2.27,2.27,0,0,0,1.7,1.61,2.3,2.3,0,0,0,.61,0,3.17,3.17,0,0,0,.32,0l.44-.08,1.76-.32,3.51-.65,3.51-.65a12.27,12.27,0,0,0,1.56-.33,2.3,2.3,0,0,0,1-.76,2.32,2.32,0,0,0,.46-1.16,2.44,2.44,0,0,0,0-.63l-.17-.85-.7-3.5c-.44-2.34-.87-4.68-1.14-7.06a.61.61,0,0,1,1.18-.24Z"/><path class="cls-4" d="M160.56,52.68l-11.92-4.52a3.27,3.27,0,0,0-4.22,1.91l-4,10.76A3.27,3.27,0,0,0,142.32,65l9.93,3.67a3.27,3.27,0,0,0,4.21-2L160.25,56"/><path class="cls-1" d="M140.42,28.16l11.43,1.22a3.27,3.27,0,0,1,2.9,3.55l-1.29,13.72a3.27,3.27,0,0,1-3.65,2.94l-11.48-1.42a3.27,3.27,0,0,1-2.85-3.56l1-9.86"/><path class="cls-5" d="M140.48,27.56c2.6.06,5.17.28,7.75.51,1.31.12,2.53.25,3.9.4a4.22,4.22,0,0,1,3.47,3.2,4.18,4.18,0,0,1,.1,1.25l-.09,1-.17,1.93-.35,3.87-.35,3.87-.17,1.93-.09,1a5.49,5.49,0,0,1-.2,1.16,4.27,4.27,0,0,1-3.76,3,13.36,13.36,0,0,1-2.13-.19l-1.92-.25-7.7-1-.48-.06a5.55,5.55,0,0,1-.59-.11,4.21,4.21,0,0,1-2.79-2.33,4.32,4.32,0,0,1-.34-2.38l.2-1.93c.29-2.57.57-5.14,1.09-7.69a.61.61,0,0,1,1.2.12c0,2.6-.22,5.18-.44,7.76l-.18,1.93a2.76,2.76,0,0,0,0,.75,2.15,2.15,0,0,0,.2.66,2.3,2.3,0,0,0,.91,1,2.25,2.25,0,0,0,.63.26l.36.06.48.06,7.71.93,1.93.23a13.88,13.88,0,0,0,1.73.16,2.28,2.28,0,0,0,2-1.57,11.94,11.94,0,0,0,.22-1.71l.19-1.93.38-3.86.38-3.86.19-1.93.09-.94a2.26,2.26,0,0,0-.05-.68,2.32,2.32,0,0,0-1.89-1.77L148,29.9c-2.57-.31-5.14-.65-7.68-1.14a.61.61,0,0,1,.13-1.2Z"/><path class="cls-3" d="M140.42,28.16l11.43,1.22a3.27,3.27,0,0,1,2.9,3.55l-1.29,13.72a3.27,3.27,0,0,1-3.65,2.94l-11.48-1.42a3.27,3.27,0,0,1-2.85-3.56l1-9.86"/><path class="cls-5" d="M140.48,27.56c2.6.06,5.17.28,7.75.51,1.31.12,2.53.25,3.9.4a4.22,4.22,0,0,1,3.47,3.2,4.18,4.18,0,0,1,.1,1.25l-.09,1-.17,1.93-.35,3.87-.35,3.87-.17,1.93-.09,1a5.49,5.49,0,0,1-.2,1.16,4.27,4.27,0,0,1-3.76,3,13.36,13.36,0,0,1-2.13-.19l-1.92-.25-7.7-1-.48-.06a5.55,5.55,0,0,1-.59-.11,4.21,4.21,0,0,1-2.79-2.33,4.32,4.32,0,0,1-.34-2.38l.2-1.93c.29-2.57.57-5.14,1.09-7.69a.61.61,0,0,1,1.2.12c0,2.6-.22,5.18-.44,7.76l-.18,1.93a2.76,2.76,0,0,0,0,.75,2.15,2.15,0,0,0,.2.66,2.3,2.3,0,0,0,.91,1,2.25,2.25,0,0,0,.63.26l.36.06.48.06,7.71.93,1.93.23a13.88,13.88,0,0,0,1.73.16,2.28,2.28,0,0,0,2-1.57,11.94,11.94,0,0,0,.22-1.71l.19-1.93.38-3.86.38-3.86.19-1.93.09-.94a2.26,2.26,0,0,0-.05-.68,2.32,2.32,0,0,0-1.89-1.77L148,29.9c-2.57-.31-5.14-.65-7.68-1.14a.61.61,0,0,1,.13-1.2Z"/><path class="cls-5" d="M106.21,81.89c-1.17-1.25-2.3-2.54-3.42-3.84l1,.11c-1.31,1.1-2.62,2.21-3.95,3.28a.79.79,0,0,1-1.11-.11l-3.25-4,1.13.12-4,3.25a.82.82,0,0,1-1.15-.12l-3.25-4a.83.83,0,0,1-.18-.65h0v-.08l1.35.78-4,3.25a.85.85,0,0,1-1.19-.12h0l-3.23-4,1.18.12-4,3.23a.82.82,0,0,1-1.15-.12l-3.23-4,1.13.12-4,3.23a.79.79,0,0,1-1.11-.11c-1.08-1.33-2.16-2.66-3.21-4l1,.11q-2,1.59-4.13,3.06a.51.51,0,0,1-.64-.79q1.86-1.78,3.83-3.43a.73.73,0,0,1,1,.08l0,0c1.11,1.3,2.19,2.63,3.28,4L70,77.2l4-3.25a.81.81,0,0,1,1.13.12l3.25,4-1.15-.12,4-3.25a.83.83,0,0,1,1.17.12h0l3.25,4-1.19-.12,4-3.23h0a.83.83,0,0,1,1.34.78v.08l-.18-.66,3.23,4-1.15-.12,4-3.23a.8.8,0,0,1,1.13.12l3.23,4-1.11-.11c1.32-1.08,2.67-2.14,4-3.2l0,0a.71.71,0,0,1,1,.12h0c1,1.36,2.08,2.72,3.07,4.12a.51.51,0,0,1-.79.64Z"/><path class="cls-5" d="M100.28,61.3q-1.8-1.84-3.48-3.78l1.05.09c-1.29,1.13-2.6,2.23-3.91,3.33a.79.79,0,0,1-1.11-.09h0l-3.31-3.92a.8.8,0,0,1-.18-.63h0V56.2l1.32.74-3.92,3.31a.83.83,0,0,1-1.16-.1h0l-3.31-3.92,1.19.11-3.95,3.28h0a.83.83,0,0,1-1.17-.11h0l-3.28-3.95,1.15.1-3.95,3.28h0a.79.79,0,0,1-1.11-.1h0c-1.09-1.32-2.2-2.62-3.27-4l1.07.1c-1.33,1.08-2.68,2.13-4.1,3.1a.51.51,0,0,1-.65-.78c1.21-1.22,2.48-2.37,3.77-3.49a.75.75,0,0,1,1.05.07l0,0c1.13,1.29,2.21,2.61,3.32,3.91l-1.12-.1,3.92-3.31a.81.81,0,0,1,1.14.1h0l3.31,3.92-1.17-.1L82.38,55a.85.85,0,0,1,1.19.1h0l3.28,3.95L85.68,59l3.95-3.28h0a.81.81,0,0,1,1.32.75v.08l-.18-.64L94,59.83l-1.12-.1c1.32-1.09,2.63-2.19,4-3.26l0,0a.74.74,0,0,1,1,.11q1.62,2,3.11,4.09a.51.51,0,0,1-.78.65Z"/><path class="cls-5" d="M89,66.39v-.08l.84.49A50.3,50.3,0,0,1,86,70.23.77.77,0,0,1,85,70.14h0v0l-3.26-4,1.14.12-4,3.26a.83.83,0,0,1-1.17-.12h0c-1.09-1.32-2.17-2.65-3.24-4l1.18.12-4,3.22h0a.81.81,0,0,1-1.13-.12l-3.22-4,1.1.11a39.18,39.18,0,0,1-4.16,3,.51.51,0,0,1-.64-.79,39.17,39.17,0,0,1,3.81-3.45.78.78,0,0,1,1.1.11h0l3.26,4-1.14-.12,4-3.26a.83.83,0,0,1,1.17.12h0c1.09,1.32,2.16,2.65,3.23,4l-1.17-.12,4-3.21h0a.8.8,0,0,1,1.13.12l3.21,4L85,69a50.3,50.3,0,0,1,4.15-3l.11-.07a.49.49,0,0,1,.73.55l0,.08a.51.51,0,0,1-1-.17Z"/><path class="cls-5" d="M51.1,23.52c-.81.82-1.66,1.59-2.52,2.34a.68.68,0,0,1-1-.07h0l0,0q-1.12-1.3-2.2-2.63l1.06.11-2.65,2.18a.77.77,0,0,1-1.08-.1h0l-2.18-2.65a.77.77,0,0,1-.17-.61h0V22l1.27.74L39,24.9a.8.8,0,0,1-1.12-.11h0L35.7,22.13l1.13.12L34.16,24.4h0a.78.78,0,0,1-1.1-.12L30.9,21.61l1.09.11-2.67,2.15h0a.75.75,0,0,1-1.05-.11h0c-.71-.89-1.45-1.77-2.14-2.68l1,.1a33.51,33.51,0,0,1-2.81,2,.49.49,0,0,1-.61-.75,33.53,33.53,0,0,1,2.51-2.35.71.71,0,0,1,1,.07l0,0c.75.86,1.47,1.76,2.2,2.64l-1.06-.11L31,20.53a.77.77,0,0,1,1.08.11h0l2.18,2.65-1.11-.11L35.81,21a.8.8,0,0,1,1.13.11h0l2.16,2.66L38,23.66l2.67-2.15h0a.78.78,0,0,1,1.26.74v.05l-.17-.62,2.15,2.67-1.08-.11,2.67-2.15a.76.76,0,0,1,1.06.11q1.09,1.33,2.13,2.69l-1-.1c.91-.7,1.84-1.37,2.8-2a.49.49,0,0,1,.61.75Z"/><path class="cls-5" d="M48.41,18.39Q47.16,17.2,46,15.91L47,16c-.85.76-1.73,1.5-2.6,2.24a.75.75,0,0,1-1.06-.09h0l-2.22-2.62a.76.76,0,0,1-.17-.6h0v-.05l1.26.71-2.62,2.22a.79.79,0,0,1-1.11-.09h0L36.3,15.06l1.14.1L34.8,17.35h0a.79.79,0,0,1-1.11-.1h0l-2.19-2.64,1.09.1L29.94,16.9h0a.75.75,0,0,1-1.06-.1h0l-2.18-2.65,1,.09a31.58,31.58,0,0,1-2.79,2,.49.49,0,0,1-.62-.74,31.61,31.61,0,0,1,2.47-2.39.71.71,0,0,1,1,.06h0l0,0L30,15.83,29,15.73l2.62-2.22a.77.77,0,0,1,1.09.09h0l2.22,2.62-1.12-.1,2.62-2.21a.81.81,0,0,1,1.13.09h0l2.19,2.64-1.11-.1,2.64-2.19h0a.77.77,0,0,1,1.26.71v.05l-.17-.61,2.19,2.64-1.06-.09c.88-.73,1.76-1.46,2.66-2.17l0,0a.7.7,0,0,1,1,.11q1.08,1.34,2,2.78a.49.49,0,0,1-.74.62Z"/><path class="cls-5" d="M40.25,28.71v-.05l.82.43a22.75,22.75,0,0,1-2.4,2.46.74.74,0,0,1-1-.05h0l-2.29-2.55,1.09.07-2.55,2.29a.79.79,0,0,1-1.12-.06h0c-.77-.85-1.53-1.7-2.27-2.57l1.13.07L29,31h0a.77.77,0,0,1-1.08-.08l-2.25-2.59,1.06.07A17.86,17.86,0,0,1,24,30.45a.49.49,0,0,1-.64-.73,17.84,17.84,0,0,1,2.4-2.47.75.75,0,0,1,1.05.06h0l2.29,2.55L28,29.8l2.55-2.29a.79.79,0,0,1,1.12.06h0c.77.85,1.52,1.71,2.27,2.57l-1.12-.07,2.59-2.25h0a.77.77,0,0,1,1.08.08l2.25,2.59-1.05-.07a22.74,22.74,0,0,1,2.74-2.08l.14-.09a.45.45,0,0,1,.68.52l0,.05a.49.49,0,0,1-1-.12Z"/><path class="cls-6" d="M146.41,32.51c-5.07-.28-7.64-4.15-12.61-4.42s-6.37,3.37-12.36,3c-5.09-.28-6.39-4.08-11.6-4.37A16.76,16.76,0,0,0,102,28.38"/><path class="cls-6" d="M145.89,36.79c-5.07-.28-7.64-4.15-12.61-4.42s-6.37,3.37-12.36,3c-5.09-.28-6.39-4.08-11.6-4.37A16.6,16.6,0,0,0,102,32.4"/><path class="cls-6" d="M145.38,41c-5.07-.28-7.64-4.15-12.61-4.42s-6.37,3.37-12.36,3c-5.09-.28-6.39-4.08-11.6-4.37a16.81,16.81,0,0,0-9.22,2.33"/><path class="cls-6" d="M144.86,45.32c-5.07-.28-7.64-4.15-12.61-4.42s-6.37,3.37-12.36,3c-5.09-.28-6.39-4.08-11.6-4.37a16.81,16.81,0,0,0-9.22,2.33"/><circle class="cls-6" cx="94.59" cy="30.3" r="10.65" transform="translate(51.97 120.02) rotate(-82.36)"/><path class="cls-6" d="M95,38.06q-.38,0-.75,0"/><path class="cls-7" d="M90.81,37.16a7.81,7.81,0,0,1,6.7-14.08"/><path class="cls-6" d="M99.07,24q.3.22.59.47"/><path class="cls-5" d="M95.52,34.36a7.28,7.28,0,0,1-1-.11c-.25-.07-.49-.12-.74-.2a6.65,6.65,0,0,1-1.4-.64,5.11,5.11,0,0,1-2.12-2.33,2.59,2.59,0,0,1-.09-1.83,2.16,2.16,0,0,1,.56-.84,2.86,2.86,0,0,1,.77-.49,2.7,2.7,0,0,1,1.79-.06,3.45,3.45,0,0,1,1.41.84l-.88.2a3.56,3.56,0,0,1,.91-1.37,2.65,2.65,0,0,1,1.64-.73,2.78,2.78,0,0,1,.91.11,4,4,0,0,1,.47.2,3.19,3.19,0,0,1,.4.32,2.57,2.57,0,0,1,.67,1.71,5.25,5.25,0,0,1-.95,3,6.74,6.74,0,0,1-1,1.18c-.19.18-.39.33-.58.5A7.06,7.06,0,0,1,95.52,34.36Zm-.29-1.27a1.51,1.51,0,0,1,.31-.28c.16-.14.32-.27.47-.42a6.16,6.16,0,0,0,.79-1,4,4,0,0,0,.74-2.22,1.29,1.29,0,0,0-.29-.84s-.1-.07-.14-.11l-.17-.08a1.5,1.5,0,0,0-.46-.06c-.58,0-1.18.6-1.59,1.24l-.1.15a.49.49,0,0,1-.67.15.5.5,0,0,1-.12-.1h0a2.36,2.36,0,0,0-2-.43,1.59,1.59,0,0,0-.39.25.85.85,0,0,0-.2.3,1.3,1.3,0,0,0,.08.89,3.83,3.83,0,0,0,1.59,1.69,6,6,0,0,0,1.12.53l.6.17A1.49,1.49,0,0,1,95.23,33.09Z"/></g></svg>