<svg xmlns="http://www.w3.org/2000/svg" viewBox="0 0 235.4 159.07"><defs><style>.cls-1{fill:#fff;}.cls-2{fill:#f47a5c;opacity:0.2;}.cls-3{fill:#ffd54c;opacity:0.3;}.cls-4,.cls-6,.cls-7{fill:none;stroke:#f69679;stroke-linecap:round;stroke-linejoin:round;}.cls-4{stroke-width:1.86px;}.cls-5{fill:#f69679;}.cls-6,.cls-7{stroke-width:1.34px;}.cls-7{stroke-dasharray:2.24 4.48;}</style></defs><title>icons3-illus</title><g id="Layer_1" data-name="Layer 1"><path class="cls-1" d="M23.17,15.58c7.22-14,70.28-3.52,95.71.7s76.37,9.17,93.58,10.36c21.07,1.46,8.63,38.82,7,61.83s-3.4,61.38-19.57,62.81-55-7.41-87.56-10c-32.06-2.59-93-2-100.14-16.38S16,29.49,23.17,15.58Z"/><path class="cls-2" d="M114.77,35.56c4-7.26,12-10.5,23.94-6.08,10.55,3.92,9.66,15,4.58,23.26-3.79,6.15-11.15,9.92-21.91,3.43S112.09,40.4,114.77,35.56Z"/><path class="cls-3" d="M161.71,98.53c-2.73,4.82,3.46,28.22,8.28,27.31s27.07-5.74,25.14-11.51S189.77,91,183.58,92.51,164.09,94.31,161.71,98.53Z"/><path class="cls-3" d="M215,68.63a52.36,52.36,0,0,0-8.33-1.93,8.2,8.2,0,0,0,.62-1.12c3.62-8.14,8.71-22.16-1.15-25.8s-18.79-5.63-21.37.2-10.11,24.79-1.66,28.18c2.54,1,5.76,2.5,5,5.16-1.48,5.49-3.66,14.11,4,18.32s17.35,5.58,20.86-1.22Z"/><rect class="cls-2" x="36.54" y="20.26" width="46.24" height="7.83" rx="2.53" ry="2.53" transform="translate(2.91 -6.2) rotate(6.1)"/><rect class="cls-2" x="85.92" y="73.44" width="69.86" height="11.35" rx="2.53" ry="2.53" transform="translate(9.09 -12.4) rotate(6.1)"/><rect class="cls-2" x="84.59" y="85.93" width="69.83" height="11.35" rx="2.53" ry="2.53" transform="translate(10.41 -12.18) rotate(6.1)"/><rect class="cls-2" x="83.48" y="98.57" width="69.34" height="11.35" rx="2.53" ry="2.53" transform="translate(11.75 -11.97) rotate(6.1)"/><rect class="cls-2" x="35.58" y="29.3" width="46.24" height="7.83" rx="2.53" ry="2.53" transform="translate(3.86 -6.05) rotate(6.1)"/><rect class="cls-2" x="34.6" y="38.4" width="46.24" height="7.83" rx="2.53" ry="2.53" transform="translate(4.82 -5.89) rotate(6.1)"/><path class="cls-4" d="M26.67,18.9c-2.19,13.92-9.27,93.18-9.78,100.32-.49,6.94,4.31,7.31,13.75,8.68s45.29,5.4,71.2,8,70.32,7.89,92.26,10.08c8.53.85,11.73.06,13-7.31,2.66-15.52,10.77-91.39,10.69-99.65-.05-5.88-3.07-6.63-11.13-7.9-12.95-2-54.75-6.14-97.06-10.54S41.51,13.82,36.17,13,27.4,14.33,26.67,18.9Z"/><path class="cls-5" d="M187.6,100c.82,3,1.47,6,2.12,9l.93,4.53.23,1.16a5.33,5.33,0,0,1,.06,1.41,5.2,5.2,0,0,1-3.24,4.3,15.62,15.62,0,0,1-2.43.55l-4.54.84-4.54.84-2.27.42-.57.1a6.51,6.51,0,0,1-.7.08,5.29,5.29,0,0,1-1.42-.11,5.22,5.22,0,0,1-3.91-3.79l-1-4.56-1.91-9a17.87,17.87,0,0,1-.43-2.44,5.15,5.15,0,0,1,2.64-4.68,6.69,6.69,0,0,1,2.52-.72c3-.44,6.1-.89,9.18-1.12a.61.61,0,0,1,.19,1.19c-3,.74-6,1.24-9.08,1.76a4.88,4.88,0,0,0-1.89.52,3.29,3.29,0,0,0-1.25,1.26,3.25,3.25,0,0,0-.41,1.72,18.25,18.25,0,0,0,.4,2.1l2,9,1,4.47a3.23,3.23,0,0,0,2.41,2.32,3.26,3.26,0,0,0,.87.07,4.41,4.41,0,0,0,.45,0l.57-.1,2.27-.41,4.55-.81,4.55-.81a15.61,15.61,0,0,0,2.07-.43,3.29,3.29,0,0,0,2.06-2.7,3.43,3.43,0,0,0,0-.89l-.21-1.11-.88-4.54c-.56-3-1.11-6.06-1.5-9.12a.61.61,0,0,1,1.19-.24Z"/><path class="cls-4" d="M214.77,72.34l-15.37-6a4.22,4.22,0,0,0-5.47,2.43l-5.3,13.87a4.22,4.22,0,0,0,2.45,5.46L203.9,93a4.22,4.22,0,0,0,5.46-2.52l5-13.84"/><path class="cls-1" d="M188.95,40.46l14.76,1.68a4.22,4.22,0,0,1,3.72,4.62l-1.78,17.72a4.22,4.22,0,0,1-4.75,3.76L186.08,66.3a4.22,4.22,0,0,1-3.65-4.63l1.35-12.74"/><path class="cls-5" d="M189,39.86c3.35.16,6.68.48,10,.82,1.68.17,3.28.35,5,.56a5.18,5.18,0,0,1,4.23,4,5.12,5.12,0,0,1,.11,1.53L208.28,48l-.24,2.5-.49,5-.49,5-.24,2.5-.12,1.25a6.8,6.8,0,0,1-.26,1.44,5.23,5.23,0,0,1-4.62,3.6,17.29,17.29,0,0,1-2.69-.25l-2.49-.33-9.95-1.33-.62-.08a6.79,6.79,0,0,1-.73-.14,5.09,5.09,0,0,1-1.41-.6,5.15,5.15,0,0,1-2-2.27,5.31,5.31,0,0,1-.4-2.94l.27-2.49c.39-3.32.77-6.65,1.38-9.95a.61.61,0,0,1,1.2.13c-.09,3.35-.42,6.68-.73,10l-.26,2.5a3.86,3.86,0,0,0,0,1,3.05,3.05,0,0,0,.27.93,3.25,3.25,0,0,0,1.27,1.43,3.18,3.18,0,0,0,.89.37,4.72,4.72,0,0,0,.5.09l.62.08,10,1.27,2.49.32a17.76,17.76,0,0,0,2.3.23A3.24,3.24,0,0,0,204.51,65a15.38,15.38,0,0,0,.31-2.27l.26-2.5.52-5,.52-5,.26-2.5.12-1.22a3.2,3.2,0,0,0-.07-1,3.28,3.28,0,0,0-2.66-2.51l-4.94-.59c-3.32-.42-6.64-.85-9.94-1.44a.61.61,0,0,1,.14-1.2Z"/><path class="cls-3" d="M188.95,40.46l14.76,1.68a4.22,4.22,0,0,1,3.72,4.62l-1.78,17.72a4.22,4.22,0,0,1-4.75,3.76L186.08,66.3a4.22,4.22,0,0,1-3.65-4.63l1.35-12.74"/><path class="cls-5" d="M189,39.86c3.35.16,6.68.48,10,.82,1.68.17,3.28.35,5,.56a5.18,5.18,0,0,1,4.23,4,5.12,5.12,0,0,1,.11,1.53L208.28,48l-.24,2.5-.49,5-.49,5-.24,2.5-.12,1.25a6.8,6.8,0,0,1-.26,1.44,5.23,5.23,0,0,1-4.62,3.6,17.29,17.29,0,0,1-2.69-.25l-2.49-.33-9.95-1.33-.62-.08a6.79,6.79,0,0,1-.73-.14,5.09,5.09,0,0,1-1.41-.6,5.15,5.15,0,0,1-2-2.27,5.31,5.31,0,0,1-.4-2.94l.27-2.49c.39-3.32.77-6.65,1.38-9.95a.61.61,0,0,1,1.2.13c-.09,3.35-.42,6.68-.73,10l-.26,2.5a3.86,3.86,0,0,0,0,1,3.05,3.05,0,0,0,.27.93,3.25,3.25,0,0,0,1.27,1.43,3.18,3.18,0,0,0,.89.37,4.72,4.72,0,0,0,.5.09l.62.08,10,1.27,2.49.32a17.76,17.76,0,0,0,2.3.23A3.24,3.24,0,0,0,204.51,65a15.38,15.38,0,0,0,.31-2.27l.26-2.5.52-5,.52-5,.26-2.5.12-1.22a3.2,3.2,0,0,0-.07-1,3.28,3.28,0,0,0-2.66-2.51l-4.94-.59c-3.32-.42-6.64-.85-9.94-1.44a.61.61,0,0,1,.14-1.2Z"/><path class="cls-5" d="M144.29,109.61c-1.5-1.63-2.94-3.32-4.37-5l1.23.13c-1.71,1.41-3.41,2.83-5.13,4.21a.94.94,0,0,1-1.32-.14l-4.17-5.16,1.34.15L126.7,108a1,1,0,0,1-1.37-.14h0l-4.17-5.16a1,1,0,0,1-.21-.78h0l0-.1,1.6.94-5.16,4.17a1,1,0,0,1-1.42-.15h0l-4.15-5.18,1.4.15-5.19,4.14h0a1,1,0,0,1-1.37-.15l-4.14-5.19,1.35.15-5.19,4.14a.94.94,0,0,1-1.32-.14c-1.38-1.73-2.77-3.45-4.12-5.21l1.25.14c-.87.69-1.76,1.34-2.65,2s-1.79,1.3-2.7,1.93a.61.61,0,0,1-.76-.94c.81-.76,1.63-1.5,2.47-2.22s1.67-1.46,2.53-2.15a.88.88,0,0,1,1.23.12l0,0c1.42,1.7,2.81,3.42,4.2,5.14l-1.32-.14,5.16-4.17a1,1,0,0,1,1.35.14h0l4.17,5.16-1.38-.15,5.16-4.17a1,1,0,0,1,1.4.15h0l4.17,5.17-1.42-.15,5.19-4.14h0a1,1,0,0,1,1.6.95l0,.1-.2-.79,4.14,5.19-1.37-.15,5.19-4.14h0a1,1,0,0,1,1.34.15l4.14,5.19-1.32-.14c1.72-1.39,3.47-2.74,5.22-4.11l0,0a.85.85,0,0,1,1.19.15h0c1.34,1.76,2.68,3.53,4,5.34a.61.61,0,0,1-.94.76Z"/><path class="cls-5" d="M136.8,82.94q-2.3-2.41-4.45-4.94l1.25.12c-1.67,1.45-3.38,2.85-5.08,4.27a.94.94,0,0,1-1.33-.12h0L123,77.16a1,1,0,0,1-.21-.76h0l0-.1,1.57.9-5.1,4.24a1,1,0,0,1-1.39-.13h0l-4.24-5.1,1.42.14-5.13,4.21h0a1,1,0,0,1-1.39-.14h0l-4.21-5.13,1.37.13-5.13,4.21h0a.94.94,0,0,1-1.33-.13h0c-1.4-1.72-2.82-3.41-4.2-5.14l1.28.12c-.87.69-1.73,1.39-2.62,2s-1.78,1.32-2.69,2a.61.61,0,0,1-.77-.93c.79-.78,1.6-1.54,2.42-2.28s1.66-1.46,2.5-2.18a.89.89,0,0,1,1.25.09h0l0,0c1.44,1.68,2.84,3.4,4.26,5.09l-1.34-.13,5.1-4.24a1,1,0,0,1,1.36.13h0l4.24,5.1-1.4-.13,5.11-4.24a1,1,0,0,1,1.42.13h0L119.36,80,118,79.9l5.13-4.21h0a1,1,0,0,1,1.57.9l0,.1-.21-.77,4.21,5.13-1.33-.13c1.71-1.4,3.42-2.81,5.15-4.19l0,0a.88.88,0,0,1,1.23.14q2.08,2.59,4,5.3a.61.61,0,0,1-.93.77Z"/><path class="cls-5" d="M122.2,89.45v-.1l1,.59c-.79.79-1.61,1.52-2.44,2.26s-1.69,1.43-2.54,2.14a.92.92,0,0,1-1.3-.13h0L112.73,89l1.35.15-5.16,4.17a1,1,0,0,1-1.39-.15h0q-2.09-2.58-4.15-5.18l1.4.16-5.2,4.12h0a1,1,0,0,1-1.35-.16l-4.12-5.2,1.32.15A53.54,53.54,0,0,1,90,91a.61.61,0,0,1-.76-.94,53.54,53.54,0,0,1,5-4.41.93.93,0,0,1,1.31.14h0l4.17,5.16-1.36-.15,5.16-4.17a1,1,0,0,1,1.4.15h0q2.1,2.57,4.15,5.18l-1.4-.15,5.2-4.12h0a1,1,0,0,1,1.35.16l4.12,5.2-1.31-.14q1.31-1,2.64-2c.9-.65,1.8-1.29,2.74-1.89l.12-.07a.59.59,0,0,1,.88.66l0,.1a.61.61,0,0,1-1.19-.21Z"/><path class="cls-5" d="M73.41,33.59c-1.08,1-2.19,2-3.32,3a.69.69,0,0,1-1-.08h0l0,0q-1.43-1.7-2.82-3.43l1.06.12-3.45,2.79a.77.77,0,0,1-1.08-.11h0L60,32.35a.78.78,0,0,1-.16-.62h0v-.07l1.27.74-3.45,2.79a.8.8,0,0,1-1.12-.12h0l-2.78-3.46,1.13.12L51.44,34.5h0a.79.79,0,0,1-1.1-.12l-2.77-3.47,1.08.12L45.19,33.8h0a.75.75,0,0,1-1.05-.12h0c-.92-1.16-1.86-2.3-2.75-3.48l1,.11q-1.75,1.37-3.6,2.6a.49.49,0,0,1-.61-.75q1.6-1.55,3.31-3a.71.71,0,0,1,1,.09l0,0c1,1.13,1.87,2.29,2.81,3.43l-1.06-.12,3.45-2.79a.77.77,0,0,1,1.08.11h0l2.79,3.45-1.11-.12,3.45-2.79A.8.8,0,0,1,55,30.6h0l2.78,3.46-1.13-.12,3.47-2.77h0a.78.78,0,0,1,1.26.75V32l-.16-.62L64,34.83l-1.08-.12,3.47-2.77a.75.75,0,0,1,1.06.12q1.39,1.73,2.74,3.49l-1-.11c1.17-.9,2.37-1.78,3.6-2.61a.49.49,0,0,1,.61.75Z"/><path class="cls-5" d="M70.17,27q-1.56-1.59-3-3.28l1,.1c-1.12,1-2.26,1.91-3.39,2.86a.75.75,0,0,1-1.06-.1h0l-2.84-3.41a.76.76,0,0,1-.17-.6h0v-.07l1.26.72L58.57,26a.79.79,0,0,1-1.11-.1h0l-2.84-3.41,1.14.11L52.33,25.4h0a.79.79,0,0,1-1.11-.11h0L48.4,21.86l1.09.1-3.43,2.81h0A.75.75,0,0,1,45,24.68h0c-.93-1.15-1.89-2.28-2.8-3.44l1,.1c-1.16.92-2.33,1.82-3.57,2.64a.49.49,0,0,1-.62-.75c1-1.06,2.14-2.05,3.27-3a.71.71,0,0,1,1,.07l0,0c1,1.12,1.9,2.27,2.85,3.4l-1.07-.1,3.41-2.84a.77.77,0,0,1,1.09.1h0l2.84,3.41-1.12-.11,3.41-2.84a.81.81,0,0,1,1.14.1h0l2.81,3.43-1.11-.11L61,22h0a.77.77,0,0,1,1.25.72v.07l-.17-.61,2.81,3.43-1.06-.1c1.14-.94,2.28-1.88,3.45-2.79l0,0a.7.7,0,0,1,1,.11q1.39,1.73,2.65,3.57a.49.49,0,0,1-.75.62Z"/><path class="cls-5" d="M59.57,40.33v-.07l.81.44a39.4,39.4,0,0,1-3.18,3.1.73.73,0,0,1-1-.05h0l0,0L53.22,40.4l1.09.07L51,43.41a.79.79,0,0,1-1.12-.07h0c-1-1.11-2-2.22-2.92-3.34l1.13.08L44.71,43h0a.77.77,0,0,1-1.09-.08l-2.9-3.36,1.06.07a30,30,0,0,1-3.52,2.71.49.49,0,0,1-.64-.73,30,30,0,0,1,3.17-3.11.75.75,0,0,1,1.05.07h0l2.93,3.33-1.09-.07L47,38.86a.8.8,0,0,1,1.12.07h0c1,1.11,1.95,2.22,2.91,3.35l-1.12-.08,3.36-2.9h0a.77.77,0,0,1,1.08.08l2.9,3.36-1.05-.07a39.39,39.39,0,0,1,3.51-2.72l.11-.07a.46.46,0,0,1,.7.51l0,.07a.49.49,0,0,1-1-.13Z"/><path class="cls-6" d="M196.65,46.14c-6.55-.41-9.84-5.43-16.26-5.82s-8.27,4.31-16,3.83c-6.58-.41-8.23-5.33-15-5.74a21.67,21.67,0,0,0-10.21,2"/><path class="cls-6" d="M196,51.67c-6.55-.41-9.84-5.43-16.26-5.82s-8.27,4.31-16,3.83c-6.58-.41-8.23-5.33-15-5.74a21.46,21.46,0,0,0-9.47,1.69"/><path class="cls-6" d="M195.25,57.16c-6.55-.41-9.84-5.43-16.26-5.82s-8.27,4.31-16,3.83c-6.58-.41-8.23-5.33-15-5.74a21.74,21.74,0,0,0-11.94,2.93"/><path class="cls-6" d="M194.55,62.68c-6.55-.41-9.84-5.43-16.26-5.82s-8.27,4.31-16,3.83c-6.58-.41-8.23-5.33-15-5.74a21.74,21.74,0,0,0-11.94,2.93"/><circle class="cls-6" cx="129.67" cy="42.84" r="13.77" transform="translate(69.15 165.26) rotate(-81.98)"/><circle class="cls-6" cx="129.67" cy="42.84" r="7.86" transform="translate(69.15 165.26) rotate(-81.98)"/><path class="cls-6" d="M132.46,53.35a10.79,10.79,0,0,1-1.09.23"/><path class="cls-7" d="M126.92,53.36A10.88,10.88,0,1,1,136,34"/><path class="cls-6" d="M137.64,35.44a10.9,10.9,0,0,1,.72.86"/><path class="cls-5" d="M130.41,46.34a6.7,6.7,0,0,1-.94-.11c-.23-.06-.47-.12-.7-.19a6.34,6.34,0,0,1-1.33-.62,4.9,4.9,0,0,1-2-2.25,2.51,2.51,0,0,1-.08-1.77,2.1,2.1,0,0,1,.56-.81,2.76,2.76,0,0,1,.75-.47,2.61,2.61,0,0,1,1.73,0,3.28,3.28,0,0,1,1.35.82h0l-.91.2a3.39,3.39,0,0,1,.88-1.31,2.56,2.56,0,0,1,1.59-.7,2.69,2.69,0,0,1,.89.11,3.81,3.81,0,0,1,.45.2,3.08,3.08,0,0,1,.39.32,2.49,2.49,0,0,1,.64,1.66,5,5,0,0,1-.92,2.87,6.43,6.43,0,0,1-1,1.12c-.18.17-.37.32-.56.47A6.52,6.52,0,0,1,130.41,46.34ZM130.13,45a1.17,1.17,0,0,1,.27-.26c.15-.13.3-.25.44-.39a5.81,5.81,0,0,0,.75-.9,3.71,3.71,0,0,0,.71-2.07,1.17,1.17,0,0,0-.25-.77.77.77,0,0,0-.27-.17,1.37,1.37,0,0,0-.42-.06c-.52,0-1.08.55-1.48,1.14l-.26.4a.36.36,0,0,1-.49.1.36.36,0,0,1-.16-.3,2.22,2.22,0,0,0-1.81-.4,1.45,1.45,0,0,0-.36.23.76.76,0,0,0-.18.27,1.18,1.18,0,0,0,.07.8,3.58,3.58,0,0,0,1.47,1.59,5.67,5.67,0,0,0,1,.5l.56.17A1.16,1.16,0,0,1,130.13,45Z"/></g></svg>