<svg xmlns="http://www.w3.org/2000/svg" viewBox="0 0 319.12 214.94"><defs><style>.cls-1{fill:#f47a5c;opacity:0.2;}.cls-2{fill:#fff;}.cls-3,.cls-6,.cls-7{fill:none;stroke:#f69679;stroke-linecap:round;stroke-linejoin:round;}.cls-3{stroke-width:2.5px;}.cls-4{fill:#f69679;}.cls-5{fill:#ffd54c;opacity:0.3;}.cls-6,.cls-7{stroke-width:1.8px;}.cls-7{stroke-dasharray:3.01 6.02;}</style></defs><title>envelope</title><g id="Layer_1" data-name="Layer 1"><path class="cls-1" d="M17.68,50.8c5.44-20.4,91.21-24.92,125.81-26.74s102.87-10,125.8-13.44c28.07-4.17,22.55,48.45,27,79.12s12.76,75.81-8,82.37-74.3,6.16-117.81,12.12c-42.82,5.87-122.62,24.28-136.15,7.43S12.25,71.14,17.68,50.8Z"/><path class="cls-2" d="M143.67,50.57c3.19-10.7,12.77-17.27,29.66-14.9,15,2.1,17,16.91,12.73,29.2-3.2,9.16-11.77,16.24-27.76,10.84S141.55,57.69,143.67,50.57Z"/><path class="cls-2" d="M284.7,65a70.36,70.36,0,0,0-11.48-.13,11,11,0,0,0,.49-1.65c2.4-11.73,5-31.6-9-33.53s-26.29-2-28,6.43-6.11,35.45,6,37.47c3.63.61,8.29,1.62,8.12,5.31-.35,7.64-.72,19.57,10.58,22.88s24.39,2.31,27-7.62Z"/><rect class="cls-2" x="36.99" y="46.28" width="62.13" height="10.52" rx="2.53" ry="2.53" transform="translate(-5.26 7.8) rotate(-6.31)"/><rect class="cls-2" x="38.33" y="58.43" width="62.13" height="10.52" rx="2.53" ry="2.53" transform="translate(-6.58 8.02) rotate(-6.31)"/><rect class="cls-2" x="39.68" y="70.65" width="62.13" height="10.52" rx="2.53" ry="2.53" transform="translate(-7.92 8.24) rotate(-6.31)"/><path class="cls-3" d="M23.24,54.16c1.14,18.91,14.24,119.25,15.65,128.77,1.36,9.25,7.76,8.35,20.56,7.42s61-6,95.73-10.13,94.57-10,124-13.43c11.44-1.35,15.41-3.3,14.94-13.34-1-21.14-11.77-117.33-14.25-128.14-1.77-7.7-5.95-7.81-16.89-7.15-17.58,1.07-73.63,7.75-130.42,14.21S41.24,43.2,34,43.73,22.87,47.94,23.24,54.16Z"/><path class="cls-3" d="M285.54,69.94l-21.89-3.37a5.67,5.67,0,0,0-6.47,4.77l-2.94,19.74a5.67,5.67,0,0,0,4.8,6.45l18.21,2.64a5.67,5.67,0,0,0,6.44-4.88l2.54-19.6"/><path class="cls-2" d="M242.44,35.57l19.86-2.06a5.67,5.67,0,0,1,6.22,5l2.78,23.77a5.67,5.67,0,0,1-5.14,6.31l-20,1.74a5.67,5.67,0,0,1-6.13-5l-1.91-17.11"/><path class="cls-4" d="M242.35,34.76c4.44-.75,8.91-1.29,13.37-1.81l3.35-.37c1.14-.12,2.18-.25,3.41-.35a7,7,0,0,1,6.69,4,6.88,6.88,0,0,1,.59,2l.21,1.7.4,3.35.8,6.7.8,6.7.4,3.35.2,1.67a9.14,9.14,0,0,1,.07,2,7,7,0,0,1-5,6.06,9.64,9.64,0,0,1-1.92.3L264,70.1l-3.36.28-13.44,1.13-.84.07a9.11,9.11,0,0,1-1,0,6.84,6.84,0,0,1-2-.38,6.92,6.92,0,0,1-3.28-2.41,6.63,6.63,0,0,1-1-1.81,6.73,6.73,0,0,1-.28-1c-.06-.35-.11-.68-.13-.94l-.37-3.35c-.45-4.47-.91-8.95-1.06-13.45a.81.81,0,0,1,1.61-.18c.85,4.43,1.38,8.89,1.94,13.35l.38,3.35c0,.3.07.52.1.73a4.2,4.2,0,0,0,.18.63,4.1,4.1,0,0,0,.62,1.14,4.37,4.37,0,0,0,2.08,1.51,4.28,4.28,0,0,0,1.28.23,6.37,6.37,0,0,0,.69,0l.84-.08,13.43-1.21,3.36-.3a23.84,23.84,0,0,0,3.08-.36A4.35,4.35,0,0,0,270,63.34a6.33,6.33,0,0,0-.06-1.39l-.19-1.67-.38-3.35-.76-6.7-.76-6.7-.38-3.35-.19-1.64a4.31,4.31,0,0,0-.37-1.25,4.41,4.41,0,0,0-4.22-2.53L256,35.4c-4.48.41-9,.8-13.46,1a.81.81,0,0,1-.17-1.62Z"/><rect class="cls-2" x="111.49" y="99.98" width="93.87" height="15.25" rx="2.53" ry="2.53" transform="translate(-10.87 18.07) rotate(-6.31)"/><rect class="cls-2" x="113.34" y="116.75" width="93.84" height="15.25" rx="2.53" ry="2.53" transform="translate(-12.71 18.38) rotate(-6.31)"/><rect class="cls-2" x="115.55" y="133.73" width="93.18" height="15.25" rx="2.53" ry="2.53" transform="translate(-14.56 18.69) rotate(-6.31)"/><path class="cls-4" d="M198,140.86q-1.83-1.28-3.62-2.62c-1.19-.9-2.38-1.78-3.56-2.69l1.65-.18c-1.83,2.34-3.65,4.69-5.52,7a1.26,1.26,0,0,1-1.77.19l-7-5.57,1.81-.2-5.57,7a1.31,1.31,0,0,1-1.83.2h0l-7-5.57a1.32,1.32,0,0,1-.5-1h0v-.14l2.37.77-5.57,7a1.36,1.36,0,0,1-1.91.21h0l-6.94-5.61,1.88-.2-5.61,6.94h0a1.31,1.31,0,0,1-1.84.2L140.57,141l1.81-.2-5.61,6.94h0a1.26,1.26,0,0,1-1.77.19c-2.31-1.87-4.63-3.74-6.91-5.65l1.68-.18c-.94,1.15-1.92,2.27-2.9,3.4s-2,2.23-3,3.32a.81.81,0,0,1-1.27-1c.85-1.23,1.71-2.44,2.6-3.63s1.77-2.39,2.69-3.56a1.18,1.18,0,0,1,1.65-.2l0,0c2.36,1.82,4.68,3.67,7,5.53l-1.78.19,5.57-7a1.29,1.29,0,0,1,1.81-.2h0l7,5.57-1.85.2,5.57-7a1.34,1.34,0,0,1,1.88-.21h0l7,5.57-1.91.21,5.61-6.94h0a1.33,1.33,0,0,1,2.37.78v.14l-.5-1,6.94,5.61-1.84.2,5.61-6.94h0a1.28,1.28,0,0,1,1.8-.19l6.94,5.61-1.77.19c1.86-2.32,3.76-4.6,5.66-6.9l0,0a1.15,1.15,0,0,1,1.62-.15h0c1.14,1,2.26,1.93,3.39,2.9s2.24,2,3.33,3a.81.81,0,0,1-1,1.27Z"/><path class="cls-4" d="M180.47,108c-1.24-.83-2.47-1.67-3.67-2.55s-2.41-1.74-3.59-2.65l1.68-.21c-.9,1.18-1.78,2.38-2.7,3.55l-2.74,3.52a1.26,1.26,0,0,1-1.77.22h0l-7-5.47a1.29,1.29,0,0,1-.5-.93h0v-.14l2.32.72-5.47,7a1.33,1.33,0,0,1-1.86.23h0l-7-5.47,1.91-.23-5.52,7h0a1.33,1.33,0,0,1-1.87.22h0l-7-5.52,1.83-.22-5.52,7h0a1.27,1.27,0,0,1-1.78.21h0c-2.33-1.84-4.68-3.67-7-5.53l1.73-.21q-1.4,1.74-2.85,3.43c-1,1.13-1.95,2.25-3,3.34a.82.82,0,0,1-1.28-1c.81-1.26,1.65-2.48,2.52-3.69s1.74-2.41,2.64-3.6a1.21,1.21,0,0,1,1.7-.23l0,0c2.37,1.8,4.7,3.64,7.05,5.46l-1.79.22,5.47-7a1.3,1.3,0,0,1,1.82-.23h0l7,5.47-1.87.23,5.48-7a1.36,1.36,0,0,1,1.9-.24h0l7,5.52-1.87.23,5.52-7h0a1.3,1.3,0,0,1,2.32.73v.14l-.5-.95,7,5.52-1.78.22,2.76-3.5c.91-1.17,1.86-2.32,2.79-3.48l0,0a1.18,1.18,0,0,1,1.66-.19c1.16.93,2.3,1.88,3.43,2.85s2.25,1.94,3.36,2.95a.81.81,0,0,1-1,1.28Z"/><path class="cls-4" d="M163.19,120.78l0-.14,1.47.48c-.8,1.26-1.68,2.47-2.55,3.67s-1.79,2.37-2.72,3.54a1.24,1.24,0,0,1-1.75.2h0l-7-5.57,1.82-.19-5.57,7a1.33,1.33,0,0,1-1.87.21h0q-3.49-2.78-6.95-5.6l1.89-.2-5.63,6.92h0a1.29,1.29,0,0,1-1.82.19l-6.92-5.63,1.77-.19a71.37,71.37,0,0,1-5.95,6.66.82.82,0,0,1-1.26-1,71.37,71.37,0,0,1,5.26-7.22,1.25,1.25,0,0,1,1.76-.19h0l7,5.57-1.83.2,5.57-7a1.34,1.34,0,0,1,1.88-.21h0q3.49,2.77,6.94,5.61l-1.88.2,5.63-6.92h0a1.29,1.29,0,0,1,1.81-.19l6.92,5.63-1.76.19c.94-1.15,1.9-2.29,2.88-3.41s2-2.22,3.05-3.27l.13-.13a.79.79,0,0,1,1.34.61v.14a.82.82,0,0,1-1.62.07Z"/><path class="cls-4" d="M88.82,59.93c-.56.83-1.13,1.64-1.72,2.44S85.93,64,85.32,64.76a.94.94,0,0,1-1.31.16l0,0q-2.37-1.81-4.69-3.68l1.42-.15L77,65.73a1,1,0,0,1-1.45.16h0l-4.66-3.72a1,1,0,0,1-.39-.76h0V61.3l1.88.61-3.72,4.66a1.07,1.07,0,0,1-1.51.17h0L62.49,63,64,62.84l-3.75,4.63h0a1.06,1.06,0,0,1-1.48.16l-4.63-3.75,1.46-.16-3.75,4.63h0a1,1,0,0,1-1.42.15h0c-1.54-1.26-3.1-2.49-4.61-3.78l1.36-.15c-.63.77-1.28,1.52-1.95,2.26s-1.34,1.48-2,2.19a.65.65,0,0,1-1-.81Q43,67,43.86,65.77c.58-.81,1.18-1.6,1.79-2.39A1,1,0,0,1,47,63.21l0,0c1.58,1.2,3.12,2.46,4.68,3.7l-1.43.16L54,62.42a1,1,0,0,1,1.45-.16h0L60.09,66l-1.49.16,3.72-4.66a1.08,1.08,0,0,1,1.51-.17h0l4.64,3.74L67,65.22l3.75-4.63h0a1.05,1.05,0,0,1,1.87.62v.09l-.39-.77,4.63,3.75-1.45.16,3.75-4.63a1,1,0,0,1,1.42-.15q2.33,1.86,4.61,3.79l-1.33.14c.63-.77,1.3-1.51,1.95-2.26s1.33-1.48,2-2.2a.65.65,0,0,1,1,.81Z"/><path class="cls-4" d="M82.65,52.15q-2.51-1.63-4.88-3.43l1.34-.16c-1.18,1.6-2.41,3.16-3.63,4.73a1,1,0,0,1-1.42.18h0l-4.71-3.65a1,1,0,0,1-.4-.74h0V49l1.86.58-3.65,4.71a1.06,1.06,0,0,1-1.49.19h0l-4.71-3.65,1.53-.19-3.69,4.68h0a1.06,1.06,0,0,1-1.49.18h0L52.6,51.77l1.47-.18-3.69,4.68h0a1,1,0,0,1-1.42.17h0l-4.67-3.7,1.38-.17c-1.26,1.54-2.55,3.05-3.94,4.49a.65.65,0,0,1-1-.8c1.06-1.69,2.22-3.31,3.41-4.9a1,1,0,0,1,1.35-.19h0l0,0,4.72,3.64L48.77,55l3.65-4.71a1,1,0,0,1,1.46-.18h0l4.71,3.65L57.1,54l3.66-4.71a1.08,1.08,0,0,1,1.52-.19h0L67,52.76l-1.49.18,3.69-4.68h0a1,1,0,0,1,1.85.58v.09l-.4-.76,4.68,3.69L73.89,52c1.23-1.56,2.45-3.13,3.72-4.66l0,0a.94.94,0,0,1,1.32-.13q2.32,1.87,4.51,3.91a.65.65,0,0,1-.8,1Z"/><path class="cls-4" d="M72.61,72.77l0-.09,1.19.34c-.48.88-1,1.71-1.57,2.55S71.09,77.21,70.5,78a1,1,0,0,1-1.39.22h0L64.29,74.7l1.45-.22-3.52,4.81a1.06,1.06,0,0,1-1.49.23h0c-1.61-1.17-3.21-2.35-4.79-3.54l1.5-.22-3.57,4.77h0a1,1,0,0,1-1.45.21l-4.77-3.57L49,77a39.91,39.91,0,0,1-3.83,4.58.66.66,0,0,1-1-.77,39.92,39.92,0,0,1,3.26-5,1,1,0,0,1,1.4-.21h0l4.81,3.52-1.45.22,3.52-4.81a1.07,1.07,0,0,1,1.49-.23h0c1.61,1.17,3.2,2.36,4.79,3.55L60.5,78l3.57-4.77h0A1,1,0,0,1,65.52,73l4.77,3.57-1.4.21c.6-.79,1.21-1.58,1.84-2.35s1.28-1.52,2-2.24l.12-.13a.62.62,0,0,1,1.07.46v.09a.66.66,0,0,1-1.3.11Z"/><path class="cls-2" d="M224.89,125.14c-2.18,7.12,12.69,36,18.75,33.46s33.87-15.35,29.67-22.37-13.76-29-21.45-25.3S226.8,118.92,224.89,125.14Z"/><path class="cls-4" d="M259.29,119.59c1.93,3.67,3.67,7.43,5.38,11.2l2.53,5.67.63,1.45a7.16,7.16,0,0,1,.48,1.83,7,7,0,0,1-3,6.58,9.14,9.14,0,0,1-1.6.82l-1.43.6-5.72,2.41-5.72,2.41L248,153.78l-.71.3a8.74,8.74,0,0,1-.89.31,7.1,7.1,0,0,1-1.9.26,7,7,0,0,1-6.22-3.84l-2.6-5.7-5.12-11.31-.64-1.41a9.27,9.27,0,0,1-.63-1.66,6.92,6.92,0,0,1,2.11-6.91,6.7,6.7,0,0,1,1.57-1.05c.62-.29,1-.42,1.53-.62,3.87-1.46,7.74-2.93,11.72-4.12a.82.82,0,0,1,.59,1.51c-3.73,1.84-7.57,3.38-11.4,4.93a6.56,6.56,0,0,0-2.33,1.23,4.42,4.42,0,0,0-1.28,2,4.37,4.37,0,0,0,0,2.37,24.55,24.55,0,0,0,1.14,2.64L238.06,144l2.58,5.58a4.33,4.33,0,0,0,3.83,2.35,4.39,4.39,0,0,0,1.16-.16,5.92,5.92,0,0,0,.57-.2l.72-.3,2.87-1.19,5.73-2.38,5.73-2.38a21,21,0,0,0,2.6-1.17,4.42,4.42,0,0,0,1.92-4.14,4.62,4.62,0,0,0-.3-1.16l-.6-1.4-2.47-5.7c-1.62-3.81-3.21-7.63-4.61-11.54a.81.81,0,0,1,1.49-.65Z"/><path class="cls-5" d="M243.61,147.07c2.51,3.43,6.55-2.9,8.87-5.19s9.5,1.67,10.43-1.77-4.77-5.76-6.72-8.56,1.94-8.18-2.47-9.3-6.21,4.41-8.58,5.49-7.87-2.42-9.56.21,4.35,6.53,6.28,9.11S242.19,145.13,243.61,147.07Z"/><path class="cls-5" d="M243.81,41.93c1.9-3.35,16.54-6.83,20.28-1.8s3.58,19.62,1.06,22.74S249.33,69,246.42,66.25,240.43,47.9,243.81,41.93Z"/><path class="cls-6" d="M254.19,40.79c-8.71,1.36-14.48-4.28-23-2.95s-9.61,8-19.9,9.65c-8.75,1.37-12.34-4.61-21.3-3.22a29.12,29.12,0,0,0-12.82,5.59"/><path class="cls-6" d="M254.86,48.26c-8.71,1.36-14.48-4.28-23-2.95s-9.61,8-19.9,9.65c-8.75,1.37-12.34-4.61-21.3-3.22a28.84,28.84,0,0,0-11.94,5"/><path class="cls-6" d="M255.53,55.66c-8.71,1.36-14.48-4.28-23-2.95s-9.61,8-19.9,9.65c-8.75,1.37-12.34-4.61-21.3-3.22a29.21,29.21,0,0,0-14.83,7.29"/><path class="cls-6" d="M256.2,63.12c-8.71,1.36-14.48-4.28-23-2.95s-9.61,8-19.9,9.65c-8.75,1.37-12.34-4.61-21.3-3.22a29.21,29.21,0,0,0-14.83,7.29"/><circle class="cls-6" cx="165.32" cy="55.82" r="18.5" transform="translate(-3.79 12.83) rotate(-4.39)"/><circle class="cls-6" cx="165.32" cy="55.82" r="10.56" transform="translate(-3.79 12.83) rotate(-4.39)"/><path class="cls-6" d="M172,68.81a14.52,14.52,0,0,1-1.37.62"/><path class="cls-7" d="M164.76,70.42A14.62,14.62,0,1,1,171,42.36"/><path class="cls-6" d="M173.65,43.81a14.72,14.72,0,0,1,1.19.92"/><path class="cls-4" d="M167.31,60.19a9,9,0,0,1-1.27.13c-.33,0-.65,0-1-.05a8.52,8.52,0,0,1-1.93-.43,6.58,6.58,0,0,1-3.29-2.38,3.37,3.37,0,0,1-.61-2.3,3.73,3.73,0,0,1,.17-.65,4.34,4.34,0,0,1,.32-.58,3.71,3.71,0,0,1,.85-.83,3.5,3.5,0,0,1,2.26-.56,4.41,4.41,0,0,1,2,.69h0l-1.14.52a4.55,4.55,0,0,1,.77-2,3.44,3.44,0,0,1,1.89-1.37,3.62,3.62,0,0,1,1.19-.11,5.14,5.14,0,0,1,.65.13,4.13,4.13,0,0,1,.61.3,3.35,3.35,0,0,1,1.32,2,6.76,6.76,0,0,1-.38,4,8.64,8.64,0,0,1-.92,1.74c-.19.27-.4.52-.59.78A8.74,8.74,0,0,1,167.31,60.19Zm-.76-1.63a1.57,1.57,0,0,1,.28-.42c.15-.21.32-.42.47-.64a7.82,7.82,0,0,0,.72-1.39,5,5,0,0,0,.33-2.92,1.57,1.57,0,0,0-.55-.93c-.06,0-.13-.05-.19-.1l-.22,0a1.59,1.59,0,0,0-1.49.72,5.4,5.4,0,0,0-.68,1.24.82.82,0,0,1-.77.53h-.37a5.56,5.56,0,0,0-1.38-.28,1.85,1.85,0,0,0-1.12.27,1.94,1.94,0,0,0-.4.4c0,.07-.08.13-.11.19s0,.13-.05.21a1.59,1.59,0,0,0,.33,1,4.81,4.81,0,0,0,2.39,1.66,7.62,7.62,0,0,0,1.52.36l.79.06A1.56,1.56,0,0,1,166.56,58.56Z"/><path class="cls-5" d="M281,79.68c-1.06-7.82-5.86-7.14-11.49-7.58-11.63-.91-12.18,20.19-8.73,21.4s6.26-8.23,12.07-6.93-1.4,9.79,3.35,9.57S282.05,87.51,281,79.68Z"/></g></svg>