<svg xmlns="http://www.w3.org/2000/svg" viewBox="0 0 100 100"><defs><style>.cls-1{fill:none;stroke:#f69679;stroke-linecap:round;stroke-linejoin:round;stroke-width:2.5px;}.cls-2{fill:#f69679;}.cls-3{fill:#ffd54c;opacity:0.3;}</style></defs><title>icons3-illus</title><g id="Layer_1" data-name="Layer 1"><path class="cls-1" d="M49.92,19.51S59.26,70.93,24.57,81.1c0,0-2.43,2.89-1.59,5.88s4.88,4,4.88,4,20.69,3.2,38.45-16"/><path class="cls-1" d="M39.78,71.51c-7.22,3-29,0-29,0s-4.49-1.78-4.49-6a7.17,7.17,0,0,1,3.29-6,129.31,129.31,0,0,0,14.65-2.39C42.75,53.07,46.06,19.8,46.06,19.8s-5.11-5.95-6-8.61c-.64-1.88.43-5.48,3.44-7.11C46.66,2.35,50,3,51.62,4.56c1.91,1.9,5.56,9.7,5.56,9.7C73.85,19,94.87,44.36,89.36,65.54,83,90.07,65.84,93.36,65.84,93.36s-4.32,1.14-7-1.42a5.41,5.41,0,0,1-1.64-5.46S75.39,69.84,72.56,49a54.64,54.64,0,0,0-16.81-32.5"/><path class="cls-1" d="M9.62,59.57s6.6,4.8,1.2,11.95"/><path class="cls-1" d="M24.57,81.1s6.85,3.24,3.29,9.87"/><path class="cls-1" d="M57.18,86.48s7.37.22,8.65,6.88"/><path class="cls-1" d="M46.06,19.8s3.87.31,6.39-1.25a15.75,15.75,0,0,0,4.74-4.28"/><path class="cls-2" d="M60.46,45.55C60,43.25,59.54,41,58.9,38.73S57.59,34.25,56.8,32s-1.65-4.38-2.55-6.54-1.88-4.31-2.91-6.36v0A1.25,1.25,0,0,1,53.55,18c1.16,2.16,2.17,4.31,3.1,6.53s1.77,4.47,2.54,6.74,1.39,4.61,1.94,6.95a55.87,55.87,0,0,1,1.12,7.15.9.9,0,0,1-1.78.26Z"/><path class="cls-2" d="M29.12,83.63a48.58,48.58,0,0,0,6.06-2c2-.83,4-1.73,5.88-2.75a57.66,57.66,0,0,0,5.57-3.36c1.8-1.21,3.52-2.54,5.22-3.92l0,0A.9.9,0,0,1,53,72.93a57.18,57.18,0,0,1-5.18,4.31,59.9,59.9,0,0,1-5.65,3.71,48.5,48.5,0,0,1-6.07,3,37.27,37.27,0,0,1-6.52,2.13,1.25,1.25,0,0,1-.57-2.43Z"/><path class="cls-2" d="M22.92,66.69a45.71,45.71,0,0,1-4.8.62,31.86,31.86,0,0,1-4.83.09,1.25,1.25,0,0,1,.07-2.5c1.56,0,3.12,0,4.68.05s3.12,0,4.69-.06a.9.9,0,0,1,.19,1.79Z"/><path class="cls-2" d="M64.6,16.15A63.51,63.51,0,0,1,73.82,27a62.06,62.06,0,0,1,6.65,12.55A49,49,0,0,1,83.7,53.4a35.13,35.13,0,0,1-1.59,14.16A.9.9,0,0,1,80.39,67,37.82,37.82,0,0,0,81.3,53.6a50.65,50.65,0,0,0-3.2-13.15,59.5,59.5,0,0,0-6.43-12A67.63,67.63,0,0,0,62.94,18l-.05,0a1.25,1.25,0,0,1,1.71-1.82Z"/><path class="cls-3" d="M53.69,19.82S44,17,42.14,23.8C39.29,34.32,35,51.26,16.68,54.73a28,28,0,0,0-7.06,2.14c-5.8,2.86-6.67,12.3,8.71,12.55,6.24.1,18.07-3.1,24.51-6.59-8.37,18.76-25,21.25-15.86,24.6C36.86,91.05,58.52,79.84,62.73,64S59.34,24.22,53.69,19.82Z"/><path class="cls-3" d="M57.81,15.33c10.38,1.71,31.74,31.14,26.61,48S66.05,92.89,61.51,91.17s9.32-15.1,9.52-31.6C71.37,30.37,50.24,14.08,57.81,15.33Z"/><path class="cls-2" d="M41,10.42a.33.33,0,0,0-.1-.13s-.11-.06-.07-.05,0,0,.07,0a3.41,3.41,0,0,0,.4.05,8.32,8.32,0,0,0,1,0,15.32,15.32,0,0,0,2.16-.25,11.59,11.59,0,0,0,2-.63,6.46,6.46,0,0,0,1.71-1l.08-.06a.88.88,0,0,1,1.35,1.08,5.35,5.35,0,0,1-2,2.07,9.22,9.22,0,0,1-2.55,1,11.53,11.53,0,0,1-2.67.38A7.37,7.37,0,0,1,41,12.87a5.59,5.59,0,0,1-.79-.17,4,4,0,0,1-.5-.21,1.53,1.53,0,0,1-.33-.22,2.78,2.78,0,0,1-.33-.32,1.25,1.25,0,0,1,2-1.54Z"/></g></svg>