<svg xmlns="http://www.w3.org/2000/svg" viewBox="0 0 100 100"><defs><style>.cls-1{fill:#f69679;}.cls-2{fill:#fff;}.cls-3{fill:#f47a5c;opacity:0.2;}</style></defs><title>icons3-illus</title><g id="Layer_1" data-name="Layer 1"><path class="cls-1" d="M50.62,73.14l-.33-.91a7.23,7.23,0,0,1-.23-1,5.32,5.32,0,0,1,0-1.19,3.34,3.34,0,0,1,.52-1.26,3.4,3.4,0,0,1,.94-.93,5.31,5.31,0,0,1,1-.48A7.93,7.93,0,0,1,54.48,67a36.56,36.56,0,0,1,6.83.37c4.47.59,8.7,1.63,12.9,1.89a11,11,0,0,0,5.69-.81,3.17,3.17,0,0,0,.92-.75,3,3,0,0,0,.33-.47c.11-.19.23-.45.35-.67a25.8,25.8,0,0,0,1.21-2.88c1.43-4,1.77-8.28,2.76-12.55h0l1.6.5a9.72,9.72,0,0,1-4.32,4.72,16.76,16.76,0,0,1-6,1.93,20.2,20.2,0,0,1-6.27-.17,16.92,16.92,0,0,1-3.08-.88,19.21,19.21,0,0,1-2.8-1.52,15,15,0,0,1-2.53-2,7.12,7.12,0,0,1-1.56-2.2,5,5,0,0,1-.28-1,3.68,3.68,0,0,1,.34-2.23,4.78,4.78,0,0,1,1.34-1.53,5,5,0,0,1,.75-.51,5.12,5.12,0,0,1,.85-.43,5.78,5.78,0,0,1,1.87-.33,34.58,34.58,0,0,1,6.13.64c1.95.32,3.87.66,5.77.87A19.86,19.86,0,0,0,82.7,47a4.39,4.39,0,0,0,2-.83,2.16,2.16,0,0,0,.55-.73l.05-.1,0-.05,0,.09c0,.14,0,.15,0,0l0-.23v-.26l0-.34a26.21,26.21,0,0,0-3-10.73c-1.65-3.48-3.67-6.84-5.45-10.44a37.69,37.69,0,0,1-2.32-5.66,12,12,0,0,1-.28-6.33h0l1,1.09c-2.37.73-5,.17-7.07-.07a4.67,4.67,0,0,0-2.7.31,5,5,0,0,0-2,1.75,12.81,12.81,0,0,0-1.82,5.84,28,28,0,0,0-.12,3.27,7.16,7.16,0,0,1-1.11,4,5.83,5.83,0,0,1-3.6,2.57,5.16,5.16,0,0,1-4.35-1.14,8.45,8.45,0,0,1-2.37-3.28,10.31,10.31,0,0,1-.9-3.8,11.72,11.72,0,0,1,2.17-7.29,9.41,9.41,0,0,1,6.22-4.13h0l.27,1.71c-3.38.59-6.67.25-9.87.53A23.78,23.78,0,0,0,39,15.13c-.32.18-.72.36-1,.54a5.29,5.29,0,0,0-.76.58,3.86,3.86,0,0,0-1,1.53,7.67,7.67,0,0,0,0,4.11,27.68,27.68,0,0,0,4,8.48c.44.67.9,1.33,1.37,2s.93,1.13,1.57,2a6.59,6.59,0,0,1,1.18,3,4.24,4.24,0,0,1-.24,1.89,3.21,3.21,0,0,1-.5.9,3.05,3.05,0,0,1-.72.73,4.72,4.72,0,0,1-3.42.84,8.19,8.19,0,0,1-2.87-.88,12,12,0,0,1-4.26-3.66,21.63,21.63,0,0,1-3.79-15.22,12.18,12.18,0,0,1,1.93-5h0l1.31,1.15c-2.33,2.23-4.74,4.18-6.54,6.71a19.33,19.33,0,0,0-2.26,4,4.67,4.67,0,0,0-.2.5c0,.14-.07.27-.11.4a5.68,5.68,0,0,0-.09.92,9,9,0,0,0,.29,2.08,28.65,28.65,0,0,0,4,8.38,45.44,45.44,0,0,0,2.82,3.83c1,1.18,2.17,2.44,3.2,3.79a24.34,24.34,0,0,1,1.52,2.15,9.13,9.13,0,0,1,1.19,2.73,4.18,4.18,0,0,1,0,1.93c0,.18-.1.35-.16.52s-.17.32-.27.47a3.27,3.27,0,0,1-.66.78,5,5,0,0,1-1.47.91,6.15,6.15,0,0,1-1.5.46A12.57,12.57,0,0,1,26,58.21a20.93,20.93,0,0,1-4.86-2.11,18.14,18.14,0,0,1-7.27-7.68,12.19,12.19,0,0,1-1.16-5.35A11.5,11.5,0,0,1,14,37.91v0l1.64.75c-.79,2-1.63,4-2.38,5.9a23.9,23.9,0,0,0-1.58,5.85,14.33,14.33,0,0,0,3.55,10.86,27.71,27.71,0,0,0,4.45,4.15,34.28,34.28,0,0,0,5.32,3.16A41.47,41.47,0,0,0,37,72.22h0a1.44,1.44,0,0,1,1.1.91,17.63,17.63,0,0,0,3.06,5.08,21.3,21.3,0,0,0,4.58,3.91,23.43,23.43,0,0,0,5.51,2.5l1.48.35c.25.06.49.12.74.17l.75.09c.5.06,1,.14,1.51.18l1.52,0a22.51,22.51,0,0,0,11.59-3.31,28.08,28.08,0,0,0,4.91-3.75c1.5-1.43,2.89-3,4.35-4.51h0l1.26,1a11.32,11.32,0,0,1-6.63,4.38,22.07,22.07,0,0,1-7.84.61,28.12,28.12,0,0,1-7.6-1.75,20.56,20.56,0,0,1-3.57-1.76A11.74,11.74,0,0,1,52,75,6,6,0,0,1,50.62,73.14Zm2.37-1a5.86,5.86,0,0,0,2.12,2,18,18,0,0,0,3.12,1.5,26.77,26.77,0,0,0,6.9,1.56,21.25,21.25,0,0,0,7-.42,16.25,16.25,0,0,0,6.08-3l0,0a.82.82,0,0,1,1.24,1h0c-2,4-5.45,7.18-9.23,9.58a25.24,25.24,0,0,1-12.93,3.91l-1.72,0c-.57,0-1.14-.13-1.71-.2L53,87.93c-.28-.05-.56-.12-.84-.18l-1.68-.39a26.28,26.28,0,0,1-6.26-2.8,23.17,23.17,0,0,1-5.2-4.5,20.4,20.4,0,0,1-3.51-6l1.13.91h0A44.69,44.69,0,0,1,30,73.63c-1.09-.27-2.13-.68-3.19-1s-2.09-.81-3.09-1.32a37.3,37.3,0,0,1-5.82-3.42,28.91,28.91,0,0,1-5-4.67,19.77,19.77,0,0,1-3.39-6.11,15.8,15.8,0,0,1-.69-7,27.28,27.28,0,0,1,5.26-12.29l.18-.25a.89.89,0,0,1,1.46,1v0a13.49,13.49,0,0,0,.77,8.64,15.21,15.21,0,0,0,6.14,6.34,17.93,17.93,0,0,0,4.16,1.77,9.67,9.67,0,0,0,4.17.34A3.37,3.37,0,0,0,32.44,55c0-.06.13-.1.13-.15l0-.06a.15.15,0,0,1,0-.07,1.12,1.12,0,0,0,0-.5,6.34,6.34,0,0,0-.81-1.74,21.35,21.35,0,0,0-1.33-1.86c-1-1.25-2-2.41-3.13-3.75a48.51,48.51,0,0,1-3-4.13A31.41,31.41,0,0,1,20,33.37a11.87,11.87,0,0,1-.34-2.78,8.45,8.45,0,0,1,.17-1.52l.23-.78a6.75,6.75,0,0,1,.26-.64A22.22,22.22,0,0,1,23,23.11a19.33,19.33,0,0,1,7.87-6.54,1,1,0,0,1,1.32,1.06l0,.09h0c-.33,1.56-.61,3-.78,4.57a21.19,21.19,0,0,0,0,4.61,18.25,18.25,0,0,0,3.3,8.49,9.1,9.1,0,0,0,3.22,2.77,5.3,5.3,0,0,0,1.87.58,1.83,1.83,0,0,0,1.31-.25.92.92,0,0,0,.3-.89,3.72,3.72,0,0,0-.67-1.57c-.34-.47-1-1.23-1.51-1.9s-1-1.39-1.5-2.11a30.4,30.4,0,0,1-4.33-9.51,10.45,10.45,0,0,1,.16-5.72,6.73,6.73,0,0,1,1.71-2.62,8.08,8.08,0,0,1,1.23-.92c.43-.27.8-.43,1.2-.65a26.51,26.51,0,0,1,10.14-2.5,43.3,43.3,0,0,1,10.05.42.91.91,0,0,1,.34,1.66l-.07,0h0a14,14,0,0,0-4.53,4A9,9,0,0,0,52,21.86a7.57,7.57,0,0,0,.69,2.83,5.76,5.76,0,0,0,1.59,2.23,2.36,2.36,0,0,0,2,.57,3,3,0,0,0,1.81-1.36,4.59,4.59,0,0,0,.7-2.5A30.81,30.81,0,0,1,59,20.06,15.34,15.34,0,0,1,61.36,13a7.58,7.58,0,0,1,3.14-2.6,6,6,0,0,1,2.06-.53,9.72,9.72,0,0,1,2,.06c1.22.15,2.3.35,3.37.45s2.12.18,3.21.27a1.14,1.14,0,0,1,1,1.07v0h0A22.43,22.43,0,0,0,77,17a35.3,35.3,0,0,0,2.18,5.24c1.73,3.45,3.78,6.83,5.52,10.46A28.75,28.75,0,0,1,88,44.57l0,.4,0,.25A2.44,2.44,0,0,1,88,46a1.85,1.85,0,0,1-.08.27l-.05.11-.11.23a4.85,4.85,0,0,1-1.21,1.61,7,7,0,0,1-3.32,1.45,22,22,0,0,1-6.28,0c-2-.24-4-.6-5.89-.92a33,33,0,0,0-5.58-.63,3.34,3.34,0,0,0-1,.15,2.74,2.74,0,0,0-.46.24,2.62,2.62,0,0,0-.47.31,2.24,2.24,0,0,0-.61.65,1,1,0,0,0-.09.63,3.61,3.61,0,0,0,1.11,1.78A12.48,12.48,0,0,0,66,53.5a16.91,16.91,0,0,0,2.37,1.31,14.39,14.39,0,0,0,2.58.75,17.67,17.67,0,0,0,5.47.17,14.43,14.43,0,0,0,5.14-1.6,13,13,0,0,0,4-3.39l.11-.14a.84.84,0,0,1,1.49.64h0a38.79,38.79,0,0,1-2.06,13.22,28.35,28.35,0,0,1-1.31,3.18c-.14.26-.24.5-.4.79a5.55,5.55,0,0,1-.6.88,5.75,5.75,0,0,1-1.6,1.33,9.56,9.56,0,0,1-3.62,1.11,21.36,21.36,0,0,1-3.5.09c-4.56-.23-8.87-1.36-13.09-1.91a34.71,34.71,0,0,0-6.27-.38c-.94.06-1.88.37-2,.65S52.62,71.26,53,72.11Z"/><path class="cls-2" d="M34.55,65.65c-5.2,12-5.52,19.95-5.33,23.1S33,92.88,35.14,90.4c2.44-2.8,1.19-12.22,5.69-22.64A142.5,142.5,0,0,1,57.77,38.85S40.34,52.32,34.55,65.65Z"/><path class="cls-1" d="M35.73,66.17a75,75,0,0,0-3.65,10.3,44.26,44.26,0,0,0-1.64,10.66c0,.44,0,.88,0,1.32a2.83,2.83,0,0,0,.16,1,1.69,1.69,0,0,0,1.14,1.06,2.16,2.16,0,0,0,1.69-.28,3.08,3.08,0,0,0,.74-.64,3,3,0,0,0,.48-.86,25.2,25.2,0,0,0,1-5.14c.25-1.83.49-3.7.82-5.56a47.91,47.91,0,0,1,3.2-10.94c1.48-3.44,3.14-6.81,4.9-10.11A102.62,102.62,0,0,1,57.18,38.38h0l1.05,1.07c-2.18,2-4.35,4-6.45,6.08s-4.15,4.2-6.12,6.38C41.77,56.27,38.07,60.93,35.73,66.17Zm-2.37-1a44.68,44.68,0,0,1,4.61-8,70.05,70.05,0,0,1,5.77-7c2.05-2.22,4.22-4.31,6.48-6.31a78.52,78.52,0,0,1,7.08-5.6l.07,0a.75.75,0,0,1,1,1.11h0c-4,6.14-8,12.39-11.43,18.88-1.74,3.24-3.36,6.54-4.84,9.9A45.28,45.28,0,0,0,39,78.46c-.33,1.79-.57,3.61-.82,5.45A26.67,26.67,0,0,1,37,89.65a5.47,5.47,0,0,1-.9,1.54,5.59,5.59,0,0,1-1.36,1.16,4.66,4.66,0,0,1-3.66.54,4.23,4.23,0,0,1-2.8-2.57A5.33,5.33,0,0,1,28,88.57c0-.49,0-1,0-1.46a46.7,46.7,0,0,1,1.7-11.29A77.52,77.52,0,0,1,33.37,65.14Z"/><path class="cls-3" d="M23.69,73.59C9.72,67.65-.71,48,10.18,36.37S27.61,7,59.25,8.27s18.23,6.28,27.42,25.1S85.92,78.3,77.55,84.6s-29.64,7.93-40.76-6.77C35.71,76.4,54.3,43.1,53,42.89,50.38,42.49,30.73,76.59,23.69,73.59Z"/><path class="cls-2" d="M29.22,88.75c0-1.61,3-1.66,4-1.48"/><path class="cls-1" d="M27.93,88.78a4,4,0,0,1,.09-.62,2.85,2.85,0,0,1,.26-.6,2.52,2.52,0,0,1,.8-.79,4.09,4.09,0,0,1,1.55-.54,8.08,8.08,0,0,1,2.77.09,1,1,0,0,1-.27,1.91H33a5.94,5.94,0,0,0-1,0,5.29,5.29,0,0,0-1,.19,1.67,1.67,0,0,0-.64.32c-.1.13,0,0,0,0a1.29,1.29,0,0,1-2.58.06Z"/></g></svg>