<svg xmlns="http://www.w3.org/2000/svg" viewBox="0 0 100 100"><defs><style>.cls-1{fill:none;stroke:#f69679;stroke-linecap:round;stroke-linejoin:round;stroke-width:2.5px;}.cls-2{fill:#f69679;}.cls-3{fill:#f47a5c;opacity:0.2;}</style></defs><title>icons3-illus</title><g id="Layer_1" data-name="Layer 1"><line class="cls-1" x1="60.61" y1="70.31" x2="82.57" y2="76.3"/><path class="cls-2" d="M82.07,52.79Q64.4,43.38,46.79,33.84l-17.62-9.5-8.81-4.75c-2.93-1.59-5.86-3.19-8.7-5l1.07-1.68c2.7,1.75,5.29,3.66,7.86,5.58l7.72,5.77L43.76,35.83Q59.2,47.36,74.58,59a1.25,1.25,0,0,1-1.5,2Q57.61,49.49,42.22,37.88L26.81,26.31,19.1,20.52c-2.56-1.93-5.12-3.88-7.56-6a1,1,0,0,1,1.07-1.68c3,1.39,6,3,8.93,4.52l8.82,4.73L48,31.59q17.65,9.45,35.24,19a1.25,1.25,0,0,1-1.18,2.2Z"/><path class="cls-3" d="M25.4,22C38.28,24.6,78.92,44.91,82.45,54.83s3.58,23.86-.1,24.76S58.24,75.13,64.46,67.3s10.51-8.12,3.37-12S25.4,22,25.4,22Z"/><path class="cls-2" d="M88,27l-38-6-19-3-9.5-1.51c-3.17-.5-6.33-1-9.46-1.75l1.1-1.31c1.28,3,2.36,6.13,3.42,9.24L19.7,32,26.08,50.6l6.38,18.63,6.31,18.65-2-.58L73.06,59a1.25,1.25,0,0,1,1.75.22,1.34,1.34,0,0,1,.12.18l8.74,16.32-2.35.59.09-24.61a1.28,1.28,0,0,1,.1-.49L92.27,26.05l1,1.73Zm.38-2.47,5.26.81a1.25,1.25,0,0,1,1,1.43,1.3,1.3,0,0,1-.09.3L83.81,52.18l.1-.49L83.82,76.3a1.25,1.25,0,0,1-2.35.59L72.73,60.56,74.6,61,38.36,89.28a1.25,1.25,0,0,1-1.75-.22,1.3,1.3,0,0,1-.2-.37L30,70.08,23.65,51.43,17.31,32.79l-3.17-9.32c-1.06-3.11-2.1-6.22-2.94-9.4a1,1,0,0,1,.74-1.28,1.08,1.08,0,0,1,.36,0c3.2.27,6.37.75,9.54,1.25l9.5,1.49,19,3Z"/></g></svg>