<svg xmlns="http://www.w3.org/2000/svg" viewBox="0 0 100 100"><defs><style>.cls-1{fill:#f69679;}.cls-2{fill:#ffd54c;opacity:0.3;}</style></defs><title>icons3-illus</title><g id="Layer_1" data-name="Layer 1"><path class="cls-1" d="M53.15,67.75c-1,.51-2.08,1.14-3.18,1.77a29.3,29.3,0,0,0-3.06,1.9,25.46,25.46,0,0,0-2.73,2.28l-.63.63-.33.34a4.14,4.14,0,0,1-.5.43,4.3,4.3,0,0,1-5,.12,4.39,4.39,0,0,1-.52-.41l-.35-.33-.68-.64-2.72-2.56L28,66.16l-2.75-2.62a4.35,4.35,0,0,1-.74-5,4.63,4.63,0,0,1,.76-1.06l.6-.65c.39-.44.76-.9,1.11-1.37a24.64,24.64,0,0,0,1.91-3c.59-1,1-2.1,1.59-3.28s1.08-2.3,1.66-3.43l1.88-3.31c.63-1.1,1.38-2.13,2.06-3.2a74.6,74.6,0,0,1,9.79-11.6,80.62,80.62,0,0,1,11.95-9.34,74.71,74.71,0,0,1,13.52-6.86l1.77-.7,1.8-.6c1.2-.39,2.39-.82,3.63-1.12A32.48,32.48,0,0,1,86,7.64h0a1.12,1.12,0,0,1,1.15,1v0a34.07,34.07,0,0,1-.47,7.42c-.2,1.23-.37,2.46-.59,3.68s-.46,2.44-.75,3.65A73,73,0,0,1,80.6,37.58,72.49,72.49,0,0,1,73,50.4c-.72,1-1.52,2-2.3,2.94s-1.6,1.9-2.42,2.83S66.57,58,65.69,58.88c-.45.45-.86.84-1.38,1.3a8.56,8.56,0,0,1-1.64,1l-.07,0a1,1,0,0,1-1.11-1.54c.53-.5.93-.82,1.27-1.2s.77-.91,1.17-1.35c.81-.89,1.66-1.75,2.44-2.68s1.6-1.81,2.33-2.76,1.52-1.87,2.2-2.86a69.86,69.86,0,0,0,7.29-12.41,71.52,71.52,0,0,0,4.65-13.62c.28-1.17.49-2.36.74-3.54s.39-2.38.59-3.57l.45-3.6a18.56,18.56,0,0,1,.59-3.6l1.15,1h0a20.28,20.28,0,0,1-3.55,1c-1.2.24-2.37.61-3.55.91s-2.34.71-3.51,1.09L74,13.15l-1.71.68a72.19,72.19,0,0,0-13.07,6.66,78.07,78.07,0,0,0-11.54,9,72,72,0,0,0-9.42,11.21c-.66,1-1.38,2-2,3.08L34.47,47c-.56,1.09-1.06,2.2-1.59,3.3s-1,2.32-1.67,3.44a27.25,27.25,0,0,1-2.11,3.3c-.39.53-.81,1-1.24,1.53l-.66.73a2,2,0,0,0-.32.45,1.73,1.73,0,0,0,.3,2l2.66,2.53,5.41,5.15L38,72l.68.64.33.31a1.82,1.82,0,0,0,.21.17,1.74,1.74,0,0,0,2,0,1.59,1.59,0,0,0,.21-.18l.32-.33.7-.69a28,28,0,0,1,3-2.49,31.84,31.84,0,0,1,3.28-2c1.06-.61,2.15-1.27,3.35-1.85a1.25,1.25,0,0,1,1.08,2.25Z"/><path class="cls-1" d="M61.38,36.72a8,8,0,0,0,3.13,1.11,5.09,5.09,0,0,0,5.61-6.08,5.09,5.09,0,0,0-4.38-4.1,5.16,5.16,0,0,0-3.13.61,8,8,0,0,0-2.46,2.22l0,0a.92.92,0,0,1-1.63-.78,6.12,6.12,0,0,1,2.88-3.65,7.67,7.67,0,1,1,2.82,14.23A6.08,6.08,0,0,1,60.14,38a.91.91,0,0,1,1.18-1.34Z"/><path class="cls-1" d="M40,34.9a17.92,17.92,0,0,0-5-2.29,16,16,0,0,0-5.49-.6,16.58,16.58,0,0,0-10,4.42A26.91,26.91,0,0,0,13,45.71a39.11,39.11,0,0,0-1.93,5.47L9.65,56.86h0L8,56.21A21.67,21.67,0,0,1,12.59,51a26.85,26.85,0,0,1,5.92-3.78,18.85,18.85,0,0,1,6.94-1.68h1.81l1.79.25c.3,0,.6.08.89.14l.86.25,1.72.52a1.25,1.25,0,0,1-.68,2.4l-.18,0-1.5-.41-.75-.21c-.25,0-.51-.06-.77-.1l-1.53-.18-1.54,0a17.17,17.17,0,0,0-6,1.44,24.31,24.31,0,0,0-5.38,3.33,51.47,51.47,0,0,0-4.7,4.36l-.18.18a.88.88,0,0,1-1.48-.84h0a32.2,32.2,0,0,1,2.85-11.94,29.49,29.49,0,0,1,7.1-10.24,19.23,19.23,0,0,1,11.58-5.07,18.13,18.13,0,0,1,6.37.76,20.18,20.18,0,0,1,5.8,2.77A1.25,1.25,0,0,1,40.1,35Z"/><path class="cls-1" d="M66.79,56.83a20.18,20.18,0,0,1,3.07,5.65A18,18,0,0,1,71,68.8,19.2,19.2,0,0,1,66.5,80.6a29.46,29.46,0,0,1-9.81,7.66,35.33,35.33,0,0,1-11.75,3.58l-.14,0a1,1,0,0,1-.7-1.72h0A51.67,51.67,0,0,0,48.15,85a29.65,29.65,0,0,0,3.14-5.68,17.85,17.85,0,0,0,1.38-6.14,15.9,15.9,0,0,0-.25-3.08,14.17,14.17,0,0,0-.95-2.93l0,0a1.25,1.25,0,0,1,2.27-1,15.34,15.34,0,0,1,1.52,7.16,20.39,20.39,0,0,1-1.62,7,30.64,30.64,0,0,1-3.47,6.15,29.43,29.43,0,0,1-4.74,5.17h0l-.85-1.7q2.85-.74,5.62-1.64A44.58,44.58,0,0,0,55.55,86a27,27,0,0,0,8.95-7,16.61,16.61,0,0,0,3.85-10.22,16.21,16.21,0,0,0-.91-5.45,17.91,17.91,0,0,0-2.57-4.89l-.06-.08a1.25,1.25,0,0,1,2-1.53Z"/><path class="cls-1" d="M39,74.66a33,33,0,0,1-4.07,4.13,21.69,21.69,0,0,1-5,3.1,24.34,24.34,0,0,1-5.63,1.6,29.35,29.35,0,0,1-5.6.52h-.05a1.18,1.18,0,0,1-1.1-.95,20.35,20.35,0,0,1-.19-5.81,20.8,20.8,0,0,1,1.36-5.82,24.23,24.23,0,0,1,2.9-5.18,40.61,40.61,0,0,1,3.82-4.39,1.25,1.25,0,0,1,1.8,1.73l0,0a28.73,28.73,0,0,0-6.09,8.79,18.22,18.22,0,0,0-1.26,5.1c-.2,1.77-.13,3.58-.31,5.45l-1.15-1h0a52.13,52.13,0,0,1,5.42-1,21.78,21.78,0,0,0,5-1.5A23.86,23.86,0,0,0,37.11,73l0,0A1.25,1.25,0,0,1,39,74.66Z"/><path class="cls-1" d="M44.23,72.13c-1.81-1.59-3.53-3.28-5.23-5s-3.38-3.44-5-5.24a.85.85,0,0,1,1.17-1.23c1.89,1.51,3.7,3.1,5.51,4.69s3.58,3.23,5.26,5a1.25,1.25,0,0,1-1.72,1.82Z"/><path class="cls-2" d="M56.24,37.44c3,10.12,18.49,5.67,18.42-3.08s-9.82-14.75-15.94-7.79C55.11,30.68,55.25,34,56.24,37.44Z"/><path class="cls-2" d="M23.75,63.1c2.56.54,12.79,9.74,13.52,14.16S19.52,90.16,12.32,92.36,17.76,61.84,23.75,63.1Z"/></g></svg>