<svg xmlns="http://www.w3.org/2000/svg" viewBox="0 0 472.21 272.38"><defs><style>.cls-1,.cls-2{fill:#fff;}.cls-2,.cls-6{stroke:#f69679;stroke-linecap:round;stroke-linejoin:round;stroke-width:2.5px;}.cls-3,.cls-7{opacity:0.3;}.cls-4,.cls-7{fill:#ffd54c;}.cls-5{fill:#f69679;}.cls-6{fill:none;}.cls-8{opacity:0.2;}.cls-9{fill:#f47a5c;}</style></defs><title>icons3-illus</title><g id="Layer_1" data-name="Layer 1"><path class="cls-1" d="M238.84,264.69c11.62.85,23-4.74,33.74-12.74,10.92-8.15,18.65-18.51,19.64-32.09.54-7.37-1-14.78-3.36-21.77a86.09,86.09,0,0,0-17-29.16c-2.87-3.22-6.08-6.3-10-8-4.41-1.9-9.39-2-14.19-1.68A117.27,117.27,0,0,0,221,163.85c-5.62,1.66-11.22,3.8-15.84,7.41a37.92,37.92,0,0,0-8.59,9.87c-10.18,16.27-8.24,38.74,1.2,55.45S218.59,263.21,238.84,264.69Z"/><path class="cls-1" d="M391,62.25c9.24-3.51,11.9-10.87,11.63-20.75-.12-4.25-1.57-8.73-5-11.27-2.86-2.14-6.61-2.59-10.16-3l-13.92-1.49c-2.77-.3-5.72-.56-8.19.73-2.18,1.14-3.61,3.3-4.91,5.39-3.18,5.12-6.25,10.74-5.94,16.76a4.77,4.77,0,0,0,.8,2.73,5.51,5.51,0,0,0,2.46,1.52A176.37,176.37,0,0,0,391,62.25"/><path class="cls-1" d="M141,87a106,106,0,0,0-7.4-50.33c-2-4.87-5.07-10.15-10.25-11.09a3.75,3.75,0,0,0-2.95.47A4.44,4.44,0,0,0,119,29c-1.63,9.23,1.07,18.67,4.48,27.4A168.25,168.25,0,0,0,139.8,87.82"/><path class="cls-1" d="M175.34,167.13c6.68-9.51,13.43-19.17,16.77-29.78.76-2.4,1.33-4.95.54-7.34a7,7,0,0,0-6.36-4.63c-4.21-.06-6.88,3.52-8.64,6.62-4.34,7.62-8.69,15.27-11.74,23.29-1,2.7-1.9,5.63-.75,8.3s7.13,4.9,10.18,3.55"/><path class="cls-1" d="M299.8,125.89c-6,.59-12.29,2.75-16,7.52a17.9,17.9,0,0,0-3,14.82,25,25,0,0,0,8.13,13,31.59,31.59,0,0,0,23.61,7.59c3-.29,6.21-1.2,7.88-3.7,1.27-1.89,1.38-4.3,1.45-6.57a37.81,37.81,0,0,0-.38-8.52c-1.79-9-14.3-18.66-21.65-24.19"/><path class="cls-1" d="M383.45,182.58c3.08,6.11,29.08,15.64,44.38,19.56a11.73,11.73,0,0,0,4.56.55,4.28,4.28,0,0,0,3.54-2.75c.72-2.29-1-4.6-2.8-6.08-4.28-3.53-9.54-5.36-14.69-7.13l-24.67-8.48c-2.18-.75-4.48-1.5-6.71-1s-4.23,2.94-3.62,5.29"/><path class="cls-1" d="M431.11,169.77c6.05-1.34,12.42-3.92,18.39-5.61,7.25-2,15.12-4.89,18.72-11.51a1.57,1.57,0,0,0-.62-2.59c-4.4-2.4-9.65-2.86-14.63-2.22s-9.75,2.31-14.48,4c-8.53,3-17.11,6-24.92,10.55-1.48.86-3.12,2.13-2.95,3.83s2,2.62,3.64,3.11a32.49,32.49,0,0,0,16.85.46"/><path class="cls-1" d="M330.24,105.18c8.38,3.45,17.11,5.59,25.94,3.58a23.94,23.94,0,0,0,10.4-4.75c2.92-2.51,4.95-6.26,4.68-10.1-.33-4.6-3.76-8.39-7.51-11.08a28.45,28.45,0,0,0-16.36-5.67c-5.87,0-11.84,2.53-15.38,7.22-4.38,5.81-4.41,14-1.76,20.81"/><path class="cls-1" d="M415.5,109.73c7.93,2.82,19.7,4.42,26.73-1.85A13.63,13.63,0,0,0,446.31,99c1.27-12.39-7.89-16.93-17.87-22-4.65-2.38-10-4.38-15-2.79C408,75.92,404.66,81.49,403,87c-1.37,4.51-1.92,9.59.2,13.8C405.54,105.41,410.6,108,415.5,109.73Z"/><path class="cls-1" d="M388.13,122.51c4.24,3,6.38,2.76,10.15,6.32a14.3,14.3,0,0,1,4,5.3c1,2.85.24,6-1,8.78a25.11,25.11,0,0,1-8,9.65,13.66,13.66,0,0,1-7.67,3c-3.48,0-6.7-1.86-9.28-4.19a28,28,0,0,1-7.5-11.15,8,8,0,0,1-.63-3.49,7.34,7.34,0,0,1,1.49-3.43c4.21-5.89,11.55-8.49,18.43-10.75"/><path class="cls-2" d="M62.65,207s-.57-.37,29.12-20c13.29-8.78,36.9-23.63,36.9-23.63l-55.52-84S51.42,91.87,36,102c-29,19.18-28.9,20.91-28.9,20.91Z"/><g class="cls-3"><path class="cls-4" d="M391,62.25c9.24-3.51,11.9-10.87,11.63-20.75-.12-4.25-1.57-8.73-5-11.27-2.86-2.14-6.61-2.59-10.16-3l-13.92-1.49c-2.77-.3-5.72-.56-8.19.73-2.18,1.14-3.61,3.3-4.91,5.39-3.18,5.12-6.25,10.74-5.94,16.76a4.77,4.77,0,0,0,.8,2.73,5.51,5.51,0,0,0,2.46,1.52A176.37,176.37,0,0,0,391,62.25"/></g><g class="cls-3"><path class="cls-4" d="M63,162c-4.3,3.14-8.77,10.72-8.49,16a11.25,11.25,0,0,0,2.22,6.45,11.53,11.53,0,0,0,8.53,4.56c2.61,0,4.43-3.06,4.63-3.93C71.3,179.27,66,167.35,63,162Z"/></g><path class="cls-5" d="M71,98.45a62.08,62.08,0,0,1-7.83,5.74l-8.05,5.41-8.13,5.29-4.07,2.64a25.16,25.16,0,0,1-4.29,2.31.83.83,0,0,1-.9-1.36,25.15,25.15,0,0,1,3.8-3l4-2.7,8.05-5.4L61.71,102a62.09,62.09,0,0,1,8.35-5,.82.82,0,0,1,.9,1.36Z"/><path class="cls-5" d="M77.27,108a122.62,122.62,0,0,1-11.13,7.92L54.8,123.49,43.37,131l-5.71,3.73a49.45,49.45,0,0,1-5.94,3.39.82.82,0,0,1-.9-1.36,49.47,49.47,0,0,1,5.45-4.13l5.67-3.79,11.35-7.58,11.43-7.46a122.61,122.61,0,0,1,11.65-7.13.82.82,0,0,1,.9,1.36Z"/><line class="cls-6" x1="83.38" y1="117.25" x2="60.45" y2="132.4"/><path class="cls-5" d="M90.33,127.77A87.42,87.42,0,0,1,81,134.51l-9.57,6.41-9.65,6.29-4.83,3.14a35.33,35.33,0,0,1-5,2.81.82.82,0,0,1-.9-1.36,35.33,35.33,0,0,1,4.56-3.54l4.78-3.21,9.57-6.41,9.65-6.29a87.42,87.42,0,0,1,9.87-6,.82.82,0,0,1,.9,1.36Z"/><line class="cls-6" x1="98.57" y1="149.99" x2="114.45" y2="157.93"/><line class="cls-6" x1="103.99" y1="164.85" x2="87.75" y2="157.14"/><circle class="cls-6" cx="69.33" cy="172.27" r="12.92" transform="translate(-83.48 66.76) rotate(-33.45)"/><path class="cls-2" d="M74.95,182.49s11.27-3.84,42.89-20.16c14.15-7.31,27.42-16.14,27.42-16.14L99.05,56.7S85.82,65.52,69.44,74c-30.92,16-40.69,19-40.69,19Z"/><line class="cls-1" x1="94.46" y1="74.76" x2="59.98" y2="92.56"/><path class="cls-5" d="M94.83,75.48a62.09,62.09,0,0,1-8.4,4.87l-8.58,4.52-8.65,4.39-4.33,2.19a25.16,25.16,0,0,1-4.51,1.83.83.83,0,0,1-.75-1.44,25.16,25.16,0,0,1,4.11-2.62L68,87l8.59-4.51,8.65-4.38a62.07,62.07,0,0,1,8.83-4,.82.82,0,0,1,.75,1.44Z"/><line class="cls-1" x1="99.7" y1="84.92" x2="51.2" y2="109.97"/><path class="cls-5" d="M100.08,85.65a122.63,122.63,0,0,1-11.91,6.68L76.08,98.65l-12.16,6.2-6.08,3.1a49.46,49.46,0,0,1-6.26,2.74.82.82,0,0,1-.75-1.44,49.44,49.44,0,0,1,5.86-3.52l6-3.16,12.09-6.32L87,90A122.6,122.6,0,0,1,99.33,84.2a.82.82,0,0,1,.75,1.44Z"/><line class="cls-1" x1="105.17" y1="95.51" x2="80.74" y2="108.12"/><path class="cls-5" d="M105.54,96.23a32.31,32.31,0,0,1-5.88,3.58L93.58,103c-2,1-4.08,2.09-6.13,3.1l-3.08,1.53a12.87,12.87,0,0,1-3.26,1.19.85.85,0,0,1-1-.67.86.86,0,0,1,.25-.77,12.87,12.87,0,0,1,2.85-2l3-1.62c2-1.09,4.05-2.14,6.08-3.2l6.14-3.1a32.31,32.31,0,0,1,6.33-2.72.84.84,0,0,1,.75,1.44Z"/><line class="cls-1" x1="110.58" y1="105.99" x2="69.64" y2="127.12"/><path class="cls-5" d="M111,106.71a87.43,87.43,0,0,1-10,5.7l-10.2,5.35L80.47,123l-5.13,2.61A35.34,35.34,0,0,1,70,127.84a.82.82,0,0,1-.75-1.44,35.34,35.34,0,0,1,4.92-3l5.1-2.68,10.2-5.35,10.27-5.22a87.43,87.43,0,0,1,10.45-4.87.82.82,0,0,1,.75,1.44Z"/><line class="cls-1" x1="119.36" y1="128.29" x2="134.3" y2="137.89"/><path class="cls-5" d="M119.8,127.61a13.67,13.67,0,0,1,4,2c1.27.76,2.52,1.56,3.77,2.35s2.48,1.61,3.71,2.45l1.84,1.24a5.58,5.58,0,0,1,1.63,1.57.89.89,0,0,1-.88,1.37,5.58,5.58,0,0,1-2.11-.83l-1.9-1.16c-1.27-.76-2.51-1.56-3.76-2.35s-2.48-1.62-3.7-2.45a13.67,13.67,0,0,1-3.47-2.81.87.87,0,0,1,.88-1.37Z"/><line class="cls-1" x1="127.02" y1="141.76" x2="111.7" y2="132.36"/><path class="cls-5" d="M126.59,142.45a14,14,0,0,1-4.08-1.94c-1.3-.75-2.58-1.53-3.86-2.3s-2.55-1.58-3.8-2.4L113,134.6a5.71,5.71,0,0,1-1.68-1.55.89.89,0,0,1,.85-1.39,5.71,5.71,0,0,1,2.15.8l1.94,1.13c1.3.75,2.58,1.53,3.86,2.3s2.54,1.58,3.8,2.4a14,14,0,0,1,3.58,2.76.87.87,0,0,1-.85,1.39Z"/><line class="cls-1" x1="119.63" y1="145.86" x2="104.31" y2="136.46"/><path class="cls-5" d="M119.21,146.55a14,14,0,0,1-4.08-1.94c-1.3-.75-2.58-1.53-3.86-2.3s-2.55-1.58-3.8-2.4l-1.89-1.22a5.71,5.71,0,0,1-1.68-1.55.89.89,0,0,1,.85-1.39,5.71,5.71,0,0,1,2.15.8l1.94,1.13c1.3.75,2.58,1.53,3.86,2.3s2.54,1.58,3.8,2.4a14,14,0,0,1,3.58,2.76.87.87,0,0,1-.85,1.39Z"/><g class="cls-3"><path class="cls-4" d="M78.3,158.38c3.74,1.26,7.57,2.44,11.51,2.44s8.06-1.34,10.57-4.38c3.15-3.81,3.08-9.61.75-14s-6.53-7.46-11-9.6a16.71,16.71,0,0,0-6.7-1.92,7.72,7.72,0,0,0-6.25,2.61,9.71,9.71,0,0,0-1.67,4c-1.35,6.09-.3,15.42,2.79,20.84"/></g><circle class="cls-6" cx="85.3" cy="148.7" r="12.92" transform="translate(-58.71 55.71) rotate(-27.31)"/><g class="cls-3"><path class="cls-4" d="M141,87a106,106,0,0,0-7.4-50.33c-2-4.87-5.07-10.15-10.25-11.09a3.75,3.75,0,0,0-2.95.47A4.44,4.44,0,0,0,119,29c-1.63,9.23,1.07,18.67,4.48,27.4A168.25,168.25,0,0,0,139.8,87.82"/></g><g class="cls-3"><path class="cls-4" d="M175.34,167.13c6.68-9.51,13.43-19.17,16.77-29.78.76-2.4,1.33-4.95.54-7.34a7,7,0,0,0-6.36-4.63c-4.21-.06-6.88,3.52-8.64,6.62-4.34,7.62-8.69,15.27-11.74,23.29-1,2.7-1.9,5.63-.75,8.3s7.13,4.9,10.18,3.55"/></g><g class="cls-3"><path class="cls-4" d="M299.8,125.89c-6,.59-12.29,2.75-16,7.52a17.9,17.9,0,0,0-3,14.82,25,25,0,0,0,8.13,13,31.59,31.59,0,0,0,23.61,7.59c3-.29,6.21-1.2,7.88-3.7,1.27-1.89,1.38-4.3,1.45-6.57a37.81,37.81,0,0,0-.38-8.52c-1.79-9-14.3-18.66-21.65-24.19"/></g><g class="cls-3"><path class="cls-4" d="M383.45,182.58c3.08,6.11,29.08,15.64,44.38,19.56a11.73,11.73,0,0,0,4.56.55,4.28,4.28,0,0,0,3.54-2.75c.72-2.29-1-4.6-2.8-6.08-4.28-3.53-9.54-5.36-14.69-7.13l-24.67-8.48c-2.18-.75-4.48-1.5-6.71-1s-4.23,2.94-3.62,5.29"/></g><g class="cls-3"><path class="cls-4" d="M431.11,169.77c6.05-1.34,12.42-3.92,18.39-5.61,7.25-2,15.12-4.89,18.72-11.51a1.57,1.57,0,0,0-.62-2.59c-4.4-2.4-9.65-2.86-14.63-2.22s-9.75,2.31-14.48,4c-8.53,3-17.11,6-24.92,10.55-1.48.86-3.12,2.13-2.95,3.83s2,2.62,3.64,3.11a32.49,32.49,0,0,0,16.85.46"/></g><g class="cls-3"><path class="cls-4" d="M330.24,105.18c8.38,3.45,17.11,5.59,25.94,3.58a23.94,23.94,0,0,0,10.4-4.75c2.92-2.51,4.95-6.26,4.68-10.1-.33-4.6-3.76-8.39-7.51-11.08a28.45,28.45,0,0,0-16.36-5.67c-5.87,0-11.84,2.53-15.38,7.22-4.38,5.81-4.41,14-1.76,20.81"/></g><g class="cls-3"><path class="cls-4" d="M415.5,109.73c7.93,2.82,19.7,4.42,26.73-1.85A13.63,13.63,0,0,0,446.31,99c1.27-12.39-7.89-16.93-17.87-22-4.65-2.38-10-4.38-15-2.79C408,75.92,404.66,81.49,403,87c-1.37,4.51-1.92,9.59.2,13.8C405.54,105.41,410.6,108,415.5,109.73Z"/></g><path class="cls-2" d="M168,12.08,330.52,28.25a2.2,2.2,0,0,1,1.54,3.5L314,56,178.75,42.55l-13-27.34A2.2,2.2,0,0,1,168,12.08Z"/><polygon class="cls-7" points="175.25 19.42 321.94 34.01 310.42 51.22 184.17 38.59 175.25 19.42"/><rect class="cls-2" x="175.26" y="49.12" width="135.87" height="63.8" transform="translate(477.17 185.71) rotate(-174.32)"/><path class="cls-5" d="M265.16,27.54c4.78,0,9.52.49,14.26,1l14.22,1.36c4.74.45,9.48.89,14.22,1.4l14.21,1.47h0a1.28,1.28,0,0,1,.89,2l-4.87,6.45c-1.64,2.13-3.33,4.23-5.18,6.22a.82.82,0,0,1-1.3-1c1.38-2.33,2.91-4.55,4.49-6.73l4.8-6.5.9,2-14.22-1.36c-4.74-.44-9.48-.94-14.21-1.43L279.17,31c-4.74-.48-9.47-1-14.17-1.87a.82.82,0,0,1,.16-1.62Z"/><path class="cls-5" d="M179.21,29.64a24.42,24.42,0,0,1-2.76-4.74L174,20a1.33,1.33,0,0,1,1.31-1.91h0c3,.27,5.95.58,8.92.9l4.45.51a17,17,0,0,1,4.41.89A.84.84,0,0,1,193,22a17,17,0,0,1-4.5,0L184,21.63c-3-.27-6-.55-8.92-.88l1.34-1.91,2.28,5a24.42,24.42,0,0,1,1.93,5.13.84.84,0,0,1-1.47.7Z"/><polyline class="cls-6" points="278.1 75.78 185.44 66.56 187.06 50.64"/><line class="cls-6" x1="290.42" y1="68.88" x2="197.14" y2="59.61"/><polyline class="cls-6" points="207.1 52.63 304.91 62.36 303.87 72.84"/><line class="cls-6" x1="286.63" y1="84.74" x2="213.74" y2="77.49"/><rect class="cls-6" x="224.22" y="88.05" width="39.31" height="17.96" transform="translate(476.95 217.72) rotate(-174.32)"/><line class="cls-6" x1="199.29" y1="76.8" x2="184.6" y2="75.34"/><path class="cls-6" d="M283.66,157.17s4.66,4.31,15.94,6.1c11.44,1.81,19.07-2.33,19.07-2.33s-.93-5.36.88-16.77l1.79-11.27-16.5-2.62c-11.66-1.85-14,1.61-14,1.61s-3.42,1.87-5.07,12.27Z"/><polyline class="cls-6" points="295.48 130.12 293.98 134.72 288.52 135.49"/><path class="cls-6" d="M398.66,103.47a83.61,83.61,0,0,0,15.77,9.76c10.38,5.13,15.76,5.82,15.76,5.82l6.62-13.39,7.4-15-15-7.4-15-7.4a97.75,97.75,0,0,1-7.4,15C401.32,100.32,398.66,103.47,398.66,103.47Z"/><path class="cls-6" d="M359.2,54.49,362,62.66l15.93,5,15.93,5,5-15.93,5-15.93-2.84-8.17"/><path class="cls-6" d="M360.19,51.36l-1,3.12,15.93,5,15.93,5,5-15.93,5-15.93"/><path class="cls-6" d="M357,48.4s8.31,8,26.89,13.87l7.2,2.27,5-15.93,5-15.93-15.93-5-15.93-5-2.38,7.52C361.93,45.84,357,48.4,357,48.4Z"/><path class="cls-5" d="M295.85,140.49a14.79,14.79,0,0,1,2.21,2.4l-1.4-.21,2.58-2a1,1,0,0,1,1.45.2h0v0l1.95,2.59-1.51-.23c.87-.65,1.73-1.29,2.61-1.93h0a1.07,1.07,0,0,1,1.5.24l1.91,2.63-1.48-.22,2.64-1.89,0,0a1,1,0,0,1,1.39.23,12.13,12.13,0,0,1,1.64,2.82.68.68,0,0,1-1,.77,12.13,12.13,0,0,1-2.21-2.4l1.41.21-2.58,2a1,1,0,0,1-1.46-.2h0v0l-1.95-2.6,1.51.23c-.86.65-1.74,1.29-2.61,1.92h0a1.07,1.07,0,0,1-1.49-.24h0l-1.9-2.63,1.47.22-2.64,1.89,0,0a1,1,0,0,1-1.37-.23h0a14.79,14.79,0,0,1-1.64-2.82.67.67,0,0,1,1-.77Z"/><path class="cls-5" d="M418.33,87.37a14.79,14.79,0,0,1,1.29,3l-1.25-.66,3.09-1a1,1,0,0,1,1.3.67h0v0l1,3.09-1.35-.71c1-.33,2.06-.65,3.1-1h0a1.07,1.07,0,0,1,1.33.72l.93,3.11-1.32-.7,3.11-.91h0a1,1,0,0,1,1.24.68,12.13,12.13,0,0,1,.61,3.21.68.68,0,0,1-1.24.38,12.13,12.13,0,0,1-1.3-3l1.26.67-3.09,1a1,1,0,0,1-1.31-.67h0v0l-1-3.09,1.35.72c-1,.33-2.07.64-3.1.95h0a1.07,1.07,0,0,1-1.33-.72h0L420.75,90l1.31.7-3.11.91h0A1,1,0,0,1,417.7,91h0a14.79,14.79,0,0,1-.62-3.2.67.67,0,0,1,1.24-.38Z"/><path class="cls-5" d="M419.08,99.43a10.38,10.38,0,0,1,1.31,3l-1.28-.68c1-.34,2.05-.68,3.09-1a1.07,1.07,0,0,1,1.34.7h0c.33,1,.65,2.06,1,3.1l-1.35-.71c1-.31,2.08-.61,3.12-.9l.06,0a1,1,0,0,1,1.22.68v0a9.32,9.32,0,0,1,.59,3.21.7.7,0,0,1-1.24.38,9.32,9.32,0,0,1-1.31-3l1.28.68c-1,.34-2.05.68-3.09,1a1.08,1.08,0,0,1-1.34-.7v0c-.33-1-.64-2.06-.95-3.1l1.34.71c-1,.31-2.08.6-3.12.9h0a1,1,0,0,1-1.24-.69h0a10.38,10.38,0,0,1-.6-3.21.69.69,0,0,1,1.24-.38Z"/><path class="cls-6" d="M332,109.18s2.82,1.25,14,3.63c11.33,2.41,17.54,1.29,17.54,1.29s.25-4.67,3.11-18.09c2.19-10.3-1.14-11.85-1.14-11.85s-1.23-1.62-12.56-4l-16.34-3.47-2.54,12C330.67,104.42,332,109.18,332,109.18Z"/><polyline class="cls-6" points="367.34 89.11 361.96 86.83 361.15 82.23"/><path class="cls-5" d="M343.77,87.53a14.79,14.79,0,0,1,1.89,2.66l-1.36-.39,2.81-1.62a1,1,0,0,1,1.41.38h0v0l1.6,2.82L348.67,91c.94-.53,1.88-1.06,2.83-1.58h0a1.07,1.07,0,0,1,1.45.43l1.56,2.85-1.44-.41,2.86-1.54h0a1,1,0,0,1,1.35.4,12.14,12.14,0,0,1,1.27,3,.68.68,0,0,1-1.14.63,12.14,12.14,0,0,1-1.89-2.66l1.37.39-2.81,1.62a1,1,0,0,1-1.42-.38h0v0l-1.6-2.82,1.47.42c-.94.54-1.89,1.06-2.83,1.58h0a1.07,1.07,0,0,1-1.45-.42h0l-1.55-2.85,1.43.41-2.86,1.54,0,0a1,1,0,0,1-1.33-.4h0a14.79,14.79,0,0,1-1.27-3,.67.67,0,0,1,1.14-.63Z"/><path class="cls-5" d="M309,156.71a14.08,14.08,0,0,1-4-1.64c-1.28-.62-2.55-1.24-3.84-1.78a39.21,39.21,0,0,0-3.9-1.47q-1-.3-2-.53a6.44,6.44,0,0,1-1-.28,3.88,3.88,0,0,1-1-.46l-.06,0a.89.89,0,0,1,.21-1.58,4.81,4.81,0,0,1,2.31-.11q1.12.2,2.23.48a30.18,30.18,0,0,1,4.26,1.48q2,.91,4,2a12.21,12.21,0,0,1,3.6,2.52.87.87,0,0,1-.79,1.42Z"/><rect class="cls-6" x="130.65" y="50.26" width="6.35" height="28.69" transform="translate(280.25 89.93) rotate(164.05)"/><rect class="cls-6" x="122.51" y="32.58" width="9.63" height="18.59" transform="translate(261.26 47.14) rotate(164.05)"/><polyline class="cls-6" points="140.82 77.52 139.41 84.14 134.71 79.27"/><path class="cls-5" d="M140.61,83.8l.77,4.3a.82.82,0,0,1-1.56.45l-1.61-4.06a1.26,1.26,0,0,1,2.33-.93A1.33,1.33,0,0,1,140.61,83.8Z"/><rect class="cls-6" x="399.91" y="175.95" width="8.03" height="26.38" transform="translate(98.7 514.36) rotate(-71.91)"/><path class="cls-5" d="M389.24,189.73l-5.84-6.54a.9.9,0,0,1,.07-1.26.91.91,0,0,1,.42-.21l8.54-1.72a1.25,1.25,0,0,1,.49,2.45l-.11,0-8.66,1,.49-1.47,6.38,6a1.25,1.25,0,0,1-1.72,1.82Z"/><path class="cls-6" d="M430.5,196.37l-.86,2.63a4.39,4.39,0,0,1-5.54,2.81l-5.81-1.92-3.07-2.84,2.49-7.63,4.16-.51,5.81,1.92A4.39,4.39,0,0,1,430.5,196.37Z"/><line class="cls-6" x1="418.29" y1="199.89" x2="421.88" y2="188.91"/><rect class="cls-6" x="435.82" y="140.34" width="8.11" height="36.99" transform="translate(429.97 626.4) rotate(-108.64)"/><polyline class="cls-6" points="423.64 168.59 418.88 165.91 421.05 160.9"/><path class="cls-5" d="M419.28,167.1l-4.72,1.13a.82.82,0,0,1-.52-1.54l4.44-2a1.26,1.26,0,0,1,1,2.3Z"/><line class="cls-6" x1="457.4" y1="152.92" x2="464.54" y2="150.51"/><path class="cls-5" d="M455.7,158l1.4,4.15a1.25,1.25,0,0,1-.78,1.58l-11.6,3.91a.87.87,0,0,1-.6-1.64h0l11.43-4.43-.66,1.33-1.59-4.08a1.25,1.25,0,0,1,2.33-.91l0,.05Z"/><polygon class="cls-6" points="188.83 134.46 180.98 130.96 167.87 160.64 175.72 164.14 188.83 134.46"/><path class="cls-5" d="M180.21,130l7.5-5.45a.89.89,0,0,1,1.25.2.9.9,0,0,1,.17.43l1,9.23a1.25,1.25,0,1,1-2.49.26s0-.07,0-.1l-.2-9.27,1.42.63-7,6a1.25,1.25,0,1,1-1.63-1.9Z"/><line class="cls-6" x1="171.8" y1="162.39" x2="169.35" y2="167.87"/><path class="cls-1" d="M314.77,199.16c6.43-9.63,11.53-32.44,11.74-42.1.12-5.52-5.77-9.19-12.5-18.37-7-9.61-9.09-14.79-22-29.16-2.38-2.65-4-4.5-7.23-6-2.57-1.17-11.21-5.26-13.21-7.35-1.62-1.7-4-5.68-4.4-8.38-.12-.9-.88-2.23-.58-3,1.19-3.15,4.86-1.27,5.91,1.86.63,1.89,3.42,3,4.31,3.44,1.29.66,4.15,1.75,4.15,1.75.5-.49-.52-1.62-1-2.46l-5.63-6.48a13,13,0,0,0-3.58-3.3c-1.57-.83-4.34-1.29-6-1.74-2.56-.68-2.66-5.24.73-4.89,3.74.38,7.4.76,10.24,3.49a103.72,103.72,0,0,1,7.53,8.58v0a2.22,2.22,0,0,0-.26-1.72,27,27,0,0,0-10.53-11.58c-2-1.29-3.89-2-5.94-3.67A2.47,2.47,0,0,1,269.33,64c7.91,3.74,13.58,7.81,18,15.29.26.09.24-.89.12-1.62a12.78,12.78,0,0,0-2.69-6.44c-1.32-1.82-2.92-3.62-4.36-5.46-1.83-2.34-.56-5.39,2.53-4,2.79,1.25,4.28,3.85,6,6.24a37.37,37.37,0,0,1,4.06,7.69,4.84,4.84,0,0,1,.25.62,1.5,1.5,0,0,0,.71-1.29c-.12-2.89-1.36-5.23-2.75-8.4-1.21-2.76,2.22-4.86,4.15-2.08,4.91,7,4.58,12.69,6.92,20.81.72,2.52.88,5.25,1.67,7.07,1.78,5.07,15.53,16.44,27.2,28.94,11.25,12.06,20.13,26.41,22.81,32.06,5.44,11.48-6.75,66.62-15.35,75.51-10.91,11.26-34.29,14.42-54.52,18.31"/><path class="cls-5" d="M314.06,198.69a52.55,52.55,0,0,0,4-8.84c1.1-3.08,2.11-6.2,3-9.37a131.25,131.25,0,0,0,3.88-19.26c.09-.81.16-1.62.22-2.42,0-.4.05-.8.06-1.2l0-.59c0-.17,0-.34,0-.51a8.24,8.24,0,0,0-1.53-4,94.69,94.69,0,0,0-6.27-7.48c-4.45-5-8.1-10.73-11.77-16.18a154.9,154.9,0,0,0-12.05-15.59l-3.28-3.71a24.15,24.15,0,0,0-3.39-3.29,20.51,20.51,0,0,0-4.13-2.26c-1.51-.71-3-1.45-4.5-2.21s-3-1.56-4.43-2.43a25.35,25.35,0,0,1-2.18-1.44,8.86,8.86,0,0,1-1.09-1c-.32-.35-.61-.69-.87-1a24.13,24.13,0,0,1-2.68-4.5,14.69,14.69,0,0,1-.91-2.55,7,7,0,0,1-.14-.71l0-.27c0-.06,0-.13,0-.21-.08-.32-.23-.71-.36-1.16a3.81,3.81,0,0,1-.18-1.8,3.23,3.23,0,0,1,.09-.33l.08-.2a3.42,3.42,0,0,1,.18-.37,3.92,3.92,0,0,1,.5-.73,3.14,3.14,0,0,1,1.67-1,3.52,3.52,0,0,1,1.85.1,5.66,5.66,0,0,1,2.54,1.78,7.06,7.06,0,0,1,.83,1.23,6.22,6.22,0,0,1,.31.67l.21.57a3.5,3.5,0,0,0,1.22,1.38,13.36,13.36,0,0,0,2,1.15c1.44.78,2.92,1.41,4.44,2.05h0l-1,.2a.48.48,0,0,0-.17.29c0,.06,0,.05,0,0a3.62,3.62,0,0,0-.25-.41c-.23-.34-.53-.69-.82-1.19l.14.2c-1.43-1.5-2.8-3.05-4.17-4.6l-2-2.37a14.51,14.51,0,0,0-2-2.09c-1.3-1.1-3.39-1.51-5.38-2l-.77-.19-.4-.11a3.4,3.4,0,0,1-.51-.18,3.6,3.6,0,0,1-1.57-1.4,4,4,0,0,1-.61-2,3.4,3.4,0,0,1,.62-2.16,3.12,3.12,0,0,1,2-1.23,4.39,4.39,0,0,1,1.08,0l.79.08c1,.11,2.1.24,3.16.44a13.51,13.51,0,0,1,6.17,2.61A24.52,24.52,0,0,1,278,77.21c.72.78,1.4,1.57,2.08,2.38,1.33,1.62,2.59,3.27,3.86,4.88h0l-1.56.29a.75.75,0,0,0,0-.42,2.48,2.48,0,0,0-.21-.6c-.25-.49-.5-1-.77-1.51a26.12,26.12,0,0,0-1.81-2.86,25.47,25.47,0,0,0-4.71-4.86,32.15,32.15,0,0,0-2.79-2c-.95-.61-2-1.12-3-1.7a19.63,19.63,0,0,1-3.06-2A3.62,3.62,0,0,1,264.75,67a3.58,3.58,0,0,1,.17-2.39,3.4,3.4,0,0,1,1.74-1.76,3.78,3.78,0,0,1,2.46-.15,14.35,14.35,0,0,1,1.8.76c.54.24,1.07.52,1.6.79A48.21,48.21,0,0,1,278.63,68a32.49,32.49,0,0,1,9.44,10.82h0l-.47-.39a.82.82,0,0,0-.79.13.74.74,0,0,0-.21.26c0,.1,0,.08,0,.07a1.52,1.52,0,0,0,0-.2,5,5,0,0,0,0-.58c0-.37-.13-.86-.21-1.27a11.29,11.29,0,0,0-.75-2.44A21.19,21.19,0,0,0,282.66,70l-1.75-2.12L280,66.79l-.44-.56a6.2,6.2,0,0,1-.46-.7,4,4,0,0,1-.3-3.52,2.81,2.81,0,0,1,1.51-1.49,3.55,3.55,0,0,1,2-.16,7.43,7.43,0,0,1,2.92,1.4,11.36,11.36,0,0,1,2.16,2.13c.61.77,1.16,1.54,1.67,2.31l.76,1.14c.27.4.53.8.78,1.21a36.43,36.43,0,0,1,2.52,5.08l.52,1.3.25.62A4.39,4.39,0,0,1,294,76l0,.06a1,1,0,0,0-.82-.65.8.8,0,0,0-.32,0c-.2.08-.16.08-.18.09l0,0a.91.91,0,0,0,.19-.29.48.48,0,0,0,0-.12.64.64,0,0,0,0-.17,10.35,10.35,0,0,0-.14-1.26,20.74,20.74,0,0,0-1.74-5l-.57-1.26a5.09,5.09,0,0,1-.51-1.56,3.25,3.25,0,0,1,1.63-3.28,3.21,3.21,0,0,1,1.95-.4,3.6,3.6,0,0,1,1.8.76,4.89,4.89,0,0,1,1.12,1.26c.27.4.55.78.8,1.19a27.14,27.14,0,0,1,2.49,5.18,93.42,93.42,0,0,1,2.67,10.84q.3,1.33.65,2.63c.23.83.51,1.81.69,2.74A32.25,32.25,0,0,0,305,91.92l0,0v0a11,11,0,0,0,1.54,2.56c.65.85,1.36,1.69,2.1,2.51,1.48,1.64,3,3.24,4.63,4.82,3.18,3.16,6.44,6.27,9.65,9.43s6.41,6.36,9.49,9.69,6,6.83,8.75,10.43,5.38,7.3,7.84,11.11c1.23,1.9,2.43,3.83,3.57,5.81.57,1,1.13,2,1.66,3,.27.51.52,1,.78,1.56a11.31,11.31,0,0,1,.64,1.79,30.23,30.23,0,0,1,.81,7c0,2.3-.05,4.59-.21,6.86-.33,4.54-.91,9-1.63,13.51a226.38,226.38,0,0,1-5.95,26.49,123.87,123.87,0,0,1-4.45,12.9,41.19,41.19,0,0,1-3.15,6.22,15.73,15.73,0,0,1-1.07,1.48c-.19.24-.42.49-.63.71l-.63.62a30.35,30.35,0,0,1-2.68,2.29,49,49,0,0,1-12.22,6.46,111.14,111.14,0,0,1-13.07,3.92c-8.82,2.13-17.72,3.58-26.54,5.27a1.21,1.21,0,0,1-.46-2.38c8.86-1.71,17.73-3.19,26.41-5.31A108.69,108.69,0,0,0,323,236.87a46.57,46.57,0,0,0,11.57-6.13,27.79,27.79,0,0,0,2.45-2.1l.57-.56c.18-.19.33-.35.49-.55a13.23,13.23,0,0,0,.9-1.25,39.65,39.65,0,0,0,2.94-5.82,121.44,121.44,0,0,0,4.36-12.62,223.89,223.89,0,0,0,5.9-26.18c.72-4.41,1.29-8.85,1.61-13.29.16-2.22.25-4.44.21-6.63a28,28,0,0,0-.72-6.39,8.86,8.86,0,0,0-.49-1.39c-.24-.48-.47-1-.73-1.46-.51-1-1-1.95-1.6-2.91-1.11-1.93-2.29-3.82-3.5-5.7q-3.64-5.63-7.72-11c-2.72-3.55-5.57-7-8.59-10.26s-6.2-6.46-9.4-9.61-6.46-6.26-9.66-9.45c-1.6-1.6-3.19-3.22-4.72-4.92-.77-.85-1.51-1.73-2.23-2.67a13.12,13.12,0,0,1-1.89-3.22l0,.08a32.26,32.26,0,0,1-1.33-5.6c-.17-.88-.4-1.66-.66-2.6s-.47-1.81-.67-2.72a92.44,92.44,0,0,0-2.58-10.56,26.15,26.15,0,0,0-2.27-4.75,15.3,15.3,0,0,0-1.32-2,1.21,1.21,0,0,0-2.13,1,3.4,3.4,0,0,0,.36,1l.55,1.26a24.63,24.63,0,0,1,1.89,5.4,12.16,12.16,0,0,1,.17,1.48,2.2,2.2,0,0,1,0,.52,2.29,2.29,0,0,1-.15.54,2.86,2.86,0,0,1-.56.86,2,2,0,0,1-.23.21,1.09,1.09,0,0,1-.32.18,1,1,0,0,1-.36.06,1,1,0,0,1-.84-.68v0a1.51,1.51,0,0,0-.09-.21l-.3-.65-.57-1.24a34.66,34.66,0,0,0-2.61-4.67c-.24-.37-.5-.73-.76-1.08l-.82-1.12c-.54-.74-1-1.47-1.6-2.13a12,12,0,0,0-1.75-1.74,6.74,6.74,0,0,0-2-1.09c-.62-.15-.94-.08-1.18.31a2,2,0,0,0,.1,1.79,2.78,2.78,0,0,0,.28.46l.41.52.86,1.06L284,68.87a25,25,0,0,1,3.18,4.76,13.09,13.09,0,0,1,.89,2.81c.09.49.18.9.25,1.44a6.72,6.72,0,0,1,0,.8,3.19,3.19,0,0,1,0,.48,1.49,1.49,0,0,1-.12.4,1.11,1.11,0,0,1-.31.4,1,1,0,0,1-1,.15.91.91,0,0,1-.45-.37l0,0h0a33.89,33.89,0,0,0-9.25-9.84,45.84,45.84,0,0,0-5.86-3.53l-1.54-.79c-.5-.24-1.1-.57-1.4-.68a1.32,1.32,0,0,0-1.72.55,1.52,1.52,0,0,0,.48,2A17.83,17.83,0,0,0,270,69.28c1,.56,2.07,1.11,3.09,1.77A34,34,0,0,1,276,73.14a27.6,27.6,0,0,1,5.05,5.17,27.92,27.92,0,0,1,2,3c.3.53.56,1.06.84,1.61a4.22,4.22,0,0,1,.35,1.06,2.61,2.61,0,0,1-.1,1.31h0a.91.91,0,0,1-1.17.54.92.92,0,0,1-.38-.26h0c-1.37-1.57-2.71-3.14-4.08-4.66-.68-.77-1.37-1.52-2.07-2.24a22.81,22.81,0,0,0-2.14-2,11.52,11.52,0,0,0-5.18-2.08c-1-.17-2-.29-3-.39l-.75-.07a2,2,0,0,0-.47,0,1,1,0,0,0-.58.28,1.66,1.66,0,0,0-.18,1.74,1.35,1.35,0,0,0,.65.69L265,77l.36.09.74.17c1,.22,2,.44,3.08.72a13.43,13.43,0,0,1,1.6.52,7.76,7.76,0,0,1,1.57.85,14.5,14.5,0,0,1,2.45,2.27l2.06,2.32c1.34,1.58,2.69,3.15,4,4.77l.06.07a.77.77,0,0,1,.08.13c.15.31.4.72.64,1.17a4.6,4.6,0,0,1,.36.84,1.91,1.91,0,0,1,.08.69,1.42,1.42,0,0,1-.44.92l0,0a.9.9,0,0,1-.93.17h0c-1.56-.56-3.17-1.14-4.69-1.86a15.41,15.41,0,0,1-2.35-1.26,5.64,5.64,0,0,1-2-2.27l-.24-.59c-.07-.15-.14-.3-.22-.45a4.76,4.76,0,0,0-.57-.82,3.38,3.38,0,0,0-1.47-1c-.52-.13-.75-.05-1,.23a1.54,1.54,0,0,0-.19.3,1.31,1.31,0,0,0-.08.19l0,.09a0,0,0,0,0,0,0,2.58,2.58,0,0,0,.13.65c.1.35.25.73.38,1.21,0,.12.07.25.09.39l.06.34a4.71,4.71,0,0,0,.11.51,12.34,12.34,0,0,0,.77,2.12,21.75,21.75,0,0,0,2.41,4c.23.31.48.6.72.86a6.48,6.48,0,0,0,.78.67,23.09,23.09,0,0,0,2,1.29c1.38.82,2.83,1.6,4.29,2.34s2.94,1.46,4.43,2.16a23.11,23.11,0,0,1,4.57,2.51,26.49,26.49,0,0,1,3.76,3.6l3.32,3.73a157.55,157.55,0,0,1,12.3,15.79c3.75,5.5,7.26,11,11.57,16l3.27,3.73a38.8,38.8,0,0,1,3.18,4,10.77,10.77,0,0,1,1.93,5.22c0,.24,0,.48,0,.73l0,.65c0,.43,0,.85-.07,1.28-.06.85-.14,1.69-.23,2.53a127.45,127.45,0,0,1-4,19.65,94.06,94.06,0,0,1-3.24,9.51,43.74,43.74,0,0,1-4.71,9,.85.85,0,0,1-1.42-.92Z"/><path class="cls-1" d="M201.65,247.23c-20.55-.16-39.68-3.14-48-10.82s-43-52.13-43-66.17c0-10.74,15.84-35.63,31.34-53.18,8.15-9.22,14.84-15,18.1-19.37,2.78-3.76,7.77-8.48,8-13.68a25.08,25.08,0,0,1,4.56-13.94c1.93-2.77,5.21-.87,3.92,2.28-.87,2.12-1.36,2.88-1.28,5.25,0,.81.78,3.75.92,3a15.93,15.93,0,0,1,4.62-8.77c2.09-2,4.39-3.73,6.36-5.82,2.34-2.48,5-.05,3.52,3-.93,2-3.44,4.08-5.27,5.74a14.68,14.68,0,0,0-2,1.9,6.22,6.22,0,0,0-1.47,4.58,2.73,2.73,0,0,0,.51,1,14.58,14.58,0,0,1,2.92-6.87,12.27,12.27,0,0,1,5.39-3.61c3.62-1.5,7.26-3,10.89-4.41,2.57-1,4.34,1.93,2.22,3.92a18.46,18.46,0,0,1-5.49,2.86,33.65,33.65,0,0,0-7.51,3.33c-2.37,1.58-3.34,4.54-3.39,7.4a19.75,19.75,0,0,1,5.26-5.7c3.42-2.13,7.61-3.53,11.38-4.85,3.22-1.12,4.51,2.87,1.49,4.69a37.25,37.25,0,0,1-5.15,2.24,29.08,29.08,0,0,0-4.4,2.14,16.52,16.52,0,0,0-5.28,6c-.06.12-1.57,2.39-1,3.14a14.52,14.52,0,0,0,4.75-1.2,22,22,0,0,1,6.12-3.27c3.4-1,6.19,1.37,3.74,3.74a51.8,51.8,0,0,1-5.21,4.42,3,3,0,0,1-.42.34l-.29.17a70.67,70.67,0,0,1-8.44,5.11c-4.69,2.46-11.3,3.11-15.32,6.71-4.48,3.53-10.2,14.43-15.67,21.6-10.67,14-20.33,26.73-19.16,32.8,1.78,9.18,20.56,33.54,28.2,40.19"/><path class="cls-5" d="M201.64,248.44a180.2,180.2,0,0,1-19.41-1.13,86.34,86.34,0,0,1-19.11-4.17,33.93,33.93,0,0,1-8.85-4.61,29,29,0,0,1-3.67-3.42c-1.12-1.19-2.2-2.41-3.26-3.63-4.23-4.91-8.23-10-12.13-15.13s-7.66-10.41-11.25-15.79a173.83,173.83,0,0,1-10-16.67,54.53,54.53,0,0,1-3.82-9.1,15.35,15.35,0,0,1-.74-5.14,22.17,22.17,0,0,1,.91-5,58.33,58.33,0,0,1,3.66-9.15c1.43-2.93,3-5.78,4.65-8.58,3.31-5.58,6.93-11,10.76-16.18s7.9-10.27,12.21-15.1,8.92-9.41,13.38-14c1.1-1.15,2.19-2.31,3.18-3.51.5-.6.94-1.2,1.47-1.88l1.54-1.9c2-2.47,4-4.94,5.08-7.69.14-.34.22-.69.33-1s.17-.69.19-1c.09-.63.1-1.56.19-2.37a28.87,28.87,0,0,1,.89-5,23.27,23.27,0,0,1,1.85-4.72,20,20,0,0,1,1.3-2.17c.24-.35.47-.67.74-1a4.66,4.66,0,0,1,1.15-1.09,3.18,3.18,0,0,1,3.41-.14,3.23,3.23,0,0,1,1.46,3,4.56,4.56,0,0,1-.34,1.47l-.49,1.14a8.9,8.9,0,0,0-.7,2.09,7.35,7.35,0,0,0-.09,1.07c0,.19,0,.37,0,.56v.24l0,.24a13.45,13.45,0,0,0,.54,2.16l.06.14-.06-.08c-.07,0-.05-.32-.84-.24-.59.24-.54.48-.59.52a.24.24,0,1,1,0,0l.12-.62q.13-.62.29-1.23a18.49,18.49,0,0,1,.82-2.41,15.63,15.63,0,0,1,2.74-4.37,46.92,46.92,0,0,1,3.61-3.39c1.21-1.05,2.38-2.08,3.49-3.18a3.86,3.86,0,0,1,3-1.26,2.83,2.83,0,0,1,1.69.8,3.3,3.3,0,0,1,.85,1.5,4.48,4.48,0,0,1-.32,3,9.61,9.61,0,0,1-1.47,2.23,37.32,37.32,0,0,1-3.54,3.46l-1.81,1.59a5,5,0,0,0-.7.76,9.44,9.44,0,0,0-.6.92,5.09,5.09,0,0,0-.66,1.93,4.24,4.24,0,0,0,0,1,1.94,1.94,0,0,0,.33.63h0l-1.61.41a15.33,15.33,0,0,1,2.56-6.87,10.84,10.84,0,0,1,2.69-2.73A17.21,17.21,0,0,1,190,70.85l6.43-2.64L199.69,67l1.67-.62a3.5,3.5,0,0,1,2.44,0,3.09,3.09,0,0,1,1.73,1.81,3.31,3.31,0,0,1-.06,2.4,4.22,4.22,0,0,1-1.36,1.71,12.36,12.36,0,0,1-1.58,1,25.39,25.39,0,0,1-3.27,1.49c-1.14.41-2.19.75-3.26,1.17a31.16,31.16,0,0,0-3.09,1.35c-.49.25-1,.53-1.43.82a5.84,5.84,0,0,0-1.17,1,8.74,8.74,0,0,0-2,5.83h0l-1.65-.53a22.66,22.66,0,0,1,4.58-5.51,21.61,21.61,0,0,1,3.1-1.9c1-.55,2.12-1,3.2-1.48s2.17-.86,3.25-1.25l1.63-.58.81-.29.4-.14a5.55,5.55,0,0,1,.54-.16,3.57,3.57,0,0,1,2.48.25,3.09,3.09,0,0,1,1.57,2.08,4,4,0,0,1-1.65,4,11.46,11.46,0,0,1-1.64,1l-1.61.77-3.12,1.42q-1.51.72-2.93,1.5A14.22,14.22,0,0,0,196,85a11.53,11.53,0,0,0-1.18,1,18.43,18.43,0,0,0-2.09,2.43c-.32.44-.62.9-.9,1.36l-.11.17c-.08.14-.1.15-.14.21l-.22.33c-.14.22-.28.44-.39.67a5.83,5.83,0,0,0-.3.64c-.08.18-.09.39-.11.31a.42.42,0,0,0-.07-.1.83.83,0,0,0-.4-.29l-.09,0h-.08s0,0,0,0l.33-.07.78-.2c.53-.15,1.06-.32,1.57-.5a7.9,7.9,0,0,0,1.31-.57l-.09.06a23.11,23.11,0,0,1,4.87-2.92c1.65-.74,4.16-1.48,6.37-.06a3.3,3.3,0,0,1,1.31,1.66,3,3,0,0,1-.12,2.19,4.61,4.61,0,0,1-1.07,1.47l-1,1a53.22,53.22,0,0,1-4.28,3.53l.11-.1a4.1,4.1,0,0,1-.61.48,4.14,4.14,0,0,0-.45.29l-.91.63q-.94.64-1.9,1.24c-1.28.81-2.58,1.56-3.9,2.29-.67.36-1.3.71-2,1.06a22.89,22.89,0,0,1-2.14.94c-1.43.56-2.87,1-4.27,1.46-2.79.91-5.56,1.83-7.69,3.47a27.91,27.91,0,0,0-5.61,6.37c-3.36,4.8-6.35,9.95-9.93,14.8s-7.21,9.42-10.62,14.24c-1.7,2.41-3.36,4.84-4.87,7.34a35.14,35.14,0,0,0-3.7,7.71,9.85,9.85,0,0,0-.38,1.94,6.36,6.36,0,0,0,0,.91l.06.42.11.48a22.16,22.16,0,0,0,1.48,3.93,72.47,72.47,0,0,0,4.27,7.63c3.14,5,6.61,9.75,10.2,14.42,1.82,2.32,3.65,4.63,5.55,6.88a80.54,80.54,0,0,0,5.94,6.45h0a.85.85,0,0,1-1.12,1.27,66.69,66.69,0,0,1-6.41-6.34q-3-3.33-5.79-6.83a164.13,164.13,0,0,1-10.43-14.56,74.75,74.75,0,0,1-4.43-7.89,24.41,24.41,0,0,1-1.64-4.39l-.14-.6-.09-.68a8.75,8.75,0,0,1,0-1.31,12.26,12.26,0,0,1,.46-2.42,37.3,37.3,0,0,1,3.94-8.31c1.55-2.58,3.24-5.06,5-7.5,3.44-4.87,7.09-9.59,10.64-14.3s6.47-9.82,9.92-14.74q1.29-1.85,2.75-3.63a21.15,21.15,0,0,1,3.39-3.28c2.61-2,5.62-2.92,8.43-3.84,1.42-.46,2.81-.9,4.14-1.41a20.48,20.48,0,0,0,1.93-.84c.62-.3,1.29-.67,1.93-1,1.28-.7,2.54-1.44,3.78-2.21q.92-.58,1.83-1.19l.92-.64a4.75,4.75,0,0,1,.49-.31,1.64,1.64,0,0,0,.26-.21h0l.11-.09a50.79,50.79,0,0,0,4.09-3.37l1-.91a2.24,2.24,0,0,0,.53-.69.57.57,0,0,0,0-.45.89.89,0,0,0-.37-.41,2.9,2.9,0,0,0-1.81-.35,4.82,4.82,0,0,0-1.05.23,12.08,12.08,0,0,0-1.15.44,28.54,28.54,0,0,0-4.47,2.54l-.08.05h0a7.89,7.89,0,0,1-1.89.64c-.59.14-1.17.24-1.77.33l-.91.12-.52,0h-.2l-.18,0-.15,0a1,1,0,0,1-.45-.32,1.55,1.55,0,0,1-.26-.48,2.58,2.58,0,0,1,0-1.38,6.28,6.28,0,0,1,.32-1,21.57,21.57,0,0,1,4-6A14,14,0,0,1,194.5,83a12.41,12.41,0,0,1,1.58-1,20.91,20.91,0,0,1,3.26-1.48c1.11-.42,2.22-.72,3.28-1.1a13.8,13.8,0,0,0,1.54-.61,6.35,6.35,0,0,0,1.31-.75,1.81,1.81,0,0,0,.66-2c-.29-.54-.62-.69-1.38-.56-.09,0-.18.05-.29.08l-.41.14-.81.28-1.61.56c-1.07.38-2.13.77-3.17,1.18s-2.07.86-3.06,1.34a19.83,19.83,0,0,0-2.81,1.6,22.53,22.53,0,0,0-4.4,4.83l0,0a.9.9,0,0,1-1.26.2.91.91,0,0,1-.37-.77h0a10.73,10.73,0,0,1,2.51-7,7.62,7.62,0,0,1,1.5-1.24c.51-.33,1-.63,1.57-.91a32.84,32.84,0,0,1,3.26-1.44c1.08-.43,2.23-.81,3.26-1.19a23.66,23.66,0,0,0,3-1.4c1-.54,1.85-1.16,2.06-1.86a1.15,1.15,0,0,0-.66-1.56,1.41,1.41,0,0,0-1,.09l-1.54.67-3.19,1.34L190.94,73a10.82,10.82,0,0,0-5.1,3.56,14.26,14.26,0,0,0-2.53,5.89v0a.9.9,0,0,1-1.61.38h0a3.28,3.28,0,0,1-.69-1.53,6,6,0,0,1,0-1.41,6.88,6.88,0,0,1,.9-2.6,11.19,11.19,0,0,1,.72-1.09,6.77,6.77,0,0,1,.94-1c.67-.59,1.21-1,1.82-1.6a35.85,35.85,0,0,0,3.35-3.3,7.19,7.19,0,0,0,1.17-1.79A2.61,2.61,0,0,0,190,66.8c-.39-1-1.18-.94-2,0a40.16,40.16,0,0,1-3.56,3.42c-1.21,1-2.49,2.1-3.52,3.12A13.93,13.93,0,0,0,178.35,77a16.5,16.5,0,0,0-.85,2.11q-.17.55-.32,1.1l-.14.56s0,.12-.05.19,0,.38-.67.64c-.84.09-.87-.3-1-.31a1.25,1.25,0,0,1-.15-.2,2.75,2.75,0,0,1-.19-.41,14.9,14.9,0,0,1-.64-2.52l0-.35c0-.14,0-.27,0-.37s0-.43,0-.65a9.14,9.14,0,0,1,.13-1.33,12.1,12.1,0,0,1,.81-2.48c.15-.37.32-.76.44-1.09a2.7,2.7,0,0,0,.15-.88,1.24,1.24,0,0,0-.6-1.15,1.06,1.06,0,0,0-1.14.19,2.47,2.47,0,0,0-.55.61l-.61,1q-.59,1-1.11,2a24.71,24.71,0,0,0-1.67,4.26,25.87,25.87,0,0,0-.82,4.54c-.09.8-.08,1.48-.2,2.45,0,.46-.17.89-.25,1.33s-.24.86-.41,1.27c-1.27,3.3-3.46,5.89-5.48,8.38l-1.5,1.85c-.46.59-1,1.29-1.51,1.93-1.06,1.28-2.18,2.47-3.3,3.65-4.52,4.65-9.07,9.13-13.32,13.93s-8.27,9.77-12.07,14.93-7.37,10.48-10.63,16c-1.63,2.75-3.16,5.55-4.55,8.4a56,56,0,0,0-3.51,8.76,19.87,19.87,0,0,0-.82,4.46,13,13,0,0,0,.65,4.36,52.3,52.3,0,0,0,3.65,8.68A171.55,171.55,0,0,0,126,199.22c3.56,5.33,7.3,10.55,11.17,15.67s7.85,10.16,12,15c1,1.21,2.1,2.4,3.19,3.56a26.59,26.59,0,0,0,3.38,3.16,31.59,31.59,0,0,0,8.22,4.26,84,84,0,0,0,18.56,4A177.82,177.82,0,0,0,201.66,246a1.21,1.21,0,1,1,0,2.42Z"/><path class="cls-5" d="M236.27,153.93a18.77,18.77,0,0,1,2.58,1c.41.22.82.45,1.23.69s.8.51,1.18.82a11,11,0,0,1,2.1,2.09,8.07,8.07,0,0,1,.84,1.34,6.54,6.54,0,0,1,.32.79c0,.14.08.29.12.44a3.11,3.11,0,0,1,.07.59,1.23,1.23,0,0,1-1.18,1.27h-.12c-3.12,0-6.29,0-9.43.11s-6.28.28-9.41.48-6.24.56-9.3,1.06l-2.28.42c-.74.18-1.49.37-2.24.53l-2.19.59c-.73.2-1.39.48-2.14.67l-.18,0a.8.8,0,0,1-.65-1.45,16.35,16.35,0,0,1,2.17-1.32c.76-.31,1.53-.66,2.32-.89s1.58-.43,2.37-.63l2.38-.47c3.17-.56,6.36-.94,9.54-1.21s6.36-.44,9.55-.49,6.36-.07,9.56,0l-1.31,1.27c0,.09,0,0,0-.07l-.05-.2a4.05,4.05,0,0,0-.18-.45,5.58,5.58,0,0,0-.57-.92,10.54,10.54,0,0,0-1.63-1.7,23.26,23.26,0,0,0-2-1.52c-.7-.49-1.42-1-2.14-1.44l0,0a.82.82,0,0,1,.71-1.46Z"/><path class="cls-5" d="M271,189.75a15.88,15.88,0,0,0,3-3.88,19,19,0,0,0,1.72-4.58,26,26,0,0,0,.18-10,36.45,36.45,0,0,0-3-9.67,33.08,33.08,0,0,0-5.57-8.38,19.33,19.33,0,0,0-8.12-5.45,32.47,32.47,0,0,0-19.9-.81,30,30,0,0,0-9.13,4.06l0,0a.81.81,0,0,1-1.07-1.22,16.43,16.43,0,0,1,4.47-3.27,26.33,26.33,0,0,1,5.08-2,35,35,0,0,1,21.48.73,19.61,19.61,0,0,1,5,2.47,24.74,24.74,0,0,1,4.2,3.63,35.73,35.73,0,0,1,6,9.12,39,39,0,0,1,3.16,10.39,28,28,0,0,1-.32,10.95A15.51,15.51,0,0,1,272,191a.81.81,0,0,1-1-1.27Z"/><path class="cls-5" d="M226.17,174.64c-3,.66-6,.77-9.05,1.19a88.65,88.65,0,0,0-9,1.59,56.69,56.69,0,0,0-8.65,2.5,20.26,20.26,0,0,0-2.05.86,17.67,17.67,0,0,0-2,1c-.63.38-1.31.68-1.93,1a15.78,15.78,0,0,1-2,1l-.11,0a.82.82,0,0,1-.95-1.28,17.59,17.59,0,0,1,1.73-1.71,16.29,16.29,0,0,1,2-1.34,19.74,19.74,0,0,1,2.13-1.1,22.3,22.3,0,0,1,2.18-1,57.31,57.31,0,0,1,9-2.76,91.27,91.27,0,0,1,9.23-1.48,37.28,37.28,0,0,1,9.33-.26.82.82,0,0,1,.06,1.62Z"/><path class="cls-5" d="M211.05,187.39c-2.36,1.14-4.89,1.84-7.28,2.9a54.06,54.06,0,0,0-6.91,3.6,40.23,40.23,0,0,0-6.17,4.65c-2,1.69-3.31,3.85-5.26,5.67l0,0a.83.83,0,0,1-1.35-.88,12.91,12.91,0,0,1,.88-1.9c.17-.3.34-.61.54-.9l.64-.82c.45-.53.86-1.1,1.34-1.6l1.45-1.49a38.42,38.42,0,0,1,6.54-5.07,49.57,49.57,0,0,1,7.35-3.68,24.31,24.31,0,0,1,7.94-2.09.82.82,0,0,1,.38,1.57Z"/><path class="cls-5" d="M276.87,195a22.76,22.76,0,0,1,9.28-2,26.51,26.51,0,0,1,9.57,1.29,16.66,16.66,0,0,1,8,5.8,14.45,14.45,0,0,1,2.95,9.22.82.82,0,0,1-1.58.26l0-.08a15.85,15.85,0,0,1-.71-2.11l-.14-.53-.2-.5c-.12-.34-.25-.67-.36-1a9.78,9.78,0,0,0-.86-1.94,7.64,7.64,0,0,0-.51-.92l-.62-.85a14.14,14.14,0,0,0-6.79-4.77,23.9,23.9,0,0,0-8.59-1.28c-3,0-5.86.66-8.88,1h0a.82.82,0,0,1-.45-1.56Z"/><path class="cls-5" d="M289.89,206.86c2.78,2,4.4,5,5.77,7.9a38.85,38.85,0,0,1,2.87,9.32,29.38,29.38,0,0,1,.05,9.84,17.52,17.52,0,0,1-1.58,4.82,8.67,8.67,0,0,1-3.5,3.76.83.83,0,0,1-1-1.23l0,0a21.14,21.14,0,0,0,2.28-3.62,15,15,0,0,0,1.28-4.14,27.25,27.25,0,0,0-.19-8.95,36.22,36.22,0,0,0-2.54-8.72,45.41,45.41,0,0,0-4.55-7.78l0,0a.82.82,0,0,1,1.15-1.14Z"/><path class="cls-5" d="M282.3,227a7.53,7.53,0,0,1,2.37,3,20.86,20.86,0,0,1,1.19,3.53,26.75,26.75,0,0,1,.75,7.3,20.33,20.33,0,0,1-1.54,7.29,13.12,13.12,0,0,1-2,3.3,6.28,6.28,0,0,1-3.28,2.12.84.84,0,0,1-.79-1.4l0,0a30.46,30.46,0,0,0,2.12-2.29,10.58,10.58,0,0,0,1.55-2.7,19.18,19.18,0,0,0,1.23-6.38,26.58,26.58,0,0,0-.56-6.61,26,26,0,0,0-2.21-6l0-.08a.83.83,0,0,1,1.22-1Z"/><path class="cls-5" d="M272.93,247.23a6.44,6.44,0,0,1,.15,1.62c0,.27-.07.54-.11.81a3.05,3.05,0,0,1-.2.79,8.35,8.35,0,0,1-.64,1.48,9.2,9.2,0,0,1-.83,1.35,17.31,17.31,0,0,1-4.43,4.23,26.06,26.06,0,0,1-5.31,2.73c-.93.35-1.87.65-2.82.92a7.47,7.47,0,0,1-3,.25.86.86,0,0,1-.34-1.57l.05,0a6.31,6.31,0,0,1,1.27-.61,11.71,11.71,0,0,1,1.29-.45c.86-.28,1.72-.58,2.56-.94a27.52,27.52,0,0,0,4.75-2.55,16.17,16.17,0,0,0,3.85-3.5,14.73,14.73,0,0,0,2.12-4.51l0-.11a.82.82,0,0,1,1.59.11Z"/><path class="cls-5" d="M193,210.86a31.87,31.87,0,0,0-3.21,10,28.05,28.05,0,0,0,.46,10.43,20.58,20.58,0,0,0,4.69,9.1,17.2,17.2,0,0,0,1.84,1.77c.65.56,1.41,1.07,2.12,1.61s1.48,1,2.22,1.51l1.12.73,1.17.67c1.53.93,3.14,1.75,4.73,2.58s3.26,1.54,4.94,2.19a75.06,75.06,0,0,0,10.26,3.38,53.74,53.74,0,0,0,21.23,1.46h0a.81.81,0,0,1,.4,1.57,28,28,0,0,1-11.22,1.27,67,67,0,0,1-11.06-1.79,77.66,77.66,0,0,1-10.63-3.42A69.58,69.58,0,0,1,202.06,249l-1.21-.71-1.17-.78c-.77-.53-1.58-1-2.32-1.6s-1.51-1.1-2.24-1.74a19.84,19.84,0,0,1-2.1-2.05,23.18,23.18,0,0,1-5.22-10.27,29.71,29.71,0,0,1-.4-11.41A24.81,24.81,0,0,1,191.67,210a.81.81,0,0,1,1.38.85Z"/><path class="cls-5" d="M260,201.64a24.21,24.21,0,0,0-.92-3.84,17.76,17.76,0,0,0-2-3.63,22,22,0,0,0-2.71-3.22l-.77-.7c-.27-.2-.53-.43-.8-.61a10.89,10.89,0,0,1-1.47-1.14l-.23-.22a.81.81,0,0,1,.44-1.39,3.88,3.88,0,0,1,2.63.66c.36.22.68.47,1,.71l.94.78a20.5,20.5,0,0,1,3.17,3.59,17.73,17.73,0,0,1,2.21,4.32l.34,1.2c.07.42.15.84.21,1.26a8.46,8.46,0,0,1,0,1.31,5.5,5.5,0,0,1-.44,1.26.84.84,0,0,1-1.56-.18Z"/><path class="cls-5" d="M256.14,213.55a33.75,33.75,0,0,0-2.83-3.09,23.07,23.07,0,0,0-3.62-2.54,27.57,27.57,0,0,0-4-1.94,17.53,17.53,0,0,0-2.1-.67,9.35,9.35,0,0,1-2.07-.72l-.1-.05a.86.86,0,0,1,.12-1.57,4.85,4.85,0,0,1,2.6-.1,20,20,0,0,1,2.43.66,24.58,24.58,0,0,1,4.52,2,21.83,21.83,0,0,1,4,3,10.9,10.9,0,0,1,.89.92,8.11,8.11,0,0,1,.82,1,4.8,4.8,0,0,1,.91,2.56.84.84,0,0,1-1.44.6Z"/><path class="cls-5" d="M252.59,224.17c-.73.24-1.35-.15-2-.32l-2.06-.59-2-.6-1-.26a1.37,1.37,0,0,1-.44-.17l-.19-.14c0-.06,0-.11-.09-.21l-.46-.87a.59.59,0,0,1,.14-.73,1.89,1.89,0,0,1,.46-.24,2.06,2.06,0,0,1,.36-.1,2.1,2.1,0,0,1,.65,0c.4.05.79.12,1.17.19.76.13,1.49.34,2.22.54s1.44.46,2.15.76,1.47.43,2,1.38a.87.87,0,0,1-.31,1.19L253,224Z"/><path class="cls-5" d="M356.07,108.1a4.65,4.65,0,0,1-3.54-.52,3.54,3.54,0,0,1-1.42-1.77,3.25,3.25,0,0,1-.17-1.22,5.89,5.89,0,0,1,.14-1,6.3,6.3,0,0,0,.22-1.2c0-.1,0-.09,0-.09l-.07-.06a4.25,4.25,0,0,0-1-.38,5.31,5.31,0,0,0-1.19-.17,5.49,5.49,0,0,0-1.2.09,4,4,0,0,0-1.06.33,1.08,1.08,0,0,0-.49.41,8,8,0,0,1-.35.8,2.25,2.25,0,0,1-1.43,1,3.56,3.56,0,0,1-2.28-.34,7.69,7.69,0,0,1-1.54-.94,4.88,4.88,0,0,1-1.87-3,.85.85,0,0,1,1.4-.76l.06.06a22.31,22.31,0,0,0,1.93,1.67,3.36,3.36,0,0,0,1.69.74.42.42,0,0,0-.24.17,3.45,3.45,0,0,1,1.86-2.25,6.6,6.6,0,0,1,1.79-.61,7.66,7.66,0,0,1,1.81-.15,8,8,0,0,1,1.79.28,6.45,6.45,0,0,1,1.78.76,2.74,2.74,0,0,1,1.26,2.4,7.71,7.71,0,0,1-.34,1.76,1.67,1.67,0,0,0-.08.79,1.18,1.18,0,0,0,.42.55,8.2,8.2,0,0,0,2.24.94.84.84,0,0,1,.51,1.07A.85.85,0,0,1,356.07,108.1Z"/><g class="cls-8"><path class="cls-9" d="M262.44,89.21c-.09-1-.06-2-.15-3a32.64,32.64,0,0,0-1.13-4.51c-1-4-1.81-8.66.55-12.09,1.79-2.6,5-3.82,8-4.67A66.66,66.66,0,0,1,282.1,62.7a11.84,11.84,0,0,1,5.17.4,12.4,12.4,0,0,1,4.39,3.39c6.58,7,12,13.85,15.42,22.78a20.45,20.45,0,0,0,1.79,3.85,20.43,20.43,0,0,0,1.75,2.22c6.09,7,10.7,14.81,17.22,21.54C335,124.26,342.92,131,349,139.29a35.11,35.11,0,0,1,6.12,12c1.18,4.65.92,9.53.59,14.31-.27,3.95-.59,7.9-1,11.83-.32,2.92-2.23,9.44-4.1,11.71-2,2.44-5.83,1.11-9,1.1-9.05,0-14.8-9.17-17.65-17.35-2.42-7-1.75-14.49-3.42-21.61-1.38-5.88-5-8.37-8.72-12.77-3.15-3.76-6.95-6.83-10.32-10.37-3.16-3.31-5.76-7.18-8.7-10.7a66.74,66.74,0,0,0-19.62-16,34.39,34.39,0,0,1-6.12-3.71,13.84,13.84,0,0,1-4.42-7.18A8.84,8.84,0,0,1,262.44,89.21Z"/></g><g class="cls-8"><path class="cls-9" d="M199.86,96.95a19.87,19.87,0,0,0,5.86-5.23c1.68-2.54,2.17-5.67,2.5-8.7.58-5.24.6-11.15-2.94-15.05-2.6-2.87-6.6-4-10.44-4.56-6.86-1-14.55-.15-19.49,4.71-2.29,2.25-3.78,5.18-5.22,8.06q-4,7.94-7.76,16c-2.83,6-5.28,9-10,13.54l-10.19,9.7c-3.14,3-7.51,6-9.87,9.67-4.31,6.64-10.79,11.48-15.25,18-3.2,4.72-4,9.5-5.52,14.82a43.93,43.93,0,0,0,1.27,28.75,24.09,24.09,0,0,0,6.54,9.68c9.27,7.7,18-1.15,25.74-6.43,2.39-1.66,4.91-3.48,5.93-6.21,2.88-7.69-5.61-14.44-6.64-21.58-.95-6.55,7.15-15.08,10.88-19.87,1.87-2.4,3.84-4.74,5.8-7.08l4.6-5.48c2.88-3.43,5.76-6.86,8.76-10.19q6-6.72,12.7-12.86A97.91,97.91,0,0,1,199.86,96.95Z"/></g><g class="cls-3"><path class="cls-4" d="M388.13,122.51c4.24,3,6.38,2.76,10.15,6.32a14.3,14.3,0,0,1,4,5.3c1,2.85.24,6-1,8.78a25.11,25.11,0,0,1-8,9.65,13.66,13.66,0,0,1-7.67,3c-3.48,0-6.7-1.86-9.28-4.19a28,28,0,0,1-7.5-11.15,8,8,0,0,1-.63-3.49,7.34,7.34,0,0,1,1.49-3.43c4.21-5.89,11.55-8.49,18.43-10.75"/></g><g class="cls-8"><path class="cls-9" d="M238.84,264.69c11.62.85,23-4.74,33.74-12.74,10.92-8.15,18.65-18.51,19.64-32.09.54-7.37-1-14.78-3.36-21.77a86.09,86.09,0,0,0-17-29.16c-2.87-3.22-6.08-6.3-10-8-4.41-1.9-9.39-2-14.19-1.68A117.27,117.27,0,0,0,221,163.85c-5.62,1.66-11.22,3.8-15.84,7.41a37.92,37.92,0,0,0-8.59,9.87c-10.18,16.27-8.24,38.74,1.2,55.45S218.59,263.21,238.84,264.69Z"/></g><path class="cls-1" d="M142.77,224.09c-5.94-6.76-16.39-17.4-16.39-17.4,1.31-8.75,19.53-21.13,28.87-21.5a35.77,35.77,0,0,0,4.51,9.05"/><path class="cls-5" d="M141.83,224.92c-5.25-5.92-10.8-11.66-16.34-17.35l0,0a1.22,1.22,0,0,1-.32-1,13.26,13.26,0,0,1,1.94-4.8,27.14,27.14,0,0,1,3-3.88,47.49,47.49,0,0,1,7.31-6.29,54,54,0,0,1,8.3-4.86,26.71,26.71,0,0,1,9.45-2.73h0a1.2,1.2,0,0,1,1.23.85v0c.22.72.51,1.52.82,2.26s.64,1.51,1,2.24a35.29,35.29,0,0,0,2.44,4.25h0a1.15,1.15,0,0,1-1.89,1.3,37.62,37.62,0,0,1-2.7-4.49c-.4-.78-.77-1.57-1.11-2.37s-.66-1.6-1-2.49l1.25.89h0a24.49,24.49,0,0,0-8.5,2.5,51.5,51.5,0,0,0-7.91,4.63,45,45,0,0,0-6.92,6c-2,2.19-3.89,4.74-4.34,7.36l-.34-1.06c5.57,5.72,11.11,11.45,16.44,17.45a1.25,1.25,0,0,1-1.87,1.66h0Z"/><path class="cls-1" d="M346.48,211.46c3.15-8.71,6.75-18.07,6.75-18.07-5.06-6-22.67-13.36-32-12a66.46,66.46,0,0,1-1.79,8.15"/><path class="cls-5" d="M345.31,211l6.76-18.09.21,1.25a25.76,25.76,0,0,0-6.63-5,57.65,57.65,0,0,0-7.78-3.61,53.9,53.9,0,0,0-8.21-2.44,25.59,25.59,0,0,0-8.28-.55l1.06-1c-.24,1.4-.51,2.77-.81,4.15a37.93,37.93,0,0,1-1.11,4.18,1.17,1.17,0,0,1-2.22-.73v0a36,36,0,0,0,.95-3.91c.26-1.34.5-2.71.7-4.05h0a1.23,1.23,0,0,1,1.06-1,27.9,27.9,0,0,1,9.14.58,56.35,56.35,0,0,1,8.59,2.55,60.11,60.11,0,0,1,8.12,3.77,27.92,27.92,0,0,1,7.31,5.55,1.2,1.2,0,0,1,.23,1.21l0,0-6.74,18v0a1.25,1.25,0,0,1-2.34-.87Z"/><path class="cls-6" d="M364.06,139.89s3,5.72,17,19c3.93,3.73,7.2,6.51,7.2,6.51s2.85-2,10-11.08a145.52,145.52,0,0,0,10-14.06,111.65,111.65,0,0,0-13.18-13.74l-9.18-8.29-11.2,12.39C367.37,138.75,364.06,139.89,364.06,139.89Z"/><path class="cls-5" d="M385.65,132a5.48,5.48,0,0,1,3.9,2.9,9.47,9.47,0,0,1,1,4.64,14.18,14.18,0,0,1-.21,2.3,6.39,6.39,0,0,1-.93,2.44,4.53,4.53,0,0,1-2.3,1.75,8.48,8.48,0,0,1-2.45.42,11.76,11.76,0,0,1-8.53-3.36,11.43,11.43,0,0,1-.8-.87c-.13-.15-.24-.31-.36-.47a4.7,4.7,0,0,1-.38-.57,2.24,2.24,0,0,1-.3-1.15,2.2,2.2,0,0,1,.37-1.16,3.46,3.46,0,0,1,1.23-1.07,10.36,10.36,0,0,1,4.27-1.22.83.83,0,0,1,.46,1.55h0c-1.17.67-2.41,1.25-3.47,1.83a1.13,1.13,0,0,0-.35.27.32.32,0,0,0,.05-.19c0-.1,0-.21,0-.16a3.35,3.35,0,0,0,.22.29c.1.12.18.24.28.35a8.83,8.83,0,0,0,.63.65,9.39,9.39,0,0,0,6.62,2.52,5.91,5.91,0,0,0,1.65-.25,1.79,1.79,0,0,0,1-.71,6.86,6.86,0,0,0,.76-3.28,6.43,6.43,0,0,0-2.82-5.94l-.07,0a.82.82,0,0,1,.56-1.51Z"/><path class="cls-6" d="M398.6,141.33a10.77,10.77,0,0,0-2.1.45"/><path class="cls-6" d="M385.62,151.62l.38,1"/><path class="cls-6" d="M393.15,148.66l.89.6"/><path class="cls-6" d="M357,48.4s8.31,8,26.89,13.87l7.2,2.27,5-15.93,5-15.93-15.93-5-15.93-5-2.38,7.52C361.93,45.84,357,48.4,357,48.4Z"/><line class="cls-6" x1="393.89" y1="72.71" x2="391.06" y2="64.54"/></g></svg>