<svg xmlns="http://www.w3.org/2000/svg" viewBox="0 0 500 303.87"><defs><style>.cls-1,.cls-7{opacity:0.3;}.cls-2,.cls-7{fill:#ffd54c;}.cls-3{fill:none;}.cls-3,.cls-5{stroke:#f69679;stroke-linecap:round;stroke-linejoin:round;stroke-width:2.5px;}.cls-4{fill:#f69679;}.cls-5,.cls-6{fill:#fff;}.cls-8{opacity:0.2;}.cls-9{fill:#f47a5c;}</style></defs><title>research</title><g id="Layer_1" data-name="Layer 1"><g class="cls-1"><path class="cls-2" d="M100.08,78c-9.24-3.51-11.9-10.87-11.63-20.75C88.57,53,90,48.52,93.43,46c2.86-2.14,6.61-2.59,10.16-3l13.92-1.49c2.77-.3,5.72-.56,8.19.73,2.18,1.14,3.61,3.3,4.91,5.39,3.18,5.12,6.25,10.74,5.94,16.76a4.77,4.77,0,0,1-.8,2.73,5.51,5.51,0,0,1-2.46,1.52A176.37,176.37,0,0,1,100.08,78"/></g><g class="cls-1"><path class="cls-2" d="M428,177.79c4.3,3.14,8.77,10.72,8.49,16a11.25,11.25,0,0,1-2.22,6.45,11.53,11.53,0,0,1-8.53,4.56c-2.61,0-4.43-3.06-4.63-3.93C419.75,195,425.1,183.1,428,177.79Z"/></g><path class="cls-3" d="M428.4,222.72s.57-.37-29.12-20C386,194,362.38,179.1,362.38,179.1l55.52-84s21.73,12.54,37.12,22.71c29,19.18,28.9,20.91,28.9,20.91Z"/><path class="cls-4" d="M421,112.84a62.09,62.09,0,0,1,8.35,5l8.13,5.28,8.05,5.4,4,2.7a25.15,25.15,0,0,1,3.8,3,.83.83,0,0,1-.9,1.36,25.16,25.16,0,0,1-4.29-2.31l-4.07-2.64L436,125.35l-8.05-5.41a62.08,62.08,0,0,1-7.83-5.74.82.82,0,0,1,.9-1.36Z"/><path class="cls-4" d="M414.68,122.38a122.61,122.61,0,0,1,11.65,7.13L437.75,137l11.35,7.58,5.67,3.79a49.47,49.47,0,0,1,5.45,4.13.82.82,0,0,1-.9,1.36,49.45,49.45,0,0,1-5.94-3.39l-5.71-3.73-11.42-7.46-11.34-7.59a122.61,122.61,0,0,1-11.13-7.92.82.82,0,0,1,.9-1.36Z"/><line class="cls-3" x1="407.67" y1="133" x2="430.61" y2="148.15"/><path class="cls-4" d="M401.62,142.16a87.42,87.42,0,0,1,9.87,6l9.65,6.29,9.57,6.41,4.78,3.21a35.34,35.34,0,0,1,4.56,3.54.82.82,0,0,1-.9,1.36,35.33,35.33,0,0,1-5-2.81L429.29,163l-9.65-6.29-9.57-6.41a87.42,87.42,0,0,1-9.35-6.74.82.82,0,0,1,.9-1.36Z"/><line class="cls-3" x1="392.48" y1="165.74" x2="376.6" y2="173.68"/><line class="cls-3" x1="387.06" y1="180.59" x2="403.3" y2="172.89"/><circle class="cls-3" cx="421.72" cy="188.01" r="12.92" transform="translate(32.38 436.23) rotate(-56.55)"/><path class="cls-5" d="M416.1,198.24s-11.27-3.84-42.89-20.16c-14.15-7.31-27.42-16.14-27.42-16.14L392,72.45s13.23,8.81,29.62,17.28c30.92,16,40.69,19,40.69,19Z"/><line class="cls-6" x1="396.6" y1="90.51" x2="431.07" y2="108.31"/><path class="cls-4" d="M397,89.79a62.07,62.07,0,0,1,8.83,4l8.65,4.38,8.59,4.51,4.29,2.26a25.17,25.17,0,0,1,4.11,2.62.83.83,0,0,1-.75,1.44,25.16,25.16,0,0,1-4.51-1.83L421.86,105l-8.65-4.39-8.58-4.52a62.09,62.09,0,0,1-8.4-4.87.82.82,0,0,1,.75-1.44Z"/><line class="cls-6" x1="391.35" y1="100.67" x2="439.85" y2="125.71"/><path class="cls-4" d="M391.72,99.95a122.61,122.61,0,0,1,12.34,5.84L416.22,112l12.09,6.32,6,3.16a49.44,49.44,0,0,1,5.86,3.52.82.82,0,0,1-.75,1.44,49.46,49.46,0,0,1-6.26-2.74l-6.08-3.1L415,114.4l-12.09-6.33A122.62,122.62,0,0,1,391,101.39a.82.82,0,0,1,.75-1.44Z"/><line class="cls-6" x1="385.89" y1="111.25" x2="410.31" y2="123.86"/><path class="cls-4" d="M386.26,110.53a32.31,32.31,0,0,1,6.33,2.72l6.14,3.1c2,1.06,4.07,2.11,6.08,3.2l3,1.62a12.87,12.87,0,0,1,2.85,2,.85.85,0,0,1,0,1.2.86.86,0,0,1-.77.25,12.87,12.87,0,0,1-3.26-1.19l-3.08-1.53c-2.06-1-4.09-2.06-6.13-3.1l-6.08-3.21a32.31,32.31,0,0,1-5.88-3.58.84.84,0,0,1,.75-1.44Z"/><line class="cls-6" x1="380.47" y1="121.73" x2="421.41" y2="142.87"/><path class="cls-4" d="M380.85,121a87.43,87.43,0,0,1,10.45,4.87l10.27,5.22,10.2,5.35,5.1,2.68a35.34,35.34,0,0,1,4.92,3,.82.82,0,0,1-.75,1.44,35.34,35.34,0,0,1-5.32-2.25l-5.13-2.61-10.27-5.22-10.2-5.35a87.43,87.43,0,0,1-10-5.7.82.82,0,0,1,.75-1.44Z"/><line class="cls-6" x1="371.7" y1="144.04" x2="356.76" y2="153.64"/><path class="cls-4" d="M372.13,144.72a13.67,13.67,0,0,1-3.47,2.81c-1.22.84-2.46,1.64-3.7,2.45s-2.5,1.59-3.76,2.35l-1.9,1.16a5.58,5.58,0,0,1-2.11.83.89.89,0,0,1-.88-1.37,5.58,5.58,0,0,1,1.63-1.57l1.84-1.24c1.22-.84,2.47-1.63,3.71-2.45s2.5-1.58,3.77-2.35a13.67,13.67,0,0,1,4-2,.87.87,0,0,1,.88,1.37Z"/><line class="cls-6" x1="364.03" y1="157.5" x2="379.36" y2="148.1"/><path class="cls-4" d="M363.61,156.81a14,14,0,0,1,3.58-2.76c1.25-.82,2.53-1.61,3.8-2.4s2.56-1.56,3.86-2.3l1.94-1.13a5.71,5.71,0,0,1,2.15-.8.89.89,0,0,1,.85,1.39,5.71,5.71,0,0,1-1.68,1.55l-1.89,1.22c-1.25.82-2.53,1.6-3.8,2.4s-2.56,1.55-3.86,2.3a14,14,0,0,1-4.08,1.94.87.87,0,0,1-.85-1.39Z"/><line class="cls-6" x1="371.42" y1="161.61" x2="386.74" y2="152.21"/><path class="cls-4" d="M371,160.91a14,14,0,0,1,3.58-2.76c1.25-.82,2.53-1.61,3.8-2.4s2.56-1.56,3.86-2.3l1.94-1.13a5.71,5.71,0,0,1,2.15-.8.89.89,0,0,1,.85,1.39,5.71,5.71,0,0,1-1.68,1.55l-1.89,1.22c-1.25.82-2.53,1.6-3.8,2.4s-2.56,1.55-3.86,2.3a14,14,0,0,1-4.08,1.94.87.87,0,0,1-.85-1.39Z"/><g class="cls-1"><path class="cls-2" d="M412.75,174.12c-3.74,1.26-7.57,2.44-11.51,2.44s-8.06-1.34-10.57-4.38c-3.15-3.81-3.08-9.61-.75-14s6.53-7.46,11-9.6a16.71,16.71,0,0,1,6.7-1.92,7.72,7.72,0,0,1,6.25,2.61,9.71,9.71,0,0,1,1.67,4c1.35,6.09.3,15.42-2.79,20.84"/></g><circle class="cls-3" cx="405.75" cy="164.45" r="12.92" transform="translate(73.48 449.53) rotate(-62.69)"/><g class="cls-1"><path class="cls-2" d="M350.06,102.79a106,106,0,0,1,7.4-50.33c2-4.87,5.07-10.15,10.25-11.09a3.75,3.75,0,0,1,2.95.47A4.44,4.44,0,0,1,372,44.72c1.63,9.23-1.07,18.67-4.48,27.4a168.25,168.25,0,0,1-16.28,31.45"/></g><g class="cls-1"><path class="cls-2" d="M315.71,182.87c-6.68-9.51-13.43-19.17-16.77-29.78-.76-2.4-1.33-4.95-.54-7.34a7,7,0,0,1,6.36-4.63c4.21-.06,6.88,3.52,8.64,6.62,4.34,7.62,8.69,15.27,11.74,23.29,1,2.7,1.9,5.63.75,8.3s-7.13,4.9-10.18,3.55"/></g><g class="cls-1"><path class="cls-2" d="M191.25,141.64c6,.59,12.29,2.75,16,7.52a17.9,17.9,0,0,1,3,14.82,25,25,0,0,1-8.13,13,31.59,31.59,0,0,1-23.61,7.59c-3-.29-6.21-1.2-7.88-3.7-1.27-1.89-1.38-4.3-1.45-6.57a37.81,37.81,0,0,1,.38-8.52c1.79-9,14.3-18.66,21.65-24.19"/></g><g class="cls-1"><path class="cls-2" d="M107.61,198.33c-3.08,6.11-29.08,15.64-44.38,19.56a11.73,11.73,0,0,1-4.56.55,4.28,4.28,0,0,1-3.54-2.75c-.72-2.29,1-4.6,2.8-6.08,4.28-3.53,9.54-5.36,14.69-7.13L97.28,194c2.18-.75,4.48-1.5,6.71-1s4.23,2.94,3.62,5.29"/></g><g class="cls-1"><path class="cls-2" d="M59.94,185.52c-6.05-1.34-12.42-3.92-18.39-5.61-7.25-2-15.12-4.89-18.72-11.51a1.57,1.57,0,0,1,.62-2.59c4.4-2.4,9.65-2.86,14.63-2.22s9.75,2.31,14.48,4c8.53,3,17.11,6,24.92,10.55,1.48.86,3.12,2.13,2.95,3.83s-2,2.62-3.64,3.11a32.49,32.49,0,0,1-16.85.46"/></g><g class="cls-1"><path class="cls-2" d="M160.81,120.92c-8.38,3.45-17.11,5.59-25.94,3.58a23.94,23.94,0,0,1-10.4-4.75c-2.92-2.51-4.95-6.26-4.68-10.1.33-4.6,3.76-8.39,7.51-11.08a28.45,28.45,0,0,1,16.36-5.67c5.87,0,11.84,2.53,15.38,7.22,4.38,5.81,4.41,14,1.76,20.81"/></g><g class="cls-1"><path class="cls-2" d="M75.55,125.48c-7.93,2.82-19.7,4.42-26.73-1.85a13.63,13.63,0,0,1-4.08-8.87c-1.27-12.39,7.89-16.93,17.87-22,4.65-2.38,10-4.38,15-2.79,5.46,1.74,8.77,7.31,10.44,12.79,1.37,4.51,1.92,9.59-.2,13.8C85.51,121.16,80.45,123.74,75.55,125.48Z"/></g><polygon class="cls-7" points="315.8 35.16 169.12 49.75 180.63 66.97 306.88 54.34 315.8 35.16"/><rect class="cls-3" x="179.92" y="64.87" width="135.87" height="63.8" transform="translate(-8.36 25.01) rotate(-5.68)"/><path class="cls-3" d="M323.08,27.83,160.54,44A2.2,2.2,0,0,0,159,47.5L177.1,71.75,312.3,58.3l13-27.34A2.2,2.2,0,0,0,323.08,27.83Z"/><path class="cls-4" d="M226.05,44.91c-4.7.9-9.43,1.39-14.17,1.87l-14.21,1.47c-4.74.49-9.47,1-14.21,1.43L169.24,51l.9-2,4.8,6.5c1.58,2.18,3.11,4.4,4.49,6.73a.82.82,0,0,1-1.3,1c-1.85-2-3.53-4.08-5.18-6.22l-4.87-6.45a1.28,1.28,0,0,1,.88-2h0L183.2,47c4.73-.51,9.48-.95,14.22-1.4l14.22-1.36c4.74-.47,9.48-.92,14.26-1a.82.82,0,0,1,.16,1.62Z"/><path class="cls-4" d="M310.38,44.69a24.42,24.42,0,0,1,1.93-5.13l2.28-5,1.34,1.91c-3,.32-5.94.61-8.92.88l-4.47.38a17,17,0,0,1-4.5,0,.84.84,0,0,1-.16-1.62,17,17,0,0,1,4.41-.89l4.45-.51c3-.32,5.94-.63,8.92-.9h0A1.33,1.33,0,0,1,317,35.74l-2.41,4.91a24.42,24.42,0,0,1-2.76,4.74.84.84,0,0,1-1.47-.7Z"/><polyline class="cls-3" points="212.95 91.52 305.62 82.31 303.99 66.39"/><line class="cls-3" x1="200.63" y1="84.63" x2="293.91" y2="75.35"/><polyline class="cls-3" points="283.95 68.38 186.14 78.11 187.18 88.59"/><line class="cls-3" x1="204.42" y1="100.49" x2="277.31" y2="93.24"/><rect class="cls-3" x="227.52" y="103.8" width="39.31" height="17.96" transform="translate(-9.95 25.02) rotate(-5.68)"/><line class="cls-3" x1="291.76" y1="92.55" x2="306.45" y2="91.08"/><path class="cls-3" d="M207.39,172.92s-4.66,4.31-15.94,6.1c-11.44,1.81-19.07-2.33-19.07-2.33s.93-5.36-.88-16.77l-1.79-11.27,16.5-2.62c11.66-1.85,14,1.61,14,1.61s3.42,1.87,5.07,12.27Z"/><polyline class="cls-3" points="195.57 145.87 197.07 150.47 202.53 151.23"/><path class="cls-3" d="M92.39,119.22A83.61,83.61,0,0,1,76.62,129c-10.38,5.13-15.76,5.82-15.76,5.82L54.24,121.4l-7.4-15,15-7.4,15-7.4a97.75,97.75,0,0,0,7.4,15C89.73,116.07,92.39,119.22,92.39,119.22Z"/><path class="cls-3" d="M131.85,70.23,129,78.4l-15.93,5-15.93,5-5-15.93-5-15.93,2.84-8.17"/><path class="cls-3" d="M130.86,67.11l1,3.12-15.93,5-15.93,5L95,64.36l-5-15.93"/><path class="cls-3" d="M134.09,64.15s-8.31,8-26.89,13.87L100,80.29,95,64.36l-5-15.93,15.93-5,15.93-5,2.38,7.52C129.12,61.59,134.09,64.15,134.09,64.15Z"/><path class="cls-4" d="M196.25,157a14.79,14.79,0,0,1-1.64,2.82,1,1,0,0,1-1.37.23h0l0,0-2.64-1.89,1.47-.22-1.9,2.63a1.07,1.07,0,0,1-1.49.24h0c-.88-.64-1.75-1.27-2.61-1.92l1.51-.23-1.95,2.6v0a1,1,0,0,1-1.46.21h0l-2.58-2,1.41-.21a12.13,12.13,0,0,1-2.21,2.4.68.68,0,0,1-1-.77,12.13,12.13,0,0,1,1.64-2.82,1,1,0,0,1,1.39-.23h0l2.64,1.89-1.48.22,1.91-2.63a1.07,1.07,0,0,1,1.5-.24h0c.88.63,1.74,1.28,2.61,1.93l-1.51.23,1.95-2.59v0a1,1,0,0,1,1.45-.21h0l2.58,2-1.4.21a14.79,14.79,0,0,1,2.21-2.4.67.67,0,0,1,1,.77Z"/><path class="cls-4" d="M74,103.5a14.79,14.79,0,0,1-.62,3.2,1,1,0,0,1-1.22.67h0L69,106.46l1.31-.7-.92,3.11a1.07,1.07,0,0,1-1.33.72h0c-1-.31-2.07-.62-3.1-.95l1.35-.72-1,3.09v0a1,1,0,0,1-1.31.68h0l-3.09-1,1.26-.67a12.13,12.13,0,0,1-1.3,3,.68.68,0,0,1-1.24-.38,12.13,12.13,0,0,1,.61-3.21,1,1,0,0,1,1.24-.67h0l3.11.91-1.32.7.93-3.11a1.07,1.07,0,0,1,1.34-.72h0c1,.31,2.07.63,3.1,1l-1.35.71,1-3.09v0a1,1,0,0,1,1.3-.67h0l3.09,1-1.25.66a14.79,14.79,0,0,1,1.29-3,.67.67,0,0,1,1.24.38Z"/><path class="cls-4" d="M73.21,115.55a10.38,10.38,0,0,1-.6,3.21,1,1,0,0,1-1.23.69h0c-1-.3-2.08-.59-3.12-.9l1.34-.71c-.31,1-.62,2.07-.95,3.1v0a1.08,1.08,0,0,1-1.34.7c-1-.32-2.06-.66-3.09-1l1.28-.68a9.32,9.32,0,0,1-1.31,3,.7.7,0,0,1-1.24-.38,9.32,9.32,0,0,1,.59-3.21,1,1,0,0,1,1.21-.7h0l.07,0c1,.29,2.08.59,3.12.9l-1.35.71c.3-1,.63-2.07,1-3.1h0a1.07,1.07,0,0,1,1.34-.7c1,.32,2.06.67,3.09,1l-1.28.68a10.38,10.38,0,0,1,1.31-3,.69.69,0,0,1,1.24.38Z"/><path class="cls-3" d="M159.09,124.92s-2.82,1.25-14,3.63c-11.33,2.41-17.54,1.29-17.54,1.29s-.25-4.67-3.11-18.09c-2.19-10.3,1.14-11.85,1.14-11.85s1.23-1.62,12.56-4l16.34-3.47,2.54,12C160.38,120.16,159.09,124.92,159.09,124.92Z"/><polyline class="cls-3" points="123.72 104.86 129.09 102.58 129.9 97.98"/><path class="cls-4" d="M148.42,103.91a14.79,14.79,0,0,1-1.27,3,1,1,0,0,1-1.33.41h0l0,0-2.86-1.54,1.43-.41-1.55,2.85a1.07,1.07,0,0,1-1.45.43h0c-.95-.52-1.9-1-2.83-1.58l1.47-.42-1.6,2.82v0a1,1,0,0,1-1.42.39h0l-2.81-1.62,1.37-.39a12.14,12.14,0,0,1-1.89,2.66.68.68,0,0,1-1.14-.63,12.14,12.14,0,0,1,1.27-3,1,1,0,0,1,1.35-.4h0L138,108l-1.44.41,1.56-2.85a1.07,1.07,0,0,1,1.46-.43h0c.95.52,1.89,1,2.83,1.58l-1.47.42,1.6-2.82v0a1,1,0,0,1,1.41-.39h0l2.81,1.62-1.36.39a14.79,14.79,0,0,1,1.89-2.66.67.67,0,0,1,1.14.63Z"/><path class="cls-4" d="M181.31,171a12.21,12.21,0,0,1,3.6-2.52q1.92-1.08,4-2a30.18,30.18,0,0,1,4.26-1.48q1.1-.28,2.23-.48a4.81,4.81,0,0,1,2.31.11.89.89,0,0,1,.21,1.58l-.06,0a3.88,3.88,0,0,1-1,.46,6.44,6.44,0,0,1-1,.28q-1,.23-2,.53A39.2,39.2,0,0,0,190,169c-1.29.54-2.56,1.16-3.84,1.78a14.08,14.08,0,0,1-4,1.64.87.87,0,0,1-.79-1.42Z"/><rect class="cls-3" x="354.05" y="66" width="6.35" height="28.69" transform="translate(35.85 -95.1) rotate(15.95)"/><rect class="cls-3" x="358.91" y="48.33" width="9.63" height="18.59" transform="translate(29.85 -97.76) rotate(15.95)"/><polyline class="cls-3" points="350.23 93.27 351.64 99.89 356.34 95.01"/><path class="cls-4" d="M352.84,100.23l-1.61,4.06a.82.82,0,0,1-1.56-.45l.77-4.3a1.26,1.26,0,0,1,2.47.45A1.33,1.33,0,0,1,352.84,100.23Z"/><rect class="cls-3" x="83.11" y="191.69" width="8.03" height="26.38" transform="translate(-80.58 351.33) rotate(-108.09)"/><path class="cls-4" d="M100,203.73l6.38-6,.49,1.47-8.66-1a1.25,1.25,0,1,1,.28-2.49l.11,0,8.54,1.72a.9.9,0,0,1,.7,1.05.91.91,0,0,1-.21.42l-5.84,6.54a1.25,1.25,0,1,1-1.87-1.67Z"/><path class="cls-3" d="M60.55,212.11l.86,2.63a4.39,4.39,0,0,0,5.54,2.81l5.81-1.92,3.07-2.84-2.49-7.63-4.16-.51-5.81,1.92A4.39,4.39,0,0,0,60.55,212.11Z"/><line class="cls-3" x1="72.76" y1="215.64" x2="69.18" y2="204.66"/><rect class="cls-3" x="47.12" y="156.09" width="8.11" height="36.99" transform="translate(-130.6 167.27) rotate(-71.36)"/><polyline class="cls-3" points="67.41 184.33 72.17 181.66 70 176.65"/><path class="cls-4" d="M72.57,180.48l4.44,2a.82.82,0,0,1-.52,1.54l-4.72-1.13a1.26,1.26,0,0,1,.58-2.44Z"/><line class="cls-3" x1="33.66" y1="168.67" x2="26.52" y2="166.26"/><path class="cls-4" d="M37.72,174.53l-1.4,4.15-.78-1.58L47.14,181a.87.87,0,0,1-.52,1.67h0l-11.78-3.4a1,1,0,0,1-.68-1.24l0-.09,1.21-4.21a1.25,1.25,0,0,1,2.4.69l0,.05Z"/><polygon class="cls-3" points="302.22 150.21 310.07 146.7 323.18 176.39 315.33 179.89 302.22 150.21"/><path class="cls-4" d="M309.3,147.68l-7-6,1.42-.63-.2,9.27a1.25,1.25,0,0,1-2.5-.05s0-.07,0-.1l1-9.23a.89.89,0,0,1,1.42-.63l7.5,5.45a1.25,1.25,0,0,1-1.47,2Z"/><line class="cls-3" x1="319.26" y1="178.14" x2="321.7" y2="183.61"/><path class="cls-6" d="M176.29,214.9c-6.43-9.63-11.53-32.44-11.74-42.1-.12-5.52,5.77-9.19,12.5-18.37,7-9.61,9.09-14.79,22-29.16,2.38-2.65,4-4.5,7.23-6,2.57-1.17,11.21-5.26,13.21-7.35,1.62-1.7,4-5.68,4.4-8.38.12-.9.88-2.23.58-3-1.19-3.15-4.86-1.27-5.91,1.86-.63,1.89-3.42,3-4.31,3.44-1.29.66-4.15,1.75-4.15,1.75-.5-.49.52-1.62,1-2.46l5.63-6.48a13,13,0,0,1,3.58-3.3c1.57-.83,4.34-1.29,6-1.74,2.56-.68,2.66-5.24-.73-4.89-3.74.38-7.4.76-10.24,3.49a103.72,103.72,0,0,0-7.53,8.58v0A2.22,2.22,0,0,1,208,99a27,27,0,0,1,10.53-11.58c2-1.29,3.89-2,5.94-3.67a2.47,2.47,0,0,0-2.79-4.07c-7.91,3.74-13.58,7.81-18,15.29-.26.09-.24-.89-.12-1.62A12.78,12.78,0,0,1,206.33,87c1.32-1.82,2.92-3.62,4.36-5.46,1.83-2.34.56-5.39-2.53-4-2.79,1.25-4.28,3.85-6,6.24a37.37,37.37,0,0,0-4.06,7.69,4.84,4.84,0,0,0-.25.62,1.5,1.5,0,0,1-.71-1.29c.12-2.89,1.36-5.23,2.75-8.4,1.21-2.76-2.22-4.86-4.15-2.08-4.91,7-4.58,12.69-6.92,20.81-.72,2.52-.88,5.25-1.67,7.07-1.78,5.07-15.53,16.44-27.2,28.94-11.25,12.06-20.13,26.41-22.81,32.06-5.44,11.48,6.75,66.62,15.35,75.51C163.42,255.93,186.81,259.08,207,263"/><path class="cls-4" d="M175.58,215.37a43.74,43.74,0,0,1-4.71-9,94.06,94.06,0,0,1-3.24-9.51,127.45,127.45,0,0,1-4-19.65c-.09-.84-.17-1.68-.23-2.53,0-.43-.06-.85-.07-1.28l0-.65c0-.24,0-.48,0-.73a10.77,10.77,0,0,1,1.93-5.22,38.81,38.81,0,0,1,3.18-4l3.27-3.73c4.32-4.92,7.82-10.45,11.57-16a157.55,157.55,0,0,1,12.3-15.79l3.32-3.73a26.49,26.49,0,0,1,3.76-3.6,23.11,23.11,0,0,1,4.57-2.51c1.49-.7,3-1.42,4.43-2.16s2.9-1.52,4.29-2.34a23.09,23.09,0,0,0,2-1.29,6.48,6.48,0,0,0,.78-.67c.24-.26.49-.55.72-.86a21.75,21.75,0,0,0,2.41-4,12.34,12.34,0,0,0,.77-2.12,4.71,4.71,0,0,0,.11-.51l.06-.34c0-.14.06-.28.09-.39.13-.48.28-.87.38-1.21a2.58,2.58,0,0,0,.13-.65,0,0,0,0,0,0,0l0-.09a1.31,1.31,0,0,0-.08-.19,1.55,1.55,0,0,0-.19-.3c-.26-.29-.48-.36-1-.23a3.38,3.38,0,0,0-1.47,1,4.76,4.76,0,0,0-.57.82c-.08.15-.16.29-.22.45l-.24.59a5.64,5.64,0,0,1-2,2.27,15.41,15.41,0,0,1-2.35,1.26c-1.52.72-3.13,1.29-4.69,1.86h0a.9.9,0,0,1-.93-.17l0,0a1.42,1.42,0,0,1-.44-.92,1.91,1.91,0,0,1,.08-.69,4.61,4.61,0,0,1,.36-.84c.24-.45.49-.86.64-1.17a.74.74,0,0,1,.08-.13l.06-.07c1.28-1.62,2.63-3.2,4-4.77l2.06-2.32a14.5,14.5,0,0,1,2.45-2.27,7.76,7.76,0,0,1,1.57-.85,13.43,13.43,0,0,1,1.6-.52c1-.28,2.07-.5,3.08-.72l.74-.17.36-.09.22-.09a1.35,1.35,0,0,0,.65-.69,1.66,1.66,0,0,0-.18-1.74,1,1,0,0,0-.58-.28,2,2,0,0,0-.47,0L225,90c-1,.1-2,.22-3,.39a11.52,11.52,0,0,0-5.18,2.08,22.81,22.81,0,0,0-2.14,2c-.71.73-1.39,1.48-2.07,2.24-1.37,1.52-2.71,3.09-4.08,4.66h0a.91.91,0,0,1-1.55-.27v0a2.61,2.61,0,0,1-.1-1.31,4.22,4.22,0,0,1,.35-1.06c.28-.55.54-1.08.84-1.61a27.92,27.92,0,0,1,2-3A27.6,27.6,0,0,1,215,88.89,34,34,0,0,1,218,86.8c1-.66,2.09-1.21,3.09-1.77a17.83,17.83,0,0,0,2.78-1.85,1.52,1.52,0,0,0,.48-2,1.32,1.32,0,0,0-1.72-.55c-.3.1-.91.43-1.4.68l-1.54.79a45.84,45.84,0,0,0-5.86,3.53,33.89,33.89,0,0,0-9.25,9.84h0l0,0a.91.91,0,0,1-.45.37,1,1,0,0,1-1-.15,1.11,1.11,0,0,1-.31-.4,1.49,1.49,0,0,1-.12-.4,3.19,3.19,0,0,1,0-.48,6.72,6.72,0,0,1,0-.8c.06-.54.15-1,.25-1.44a13.09,13.09,0,0,1,.89-2.81A25,25,0,0,1,207,84.62l1.75-2.15.86-1.06.41-.52a2.78,2.78,0,0,0,.28-.46,2,2,0,0,0,.1-1.79c-.25-.38-.56-.45-1.18-.31a6.73,6.73,0,0,0-2,1.09,12,12,0,0,0-1.75,1.74c-.55.66-1.06,1.39-1.6,2.13l-.82,1.12c-.26.35-.52.71-.76,1.08a34.66,34.66,0,0,0-2.61,4.67l-.57,1.24-.3.65a1.51,1.51,0,0,0-.09.21v0a1,1,0,0,1-.84.68,1,1,0,0,1-.36-.06,1.09,1.09,0,0,1-.32-.18,2,2,0,0,1-.23-.21,2.86,2.86,0,0,1-.56-.86,2.29,2.29,0,0,1-.15-.54,2.2,2.2,0,0,1,0-.52,12.16,12.16,0,0,1,.17-1.48,24.63,24.63,0,0,1,1.89-5.4l.55-1.26a3.4,3.4,0,0,0,.36-1,1.21,1.21,0,0,0-2.13-1,15.3,15.3,0,0,0-1.32,2,26.15,26.15,0,0,0-2.27,4.75A92.44,92.44,0,0,0,191,97.72c-.2.91-.43,1.82-.67,2.72s-.49,1.72-.66,2.6a32.26,32.26,0,0,1-1.33,5.6l0-.08a13.12,13.12,0,0,1-1.89,3.22c-.71.94-1.46,1.82-2.23,2.67-1.53,1.71-3.12,3.32-4.72,4.92-3.2,3.19-6.46,6.3-9.66,9.45s-6.37,6.32-9.4,9.61-5.87,6.72-8.59,10.26-5.3,7.2-7.72,11c-1.21,1.88-2.39,3.77-3.5,5.7-.55,1-1.09,1.93-1.6,2.91-.26.49-.49,1-.73,1.46a8.86,8.86,0,0,0-.49,1.39,28,28,0,0,0-.72,6.39c0,2.2.05,4.42.21,6.63.32,4.44.9,8.87,1.61,13.29a223.89,223.89,0,0,0,5.9,26.18,121.44,121.44,0,0,0,4.36,12.62A39.65,39.65,0,0,0,152.1,242a13.23,13.23,0,0,0,.9,1.25c.16.2.31.36.49.55l.57.56a27.79,27.79,0,0,0,2.45,2.1,46.57,46.57,0,0,0,11.57,6.13,108.69,108.69,0,0,0,12.77,3.86c8.69,2.12,17.56,3.59,26.41,5.31a1.21,1.21,0,0,1-.46,2.38c-8.82-1.69-17.73-3.14-26.54-5.27A111.14,111.14,0,0,1,167.19,255,49,49,0,0,1,155,248.51a30.35,30.35,0,0,1-2.68-2.29l-.63-.62c-.21-.22-.44-.47-.63-.71a15.73,15.73,0,0,1-1.07-1.48,41.19,41.19,0,0,1-3.15-6.22,123.87,123.87,0,0,1-4.45-12.9,226.38,226.38,0,0,1-5.95-26.49c-.72-4.47-1.3-9-1.63-13.51-.16-2.27-.25-4.56-.21-6.86a30.23,30.23,0,0,1,.81-7,11.31,11.31,0,0,1,.64-1.79c.26-.53.51-1.05.78-1.56.53-1,1.09-2,1.66-3,1.14-2,2.34-3.9,3.57-5.81q3.7-5.71,7.84-11.11c2.76-3.6,5.66-7.09,8.75-10.43s6.27-6.53,9.49-9.69,6.48-6.27,9.65-9.43c1.59-1.58,3.15-3.18,4.63-4.82.74-.82,1.45-1.66,2.1-2.51a11.05,11.05,0,0,0,1.54-2.56v0l0-.06a32.25,32.25,0,0,0,1.18-5.12c.18-.93.47-1.91.69-2.74s.45-1.74.65-2.63a93.42,93.42,0,0,1,2.67-10.84,27.14,27.14,0,0,1,2.49-5.18c.25-.41.53-.79.8-1.19a4.89,4.89,0,0,1,1.12-1.26,3.6,3.6,0,0,1,1.8-.76,3.21,3.21,0,0,1,1.95.4A3.25,3.25,0,0,1,201,81.62a5.09,5.09,0,0,1-.51,1.56L200,84.43a20.73,20.73,0,0,0-1.74,5,10.34,10.34,0,0,0-.14,1.26.64.64,0,0,0,0,.17.48.48,0,0,0,0,.12.91.91,0,0,0,.19.29l0,0s0,0-.18-.09a.8.8,0,0,0-.32,0,1,1,0,0,0-.82.65l0-.06a4.39,4.39,0,0,1,.16-.43l.25-.62.52-1.3a36.43,36.43,0,0,1,2.52-5.08c.25-.41.51-.81.78-1.21L202,82c.51-.77,1.05-1.55,1.67-2.31a11.36,11.36,0,0,1,2.16-2.13,7.43,7.43,0,0,1,2.92-1.4,3.55,3.55,0,0,1,2,.16,2.81,2.81,0,0,1,1.51,1.49,4,4,0,0,1-.3,3.52,6.2,6.2,0,0,1-.46.7l-.44.56-.88,1.08-1.75,2.12a21.19,21.19,0,0,0-2.94,4.38,11.29,11.29,0,0,0-.75,2.44c-.08.41-.17.9-.21,1.27a5,5,0,0,0,0,.58,1.52,1.52,0,0,0,0,.2s0,0,0-.07a.74.74,0,0,0-.21-.26.82.82,0,0,0-.79-.13l-.47.39h0a32.49,32.49,0,0,1,9.44-10.82A48.21,48.21,0,0,1,218.54,80c.53-.27,1.06-.55,1.6-.79a14.35,14.35,0,0,1,1.8-.76,3.78,3.78,0,0,1,2.46.15,3.4,3.4,0,0,1,1.74,1.76,3.58,3.58,0,0,1,.17,2.39A3.62,3.62,0,0,1,225,84.58a19.63,19.63,0,0,1-3.06,2c-1,.58-2.06,1.09-3,1.7a32.15,32.15,0,0,0-2.79,2,25.47,25.47,0,0,0-4.71,4.86A26.12,26.12,0,0,0,209.6,98c-.28.49-.53,1-.77,1.51a2.48,2.48,0,0,0-.21.6.75.75,0,0,0,0,.42l-1.56-.29h0c1.28-1.62,2.53-3.27,3.86-4.88.67-.8,1.36-1.6,2.08-2.38a24.52,24.52,0,0,1,2.33-2.29,13.51,13.51,0,0,1,6.17-2.61c1.07-.2,2.13-.33,3.16-.44l.79-.08a4.39,4.39,0,0,1,1.08,0,3.12,3.12,0,0,1,2,1.23,3.4,3.4,0,0,1,.62,2.16,4,4,0,0,1-.61,2,3.6,3.6,0,0,1-1.57,1.4,3.4,3.4,0,0,1-.51.18l-.4.11-.77.19c-2,.5-4.08.9-5.38,2a14.51,14.51,0,0,0-2,2.09l-2,2.37c-1.37,1.55-2.74,3.1-4.17,4.6l.14-.2c-.29.51-.59.85-.82,1.19a3.62,3.62,0,0,0-.25.41s0,.05,0,0a.48.48,0,0,0-.17-.29l-1-.2h0c1.52-.64,3-1.27,4.44-2.05a13.36,13.36,0,0,0,2-1.15,3.5,3.5,0,0,0,1.22-1.38l.21-.57a6.22,6.22,0,0,1,.31-.67,7.06,7.06,0,0,1,.83-1.23,5.66,5.66,0,0,1,2.54-1.78,3.52,3.52,0,0,1,1.85-.1,3.14,3.14,0,0,1,1.67,1,3.92,3.92,0,0,1,.5.73,3.42,3.42,0,0,1,.18.38l.08.2a3.23,3.23,0,0,1,.09.33,3.81,3.81,0,0,1-.18,1.8c-.13.45-.28.84-.36,1.16,0,.08,0,.15,0,.21l0,.27a7,7,0,0,1-.14.71,14.69,14.69,0,0,1-.91,2.55,24.13,24.13,0,0,1-2.68,4.5c-.27.35-.55.7-.87,1a8.86,8.86,0,0,1-1.09,1,25.35,25.35,0,0,1-2.18,1.44c-1.46.88-2.94,1.67-4.43,2.43s-3,1.5-4.5,2.21a20.51,20.51,0,0,0-4.13,2.26,24.15,24.15,0,0,0-3.39,3.29L197.46,129a154.9,154.9,0,0,0-12.05,15.59c-3.67,5.45-7.32,11.14-11.77,16.18a94.69,94.69,0,0,0-6.27,7.48,8.24,8.24,0,0,0-1.53,4c0,.17,0,.34,0,.51l0,.59c0,.4,0,.8.06,1.2.06.8.13,1.61.22,2.42A131.25,131.25,0,0,0,170,196.23c.85,3.17,1.86,6.29,3,9.37a52.55,52.55,0,0,0,4,8.84h0a.85.85,0,0,1-1.42.93Z"/><path class="cls-6" d="M289.4,263c20.55-.16,39.68-3.14,48-10.82s43-52.13,43-66.17c0-10.74-15.84-35.63-31.34-53.18-8.15-9.22-14.84-15-18.1-19.37-2.78-3.76-7.77-8.48-8-13.68a25.08,25.08,0,0,0-4.56-13.94c-1.93-2.77-5.21-.87-3.92,2.28.87,2.12,1.36,2.88,1.28,5.25,0,.81-.78,3.75-.92,3a15.93,15.93,0,0,0-4.62-8.77c-2.09-2-4.39-3.73-6.36-5.82-2.34-2.48-5-.05-3.52,3,.93,2,3.44,4.08,5.27,5.74a14.68,14.68,0,0,1,2,1.9A6.22,6.22,0,0,1,309.16,97a2.73,2.73,0,0,1-.51,1,14.58,14.58,0,0,0-2.92-6.87,12.27,12.27,0,0,0-5.39-3.61c-3.62-1.5-7.26-3-10.89-4.41-2.57-1-4.34,1.93-2.22,3.92A18.46,18.46,0,0,0,292.72,90a33.65,33.65,0,0,1,7.51,3.33c2.37,1.58,3.34,4.54,3.39,7.4a19.75,19.75,0,0,0-5.26-5.7c-3.42-2.13-7.61-3.53-11.38-4.85-3.22-1.12-4.51,2.87-1.49,4.69a37.25,37.25,0,0,0,5.15,2.24A29.08,29.08,0,0,1,295,99.2a16.52,16.52,0,0,1,5.28,6c.06.12,1.57,2.39,1,3.14a14.52,14.52,0,0,1-4.75-1.2,22,22,0,0,0-6.12-3.27c-3.4-1-6.19,1.37-3.74,3.74A51.8,51.8,0,0,0,291.9,112a3,3,0,0,0,.42.34l.29.17a70.67,70.67,0,0,0,8.44,5.11c4.69,2.46,11.3,3.11,15.32,6.71,4.48,3.53,10.2,14.43,15.67,21.6,10.67,14,20.33,26.73,19.16,32.8-1.78,9.18-20.56,33.54-28.2,40.19"/><path class="cls-4" d="M289.39,261.76a177.82,177.82,0,0,0,19.14-1.11,84,84,0,0,0,18.56-4,31.59,31.59,0,0,0,8.22-4.26,26.59,26.59,0,0,0,3.38-3.16c1.09-1.15,2.14-2.35,3.19-3.56,4.18-4.85,8.16-9.89,12-15s7.61-10.34,11.17-15.67a171.54,171.54,0,0,0,9.86-16.43,52.3,52.3,0,0,0,3.65-8.68,13,13,0,0,0,.65-4.36,19.87,19.87,0,0,0-.82-4.46,56,56,0,0,0-3.51-8.76c-1.39-2.86-2.92-5.66-4.55-8.4-3.26-5.5-6.84-10.81-10.63-16s-7.81-10.15-12.07-14.93-8.8-9.28-13.32-13.93c-1.12-1.17-2.24-2.37-3.3-3.65-.53-.64-1-1.34-1.51-1.93l-1.5-1.85c-2-2.49-4.21-5.07-5.48-8.38-.16-.41-.27-.85-.41-1.27s-.21-.88-.25-1.33c-.12-1-.11-1.65-.2-2.45a25.87,25.87,0,0,0-.82-4.54,24.71,24.71,0,0,0-1.67-4.26q-.52-1-1.11-2l-.61-1a2.47,2.47,0,0,0-.55-.61,1.06,1.06,0,0,0-1.14-.19,1.24,1.24,0,0,0-.6,1.15,2.7,2.7,0,0,0,.15.88c.11.33.29.72.44,1.09a12.1,12.1,0,0,1,.81,2.48,9.14,9.14,0,0,1,.13,1.33c0,.22,0,.43,0,.65s0,.22,0,.37l0,.35a14.9,14.9,0,0,1-.64,2.52,2.75,2.75,0,0,1-.19.41,1.25,1.25,0,0,1-.15.2c-.1,0-.13.4-1,.31-.64-.26-.6-.55-.67-.64s-.05-.19-.05-.19l-.14-.56q-.15-.56-.32-1.1a16.5,16.5,0,0,0-.85-2.11,13.93,13.93,0,0,0-2.55-3.66c-1-1-2.32-2.08-3.52-3.12a40.16,40.16,0,0,1-3.56-3.42c-.87-.95-1.65-1-2,0a2.61,2.61,0,0,0,.14,1.73,7.19,7.19,0,0,0,1.17,1.79,35.85,35.85,0,0,0,3.35,3.3c.61.57,1.15,1,1.82,1.6a6.77,6.77,0,0,1,.94,1,11.19,11.19,0,0,1,.72,1.09,6.88,6.88,0,0,1,.9,2.6,6.05,6.05,0,0,1,0,1.41,3.28,3.28,0,0,1-.69,1.53h0a.9.9,0,0,1-1.61-.37v0a14.26,14.26,0,0,0-2.53-5.89,10.82,10.82,0,0,0-5.1-3.56l-6.42-2.58-3.19-1.34L289,84.17a1.41,1.41,0,0,0-1-.09,1.15,1.15,0,0,0-.66,1.56c.21.7,1.11,1.32,2.06,1.86a23.66,23.66,0,0,0,3,1.4c1,.38,2.18.76,3.26,1.19a32.84,32.84,0,0,1,3.26,1.44c.53.28,1.06.58,1.57.91a7.62,7.62,0,0,1,1.5,1.24,10.73,10.73,0,0,1,2.51,7h0a.9.9,0,0,1-1.62.58l0,0a22.53,22.53,0,0,0-4.4-4.83,19.84,19.84,0,0,0-2.81-1.6c-1-.48-2-.92-3.06-1.34s-2.1-.81-3.17-1.18l-1.61-.56-.81-.28-.41-.14c-.11,0-.2-.07-.29-.08-.76-.13-1.1,0-1.38.56a1.81,1.81,0,0,0,.66,2,6.34,6.34,0,0,0,1.31.75,13.8,13.8,0,0,0,1.54.61c1.05.38,2.17.68,3.28,1.1A20.91,20.91,0,0,1,295,97.72a12.41,12.41,0,0,1,1.58,1A14,14,0,0,1,298,100a21.57,21.57,0,0,1,4,6,6.28,6.28,0,0,1,.32,1,2.58,2.58,0,0,1,0,1.38,1.55,1.55,0,0,1-.26.48,1,1,0,0,1-.45.32l-.15,0-.18,0H301l-.52,0-.91-.12c-.59-.09-1.18-.2-1.77-.33a7.89,7.89,0,0,1-1.89-.64h0l-.08-.05a28.54,28.54,0,0,0-4.47-2.54,12.08,12.08,0,0,0-1.15-.44,4.82,4.82,0,0,0-1.05-.23,2.9,2.9,0,0,0-1.81.35.89.89,0,0,0-.37.41.57.57,0,0,0,0,.45,2.24,2.24,0,0,0,.53.69l1,.91a50.79,50.79,0,0,0,4.09,3.37l.11.09h0a1.64,1.64,0,0,0,.26.21,4.75,4.75,0,0,1,.49.31l.92.64q.9.61,1.83,1.19c1.23.77,2.49,1.51,3.78,2.21.64.34,1.3.71,1.93,1a20.48,20.48,0,0,0,1.93.84c1.33.52,2.73,1,4.14,1.41,2.81.93,5.82,1.86,8.43,3.84a21.15,21.15,0,0,1,3.39,3.28q1.47,1.78,2.75,3.63c3.45,4.91,6.44,10,9.92,14.74s7.2,9.43,10.64,14.3c1.72,2.44,3.4,4.91,5,7.5a37.3,37.3,0,0,1,3.94,8.31,12.26,12.26,0,0,1,.46,2.42,8.75,8.75,0,0,1,0,1.31l-.09.68-.14.6a24.41,24.41,0,0,1-1.64,4.39,74.76,74.76,0,0,1-4.43,7.89,164.13,164.13,0,0,1-10.43,14.56q-2.78,3.51-5.79,6.83a66.69,66.69,0,0,1-6.41,6.34.85.85,0,0,1-1.12-1.26h0a80.54,80.54,0,0,0,5.94-6.45c1.9-2.25,3.73-4.56,5.55-6.88,3.59-4.68,7.06-9.46,10.2-14.42a72.48,72.48,0,0,0,4.27-7.63,22.16,22.16,0,0,0,1.48-3.93l.11-.48.06-.42a6.36,6.36,0,0,0,0-.91,9.84,9.84,0,0,0-.38-1.94,35.14,35.14,0,0,0-3.7-7.71c-1.51-2.5-3.16-4.93-4.87-7.34-3.42-4.82-7-9.48-10.62-14.24s-6.57-10-9.93-14.8a27.91,27.91,0,0,0-5.61-6.37c-2.14-1.64-4.9-2.56-7.69-3.47-1.4-.46-2.84-.91-4.27-1.46a22.89,22.89,0,0,1-2.14-.94c-.71-.35-1.34-.7-2-1.06-1.32-.72-2.62-1.48-3.9-2.29q-1-.6-1.9-1.24l-.91-.63a4.14,4.14,0,0,0-.45-.29,4.1,4.1,0,0,1-.61-.48l.11.1a53.22,53.22,0,0,1-4.28-3.53l-1-1a4.61,4.61,0,0,1-1.07-1.47,3,3,0,0,1-.12-2.19,3.3,3.3,0,0,1,1.31-1.66c2.21-1.42,4.71-.67,6.37.06a23.11,23.11,0,0,1,4.87,2.92l-.09-.06a7.9,7.9,0,0,0,1.31.57c.51.18,1,.35,1.57.5l.78.2.33.07s0,0,0,0h-.08l-.09,0a.83.83,0,0,0-.4.29.42.42,0,0,0-.07.1c0,.07,0-.13-.11-.31a5.83,5.83,0,0,0-.3-.64c-.12-.22-.25-.45-.39-.67l-.22-.33c0-.07-.06-.08-.14-.21l-.11-.17c-.29-.47-.58-.92-.9-1.36a18.43,18.43,0,0,0-2.09-2.43,11.53,11.53,0,0,0-1.18-1,14.22,14.22,0,0,0-1.32-.82q-1.42-.78-2.93-1.5L287.7,97l-1.61-.77a11.46,11.46,0,0,1-1.64-1,4,4,0,0,1-1.65-4,3.09,3.09,0,0,1,1.57-2.08,3.57,3.57,0,0,1,2.48-.25,5.55,5.55,0,0,1,.54.16l.4.14.81.29,1.63.58c1.09.39,2.17.81,3.25,1.25s2.15.93,3.2,1.48a21.61,21.61,0,0,1,3.1,1.9,22.66,22.66,0,0,1,4.58,5.51l-1.65.53h0a8.74,8.74,0,0,0-2-5.83,5.84,5.84,0,0,0-1.17-1c-.46-.29-.94-.57-1.43-.82a31.16,31.16,0,0,0-3.09-1.35c-1.07-.41-2.12-.76-3.26-1.17a25.39,25.39,0,0,1-3.27-1.49,12.36,12.36,0,0,1-1.58-1,4.22,4.22,0,0,1-1.36-1.71,3.31,3.31,0,0,1-.06-2.4,3.09,3.09,0,0,1,1.73-1.81,3.5,3.5,0,0,1,2.44,0l1.67.62L294.6,84,301,86.6a17.21,17.21,0,0,1,3.27,1.73A10.84,10.84,0,0,1,307,91.05a15.33,15.33,0,0,1,2.56,6.87l-1.61-.41h0a1.94,1.94,0,0,0,.33-.63,4.24,4.24,0,0,0,0-1A5.09,5.09,0,0,0,307.6,94,9.44,9.44,0,0,0,307,93a5,5,0,0,0-.7-.76l-1.81-1.59A37.32,37.32,0,0,1,301,87.23,9.61,9.61,0,0,1,299.49,85a4.48,4.48,0,0,1-.32-3,3.3,3.3,0,0,1,.85-1.5,2.83,2.83,0,0,1,1.69-.8,3.86,3.86,0,0,1,3,1.26c1.11,1.1,2.27,2.13,3.49,3.18a46.92,46.92,0,0,1,3.61,3.39,15.63,15.63,0,0,1,2.74,4.37,18.49,18.49,0,0,1,.82,2.41q.16.61.29,1.23l.12.62a.24.24,0,1,1,0,0c-.05,0,0-.28-.59-.52-.79-.08-.78.27-.84.24l-.06.08.06-.14a13.45,13.45,0,0,0,.54-2.16l0-.24v-.24c0-.19,0-.38,0-.56a7.35,7.35,0,0,0-.09-1.07,8.9,8.9,0,0,0-.7-2.09l-.49-1.14a4.56,4.56,0,0,1-.34-1.47,3.23,3.23,0,0,1,1.46-3,3.18,3.18,0,0,1,3.41.14,4.66,4.66,0,0,1,1.15,1.09c.27.37.5.69.74,1a20,20,0,0,1,1.3,2.17A23.27,23.27,0,0,1,323.22,93a28.87,28.87,0,0,1,.89,5c.09.81.1,1.74.19,2.37,0,.35.13.69.19,1s.2.69.33,1c1,2.75,3.06,5.22,5.08,7.69l1.54,1.9c.53.68,1,1.28,1.47,1.88,1,1.2,2.08,2.36,3.18,3.51,4.46,4.58,9.08,9.14,13.38,14s8.37,9.89,12.21,15.1,7.46,10.59,10.76,16.18c1.65,2.79,3.22,5.64,4.65,8.58a58.34,58.34,0,0,1,3.66,9.15,22.17,22.17,0,0,1,.91,5,15.34,15.34,0,0,1-.74,5.14,54.53,54.53,0,0,1-3.82,9.1,173.83,173.83,0,0,1-10,16.67c-3.59,5.38-7.36,10.63-11.25,15.79s-7.9,10.22-12.13,15.13c-1.06,1.23-2.14,2.44-3.26,3.63a29,29,0,0,1-3.67,3.42,33.93,33.93,0,0,1-8.85,4.61,86.34,86.34,0,0,1-19.11,4.17,180.2,180.2,0,0,1-19.41,1.13,1.21,1.21,0,0,1,0-2.42Z"/><path class="cls-4" d="M255.46,171.15c-.73.49-1.45,1-2.14,1.44a23.26,23.26,0,0,0-2,1.52,10.54,10.54,0,0,0-1.63,1.7,5.58,5.58,0,0,0-.57.92,4.05,4.05,0,0,0-.18.45l-.05.2s0,.16,0,.07l-1.31-1.27c3.2-.08,6.37-.07,9.56,0s6.37.22,9.55.49,6.36.65,9.54,1.21l2.38.47c.79.2,1.58.41,2.37.63s1.56.58,2.32.89a16.35,16.35,0,0,1,2.17,1.32.8.8,0,0,1-.65,1.45l-.18,0c-.75-.19-1.41-.47-2.14-.67l-2.19-.59c-.75-.16-1.49-.35-2.24-.53l-2.28-.42c-3.06-.5-6.18-.84-9.3-1.06s-6.27-.36-9.41-.48-6.3-.15-9.43-.11h-.06a1.23,1.23,0,0,1-1.24-1.22v-.06a3.11,3.11,0,0,1,.07-.59c0-.15.07-.3.12-.44a6.54,6.54,0,0,1,.32-.79,8.07,8.07,0,0,1,.84-1.34,11,11,0,0,1,2.1-2.09c.37-.31.79-.55,1.18-.82s.82-.47,1.23-.69a18.77,18.77,0,0,1,2.58-1,.82.82,0,0,1,.71,1.46Z"/><path class="cls-4" d="M219.06,206.77a15.51,15.51,0,0,1-6.11-9.14,28,28,0,0,1-.32-10.95,39,39,0,0,1,3.16-10.39,35.73,35.73,0,0,1,6-9.12,24.74,24.74,0,0,1,4.2-3.63,19.61,19.61,0,0,1,5-2.47,35,35,0,0,1,21.48-.73,26.33,26.33,0,0,1,5.08,2,16.43,16.43,0,0,1,4.47,3.27.81.81,0,0,1-1.07,1.22l0,0a30,30,0,0,0-9.13-4.06,32.47,32.47,0,0,0-19.9.81,19.33,19.33,0,0,0-8.12,5.45,33.08,33.08,0,0,0-5.57,8.38,36.45,36.45,0,0,0-3,9.67,26,26,0,0,0,.18,10,19,19,0,0,0,1.72,4.58,15.88,15.88,0,0,0,3,3.88h0a.81.81,0,0,1-1,1.27Z"/><path class="cls-4" d="M264.91,188.76a37.28,37.28,0,0,1,9.33.26,91.27,91.27,0,0,1,9.23,1.48,57.31,57.31,0,0,1,9,2.76,22.3,22.3,0,0,1,2.18,1,19.74,19.74,0,0,1,2.13,1.1,16.29,16.29,0,0,1,2,1.34,17.59,17.59,0,0,1,1.73,1.71.82.82,0,0,1-.95,1.28l-.11,0a15.78,15.78,0,0,1-2-1c-.62-.37-1.31-.67-1.93-1a17.68,17.68,0,0,0-2-1,20.26,20.26,0,0,0-2.05-.86,56.69,56.69,0,0,0-8.65-2.5,88.65,88.65,0,0,0-9-1.59c-3-.42-6.06-.53-9.05-1.19h0a.82.82,0,0,1,.05-1.62Z"/><path class="cls-4" d="M280.33,201.54a24.31,24.31,0,0,1,7.94,2.09,49.57,49.57,0,0,1,7.35,3.68,38.42,38.42,0,0,1,6.54,5.07l1.45,1.49c.47.51.89,1.07,1.34,1.6l.64.82c.2.29.36.6.54.9a12.9,12.9,0,0,1,.88,1.9.83.83,0,0,1-1.35.88l0,0c-1.95-1.82-3.28-4-5.26-5.67a40.23,40.23,0,0,0-6.17-4.65,54.06,54.06,0,0,0-6.91-3.6c-2.38-1.06-4.91-1.77-7.28-2.9l0,0a.82.82,0,0,1,.38-1.57Z"/><path class="cls-4" d="M213.71,212.26c-3-.31-5.91-.94-8.88-1a23.9,23.9,0,0,0-8.59,1.28,14.14,14.14,0,0,0-6.79,4.77l-.62.85a7.63,7.63,0,0,0-.51.92,9.78,9.78,0,0,0-.86,1.94c-.11.34-.24.67-.36,1l-.2.5-.14.53a15.85,15.85,0,0,1-.71,2.11l0,.07a.82.82,0,0,1-1.58-.25,14.45,14.45,0,0,1,2.95-9.22,16.66,16.66,0,0,1,8-5.8,26.51,26.51,0,0,1,9.57-1.29,22.76,22.76,0,0,1,9.28,2,.82.82,0,0,1-.45,1.56Z"/><path class="cls-4" d="M202.29,223.77a45.41,45.41,0,0,0-4.55,7.78,36.22,36.22,0,0,0-2.54,8.72,27.25,27.25,0,0,0-.19,8.95,15,15,0,0,0,1.28,4.14,21.14,21.14,0,0,0,2.28,3.62l0,0a.83.83,0,0,1-1,1.23,8.67,8.67,0,0,1-3.5-3.76,17.52,17.52,0,0,1-1.58-4.82,29.38,29.38,0,0,1,.05-9.84,38.85,38.85,0,0,1,2.87-9.32c1.37-2.92,3-5.94,5.77-7.9a.82.82,0,0,1,1.15,1.14Z"/><path class="cls-4" d="M209.94,243.83a26,26,0,0,0-2.21,6,26.58,26.58,0,0,0-.56,6.61,19.18,19.18,0,0,0,1.23,6.38,10.58,10.58,0,0,0,1.55,2.7,30.46,30.46,0,0,0,2.12,2.29l0,0a.84.84,0,0,1,0,1.19.85.85,0,0,1-.77.22,6.28,6.28,0,0,1-3.28-2.12,13.12,13.12,0,0,1-2-3.3,20.33,20.33,0,0,1-1.54-7.29,26.75,26.75,0,0,1,.75-7.3,20.86,20.86,0,0,1,1.19-3.53,7.53,7.53,0,0,1,2.37-3,.83.83,0,0,1,1.22,1Z"/><path class="cls-4" d="M219.75,263a14.73,14.73,0,0,0,2.12,4.51,16.17,16.17,0,0,0,3.85,3.5,27.52,27.52,0,0,0,4.75,2.55c.84.35,1.69.66,2.56.94a11.71,11.71,0,0,1,1.29.45,6.31,6.31,0,0,1,1.27.61l.05,0a.86.86,0,0,1-.34,1.57,7.47,7.47,0,0,1-3-.25c-1-.27-1.9-.57-2.82-.92a26.06,26.06,0,0,1-5.31-2.73,17.31,17.31,0,0,1-4.43-4.23,9.2,9.2,0,0,1-.83-1.35,8.35,8.35,0,0,1-.64-1.48,3.05,3.05,0,0,1-.2-.79c0-.27-.09-.54-.11-.81a6.44,6.44,0,0,1,.15-1.62.82.82,0,0,1,1.59-.11Z"/><path class="cls-4" d="M299.38,225.73a24.81,24.81,0,0,1,4.28,10.51,29.71,29.71,0,0,1-.4,11.41A23.18,23.18,0,0,1,298,257.91a19.84,19.84,0,0,1-2.1,2.05c-.73.63-1.5,1.15-2.24,1.74s-1.54,1.07-2.32,1.6l-1.17.78-1.21.71a69.58,69.58,0,0,1-10.06,4.89,77.66,77.66,0,0,1-10.63,3.42,67,67,0,0,1-11.06,1.79A28,28,0,0,1,246,273.62a.81.81,0,0,1,.4-1.57h0a53.74,53.74,0,0,0,21.23-1.46,75.06,75.06,0,0,0,10.26-3.38c1.68-.65,3.3-1.44,4.94-2.19s3.2-1.64,4.73-2.58l1.17-.67,1.12-.73c.74-.5,1.52-1,2.22-1.51s1.46-1.05,2.12-1.61a17.2,17.2,0,0,0,1.84-1.77,20.58,20.58,0,0,0,4.69-9.1,28.05,28.05,0,0,0,.46-10.43,31.87,31.87,0,0,0-3.21-10v0a.81.81,0,0,1,1.38-.85Z"/><path class="cls-4" d="M229.45,217.71a5.5,5.5,0,0,1-.44-1.26,8.46,8.46,0,0,1,0-1.31c.05-.42.14-.84.21-1.26l.34-1.2a17.72,17.72,0,0,1,2.21-4.32,20.5,20.5,0,0,1,3.17-3.59l.94-.78c.34-.24.66-.49,1-.71a3.88,3.88,0,0,1,2.63-.66.81.81,0,0,1,.44,1.39l-.23.22a10.9,10.9,0,0,1-1.47,1.14c-.27.18-.53.41-.8.61l-.77.7a22,22,0,0,0-2.71,3.22,17.76,17.76,0,0,0-2,3.63,24.21,24.21,0,0,0-.92,3.84l0,.14a.84.84,0,0,1-1.56.18Z"/><path class="cls-4" d="M233.37,228.81a4.8,4.8,0,0,1,.91-2.56,8.11,8.11,0,0,1,.82-1,10.9,10.9,0,0,1,.89-.92,21.83,21.83,0,0,1,4-3,24.58,24.58,0,0,1,4.52-2,20,20,0,0,1,2.43-.66,4.85,4.85,0,0,1,2.6.1.86.86,0,0,1,.12,1.57l-.11.06a9.35,9.35,0,0,1-2.07.72,17.53,17.53,0,0,0-2.1.67,27.57,27.57,0,0,0-4,1.94,23.07,23.07,0,0,0-3.62,2.54,33.75,33.75,0,0,0-2.83,3.09l-.1.11a.84.84,0,0,1-1.45-.6Z"/><path class="cls-4" d="M237.61,238.53c.56-1,1.34-1.05,2-1.38s1.42-.53,2.15-.76,1.46-.4,2.22-.54c.38-.07.77-.13,1.17-.19a2.1,2.1,0,0,1,.65,0,2.06,2.06,0,0,1,.36.1,1.89,1.89,0,0,1,.46.24.59.59,0,0,1,.14.73l-.46.87c-.05.1-.06.14-.09.21L246,238a1.37,1.37,0,0,1-.44.17l-1,.26-2,.6-2.06.59c-.69.17-1.31.56-2,.32l-.37-.12a.87.87,0,0,1-.55-1.09A.91.91,0,0,1,237.61,238.53Z"/><path class="cls-4" d="M134.87,122.23a8.2,8.2,0,0,0,2.24-.94,1.18,1.18,0,0,0,.42-.55,1.67,1.67,0,0,0-.08-.79,7.71,7.71,0,0,1-.34-1.76,2.74,2.74,0,0,1,1.26-2.4,6.45,6.45,0,0,1,1.78-.76,8,8,0,0,1,1.79-.28,7.66,7.66,0,0,1,1.81.15,6.6,6.6,0,0,1,1.79.61,3.45,3.45,0,0,1,1.87,2.25.42.42,0,0,0-.24-.17,3.36,3.36,0,0,0,1.69-.74,22.31,22.31,0,0,0,1.93-1.67l.06-.05a.84.84,0,0,1,1.41.76,4.88,4.88,0,0,1-1.87,3,7.69,7.69,0,0,1-1.54.94,3.56,3.56,0,0,1-2.28.34,2.25,2.25,0,0,1-1.43-1,8,8,0,0,1-.35-.8,1.08,1.08,0,0,0-.49-.41,4,4,0,0,0-1.06-.33,5.49,5.49,0,0,0-1.2-.09,5.31,5.31,0,0,0-1.19.17,4.25,4.25,0,0,0-1,.38l-.07.06s0,0,0,.09a6.3,6.3,0,0,0,.22,1.2,5.89,5.89,0,0,1,.14,1,3.25,3.25,0,0,1-.17,1.22,3.54,3.54,0,0,1-1.42,1.77,4.65,4.65,0,0,1-3.54.52.84.84,0,0,1-.66-1A.85.85,0,0,1,134.87,122.23Z"/><g class="cls-8"><path class="cls-9" d="M228.61,105c.09-1,.06-2,.15-3a32.64,32.64,0,0,1,1.13-4.51c1-4,1.81-8.66-.55-12.09-1.79-2.6-5-3.82-8-4.67A66.66,66.66,0,0,0,209,78.44a11.84,11.84,0,0,0-5.17.4,12.4,12.4,0,0,0-4.39,3.39c-6.58,7-12,13.85-15.42,22.78a20.45,20.45,0,0,1-1.79,3.85,20.43,20.43,0,0,1-1.75,2.22c-6.09,7-10.7,14.81-17.22,21.54C156,140,148.14,146.75,142,155a35.11,35.11,0,0,0-6.12,12c-1.18,4.65-.92,9.53-.59,14.31.27,3.95.59,7.9,1,11.83.32,2.92,2.23,9.44,4.1,11.71,2,2.44,5.83,1.11,9,1.1,9.05,0,14.8-9.17,17.65-17.35,2.42-7,1.75-14.49,3.42-21.61,1.38-5.88,5-8.37,8.72-12.77,3.15-3.76,6.95-6.83,10.32-10.37,3.16-3.31,5.76-7.18,8.7-10.7a66.74,66.74,0,0,1,19.62-16,34.39,34.39,0,0,0,6.12-3.71,13.84,13.84,0,0,0,4.42-7.18A8.84,8.84,0,0,0,228.61,105Z"/></g><g class="cls-8"><path class="cls-9" d="M291.19,112.69a19.87,19.87,0,0,1-5.86-5.23c-1.68-2.54-2.17-5.67-2.5-8.7-.58-5.24-.6-11.15,2.94-15.05,2.6-2.87,6.6-4,10.44-4.56,6.86-1,14.55-.15,19.49,4.71,2.29,2.25,3.78,5.18,5.22,8.06q4,7.94,7.76,16c2.83,6,5.28,9,10,13.54l10.19,9.7c3.14,3,7.51,6,9.87,9.67,4.31,6.64,10.79,11.48,15.25,18,3.2,4.72,4,9.5,5.52,14.82a43.93,43.93,0,0,1-1.27,28.75,24.09,24.09,0,0,1-6.54,9.68c-9.27,7.7-18-1.15-25.74-6.43-2.39-1.66-4.91-3.48-5.93-6.21-2.88-7.69,5.61-14.44,6.64-21.58.95-6.55-7.15-15.08-10.88-19.87-1.87-2.4-3.84-4.74-5.8-7.08l-4.6-5.48c-2.88-3.43-5.76-6.86-8.76-10.19q-6-6.72-12.7-12.86A97.91,97.91,0,0,0,291.19,112.69Z"/></g><g class="cls-1"><path class="cls-2" d="M102.93,138.26c-4.24,3-6.38,2.76-10.15,6.32a14.3,14.3,0,0,0-4,5.3c-1,2.85-.24,6,1,8.78a25.11,25.11,0,0,0,8,9.65,13.66,13.66,0,0,0,7.67,3c3.48,0,6.7-1.86,9.28-4.19a28,28,0,0,0,7.5-11.15,8,8,0,0,0,.63-3.49,7.34,7.34,0,0,0-1.49-3.43c-4.21-5.89-11.55-8.49-18.43-10.75"/></g><g class="cls-8"><path class="cls-9" d="M252.21,280.44c-11.62.85-23-4.74-33.74-12.74-10.92-8.15-18.65-18.51-19.64-32.09-.54-7.37,1-14.78,3.36-21.77a86.09,86.09,0,0,1,17-29.16c2.87-3.22,6.08-6.3,10-8,4.41-1.9,9.39-2,14.19-1.68A117.27,117.27,0,0,1,270,179.6c5.62,1.66,11.22,3.8,15.84,7.41a37.92,37.92,0,0,1,8.59,9.87c10.18,16.27,8.24,38.74-1.2,55.45S272.47,279,252.21,280.44Z"/></g><path class="cls-6" d="M348.28,239.84c5.94-6.76,16.39-17.4,16.39-17.4-1.31-8.75-19.53-21.13-28.87-21.5a35.77,35.77,0,0,1-4.51,9.05"/><path class="cls-4" d="M347.34,239c5.33-6,10.86-11.73,16.44-17.45l-.34,1.06c-.46-2.62-2.33-5.17-4.34-7.36a45,45,0,0,0-6.92-6,51.5,51.5,0,0,0-7.91-4.63,24.49,24.49,0,0,0-8.5-2.5h0l1.25-.89c-.29.89-.6,1.68-1,2.49s-.71,1.59-1.11,2.37a37.62,37.62,0,0,1-2.7,4.49,1.15,1.15,0,0,1-1.89-1.3h0a35.29,35.29,0,0,0,2.44-4.25c.36-.74.69-1.49,1-2.24s.6-1.54.82-2.26v0a1.2,1.2,0,0,1,1.23-.85h0a26.71,26.71,0,0,1,9.45,2.73,54,54,0,0,1,8.3,4.86,47.49,47.49,0,0,1,7.31,6.29,27.14,27.14,0,0,1,3,3.88,13.26,13.26,0,0,1,1.94,4.8,1.2,1.2,0,0,1-.32,1l0,0c-5.55,5.69-11.09,11.43-16.34,17.35h0a1.25,1.25,0,1,1-1.87-1.66Z"/><path class="cls-6" d="M144.57,227.2c-3.15-8.71-6.75-18.07-6.75-18.07,5.06-6,22.67-13.36,32-12a66.46,66.46,0,0,0,1.79,8.15"/><path class="cls-4" d="M143.39,227.63l-6.74-18v0a1.2,1.2,0,0,1,.23-1.22,27.92,27.92,0,0,1,7.31-5.55,60.11,60.11,0,0,1,8.12-3.77,56.35,56.35,0,0,1,8.59-2.55,27.9,27.9,0,0,1,9.14-.58,1.23,1.23,0,0,1,1.06,1h0c.21,1.35.44,2.71.7,4.05a36,36,0,0,0,.95,3.91v0a1.17,1.17,0,0,1-2.22.74,37.93,37.93,0,0,1-1.11-4.18c-.3-1.38-.56-2.76-.81-4.15l1.06,1a25.59,25.59,0,0,0-8.28.55,53.9,53.9,0,0,0-8.21,2.44A57.65,57.65,0,0,0,145.4,205a25.76,25.76,0,0,0-6.63,5l.21-1.25,6.76,18.09a1.25,1.25,0,0,1-2.34.87Z"/><path class="cls-3" d="M127,155.64s-3,5.72-17,19c-3.93,3.73-7.2,6.51-7.2,6.51s-2.85-2-10-11.08a145.52,145.52,0,0,1-10-14.06A111.65,111.65,0,0,1,96,142.28l9.18-8.29,11.2,12.39C123.68,154.49,127,155.64,127,155.64Z"/><path class="cls-4" d="M105.89,149.28a6.43,6.43,0,0,0-2.82,5.94,6.86,6.86,0,0,0,.76,3.28,1.79,1.79,0,0,0,1,.71,5.91,5.91,0,0,0,1.65.25,9.39,9.39,0,0,0,6.62-2.52,8.84,8.84,0,0,0,.63-.65c.1-.11.19-.23.28-.35a3.36,3.36,0,0,0,.22-.29s0,.06,0,.16a.32.32,0,0,0,.05.19,1.12,1.12,0,0,0-.35-.27c-1.07-.58-2.3-1.16-3.47-1.83h0a.83.83,0,0,1,.45-1.55,10.36,10.36,0,0,1,4.27,1.22,3.46,3.46,0,0,1,1.23,1.07,2.2,2.2,0,0,1,.37,1.16,2.24,2.24,0,0,1-.3,1.15,4.7,4.7,0,0,1-.38.57c-.12.16-.23.32-.36.47a11.43,11.43,0,0,1-.8.87,11.76,11.76,0,0,1-8.53,3.36,8.48,8.48,0,0,1-2.45-.42,4.53,4.53,0,0,1-2.3-1.75,6.39,6.39,0,0,1-.93-2.44,14.18,14.18,0,0,1-.21-2.3,9.47,9.47,0,0,1,1-4.64,5.48,5.48,0,0,1,3.9-2.9.82.82,0,0,1,.56,1.51Z"/><path class="cls-3" d="M92.45,157.07a10.77,10.77,0,0,1,2.1.45"/><path class="cls-3" d="M105.43,167.36l-.38,1"/><path class="cls-3" d="M97.9,164.41,97,165"/><path class="cls-3" d="M134.09,64.15s-8.31,8-26.89,13.87L100,80.29,95,64.36l-5-15.93,15.93-5,15.93-5,2.38,7.52C129.12,61.59,134.09,64.15,134.09,64.15Z"/><line class="cls-3" x1="97.16" y1="88.46" x2="99.99" y2="80.29"/></g></svg>