<svg xmlns="http://www.w3.org/2000/svg" viewBox="0 0 400.13 301.2"><defs><style>.cls-1,.cls-3{fill:#fff;}.cls-2{fill:none;}.cls-2,.cls-3{stroke:#f69679;stroke-linecap:round;stroke-linejoin:round;stroke-width:2.5px;}.cls-4{fill:#f69679;}.cls-5{fill:#ffd54c;opacity:0.3;}.cls-6{fill:#f47a5c;opacity:0.2;}</style></defs><title>icons3-illus</title><g id="Layer_1" data-name="Layer 1"><path class="cls-1" d="M338.69,103l21.43,5.38c1.66.42,3.15-.88,3.33-2.9l3.9-44a4.13,4.13,0,0,0-2.68-4.41L343.24,51.7c-1.66-.42-3.15.88-3.33,2.9l-3.9,44A4.13,4.13,0,0,0,338.69,103Z"/><path class="cls-1" d="M363.65,108.36c1.66.42,3.15-.88,3.33-2.9l3.82-43.08A4.13,4.13,0,0,0,368.12,58l-21.43-5.38"/><path class="cls-1" d="M102.82,129l-36.69,34a3.51,3.51,0,0,1-4.34.35L22.31,137.19l50.43-29.54,29.35,15.7A3.51,3.51,0,0,1,102.82,129Z"/><path class="cls-1" d="M22.31,137.19,14.36,89.95a3.51,3.51,0,0,1,2.11-3.82L61.89,67.05a3.51,3.51,0,0,1,4.83,2.69l6,37.91Z"/><polygon class="cls-1" points="61.64 72.46 20.06 90.56 26.62 128.4 67.24 105.41 61.64 72.46"/><path class="cls-1" d="M187.83,47.35c3.19,4.58,28.46,6.27,47.88,5.9,18.49-.36,28.5-1.35,29.85-5.26s5.31-34.57,1.55-36.53-20.19,5.12-23.2,7.07S230.84,6.81,227.24,5.3,210.4,19.73,208.3,19.73s-21.73-14.31-24-6.19S185.42,43.89,187.83,47.35Z"/><path class="cls-1" d="M259.87,55.49c2.61-.33,5.41,15.62,1.5,26.66-3.56,10-11,15.57-11.24,19.28-.48,8.69-1.07,16.7,6.39,19.11s20,2,25.67,8.15,16,24.46,25.07,27.13c3.07.9,31.85-34.18,30.31-41.21s1.39-13.49,9.11-12,8.81-8,15.72-3c12.74,9.23-3.43,12.09-10.72,34.28s-18.21,47.1-25.89,54.78c-6.52,6.52-18.54,7.68-26.88,3.07-3.86-2.13-27.54-27.54-29.12-21.64-2.14,8-.44,34.08,4.5,39.28,9.18,9.67,60.89,22.71,58.91,39.19s-24.2,18.92-20,24.39c7.31,9.51-8,22.12-16.74,22.11-13.63,0-41.48-17.83-66.31-14.26s-48.77,11-73.38,10.37-23.13-23.81-17.14-27.45S111.26,259,115,236.11c2.08-12.63,47.77-24,60.63-25.61s11.87-44.69,4.62-37.88c-3.89,3.66-11.52,10.32-18.94,16.77-5.74,5-15.77,5.7-20,3-36.89-23.47-62.89-32.61-68.62-30-10.65,4.83,6.39-16.51,10.43-20s-2.64-23,14.5-12.35c4.73,2.94,6.79,14,12.41,17.53,14.74,9.3,33.81,11,39.22,8.78,4.26-1.78,9.88-16.71,20.09-26,7.67-7,18.68-8.94,29.57-10.06,4.1-.42,5.4-10.89,1.73-22-2-6.13-7.7-11-10.24-17.86-6.63-17.91-.15-27.67,4.75-26.43,6.79,1.71,19,3.13,33.69,3.13A277.31,277.31,0,0,0,259.87,55.49Z"/><path class="cls-1" d="M302.92,71.75c-3.43-3.62-8.35-14.55,1.16-16.25,4.32-.77,6.05.44,8.25,0,4.64-.92,10.46.49,11.84,5.38s-4.59,13.39-11.44,15.82C309.7,77.77,305,73.9,302.92,71.75Z"/><path class="cls-1" d="M329.62,44c-3.07.36-9.48-6.24-8.49-9.66s3.34-5.93,6.46-5.25,6.78-1.11,9.44,2.38S334.22,43.42,329.62,44Z"/><path class="cls-1" d="M100.8,54.72c6,1.15,10.48,8.61,5.12,15.67s-11.93,7-16.34,4.09c-7.86-5.25-8.9-14-5-17.28s6.13-2.72,8.44-1.71S98.48,54.28,100.8,54.72Z"/><path class="cls-1" d="M56.74,54.66c4.68-.84,9.94-12.49,3.35-14.11s-13.64-.23-13.76,4S51,55.7,56.74,54.66Z"/><path class="cls-1" d="M337.73,58.88c6.11-4.35,27.34,2.15,30.33,8.25,1.86,3.81,3.77,16.39-.21,26.65-2.39,6.16-4.64,3.81-8.64,3.5-4.87-.38-7.52,5.77-14.47,4.63-14.08-2.31-12.86-13.52-13.53-23.45C330.47,67.61,334.09,61.47,337.73,58.88Z"/><path class="cls-2" d="M227.37,105.25c-15.78.37-37-12.65-38.32-35.53s14.14-39.4,36.66-38.95,37.24,16.72,36.66,37.56S246.79,104.8,227.37,105.25Z"/><path class="cls-3" d="M190.49,45.93c12,5.2,53.07,9.06,71.49.43l.64-30.78-19.5,8.49L225.74,9.3,209.59,23.76l-19.1-8.17Z"/><path class="cls-2" d="M247.23,98.37c.17,10.26-1.38,18.84,4,22.64s20.29,4,26.45,9.81c6.46,6.08,29.6,31.57,29.6,31.57"/><path class="cls-4" d="M303.43,166.81c3.55-5.28,7.38-10.35,11.21-15.41l11.43-15.24c3.78-5.09,7.64-10.17,11.2-15.34.24-.33.39-.62.6-.93l.29-.46c.07-.15.15-.29.21-.44a5.34,5.34,0,0,0,.44-1.86,17.22,17.22,0,0,0-.56-4.36,30.25,30.25,0,0,1-.8-9.84v0a1.25,1.25,0,0,1,2.49.26,27.69,27.69,0,0,0,.84,9.06,19.34,19.34,0,0,1,.66,5.06,8,8,0,0,1-.63,2.76c-.09.22-.2.43-.3.64l-.34.55c-.23.36-.45.76-.68,1.07-3.65,5.3-7.46,10.35-11.27,15.46l-11.55,15.17c-3.86,5.05-7.73,10.09-11.92,14.89a.83.83,0,0,1-1.32-1Z"/><path class="cls-2" d="M80.82,138.85s-23.67,2.76-27.54,14.75,4.05,3.84,27.54,6c13.41,1.25,57.15,28.82,61.45,30.13s11.39,1,14.58-.65,27.45-26.64,27.45-26.64,5.35,42.1-.19,47.18c-5.86,5.38-62.29,16.22-63.66,25.27-1,6.44,5.5,20.79,16.83,23.52,14.18,3.41,43.27,6.89,43.27,6.89"/><path class="cls-4" d="M160.74,229.81c6.18,1.73,12.29,3.7,18.39,5.66s12.22,3.88,18.36,5.71,12.28,3.65,18.47,5.29,12.38,3.25,18.63,4.46h0a1.25,1.25,0,0,1-.46,2.46c-6.37-1.17-12.64-2.66-18.87-4.31s-12.41-3.43-18.55-5.32-12.27-3.86-18.37-5.88-12.17-4.14-18.1-6.65a.75.75,0,0,1,.5-1.41Z"/><path class="cls-2" d="M338.69,103l21.43,5.38c1.66.42,3.15-.88,3.33-2.9l3.9-44a4.13,4.13,0,0,0-2.68-4.41L343.24,51.7c-1.66-.42-3.15.88-3.33,2.9l-3.9,44A4.13,4.13,0,0,0,338.69,103Z"/><path class="cls-2" d="M363.65,108.36c1.66.42,3.15-.88,3.33-2.9l3.82-43.08A4.13,4.13,0,0,0,368.12,58l-21.43-5.38"/><polygon class="cls-2" points="336.27 95.74 363.71 102.63 367.09 64.39 339.66 57.5 336.27 95.74"/><path class="cls-1" d="M284.2,238.27c-11.67,4.65-91.79,24.85-111.69,28.53-8.06,1.49-34.34-.4-35.33,4.61s8.12,16.67,18.13,17.53c6.74.58,16.12-2.62,23.88-1.47,10.4,1.54,13.6-4.44,24.91-6,20.31-3.2,100.14-10.12,109.57-14.89,8.84-4.46,16.59-16.68,13.91-22.88s-54.57-28.32-58.37-33c-6.54-8.08-2.18-50.16-2.18-50.16,6.18,3.49,32.9,28.5,38,29.61s14.58,1,19.2-3.65,23-51,26.7-58.15,13.64-11,17.55-17.19c2.31-3.64-13.2-13.87-14.08-10.9s.67,7.78,3.63,10.09"/><path class="cls-4" d="M284.5,239c-2.38,1-4.79,1.86-7.2,2.65s-4.84,1.55-7.28,2.24c-4.87,1.43-9.76,2.75-14.66,4.06q-14.69,3.93-29.43,7.62t-29.53,7.23c-4.93,1.16-9.87,2.31-14.83,3.4-2.48.54-5,1.08-7.47,1.56a30.8,30.8,0,0,1-3.87.6c-1.3.12-2.58.19-3.85.25-5.1.21-10.15.23-15.17.49-2.5.13-5,.3-7.44.66a21.53,21.53,0,0,0-3.49.77,6.06,6.06,0,0,0-1.4.64c-.15.12-.33.25-.36.33l-.06.06a.07.07,0,0,1,0,0l0,0v.17a4.28,4.28,0,0,0,0,.68l.1.76a10.83,10.83,0,0,0,.52,1.59c.12.26.22.53.34.79l.42.78a17.7,17.7,0,0,0,.93,1.52,25.32,25.32,0,0,0,4.88,5.3,21.21,21.21,0,0,0,6.15,3.58,16.41,16.41,0,0,0,7,.84c4.89-.3,9.89-1.47,15.11-1.69a34,34,0,0,1,4,0l2,.22c.59,0,1.19.16,1.78.16a17.83,17.83,0,0,0,7-1.06c2.27-.8,4.54-1.95,7-2.9a36.22,36.22,0,0,1,7.55-2.13c5.07-.83,10.09-1.4,15.13-2,20.14-2.34,40.28-4.39,60.36-6.91,5-.63,10-1.29,15-2s10-1.5,14.85-2.6c1.21-.28,2.41-.58,3.53-1a14.19,14.19,0,0,0,3.08-1.58,28.17,28.17,0,0,0,5.47-4.72,29.94,29.94,0,0,0,4.19-5.92,16.23,16.23,0,0,0,2.1-6.62,6.53,6.53,0,0,0,0-.82l-.09-.78a3,3,0,0,0-.19-.73,1.51,1.51,0,0,0-.24-.6c-.06-.07-.05-.13-.15-.23l-.26-.28a4.74,4.74,0,0,0-.59-.56c-.41-.38-.91-.74-1.39-1.1a71.2,71.2,0,0,0-6.3-4c-4.36-2.49-8.84-4.82-13.34-7.12-9-4.6-18.13-9-27.13-13.72-2.25-1.21-4.48-2.4-6.69-3.86a13.42,13.42,0,0,1-1.68-1.28l-.45-.45c-.12-.15-.22-.31-.33-.47a6.15,6.15,0,0,1-.58-.95,17.32,17.32,0,0,1-1.4-3.85,74.6,74.6,0,0,1-1.56-15.37,279.19,279.19,0,0,1,1.42-30.49v0a1.23,1.23,0,0,1,1.34-1.1,1.24,1.24,0,0,1,.52.17h0a47.8,47.8,0,0,1,4.92,3.56c1.55,1.23,3.07,2.49,4.58,3.75l9,7.6c3,2.53,6,5.05,9,7.51,1.52,1.23,3,2.44,4.6,3.6a37.66,37.66,0,0,0,4.71,3.13c.18.08.39.19.54.24a2.93,2.93,0,0,0,.54.14q.68.14,1.37.23c.92.13,1.87.21,2.81.25a29,29,0,0,0,5.62-.32,18.53,18.53,0,0,0,5.25-1.59,11.33,11.33,0,0,0,2.19-1.45l.48-.43c.15-.14.25-.29.38-.44.25-.35.51-.7.75-1.11a114.17,114.17,0,0,0,5.28-10.34c1.64-3.55,3.23-7.13,4.81-10.72,3.14-7.18,6.19-14.41,9.27-21.63,1.54-3.61,3.08-7.22,4.7-10.82.42-.9.82-1.8,1.29-2.72.25-.46.53-.92.8-1.37s.61-.86.91-1.29a29.67,29.67,0,0,1,4.31-4.36c3.06-2.6,6.36-4.77,9.08-7.36l1-1,.88-1,.39-.55.19-.27c.07-.09.14-.2.12-.19a.67.67,0,0,0,0-.51,6.52,6.52,0,0,0-1.29-2,19.61,19.61,0,0,0-2-1.94,31.4,31.4,0,0,0-4.59-3.29,20.48,20.48,0,0,0-2.47-1.25,8.22,8.22,0,0,0-1.2-.41,2.9,2.9,0,0,0-.49-.07c-.08,0-.08,0-.12,0s0,0,.07,0,.16-.14.23-.21,0-.15,0-.1l0,.14a3.27,3.27,0,0,0-.1.57,6.57,6.57,0,0,0,0,1.23,10.08,10.08,0,0,0,.54,2.53,13.13,13.13,0,0,0,2.63,4.48l0,0a1,1,0,0,1-1.21,1.46,9.62,9.62,0,0,1-3.88-5.14,11.84,11.84,0,0,1-.65-3.21A9.08,9.08,0,0,1,353,101a5.6,5.6,0,0,1,.17-.87l.05-.22a2.39,2.39,0,0,1,.19-.43,1.93,1.93,0,0,1,.72-.74,2.65,2.65,0,0,1,.76-.26,3.43,3.43,0,0,1,.61,0,5.28,5.28,0,0,1,1,.14,10.6,10.6,0,0,1,1.59.53,22.88,22.88,0,0,1,2.78,1.41,33.86,33.86,0,0,1,5,3.55,22.05,22.05,0,0,1,2.22,2.19,8.69,8.69,0,0,1,1.79,2.94,3.13,3.13,0,0,1-.13,2.35,2.18,2.18,0,0,1-.26.44l-.23.33-.46.65-1,1.2-1.08,1.11c-3,2.82-6.28,5-9.2,7.47a27.26,27.26,0,0,0-4,4c-.26.37-.55.73-.79,1.11s-.46.76-.68,1.17c-.43.82-.83,1.72-1.24,2.6-1.6,3.55-3.14,7.17-4.68,10.77-3.08,7.22-6.13,14.45-9.28,21.65-1.58,3.6-3.17,7.19-4.83,10.77a115.55,115.55,0,0,1-5.43,10.62c-.26.44-.57.88-.9,1.32-.19.22-.39.47-.59.67l-.61.55a13.83,13.83,0,0,1-2.7,1.79,21,21,0,0,1-6,1.82,31.51,31.51,0,0,1-6.11.35c-1,0-2-.12-3.05-.27q-.76-.1-1.53-.26a5.55,5.55,0,0,1-.88-.24c-.32-.11-.53-.23-.81-.35a39.32,39.32,0,0,1-5.1-3.36c-1.59-1.19-3.14-2.42-4.67-3.66-3.07-2.48-6.07-5-9.07-7.54l-9-7.59c-1.5-1.25-3-2.5-4.53-3.71a46.64,46.64,0,0,0-4.6-3.34h0l1.86-1a276.82,276.82,0,0,0-1.36,30.18,72.48,72.48,0,0,0,1.51,14.79,14.89,14.89,0,0,0,1.18,3.27,3.87,3.87,0,0,0,.41.67c.07.1.14.22.21.31l.23.22a11.45,11.45,0,0,0,1.35,1c2,1.33,4.27,2.52,6.47,3.71,8.93,4.68,18.08,9,27.12,13.65,4.52,2.3,9,4.63,13.47,7.16a73.53,73.53,0,0,1,6.55,4.12c.53.4,1.07.78,1.59,1.26a6.91,6.91,0,0,1,.78.74,4.62,4.62,0,0,1,.76,1,3.69,3.69,0,0,1,.49,1.14,5.37,5.37,0,0,1,.28,1.1l.12,1.11a9,9,0,0,1,0,1.08,18.81,18.81,0,0,1-2.42,7.76,32.61,32.61,0,0,1-4.57,6.45,30.83,30.83,0,0,1-6,5.17,16.8,16.8,0,0,1-3.66,1.86c-1.28.43-2.54.74-3.8,1-5,1.13-10,1.88-15.07,2.63s-10.05,1.39-15.08,2c-20.12,2.5-40.28,4.54-60.38,6.87-5,.6-10.06,1.18-15,2a33.55,33.55,0,0,0-7,2c-2.29.89-4.56,2-7.06,2.93a20.49,20.49,0,0,1-8,1.2c-.68,0-1.33-.12-2-.18l-1.82-.2a31.42,31.42,0,0,0-3.64,0c-4.92.2-9.85,1.35-15.07,1.68a23.24,23.24,0,0,1-4-.06c-.68-.12-1.37-.17-2-.35s-1.33-.34-2-.58a23.77,23.77,0,0,1-6.92-4,27.88,27.88,0,0,1-5.37-5.85c-.35-.57-.75-1.1-1.06-1.72l-.48-.9c-.15-.31-.27-.63-.41-1a8.49,8.49,0,0,1-.77-4.35l0-.31c0-.14.08-.28.13-.41s.1-.27.16-.4.15-.22.22-.32a3.91,3.91,0,0,1,1-1,8.43,8.43,0,0,1,2-1,23.91,23.91,0,0,1,3.92-.87c2.58-.38,5.14-.55,7.69-.69,5.1-.26,10.17-.27,15.19-.48,1.25-.06,2.5-.13,3.73-.24a28.27,28.27,0,0,0,3.63-.56c2.47-.47,4.93-1,7.4-1.55,4.93-1.08,9.86-2.23,14.79-3.38q14.77-3.49,29.5-7.21t29.4-7.59l14.65-4,3.65-1,3.66-1c1.21-.35,2.42-.7,3.64-1s2.38-.73,3.59-1.07l.06,0a.82.82,0,0,1,.54,1.54Z"/><path class="cls-2" d="M297.39,270.5c12.19,5.38,17.45,8.42,13.36,12.16s-9.85,11.27-20.23,7.58-15.28-7.52-25.14-7.58-14.23-5.49-14.23-5.49"/><path class="cls-4" d="M205.86,64.39a21.64,21.64,0,0,0,2.44.76,11.88,11.88,0,0,0,2.52.31,9.33,9.33,0,0,0,2.49-.28,16.17,16.17,0,0,0,2.48-.82l.11,0a.82.82,0,0,1,.89,1.32,8,8,0,0,1-2.73,1.81,8.81,8.81,0,0,1-3.26.65,9.14,9.14,0,0,1-3.24-.6,6.61,6.61,0,0,1-2.75-1.88.81.81,0,0,1,.9-1.29Z"/><path class="cls-4" d="M235.5,64.39a21.64,21.64,0,0,0,2.44.76,11.88,11.88,0,0,0,2.52.31,9.33,9.33,0,0,0,2.49-.28,16.17,16.17,0,0,0,2.48-.82l.11,0a.82.82,0,0,1,.89,1.32,8,8,0,0,1-2.73,1.81,8.81,8.81,0,0,1-3.26.65,9.14,9.14,0,0,1-3.24-.6,6.61,6.61,0,0,1-2.75-1.88.81.81,0,0,1,.9-1.29Z"/><path class="cls-4" d="M214,85.62a32.63,32.63,0,0,0,6.13,1.73,37.54,37.54,0,0,0,6.39.61,30.77,30.77,0,0,0,6.37-.58,35.38,35.38,0,0,0,6.17-1.77l.05,0a.81.81,0,0,1,.73,1.44,19.45,19.45,0,0,1-3.13,1.58,23.82,23.82,0,0,1-3.3,1.09,27.49,27.49,0,0,1-6.91.9,28.41,28.41,0,0,1-6.9-.84A19.72,19.72,0,0,1,213.19,87a.81.81,0,0,1,.76-1.42Z"/><line class="cls-1" x1="357.11" y1="109.42" x2="351.56" y2="110.82"/><path class="cls-4" d="M357.41,110.63A11.31,11.31,0,0,1,356,111c-.47.08-.93.2-1.41.25s-.95.14-1.43.17-1,.08-1.46.07a.76.76,0,0,1-.36-1.44c.43-.24.87-.44,1.32-.63s.9-.35,1.34-.53.91-.3,1.36-.45a11.31,11.31,0,0,1,1.4-.29,1.26,1.26,0,0,1,.61,2.42Z"/><path class="cls-3" d="M102.82,129l-36.69,34a3.51,3.51,0,0,1-4.34.35L22.31,137.19l50.43-29.54,29.35,15.7A3.51,3.51,0,0,1,102.82,129Z"/><path class="cls-2" d="M22.31,137.19,14.36,89.95a3.51,3.51,0,0,1,2.11-3.82L61.89,67.05a3.51,3.51,0,0,1,4.83,2.69l6,37.91Z"/><path class="cls-4" d="M73.43,115.56a76.39,76.39,0,0,1-8.83,6.18l-9,5.84-9.12,5.72-4.56,2.86a30.91,30.91,0,0,1-4.78,2.52.83.83,0,0,1-.87-1.37,30.91,30.91,0,0,1,4.3-3.26l4.52-2.92,9-5.84,9.12-5.72a76.4,76.4,0,0,1,9.33-5.38.82.82,0,0,1,.87,1.37Z"/><path class="cls-4" d="M79.65,118.87a76.1,76.1,0,0,1-8.6,6.45l-8.83,6.12-8.91,6-4.46,3a30.79,30.79,0,0,1-4.68,2.67.83.83,0,0,1-.92-1.34,30.79,30.79,0,0,1,4.19-3.39l4.41-3.06,8.83-6.12,8.91-6a76.1,76.1,0,0,1,9.14-5.67.82.82,0,0,1,.92,1.34Z"/><path class="cls-4" d="M85.78,122.37a77.93,77.93,0,0,1-8.45,6.86l-8.69,6.54-8.77,6.42-4.39,3.21a31.51,31.51,0,0,1-4.63,2.88.83.83,0,0,1-1-1.31,31.51,31.51,0,0,1,4.1-3.59l4.34-3.27L67,133.58l8.78-6.42a77.92,77.92,0,0,1,9-6.1.82.82,0,0,1,1,1.31Z"/><path class="cls-4" d="M22.09,107c-.35-1.34-.66-2.69-.94-4s-.53-2.71-.79-4.07-.47-2.72-.71-4.08L19,90.74a1.12,1.12,0,0,1,.65-1.21h0l20.76-9.12,20.82-9h0a1.13,1.13,0,0,1,1.48.59,1.17,1.17,0,0,1,.08.28l1.36,8.9c.22,1.49.43,3,.6,4.47s.33,3,.41,4.49a.72.72,0,0,1-1.41.22c-.38-1.46-.69-2.93-1-4.41s-.55-3-.79-4.43l-1.42-8.9,1.57.86L41.33,82.61l-20.82,9,.66-1.22.67,4.09c.22,1.36.46,2.72.65,4.09s.43,2.73.58,4.1.33,2.74.43,4.13a.72.72,0,0,1-1.41.24Z"/><path class="cls-4" d="M35.85,123.9a40.63,40.63,0,0,1-4.23,2.91c-1.44.92-2.94,1.74-4.44,2.56l0,0a1.11,1.11,0,0,1-1.51-.45,1.14,1.14,0,0,1-.12-.34c-.17-1-.28-2-.42-3s-.21-2-.26-3.06a.72.72,0,0,1,1.41-.25c.31,1,.56,2,.81,3s.47,2,.65,3l-1.66-.77c1.46-.89,2.92-1.77,4.44-2.56a40.63,40.63,0,0,1,4.64-2.21.72.72,0,0,1,.71,1.24Z"/><path class="cls-1" d="M204.31,97.32s2.79,19-1.18,22.84c-5.88,5.7-27.26,6.85-32.73,12.47-5.07,5.22-20.46,28.7-22,30.13s-37.66-11.24-42.53-12.7-6.08-14.7-8.27-17.08-15.1-1.65-15.33,1.27a3.43,3.43,0,0,0,1.27,3.25,22.06,22.06,0,0,0,6.12,2.15A23.52,23.52,0,0,0,91.1,146"/><path class="cls-4" d="M205.55,97.14a101.35,101.35,0,0,1,1,11.78,45.39,45.39,0,0,1-.25,6,19,19,0,0,1-.59,3.06,7,7,0,0,1-1.68,3.1,17.08,17.08,0,0,1-5.43,3.15,58.44,58.44,0,0,1-5.66,1.85c-3.78,1.06-7.58,1.92-11.29,2.94-1.85.51-3.69,1.06-5.44,1.73a15,15,0,0,0-4.66,2.56,43.66,43.66,0,0,0-3.61,4.3c-1.17,1.53-2.31,3.09-3.45,4.66-4.54,6.29-8.87,12.72-13.39,19.09l-.88,1.2c-.16.21-.3.4-.48.61s-.16.2-.3.35l-.09.1-.06.06-.23.17a1.76,1.76,0,0,1-.58.22,4,4,0,0,1-1.08,0c-.29,0-.55-.06-.81-.11-.52-.09-1-.19-1.5-.3-1.95-.44-3.83-1-5.71-1.51-3.76-1.09-7.47-2.26-11.18-3.46-7.41-2.38-14.79-4.91-22.13-7.32l-.34-.11-.17-.05-.24-.09a4.79,4.79,0,0,1-.89-.43,6.36,6.36,0,0,1-1.37-1.19,12,12,0,0,1-1.74-2.74,38.86,38.86,0,0,1-2.06-5.66c-.57-1.88-1.05-3.78-1.66-5.52a12,12,0,0,0-.5-1.21,4.45,4.45,0,0,0-.27-.47l-.11-.13-.11-.09a6,6,0,0,0-2.21-.7,23.51,23.51,0,0,0-5.51-.12,21.08,21.08,0,0,0-2.72.41,7.73,7.73,0,0,0-2.32.83c-.29.17-.36.37-.3.21a3.53,3.53,0,0,0,.07,1,2,2,0,0,0,.36.81.87.87,0,0,0,.23.21c.13.08.35.2.53.29a23.73,23.73,0,0,0,5.23,1.72h0a1.25,1.25,0,0,1,1,1l0,.17.42,3c.17,1,.36,2.1.56,3.17a.84.84,0,0,1-1.58.52,22.23,22.23,0,0,1-1.26-3.15,15,15,0,0,1-.45-1.67,7.63,7.63,0,0,1-.18-1.84l1,1.21h0a26,26,0,0,1-5.82-1.93c-.25-.13-.46-.24-.74-.42a3.36,3.36,0,0,1-.84-.77,4.5,4.5,0,0,1-.84-1.82,5.92,5.92,0,0,1-.11-1.86,2.46,2.46,0,0,1,.6-1.32,3.79,3.79,0,0,1,.83-.7,9.92,9.92,0,0,1,3.13-1.17,23.53,23.53,0,0,1,3-.46,25.9,25.9,0,0,1,6.12.15A8,8,0,0,1,98,131.7a3.14,3.14,0,0,1,.45.38c.14.15.24.28.35.43a6.76,6.76,0,0,1,.46.79,14.38,14.38,0,0,1,.61,1.48c.67,1.93,1.15,3.8,1.7,5.64a36.61,36.61,0,0,0,1.92,5.29,9.61,9.61,0,0,0,1.36,2.18,3.89,3.89,0,0,0,.82.72,2.29,2.29,0,0,0,.42.2l.1,0,.18.06.36.11c7.43,2.43,14.75,4.95,22.15,7.32,3.69,1.19,7.39,2.36,11.1,3.43,1.85.53,3.72,1.05,5.56,1.47.46.1.92.2,1.36.27l.63.08a3,3,0,0,0,.37,0,.73.73,0,0,0-.24.1l-.16.12s0,0,0,0l0,0,.17-.2c.13-.15.28-.36.42-.54l.84-1.15c4.47-6.31,8.83-12.78,13.39-19.1,1.14-1.58,2.3-3.16,3.49-4.71a44.76,44.76,0,0,1,3.89-4.61,17.14,17.14,0,0,1,5.47-3.07c1.88-.72,3.78-1.28,5.67-1.8,3.79-1,7.58-1.9,11.28-2.94a56.08,56.08,0,0,0,5.42-1.77,14.87,14.87,0,0,0,4.62-2.63,4.75,4.75,0,0,0,1-2,16.59,16.59,0,0,0,.51-2.66A43,43,0,0,0,204,109a99,99,0,0,0-.93-11.45v0a1.25,1.25,0,1,1,2.48-.34Z"/><path class="cls-4" d="M95.51,73.23a1.14,1.14,0,0,0-.32,0,1.31,1.31,0,0,0-.22.08h0l0,0,.1-.05.2-.11.41-.22.82-.47q.81-.48,1.6-1a28.88,28.88,0,0,0,3-2.26,13.94,13.94,0,0,0,2.38-2.63,6.56,6.56,0,0,0,.74-1.45,5.53,5.53,0,0,0,.32-1.55A4.46,4.46,0,0,0,101.4,59a2.8,2.8,0,0,0-1.34-.05,3.5,3.5,0,0,0-1.32.58,9.16,9.16,0,0,0-1.22,1,6.55,6.55,0,0,0-.56.67c-.08.12-.17.25-.25.39l-.13.23-.09.15-.09.12-.14.15a.86.86,0,0,1-.23.15.95.95,0,0,1-1-.06.74.74,0,0,1-.17-.14L94.81,62l-.07-.12-.08-.14-.12-.22c-.08-.14-.16-.26-.24-.39a6.48,6.48,0,0,0-.55-.67,9.26,9.26,0,0,0-1.2-1,3.52,3.52,0,0,0-1.31-.61,2.8,2.8,0,0,0-1.34,0,4.46,4.46,0,0,0-3.27,4.53,5.53,5.53,0,0,0,.29,1.55,6.56,6.56,0,0,0,.71,1.46A13.94,13.94,0,0,0,90,69.08a28.9,28.9,0,0,0,2.92,2.32q.77.54,1.58,1l.81.48.41.23.2.11.1.05,0,0h0a1.32,1.32,0,0,0-.21-.08A1.14,1.14,0,0,0,95.51,73.23Zm0,2.5a1.36,1.36,0,0,1-.35-.05,1.53,1.53,0,0,1-.24-.1l0,0-.06,0-.12-.06-.23-.12L94,75.11l-.88-.5q-.87-.52-1.71-1.08A28.16,28.16,0,0,1,88.19,71a16.51,16.51,0,0,1-2.79-3.21,9.18,9.18,0,0,1-1-2A8.17,8.17,0,0,1,84,63.49a7.06,7.06,0,0,1,5.32-7.11,5.35,5.35,0,0,1,2.54,0A6,6,0,0,1,94,57.44a5.48,5.48,0,0,1,1.49,1.78,10.5,10.5,0,0,1,.48,1l.22.48.1.21,0,.07h0l-.08-.09a.82.82,0,0,0-.15-.12.93.93,0,0,0-.91-.06,1,1,0,0,0-.2.14l-.1.1,0,0,0-.06.1-.2.22-.47a10.67,10.67,0,0,1,.5-1,5.47,5.47,0,0,1,1.52-1.76,6,6,0,0,1,2.22-1,5.35,5.35,0,0,1,2.53,0,7.06,7.06,0,0,1,5.19,7.21,8.17,8.17,0,0,1-.47,2.27,9.18,9.18,0,0,1-1,2,16.51,16.51,0,0,1-2.85,3.15,28.15,28.15,0,0,1-3.29,2.43q-.85.55-1.73,1l-.89.49-.45.24-.23.12-.12.06-.06,0h0a1.52,1.52,0,0,1-.24.09A1.37,1.37,0,0,1,95.49,75.73Z"/><path class="cls-4" d="M311.31,73.22a1.14,1.14,0,0,0-.32,0,1.31,1.31,0,0,0-.22.08h0l0,0,.1-.05.2-.11.41-.22.82-.47q.81-.48,1.6-1a28.88,28.88,0,0,0,3-2.26,13.94,13.94,0,0,0,2.38-2.63,6.56,6.56,0,0,0,.74-1.45,5.53,5.53,0,0,0,.32-1.55A4.46,4.46,0,0,0,317.2,59a2.8,2.8,0,0,0-1.34-.05,3.5,3.5,0,0,0-1.32.58,9.16,9.16,0,0,0-1.22,1,6.55,6.55,0,0,0-.56.67c-.08.12-.17.25-.25.39l-.13.23-.09.15-.09.12-.14.15a.86.86,0,0,1-.23.15.95.95,0,0,1-1-.06.74.74,0,0,1-.17-.14L310.6,62l-.07-.12-.08-.14-.12-.22c-.08-.14-.16-.26-.24-.39a6.48,6.48,0,0,0-.55-.67,9.26,9.26,0,0,0-1.2-1,3.52,3.52,0,0,0-1.31-.61,2.8,2.8,0,0,0-1.34,0,4.46,4.46,0,0,0-3.27,4.53,5.53,5.53,0,0,0,.29,1.55,6.56,6.56,0,0,0,.71,1.46,13.94,13.94,0,0,0,2.33,2.68,28.9,28.9,0,0,0,2.92,2.32q.77.54,1.58,1l.81.48.41.23.2.11.1.05,0,0h0a1.32,1.32,0,0,0-.21-.08A1.14,1.14,0,0,0,311.31,73.22Zm0,2.5a1.36,1.36,0,0,1-.35-.05,1.53,1.53,0,0,1-.24-.1l0,0-.06,0-.12-.06-.23-.12-.45-.24-.88-.5q-.87-.52-1.71-1.08A28.16,28.16,0,0,1,304,71a16.51,16.51,0,0,1-2.79-3.21,9.18,9.18,0,0,1-1-2,8.17,8.17,0,0,1-.43-2.28,7.06,7.06,0,0,1,5.32-7.11,5.35,5.35,0,0,1,2.54,0,6,6,0,0,1,2.2,1.06,5.48,5.48,0,0,1,1.49,1.78,10.5,10.5,0,0,1,.48,1l.22.48.1.21,0,.07h0l-.08-.09a.82.82,0,0,0-.15-.12.93.93,0,0,0-.91-.06,1,1,0,0,0-.2.14l-.1.1,0,0,0-.06.1-.2.22-.47a10.67,10.67,0,0,1,.5-1,5.47,5.47,0,0,1,1.52-1.76,6,6,0,0,1,2.22-1,5.35,5.35,0,0,1,2.53,0A7.06,7.06,0,0,1,323,63.71a8.17,8.17,0,0,1-.47,2.27,9.18,9.18,0,0,1-1,2,16.51,16.51,0,0,1-2.85,3.15,28.15,28.15,0,0,1-3.29,2.43q-.85.55-1.73,1l-.89.49-.45.24-.23.12-.12.06-.06,0h0a1.52,1.52,0,0,1-.24.09A1.37,1.37,0,0,1,311.28,75.72Z"/><path class="cls-4" d="M329.57,40.06a1,1,0,0,0-.31,0,1.23,1.23,0,0,0-.2.07l.06,0,.11-.06.23-.13.46-.27c.31-.18.61-.38.9-.58a16.63,16.63,0,0,0,1.65-1.28,7.65,7.65,0,0,0,1.29-1.42L334,36c0-.12.1-.24.15-.36l.11-.38c0-.12,0-.25,0-.37a2.05,2.05,0,0,0-.35-1.32,2.08,2.08,0,0,0-1.09-.81,1.28,1.28,0,0,0-.53,0,1.45,1.45,0,0,0-.58.25c-.18.13-.41.25-.65.44a2.94,2.94,0,0,0-.34.32c-.05.07-.1.13-.15.21l-.08.14-.08.12-.06.08a1,1,0,0,1-.78.39,1,1,0,0,1-.7-.31l-.09-.11-.05-.08-.07-.11-.07-.13a2.49,2.49,0,0,0-.15-.21,2.93,2.93,0,0,0-.33-.33c-.23-.19-.46-.31-.64-.45a1.47,1.47,0,0,0-.58-.26,1.27,1.27,0,0,0-.53,0,2.08,2.08,0,0,0-1.1.79,2.05,2.05,0,0,0-.37,1.31c0,.12,0,.25,0,.37l.1.38c.05.12.1.24.15.36l.21.37a7.66,7.66,0,0,0,1.27,1.45,16.63,16.63,0,0,0,1.63,1.31c.29.2.59.4.89.59l.46.28.23.13.11.06.06,0a1.23,1.23,0,0,0-.19-.07A1,1,0,0,0,329.57,40.06Zm0,2.5a1.52,1.52,0,0,1-.37-.07,1.68,1.68,0,0,1-.26-.11l-.07,0-.14-.07-.27-.14-.53-.3c-.35-.2-.69-.42-1-.64a16,16,0,0,1-2-1.49,10.2,10.2,0,0,1-1.72-2l-.35-.62-.29-.69-.19-.72c0-.25-.08-.5-.09-.76a4.69,4.69,0,0,1,.93-3,4.63,4.63,0,0,1,2.59-1.72,3.81,3.81,0,0,1,1.73,0A4,4,0,0,1,329,31a3.11,3.11,0,0,1,.93,1.19,6.83,6.83,0,0,1,.27.64l.12.3.05.12s0,0,0,0v0l-.08-.1a.88.88,0,0,0-.66-.28.9.9,0,0,0-.72.34l0,0s0,0,0,0l.05-.11.12-.29c.08-.21.17-.42.28-.63a3.1,3.1,0,0,1,.95-1.18,4,4,0,0,1,1.48-.68,3.81,3.81,0,0,1,1.73,0,4.63,4.63,0,0,1,2.56,1.77,4.69,4.69,0,0,1,.88,3c0,.26-.06.51-.1.76l-.2.72-.3.69-.36.61a10.2,10.2,0,0,1-1.76,1.94,16,16,0,0,1-2,1.46c-.34.21-.69.42-1,.62l-.53.29-.27.14-.14.07-.07,0a1.68,1.68,0,0,1-.26.1A1.52,1.52,0,0,1,329.54,42.56Z"/><path class="cls-4" d="M54.79,51.36a1,1,0,0,0-.31,0,1.23,1.23,0,0,0-.2.07l.06,0,.11-.06.23-.13.47-.27c.31-.19.61-.38.91-.58a16.79,16.79,0,0,0,1.67-1.29A7.73,7.73,0,0,0,59,47.65l.22-.37.16-.36.11-.38c0-.13,0-.25,0-.37a2.08,2.08,0,0,0-.35-1.34,2.11,2.11,0,0,0-1.1-.82,1.3,1.3,0,0,0-.54,0,1.48,1.48,0,0,0-.59.25c-.18.13-.42.25-.65.44A3,3,0,0,0,56,45c-.05.07-.1.13-.15.21l-.08.14-.08.12-.06.08a1,1,0,0,1-.78.39,1,1,0,0,1-.7-.31L54,45.5,54,45.43l-.07-.11-.08-.13c0-.08-.1-.14-.15-.21a3,3,0,0,0-.34-.33c-.24-.19-.47-.32-.65-.46a1.49,1.49,0,0,0-.58-.26,1.3,1.3,0,0,0-.54,0,2.11,2.11,0,0,0-1.12.8,2.08,2.08,0,0,0-.38,1.33c0,.12,0,.25,0,.37l.1.39.15.36.21.37A7.74,7.74,0,0,0,51.89,49a16.78,16.78,0,0,0,1.64,1.33c.29.21.59.41.9.6l.46.28.23.13.11.06.06,0a1.24,1.24,0,0,0-.19-.07A1,1,0,0,0,54.79,51.36Zm0,2.5a1.52,1.52,0,0,1-.37-.07,1.68,1.68,0,0,1-.26-.11l-.07,0-.14-.07-.27-.15-.53-.3c-.35-.2-.69-.42-1-.64a16.17,16.17,0,0,1-2-1.51,10.28,10.28,0,0,1-1.73-2L48,48.36l-.29-.7-.19-.72c0-.26-.08-.51-.09-.77a4.72,4.72,0,0,1,.94-3A4.66,4.66,0,0,1,51,41.46a3.83,3.83,0,0,1,1.74,0,4,4,0,0,1,1.48.71,3.13,3.13,0,0,1,.93,1.2,6.89,6.89,0,0,1,.27.64l.12.3.06.12s0,0,0,0v0l-.08-.1a.88.88,0,0,0-.66-.28.9.9,0,0,0-.72.34l0,0s0,0,0,0l.06-.11.13-.29c.08-.21.17-.42.28-.64a3.13,3.13,0,0,1,1-1.18A4,4,0,0,1,57,41.51a3.83,3.83,0,0,1,1.74,0,4.66,4.66,0,0,1,2.58,1.78,4.72,4.72,0,0,1,.88,3c0,.26-.06.51-.1.77l-.2.72-.3.69-.37.62a10.28,10.28,0,0,1-1.77,2,16.18,16.18,0,0,1-2,1.47c-.35.22-.69.43-1,.62l-.54.29-.27.14-.14.07-.07,0a1.68,1.68,0,0,1-.26.1A1.52,1.52,0,0,1,54.76,53.86Z"/><polygon class="cls-5" points="61.64 72.46 20.06 90.56 26.62 128.4 67.24 105.41 61.64 72.46"/><path class="cls-5" d="M187.83,47.35c3.19,4.58,28.46,6.27,47.88,5.9,18.49-.36,28.5-1.35,29.85-5.26s5.31-34.57,1.55-36.53-20.19,5.12-23.2,7.07S230.84,6.81,227.24,5.3,210.4,19.73,208.3,19.73s-21.73-14.31-24-6.19S185.42,43.89,187.83,47.35Z"/><path class="cls-6" d="M260.84,51.45c2.57-.52,4.44,19.66.53,30.7-3.56,10-11,15.57-11.24,19.28-.48,8.69-1.07,16.7,6.39,19.11s20,2,25.67,8.15,16,24.46,25.07,27.13c3.07.9,31.85-34.18,30.31-41.21s1.39-13.49,9.11-12,8.81-8,15.72-3c12.74,9.23-3.43,12.09-10.72,34.28s-18.21,47.1-25.89,54.78c-6.52,6.52-18.54,7.68-26.88,3.07-3.86-2.13-27.54-27.54-29.12-21.64-2.14,8-.44,34.08,4.5,39.28,9.18,9.67,60.89,22.71,58.91,39.19s-24.2,18.92-20,24.39c7.31,9.51-8,22.12-16.74,22.11-13.63,0-41.48-17.83-66.31-14.26s-48.77,11-73.38,10.37-23.13-23.81-17.14-27.45S111.26,259,115,236.11c2.08-12.63,47.77-24,60.63-25.61s11.87-44.69,4.62-37.88c-3.89,3.66-11.52,10.32-18.94,16.77-5.74,5-15.77,5.7-20,3-36.89-23.47-62.89-32.61-68.62-30-10.65,4.83,6.39-16.51,10.43-20s-2.64-23,14.5-12.35c4.73,2.94,6.79,14,12.41,17.53,14.74,9.3,33.81,11,39.22,8.78,4.26-1.78,9.88-16.71,20.09-26,7.67-7,18.68-8.94,29.57-10.06,4.1-.42,5.4-10.89,1.73-22-2-6.13-7.7-11-10.24-17.86C183.8,62.59,188.14,48.79,193,50c6.79,1.71,21.3,3.27,36,3.27C243.22,53.29,254.78,52.68,260.84,51.45Z"/><path class="cls-6" d="M302.92,71.75c-3.43-3.62-8.35-14.55,1.16-16.25,4.32-.77,6.05.44,8.25,0,4.64-.92,10.46.49,11.84,5.38s-4.59,13.39-11.44,15.82C309.7,77.77,305,73.9,302.92,71.75Z"/><path class="cls-6" d="M329.62,44c-3.07.36-9.48-6.24-8.49-9.66s3.34-5.93,6.46-5.25,6.78-1.11,9.44,2.38S334.22,43.42,329.62,44Z"/><path class="cls-6" d="M100.8,54.72c6,1.15,10.48,8.61,5.12,15.67s-11.93,7-16.34,4.09c-7.86-5.25-8.9-14-5-17.28s6.13-2.72,8.44-1.71S98.48,54.28,100.8,54.72Z"/><path class="cls-6" d="M56.74,54.66c4.68-.84,9.94-12.49,3.35-14.11s-13.64-.23-13.76,4S51,55.7,56.74,54.66Z"/><path class="cls-5" d="M337.73,58.88c6.11-4.35,27.34,2.15,30.33,8.25,1.86,3.81,3.77,16.39-.21,26.65-2.39,6.16-4.64,3.81-8.64,3.5-4.87-.38-7.52,5.77-14.47,4.63-14.08-2.31-12.86-13.52-13.53-23.45C330.47,67.61,334.09,61.47,337.73,58.88Z"/></g></svg>