<svg xmlns="http://www.w3.org/2000/svg" viewBox="0 0 407.78 283.14"><defs><style>.cls-1{fill:#fff;}.cls-2{fill:#f47a5c;opacity:0.2;}.cls-3{fill:none;stroke:#f69679;stroke-linecap:round;stroke-linejoin:round;stroke-width:2.58px;}.cls-4{fill:#f69679;}.cls-5{fill:#ffd54c;opacity:0.3;}</style></defs><title>icons3-illus</title><g id="Layer_1" data-name="Layer 1"><path class="cls-1" d="M288.38,97.15c.64-8.69-15.43-18-11.15-39.73S293.74,38.59,299,36.94,338.5,31,347.3,46.87s-7.53,18,1.5,24.86S381.8,94,381.38,106,371,112.89,364,111.6s-9.59,5.95-9.6,16.48,2.52,29.39-5.61,33.68-19.27-3.62-27.84-7.81-9.43,7.53-24.43,3.17S279,137.05,278.52,125,287.52,108.86,288.38,97.15Z"/><path class="cls-1" d="M172,111.76c-2.54-8.4,7-12.1,12.26-15.66s19.94-24.38,14.61-36-20,6.27-27.08,8.26.76-15.73-4.88-26-20.09-17-36.66-10.41-14.36,18.52-13.94,23.75c.39,4.82,1.71,9.72-2,10-4.46.29-14.81-6.82-19.16-5.14-13.31,5.14-.66,32,6.6,40.64s.64,23.85,6.27,38.76,4.47,27.17,18.63,22.53,25.45-4.3,34.72,1S179.58,136.94,172,111.76Z"/><path class="cls-2" d="M46,167.72c-4.66-18.21,15.42-34.45,32.18-31.1S98.5,160.8,91.62,172.15c-13.41,22.13,1.46,27.15,3.32,51.43,1.66,21.78-6.67,47.13-18.74,46.46s-12.74-28.83-18.1-28.83.94,28.86-12.6,28.85-17.57-42.93-13.55-61.7S50.72,186.08,46,167.72Z"/><path class="cls-3" d="M59.52,177.69c2.23-2,12.59.59,14,2s-5.22,5.9-8.51,5.9S57.56,179.47,59.52,177.69Z"/><path class="cls-3" d="M64.49,185.58c1.86.06,4.67,21.89,4.86,24.84s-5.75,8.07-7.57,8.07-5.79-5.9-5.85-8.61C55.87,206.8,62.64,185.52,64.49,185.58Z"/><path class="cls-4" d="M63.37,152a3.29,3.29,0,0,1-.06,1.16c-.08.36-.15.71-.26,1.05a11.15,11.15,0,0,1-.82,2.06l0,.09a.91.91,0,0,1-1.63-.09,3.71,3.71,0,0,1-.29-1.4,5.64,5.64,0,0,1,.16-1.38,5.06,5.06,0,0,1,.51-1.27,3,3,0,0,1,1-1.06.91.91,0,0,1,1.41.6Z"/><path class="cls-4" d="M80.06,154.8a3.93,3.93,0,0,1,0,1.4,9.69,9.69,0,0,1-.32,1.28,9.33,9.33,0,0,1-1.13,2.35l-.06.08a.9.9,0,0,1-1.6-.32,4.78,4.78,0,0,1-.08-1.52,8.8,8.8,0,0,1,.27-1.39,7.47,7.47,0,0,1,.51-1.3,3.75,3.75,0,0,1,.87-1.16,1,1,0,0,1,1.56.54Z"/><path class="cls-5" d="M91.25,185.56c11.15,1.49,26.73,14.7,24.87,26.82s-15.49,16.77-18.34,14,6.38-9.51,5.68-14.79-10-7.27-14.38-15C86.25,191.47,86.4,184.91,91.25,185.56Z"/><path class="cls-5" d="M45.33,177.71c-.54-8.3-30,.67-32.92,7.85s8.38,19.85,12.1,22.71,5.95-2.62,4.7-6.25c-1-2.95-3.78-8.91,2.69-12.19C35.25,188.14,46,187.2,45.33,177.71Z"/><path class="cls-4" d="M260.47,145.63c-.72.45-1.33.2-2,.2s-1.28-.06-1.91-.07-1.25,0-1.87,0c-.3,0-.61,0-.9.08a1.38,1.38,0,0,1-1-.24l-.14-.09a1.11,1.11,0,0,1-.34-1.51,1.49,1.49,0,0,1,1-.7c.37-.1.74-.15,1.11-.22a14.39,14.39,0,0,1,2.2-.13,17.17,17.17,0,0,1,2.15.21c.7.15,1.43.1,2,.82a1,1,0,0,1-.12,1.48l-.12.09Z"/><path class="cls-2" d="M206.4,151.09c1.08-14,12.84-27.77,32.34-17.53,10.82,5.68,13.14,21.43-3.57,32.55-11.28,7.5-8.07,22.47-3.59,35.17,1.22,3.45,9.15,13.46,10.43,23.85,1.62,13.14-15.71,27.82-24,27s-6.55-7.52-1.15-20.41c3.05-7.28-1.93-14.32-9.9-13.74-19.66,1.42-17.55,37.34-31.69,33.93s-5-41.65,14.66-68.23C197.34,173.67,204.93,170.1,206.4,151.09Z"/><path class="cls-5" d="M234.2,172.76c12.42-3,21.2-3.56,27.7-15.67,3.9-7.27,8.19-8.45,9.4-3.49.63,2.61-1.43,15-9,24.32-6.8,8.4-18.5,14-29,12.4C228.5,189.6,226.05,174.73,234.2,172.76Z"/><path class="cls-5" d="M201.62,163.94c.73-8.48-26.41-7.61-37.78,20.7-3.35,8.33,2.24,13.34,5.83,7.86,8-12.21,19.1-12.82,25.17-17.72C198.17,172.08,201.28,168,201.62,163.94Z"/><path class="cls-4" d="M200.75,123.23a6.06,6.06,0,0,1,1.68,2.19c.49.76,1,1.53,1.48,2.26s1,1.44,1.58,2.11a12.6,12.6,0,0,0,.87.94,2.47,2.47,0,0,1,.7,1.15l0,.15a1,1,0,0,1-.7,1.2,1,1,0,0,1-.29,0,2.36,2.36,0,0,1-1.49-.62,15.23,15.23,0,0,1-1.13-1.05,19.17,19.17,0,0,1-1.9-2.33,24.62,24.62,0,0,1-1.5-2.54,5.1,5.1,0,0,1-.89-2.84,1,1,0,0,1,1.46-.72Z"/><path class="cls-4" d="M215.25,116.38a6.8,6.8,0,0,1,.67,2.67,23.33,23.33,0,0,0,.6,2.6,16.31,16.31,0,0,0,.92,2.4,9,9,0,0,0,.64,1.06,2.62,2.62,0,0,1,.5,1.24l0,.21a1,1,0,0,1-.85,1,1,1,0,0,1-.29,0,2.4,2.4,0,0,1-1.43-.9,11.63,11.63,0,0,1-1-1.34,13.81,13.81,0,0,1-1.26-2.92,17.48,17.48,0,0,1-.56-3,5,5,0,0,1,.31-3.08.94.94,0,0,1,1.6-.05Z"/><path class="cls-4" d="M231.76,114.38a6.66,6.66,0,0,1-.7,2.66c-.29.85-.56,1.71-.76,2.57a19.6,19.6,0,0,0-.46,2.58,10.9,10.9,0,0,0-.06,1.28,2.57,2.57,0,0,1-.31,1.34l-.09.15a1,1,0,0,1-1.33.35,1,1,0,0,1-.23-.19,2.41,2.41,0,0,1-.63-1.51,13.52,13.52,0,0,1-.05-1.59,15.38,15.38,0,0,1,.43-3.09,19.07,19.07,0,0,1,1-2.89,5,5,0,0,1,1.75-2.53.94.94,0,0,1,1.43.72Z"/><path class="cls-4" d="M246.3,119.08c-.48,1-1.36,1.47-2,2.17a22.93,22.93,0,0,0-2,2.12,16,16,0,0,0-1.58,2.33,9.35,9.35,0,0,0-.55,1.25,3.13,3.13,0,0,1-.76,1.25l-.15.14a.94.94,0,0,1-1.32-.06,1,1,0,0,1-.19-.31,2.7,2.7,0,0,1,0-1.8,12,12,0,0,1,.6-1.66,14.29,14.29,0,0,1,1.83-2.92,18.2,18.2,0,0,1,2.39-2.36,5.64,5.64,0,0,1,3-1.59.92.92,0,0,1,.92,1.32Z"/><path class="cls-4" d="M256.83,130.81c-.48.78-1.23.91-1.88,1.28s-1.31.69-1.94,1.07-1.25.76-1.86,1.16c-.3.2-.59.41-.87.64a1.77,1.77,0,0,1-1.11.41H249a1.06,1.06,0,0,1-1.08-1,1.19,1.19,0,0,1,0-.13,1.81,1.81,0,0,1,.61-1.19c.31-.3.63-.57,1-.84a15.93,15.93,0,0,1,2.07-1.43,18.92,18.92,0,0,1,2.24-1.08,3.74,3.74,0,0,1,2.49-.45,1,1,0,0,1,.58,1.48Z"/><path class="cls-4" d="M223.56,141.73a3.6,3.6,0,0,1-.08,1.46,6.81,6.81,0,0,1-.47,1.32,5.52,5.52,0,0,1-1.87,2.25.89.89,0,0,1-1.36-.89l0-.11a10.54,10.54,0,0,1,.74-2.4,10.38,10.38,0,0,1,.58-1.13,3.89,3.89,0,0,1,.86-1l.05,0a1,1,0,0,1,1.33.14A1,1,0,0,1,223.56,141.73Z"/><path class="cls-4" d="M235.07,145.72a3.45,3.45,0,0,1,.1,1.46,6.06,6.06,0,0,1-.34,1.38,6.51,6.51,0,0,1-.68,1.31A3.81,3.81,0,0,1,233,151a.88.88,0,0,1-1.32-.88l0-.19a14.93,14.93,0,0,1,.56-2.25c.12-.38.28-.76.45-1.14a3.87,3.87,0,0,1,.71-1.1l.07-.08a.94.94,0,0,1,1.33,0A1,1,0,0,1,235.07,145.72Z"/><path class="cls-2" d="M119.73,53.57c2.37-14.63,16.22-20.47,27.7-17.48,10,2.6,17.81,12.29,15.83,19.85S154.3,69.63,157,81s12.95,29.24,12.5,47.09-1.66,32-8.93,30.8c-11.16-1.79-10.27-31.7-19.64-31.7s-7.14,29-17,28.13-14.73-24.55-9.38-43.75c3.49-12.5,16.52-23.66,14.29-32.59S118.64,60.3,119.73,53.57Z"/><path class="cls-5" d="M159.68,82.62c.45-7.32,18.52-6.62,23-13.93S194.22,58,194.95,66.1c1.29,14.43-19.43,33.58-26.32,30.77S159.48,85.84,159.68,82.62Z"/><path class="cls-5" d="M126.65,84.36c-.24-5.8-12.74-5.1-18.68-9.77s-11-11.89-14-7.64,3.81,18.26,7.86,21.87c5.94,5.31,14.23,9.34,17.62,6.16S126.73,86.44,126.65,84.36Z"/><path class="cls-4" d="M138.9,32.63a6.25,6.25,0,0,1-3.13-4.44,5.92,5.92,0,0,1,.22-3,6,6,0,0,1,1.66-2.46,7.15,7.15,0,0,1,5.23-2.18,4.57,4.57,0,0,1,1.63.41,3.6,3.6,0,0,1,.78.49,3.52,3.52,0,0,1,.66.72,3.94,3.94,0,0,1,.65,1.67,3.13,3.13,0,0,1-1.75,3.38,4.93,4.93,0,0,1-1.57.46,7.81,7.81,0,0,1-1.42,0c-.23,0-.45,0-.68,0l-.72-.13a7.61,7.61,0,0,1-4.66-3.12,6.7,6.7,0,0,1-1-5.59,6,6,0,0,1,3.68-4,.86.86,0,0,1,.91,1.4h0a7.37,7.37,0,0,0-2.08,3.23A4.08,4.08,0,0,0,138,23a4.92,4.92,0,0,0,3,2,6.12,6.12,0,0,0,1.88.06,1.29,1.29,0,0,0,.91-.39.94.94,0,0,0-.15-.82,1.24,1.24,0,0,0-1-.46,4.56,4.56,0,0,0-3.23,1.41c-2,1.5-1.26,4.52.44,6.54l.06.07a.84.84,0,0,1-1,1.29Z"/><path class="cls-4" d="M161.12,22.45a6.58,6.58,0,0,0-4,.48,3.68,3.68,0,0,0-.8,6.08,3.14,3.14,0,0,0,1.44.86,1.15,1.15,0,0,0,1.06-.18.67.67,0,0,0,.2-.34,1.27,1.27,0,0,0,0-.52,1.85,1.85,0,0,0-.83-1,2.2,2.2,0,0,0-1.4-.32,4.55,4.55,0,0,0-1.7.71,3.78,3.78,0,0,0-1.8,3,6.42,6.42,0,0,0,1.49,3.5l0,0A.86.86,0,0,1,153.67,36a5.82,5.82,0,0,1-2.09-1.85,5.23,5.23,0,0,1-.9-2.93A6.4,6.4,0,0,1,153.54,26a7.22,7.22,0,0,1,2.74-1.19,4.9,4.9,0,0,1,3.29.59,4.35,4.35,0,0,1,2.14,2.71,4,4,0,0,1,0,1.88,3.43,3.43,0,0,1-1,1.71,3.86,3.86,0,0,1-3.52.78,5.79,5.79,0,0,1-2.69-1.6,6.89,6.89,0,0,1-1.63-2.51,6.27,6.27,0,0,1-.3-3,6.07,6.07,0,0,1,3.57-4.67,6.89,6.89,0,0,1,5.52.15.85.85,0,0,1-.46,1.61Z"/><path class="cls-4" d="M126.51,37.77a4.43,4.43,0,0,1-2.57-1,6.71,6.71,0,0,1-1.72-2A8.25,8.25,0,0,1,121,29.76a4.4,4.4,0,0,1,.47-1.51,4.9,4.9,0,0,1,.93-1.19,5.58,5.58,0,0,1,2.5-1.45,3.94,3.94,0,0,1,3.27.52,3.68,3.68,0,0,1,1.51,3.14,3.38,3.38,0,0,1-.6,1.73A4.86,4.86,0,0,1,128,32.11a7.13,7.13,0,0,1-2.5,1.13,6.86,6.86,0,0,1-5.29-1A7.51,7.51,0,0,1,117,28,5.29,5.29,0,0,1,118.23,23a.86.86,0,0,1,1.42.88v0a5.86,5.86,0,0,0-.19,3.44,4.92,4.92,0,0,0,2.16,2.64,4.19,4.19,0,0,0,3.19.64,4.41,4.41,0,0,0,1.52-.7,1.22,1.22,0,0,0,.57-.8,1,1,0,0,0-.33-.72,1.21,1.21,0,0,0-1-.12,2.89,2.89,0,0,0-1.3.75,2.42,2.42,0,0,0-.45.53,1.75,1.75,0,0,0-.19.6,6,6,0,0,0,.8,3.43,5.85,5.85,0,0,0,2.35,2.55l.12.06a.84.84,0,0,1-.4,1.59Z"/><path class="cls-4" d="M135.47,49.46a3.23,3.23,0,0,1,.3,1.16,9.23,9.23,0,0,1,0,1.12,8.4,8.4,0,0,1-.35,2.26l0,.07a.91.91,0,0,1-1.63.22,4.79,4.79,0,0,1-.73-2.57,5.46,5.46,0,0,1,.14-1.3,3.09,3.09,0,0,1,.58-1.25.94.94,0,0,1,1.58.15Z"/><path class="cls-4" d="M148.42,49.45a3.24,3.24,0,0,1,.32,1.15,9.44,9.44,0,0,1,.07,1.12,8.57,8.57,0,0,1-.29,2.26l0,.07a.91.91,0,0,1-1.62.27,4.75,4.75,0,0,1-.79-2.56,5.41,5.41,0,0,1,.12-1.31,3.08,3.08,0,0,1,.57-1.27.94.94,0,0,1,1.57.12Z"/><path class="cls-2" d="M373,254.88c-.53,12.16-13.16,16.21-21.64,15.51-10.53-.87-21-10.71-18.16-20.12,3.19-10.67,10-12.76,7.13-23.48-4.34-16.5-18.88-30-24-43.79s9.21-9.6,20.36-2.91,14.84,7.4,24.11,4.3,13.24-19,22.91-19.58,6.13,28.31-1.71,38.34-16.74,19.53-14.35,28.45S373.35,246.86,373,254.88Z"/><path class="cls-5" d="M338.18,230.65c-.19,6.3-17.37,17-14.61,29.08s-2.18,9.71-6.06,8.73c-6.32-1.6-10-17.89-4.05-31.58,3.91-9,16.23-20.24,19.79-18.06S338.31,226.24,338.18,230.65Z"/><path class="cls-5" d="M370.18,229.32c-.29,6,11.22,15.94,11.44,24.94s-9.21,16.25-3.85,16.25c11.79,0,16.13-10,14.49-24.72s-13.14-31.86-18.3-27.68C370,221.36,370.38,225.11,370.18,229.32Z"/><path class="cls-4" d="M361.74,255.15a2.18,2.18,0,0,1-.29-.87,4.51,4.51,0,0,1,0-.81,7.2,7.2,0,0,1,.13-.81,2.92,2.92,0,0,1,.33-.83l.13-.21a.92.92,0,0,1,1.27-.29.94.94,0,0,1,.25.24,2.94,2.94,0,0,1,.49,1,4.2,4.2,0,0,1,.13,1,3.42,3.42,0,0,1-.17,1,2,2,0,0,1-.6.93,1,1,0,0,1-1.47-.12l-.1-.14Z"/><path class="cls-4" d="M342.6,253.3a1.84,1.84,0,0,1-.27-.86,4.09,4.09,0,0,1,0-.81,3.94,3.94,0,0,1,.55-1.61l0-.08a1,1,0,0,1,1.35-.3,1,1,0,0,1,.28.27,3.12,3.12,0,0,1,.49,2,3.37,3.37,0,0,1-.21,1,2.07,2.07,0,0,1-.63.89,1,1,0,0,1-1.4-.11l-.07-.1Z"/><path class="cls-3" d="M344.45,260.37c-4.18-.51-8.41-4.21-6.9-10.14s5.42-6.4,9.26-5.86,6.35,6.19,5.41,9.48S348.28,260.83,344.45,260.37Z"/><path class="cls-3" d="M363.58,261.92a8.68,8.68,0,0,1-7.18-9c.27-4.56,3.51-7.79,8.6-7.09a7.21,7.21,0,0,1,6.41,9C370.43,258.84,367.66,262.42,363.58,261.92Z"/><line class="cls-3" x1="356.4" y1="252.95" x2="352.41" y2="252.5"/><path class="cls-2" d="M302.43,55c.3-11.24,10.67-15,17.68-15.53s23,6,21.56,15.53-6.95,19.16-5.57,28.93,11.37,32.45,12.47,48.68c1.13,16.86-2.07,27.34-8.52,24.49-11-4.84-17.43-28.33-26.88-29.54S309.75,155,299.08,151.3s-16.24-20.09-14.33-30.74c4-22.09,23-30.41,24.89-41.78C310.94,70.87,302.13,66.46,302.43,55Z"/><path class="cls-5" d="M306.72,77.51c-2.22-4.93-12.35-6.17-15-13.06-2-5.18-2.46-15.85-5.57-14.37s-5.11,10.59-4.59,20.21,12.29,21.43,18.91,18.88S308,80.4,306.72,77.51Z"/><path class="cls-5" d="M338.91,79.8c2-5.87,12.4-1.36,17.55,2.27s16.18,16.18,15.88,23.6-10.43-2.42-16.71-5.29-15.36-5.6-16.72-10A17.86,17.86,0,0,1,338.91,79.8Z"/><path class="cls-4" d="M315.43,56a3.3,3.3,0,0,1,.1,1.16c0,.37-.05.73-.11,1.08a11.15,11.15,0,0,1-.54,2.15l0,.09a.91.91,0,0,1-1.62.13,3.71,3.71,0,0,1-.48-1.35,5.64,5.64,0,0,1,0-1.39,5.05,5.05,0,0,1,.34-1.33,3,3,0,0,1,.82-1.18.91.91,0,0,1,1.48.4Z"/><path class="cls-4" d="M328.22,57.61a3.93,3.93,0,0,1,.16,1.39,9.68,9.68,0,0,1-.14,1.31,9.33,9.33,0,0,1-.8,2.48l0,.09a.9.9,0,0,1-1.63-.1,4.78,4.78,0,0,1-.29-1.49,8.8,8.8,0,0,1,.08-1.42,7.47,7.47,0,0,1,.33-1.35,3.76,3.76,0,0,1,.7-1.27,1,1,0,0,1,1.62.33Z"/><path class="cls-4" d="M318.94,45.44c8.06-.39,15.4,3,22.55,5.22l1.34.4c.46.13,1,.29,1.48.48a8.78,8.78,0,0,1,2.88,1.73,4.75,4.75,0,0,1,1.14,1.6,3.3,3.3,0,0,1,.13,2.32,3.2,3.2,0,0,1-1.54,1.8,4.24,4.24,0,0,1-2,.48,13.43,13.43,0,0,1-3.18-.57c-1-.27-1.89-.56-2.81-.86l-5.45-1.87c-1.8-.62-3.6-1.23-5.41-1.77a42.69,42.69,0,0,0-5.45-1.26,101.64,101.64,0,0,0-11.24-1.47c-1.88-.13-3.77-.2-5.67-.23l-2.86,0-1.43,0H301a4,4,0,0,1-.56-.06,3.43,3.43,0,0,1-1.12-.42,3.49,3.49,0,0,1-1.48-1.79,4,4,0,0,1-.18-2.15,4.11,4.11,0,0,1,2.68-3.13,10.64,10.64,0,0,1,3.29-.42l2.88,0-1.35,1.08a58.46,58.46,0,0,1,2.15-7.22,16.66,16.66,0,0,1,1.8-3.6,10.28,10.28,0,0,1,3.16-2.78,19.16,19.16,0,0,1,7.49-2.42,24,24,0,0,1,7.76.38,25.36,25.36,0,0,1,7.2,2.84,20.9,20.9,0,0,1,6,5c.21.28.41.58.6.89a7.3,7.3,0,0,1,.47,1,15.59,15.59,0,0,1,.65,1.9,15.76,15.76,0,0,1,.53,4A27.1,27.1,0,0,1,341.77,52v0a1.29,1.29,0,0,1-2.49-.68,24.65,24.65,0,0,0,1.1-6.88,13.1,13.1,0,0,0-.47-3.3,12.93,12.93,0,0,0-.55-1.56A4.79,4.79,0,0,0,339,39c-.13-.2-.27-.42-.43-.62a18.37,18.37,0,0,0-5.24-4.27A22.61,22.61,0,0,0,327,31.61a21.58,21.58,0,0,0-6.84-.3,16.39,16.39,0,0,0-6.38,2,7.55,7.55,0,0,0-2.33,2,14.27,14.27,0,0,0-1.46,3,55.9,55.9,0,0,0-2.06,6.83v0a1.36,1.36,0,0,1-1.34,1l-2.87,0a8.41,8.41,0,0,0-2.39.26,1.35,1.35,0,0,0-.89,1,1,1,0,0,0,.35,1.07.68.68,0,0,0,.22.08h.48l1.44,0,2.88.05c1.93,0,3.87.12,5.81.25a104.33,104.33,0,0,1,11.53,1.54,45.6,45.6,0,0,1,5.73,1.35c1.87.56,3.69,1.19,5.51,1.82l5.41,1.87c.9.3,1.79.58,2.68.83a11.79,11.79,0,0,0,2.46.48c.65,0,1-.28,1.07-.48s0-.72-.58-1.2a6.27,6.27,0,0,0-2-1.19c-.4-.16-.79-.28-1.25-.41l-1.41-.42C337,52,333.45,50.6,329.83,49.5a60.77,60.77,0,0,0-10.9-2.6h0a.73.73,0,0,1,0-1.45Z"/></g></svg>